<svg width="24" height="24" viewBox="0 0 24 24" fill="none" xmlns="http://www.w3.org/2000/svg">
<path fill-rule="evenodd" clip-rule="evenodd" d="M12 23.5C18.3513 23.5 23.5 18.3513 23.5 12C23.5 5.64873 18.3513 0.5 12 0.5C5.64873 0.5 0.5 5.64873 0.5 12C0.5 18.3513 5.64873 23.5 12 23.5Z" fill="#0C69DA"/>
<path fill-rule="evenodd" clip-rule="evenodd" d="M5.19883 2.1123L18.9998 21.7482C17.0296 23.1655 14.6123 24.0002 12 24.0002C5.37258 24.0002 0 18.6276 0 12.0002C0 8.0186 1.93916 4.4899 4.92458 2.30702L5.19883 2.1123ZM18.9998 21.7482L19.0008 2.25291C22.0285 4.43132 24 7.98553 24 12.0002C24 16.0153 22.0281 19.5699 18.9998 21.7482L19.0008 2.25291L18.9998 21.7482Z" fill="#0C69DA"/>
<path fill-rule="evenodd" clip-rule="evenodd" d="M12 0C14.6124 0 17.0298 0.834783 19.0001 2.25215L18.9996 21.7482L5.19966 2.11151C7.13255 0.779727 9.47521 0 12 0Z" fill="#FFCA68"/>
<path fill-rule="evenodd" clip-rule="evenodd" d="M16.0523 20.5L15.7761 21.4428L16.0523 22.3856L15.1095 22.1095L14.1667 22.3856L14.4428 21.4428L14.1667 20.5L15.1095 20.7761L16.0523 20.5ZM13.3856 16.5L13.1095 17.4428L13.3856 18.3856L12.4428 18.1095L11.5 18.3856L11.7761 17.4428L11.5 16.5L12.4428 16.7761L13.3856 16.5ZM10.719 12.5L10.4428 13.4428L10.719 14.3856L9.77614 14.1095L8.83333 14.3856L9.10948 13.4428L8.83333 12.5L9.77614 12.7761L10.719 12.5ZM8.05228 8.5L7.77614 9.44281L8.05228 10.3856L7.10948 10.1095L6.16667 10.3856L6.44281 9.44281L6.16667 8.5L7.10948 8.77614L8.05228 8.5ZM5.38562 4.5L5.10948 5.44281L5.38562 6.38562L4.44281 6.10948L3.5 6.38562L3.77614 5.44281L3.5 4.5L4.44281 4.77614L5.38562 4.5Z" fill="white"/>
<path d="M12 0.25C18.4893 0.25 23.75 5.51065 23.75 12C23.75 18.4893 18.4893 23.75 12 23.75C5.51065 23.75 0.25 18.4893 0.25 12C0.25 5.51065 5.51065 0.25 12 0.25Z" stroke="black" stroke-opacity="0.095389" stroke-width="0.5"/>
</svg>
