<svg width="89" height="16" viewBox="0 0 89 16" fill="none" xmlns="http://www.w3.org/2000/svg">
<path fill-rule="evenodd" clip-rule="evenodd" d="M87.2322 13.1383C87.0644 12.9503 86.9809 12.6395 86.9809 12.206V6.35238H88.9954V4.05428H86.9809V1.17069H83.8236V4.05428H82.2401V4.24374L83.8236 6.35238V12.672C83.8674 14.8909 84.9961 16 87.21 16C87.8227 16 88.4192 15.9182 89 15.7538V13.3649C88.7601 13.4019 88.4915 13.4201 88.1933 13.4201C87.7199 13.4201 87.3994 13.3262 87.2322 13.1383ZM66.2697 3.8373C64.8496 3.8373 63.717 4.36148 62.8722 5.40923V4.05428H59.8026V15.7833H62.9577V8.29527C62.9577 7.22979 63.8282 6.36599 64.902 6.36599C65.9759 6.36599 66.8462 7.22979 66.8462 8.29527V9.33277C66.8477 9.37926 66.8487 9.42681 66.8487 9.47513V15.7833H70.0059V8.20597C69.991 6.75347 69.678 5.6623 69.0663 4.93215C68.4547 4.20245 67.5224 3.8373 66.2697 3.8373ZM54.6632 5.45266V4.05428H51.5936V15.7833H54.7462V9.33935C54.7462 7.98976 55.8487 6.89568 57.2089 6.89568C57.5733 6.89568 57.9192 6.97443 58.2305 7.11541V3.96391C57.9385 3.87966 57.6269 3.8373 57.2958 3.8373C56.1743 3.8373 55.2967 4.37586 54.6632 5.45266ZM46.9653 8.54329C46.9653 7.34493 45.9771 6.36431 44.7694 6.36431C43.5618 6.36431 42.5736 7.34493 42.5736 8.54329V8.80064H46.9653V8.54329ZM50.0494 9.15983V10.6732C50.0494 10.7556 50.0474 10.8374 50.0437 10.9189H49.7749H46.9653H42.5736V11.2746C42.5736 12.473 43.5618 13.4537 44.7694 13.4537C45.8483 13.4537 46.7708 12.7575 47.1598 12.0463L49.5843 13.2494C48.7356 15.0844 46.8442 15.9957 44.6856 15.9957C41.7354 15.9957 39.3217 13.6005 39.3217 10.6732V9.15983C39.3217 6.2325 41.7354 3.8373 44.6856 3.8373C47.6358 3.8373 50.0494 6.2325 50.0494 9.15983ZM79.2246 8.54329C79.2246 7.34493 78.2365 6.36431 77.0287 6.36431C75.8209 6.36431 74.8328 7.34493 74.8328 8.54329V8.80064H79.2246V8.54329ZM82.3087 9.15983V10.6732C82.3087 10.7556 82.3067 10.8374 82.303 10.9189H82.0344H79.2246H74.8328V11.2746C74.8328 12.473 75.8209 13.4537 77.0287 13.4537C78.1076 13.4537 79.0301 12.7575 79.4191 12.0463L81.8436 13.2494C80.9949 15.0844 79.1035 15.9957 76.9449 15.9957C73.9949 15.9957 71.5811 13.6005 71.5811 10.6732V9.15983C71.5811 6.2325 73.9949 3.8373 76.9449 3.8373C79.8951 3.8373 82.3087 6.2325 82.3087 9.15983ZM8.54263 11.1111C8.54263 9.66581 7.78895 8.93214 6.28127 8.91074H3.27716V13.1708H6.08464C6.85651 13.1708 7.45918 12.9884 7.89265 12.6233C8.32582 12.2586 8.54263 11.7543 8.54263 11.1111ZM3.27717 6.61249H5.70234C7.35548 6.58374 8.18221 5.92958 8.18221 4.65048C8.18221 3.93486 7.97264 3.42001 7.55396 3.10562C7.13512 2.79124 6.4742 2.6342 5.5712 2.6342H3.27717V6.61249ZM11.1153 8.88887C11.5851 9.50327 11.82 10.2548 11.82 11.1437C11.82 12.6612 11.3319 13.8105 10.356 14.5909C9.37999 15.3714 7.98912 15.769 6.18311 15.7833H0V0H5.5712C7.5011 0 8.96486 0.366834 9.96279 1.10019C10.9606 1.83386 11.4594 2.90883 11.4594 4.32524C11.4594 5.09867 11.259 5.77958 10.8585 6.36859C10.4579 6.95776 9.90084 7.38943 9.18722 7.66405C10.0027 7.86636 10.6456 8.27478 11.1153 8.88887ZM20.7827 8.54329C20.7827 7.34493 19.7946 6.36431 18.5869 6.36431C17.3791 6.36431 16.3911 7.34493 16.3911 8.54329V8.80064H20.7827V8.54329ZM23.8669 9.15983V10.6732C23.8669 10.7556 23.8649 10.8374 23.861 10.9189H23.5924H20.7827H16.3911V11.2746C16.3911 12.473 17.3791 13.4537 18.5869 13.4537C19.6658 13.4537 20.5883 12.7575 20.9771 12.0463L23.4017 13.2494C22.5531 15.0844 20.6617 15.9957 18.503 15.9957C15.5529 15.9957 13.1392 13.6005 13.1392 10.6732V9.15983C13.1392 6.2325 15.5529 3.8373 18.503 3.8373C21.4531 3.8373 23.8669 6.2325 23.8669 9.15983ZM36.098 4.05428H38.1171V6.35238H36.098V12.206C36.098 12.6395 36.1815 12.9503 36.3493 13.1383C36.5165 13.3262 36.837 13.4201 37.3104 13.4201C37.6086 13.4201 37.8772 13.4019 38.1171 13.3649V15.7538C37.5363 15.9182 36.9398 16 36.3273 16C34.1132 16 32.9845 14.8909 32.9407 12.672V6.35238H28.5422V12.206C28.5422 12.6395 28.6257 12.9503 28.7934 13.1383C28.9607 13.3262 29.2812 13.4201 29.7546 13.4201C30.0526 13.4201 30.3214 13.4019 30.5611 13.3649V15.7538C29.9805 15.9182 29.384 16 28.7715 16C26.5574 16 25.4287 14.8909 25.3849 12.672V6.35238L23.8012 4.24374V4.05428H25.3849V1.17069H28.5422V4.05428H32.9407V1.17069H36.098V4.05428Z" fill="#2A2A4B"/>
</svg>
