<svg width="24" height="24" viewBox="0 0 24 24" fill="none" xmlns="http://www.w3.org/2000/svg">
<path fill-rule="evenodd" clip-rule="evenodd" d="M12 23.5C18.3513 23.5 23.5 18.3513 23.5 12C23.5 5.64873 18.3513 0.5 12 0.5C5.64873 0.5 0.5 5.64873 0.5 12C0.5 18.3513 5.64873 23.5 12 23.5Z" fill="white"/>
<path fill-rule="evenodd" clip-rule="evenodd" d="M23.3171 16.0002C22.9076 17.1588 22.3252 18.2358 21.6009 19.2H2.39911C1.71316 18.2868 1.15447 17.2725 0.749369 16.1835L0.682892 16.0002L23.3171 16.0002Z" fill="white"/>
<path fill-rule="evenodd" clip-rule="evenodd" d="M21.6008 4.79993C22.3252 5.76437 22.9077 6.84151 23.3173 8.00035H0.682716C1.09227 6.84151 1.67478 5.76437 2.39921 4.79993L21.6008 4.79993Z" fill="white"/>
<path fill-rule="evenodd" clip-rule="evenodd" d="M2.3996 19.2007H21.6004C19.4111 22.115 15.9257 24 12 24C8.07432 24 4.58892 22.115 2.3996 19.2007H21.6004H2.3996Z" fill="#0C69DA"/>
<path fill-rule="evenodd" clip-rule="evenodd" d="M12 0C15.9259 0 19.4114 1.88522 21.6007 4.79975H2.39931C4.58862 1.88522 8.07415 0 12 0Z" fill="#0C69DA"/>
<path fill-rule="evenodd" clip-rule="evenodd" d="M0.682922 7.99976L23.3171 7.99976C23.7593 9.25095 24 10.5974 24 12C24 13.4027 23.7594 14.7491 23.3171 16.0002H0.682893C0.240642 14.7491 0 13.4027 0 12C0 10.5974 0.240653 9.25095 0.682922 7.99976L23.3171 7.99976L0.682922 7.99976Z" fill="#F65260"/>
<path d="M0.25 12C0.25 5.51065 5.51065 0.25 12 0.25C18.4893 0.25 23.75 5.51065 23.75 12C23.75 18.4893 18.4893 23.75 12 23.75C5.51065 23.75 0.25 18.4893 0.25 12Z" stroke="black" stroke-opacity="0.095389" stroke-width="0.5"/>
</svg>
