<svg width="24" height="24" viewBox="0 0 24 24" fill="none" xmlns="http://www.w3.org/2000/svg">
<rect width="24" height="24" rx="12" fill="#F65260"/>
<path fill-rule="evenodd" clip-rule="evenodd" d="M10 14H6.33333C6.14924 14 6 13.8508 6 13.6667V10.3333C6 10.1492 6.14924 10 6.33333 10H10V6.33333C10 6.14924 10.1492 6 10.3333 6H13.6667C13.8508 6 14 6.14924 14 6.33333V10H17.6667C17.8508 10 18 10.1492 18 10.3333V13.6667C18 13.8508 17.8508 14 17.6667 14H14V17.6667C14 17.8508 13.8508 18 13.6667 18H10.3333C10.1492 18 10 17.8508 10 17.6667V14Z" fill="white"/>
<path d="M0.25 12C0.25 5.51065 5.51065 0.25 12 0.25C18.4893 0.25 23.75 5.51065 23.75 12C23.75 18.4893 18.4893 23.75 12 23.75C5.51065 23.75 0.25 18.4893 0.25 12Z" stroke="black" stroke-opacity="0.095389" stroke-width="0.5"/>
</svg>
