<svg width="24" height="24" viewBox="0 0 24 24" fill="none" xmlns="http://www.w3.org/2000/svg">
<path fill-rule="evenodd" clip-rule="evenodd" d="M12 23.5C18.3513 23.5 23.5 18.3513 23.5 12C23.5 5.64873 18.3513 0.5 12 0.5C5.64873 0.5 0.5 5.64873 0.5 12C0.5 18.3513 5.64873 23.5 12 23.5Z" fill="white"/>
<path fill-rule="evenodd" clip-rule="evenodd" d="M0 12H24C24 18.6274 18.6274 24 12 24C5.47454 24 0.165607 18.7915 0.00379986 12.305L0 12H24H0Z" fill="white"/>
<path fill-rule="evenodd" clip-rule="evenodd" d="M12 0C18.5255 0 23.8344 5.20854 23.9962 11.695L24 12H0C0 5.37258 5.37258 0 12 0Z" fill="#F65260"/>
<path fill-rule="evenodd" clip-rule="evenodd" d="M8.375 3.5C9.17274 3.5 9.90583 3.78702 10.4835 4.26692C10.1777 4.14818 9.84615 4.08333 9.5 4.08333C7.9467 4.08333 6.6875 5.38917 6.6875 7C6.6875 8.61083 7.9467 9.91667 9.5 9.91667C9.84615 9.91667 10.1777 9.85182 10.484 9.7332C9.90583 10.213 9.17274 10.5 8.375 10.5C6.51104 10.5 5 8.933 5 7C5 5.067 6.51104 3.5 8.375 3.5ZM10.0625 8.16667C10.3732 8.16667 10.625 8.42783 10.625 8.75C10.625 9.07217 10.3732 9.33333 10.0625 9.33333C9.75184 9.33333 9.5 9.07217 9.5 8.75C9.5 8.42783 9.75184 8.16667 10.0625 8.16667ZM12.3125 8.16667C12.6232 8.16667 12.875 8.42783 12.875 8.75C12.875 9.07217 12.6232 9.33333 12.3125 9.33333C12.0018 9.33333 11.75 9.07217 11.75 8.75C11.75 8.42783 12.0018 8.16667 12.3125 8.16667ZM8.9375 5.83333C9.24816 5.83333 9.5 6.0945 9.5 6.41667C9.5 6.73883 9.24816 7 8.9375 7C8.62684 7 8.375 6.73883 8.375 6.41667C8.375 6.0945 8.62684 5.83333 8.9375 5.83333ZM13.4375 5.83333C13.7482 5.83333 14 6.0945 14 6.41667C14 6.73883 13.7482 7 13.4375 7C13.1268 7 12.875 6.73883 12.875 6.41667C12.875 6.0945 13.1268 5.83333 13.4375 5.83333ZM11.1875 4.08333C11.4982 4.08333 11.75 4.3445 11.75 4.66667C11.75 4.98883 11.4982 5.25 11.1875 5.25C10.8768 5.25 10.625 4.98883 10.625 4.66667C10.625 4.3445 10.8768 4.08333 11.1875 4.08333Z" fill="white"/>
<path d="M0.25 12C0.25 5.51065 5.51065 0.25 12 0.25C18.4893 0.25 23.75 5.51065 23.75 12C23.75 18.4893 18.4893 23.75 12 23.75C5.51065 23.75 0.25 18.4893 0.25 12Z" stroke="black" stroke-opacity="0.095389" stroke-width="0.5"/>
</svg>
