<svg width="24" height="24" viewBox="0 0 24 24" fill="none" xmlns="http://www.w3.org/2000/svg">
<path fill-rule="evenodd" clip-rule="evenodd" d="M12 23.5C18.3513 23.5 23.5 18.3513 23.5 12C23.5 5.64873 18.3513 0.5 12 0.5C5.64873 0.5 0.5 5.64873 0.5 12C0.5 18.3513 5.64873 23.5 12 23.5Z" fill="#F65260"/>
<path fill-rule="evenodd" clip-rule="evenodd" d="M12.0211 0L12.305 0.00378166C18.7915 0.165589 24 5.47452 24 12C24 18.6274 18.6274 24 12 24C5.82241 24 0.735091 19.332 0.0729655 13.3308L0.0411148 13.0004L12.0214 13L12.0211 0Z" fill="#F65260"/>
<path fill-rule="evenodd" clip-rule="evenodd" d="M11.695 0.00378166L12.0211 0L12.0214 13L0.0411123 13.0004C0.0138844 12.6706 0 12.3369 0 12C0 5.47452 5.20854 0.165589 11.695 0.00378166Z" fill="#0C69DA"/>
<path fill-rule="evenodd" clip-rule="evenodd" d="M7 9.62359L5.75736 11L5.85195 9.14805L4 9.24264L5.37641 8L4 6.75736L5.85195 6.85195L5.75736 5L7 6.37641L8.24264 5L8.14805 6.85195L10 6.75736L8.62359 8L10 9.24264L8.14805 9.14805L8.24264 11L7 9.62359Z" fill="white"/>
<path d="M0.25 12C0.25 5.51065 5.51065 0.25 12 0.25C18.4893 0.25 23.75 5.51065 23.75 12C23.75 18.4893 18.4893 23.75 12 23.75C5.51065 23.75 0.25 18.4893 0.25 12Z" stroke="black" stroke-opacity="0.095389" stroke-width="0.5"/>
</svg>
