<svg width="24" height="24" viewBox="0 0 24 24" fill="none" xmlns="http://www.w3.org/2000/svg">
<rect width="24" height="24" rx="12" fill="#F65260"/>
<path fill-rule="evenodd" clip-rule="evenodd" d="M11.8882 12.3742C12.5491 12.3742 13.0849 11.8117 13.0849 11.1178C13.0849 10.4239 12.5491 9.86133 11.8882 9.86133C11.2272 9.86133 10.6915 10.4239 10.6915 11.1178C10.6915 11.8117 11.2272 12.3742 11.8882 12.3742Z" fill="#FFCA68"/>
<path fill-rule="evenodd" clip-rule="evenodd" d="M10.7038 11.0022C11.0489 10.9088 11.5368 10.9864 11.7388 11.2362C11.6429 11.645 11.7538 12.1109 12.017 12.3623C11.6162 12.7243 11.2183 12.9704 10.8834 13.1413C10.5486 13.3122 10.3962 13.5266 10.1477 13.674C10.5218 13.7306 10.9291 14.0671 11.2195 14.4883L11.3117 14.6316C11.746 15.3555 12.242 15.634 12.6047 15.8239C12.9672 16.0138 12.8507 16.2678 12.6486 16.5194C12.2208 17.0519 12.3895 17.5858 11.9228 18.1387C11.7161 18.3836 11.4918 18.2364 11.4711 18.0815C11.4504 17.9266 11.5042 17.7352 11.5602 17.4538C11.6057 17.2244 11.5117 16.9384 11.5567 16.6053C11.5894 16.3632 11.433 16.1648 11.2783 15.9806C11.1237 15.7964 10.677 15.5398 10.1955 15.2053C9.30501 14.5866 9.30909 14.4097 9.06909 14.2103C8.77713 13.9676 8.86602 13.5105 8.99254 13.3468C9.39274 12.829 9.76812 11.6967 10.7038 11.0022ZM17.4437 7.54612L17.662 7.57593C17.9673 7.64137 17.9579 7.91905 17.8405 8.01519C17.7232 8.11134 17.5384 8.15819 17.2785 8.24798C17.0662 8.32125 16.8774 8.54987 16.5802 8.6755C16.3642 8.76675 16.2788 9.00834 16.2041 9.241C16.1294 9.47366 16.1412 10.0081 16.106 10.6132C16.0409 11.7324 15.893 11.817 15.8485 12.1349C15.7943 12.5216 15.3728 12.6694 15.1745 12.6362C14.5474 12.5313 13.4256 12.7561 12.385 12.2526C12.1354 11.9853 11.9555 11.503 12.0606 11.1945C12.4456 11.0772 12.7745 10.7434 12.8503 10.3785C13.3492 10.562 13.7513 10.8006 14.0597 11.0197C14.368 11.2387 14.621 11.27 14.8668 11.4223C14.7283 11.0584 14.7986 10.5285 14.9952 10.0582L15.0747 9.88504C15.4547 9.12822 15.4364 8.53801 15.4117 8.1133C15.387 7.68846 15.6548 7.66755 15.9634 7.72553C16.5439 7.8347 16.8898 7.51464 17.4437 7.54612ZM10.747 7.00822C11.093 6.86412 11.4257 7.1736 11.4975 7.37042C11.7245 7.99317 12.4708 8.9007 12.5757 10.0986C12.4802 10.4591 12.1723 10.864 11.8652 10.9227C11.5759 10.6312 11.1362 10.4991 10.7973 10.6126C10.6992 10.0673 10.695 9.58229 10.7215 9.19232C10.748 8.80247 10.6474 8.55684 10.6499 8.25715C10.4162 8.56893 9.93507 8.77112 9.4425 8.82459L9.27821 8.83684C8.46384 8.86963 7.98617 9.18143 7.64819 9.41617C7.31021 9.65091 7.15899 9.41813 7.05262 9.1084C6.8273 8.45324 6.30245 8.33972 6.07981 7.6388C5.98113 7.32846 6.21483 7.19807 6.35289 7.25678C6.49095 7.31538 6.6219 7.45996 6.82602 7.65152C6.99262 7.80785 7.27549 7.86522 7.52773 8.07269C7.71111 8.22351 7.95297 8.18033 8.18225 8.13189C8.41142 8.08345 8.84633 7.80553 9.36303 7.53495C10.3186 7.03452 10.4625 7.12675 10.747 7.00822Z" fill="white"/>
<path fill-rule="evenodd" clip-rule="evenodd" d="M11.7236 11.7631L11.7473 11.8656L11.639 11.9514L11.5481 12.0151C11.6357 11.9528 11.6443 12.2667 11.7531 12.387C11.8031 12.3434 11.8654 12.3001 11.9275 12.2633L12.017 12.3621C11.6162 12.7241 11.2183 12.9702 10.8834 13.1411C10.6602 13.255 10.5181 13.3883 10.3745 13.5081L10.257 13.6016L10.3073 13.6589C10.2319 13.7239 10.1475 13.8293 10.0552 13.9439C10.2345 13.9844 10.4234 14.0856 10.6016 14.2239L10.6665 14.1439C10.7213 14.069 10.7629 13.9792 10.677 13.9172C10.7458 13.9682 10.813 14.0266 10.8783 14.0888C10.9531 14.1584 10.8418 14.2947 10.7726 14.37C10.8689 14.4611 10.9595 14.5619 11.0415 14.6678L11.1576 14.8301C11.2519 14.9732 11.348 15.0978 11.4444 15.2065C11.5256 15.1444 11.6131 15.0601 11.5537 14.9845L11.6553 15.107C11.7147 15.1825 11.6366 15.2633 11.5554 15.3253C11.774 15.5458 11.9916 15.6935 12.1885 15.8041C12.1911 15.7623 12.338 15.6784 12.2866 15.6448L12.3276 15.5682L12.2767 15.5687L12.3902 15.4131L12.2737 15.26L12.4614 15.2558L12.5033 15.0655L12.6219 15.216L12.7923 15.1313L12.7526 15.3232L12.9213 15.4089L12.7537 15.498L12.7961 15.6886L12.6252 15.6074L12.5078 15.76L12.4637 15.5699L12.4454 15.5698C12.4172 15.653 12.4413 15.736 12.5018 15.7726L12.6047 15.8236C12.9715 16.0043 12.8507 16.2675 12.6486 16.5192C12.2208 17.0516 12.3895 17.5856 11.9228 18.1385C11.7161 18.3834 11.4918 18.2361 11.4711 18.0812C11.4587 17.9883 11.4731 17.8822 11.4987 17.7515L11.5602 17.4536C11.4788 17.7729 11.7471 17.8187 11.9511 17.49C12.0785 17.2848 12.1092 17.0453 12.1734 16.7918C12.1198 16.7647 12.0734 16.7266 12.0381 16.6852L11.9941 16.6214L11.9208 16.6663C11.7264 16.7654 11.5454 16.7051 11.5529 16.6371L11.5615 16.535L11.5569 16.4701C11.5861 16.6573 12.0655 16.589 12.1286 16.0099C12.1346 15.9555 12.1329 15.8992 12.1607 15.8505C11.8705 15.6979 11.5341 15.4687 11.2089 15.0484L11.0877 14.8816C10.8405 14.5203 10.4769 14.1963 10.1275 14.0626L9.99333 14.0202L9.98586 14.0294C9.899 14.1353 9.878 14.1549 9.8514 14.0788C9.70224 14.2201 9.54399 14.3622 9.39926 14.4761C9.18435 14.2829 9.06325 14.2174 8.99653 14.1241C8.92284 14.1297 8.90395 14.1041 8.90267 14.0294L8.88846 13.6175C8.88144 13.5083 8.89132 13.4679 8.93182 13.454C8.9559 13.3299 9.01409 13.2901 9.13751 13.0851L9.19575 12.9876C9.23183 12.9318 9.21955 12.9871 9.32179 13.0308L9.48594 13.1056L9.68957 13.2093C9.72525 13.2286 9.76141 13.2488 9.79748 13.2697C9.80872 13.2147 9.83167 13.2174 9.90058 13.2717L9.90915 13.2813C10.0854 13.1514 10.3308 12.9343 10.5426 12.7067L10.6649 12.5694C11.1263 12.0261 11.2876 12.1493 11.7236 11.7631ZM12.2211 16.2597C12.1987 16.3306 12.1551 16.4222 12.1036 16.4989L12.0494 16.5691L12.076 16.538L12.1039 16.4991C12.1321 16.542 12.1773 16.5893 12.2268 16.6169C12.2729 16.4864 12.2703 16.4043 12.2211 16.2597ZM10.4476 12.9395L10.4592 12.9262C10.3166 13.0668 10.1699 13.1958 10.0462 13.293L9.98238 13.3401L10.1389 13.4826L10.1633 13.4647C10.3048 13.3641 10.4985 13.2051 10.6087 13.1078C10.539 13.077 10.5072 12.88 10.4476 12.9395ZM11.374 12.1163L11.2099 12.2079C11.0978 12.2754 10.9792 12.3631 10.8266 12.5273L10.6292 12.7505C10.6984 12.6752 10.7476 12.9176 10.8376 13.0113C10.9884 12.8547 11.3215 12.7545 11.5707 12.5214C11.5053 12.4845 11.4535 12.0724 11.374 12.1163ZM17.4437 7.54586L17.662 7.57567C17.9673 7.64112 17.9579 7.91879 17.8405 8.01494C17.7701 8.07263 17.6754 8.11257 17.5548 8.15469L17.3416 8.22496C17.5473 8.13114 17.4732 7.93095 17.1941 7.8832L17.1129 7.87414C16.8799 7.86093 16.6671 7.9528 16.4259 8.02106C16.4303 8.08336 16.4221 8.14458 16.4055 8.19738L16.375 8.26937L16.4569 8.3195C16.6288 8.4468 16.6674 8.6358 16.6085 8.66277C16.5694 8.68136 16.522 8.69739 16.4687 8.7424C16.6086 8.6224 16.3125 8.22069 15.8034 8.45274L15.7074 8.49543C15.6909 8.5005 15.6738 8.50358 15.6558 8.50326C15.6751 8.84337 15.6542 9.26381 15.4701 9.76962L15.3932 9.96332C15.1993 10.4138 15.1153 10.9719 15.2248 11.3698L15.2309 11.3894L15.3406 11.4153L15.3645 11.4281C15.4422 11.444 15.5223 11.4647 15.6049 11.4937L15.842 11.5922C15.9136 11.6255 15.9346 11.6513 15.918 11.7443L15.8804 11.9442C15.8514 12.084 15.8251 12.1625 15.7799 12.2222C15.8382 12.2999 15.8306 12.3319 15.7637 12.3741L15.5007 12.5452L15.4312 12.593C15.3112 12.6775 15.2841 12.6664 15.2384 12.5832C15.092 12.6555 15.0371 12.6285 14.7811 12.6178C14.5656 12.6088 14.5786 12.4957 14.5586 12.3425C14.5406 12.2052 14.5698 12.0115 14.6185 11.8154C14.4312 11.7271 14.1612 11.6259 13.895 11.5529L13.6974 11.504C13.0185 11.356 13.0395 11.1478 12.5028 10.9444L12.5757 10.8716L12.6781 10.9164L12.7985 10.9781C12.7033 10.9296 12.958 10.7647 13.0028 10.6056C12.9418 10.5819 12.875 10.5469 12.8134 10.5089L12.8503 10.3782C13.3492 10.5617 13.7513 10.8004 14.0597 11.0195C14.3166 11.2019 14.5351 11.2541 14.7431 11.3545L14.8642 11.421L14.7531 11.3575L14.7748 11.2844C14.8661 11.3204 14.995 11.3444 15.1356 11.3711L15.1273 11.3433C15.0787 11.1646 15.07 10.9534 15.0937 10.7342L15.0085 10.7172C14.9157 10.7023 14.8116 10.7045 14.803 10.8191C14.8107 10.7309 14.8252 10.6406 14.8439 10.5502C14.8639 10.4474 15.032 10.4804 15.1287 10.5057C15.1692 10.3061 15.2339 10.1069 15.3157 9.92564C15.3866 9.76833 15.4412 9.61861 15.4827 9.47659C15.391 9.4339 15.2776 9.39635 15.245 9.48809L15.2952 9.33457C15.328 9.24283 15.4334 9.27353 15.5252 9.31622C15.5978 9.00736 15.6108 8.73555 15.6035 8.50118C15.5678 8.51965 15.4252 8.42803 15.4231 8.49176L15.34 8.49275L15.3654 8.53861L15.1802 8.51329L15.1121 8.6958L15.0149 8.52723L14.8369 8.58436L14.9018 8.40124L14.7467 8.28858L14.925 8.22864L14.9112 8.03243L15.0685 8.14032L15.2046 8.0065L15.223 8.20246L15.4075 8.2328L15.2729 8.36809L15.2826 8.3846C15.3649 8.36848 15.421 8.30514 15.421 8.23206L15.4117 8.11304C15.3772 7.68907 15.6548 7.66729 15.9634 7.72528C16.5439 7.83444 16.8898 7.51438 17.4437 7.54586ZM13.2048 10.7042C13.207 10.7822 12.8931 11.0354 12.969 11.0856L13.0667 11.1513C13.1894 11.2314 13.324 11.3069 13.5626 11.3728L13.719 11.4111C14.0438 11.482 14.4089 11.6133 14.6457 11.7241C14.6618 11.6545 14.6829 11.5859 14.7047 11.5205C14.555 11.4434 14.3114 11.3398 14.1696 11.2859C14.179 11.3645 14.0324 11.492 14.1113 11.5165L13.8645 11.4459C13.7678 11.4206 13.9433 11.2547 13.9755 11.126C13.7709 11.0672 13.5218 10.8143 13.2048 10.7042ZM11.0435 6.93952L11.23 7.04578L11.3903 7.13242C11.5082 7.1931 11.5225 7.22361 11.4898 7.2911C11.5893 7.38343 11.5754 7.4538 11.689 7.68076C11.7893 7.88125 11.6894 7.92602 11.5732 8.0207C11.4678 8.10659 11.2884 8.19299 11.0976 8.26167C11.1157 8.47617 11.1674 8.7814 11.2421 9.06879L11.3023 9.27928C11.5196 9.97054 11.3376 10.0556 11.438 10.6453L11.3416 10.6153C11.3296 10.5344 11.3231 10.4634 11.32 10.3988L11.3181 10.2645L11.3181 10.3595C11.3254 10.4704 11.0623 10.3212 10.9086 10.36C10.9197 10.4273 10.9242 10.5056 10.9235 10.5806L10.7973 10.6124C10.6992 10.067 10.695 9.58203 10.7215 9.19206C10.7392 8.93217 10.7003 8.73637 10.6733 8.54591L10.6544 8.39246L10.5825 8.40943C10.5665 8.30822 10.5217 8.17861 10.4733 8.03715L10.4548 8.05942C10.3318 8.19296 10.162 8.30654 9.96932 8.39451L9.9978 8.48046C10.0319 8.57232 10.0858 8.66586 10.1846 8.61641C10.108 8.65347 10.0263 8.6854 9.94229 8.71365C9.84757 8.74693 9.79072 8.57751 9.76322 8.47696C9.57845 8.53995 9.38167 8.58057 9.1913 8.59696C9.0261 8.61115 8.87534 8.63635 8.7374 8.66962C8.748 8.77433 8.77386 8.89616 8.86579 8.88002C8.81324 8.88919 8.76326 8.89959 8.71398 8.91109C8.62206 8.92723 8.59456 8.81592 8.58384 8.71109C8.29281 8.79953 8.06214 8.92369 7.87247 9.04748C7.90555 9.0706 7.90124 9.24613 7.95483 9.21616L7.99748 9.29172L8.02241 9.24528L8.09417 9.42619L8.27872 9.39696L8.18831 9.56956L8.32439 9.70289L8.14089 9.73555L8.12551 9.93286L7.98699 9.80075L7.83204 9.91121L7.84229 9.71427L7.66392 9.65763L7.81631 9.54289L7.74909 9.35989L7.92792 9.41469L7.93723 9.39811C7.88272 9.33084 7.80213 9.31127 7.74175 9.34791L7.64819 9.41592C7.31581 9.65922 7.15899 9.41788 7.05262 9.10815C6.8273 8.45298 6.30245 8.33947 6.07981 7.63855C5.98113 7.32821 6.21483 7.19781 6.35289 7.25653C6.43573 7.29169 6.516 7.3578 6.61106 7.44644L6.77567 7.60527C6.59533 7.46512 6.46727 7.6325 6.56738 7.91019L6.60047 7.98852C6.70614 8.20699 6.88835 8.35463 7.06532 8.53971C7.11449 8.50464 7.16909 8.48148 7.22091 8.47012L7.29553 8.46191L7.2951 8.37285C7.31064 8.14644 7.45086 8.01209 7.50326 8.05286L7.58313 8.11178L7.63887 8.14008C7.46994 8.07292 7.28656 8.54301 7.73266 8.88992C7.77449 8.92258 7.82179 8.94925 7.848 8.99879C8.11902 8.81123 8.47629 8.62009 8.98552 8.53457L9.18373 8.50766C9.60529 8.46353 10.0544 8.29491 10.3393 8.04404L10.441 7.94205L10.4083 7.83369C10.399 7.78732 10.4119 7.77634 10.459 7.78408L10.4237 7.59L10.3766 7.23887C10.3682 7.15711 10.379 7.12516 10.464 7.0937L10.6726 7.01825C10.7864 6.97968 10.8562 6.96457 10.921 6.9729C10.9516 6.90748 10.9822 6.9038 11.0435 6.93952ZM11.1708 9.15635C11.1983 9.2569 10.9737 9.18032 10.8515 9.21543C10.9052 9.43084 10.8213 9.78387 10.889 10.127C10.9442 10.0911 11.2312 10.2082 11.3044 10.175L11.3214 10.1507L11.323 10.114C11.3315 9.9303 11.3389 9.75654 11.2561 9.44731L11.1708 9.15635ZM11.008 8.28909L10.8913 8.32779L10.8124 8.34876C10.8227 8.52351 10.8596 8.80129 10.8862 8.95904C10.9466 8.91109 11.1249 8.98057 11.1057 8.89665L11.104 8.88256C11.0696 8.72445 11.0426 8.56873 11.0245 8.43278L11.008 8.28909ZM7.34118 8.62299L7.28892 8.63157C7.25247 8.64029 7.21456 8.65502 7.18287 8.67573C7.26746 8.78301 7.33643 8.82167 7.48043 8.84919C7.44888 8.812 7.41444 8.76163 7.38389 8.70695L7.34118 8.62299ZM16.2549 8.05995C16.1242 8.08332 16.0579 8.12662 15.963 8.24369C16.0328 8.22864 16.1302 8.22245 16.2191 8.23097C16.2405 8.1835 16.2569 8.11879 16.2549 8.05995Z" fill="#FFCA68"/>
<path d="M0.25 12C0.25 5.51065 5.51065 0.25 12 0.25C18.4893 0.25 23.75 5.51065 23.75 12C23.75 18.4893 18.4893 23.75 12 23.75C5.51065 23.75 0.25 18.4893 0.25 12Z" stroke="black" stroke-opacity="0.095389" stroke-width="0.5"/>
</svg>
