<svg width="24" height="24" viewBox="0 0 24 24" fill="none" xmlns="http://www.w3.org/2000/svg">
<path fill-rule="evenodd" clip-rule="evenodd" d="M12 23.5C18.3513 23.5 23.5 18.3513 23.5 12C23.5 5.64873 18.3513 0.5 12 0.5C5.64873 0.5 0.5 5.64873 0.5 12C0.5 18.3513 5.64873 23.5 12 23.5Z" fill="#0C69DA"/>
<path fill-rule="evenodd" clip-rule="evenodd" d="M0 12H24C24 18.6274 18.6274 24 12 24C5.47454 24 0.165607 18.7915 0.00379986 12.305L0 12H24H0Z" fill="#F65260"/>
<path fill-rule="evenodd" clip-rule="evenodd" d="M12 0C18.5255 0 23.8344 5.20854 23.9962 11.695L24 12L0 11.999C0.000541963 5.37204 5.37292 0 12 0Z" fill="#0C69DA"/>
<path d="M23.75 12C23.75 18.4893 18.4893 23.75 12 23.75C5.51065 23.75 0.25 18.4893 0.25 12C0.25 5.51065 5.51065 0.25 12 0.25C18.4893 0.25 23.75 5.51065 23.75 12Z" stroke="black" stroke-opacity="0.095389" stroke-width="0.5"/>
</svg>
