<svg width="24" height="24" viewBox="0 0 24 24" fill="none" xmlns="http://www.w3.org/2000/svg">
<rect width="24" height="24" rx="12" fill="#F65260"/>
<path fill-rule="evenodd" clip-rule="evenodd" d="M12.5285 12.5971C13.4429 12.2993 14.5037 13.0435 14.8978 14.2594C15.2919 15.4752 14.8702 16.7022 13.9558 17C13.6172 15.9556 13.0315 16.031 12.8687 15.5286L12.7971 15.3034C12.661 14.8546 12.6538 14.6148 12.8853 13.6978C13.1525 12.6397 12.0776 12.7439 12.5285 12.5971ZM10.7401 13.7121C11.8267 13.6398 11.3956 12.6474 11.6743 13.0318C12.2394 13.8114 11.861 15.0526 10.8292 15.804C9.79729 16.5554 8.50267 16.5326 7.93754 15.753C8.82395 15.1075 8.57142 14.5725 8.99774 14.262L9.27549 14.0655C9.61206 13.8434 9.87088 13.77 10.7401 13.7121ZM9.70245 14.7425C9.57347 14.8364 9.54526 15.0179 9.63944 15.1478C9.73363 15.2778 9.91455 15.307 10.0435 15.213C10.1725 15.1191 10.2007 14.9376 10.1065 14.8077C10.0124 14.6778 9.83143 14.6486 9.70245 14.7425ZM13.7286 14.6416C13.5762 14.6913 13.4926 14.8547 13.5418 15.0067C13.5911 15.1587 13.7546 15.2416 13.907 15.192C14.0594 15.1424 14.143 14.9789 14.0937 14.827C14.0444 14.675 13.881 14.592 13.7286 14.6416ZM7.26225 9.61317C8.14866 10.2587 8.57829 9.8526 9.00462 10.1631L9.19459 10.3031C9.56791 10.586 9.71436 10.7758 10.0648 11.654C10.4692 12.6674 11.2777 11.9499 10.999 12.3343C10.4339 13.1139 9.13926 13.1368 8.10738 12.3854C7.0755 11.6339 6.69713 10.3928 7.26225 9.61317ZM14.6906 9.88606C15.966 9.88606 17 10.6673 17 11.6309C15.9043 11.6309 15.7949 12.2125 15.2679 12.2125L15.0321 12.2111C14.5642 12.2022 14.3344 12.135 13.5358 11.6309C12.6144 11.0493 12.3811 12.1061 12.3811 11.6309C12.3811 10.6673 13.4151 9.88606 14.6906 9.88606ZM8.36292 11.0472C8.26873 11.1771 8.29694 11.3586 8.42592 11.4525C8.55491 11.5464 8.73583 11.5172 8.83001 11.3873C8.9242 11.2574 8.89599 11.0759 8.76701 10.982C8.63802 10.888 8.45711 10.9172 8.36292 11.0472ZM10.4938 8.72786C10.888 7.51203 11.9488 6.76781 12.8632 7.0656C12.5246 8.11002 13.0426 8.39409 12.8798 8.89641L12.8056 9.12078C12.6525 9.56407 12.5177 9.7623 11.7927 10.3678C10.956 11.0664 11.8867 11.6153 11.4358 11.4685C10.5215 11.1707 10.0997 9.94369 10.4938 8.72786ZM14.9792 10.8278C14.8198 10.8278 14.6906 10.958 14.6906 11.1186C14.6906 11.2793 14.8198 11.4095 14.9792 11.4095C15.1387 11.4095 15.2679 11.2793 15.2679 11.1186C15.2679 10.958 15.1387 10.8278 14.9792 10.8278ZM11.4764 8.74231C11.4271 8.89429 11.5107 9.05772 11.6631 9.10736C11.8155 9.15699 11.979 9.07402 12.0282 8.92204C12.0775 8.77006 11.9939 8.60662 11.8415 8.55699C11.6891 8.50736 11.5256 8.59033 11.4764 8.74231Z" fill="white"/>
<path d="M0.25 12C0.25 5.51065 5.51065 0.25 12 0.25C18.4893 0.25 23.75 5.51065 23.75 12C23.75 18.4893 18.4893 23.75 12 23.75C5.51065 23.75 0.25 18.4893 0.25 12Z" stroke="black" stroke-opacity="0.095389" stroke-width="0.5"/>
</svg>
