<svg width="24" height="24" viewBox="0 0 24 24" fill="none" xmlns="http://www.w3.org/2000/svg">
<path fill-rule="evenodd" clip-rule="evenodd" d="M12 23.5C18.3513 23.5 23.5 18.3513 23.5 12C23.5 5.64873 18.3513 0.5 12 0.5C5.64873 0.5 0.5 5.64873 0.5 12C0.5 18.3513 5.64873 23.5 12 23.5Z" fill="#F65260"/>
<path fill-rule="evenodd" clip-rule="evenodd" d="M12 0C18.6274 0 24 5.37258 24 12C24 18.5255 18.7915 23.8344 12.305 23.9962L12 24L11.5834 23.9929L11.2658 23.9779C11.177 23.9725 11.0885 23.9662 11.0002 23.9589V0.0410546L11.3669 0.0164121L11.6719 0.00439731L12 0Z" fill="#F65260"/>
<path fill-rule="evenodd" clip-rule="evenodd" d="M10.9995 0.0410156V23.9588C4.84022 23.4504 0 18.2904 0 11.9999C0 5.7094 4.84022 0.549389 10.9995 0.0410156Z" fill="#227415"/>
<path fill-rule="evenodd" clip-rule="evenodd" d="M11.2222 8.7998C13.1123 8.7998 14.6444 10.332 14.6444 12.222C14.6444 14.1121 13.1123 15.6442 11.2222 15.6442C9.33218 15.6442 7.8 14.1121 7.8 12.222C7.8 10.332 9.33218 8.7998 11.2222 8.7998ZM11.2222 9.9998C9.99493 9.9998 9 10.9947 9 12.222C9 13.4493 9.99493 14.4442 11.2222 14.4442C12.4495 14.4442 13.4444 13.4493 13.4444 12.222C13.4444 10.9947 12.4495 9.9998 11.2222 9.9998Z" fill="#FFCA68"/>
<path fill-rule="evenodd" clip-rule="evenodd" d="M10.1111 10.8557C10.1111 10.69 10.2454 10.5557 10.4111 10.5557H12.0333C12.199 10.5557 12.3333 10.69 12.3333 10.8557V12.7779C12.3333 13.3915 11.8359 13.889 11.2222 13.889C10.6086 13.889 10.1111 13.3915 10.1111 12.7779V10.8557Z" fill="white"/>
<path fill-rule="evenodd" clip-rule="evenodd" d="M11.2222 12.778C11.529 12.778 11.7778 11.9737 11.7778 11.6669C11.7778 11.3601 11.529 11.1113 11.2222 11.1113C10.9154 11.1113 10.6667 11.3601 10.6667 11.6669C10.6667 11.9737 10.9154 12.778 11.2222 12.778Z" fill="#0C69DA"/>
<path d="M12 0.25C18.4893 0.25 23.75 5.51065 23.75 12C23.75 18.4893 18.4893 23.75 12 23.75C5.51065 23.75 0.25 18.4893 0.25 12C0.25 5.51065 5.51065 0.25 12 0.25Z" stroke="black" stroke-opacity="0.095389" stroke-width="0.5"/>
</svg>
