<svg width="24" height="24" viewBox="0 0 24 24" fill="none" xmlns="http://www.w3.org/2000/svg">
<path fill-rule="evenodd" clip-rule="evenodd" d="M12 23.5C18.3513 23.5 23.5 18.3513 23.5 12C23.5 5.64873 18.3513 0.5 12 0.5C5.64873 0.5 0.5 5.64873 0.5 12C0.5 18.3513 5.64873 23.5 12 23.5Z" fill="#0C69DA"/>
<path fill-rule="evenodd" clip-rule="evenodd" d="M24 11.9997C24 13.4026 23.7593 14.7492 23.3169 16.0006H0.683147C0.240734 14.7492 0 13.4026 0 11.9997C0 10.5969 0.240703 9.25033 0.683061 7.99902L23.3169 7.99902C23.7593 9.25033 24 10.5969 24 11.9997Z" fill="#0C69DA"/>
<path fill-rule="evenodd" clip-rule="evenodd" d="M0.68306 16.001L23.3169 16.001C21.6694 20.6614 17.2246 24.0003 12 24.0003C6.77537 24.0003 2.3306 20.6614 0.68306 16.001L23.3169 16.001L0.68306 16.001Z" fill="#F65260"/>
<path fill-rule="evenodd" clip-rule="evenodd" d="M12 0C17.2249 0 21.6699 3.33927 23.3172 8.00008H0.682793C2.33012 3.33927 6.77509 0 12 0Z" fill="white"/>
<path fill-rule="evenodd" clip-rule="evenodd" d="M8 6.68V10H4V6.6762C4 6.6762 5.05859 6 6 6C6.94141 6 8 6.68 8 6.68Z" fill="#0C69DA"/>
<path fill-rule="evenodd" clip-rule="evenodd" d="M6 10C6.55228 10 7 9.55228 7 9C7 8.44772 6.55228 8 6 8C5.44772 8 5 8.44772 5 9C5 9.55228 5.44772 10 6 10Z" fill="white"/>
<path d="M0.25 12C0.25 5.51065 5.51065 0.25 12 0.25C18.4893 0.25 23.75 5.51065 23.75 12C23.75 18.4893 18.4893 23.75 12 23.75C5.51065 23.75 0.25 18.4893 0.25 12Z" stroke="black" stroke-opacity="0.095389" stroke-width="0.5"/>
</svg>
