<svg width="24" height="24" viewBox="0 0 24 24" fill="none" xmlns="http://www.w3.org/2000/svg">
<path fill-rule="evenodd" clip-rule="evenodd" d="M12 23.5C18.3513 23.5 23.5 18.3513 23.5 12C23.5 5.64873 18.3513 0.5 12 0.5C5.64873 0.5 0.5 5.64873 0.5 12C0.5 18.3513 5.64873 23.5 12 23.5Z" fill="#13CE66"/>
<path fill-rule="evenodd" clip-rule="evenodd" d="M24 11.9997C24 13.4026 23.7593 14.7492 23.3169 16.0006H0.683147C0.240734 14.7492 0 13.4026 0 11.9997C0 10.5969 0.240703 9.25033 0.683061 7.99902L23.3169 7.99902C23.7593 9.25033 24 10.5969 24 11.9997Z" fill="#13CE66"/>
<path fill-rule="evenodd" clip-rule="evenodd" d="M0.682922 16H23.3171C21.6697 20.6606 17.2248 23.9997 12 23.9997C6.77523 23.9997 2.33035 20.6606 0.682922 16H23.3171H0.682922Z" fill="#F65260"/>
<path fill-rule="evenodd" clip-rule="evenodd" d="M12 0C17.225 0 21.67 3.33938 23.3173 8.0003H0.682716C2.32998 3.33938 6.77501 0 12 0Z" fill="#FFCA68"/>
<path fill-rule="evenodd" clip-rule="evenodd" d="M12.1063 14.84L8.57963 17.3541L9.88087 13.2231L6.4 10.6459L10.7309 10.6069L12.1063 6.5L13.4818 10.6069L17.8127 10.6459L14.3318 13.2231L15.6331 17.3541L12.1063 14.84Z" fill="white"/>
<path d="M0.25 12C0.25 5.51065 5.51065 0.25 12 0.25C18.4893 0.25 23.75 5.51065 23.75 12C23.75 18.4893 18.4893 23.75 12 23.75C5.51065 23.75 0.25 18.4893 0.25 12Z" stroke="black" stroke-opacity="0.095389" stroke-width="0.5"/>
</svg>
