<svg width="24" height="24" viewBox="0 0 24 24" fill="none" xmlns="http://www.w3.org/2000/svg">
<path fill-rule="evenodd" clip-rule="evenodd" d="M12 23.5C18.3513 23.5 23.5 18.3513 23.5 12C23.5 5.64873 18.3513 0.5 12 0.5C5.64873 0.5 0.5 5.64873 0.5 12C0.5 18.3513 5.64873 23.5 12 23.5Z" fill="#0C69DA"/>
<path fill-rule="evenodd" clip-rule="evenodd" d="M0 11.9567L0.00624709 12.0804C0.0640802 12.6499 0.516811 13.1026 1.08628 13.1604L1.21 13.1667H9.90765L10.0314 13.1604C10.6008 13.1026 11.0536 12.6499 11.1114 12.0804L11.1176 11.9567V6.21L11.1114 6.08628C11.0536 5.51681 10.6008 5.06408 10.0314 5.00625L9.90765 5L2.25341 4.99818C4.43188 1.97107 7.98575 0 12 0C18.6274 0 24 5.37258 24 12C24 18.6274 18.6274 24 12 24C5.47454 24 0.165607 18.7915 0.00379986 12.305L0 11.9567L0.00624709 12.0804L0 11.9567Z" fill="#0C69DA"/>
<path fill-rule="evenodd" clip-rule="evenodd" d="M6.17647 15.4999V16.6666H7.41176V17.8333H6.17647V18.9999H4.94117V17.8333H3.70588V16.6666H4.94117V15.4999H6.17647ZM18.5294 15.4999V16.6666H17.2941V15.4999H18.5294ZM19.7647 11.9999V13.1666H18.5294V11.9999H19.7647ZM16.0588 10.8333V11.9999H14.8235V10.8333H16.0588ZM21 8.49992V9.66659H19.7647V8.49992H21ZM17.2941 7.33325V8.49992H16.0588V7.33325H17.2941Z" fill="white"/>
<path fill-rule="evenodd" clip-rule="evenodd" d="M2.25287 4.99902L9.90765 5.0001C10.5341 5.0001 11.0494 5.47624 11.1114 6.08639L11.1176 6.2101V11.9568C11.1176 12.5833 10.6415 13.0986 10.0314 13.1605L9.90765 13.1668H1.21C0.583502 13.1668 0.0682112 12.6906 0.00624709 12.0805L0 11.9568L0.00379986 11.6951C0.0660605 9.19924 0.890393 6.89257 2.25287 4.99902L9.90765 5.0001L2.25287 4.99902Z" fill="white"/>
<path fill-rule="evenodd" clip-rule="evenodd" d="M6.17647 6.16661V8.49994H9.88235V9.66661H6.17647V11.9999H4.94118V9.66661H1.2353V8.49994H4.94118V6.16661H6.17647ZM9.88235 10.8333V11.9999H8.02941V10.8333H9.88235ZM3.08824 10.8333V11.9999H1.2353V10.8333H3.08824ZM9.88235 6.16661V7.33327H8.02941V6.16661H9.88235ZM3.08824 6.16661V7.33327H1.2353L1.23454 6.69249C1.32247 6.51446 1.4147 6.33892 1.51108 6.16602L3.08824 6.16661Z" fill="#F65260"/>
<path d="M0.25 12C0.25 5.51065 5.51065 0.25 12 0.25C18.4893 0.25 23.75 5.51065 23.75 12C23.75 18.4893 18.4893 23.75 12 23.75C5.51065 23.75 0.25 18.4893 0.25 12Z" stroke="black" stroke-opacity="0.095389" stroke-width="0.5"/>
</svg>
