<svg width="24" height="24" viewBox="0 0 24 24" fill="none" xmlns="http://www.w3.org/2000/svg">
<path fill-rule="evenodd" clip-rule="evenodd" d="M12 23.5C18.3513 23.5 23.5 18.3513 23.5 12C23.5 5.64873 18.3513 0.5 12 0.5C5.64873 0.5 0.5 5.64873 0.5 12C0.5 18.3513 5.64873 23.5 12 23.5Z" fill="white"/>
<path fill-rule="evenodd" clip-rule="evenodd" d="M24 12.0001C24 18.6275 18.6274 24.0001 12 24.0001C5.37258 24.0001 0 18.6275 0 12.0001C0 11.733 0.00872855 11.4679 0.025916 11.2051L13.5714 11.2052L13.5714 0.102051C19.4563 0.871735 24 5.90529 24 12.0001Z" fill="white"/>
<path fill-rule="evenodd" clip-rule="evenodd" d="M6.00926 22.4001H17.9907C16.2278 23.4178 14.1819 24.0001 12 24.0001C9.8181 24.0001 7.77221 23.4178 6.00926 22.4001H17.9907H6.00926ZM2.39894 19.1999H21.6011C21.1686 19.7756 20.6856 20.3112 20.1586 20.8L3.8416 20.8002C3.31452 20.3113 2.83143 19.7757 2.39894 19.1999H21.6011H2.39894ZM0.682718 15.9998H23.3173C23.1217 16.5531 22.8868 17.0877 22.6158 17.6004H1.38424C1.11322 17.0877 0.878259 16.5531 0.682718 15.9998H23.3173H0.682718ZM0.0262146 12.7996H23.9738C23.938 13.3439 23.8659 13.8782 23.7599 14.4003H0.240079C0.134103 13.8782 0.0620165 13.3439 0.0262146 12.7996H23.9738H0.0262146ZM13.525 9.6001L23.76 9.60043C23.8659 10.1223 23.938 10.6565 23.9738 11.2006L13.525 11.2001V9.6001L23.76 9.60043L13.525 9.6001ZM13.525 6.4001L22.6158 6.39979C22.8867 6.9123 23.1216 7.44679 23.3171 7.9999L13.525 8.0001V6.4001L22.6158 6.39979L13.525 6.4001ZM13.525 3.2001L20.1581 3.19975C20.6852 3.68855 21.1682 4.22412 21.6007 4.79984L13.525 4.8001V3.2001L20.1581 3.19975L13.525 3.2001ZM13.525 0.100098L13.5824 0.103506C15.1666 0.312194 16.6534 0.829898 17.9803 1.59409L13.525 1.59443V0.100098Z" fill="#F65260"/>
<path fill-rule="evenodd" clip-rule="evenodd" d="M12 0C12.5328 0 13.0575 0.0347211 13.5719 0.102024L13.5714 11.2051L0.0258865 11.2055C0.434876 4.94846 5.63955 0 12 0Z" fill="#0C69DA"/>
<path fill-rule="evenodd" clip-rule="evenodd" d="M7.26892 9.25C7.98223 9.25 8.63775 9.00417 9.15438 8.59311C8.88071 8.69455 8.58448 8.75 8.27523 8.75C6.88581 8.75 5.75946 7.63071 5.75946 6.25C5.75946 4.86929 6.88581 3.75 8.27523 3.75C8.58448 3.75 8.88071 3.80545 9.15438 3.90689C8.63775 3.49583 7.98223 3.25 7.26892 3.25C5.60162 3.25 4.25 4.59315 4.25 6.25C4.25 7.90685 5.60162 9.25 7.26892 9.25ZM9.4146 8.05194L10.2878 7.07L11.1611 8.05194L10.933 6.76126L12.25 6.69504L11.0923 6.06753L11.8614 5.00302L10.6459 5.51121L10.2878 4.25L9.92982 5.51121L8.71432 5.00302L9.48336 6.06753L8.32569 6.69504L9.6427 6.76126L9.4146 8.05194Z" fill="#FFCA68"/>
<path d="M0.25 12C0.25 5.51065 5.51065 0.25 12 0.25C18.4893 0.25 23.75 5.51065 23.75 12C23.75 18.4893 18.4893 23.75 12 23.75C5.51065 23.75 0.25 18.4893 0.25 12Z" stroke="black" stroke-opacity="0.095389" stroke-width="0.5"/>
</svg>
