<svg width="24" height="24" viewBox="0 0 24 24" fill="none" xmlns="http://www.w3.org/2000/svg">
<path fill-rule="evenodd" clip-rule="evenodd" d="M12 23.5C18.3513 23.5 23.5 18.3513 23.5 12C23.5 5.64873 18.3513 0.5 12 0.5C5.64873 0.5 0.5 5.64873 0.5 12C0.5 18.3513 5.64873 23.5 12 23.5Z" fill="white"/>
<path fill-rule="evenodd" clip-rule="evenodd" d="M12 0C18.6274 0 24 5.37258 24 12L12.4943 11.9996L2.59933 4.5426L12.5 11.9913L2.59933 4.54086C4.79764 1.77407 8.19164 0 12 0Z" fill="#0C69DA"/>
<path fill-rule="evenodd" clip-rule="evenodd" d="M2.59795 4.5426L12.5 11.9934L2.59576 19.4546C0.97066 17.4073 0 14.817 0 12C0 9.18174 0.971533 6.59039 2.59795 4.5426Z" fill="white"/>
<path fill-rule="evenodd" clip-rule="evenodd" d="M12.4943 11.9996L24 12C24 18.6274 18.6274 24 12 24C8.22237 24 4.85244 22.2545 2.65278 19.526L2.59679 19.4554L12.4943 11.9996Z" fill="#F65260"/>
<path fill-rule="evenodd" clip-rule="evenodd" d="M3.5 17C3.77614 17 4 17.2239 4 17.5C4 17.7761 3.77614 18 3.5 18C3.22385 18 3 17.7761 3 17.5C3 17.2239 3.22385 17 3.5 17ZM5.95052 9.21749L5.57956 10.9715C5.63918 11.0202 5.6938 11.0748 5.74252 11.1344L7.4968 10.7638L5.99427 11.7421C5.99806 11.7799 6 11.8183 6 11.8571C6 11.8961 5.99805 11.9346 5.99425 11.9725L7.4968 12.9505L5.74276 12.5796C5.69398 12.6393 5.63928 12.694 5.57956 12.7428L5.95052 14.4968L4.97249 12.9943C4.93456 12.9981 4.89608 13 4.85714 13C4.81829 13 4.7799 12.9981 4.74205 12.9943L3.76376 14.4968L4.13443 12.7425C4.07482 12.6938 4.02022 12.6392 3.97152 12.5796L2.21748 12.9505L3.72003 11.9725C3.71623 11.9346 3.71428 11.8961 3.71428 11.8571C3.71428 11.8183 3.71622 11.7799 3.72001 11.7421L2.21748 10.7638L3.97176 11.1344C4.0204 11.0749 4.07492 11.0204 4.13443 10.9718L3.76376 9.21749L4.74205 10.72C4.7799 10.7162 4.81829 10.7143 4.85714 10.7143C4.89608 10.7143 4.93456 10.7162 4.97249 10.72L5.95052 9.21749ZM10.5 11.5C10.7761 11.5 11 11.7239 11 12C11 12.2761 10.7761 12.5 10.5 12.5C10.2239 12.5 10 12.2761 10 12C10 11.7239 10.2239 11.5 10.5 11.5ZM3.5 6C3.77614 6 4 6.22386 4 6.5C4 6.77614 3.77614 7 3.5 7C3.22385 7 3 6.77614 3 6.5C3 6.22386 3.22385 6 3.5 6Z" fill="#FFCA68"/>
<path d="M0.25 12C0.25 5.51065 5.51065 0.25 12 0.25C18.4893 0.25 23.75 5.51065 23.75 12C23.75 18.4893 18.4893 23.75 12 23.75C5.51065 23.75 0.25 18.4893 0.25 12Z" stroke="black" stroke-opacity="0.095389" stroke-width="0.5"/>
</svg>
