<svg width="24" height="24" viewBox="0 0 24 24" fill="none" xmlns="http://www.w3.org/2000/svg">
<path fill-rule="evenodd" clip-rule="evenodd" d="M12 23.5C18.3513 23.5 23.5 18.3513 23.5 12C23.5 5.64873 18.3513 0.5 12 0.5C5.64873 0.5 0.5 5.64873 0.5 12C0.5 18.3513 5.64873 23.5 12 23.5Z" fill="white"/>
<path fill-rule="evenodd" clip-rule="evenodd" d="M12 24C11.3242 24 10.6615 23.9441 10.0162 23.8368L9.79172 23.7942L9.97198 13.8048H23.8617L23.8715 13.7559C23.0233 19.5505 18.0313 24 12 24ZM0.191011 14.1442L0.122269 13.7181L0.138135 13.8048H6.32834L6.32761 22.5773C3.1634 20.8769 0.850091 17.7981 0.191011 14.1442ZM6.32761 1.42266L6.32834 10.0648H0.158017L0.128559 10.2363C0.674036 6.53232 2.9124 3.37851 6.03254 1.58663L6.32761 1.42266ZM12 0C17.8866 0 22.7833 4.23865 23.8044 9.83042L23.8421 10.0648H9.97198V0.172646L9.67204 0.226655C9.38868 0.282647 8.93011 0.385093 8.40823 0.54737L8.15472 0.62933C9.36186 0.221247 10.6551 0 12 0Z" fill="white"/>
<path fill-rule="evenodd" clip-rule="evenodd" d="M9.97198 0.172852V10.065H23.8421C23.8421 10.065 23.9992 10.8081 23.9992 12.0002C23.9992 13.1923 23.8617 13.805 23.8617 13.805H9.97198L9.79172 23.7944C9.79172 23.7944 8.86196 23.6414 7.97987 23.3227C7.09778 23.0041 6.32834 22.5793 6.32834 22.5793V13.805H0.138138C0.138138 13.805 0 13.1441 0 12.0002C0 10.8563 0.15802 10.065 0.15802 10.065H6.32834V1.42068C6.32834 1.42068 7.02367 1.02277 8.05215 0.664772C9.08064 0.30677 9.97198 0.172852 9.97198 0.172852Z" fill="#0C69DA"/>
<path d="M0.25 12C0.25 5.51065 5.51065 0.25 12 0.25C18.4893 0.25 23.75 5.51065 23.75 12C23.75 18.4893 18.4893 23.75 12 23.75C5.51065 23.75 0.25 18.4893 0.25 12Z" stroke="black" stroke-opacity="0.095389" stroke-width="0.5"/>
</svg>
