<svg width="24" height="24" viewBox="0 0 24 24" fill="none" xmlns="http://www.w3.org/2000/svg">
<rect width="24" height="24" rx="12" fill="white"/>
<path fill-rule="evenodd" clip-rule="evenodd" d="M12 0C17.2249 0 21.6699 3.33927 23.3172 8.00008H0.682793C2.33012 3.33927 6.77509 0 12 0Z" fill="#C2E5FD"/>
<path fill-rule="evenodd" clip-rule="evenodd" d="M0.68306 16.0005L23.3169 16.0005C21.6694 20.6609 17.2246 23.9998 12 23.9998C6.77537 23.9998 2.3306 20.6609 0.68306 16.0005L23.3169 16.0005L0.68306 16.0005Z" fill="#C2E5FD"/>
<path fill-rule="evenodd" clip-rule="evenodd" d="M12 9.8999C13.1598 9.8999 14.1 10.8401 14.1 11.9999C14.1 13.1597 13.1598 14.0999 12 14.0999C10.8402 14.0999 9.9 13.1597 9.9 11.9999C9.9 10.8401 10.8402 9.8999 12 9.8999ZM12 10.5999C11.2268 10.5999 10.6 11.2267 10.6 11.9999C10.6 12.7731 11.2268 13.3999 12 13.3999C12.7732 13.3999 13.4 12.7731 13.4 11.9999C13.4 11.2267 12.7732 10.5999 12 10.5999Z" fill="#830A2A"/>
<path d="M0.25 12C0.25 5.51065 5.51065 0.25 12 0.25C18.4893 0.25 23.75 5.51065 23.75 12C23.75 18.4893 18.4893 23.75 12 23.75C5.51065 23.75 0.25 18.4893 0.25 12Z" stroke="black" stroke-opacity="0.095389" stroke-width="0.5"/>
</svg>
