<svg width="24" height="24" viewBox="0 0 24 24" fill="none" xmlns="http://www.w3.org/2000/svg">
<path fill-rule="evenodd" clip-rule="evenodd" d="M12 23.5C18.3513 23.5 23.5 18.3513 23.5 12C23.5 5.64873 18.3513 0.5 12 0.5C5.64873 0.5 0.5 5.64873 0.5 12C0.5 18.3513 5.64873 23.5 12 23.5Z" fill="white"/>
<path fill-rule="evenodd" clip-rule="evenodd" d="M0.00627321 12.3917L0.00128174 12.1425L0.00727225 12.3121C0.0291799 12.7818 0.0957931 13.3772 0.140915 13.7451L0.184878 14.087H9.8584L9.85847 23.8095C4.37743 22.8221 0.189717 18.1125 0.00627321 12.3917ZM14.1711 23.8041L14.1714 14.087L23.8192 14.0867C22.9553 19.0136 19.086 22.9059 14.1711 23.8041ZM11.8016 0.00160766L11.8682 0.00112823C11.2926 0.0107701 10.6751 0.0802453 10.2787 0.133345L9.8584 0.195206V9.91896L0.179839 9.91875C1.15422 4.34646 5.97277 0.0961126 11.8016 0.00160766L11.8682 0.00112823L11.8016 0.00160766ZM23.9984 11.8016L23.9993 11.9058L23.9942 11.7112C23.9742 11.1833 23.9073 10.597 23.8618 10.2433L23.8173 9.91896H14.1714V0.2L13.9333 0.163428C13.5605 0.109255 12.811 0.0127898 12.1321 0.00115806L12 0C18.5611 0 23.8924 5.26567 23.9984 11.8016Z" fill="white"/>
<path fill-rule="evenodd" clip-rule="evenodd" d="M12 0C12.7413 0 13.4669 0.0672214 14.1711 0.195901L14.1714 9.91896L23.8202 9.91875C23.9384 10.5947 24 11.2902 24 12C24 12.7118 23.938 13.409 23.8192 14.0867L14.1714 14.087L14.233 18.5004C14.2523 20.2039 14.2684 22.136 14.2676 23.7866C13.5333 23.9265 12.7752 24 12 24C11.2691 24 10.5534 23.9346 9.85847 23.8095L9.85841 14.087L0.180796 14.0867C0.0619654 13.409 0 12.7118 0 12C0 11.2902 0.0616318 10.5947 0.179836 9.91875L9.85841 9.91896L9.85847 0.190536C10.5534 0.0653536 11.2691 0 12 0Z" fill="#F65260"/>
<path fill-rule="evenodd" clip-rule="evenodd" d="M7 5L6.8 6.1995L8 6V7L6.8 6.7995L7 8H6L6.2 6.7995L5 7V6L6.2 6.1995L6 5H7Z" fill="#F65260"/>
<path fill-rule="evenodd" clip-rule="evenodd" d="M18 5L17.8 6.1995L19 6V7L17.8 6.7995L18 8H17L17.2 6.7995L16 7V6L17.2 6.1995L17 5H18Z" fill="#F65260"/>
<path fill-rule="evenodd" clip-rule="evenodd" d="M18 16L17.8 17.1995L19 17V18L17.8 17.7995L18 19H17L17.2 17.7995L16 18V17L17.2 17.1995L17 16H18Z" fill="#F65260"/>
<path fill-rule="evenodd" clip-rule="evenodd" d="M7 16L6.8 17.1995L8 17V18L6.8 17.7995L7 19H6L6.2 17.7995L5 18V17L6.2 17.1995L6 16H7Z" fill="#F65260"/>
<path d="M0.25 12C0.25 5.51065 5.51065 0.25 12 0.25C18.4893 0.25 23.75 5.51065 23.75 12C23.75 18.4893 18.4893 23.75 12 23.75C5.51065 23.75 0.25 18.4893 0.25 12Z" stroke="black" stroke-opacity="0.095389" stroke-width="0.5"/>
</svg>
