<svg width="24" height="24" viewBox="0 0 24 24" fill="none" xmlns="http://www.w3.org/2000/svg">
<path fill-rule="evenodd" clip-rule="evenodd" d="M12 23.5C18.3513 23.5 23.5 18.3513 23.5 12C23.5 5.64873 18.3513 0.5 12 0.5C5.64873 0.5 0.5 5.64873 0.5 12C0.5 18.3513 5.64873 23.5 12 23.5Z" fill="white"/>
<path fill-rule="evenodd" clip-rule="evenodd" d="M10.0072 0.165039L10.0072 9.99273L23.8328 9.99254C23.9427 10.6454 24 11.3162 24 12.0003C24 12.6838 23.9429 13.3539 23.8331 14.0061L10.0064 14.0053L10.0062 23.8354C8.56893 23.5951 7.21822 23.0993 6.00232 22.3963L6.00212 14.0053L0.166841 14.0058C0.0571184 13.3537 0 12.6837 0 12.0003C0 11.3208 0.0564853 10.6544 0.165017 10.0057L6.00212 10.0052L6.00227 1.6044C7.21847 0.901218 8.56953 0.40533 10.0072 0.165039Z" fill="white"/>
<path fill-rule="evenodd" clip-rule="evenodd" d="M8.99971 10.9995H23.9566C23.9566 10.9995 24 11.6634 24 12.0001C24 12.3368 23.9566 12.9988 23.9566 12.9988H8.99971V23.6168C8.99971 23.6168 8.36504 23.4495 8.00078 23.3232C7.63652 23.1969 7.00393 22.9117 7.00393 22.9117V12.9988H0.0409703C0.0409703 12.9988 0.000162203 12.3317 4.87067e-07 11.9983C-0.000161229 11.6649 0.0400005 10.9995 0.0400005 10.9995H7.00393V1.0841C7.00393 1.0841 7.64215 0.807378 8.05216 0.664662C8.39206 0.546345 8.99971 0.379883 8.99971 0.379883V10.9995Z" fill="#F65260"/>
<path fill-rule="evenodd" clip-rule="evenodd" d="M6.00212 22.3975V14.0049H0.165848C0.165848 14.0049 0.306356 14.8908 0.699032 16.0611C1.07919 17.0903 1.54481 17.9437 1.99603 18.6349C2.70795 19.7254 3.68906 20.7735 4.78954 21.5963C5.49049 22.1151 6.00212 22.3975 6.00212 22.3975Z" fill="#0C69DA"/>
<path fill-rule="evenodd" clip-rule="evenodd" d="M23.8334 9.99283H10.0072V0.170288C10.0072 0.170288 10.8748 0.00292969 12.1552 0.00292969C14.5672 0.032168 16.8517 0.760172 18.8583 2.15756C20.1471 3.05509 21.7066 4.6031 22.6549 6.47775C23.5136 8.12398 23.8334 9.99283 23.8334 9.99283Z" fill="#0C69DA"/>
<path fill-rule="evenodd" clip-rule="evenodd" d="M23.8334 14.0049H10.0064V23.8357C10.0064 23.8357 11.1774 24.0409 12.4422 23.9924C13.8226 23.9589 15.2153 23.6191 16.1912 23.2527C17.1163 22.8893 17.7931 22.5967 19.0571 21.7109C20.8981 20.3813 22.255 18.6197 23.1385 16.4793C23.5984 15.3599 23.8334 14.0049 23.8334 14.0049Z" fill="#0C69DA"/>
<path fill-rule="evenodd" clip-rule="evenodd" d="M0.165848 10.0048H6.00212V1.60547C6.00212 1.60547 3.63869 2.97531 2.08887 5.23938C0.597121 7.41997 0.165848 10.0048 0.165848 10.0048Z" fill="#0C69DA"/>
<path d="M0.25 12C0.25 5.51065 5.51065 0.25 12 0.25C18.4893 0.25 23.75 5.51065 23.75 12C23.75 18.4893 18.4893 23.75 12 23.75C5.51065 23.75 0.25 18.4893 0.25 12Z" stroke="black" stroke-opacity="0.095389" stroke-width="0.5"/>
</svg>
