<?xml version="1.0" encoding="iso-8859-1"?>
<!-- Generator: Adobe Illustrator 18.1.1, SVG Export Plug-In . SVG Version: 6.00 Build 0)  -->
<svg xmlns="http://www.w3.org/2000/svg" xmlns:xlink="http://www.w3.org/1999/xlink" version="1.1" id="Capa_1" x="0px" y="0px" viewBox="0 0 15.99 15.99" style="enable-background:new 0 0 15.99 15.99;" xml:space="preserve" width="512px" height="512px">
<g>
	<g>
		<path d="M14.926,0.656H1.067C0.478,0.656,0,1.137,0,1.73v9.844c0,0.594,0.478,1.074,1.067,1.074h5.316    c0,0-0.934,2.149-3.493,2.149v0.537h1.88h4.568h3.493v-0.537c-2.631,0-3.226-2.149-3.226-2.149h5.32    c0.588,0,1.065-0.48,1.065-1.074V1.73C15.992,1.137,15.514,0.656,14.926,0.656z M7.996,12.427c-0.331,0-0.599-0.268-0.599-0.599    c0-0.33,0.268-0.598,0.599-0.598c0.33,0,0.599,0.268,0.599,0.598C8.594,12.159,8.326,12.427,7.996,12.427z M14.849,10.906H1.143    V1.798H14.85L14.849,10.906L14.849,10.906z" fill="#cfcfcf"/>
		<path d="M6.824,9.133c0.393-0.016,0.542-0.255,1.017-0.255c0.476,0,0.609,0.255,1.024,0.247    C9.288,9.117,9.556,8.74,9.814,8.363c0.3-0.438,0.423-0.862,0.431-0.883c-0.01-0.005-0.824-0.317-0.833-1.255    c-0.008-0.786,0.642-1.163,0.67-1.182C9.718,4.51,9.149,4.437,8.947,4.429C8.465,4.38,8.005,4.713,7.759,4.713    c-0.244,0-0.623-0.277-1.023-0.27C6.209,4.451,5.724,4.75,5.452,5.221c-0.547,0.95-0.14,2.356,0.393,3.127    C6.105,8.725,6.416,9.148,6.824,9.133z" fill="#cfcfcf"/>
		<path d="M8.953,2.928c-0.312,0.013-0.689,0.208-0.914,0.47c-0.2,0.233-0.376,0.604-0.329,0.96    c0.349,0.027,0.704-0.177,0.921-0.439C8.847,3.656,8.993,3.292,8.953,2.928z" fill="#cfcfcf"/>
	</g>
</g>
<g>
</g>
<g>
</g>
<g>
</g>
<g>
</g>
<g>
</g>
<g>
</g>
<g>
</g>
<g>
</g>
<g>
</g>
<g>
</g>
<g>
</g>
<g>
</g>
<g>
</g>
<g>
</g>
<g>
</g>
</svg>
