<svg width="24" height="24" viewBox="0 0 24 24" fill="none" xmlns="http://www.w3.org/2000/svg">
<path fill-rule="evenodd" clip-rule="evenodd" d="M12 23.5C18.3513 23.5 23.5 18.3513 23.5 12C23.5 5.64873 18.3513 0.5 12 0.5C5.64873 0.5 0.5 5.64873 0.5 12C0.5 18.3513 5.64873 23.5 12 23.5Z" fill="#0C69DA"/>
<path fill-rule="evenodd" clip-rule="evenodd" d="M12 0C13.4026 0 14.749 0.240642 16.0002 0.682893V23.3171C14.749 23.7594 13.4026 24 12 24C10.5975 24 9.25127 23.7594 8.00022 23.3173V0.682745C9.25127 0.240589 10.5975 0 12 0Z" fill="#0C69DA"/>
<path fill-rule="evenodd" clip-rule="evenodd" d="M16.0003 23.3168L16.0003 0.682617C20.6609 2.33004 24 6.77492 24 11.9997C24 17.2245 20.6609 21.6693 16.0003 23.3168L16.0003 0.682617L16.0003 23.3168Z" fill="#F65260"/>
<path fill-rule="evenodd" clip-rule="evenodd" d="M8.0003 0.682617V23.3172C3.33938 21.6699 0 17.2249 0 11.9999C0 6.77491 3.33938 2.32988 8.0003 0.682617Z" fill="#F65260"/>
<path fill-rule="evenodd" clip-rule="evenodd" d="M5.75 13.6667V17H4.75L4.7495 15.8895L4.25 17L3.75 15.8889L4.2455 15.8885L4.19552 15.8856C3.945 15.8555 3.75 15.6197 3.75 15.3333C3.75 15.0265 3.97386 14.7778 4.25 14.7778L3.75 13.6667H5.75ZM3.75 13.6667V17H2.75V13.6667H3.75ZM4.74992 15.3435C4.74539 15.6252 4.55204 15.8558 4.30448 15.8856L4.2545 15.888L4.7495 15.8885L4.74992 15.3435ZM4.7495 13.6675L4.25 14.7778C4.50773 14.7778 4.71992 14.9944 4.74707 15.2728L4.7495 15.323V13.6675ZM4.25 12.5556C4.52614 12.5556 4.75 12.8043 4.75 13.1111C4.75 13.4179 4.52614 13.6667 4.25 13.6667C3.97386 13.6667 3.75 13.4179 3.75 13.1111C3.75 12.8043 3.97386 12.5556 4.25 12.5556ZM4.25 12L4.75 12.5556H3.75L4.25 12Z" fill="#FFCA68"/>
<path d="M0.25 12C0.25 5.51065 5.51065 0.25 12 0.25C18.4893 0.25 23.75 5.51065 23.75 12C23.75 18.4893 18.4893 23.75 12 23.75C5.51065 23.75 0.25 18.4893 0.25 12Z" stroke="black" stroke-opacity="0.095389" stroke-width="0.5"/>
</svg>
