<svg width="24" height="24" viewBox="0 0 24 24" fill="none" xmlns="http://www.w3.org/2000/svg">
<path fill-rule="evenodd" clip-rule="evenodd" d="M12 23.5C18.3513 23.5 23.5 18.3513 23.5 12C23.5 5.64873 18.3513 0.5 12 0.5C5.64873 0.5 0.5 5.64873 0.5 12C0.5 18.3513 5.64873 23.5 12 23.5Z" fill="white"/>
<path fill-rule="evenodd" clip-rule="evenodd" d="M1.91248 5.49805H22.0875C23.2976 7.37159 24 9.60382 24 12.0001C24 14.6133 23.1647 17.0313 21.7466 19.0019H2.25341C0.835276 17.0313 0 14.6133 0 12.0001C0 9.60382 0.702376 7.37159 1.91248 5.49805H22.0875H1.91248Z" fill="white"/>
<path fill-rule="evenodd" clip-rule="evenodd" d="M2.25287 19.001H21.7471C19.5687 22.0285 16.0146 23.9999 12 23.9999C7.98542 23.9999 4.43129 22.0285 2.25287 19.001H21.7471H2.25287Z" fill="#0C69DA"/>
<path fill-rule="evenodd" clip-rule="evenodd" d="M12 0C16.2316 0 19.9516 2.19026 22.0882 5.49895H1.91183C4.04843 2.19026 7.76843 0 12 0Z" fill="#0C69DA"/>
<path fill-rule="evenodd" clip-rule="evenodd" d="M16.4122 14.5814H7.47953L11.9459 6.54199L16.4122 14.5814ZM11.9459 7.91474L8.61254 13.9147H15.2792L11.9459 7.91474Z" fill="#0C69DA"/>
<path fill-rule="evenodd" clip-rule="evenodd" d="M16.4122 9.52344L7.47953 9.52344L11.9459 17.5629L16.4122 9.52344ZM11.9459 16.1901L8.61254 10.1901L15.2792 10.1901L11.9459 16.1901Z" fill="#0C69DA"/>
<path d="M12 23.75C5.51065 23.75 0.25 18.4893 0.25 12C0.25 5.51065 5.51065 0.25 12 0.25C18.4893 0.25 23.75 5.51065 23.75 12C23.75 18.4893 18.4893 23.75 12 23.75Z" stroke="black" stroke-opacity="0.095389" stroke-width="0.5"/>
</svg>
