<svg width="24" height="24" viewBox="0 0 24 24" fill="none" xmlns="http://www.w3.org/2000/svg">
<path fill-rule="evenodd" clip-rule="evenodd" d="M12 23.5C18.3513 23.5 23.5 18.3513 23.5 12C23.5 5.64873 18.3513 0.5 12 0.5C5.64873 0.5 0.5 5.64873 0.5 12C0.5 18.3513 5.64873 23.5 12 23.5Z" fill="white"/>
<path fill-rule="evenodd" clip-rule="evenodd" d="M12 0C13.9253 0 15.7448 0.453431 17.3574 1.25933V22.7407C15.7448 23.5466 13.9253 24 12 24C10.0746 24 8.2552 23.5466 6.64262 22.7407V1.25935C8.2552 0.453436 10.0746 0 12 0Z" fill="white"/>
<path fill-rule="evenodd" clip-rule="evenodd" d="M6.64264 1.25928V22.7406C2.70441 20.7724 0 16.702 0 11.9999C0 7.37021 2.62184 3.35284 6.46176 1.3516L6.64264 1.25928V1.25928Z" fill="#F65260"/>
<path fill-rule="evenodd" clip-rule="evenodd" d="M17.3574 22.7406V1.25928C21.2956 3.22745 24 7.29787 24 11.9999C24 16.702 21.2956 20.7724 17.3574 22.7406V1.25928V22.7406Z" fill="#F65260"/>
<path fill-rule="evenodd" clip-rule="evenodd" d="M14.0367 13.368L15.9449 11.818L15.5498 11.6323C15.3759 11.5702 15.4245 11.4727 15.4868 11.2371L15.778 10.1786L14.6695 10.4117C14.5613 10.4281 14.4891 10.3593 14.4727 10.2938L14.3304 9.79546L13.4538 10.7768C13.3291 10.9339 13.0765 10.9339 13.1553 10.5707L13.5296 8.58305L13.0273 8.84319C12.8862 8.92169 12.7452 8.93478 12.6664 8.7941L11.9723 7.5L11.2784 8.7941C11.1997 8.93478 11.0586 8.92169 10.9176 8.84319L10.4153 8.58305L10.7897 10.5707C10.8684 10.9339 10.6158 10.9339 10.4912 10.7768L9.61451 9.79546L9.4722 10.2938C9.4558 10.3593 9.38366 10.4281 9.27539 10.4117L8.16685 10.1786L8.45803 11.2371C8.52034 11.4727 8.56902 11.5702 8.39512 11.6323L8 11.818L9.9082 13.368C9.98373 13.4266 10.0219 13.5321 9.99505 13.6276L9.828 14.1757C10.485 14.0999 11.0738 13.986 11.7311 13.9158C11.7892 13.9096 11.8863 14.0054 11.8859 14.0727L11.7988 16.0806H12.1183L12.068 14.0769C12.0677 14.0097 12.1557 13.9096 12.2138 13.9158C12.8712 13.986 13.4599 14.0999 14.1169 14.1757L13.9499 13.6276C13.923 13.5321 13.9612 13.4266 14.0367 13.368Z" fill="#F65260"/>
<path d="M0.25 12C0.25 5.51065 5.51065 0.25 12 0.25C18.4893 0.25 23.75 5.51065 23.75 12C23.75 18.4893 18.4893 23.75 12 23.75C5.51065 23.75 0.25 18.4893 0.25 12Z" stroke="black" stroke-opacity="0.095389" stroke-width="0.5"/>
</svg>
