<svg width="24" height="24" viewBox="0 0 24 24" fill="none" xmlns="http://www.w3.org/2000/svg">
<path fill-rule="evenodd" clip-rule="evenodd" d="M12 23.5C18.3513 23.5 23.5 18.3513 23.5 12C23.5 5.64873 18.3513 0.5 12 0.5C5.64873 0.5 0.5 5.64873 0.5 12C0.5 18.3513 5.64873 23.5 12 23.5Z" fill="white"/>
<path fill-rule="evenodd" clip-rule="evenodd" d="M12 0C13.4032 0 14.7501 0.240832 16.0017 0.683415V23.3166C14.7501 23.7592 13.4032 24 12 24C10.5968 24 9.24991 23.7592 7.99832 23.3166L7.99832 0.683415C9.24991 0.240832 10.5968 0 12 0Z" fill="white"/>
<path fill-rule="evenodd" clip-rule="evenodd" d="M16.0007 23.317L16.0007 0.683105C20.6611 2.33064 24 6.77542 24 12C24 17.2247 20.6611 21.6694 16.0007 23.317L16.0007 0.683105L16.0007 23.317Z" fill="#F65260"/>
<path fill-rule="evenodd" clip-rule="evenodd" d="M12 12C12.8284 12 13.5 11.3284 13.5 10.5C13.5 9.67157 12.8284 9 12 9C11.1716 9 10.5 9.67157 10.5 10.5C10.5 11.3284 11.1716 12 12 12Z" fill="#FF8E4B"/>
<path fill-rule="evenodd" clip-rule="evenodd" d="M15.5 11.9998V12.9998L14.4499 13.0003C14.2181 14.1412 13.2093 14.9998 12 14.9998C10.7907 14.9998 9.7819 14.1412 9.5501 13.0003L8.5 12.9998V11.9998L10.5855 11.9995C10.5301 12.156 10.5 12.3244 10.5 12.4998C10.5 13.3282 11.1716 13.9998 12 13.9998C12.8284 13.9998 13.5 13.3282 13.5 12.4998C13.5 12.3244 13.4699 12.156 13.4145 11.9995L15.5 11.9998Z" fill="#227415"/>
<path fill-rule="evenodd" clip-rule="evenodd" d="M8.00008 0.682617L7.99908 23.3167C3.33879 21.6691 0 17.2244 0 11.9998C0 6.77492 3.33927 2.32994 8.00008 0.682617Z" fill="#227415"/>
<path d="M0.25 12C0.25 5.51065 5.51065 0.25 12 0.25C18.4893 0.25 23.75 5.51065 23.75 12C23.75 18.4893 18.4893 23.75 12 23.75C5.51065 23.75 0.25 18.4893 0.25 12Z" stroke="black" stroke-opacity="0.095389" stroke-width="0.5"/>
</svg>
