<svg width="24" height="24" viewBox="0 0 24 24" fill="none" xmlns="http://www.w3.org/2000/svg">
<path fill-rule="evenodd" clip-rule="evenodd" d="M12 23.5C18.3513 23.5 23.5 18.3513 23.5 12C23.5 5.64873 18.3513 0.5 12 0.5C5.64873 0.5 0.5 5.64873 0.5 12C0.5 18.3513 5.64873 23.5 12 23.5Z" fill="white"/>
<path fill-rule="evenodd" clip-rule="evenodd" d="M0.683415 7.99829L23.3166 7.99829C23.7592 9.24988 24 10.5968 24 12C24 13.4028 23.7593 14.7493 23.3169 16.0006H0.683061C0.240703 14.7493 0 13.4028 0 12C0 10.5968 0.240832 9.24988 0.683415 7.99829L23.3166 7.99829L0.683415 7.99829Z" fill="white"/>
<path fill-rule="evenodd" clip-rule="evenodd" d="M0.68306 16.0007L23.3169 16.0007C21.6694 20.6611 17.2246 24.0001 12 24.0001C6.77537 24.0001 2.3306 20.6611 0.68306 16.0007L23.3169 16.0007L0.68306 16.0007Z" fill="#0C69DA"/>
<path fill-rule="evenodd" clip-rule="evenodd" d="M12 0C17.2249 0 21.6699 3.33927 23.3172 8.00008H0.682793C2.33012 3.33927 6.77509 0 12 0Z" fill="#F65260"/>
<path fill-rule="evenodd" clip-rule="evenodd" d="M7.5 6.4379L8.35714 5.65002L9.21429 6.4379V8.01366H7.5V6.4379Z" fill="#C2E5FD"/>
<path fill-rule="evenodd" clip-rule="evenodd" d="M10.9286 6.4379L11.7857 5.65002L12.6429 6.4379V8.01366H10.9286V6.4379Z" fill="#C2E5FD"/>
<path fill-rule="evenodd" clip-rule="evenodd" d="M14.3571 6.4379L15.2143 5.65002L16.0714 6.4379V8.01366H14.3571V6.4379Z" fill="#C2E5FD"/>
<path fill-rule="evenodd" clip-rule="evenodd" d="M9.21429 6.4379L10.0714 5.65002L10.9286 6.4379V8.01366H9.21429V6.4379Z" fill="#073579"/>
<path fill-rule="evenodd" clip-rule="evenodd" d="M12.6429 6.4379L13.5 5.65002L14.3571 6.4379V8.01366H12.6429V6.4379Z" fill="#073579"/>
<path fill-rule="evenodd" clip-rule="evenodd" d="M14.3571 16.0303V17.606H12.6429V16.0303H14.3571ZM10.9286 16.0303V17.606H9.21429V16.0303H10.9286ZM9.21429 14.4545V16.0303H7.5V14.4545H9.21429ZM12.6429 14.4545V16.0303H10.9286V14.4545H12.6429ZM16.0714 14.4545V16.0303H14.3571V14.4545H16.0714ZM14.3571 12.8788V14.4545H12.6429V12.8788H14.3571ZM10.9286 12.8788V14.4545H9.21429V12.8788H10.9286ZM12.6429 11.303V12.8788H10.9286V11.303H12.6429ZM16.0714 11.303V12.8788H14.3571V11.303H16.0714ZM9.21429 11.303V12.8788H7.5V11.303H9.21429ZM10.9286 9.72725V11.303H9.21429V9.72725H10.9286ZM14.3571 9.72725V11.303H12.6429V9.72725H14.3571ZM12.6429 8.15149V9.72725H10.9286V8.15149H12.6429ZM15.2143 8.15149L16.0714 9.72725H14.3571V8.15149H15.2143ZM9.21429 8.15149V9.72725H7.5L8.35714 8.15149H9.21429Z" fill="#F65260"/>
<path d="M0.25 12C0.25 5.51065 5.51065 0.25 12 0.25C18.4893 0.25 23.75 5.51065 23.75 12C23.75 18.4893 18.4893 23.75 12 23.75C5.51065 23.75 0.25 18.4893 0.25 12Z" stroke="black" stroke-opacity="0.095389" stroke-width="0.5"/>
</svg>
