<svg width="24" height="24" viewBox="0 0 24 24" fill="none" xmlns="http://www.w3.org/2000/svg">
<path fill-rule="evenodd" clip-rule="evenodd" d="M12 23.5C18.3513 23.5 23.5 18.3513 23.5 12C23.5 5.64873 18.3513 0.5 12 0.5C5.64873 0.5 0.5 5.64873 0.5 12C0.5 18.3513 5.64873 23.5 12 23.5Z" fill="white"/>
<path fill-rule="evenodd" clip-rule="evenodd" d="M2.53065 4.62812C0.944768 6.66232 0 9.22083 0 12C0 14.7731 0.940622 17.3264 2.52021 19.3585L9.87915 12.0001L2.52039 4.64171C2.52398 4.63729 2.5274 4.63275 2.53065 4.62812ZM4.60349 2.54991C4.61769 2.54136 4.63097 2.53205 4.64327 2.52195L12.0002 9.87808L19.3576 2.52108L19.3586 2.52034C17.3266 0.940671 14.7731 0 12 0C9.2096 0 6.64164 0.95242 4.60349 2.54991ZM21.4795 4.6412L21.4784 4.64293L14.1212 11.9991L21.4778 19.3565L21.4784 19.3603C23.0588 17.3279 24 14.7739 24 12C24 9.22678 23.0593 6.67328 21.4795 4.6412ZM19.3996 21.4476C19.3853 21.4564 19.371 21.4665 19.3568 21.4781L12.0002 14.1211L4.64553 21.4758C4.63291 21.4658 4.61889 21.4573 4.60355 21.4501C6.6417 23.0476 9.20963 24 12 24C14.7918 24 17.361 23.0466 19.3996 21.4476Z" fill="white"/>
<path fill-rule="evenodd" clip-rule="evenodd" d="M12.0001 9.87848L19.3576 2.52148L19.7354 2.83238C20.0277 3.07829 20.2639 3.29128 20.444 3.47135L20.6505 3.6864C20.7997 3.84709 20.9721 4.04242 21.1677 4.27239L21.4784 4.64333L14.1211 11.9995L21.4778 19.3569L21.1869 19.7131C20.9577 19.989 20.7616 20.2123 20.5987 20.383L20.5049 20.4792C20.2653 20.7187 19.8826 21.0518 19.3568 21.4785L12.0001 14.1215L4.64553 21.4762C4.19878 21.1235 3.8434 20.8173 3.57937 20.5575L3.45497 20.4314C3.23697 20.2034 2.99394 19.929 2.72588 19.6082L2.52015 19.3589L9.87915 12.0005L2.52039 4.64212C2.92008 4.14826 3.24033 3.7811 3.48114 3.54064C3.72195 3.30018 4.10933 2.96075 4.64327 2.52235L12.0001 9.87848Z" fill="#F65260"/>
<path fill-rule="evenodd" clip-rule="evenodd" d="M12 3.9232L11.2447 4.46667L11.3022 3.73543L10.1766 3.77278L11.0132 3.28213L10.0264 2.7123L11.3022 2.85475L11.1228 2L12 2.7123L12.8772 2L12.6978 2.85475L13.9736 2.7123L12.9868 3.28213L13.8234 3.77278L12.6978 3.73543L12.7553 4.46667L12 3.9232Z" fill="#FFCA68"/>
<path fill-rule="evenodd" clip-rule="evenodd" d="M10 5.83301C10 5.4622 10 5.04862 10 4.66628C10 3.92991 10.597 3.33301 11.3333 3.33301H12.6667C13.403 3.33301 14 3.92991 14 4.66629C14 5.04862 14 5.4622 14 5.83301C14 7.61872 12 8.33301 12 8.33301C12 8.33301 10 7.61872 10 5.83301Z" fill="#F65260"/>
<path fill-rule="evenodd" clip-rule="evenodd" d="M11.6667 7.66634C11.6667 7.48225 11.8159 7.33301 12 7.33301C12.1841 7.33301 12.3333 7.48225 12.3333 7.66634C12.3333 7.85044 12.1841 7.99967 12 7.99967C11.8159 7.99967 11.6667 7.85044 11.6667 7.66634Z" fill="#FFCA68"/>
<path fill-rule="evenodd" clip-rule="evenodd" d="M10.6667 6.33333C10.6667 6.14924 10.8159 6 11 6H13C13.1841 6 13.3333 6.14924 13.3333 6.33333C13.3333 6.51743 13.1841 6.66667 13 6.66667H11C10.8159 6.66667 10.6667 6.51743 10.6667 6.33333Z" fill="#FFCA68"/>
<path fill-rule="evenodd" clip-rule="evenodd" d="M10.6667 5.00033C10.6667 4.81623 10.8159 4.66699 11 4.66699H13C13.1841 4.66699 13.3333 4.81623 13.3333 5.00033C13.3333 5.18442 13.1841 5.33366 13 5.33366H11C10.8159 5.33366 10.6667 5.18442 10.6667 5.00033Z" fill="#FFCA68"/>
<path d="M0.25 12C0.25 5.51065 5.51065 0.25 12 0.25C18.4893 0.25 23.75 5.51065 23.75 12C23.75 18.4893 18.4893 23.75 12 23.75C5.51065 23.75 0.25 18.4893 0.25 12Z" stroke="black" stroke-opacity="0.095389" stroke-width="0.5"/>
</svg>
