<svg width="24" height="24" viewBox="0 0 24 24" fill="none" xmlns="http://www.w3.org/2000/svg">
<rect width="24" height="24" rx="12" fill="white"/>
<path fill-rule="evenodd" clip-rule="evenodd" d="M17.2619 5.91089C17.5991 5.7423 17.9413 6.12994 17.7322 6.44359L17.3243 7.05532C17.2831 7.11715 17.2301 7.1702 17.1682 7.21142L15.4542 8.35412C15.4213 8.37604 15.3907 8.40115 15.3628 8.42909L15.21 8.58186C14.9757 8.81618 14.9757 9.19608 15.21 9.43039L15.5995 9.81996C15.8339 10.0543 15.8339 10.4342 15.5995 10.6685L15.0915 11.1765C14.9089 11.3591 14.6299 11.4044 14.3989 11.2889L14.0843 11.1316C13.7879 10.9834 13.4275 11.1035 13.2793 11.3999L13.0397 11.8791C12.9686 12.0214 12.8438 12.1296 12.6928 12.18L11.1638 12.6896C11.1026 12.71 11.0386 12.7204 10.9741 12.7204H10.2042C9.97689 12.7204 9.76913 12.8488 9.6675 13.0521L9.48261 13.4219C9.33442 13.7182 8.97402 13.8384 8.67763 13.6902L6.82518 12.764C6.7675 12.7351 6.71485 12.6972 6.66925 12.6516L5.67574 11.6581C5.56321 11.5455 5.5 11.3929 5.5 11.2338V10.682C5.5 10.4402 5.69598 10.2442 5.93773 10.2442C6.05383 10.2442 6.16517 10.1981 6.24726 10.116L7.18141 9.18186C7.29393 9.06934 7.44654 9.00613 7.60567 9.00613H8.16278C8.42104 9.00613 8.65032 8.84087 8.73199 8.59586L9.04679 7.65147C9.14248 7.36441 9.43695 7.19352 9.73367 7.25286L12.1772 7.74157C12.2643 7.75899 12.3542 7.75685 12.4404 7.73531L14.7218 7.16496C14.7643 7.15434 14.8055 7.13911 14.8446 7.11953L16.0238 6.52994L17.2619 5.91089Z" fill="#FF8E4B"/>
<path fill-rule="evenodd" clip-rule="evenodd" d="M11.6905 17.6727C12.0324 17.6727 12.3095 17.3955 12.3095 17.0536C12.3095 16.7117 12.0324 16.4346 11.6905 16.4346C11.3486 16.4346 11.0714 16.7117 11.0714 17.0536C11.0714 17.3955 11.3486 17.6727 11.6905 17.6727Z" fill="#227415"/>
<path fill-rule="evenodd" clip-rule="evenodd" d="M13.7374 17.004L13.8874 16.9498L14.0903 16.8676C14.1281 16.8516 14.1678 16.8343 14.2092 16.816C14.5516 16.6637 14.8943 16.481 15.2176 16.2655C15.817 15.8658 16.2841 15.3988 16.5605 14.846C16.7087 14.5496 16.5885 14.1892 16.2921 14.041C16.0254 13.9076 15.7068 13.9916 15.5377 14.2258L15.4872 14.3093C15.3178 14.648 14.9925 14.9733 14.5519 15.267C14.2902 15.4415 14.0061 15.593 13.7218 15.7194L13.4659 15.8263L13.3579 15.8656C13.0435 15.9704 12.8736 16.3102 12.9784 16.6246C13.0832 16.9389 13.423 17.1088 13.7374 17.004Z" fill="#227415"/>
<path fill-rule="evenodd" clip-rule="evenodd" d="M9.64357 17.004L9.39816 16.9122L9.17176 16.816C8.82929 16.6637 8.4866 16.481 8.16334 16.2655C7.5639 15.8658 7.09686 15.3988 6.82046 14.846C6.67226 14.5496 6.7924 14.1892 7.08878 14.041C7.35553 13.9076 7.67413 13.9916 7.84322 14.2258L7.89377 14.3093C8.06308 14.648 8.38842 14.9733 8.82898 15.267C9.09072 15.4415 9.37481 15.593 9.65913 15.7194L9.91505 15.8263L10.023 15.8656C10.3374 15.9704 10.5073 16.3102 10.4025 16.6246C10.2977 16.9389 9.95793 17.1088 9.64357 17.004Z" fill="#227415"/>
<path d="M0.25 12C0.25 5.51065 5.51065 0.25 12 0.25C18.4893 0.25 23.75 5.51065 23.75 12C23.75 18.4893 18.4893 23.75 12 23.75C5.51065 23.75 0.25 18.4893 0.25 12Z" stroke="black" stroke-opacity="0.095389" stroke-width="0.5"/>
</svg>
