<svg width="24" height="24" viewBox="0 0 24 24" fill="none" xmlns="http://www.w3.org/2000/svg">
<path fill-rule="evenodd" clip-rule="evenodd" d="M12 23.5C18.3513 23.5 23.5 18.3513 23.5 12C23.5 5.64873 18.3513 0.5 12 0.5C5.64873 0.5 0.5 5.64873 0.5 12C0.5 18.3513 5.64873 23.5 12 23.5Z" fill="#FFCA68"/>
<path fill-rule="evenodd" clip-rule="evenodd" d="M12 0C15.5125 0 18.6726 1.50916 20.8671 3.91444L20.9589 4.0162L4.02175 20.9638L3.91444 20.8671C1.50916 18.6726 0 15.5125 0 12C0 5.37258 5.37258 0 12 0Z" fill="#FFCA68"/>
<path fill-rule="evenodd" clip-rule="evenodd" d="M4.02174 20.9638L20.9589 4.01611C22.8504 6.13719 24 8.9343 24 11.9999C24 18.6273 18.6274 23.9999 12 23.9999C8.93706 23.9999 6.14215 22.8524 4.02174 20.9638L20.9589 4.01611L4.02174 20.9638Z" fill="#FF8E4B"/>
<path fill-rule="evenodd" clip-rule="evenodd" d="M18.5418 6.5C18.6443 6.756 18.2561 6.80529 18.2321 7.17302L18.2324 7.25097C18.2504 7.51449 18.0849 7.50877 18.0051 7.90023L18.0992 7.83372C18.1134 7.82299 18.1266 7.81192 18.1388 7.79976L18.172 7.75921C18.3305 7.51654 18.6662 7.80098 18.9491 7.58482C18.9001 7.89196 18.5191 7.78204 18.3532 7.97925C18.2715 8.07624 18.1971 8.14713 18.1085 8.18735L18.283 8.17866C18.3385 8.17396 18.3916 8.16276 18.4437 8.13095C18.9039 7.85032 19.0888 8.18785 19.5 8.0551C19.3906 8.3206 18.7832 8.09306 18.5191 8.29027C18.3659 8.40464 17.9899 8.51619 17.7934 8.51901C17.833 8.56696 17.7783 8.60479 17.7038 8.58649L17.675 8.57719C17.8182 8.64004 17.7669 8.71234 17.6754 8.69782L17.6495 8.69163C17.7567 8.74641 17.7321 8.80487 17.6655 8.81003C17.8703 9.08832 17.5763 9.30271 17.5846 9.54234C17.6518 9.54672 17.7158 9.54298 17.7717 9.52679C18.0627 9.44267 17.9312 9.22333 17.8011 9.18537C18.0039 9.09822 18.1989 9.27642 18.1455 9.47363C18.4209 9.36746 18.3004 9.10578 18.1607 9.12473C18.3117 9.00717 18.5215 9.18537 18.5139 9.38266C18.9424 9.42055 19.1567 9.63678 18.9882 9.83781C19.0188 9.43575 18.3991 9.51923 18.0778 9.61027C17.8214 9.68287 17.5369 9.67226 17.3114 9.59613L17.3093 9.70827C17.3044 9.84186 17.2827 9.97999 17.161 10.0692C17.2232 9.92126 17.2112 9.77334 17.1901 9.6574L17.1647 9.53301L17.152 9.52679C17.0946 9.49378 17.0283 9.46254 16.9545 9.43242C16.9029 9.45957 16.8485 9.49258 16.7962 9.53958C16.8766 9.5615 16.9425 9.61762 16.9841 9.68309L17.006 9.7233C17.0535 9.79208 17.0438 9.89196 16.9824 9.95628C17.1128 10.0539 17.0824 10.3439 16.9232 10.3803C16.9751 10.2655 16.8541 10.2171 16.8102 10.1267C16.7519 10.2135 16.6147 10.2875 16.7007 10.4068C16.5615 10.3584 16.5347 10.2282 16.5752 10.111C16.4753 10.2082 16.3505 10.2703 16.1951 10.1868C16.3322 10.1802 16.3678 9.99784 16.4824 9.94384C16.4478 9.92228 16.4189 9.8969 16.3989 9.86813C16.2572 9.66484 16.0561 9.52863 15.8321 9.50141C15.7263 9.56249 15.5923 9.57358 15.4029 9.51923C15.2483 9.47477 15.0509 9.53237 14.9223 9.69736C14.9524 9.71496 14.984 9.72973 15.0181 9.7392C15.2935 9.81505 15.2747 10.1223 15.5388 10.1944C15.2761 10.2648 15.228 10.0017 14.9445 9.86041L14.8747 9.83018C14.8424 9.81823 14.814 9.80332 14.787 9.7872C14.7164 9.79773 14.6349 9.77384 14.5448 9.7556L14.6524 9.91797C14.7238 10.0193 14.8023 10.1025 14.9352 10.1413C15.169 10.2095 15.418 10.293 15.5462 10.4295C15.6321 10.5209 15.9108 10.5919 16.1354 10.6175L16.2079 10.6243L16.2141 10.623L16.2148 10.6248C16.292 10.6301 16.3576 10.6286 16.3989 10.6191L16.5057 10.59C16.6869 10.5368 16.9456 10.455 17.0629 10.5358C17.1082 10.4371 17.1836 10.3006 17.2742 10.2019C17.2665 10.258 17.2686 10.309 17.2769 10.3559L17.2865 10.3995L17.2759 10.3408L17.2719 10.2778C17.2719 9.98752 17.506 9.75214 17.7948 9.75214C18.0679 9.75214 18.2918 9.96278 18.3153 10.2313C18.584 10.2492 18.5286 10.5498 18.6285 10.5698C18.7493 10.714 18.7379 10.9302 18.5455 10.953C18.4813 11.1578 18.3117 11.2943 18.1305 11.2678C18.0136 11.3967 17.8665 11.4347 17.7458 11.4044C17.6627 11.4157 17.5157 11.3778 17.4741 11.3323C17.3383 11.3209 17.2289 11.2564 17.1382 11.1198C17.0736 11.1077 17.006 11.1314 16.916 11.1842L16.9119 11.1881C16.8349 11.2322 16.7417 11.2988 16.6177 11.3853C16.4986 11.4685 16.3258 11.4889 16.1553 11.4761C16.1574 11.6421 16.3765 11.8572 16.2291 12.0226C16.2329 11.9164 16.1235 11.7457 15.999 11.6926C16.0669 11.8178 15.8556 11.9088 15.9499 12.1022C15.7538 12.053 15.6707 11.8026 15.7952 11.5257C15.7122 11.666 15.5614 11.7267 15.4595 11.6622C15.6238 11.6127 15.6506 11.4425 15.62 11.3192C15.5599 11.281 15.4905 11.2667 15.4191 11.2711L15.3652 11.2778L15.3614 11.2829C15.2772 11.295 15.1927 11.335 15.1196 11.3907L15.1263 11.5088L15.1261 11.6283L15.1275 11.6262L15.1258 11.6344C15.1233 11.7067 15.1173 11.7793 15.1073 11.8514L15.0887 11.9619C15.0475 12.162 14.9767 12.3523 14.873 12.518L14.8068 12.6143C14.6938 12.7642 14.7093 12.8202 14.6037 12.9487L14.5503 13.0087C14.5064 13.0548 14.4592 13.1105 14.4412 13.2196L14.4348 13.2788L14.4372 13.2894C14.433 13.3239 14.4331 13.3604 14.4372 13.4032C14.5428 13.3653 14.6937 13.464 14.7238 13.5474C14.7993 13.5094 14.905 13.5246 14.9427 13.5702C15.0709 13.5094 15.1765 13.5398 15.2897 13.6612C15.3878 13.646 15.4935 13.6612 15.5916 13.7674C15.6444 13.6612 15.75 13.6233 15.8254 13.646C15.8179 13.5094 15.9537 13.4109 16.0744 13.464C16.0367 13.2819 16.2027 13.1453 16.3612 13.1985C16.4969 13.0922 16.7686 13.0846 16.9044 13.2439C16.663 13.1756 16.6706 13.4336 16.4668 13.4109C16.5061 13.5238 16.4407 13.601 16.3488 13.6535C16.3985 13.6347 16.4409 13.6288 16.4592 13.6612C16.5347 13.5948 16.6856 13.6195 16.7234 13.6535C16.8233 13.6213 16.9195 13.646 16.9648 13.7674C17.1006 13.8508 17.1911 14.0632 17.0931 14.2225C17.0629 14.0557 16.9498 14.0632 16.9044 13.9949C16.7987 14.0328 16.6931 14.0328 16.663 13.9646C16.6429 13.9848 16.6062 14.0036 16.5639 14.0171L16.599 14.0153C16.9556 14.0153 17.2447 14.306 17.2447 14.6646C17.2447 15.0231 16.9556 15.3137 16.599 15.3137C16.2869 15.3137 16.0266 15.0912 15.9663 14.7954L15.9585 14.7455L15.9605 14.7833C15.9597 14.8222 15.9511 14.8614 15.9412 14.8956L15.9311 14.928C16.1273 14.9583 15.9612 15.1329 16.3007 15.2466C16.1348 15.2997 15.8104 15.2466 15.765 15.0418C15.5991 15.0342 15.4859 14.8674 15.4935 14.6928C15.3652 14.5715 15.3463 14.397 15.5237 14.2756C15.4681 14.2924 15.4218 14.2701 15.3744 14.2402L15.3015 14.1934L15.2973 14.1922C15.239 14.158 15.175 14.1384 15.0906 14.1698L15.0709 14.177C15.0266 14.197 14.953 14.1948 14.8813 14.1786L14.8688 14.1792L14.8559 14.177L14.8512 14.171C14.7584 14.1446 14.6766 14.0953 14.6786 14.0405C14.6333 14.1163 14.358 14.0859 14.3201 13.957C14.2296 14.0063 14.0184 13.9229 14.0221 13.7977C13.9051 13.8508 13.7468 13.756 13.7543 13.6347C13.7328 13.6317 13.7161 13.6247 13.7016 13.6161C13.6719 13.728 13.6076 13.8705 13.4826 13.8736C13.5769 13.7067 13.4412 13.5815 13.494 13.5664C13.3166 13.5019 13.2034 13.8963 12.9846 13.6877C13.1902 13.7048 13.1336 13.3596 13.4412 13.3388C13.1336 13.3084 13.211 13.1851 13.0526 13.1794C13.0959 13.1131 13.2091 13.1225 13.294 13.1889C13.3775 13.2543 13.4513 13.0863 13.6063 13.1857L13.6071 13.1833C13.5423 13.1107 13.5673 13.0105 13.6157 12.9156C13.5213 12.9098 13.4497 12.8885 13.397 12.858C13.3583 12.8842 13.3005 12.8956 13.2223 12.8798C13.1721 12.8697 13.1307 12.8491 13.0975 12.8224C13.0709 12.8312 13.0377 12.836 12.996 12.8343C12.7685 12.8251 12.6445 12.7735 12.5805 12.7078C12.5482 12.7208 12.5082 12.7273 12.4602 12.7243C12.3314 12.7165 12.2374 12.6873 12.1688 12.6472L12.1302 12.6219L12.0624 12.6189C11.9328 12.6072 11.8392 12.5622 11.774 12.5037C11.6594 12.5194 11.569 12.4829 11.5018 12.4246C11.265 12.4775 11.1496 12.4197 11.0965 12.3347C11.0683 12.3756 11.0195 12.4045 10.9398 12.4057C10.8591 12.4068 10.8018 12.3867 10.7608 12.3562C10.7464 12.4037 10.7125 12.4457 10.6494 12.4702C10.5662 12.5023 10.4995 12.4913 10.4474 12.461C10.4457 12.5161 10.4195 12.574 10.3702 12.6219C10.3349 12.6562 10.2955 12.6651 10.2577 12.6596C10.2598 12.686 10.2543 12.7154 10.2382 12.747C10.2126 12.7972 10.1795 12.8228 10.1447 12.8343C10.1653 12.8662 10.1726 12.9161 10.1646 12.9841C10.1592 13.0296 10.1389 13.0572 10.1132 13.0742C10.1407 13.1076 10.1367 13.1705 10.1061 13.2743L10.0772 13.3647C10.0633 13.4121 10.0541 13.4626 10.0662 13.516L10.0835 13.555C10.1196 13.6293 10.1487 13.6982 10.1721 13.7628C10.2211 13.7733 10.2697 13.788 10.3098 13.8053C10.3325 13.7731 10.3872 13.7162 10.4457 13.7181C10.408 13.646 10.4419 13.4411 10.5438 13.3805C10.5664 13.2496 10.64 13.1283 10.8116 13.1188C10.9776 13.1074 11.1398 13.1529 11.2379 13.2819C11.1775 13.2667 11.0418 13.3274 10.9512 13.3122C10.9436 13.3767 10.872 13.464 10.8078 13.4905C10.838 13.536 10.8267 13.6612 10.7513 13.7029C10.8192 13.6535 10.9663 13.5777 11.0191 13.6004C11.0493 13.555 11.219 13.5322 11.2831 13.5664C11.4417 13.4829 11.6793 13.6156 11.6605 13.8659C11.6321 13.8324 11.5957 13.8187 11.5573 13.8128C11.7417 13.8886 11.8717 14.0706 11.8717 14.2832C11.8717 14.5639 11.6454 14.7915 11.3662 14.7915C11.308 14.7915 11.2522 14.781 11.2002 14.7629C11.2323 14.7754 11.2633 14.7849 11.2907 14.7876C11.2077 14.837 10.9248 14.8446 10.8418 14.7573C10.7588 14.6701 10.5664 14.6739 10.506 14.5146C10.4479 14.5239 10.3234 14.5292 10.2239 14.4608L10.18 14.6578L10.1816 14.6626L10.1643 14.7424L10.1529 14.8252L10.1551 14.8294C10.1428 14.931 10.1454 15.0412 10.1741 15.1708C10.3174 15.2012 10.3929 15.3225 10.3853 15.4515C10.4702 15.4552 10.5305 15.5348 10.5004 15.6866C10.5721 15.6733 10.6644 15.6942 10.7248 15.7549C10.7776 15.6563 10.9512 15.6335 11.0418 15.7473C11.2379 15.7321 11.336 15.8914 11.3285 16.0886C11.4341 16.2783 11.3964 16.5097 11.2831 16.6576C11.2945 16.578 11.2832 16.4642 11.2794 16.3959C11.2725 16.2704 11.0983 16.2442 11.1172 16.1418C11.0267 16.1493 10.9398 16.1001 10.9097 16.0318C10.8569 16.0772 10.7814 16.0925 10.7172 16.0697C10.8192 16.1153 10.8984 16.2973 10.8682 16.4186C10.9211 16.5097 10.9097 16.6766 10.8456 16.7487C10.8341 16.8047 10.8107 16.8469 10.7782 16.8746L10.78 16.9101C10.78 17.2358 10.5172 17.5 10.193 17.5C9.86892 17.5 9.60619 17.2358 9.60619 16.9101C9.59107 16.7886 9.43836 16.6689 9.45721 16.5666C9.36665 16.2859 9.49496 16.0241 9.86464 15.9711C9.83876 15.9104 9.8794 15.8485 9.9078 15.7839C9.83096 15.7335 9.85339 15.655 9.91744 15.6335C9.82713 15.6562 9.77921 15.5794 9.82626 15.5282L9.84846 15.5105C9.72084 15.5414 9.67664 15.4079 9.719 15.3587L9.73633 15.3457L9.73344 15.3418C9.5363 15.3447 9.60773 15.6255 9.47232 15.6108C9.5176 15.5083 9.40448 15.4306 9.41945 15.3453C9.34029 15.4495 9.11959 15.5122 9.04225 15.4173C9.23089 15.4022 9.20066 15.1821 9.29121 15.1784C9.48737 15.1701 9.37045 15.0229 9.27989 15.0153C9.18941 15.0076 9.16297 14.9962 9.23841 14.9508C9.2993 14.9141 9.4378 14.9248 9.52505 14.96L9.52822 14.9553C9.54406 14.913 9.55481 14.8691 9.56159 14.8246L9.5687 14.757L9.57066 14.6927L9.5678 14.6295C9.48997 14.6694 9.38528 14.6535 9.35203 14.6181C9.31153 14.6397 9.25458 14.6458 9.18392 14.6257C8.95592 14.8105 8.63138 14.893 8.52915 15.1329C8.41821 15.3932 8.18212 15.3376 7.89541 15.7245C7.70663 15.9793 7.45775 15.808 7.1408 16.0659C7.20211 15.7869 7.4356 15.9357 7.68652 15.5794L7.6248 15.595L7.56335 15.6032C7.21624 15.626 7.0918 16.047 6.79377 15.9293C7.07288 15.8763 7.07289 15.5577 7.29175 15.4591C7.14648 15.4069 7.06467 15.7054 6.8951 15.7555L6.84657 15.7625C6.66319 15.7625 6.56547 16.0267 6.36622 16.0629L6.29578 16.0659C6.06238 16.0446 6.02475 16.4122 5.61045 16.4624L5.5224 16.4681C5.14134 16.4717 4.66979 16.9193 4.5 16.7259C4.86974 16.6728 5.01894 16.4668 5.23942 16.2404C5.59405 15.8763 5.99395 16.0394 6.12972 15.717C5.96759 15.8269 5.77888 15.88 5.59405 15.8763C5.36196 15.8715 5.10738 16.248 4.84704 16.0811C4.99798 16.0621 5.09606 15.9976 5.25453 15.8307C5.4168 15.6598 5.65486 15.7703 5.843 15.5956C6.13731 15.3225 6.39013 15.55 6.67305 15.2087C6.59381 15.1708 6.42402 15.1973 6.26562 15.2808C6.10715 15.3642 5.90347 15.2238 5.72229 15.3225C5.74348 15.1137 6.11292 15.2113 6.37678 15.0995L6.43154 15.0722C6.69477 14.9181 6.91814 14.94 7.1292 14.9616C6.85915 14.9144 6.71544 14.663 6.3033 14.7459C6.10588 14.7857 5.94868 14.4729 5.75252 14.6321C5.75771 14.5237 5.93334 14.4345 6.1265 14.5109L6.17506 14.5335C6.38634 14.6474 6.47148 14.434 6.89184 14.7005C7.06536 14.8104 7.36339 14.6321 7.5521 14.7497C7.52749 14.6776 7.41999 14.6321 7.29365 14.6417C7.35763 14.5098 7.70368 14.4982 7.95158 14.5848C7.90574 14.5183 7.88781 14.4418 7.88781 14.3818C8.00727 14.4276 8.16756 14.3506 8.31036 14.3651C8.23576 14.3154 8.1985 14.2413 8.19344 14.177C8.32041 14.2195 8.3858 14.1074 8.48008 14.049C8.35029 14.0255 8.22789 13.9713 8.19723 13.8963C8.37181 13.952 8.44148 13.7442 8.64066 13.7157C8.62273 13.6216 8.71751 13.4558 8.84111 13.3955C8.80328 13.3575 8.78127 13.2919 8.79323 13.206C8.81362 13.0591 8.84202 12.9756 8.90755 12.9306L8.86867 12.9252C8.74415 12.903 8.41034 13.1225 8.27267 12.9026C8.58891 12.993 8.78802 12.5918 9.06468 12.5279C9.03002 12.4535 9.01772 12.3509 9.03473 12.2654C9.05941 12.141 9.18027 12.0453 9.28348 12.0581C9.2131 11.9729 9.23637 11.8406 9.28742 11.8178C9.27933 11.7554 9.30056 11.7131 9.33881 11.6861L9.28502 11.6561C9.2683 11.6481 9.25243 11.6429 9.23636 11.6429L9.21198 11.647C9.11397 11.6812 9.0083 11.5693 8.88758 11.6622C8.89269 11.5174 9.05376 11.5795 9.23318 11.4723L9.28742 11.4347C9.38022 11.3608 9.53546 11.3471 9.68718 11.4733C9.6682 11.4121 9.68036 11.3367 9.7326 11.2791C9.79734 11.208 9.93419 11.1809 10.0255 11.2413L10.0573 11.2681L10.0664 11.263C10.0223 11.1459 10.0926 11.0026 10.1929 10.9643C10.2714 10.9344 10.3958 10.9368 10.4713 11.0017C10.4575 10.9233 10.4811 10.8419 10.4193 10.8013C10.3212 10.7368 10.2363 10.6647 10.2684 10.5509C10.3192 10.6817 10.4756 10.6811 10.6079 10.7064C10.7143 10.7268 10.8119 10.8276 10.843 10.9342C10.8728 10.8909 10.9223 10.861 10.9887 10.8657C11.07 10.8712 11.1297 10.9096 11.152 10.9659C11.1865 10.9161 11.2453 10.8834 11.3202 10.8994C11.3939 10.9151 11.4447 10.9561 11.4635 11.0085C11.5008 10.9647 11.559 10.9387 11.6294 10.9575C11.6797 10.9708 11.7188 10.9957 11.7437 11.0272C11.7541 10.9539 11.7644 10.8832 11.7322 10.8544C11.6642 10.7936 11.634 10.7064 11.6831 10.6116C11.6869 10.6799 11.7812 10.7482 11.8793 10.7861C11.9665 10.8198 11.9314 10.9794 12.0312 11.0677L12.0754 11.0971C12.1319 11.1248 12.1656 11.1942 12.155 11.2589C12.1969 11.2152 12.2724 11.1867 12.3622 11.226C12.496 11.2847 12.523 11.3931 12.4813 11.4494L12.4845 11.4506C12.5072 11.4123 12.6045 11.3667 12.7545 11.4044C12.9229 11.4467 12.9726 11.5508 12.9733 11.6388L12.9768 11.6399C12.9928 11.5969 13.063 11.5811 13.113 11.5978C13.1594 11.6133 13.225 11.6545 13.2308 11.7022L13.2425 11.7035C13.2533 11.6676 13.2417 11.6203 13.1813 11.5891L13.1469 11.575C12.9941 11.5257 12.9394 11.4271 12.9771 11.3361C13.0191 11.4372 13.1832 11.4724 13.2933 11.4603L13.3318 11.4536C13.3722 11.4435 13.4292 11.4451 13.4838 11.4584C13.4364 11.3952 13.4052 11.3243 13.4034 11.2791C13.4022 11.2476 13.4088 11.2108 13.4228 11.1717C13.3093 11.2122 13.1706 11.1958 13.0789 11.135L13.0239 11.0959C12.9586 11.0503 12.8654 10.9966 12.7734 11.0364C12.8639 10.8392 13.1317 11.0288 13.2186 10.8809C13.2316 10.8587 13.2463 10.8365 13.2627 10.816C13.2098 10.8044 13.1612 10.7801 13.1317 10.7405C13.0506 10.6318 13.0397 10.4921 13.0983 10.4075C13.0171 10.4307 12.9265 10.3946 12.8677 10.3157C12.8099 10.2384 12.7957 10.1304 12.8297 10.0483C12.7572 10.0877 12.67 10.0986 12.6036 10.1034C12.498 10.1109 12.3659 10.2209 12.332 10.4219C12.1806 10.1281 12.4268 10.049 12.4818 9.87015L12.4904 9.83018C12.4975 9.77462 12.5161 9.71722 12.5428 9.66689C12.3697 9.70103 12.2274 9.77603 12.0906 9.91366C12.2459 9.58998 12.4223 9.45759 12.5963 9.40252C12.5921 9.38224 12.5891 9.36089 12.5886 9.33714C12.5864 9.25076 12.6105 9.19499 12.6529 9.16975C12.6259 9.12663 12.6228 9.06054 12.6468 8.98307C12.6734 8.89712 12.7164 8.85152 12.7672 8.84389C12.7557 8.80713 12.7595 8.76029 12.7785 8.70867L12.7956 8.66915L12.8008 8.66018L12.7545 8.66958C12.5282 8.7303 11.9698 8.48374 11.6378 8.78338C11.6818 8.54983 11.9769 8.48728 12.4093 8.50551C12.5673 8.33438 12.8035 8.2673 13.039 8.25917C12.9652 8.21026 12.9314 8.1296 12.9723 7.99594C13.0687 8.28907 13.4768 8.11851 13.7215 8.24807C13.746 8.23931 13.7719 8.23118 13.7992 8.22369C13.1962 7.92376 12.5836 7.81844 12.4602 7.97162C12.332 8.13095 12.5772 8.21443 12.6489 8.18403C12.581 8.36237 12.1886 8.20686 12.2942 7.92617C12.3899 7.67184 12.8451 7.58482 13.4789 7.84269C13.4692 7.72994 13.4851 7.64279 13.5176 7.57698C13.3686 7.5451 13.2451 7.54856 13.1771 7.57719C13.2491 7.4848 13.3955 7.47689 13.5639 7.5094C13.597 7.47307 13.6376 7.44776 13.6824 7.43264L13.5733 7.38711C13.4015 7.31714 13.1945 7.25197 12.976 7.35891C13.032 7.19704 13.2671 7.17604 13.48 7.23514C13.6119 7.04704 14.017 7.11476 14.3918 7.39128C14.401 7.32032 14.4183 7.26348 14.4403 7.21669C14.3509 7.14021 14.2531 7.07715 14.0976 7.06895C14.1928 7.01283 14.3367 7.04591 14.4943 7.13293C14.507 7.11865 14.5204 7.10628 14.5344 7.09582C14.3692 6.98342 14.1722 6.89528 13.9014 6.90963C14.1618 6.73136 14.7918 6.97028 15.0407 7.22828C15.1931 7.38612 15.5168 7.31784 15.7138 7.59606C15.9335 7.46657 16.1846 7.51223 16.3688 7.68287C16.3903 7.64865 16.4189 7.62257 16.4592 7.61133C16.6344 7.56235 16.7764 7.71043 16.827 7.9044L16.8325 7.91062C16.9698 7.88673 17.1257 7.95487 17.2287 8.04888C17.3724 7.97459 17.4714 7.97134 17.5078 8.04768C17.5695 8.01841 17.64 7.9948 17.7059 8.00067C17.8637 7.76946 17.653 7.66272 17.9532 7.3951C18.2248 7.15307 18.0051 6.99177 18.2627 6.80339L18.3392 6.74746C18.4258 6.68205 18.5304 6.59103 18.5418 6.5Z" fill="white"/>
<path d="M12 0.25C18.4893 0.25 23.75 5.51065 23.75 12C23.75 18.4893 18.4893 23.75 12 23.75C5.51065 23.75 0.25 18.4893 0.25 12C0.25 5.51065 5.51065 0.25 12 0.25Z" stroke="black" stroke-opacity="0.095389" stroke-width="0.5"/>
</svg>
