<svg width="24" height="24" viewBox="0 0 24 24" fill="none" xmlns="http://www.w3.org/2000/svg">
<rect width="24" height="24" rx="12" fill="#F65260"/>
<path fill-rule="evenodd" clip-rule="evenodd" d="M14.9167 12.875V14H13.8333V12.875H14.9167Z" fill="#FFCA68"/>
<path fill-rule="evenodd" clip-rule="evenodd" d="M16 10.625V11.75H14.9167V10.625H16Z" fill="#FFCA68"/>
<path fill-rule="evenodd" clip-rule="evenodd" d="M16 8.375V9.5H14.9167V8.375H16Z" fill="#FFCA68"/>
<path fill-rule="evenodd" clip-rule="evenodd" d="M14.9167 6.125V7.25H13.8333V6.125H14.9167Z" fill="#FFCA68"/>
<path fill-rule="evenodd" clip-rule="evenodd" d="M7.00009 5L8.18036 8.43775H12L8.90991 10.5623L10.0902 14L7.00009 11.8753L3.90982 14L5.09009 10.5623L2 8.43775H5.81964L7.00009 5Z" fill="#FFCA68"/>
<path d="M0.25 12C0.25 5.51065 5.51065 0.25 12 0.25C18.4893 0.25 23.75 5.51065 23.75 12C23.75 18.4893 18.4893 23.75 12 23.75C5.51065 23.75 0.25 18.4893 0.25 12Z" stroke="black" stroke-opacity="0.095389" stroke-width="0.5"/>
</svg>
