<svg width="40px" height="53px" viewBox="0 0 40 53" version="1.1" xmlns="http://www.w3.org/2000/svg" xmlns:xlink="http://www.w3.org/1999/xlink">
	<defs>
		<path d="M7.952,19.285 L27.916,19.285 L27.916,12.866 C27.916,8.617 24.564,5.159 20.444,5.159 L15.424,5.159 C11.304,5.159 7.952,8.617 7.952,12.866 L7.952,19.285 Z M28.221,19.591 L7.647,19.591 L7.647,12.866 C7.647,8.448 11.136,4.854 15.424,4.854 L20.444,4.854 C24.733,4.854 28.221,8.448 28.221,12.866 L28.221,19.591 Z M18.296,26.419 C15.784,26.419 13.74,28.417 13.74,30.873 C13.74,32.707 14.918,34.379 16.67,35.034 L16.77,35.071 L16.77,40.311 C16.77,41.08 17.41,41.705 18.198,41.705 L18.593,41.705 C19.38,41.705 20.02,41.08 20.02,40.311 L20.02,34.997 L20.113,34.957 C21.777,34.249 22.852,32.646 22.852,30.873 C22.852,28.417 20.809,26.419 18.296,26.419 Z M18.593,42.01 L18.198,42.01 C17.242,42.01 16.464,41.248 16.464,40.311 L16.464,35.281 C14.648,34.557 13.435,32.799 13.435,30.873 C13.435,28.249 15.616,26.114 18.296,26.114 C20.977,26.114 23.158,28.249 23.158,30.873 C23.158,32.735 22.05,34.422 20.326,35.198 L20.326,40.311 C20.326,41.248 19.549,42.01 18.593,42.01 Z M15.424,1.294 C9.194,1.294 4.125,6.485 4.125,12.866 L4.125,19.644 L4,19.667 C1.859,20.059 0.306,21.886 0.306,24.012 L0.306,44.885 C0.306,47.323 2.335,49.307 4.829,49.307 L31.171,49.307 C33.665,49.307 35.694,47.323 35.694,44.885 L35.694,24.012 C35.694,21.857 34.051,19.979 31.873,19.644 L31.743,19.624 L31.743,12.866 C31.743,6.485 26.674,1.294 20.444,1.294 L15.424,1.294 Z M31.171,49.612 L4.829,49.612 C2.166,49.612 0,47.492 0,44.885 L0,24.012 C0,21.78 1.599,19.856 3.82,19.391 L3.82,12.866 C3.82,6.317 9.025,0.988 15.424,0.988 L20.444,0.988 C26.843,0.988 32.049,6.317 32.049,12.866 L32.049,19.364 C33.12,19.559 34.101,20.11 34.823,20.927 C35.582,21.786 36,22.882 36,24.012 L36,44.885 C36,47.492 33.834,49.612 31.171,49.612 Z" id="path-1"></path>
	</defs>
	<g stroke="none" stroke-width="1" fill="none" fill-rule="evenodd">
		<g id="lock_icon" transform="translate(2.000000, 1.000000)">
			<mask id="mask-2" fill="white">
				<use xlink:href="#path-1"></use>
			</mask>
			<polygon id="Fill-1" fill="#181816" mask="url(#mask-2)" points="-0.02 49.66 36.1 49.66 36.1 0.94 -0.02 0.94"></polygon>
			<path d="M7.952,19.285 L27.916,19.285 L27.916,12.866 C27.916,8.617 24.564,5.159 20.444,5.159 L15.424,5.159 C11.304,5.159 7.952,8.617 7.952,12.866 L7.952,19.285 Z M28.221,19.591 L7.647,19.591 L7.647,12.866 C7.647,8.448 11.136,4.854 15.424,4.854 L20.444,4.854 C24.733,4.854 28.221,8.448 28.221,12.866 L28.221,19.591 Z M18.296,26.419 C15.784,26.419 13.74,28.417 13.74,30.873 C13.74,32.707 14.918,34.379 16.67,35.034 L16.77,35.071 L16.77,40.311 C16.77,41.08 17.41,41.705 18.198,41.705 L18.593,41.705 C19.38,41.705 20.02,41.08 20.02,40.311 L20.02,34.997 L20.113,34.957 C21.777,34.249 22.852,32.646 22.852,30.873 C22.852,28.417 20.809,26.419 18.296,26.419 Z M18.593,42.01 L18.198,42.01 C17.242,42.01 16.464,41.248 16.464,40.311 L16.464,35.281 C14.648,34.557 13.435,32.799 13.435,30.873 C13.435,28.249 15.616,26.114 18.296,26.114 C20.977,26.114 23.158,28.249 23.158,30.873 C23.158,32.735 22.05,34.422 20.326,35.198 L20.326,40.311 C20.326,41.248 19.549,42.01 18.593,42.01 Z M15.424,1.294 C9.194,1.294 4.125,6.485 4.125,12.866 L4.125,19.644 L4,19.667 C1.859,20.059 0.306,21.886 0.306,24.012 L0.306,44.885 C0.306,47.323 2.335,49.307 4.829,49.307 L31.171,49.307 C33.665,49.307 35.694,47.323 35.694,44.885 L35.694,24.012 C35.694,21.857 34.051,19.979 31.873,19.644 L31.743,19.624 L31.743,12.866 C31.743,6.485 26.674,1.294 20.444,1.294 L15.424,1.294 Z M31.171,49.612 L4.829,49.612 C2.166,49.612 0,47.492 0,44.885 L0,24.012 C0,21.78 1.599,19.856 3.82,19.391 L3.82,12.866 C3.82,6.317 9.025,0.988 15.424,0.988 L20.444,0.988 C26.843,0.988 32.049,6.317 32.049,12.866 L32.049,19.364 C33.12,19.559 34.101,20.11 34.823,20.927 C35.582,21.786 36,22.882 36,24.012 L36,44.885 C36,47.492 33.834,49.612 31.171,49.612 Z" id="Stroke-4" stroke="#7a7a7a" stroke-width="3"></path>
		</g>
	</g>
</svg>