<svg xmlns="http://www.w3.org/2000/svg" width="18" height="18" viewBox="0 0 18 18">
	<circle style="fill: #3b9946;" cx="9" cy="9" r="9"/>
	<path style="fill: #fff; fill-rule: evenodd;" d="M198.293 17.289a2.561 2.561 0 0 0 4.353-1.751 2.227 2.227 0 0 0-1.775-2.291v-.047a2.08 2.08 0 0 0 1.068-1.871 2.019 2.019 0 0 0-2.1-2.087 2.345 2.345 0 0 0-1.7.636 3.545 3.545 0 0 0-.9 2.818v5.529a7.446 7.446 0 0 0 .18 2.039h.981a11.972 11.972 0 0 1-.132-2.171v-.8h.024zm-.036-4.713c0-1.655.516-2.495 1.487-2.495a1.258 1.258 0 0 1 1.223 1.4 1.438 1.438 0 0 1-1.367 1.535 1.182 1.182 0 0 1-.2.024v.72a2.918 2.918 0 0 1 .324 0 1.731 1.731 0 0 1 1.871 1.775 1.6 1.6 0 0 1-1.643 1.667 2.02 2.02 0 0 1-1.691-.959v-3.67z" transform="translate(-191 -5)"/>
</svg>