<svg xmlns="http://www.w3.org/2000/svg" xmlns:xlink="http://www.w3.org/1999/xlink"><symbol viewBox="0 0 41.343 29.46" id="arrow_right_symbol" xmlns="http://www.w3.org/2000/svg"><path d="M26.695 0l14.654 11.17-16.128 10.35.4-5.32C15.314 15.67 5.182 20.33.012 29.48 2.501 16.79 13.943 8.21 26.335 5.46z" fill="#3b9946" fill-rule="evenodd"/></symbol><symbol viewBox="0 0 54 54" id="discount" xmlns="http://www.w3.org/2000/svg"><path d="M53.1 29.175a4.727 4.727 0 00-.841 4.835 3.1 3.1 0 01-1.468 4.089 4.686 4.686 0 00-2.421 4.251 3.071 3.071 0 01-2.759 3.334 4.631 4.631 0 00-3.71 3.155 3.037 3.037 0 01-3.717 2.176 4.582 4.582 0 00-4.55 1.679 3.015 3.015 0 01-4.227.756 4.559 4.559 0 00-4.842 0 3.015 3.015 0 01-4.227-.756 4.583 4.583 0 00-4.551-1.679 3.037 3.037 0 01-3.716-2.176 4.632 4.632 0 00-3.71-3.155 3.071 3.071 0 01-2.759-3.334 4.686 4.686 0 00-2.421-4.251 3.1 3.1 0 01-1.468-4.089 4.727 4.727 0 00-.841-4.835 3.113 3.113 0 010-4.351 4.727 4.727 0 00.841-4.835A3.1 3.1 0 013.181 15.9a4.687 4.687 0 002.421-4.252 3.071 3.071 0 012.759-3.333 4.632 4.632 0 003.71-3.155 3.037 3.037 0 013.716-2.176 4.581 4.581 0 004.551-1.679 3.015 3.015 0 014.227-.756 4.559 4.559 0 004.842 0 3.015 3.015 0 014.227.756 4.58 4.58 0 004.55 1.679 3.037 3.037 0 013.717 2.176 4.631 4.631 0 003.71 3.155 3.071 3.071 0 012.759 3.333 4.687 4.687 0 002.421 4.252 3.1 3.1 0 011.468 4.089 4.727 4.727 0 00.841 4.835 3.113 3.113 0 010 4.351z" fill="#3b9946" fill-rule="evenodd"/></symbol><symbol viewBox="0 0 120 106.06" id="free_user_symbol" xmlns="http://www.w3.org/2000/svg"><path style="fill:#7a7c7f;fill-rule:evenodd" d="M850 1437a9 9 0 109 9 9.012 9.012 0 00-9-9zm0 14a5 5 0 115-5 5 5 0 01-5 5zm79-10a2 2 0 11-2 2 2 2 0 012-2zm-8 0a2 2 0 11-2 2 2 2 0 012-2zm12 6a2 2 0 11-2 2 2 2 0 012-2zm-8 0a2 2 0 11-2 2 2 2 0 012-2zm-12-6a2 2 0 11-2 2 2 2 0 012-2zm4 6a2 2 0 11-2 2 2 2 0 012-2zm-12-6a2 2 0 11-2 2 2 2 0 012-2zm4 6a2 2 0 11-2 2 2 2 0 012-2zm-12-6a2 2 0 11-2 2 2 2 0 012-2zm4 6a2 2 0 11-2 2 2 2 0 012-2zm-62.784 20h101.565a7.761 7.761 0 005.664-2 9.17 9.17 0 003.554-7.22v-23.56a9.224 9.224 0 00-9.216-9.22H838.216a9.224 9.224 0 00-9.215 9.22v23.56a9.172 9.172 0 003.553 7.22c1.973 1.26 2.786 2 5.662 2zm0-4a5.223 5.223 0 01-5.216-5.22v-23.56a5.223 5.223 0 015.216-5.22h101.565a5.223 5.223 0 015.218 5.22v23.56a5.223 5.223 0 01-5.216 5.22H838.216z" transform="translate(-829 -1360.94)"/><path style="fill:none;stroke:#7a7c7f;stroke-width:2px;fill-rule:evenodd" d="M831 1428s16.189-22.26 21.975-30.22a7.512 7.512 0 015.544-2.78h61.759a8.764 8.764 0 015.772 2.94C931.685 1406.03 947 1428 947 1428" transform="translate(-829 -1358.44)"/><path style="stroke:#f7fcff;stroke-linecap:round;stroke-linejoin:round;stroke-width:1px;fill:#7a7c7f;fill-rule:evenodd" d="M871.283 1373.49H856.71a2.266 2.266 0 00-2.244 2.28l.049 14.16a2.27 2.27 0 002.237 2.28h.009a2.248 2.248 0 001.725-.85l.884 13.78a2.3 2.3 0 002.315 2.16h4.615a2.314 2.314 0 002.313-2.17l.881-13.81a2.2 2.2 0 001.728.89h.008a2.29 2.29 0 002.24-2.29l.046-14.13a2.28 2.28 0 00-2.233-2.3zm-7.29-14.04a6.265 6.265 0 11-6.2 6.27 6.238 6.238 0 016.2-6.27z" transform="translate(-829 -1359.44)"/><path style="stroke:#f7fcff;stroke-linecap:round;stroke-linejoin:round;stroke-width:1px;fill:#7a7c7f;fill-rule:evenodd" d="M895.8 1373.49h-14.578a2.266 2.266 0 00-2.244 2.28l.049 14.16a2.27 2.27 0 002.237 2.28h.009a2.248 2.248 0 001.725-.85l.884 13.78a2.3 2.3 0 002.315 2.16h4.614a2.314 2.314 0 002.313-2.17l.881-13.81a2.2 2.2 0 001.728.89h.008a2.29 2.29 0 002.24-2.29l.046-14.13a2.28 2.28 0 00-2.227-2.3zm-7.29-14.04a6.265 6.265 0 11-6.2 6.27 6.238 6.238 0 016.195-6.27z" transform="translate(-829 -1359.44)"/><path style="stroke:#f7fcff;stroke-linecap:round;stroke-linejoin:round;stroke-width:1px;fill:#7a7c7f;fill-rule:evenodd" d="M920.307 1373.49h-14.573a2.267 2.267 0 00-2.244 2.28l.049 14.16a2.271 2.271 0 002.237 2.28h.009a2.248 2.248 0 001.725-.85l.884 13.78a2.3 2.3 0 002.315 2.16h4.614a2.314 2.314 0 002.313-2.17l.881-13.81a2.2 2.2 0 001.728.89h.008a2.29 2.29 0 002.24-2.29l.046-14.13a2.28 2.28 0 00-2.232-2.3zm-7.29-14.04a6.265 6.265 0 11-6.2 6.27 6.238 6.238 0 016.2-6.27z" transform="translate(-829 -1359.44)"/><path style="stroke:#f7fcff;stroke-linecap:round;stroke-linejoin:round;stroke-width:1px;fill:#7a7c7f;fill-rule:evenodd" d="M883.539 1381.73h-14.573a2.266 2.266 0 00-2.244 2.28l.049 14.16a2.27 2.27 0 002.237 2.28h.009a2.248 2.248 0 001.725-.85l.884 13.78a2.3 2.3 0 002.315 2.16h4.613a2.314 2.314 0 002.314-2.17l.881-13.81a2.2 2.2 0 001.728.89h.008a2.29 2.29 0 002.24-2.29l.046-14.13a2.28 2.28 0 00-2.232-2.3zm-7.29-14.04a6.265 6.265 0 11-6.2 6.27 6.238 6.238 0 016.2-6.27z" transform="translate(-829 -1359.44)"/><path style="stroke:#f7fcff;stroke-linecap:round;stroke-linejoin:round;stroke-width:1px;fill:#7a7c7f;fill-rule:evenodd" d="M908.051 1381.73h-14.573a2.266 2.266 0 00-2.244 2.28l.049 14.16a2.271 2.271 0 002.237 2.28h.009a2.248 2.248 0 001.725-.85l.884 13.78a2.3 2.3 0 002.315 2.16h4.614a2.314 2.314 0 002.313-2.17l.881-13.81a2.2 2.2 0 001.728.89H908a2.29 2.29 0 002.24-2.29l.046-14.13a2.28 2.28 0 00-2.235-2.3zm-7.29-14.04a6.265 6.265 0 11-6.2 6.27 6.238 6.238 0 016.2-6.27z" transform="translate(-829 -1359.44)"/><path style="stroke:#f7fcff;stroke-linecap:round;stroke-linejoin:round;stroke-width:1px;fill:#7a7c7f;fill-rule:evenodd" d="M895.8 1388.75l-14.566-.01h-.007a2.274 2.274 0 00-2.244 2.29l.049 14.16a2.27 2.27 0 002.237 2.28h.009a2.227 2.227 0 001.725-.86l.884 13.78a2.3 2.3 0 002.315 2.16h4.614a2.314 2.314 0 002.313-2.17l.881-13.81a2.181 2.181 0 001.728.9h.008a2.3 2.3 0 002.24-2.29l.046-14.14a2.271 2.271 0 00-2.232-2.29zm-7.29-14.04a6.26 6.26 0 11-6.2 6.26 6.23 6.23 0 016.195-6.26z" transform="translate(-829 -1359.44)"/></symbol><symbol viewBox="0 0 138.844 199.13" id="locations_symbol"><path d="M132.293 105.68c12.418-28.14 6.833-64.521-13.808-85.256a69.177 69.177 0 00-98.157 0C-3.932 44.796-6.947 90.65 13.799 118.43l55.608 80.69 16.884-24.5s24.168-34.33 38.679-56.25c3.377-5.1 5.285-9.53 7.323-12.69zm-49.31 60.96l-13.576 19.7-49.734-72.16C.853 88.97 3.553 47.563 25.45 25.566a61.958 61.958 0 0187.917 0c19.016 19.106 23.74 54.594 10.945 80.074-1.592 2.38-2.847 5.76-5.542 9.8-9.432 14.11-25.244 36.18-35.787 51.2zm12.4-97.55a25.336 25.336 0 10-25.336 25.46 25.426 25.426 0 0025.336-25.46zM70.047 87.27a18.181 18.181 0 1118.1-18.18 18.155 18.155 0 01-18.1 18.18z" fill="#1c304e" fill-rule="evenodd"/></symbol><symbol viewBox="0 0 120 113.5" id="premium_user_symbol" xmlns="http://www.w3.org/2000/svg"><path style="fill:none;stroke:#3b9946;stroke-width:2px;fill-rule:evenodd" d="M971 1428s16.189-22.26 21.975-30.22a7.512 7.512 0 015.544-2.78h61.761a8.753 8.753 0 015.77 2.94c5.64 8.09 20.95 30.06 20.95 30.06" transform="translate(-969 -1351)"/><path style="fill-rule:evenodd;fill:#3b9946" d="M990 1437a9 9 0 109 9 9.012 9.012 0 00-9-9zm0 14a5 5 0 115-5 5 5 0 01-5 5zm79-10a2 2 0 11-2 2 2.006 2.006 0 012-2zm-8 0a2 2 0 11-2 2 2.006 2.006 0 012-2zm12 6a2 2 0 11-2 2 2.006 2.006 0 012-2zm-8 0a2 2 0 11-2 2 2.006 2.006 0 012-2zm-12-6a2 2 0 11-2 2 2.006 2.006 0 012-2zm4 6a2 2 0 11-2 2 2.006 2.006 0 012-2zm-12-6a2 2 0 11-2 2 2.006 2.006 0 012-2zm4 6a2 2 0 11-2 2 2.006 2.006 0 012-2zm-12-6a2 2 0 11-2 2 2.006 2.006 0 012-2zm4 6a2 2 0 11-2 2 2.006 2.006 0 012-2zm-62.784 20h101.564a7.784 7.784 0 005.67-2 9.19 9.19 0 003.55-7.22v-23.56a9.223 9.223 0 00-9.22-9.22H978.216a9.224 9.224 0 00-9.215 9.22v23.56a9.172 9.172 0 003.553 7.22c1.973 1.26 2.786 2 5.662 2zm0-4a5.222 5.222 0 01-5.215-5.22v-23.56a5.222 5.222 0 015.215-5.22h101.564a5.224 5.224 0 015.22 5.22v23.56a5.224 5.224 0 01-5.22 5.22H978.216z" transform="translate(-969 -1353.5)"/><path style="stroke:#f7fcff;stroke-linecap:round;stroke-linejoin:round;stroke-width:1px;fill-rule:evenodd;fill:#3b9946" d="M1035.79 1378.75l-14.56-.01h-.01a2.266 2.266 0 00-2.24 2.29l.05 14.16a2.262 2.262 0 002.23 2.28h.01a2.233 2.233 0 001.73-.86l.88 13.78a2.3 2.3 0 002.32 2.16h4.61a2.311 2.311 0 002.31-2.17l.88-13.81a2.183 2.183 0 001.73.9h.01a2.3 2.3 0 002.24-2.29l.05-14.14a2.279 2.279 0 00-2.24-2.29zm-7.28-14.04a6.26 6.26 0 11-6.21 6.26 6.231 6.231 0 016.21-6.26z" transform="translate(-969 -1351)"/><path style="stroke:#fff;stroke-linecap:round;stroke-linejoin:round;stroke-width:.5px;fill-rule:evenodd;fill:#3b9946" d="M1035.76 1353.7a1.3 1.3 0 00-1.22 1.36 1.392 1.392 0 00.58 1.15 7.091 7.091 0 01-2.86 2.8c-1.41.5-2.73-2.56-3.37-4.38a1.341 1.341 0 00.83-1.27 1.236 1.236 0 10-2.46 0 1.335 1.335 0 00.84 1.27c-.65 1.82-1.97 4.88-3.38 4.38a7.071 7.071 0 01-2.85-2.8 1.419 1.419 0 00.58-1.15 1.235 1.235 0 10-1.23 1.35h.04l1.65 7.79h11.16l1.66-7.79h.03a1.361 1.361 0 000-2.71zm-12.79 10.78h11.04v1.52h-11.04v-1.52z" transform="translate(-969 -1351)"/></symbol><symbol viewBox="0 0 200 196" id="servers_symbol" xmlns="http://www.w3.org/2000/svg"><path d="M35 20a15 15 0 1015 15 15.018 15.018 0 00-15-15zm0 23.334A8.334 8.334 0 1143.334 35 8.343 8.343 0 0135 43.334zm131.669-16.667a3.334 3.334 0 11-3.34 3.333 3.331 3.331 0 013.341-3.333zm-13.34 0A3.334 3.334 0 11150 30a3.339 3.339 0 013.33-3.333zm20 10A3.334 3.334 0 11170 40a3.339 3.339 0 013.33-3.333zm-13.33 0a3.334 3.334 0 11-3.33 3.333A3.331 3.331 0 01160 36.667zm-20-10A3.334 3.334 0 11136.666 30 3.331 3.331 0 01140 26.667zm6.67 10a3.334 3.334 0 11-3.34 3.333 3.331 3.331 0 013.341-3.333zm-20-10A3.334 3.334 0 11123.333 30a3.334 3.334 0 013.333-3.333zm6.667 10A3.334 3.334 0 11130 40a3.333 3.333 0 013.333-3.333zm-20-10A3.334 3.334 0 11110 30a3.333 3.333 0 013.333-3.333zm6.667 10A3.334 3.334 0 11116.666 40 3.333 3.333 0 01120 36.667zM15.361 70H184.64a12.981 12.981 0 009.44-3.33A15.289 15.289 0 00200 54.64V15.36A15.377 15.377 0 00184.64 0H15.361A15.377 15.377 0 000 15.36v39.277A15.293 15.293 0 005.923 66.67c3.289 2.1 4.645 3.33 9.438 3.33zm0-6.67a8.7 8.7 0 01-8.693-8.69V15.36a8.7 8.7 0 018.693-8.693H184.64a8.7 8.7 0 018.69 8.693v39.277a8.7 8.7 0 01-8.69 8.693H15.361zM35 83a15 15 0 1015 15 15.018 15.018 0 00-15-15zm0 23.33A8.33 8.33 0 1143.333 98 8.338 8.338 0 0135 106.33zm131.669-16.66a3.33 3.33 0 11-3.34 3.33 3.329 3.329 0 013.341-3.33zm-13.34 0A3.33 3.33 0 11150 93a3.337 3.337 0 013.33-3.33zm20 10A3.33 3.33 0 11170 103a3.337 3.337 0 013.33-3.33zm-13.33 0a3.33 3.33 0 11-3.33 3.33A3.329 3.329 0 01160 99.67zm-20-10a3.33 3.33 0 11-3.334 3.33A3.329 3.329 0 01140 89.67zm6.67 10a3.33 3.33 0 11-3.34 3.33 3.329 3.329 0 013.341-3.33zm-20-10a3.33 3.33 0 11-3.333 3.33 3.332 3.332 0 013.33-3.33zm6.667 10A3.33 3.33 0 11130 103a3.331 3.331 0 013.333-3.33zm-20-10A3.33 3.33 0 11110 93a3.331 3.331 0 013.333-3.33zm6.667 10a3.33 3.33 0 11-3.334 3.33A3.331 3.331 0 01120 99.67zM15.361 133H184.64a12.981 12.981 0 009.44-3.33 15.293 15.293 0 005.92-12.03V78.36A15.377 15.377 0 00184.64 63H15.361A15.377 15.377 0 000 78.36v39.28a15.3 15.3 0 005.923 12.03c3.289 2.1 4.645 3.33 9.438 3.33zm0-6.67a8.7 8.7 0 01-8.693-8.69V78.36a8.7 8.7 0 018.693-8.69H184.64a8.7 8.7 0 018.69 8.69v39.28a8.7 8.7 0 01-8.69 8.69H15.361zM35 146a15 15 0 1015 15 15.018 15.018 0 00-15-15zm0 23.33a8.33 8.33 0 118.333-8.33A8.338 8.338 0 0135 169.33zm131.669-16.66a3.33 3.33 0 11-3.34 3.33 3.329 3.329 0 013.341-3.33zm-13.34 0A3.33 3.33 0 11150 156a3.337 3.337 0 013.33-3.33zm20 10A3.33 3.33 0 11170 166a3.337 3.337 0 013.33-3.33zm-13.33 0a3.33 3.33 0 11-3.33 3.33 3.329 3.329 0 013.331-3.33zm-20-10a3.33 3.33 0 11-3.334 3.33 3.329 3.329 0 013.335-3.33zm6.67 10a3.33 3.33 0 11-3.34 3.33 3.329 3.329 0 013.341-3.33zm-20-10a3.33 3.33 0 11-3.333 3.33 3.332 3.332 0 013.33-3.33zm6.667 10A3.33 3.33 0 11130 166a3.331 3.331 0 013.333-3.33zm-20-10A3.33 3.33 0 11110 156a3.331 3.331 0 013.333-3.33zm6.667 10a3.33 3.33 0 11-3.334 3.33 3.331 3.331 0 013.331-3.33zM15.361 196H184.64a12.981 12.981 0 009.44-3.33 15.293 15.293 0 005.92-12.03v-39.28A15.377 15.377 0 00184.64 126H15.361A15.377 15.377 0 000 141.36v39.28a15.3 15.3 0 005.923 12.03c3.289 2.1 4.645 3.33 9.438 3.33zm0-6.67a8.7 8.7 0 01-8.693-8.69v-39.28a8.7 8.7 0 018.693-8.69H184.64a8.7 8.7 0 018.69 8.69v39.28a8.7 8.7 0 01-8.69 8.69H15.361z" fill="#1c304e"/></symbol><symbol viewBox="0 0 199 200" id="speed_symbol" xmlns="http://www.w3.org/2000/svg"><path d="M196.771 3.321a9.7 9.7 0 00-9.422-3.135c-.69.117-16.971 2.847-29.109 9.045l-3.622 1.856a9.768 9.768 0 00-3.434 3.721 3.5 3.5 0 00-3.182.216c-24.869 15.271-39.375 30.65-39.966 31.3a125.8 125.8 0 00-11.422 14.628l-3.38 5.24-31.53-1.65c-5.773-.36-13.824 2.73-18.019 6.94l-40.307 40.32c-1.838 1.83-4.9 4.9-2.546 7.88 2.376 3 6.024.66 8.212-.72l7.378-4.66a59.186 59.186 0 0115.671-6.44 14.553 14.553 0 0111.771 3.41l11.771 11.78-3.613 5.44c-1.542 2.33-6.293 10.24-2.483 14.12l6.876 6.97a5.32 5.32 0 003.927 1.48c3.864 0 8.454-2.78 10.13-3.9l5.361-3.56 12.309 12.34c2.627 2.63 4.2 8.12 3.228 12.23a60.2 60.2 0 01-6.384 15.26l-4.715 7.45c-1.39 2.19-3.712 5.86-.753 8.25a3.6 3.6 0 002.3.87c2.16 0 4.187-2.03 5.54-3.39l40.307-40.34c4.187-4.2 7.262-12.14 7-18.07l-1.453-32.84 4.268-2.9a168.577 168.577 0 0014.5-11.33c.664-.59 16.388-14.79 31.772-39.79a3.543 3.543 0 00.269-3.1 10.444 10.444 0 003.774-3.766l1.758-3.423c6.275-12.217 9.126-28.631 9.242-29.325a10.192 10.192 0 00-2.024-8.407zM48.92 106.16c-4.348-4.35-12.425-6.67-18.871-5.23a57.68 57.68 0 00-8.409 2.76l27.092-27.11c2.788-2.79 8.786-5.09 12.6-4.85l27.388 1.44-1.21 1.87v.01L59.7 116.93zm78.579 32.38a19.886 19.886 0 01-4.9 12.65l-27.075 27.1a63 63 0 002.941-8.93c1.4-6.02-.914-14.14-5.263-18.51l-11.26-11.29 43.526-28.87c.035-.02.053-.07.1-.1l.682-.46zm19.714-52.77a159.171 159.171 0 01-13.744 10.75l-13.268 9.04a.01.01 0 01-.009.01l-53.664 35.58a17.9 17.9 0 01-5.711 2.65l-5.487-5.57a18.126 18.126 0 012.672-5.75L93.5 79a.021.021 0 01.009-.02l.018-.02 9.091-14.08a119.006 119.006 0 0110.632-13.612c.135-.162 13.815-14.549 36.658-28.919a13.369 13.369 0 002.17 5.2 99.476 99.476 0 0019.257 19.6 12.723 12.723 0 005.226 2.126C162.1 72.23 147.356 85.63 147.213 85.77zm44.52-75.223c-.027.162-2.788 16.009-8.553 27.226l-1.658 3.234a3.069 3.069 0 01-2.743 1.423 5.678 5.678 0 01-3.264-1.144 83.912 83.912 0 01-9.386-8.342 85.376 85.376 0 01-8.185-9.55 5.418 5.418 0 01-1.022-4.171 2.778 2.778 0 011.147-1.838l3.416-1.748c11.135-5.676 26.868-8.333 27.845-8.433a2.532 2.532 0 011.946.739 3.2 3.2 0 01.457 2.604zM34.424 143.83c-2.179 0-6.195.3-8.643 2.34-11.555 9.62-23.282 40.22-23.766 41.52-1.524 4-.654 6.58.341 8.04a6.488 6.488 0 005.567 2.75 11.26 11.26 0 003.891-.76c6.912-2.5 41.508-15.71 43.731-29.48 1.2-8.87-1.676-14.34-4.3-17.37-3.845-4.41-10.133-7.04-16.821-7.04zm14.012 23.34c-1.13 7.02-23.533 18.13-39.07 23.78a6.819 6.819 0 01-.95.26 7.244 7.244 0 01.287-.95c3.174-8.35 13.259-31.54 21.624-38.51a9.145 9.145 0 014.1-.7c1.739 0 7.719.32 11.4 4.57 2.403 2.76 3.273 6.67 2.609 11.55zm70.878-92.61l-26.3 26.42a3.625 3.625 0 000 5.1 3.59 3.59 0 005.074 0l26.295-26.42a3.625 3.625 0 000-5.1 3.572 3.572 0 00-5.069 0z" fill="#1c304e" fill-rule="evenodd"/></symbol><symbol viewBox="0 0 90 90.53" id="star_symbol" xmlns="http://www.w3.org/2000/svg"><path d="M5.15 66.25a45.049 45.049 0 1044-65.94c-3.558-.62-2.631-.17-7.633-.04-1.347.11-2.669.28-3.981.5-.166.03-.332.05-.5.08-1.08.19-2.136.44-3.188.71-.44.11-.883.21-1.316.34-.765.22-1.516.47-2.264.73-.73.25-1.457.51-2.17.8-.45.19-.9.38-1.34.58-1 .45-1.984.92-2.946 1.43-.17.09-.333.18-.5.28A44.843 44.843 0 00.934 36.12c-.007.04-.017.07-.024.11a45.3 45.3 0 00-.606 3.97c-.021.19-.059.36-.08.55-.148 1.5-.232 3.02-.232 4.56a44.449 44.449 0 00.387 5.64c.09.69.194 1.39.319 2.09.124.73.252 1.45.415 2.17.045.2.1.4.152.6.226.94.44 1.89.721 2.81" fill="#3b9946" fill-rule="evenodd"/><path d="M70.866 38.69a1.993 1.993 0 00-1.629-1.37l-15.562-2.19-6.948-13.58a2.079 2.079 0 00-3.56 0L36.22 35.13l-15.563 2.19a1.987 1.987 0 00-1.628 1.37 2.009 2.009 0 00.538 2.07l11.216 10.55-2.644 14.89a2 2 0 00.777 1.95 1.973 1.973 0 002.1.18l13.931-7.07 13.935 7.07a1.932 1.932 0 00.9.22 1.951 1.951 0 001.194-.4 2 2 0 00.777-1.96l-2.644-14.88 11.216-10.55a2.016 2.016 0 00.541-2.07z" fill="#fff" fill-rule="evenodd"/></symbol><view id="locations" width="100" height="143.42" viewBox="0 0 100 143.42"/><view id="star" width="100" height="100" viewBox="200 0 100 100"/><view id="speed" width="99.5" height="100" viewBox="400 0 99.5 100"/><view id="servers" width="100" height="98" viewBox="600 0 100 98"/><view id="arrow_right" width="100" height="71.3" viewBox="800 0 100 71.3"/><view id="free_user" width="120" height="106.06" viewBox="1000 0 120 106.06"/><view id="premium_user" width="120" height="113.5" viewBox="1200 0 120 113.5"/><use xlink:href="#locations_symbol" width="100" height="143.42" x="0" y="0"/><use xlink:href="#star_symbol" width="100" height="100" x="200" y="0"/><use xlink:href="#speed_symbol" width="99.5" height="100" x="400" y="0"/><use xlink:href="#servers_symbol" width="100" height="98" x="600" y="0"/><use xlink:href="#arrow_right_symbol" width="100" height="71.3" x="800" y="0"/><use xlink:href="#free_user_symbol" width="120" height="106.06" x="1000" y="0"/><use xlink:href="#premium_user_symbol" width="120" height="113.5" x="1200" y="0"/></svg>
