<svg xmlns="http://www.w3.org/2000/svg" xmlns:xlink="http://www.w3.org/1999/xlink"><defs><style>use#use_green{fill:#3b9946}use#use_red{fill:#dd2b36}</style></defs><symbol viewBox="0 0 54 54" id="symbol_discount"><path style="fill:inherit;fill-rule:evenodd" d="M353.1 484.175a4.727 4.727 0 00-.841 4.835 3.1 3.1 0 01-1.468 4.089 4.686 4.686 0 00-2.421 4.251 3.071 3.071 0 01-2.759 3.334 4.631 4.631 0 00-3.71 3.155 3.037 3.037 0 01-3.717 2.176 4.582 4.582 0 00-4.55 1.679 3.015 3.015 0 01-4.227.756 4.559 4.559 0 00-4.842 0 3.015 3.015 0 01-4.227-.756 4.583 4.583 0 00-4.551-1.679 3.037 3.037 0 01-3.716-2.176 4.632 4.632 0 00-3.71-3.155 3.071 3.071 0 01-2.759-3.334 4.686 4.686 0 00-2.421-4.251 3.1 3.1 0 01-1.468-4.089 4.727 4.727 0 00-.841-4.835 3.113 3.113 0 010-4.351 4.727 4.727 0 00.841-4.835 3.1 3.1 0 011.468-4.089 4.687 4.687 0 002.421-4.252 3.071 3.071 0 012.759-3.333 4.632 4.632 0 003.71-3.155 3.037 3.037 0 013.716-2.176 4.581 4.581 0 004.551-1.679 3.015 3.015 0 014.227-.756 4.559 4.559 0 004.842 0 3.015 3.015 0 014.227.756 4.58 4.58 0 004.55 1.679 3.037 3.037 0 013.717 2.176 4.631 4.631 0 003.71 3.155 3.071 3.071 0 012.759 3.333 4.687 4.687 0 002.421 4.252 3.1 3.1 0 011.468 4.089 4.727 4.727 0 00.841 4.835 3.113 3.113 0 010 4.351z" transform="translate(-300 -455)"/></symbol><use id="use_green" xlink:href="#symbol_discount" width="54" height="54" x="0" y="0"/><use id="use_red" xlink:href="#symbol_discount" width="54" height="54" x="100" y="0"/><view id="green" width="54" height="54" viewBox="0 0 54 54"/><view id="red" width="54" height="54" viewBox="100 0 54 54"/></svg>