<svg width="54" height="54" viewBox="0 0 54 54" fill="none" xmlns="http://www.w3.org/2000/svg">
	<path fill-rule="evenodd" clip-rule="evenodd" d="M52.2715 28.9969C51.5936 29.6798 51.1321 30.5473 50.9448 31.4911C50.7575 32.4348 50.8526 33.4128 51.2184 34.3028C51.4159 34.7002 51.5258 35.1354 51.5408 35.579C51.5557 36.0225 51.4753 36.4641 51.3049 36.8739C51.1346 37.2837 50.8783 37.6521 50.5533 37.9544C50.2283 38.2567 49.8421 38.4859 49.421 38.6263C48.5338 38.9967 47.7757 39.6204 47.2412 40.4193C46.7068 41.2182 46.4198 42.1569 46.4162 43.1181C46.4487 43.5596 46.3855 44.003 46.2311 44.4179C46.0768 44.8329 45.8348 45.2096 45.5217 45.5226C45.2085 45.8357 44.8317 46.0776 44.4166 46.2319C44.0015 46.3862 43.558 46.4492 43.1163 46.4168C42.1535 46.4222 41.2137 46.7115 40.4145 47.2483C39.6152 47.7851 38.9921 48.5457 38.6231 49.4348C38.4818 49.8534 38.2525 50.2369 37.9507 50.5595C37.6488 50.8822 37.2812 51.1365 36.8729 51.3054C36.4645 51.4743 36.0247 51.5538 35.583 51.5386C35.1414 51.5234 34.708 51.414 34.3122 51.2175C33.4222 50.8504 32.4437 50.7545 31.4993 50.9418C30.5549 51.1291 29.687 51.5913 29.0046 52.2703C28.7135 52.6041 28.3541 52.8717 27.9508 53.0551C27.5476 53.2384 27.1097 53.3333 26.6667 53.3333C26.2236 53.3333 25.7858 53.2384 25.3825 53.0551C24.9792 52.8717 24.6198 52.6041 24.3287 52.2703C23.6455 51.5926 22.7777 51.1313 21.8337 50.944C20.8897 50.7568 19.9114 50.8519 19.0211 51.2175C18.6253 51.414 18.192 51.5234 17.7503 51.5386C17.3086 51.5538 16.8688 51.4743 16.4605 51.3054C16.0521 51.1365 15.6845 50.8822 15.3827 50.5595C15.0808 50.2369 14.8515 49.8534 14.7102 49.4348C14.3382 48.545 13.7123 47.7845 12.9108 47.2478C12.1093 46.7111 11.1676 46.422 10.2029 46.4168C9.76157 46.448 9.31856 46.3842 8.90403 46.2295C8.4895 46.0747 8.11306 45.8329 7.80018 45.5201C7.48729 45.2073 7.24532 44.831 7.09055 44.4166C6.93579 44.0022 6.87193 43.5593 6.90321 43.1181C6.90238 42.1563 6.61647 41.2164 6.08166 40.4169C5.54685 39.6174 4.78709 38.9944 3.89829 38.6263C3.47782 38.4852 3.09253 38.2555 2.76855 37.9527C2.44457 37.6499 2.18944 37.281 2.02036 36.8711C1.85129 36.4612 1.7723 36.0198 1.78862 35.5767C1.80495 35.1337 1.9162 34.6991 2.11498 34.3028C2.48069 33.4128 2.57585 32.4348 2.38854 31.4911C2.20123 30.5473 1.73976 29.6798 1.06186 28.9969C0.728452 28.707 0.461038 28.349 0.277849 27.947C0.0946602 27.545 0 27.1084 0 26.6667C0 26.2249 0.0946602 25.7883 0.277849 25.3863C0.461038 24.9844 0.728452 24.6263 1.06186 24.3365C1.73976 23.6535 2.20123 22.786 2.38854 21.8423C2.57585 20.8985 2.48069 19.9206 2.11498 19.0306C1.9162 18.6342 1.80495 18.1997 1.78862 17.7566C1.7723 17.3135 1.85129 16.8721 2.02036 16.4622C2.18944 16.0523 2.44457 15.6834 2.76855 15.3806C3.09253 15.0778 3.47782 14.8482 3.89829 14.7071C4.786 14.3374 5.54468 13.714 6.07926 12.9149C6.61384 12.1158 6.90053 11.1766 6.90321 10.2153C6.87193 9.77403 6.93579 9.33116 7.09055 8.91676C7.24532 8.50236 7.48729 8.12604 7.80018 7.81326C8.11306 7.50048 8.4895 7.25859 8.90403 7.10387C9.31856 6.94915 9.76157 6.88532 10.2029 6.91658C11.1676 6.9113 12.1093 6.6222 12.9108 6.08553C13.7123 5.54886 14.3382 4.78833 14.7102 3.89858C14.8515 3.47997 15.0808 3.09649 15.3827 2.77383C15.6845 2.45117 16.0521 2.19682 16.4605 2.02794C16.8688 1.85906 17.3086 1.77956 17.7503 1.79473C18.192 1.8099 18.6253 1.91935 19.0211 2.11584C19.9114 2.48144 20.8897 2.57657 21.8337 2.38932C22.7777 2.20207 23.6455 1.74075 24.3287 1.06306C24.6198 0.729242 24.9792 0.461637 25.3825 0.278274C25.7858 0.094911 26.2236 0 26.6667 0C27.1097 0 27.5476 0.094911 27.9508 0.278274C28.3541 0.461637 28.7135 0.729242 29.0046 1.06306C29.687 1.74202 30.5549 2.20423 31.4993 2.39155C32.4437 2.57886 33.4222 2.48292 34.3122 2.11584C34.708 1.91935 35.1414 1.8099 35.583 1.79473C36.0247 1.77956 36.4645 1.85906 36.8729 2.02794C37.2812 2.19682 37.6488 2.45117 37.9507 2.77383C38.2525 3.09649 38.4818 3.47997 38.6231 3.89858C38.9921 4.78766 39.6152 5.5482 40.4145 6.08502C41.2137 6.62183 42.1535 6.9111 43.1163 6.91658C43.558 6.88413 44.0015 6.94717 44.4166 7.10147C44.8317 7.25577 45.2085 7.49766 45.5217 7.81069C45.8348 8.12373 46.0768 8.50045 46.2311 8.91539C46.3855 9.33033 46.4487 9.77375 46.4162 10.2153C46.4218 11.1759 46.7096 12.1138 47.2438 12.9123C47.778 13.7109 48.535 14.335 49.421 14.7071C49.8421 14.8474 50.2283 15.0766 50.5533 15.3789C50.8783 15.6812 51.1346 16.0497 51.3049 16.4595C51.4753 16.8693 51.5557 17.3108 51.5408 17.7544C51.5258 18.1979 51.4159 18.6332 51.2184 19.0306C50.8526 19.9206 50.7575 20.8985 50.9448 21.8423C51.1321 22.786 51.5936 23.6535 52.2715 24.3365C52.6049 24.6263 52.8723 24.9844 53.0555 25.3863C53.2387 25.7883 53.3333 26.2249 53.3333 26.6667C53.3333 27.1084 53.2387 27.545 53.0555 27.947C52.8723 28.349 52.6049 28.707 52.2715 28.9969Z" fill="#28344F"/>
</svg>
