<?xml version="1.0" encoding="UTF-8"?>
<svg width="84px" height="82px" viewBox="0 0 84 82" version="1.1" xmlns="http://www.w3.org/2000/svg" xmlns:xlink="http://www.w3.org/1999/xlink">
    <title>surprise</title>
    <desc>Created with Sketch.</desc>
    <defs></defs>
    <g id="EXP-178" stroke="none" stroke-width="1" fill="none" fill-rule="evenodd">
        <g id="surprise">
            <path d="M70.8740156,11.0612143 C73.5943359,11.0612143 75.7993359,8.87536111 75.7993359,6.18335317 C75.7993359,3.48662698 73.5943359,1.30077381 70.8740156,1.30077381 C68.1536953,1.30077381 65.9486953,3.48662698 65.9486953,6.18335317 C65.9486953,8.87552381 68.1536953,11.0612143 70.8740156,11.0612143 Z" id="Shape" fill="#FE76A8"></path>
            <path d="M25.4772656,44.5531706 L19.7501719,35.8383929 C0.2113125,20.660746 -7.69682813,48.8537778 15.2210625,46.1568889 L25.4772656,44.5531706 Z" id="Shape" fill="#FE76A8"></path>
            <path d="M33.8818594,35.8431111 C48.2425781,17.9404286 19.8981563,9.78386905 22.6471875,34.2392302 L27.4245234,42.4005079 L33.8818594,35.8431111 Z" id="Shape" fill="#FE76A8"></path>
            <path d="M17.8508203,44.6997619 L25.88775,43.1858532 L31.1041172,37.3760556 L29.428875,34.4001389 C29.113875,33.8372024 28.6605703,33.4018214 28.1355703,33.1037579 C27.1237969,32.5312222 25.83525,32.4793214 24.7470234,33.0801667 L22.6470234,34.2392302 L19.7500078,35.8383929 L17.5069453,37.0827103 C16.4664609,37.655246 15.8461406,38.6913095 15.7554141,39.788873 C15.6981562,40.4370635 15.8317031,41.1088452 16.1754141,41.719127 L17.8508203,44.6997619 Z" id="Shape" fill="#FECE85"></path>
            <path d="M35.9483906,45.9914246 L50.0083828,38.2229008 C51.1681406,37.5794286 51.5881406,36.1175833 50.9438672,34.9677937 L48.4476563,30.5300317 C47.798625,29.3804048 46.3238672,28.9640595 45.1641094,29.6075317 L33.8816953,35.8431111 L31.1041172,37.3760556 L31.1041172,43.1858532 L35.9483906,45.9914246 Z" id="Shape" fill="#01D0FB"></path>
            <path d="M36.3444375,80.6990635 L39.8809687,64.8118889 L36.3444375,49.7668413 L29.1187969,49.7668413 L20.2751719,49.0098056 L18.5046094,55.6334206 L18.5046094,77.5859921 C18.5046094,79.2987183 19.9173516,80.6990635 21.6449297,80.6990635 L36.3444375,80.6990635 Z" id="Shape" fill="#99E6FC"></path>
            <path d="M8.6349375,61.0885357 L22.6949297,53.3152937 L23.0958984,47.505496 L17.8508203,44.6999246 L15.2210625,46.1570516 L3.78590625,52.4731667 C2.63090625,53.1119206 2.21090625,54.5737659 2.85517969,55.7233929 L5.35139063,60.165873 C5.99566406,61.3107817 7.47517969,61.727127 8.6349375,61.0885357 L8.6349375,61.0885357 Z" id="Shape" fill="#01D0FB"></path>
            <path d="M65.9344219,77.5859921 L65.9344219,57.3272738 L65.9344219,51.507877 C65.9344219,50.5521865 65.1421641,49.7668413 64.1781328,49.7668413 L48.0945938,49.7668413 L43.89,65.2376706 L48.0945938,80.6990635 L62.7941016,80.6990635 C64.5216797,80.6990635 65.9344219,79.2987183 65.9344219,77.5859921 Z" id="Shape" fill="#99E6FC"></path>
            <path d="M33.8818594,35.8431111 C43.7372578,23.5562897 33.4761328,15.8587024 26.9617031,20.1451548 C32.3308125,20.4432183 36.9793594,26.8208333 30.3215391,35.9898651 L31.1042812,37.3760556 L33.8818594,35.8431111 Z" id="Shape" fill="#FE5694"></path>
            <path d="M19.7501719,35.8382302 C8.60146875,27.1802341 1.24228125,32.6353492 1.22784375,38.4215556 C3.54735938,35.0907937 8.95945313,33.5059484 16.2948516,38.2085833 C16.5908203,37.7543294 16.9963828,37.3617381 17.5071094,37.0825476 L19.7501719,35.8382302 Z" id="Shape" fill="#FE5694"></path>
            <path d="M30.3215391,35.9897024 L29.4290391,34.3999762 C29.1140391,33.8370397 28.6607344,33.4016587 28.1357344,33.1035952 C27.1239609,32.5310595 25.8354141,32.4791587 24.7471875,33.080004 L22.6471875,34.2390675 L20.6521875,35.3413492 C21.74025,34.740504 23.0242031,34.7925675 24.0407344,35.3649405 C24.5657344,35.663004 25.0190391,36.1029405 25.3340391,36.6613214 L27.0092813,39.6419563 L31.1041172,37.3757302 L30.3215391,35.9897024 Z" id="Shape" fill="#FDB440"></path>
            <path d="M50.0083828,38.2227381 C51.1681406,37.5792659 51.5881406,36.1174206 50.9438672,34.967631 L48.4476563,30.5300317 C47.798625,29.3804048 46.3238672,28.9640595 45.1641094,29.6075317 L39.5229844,32.7253214 C40.6827422,32.0818492 42.1575,32.4981944 42.8017734,33.6478214 L45.2978203,38.0855833 C45.9420937,39.2352103 45.5268516,40.6925 44.3767734,41.3358095 L50.0083828,38.2227381 Z" id="Shape" fill="#00B1CD"></path>
            <path d="M35.9483906,45.9914246 L31.1042813,37.3760556 L17.8508203,44.6999246 L22.6949297,53.3152937 C27.1190391,50.869123 31.5241172,48.4374325 35.9483906,45.9914246 L35.9483906,45.9914246 Z" id="Shape" fill="#FE5694"></path>
            <polygon id="Shape" fill="#FE76A8" points="36.3444375 49.7668413 48.0944297 49.7668413 48.0944297 80.6990635 36.3444375 80.6990635"></polygon>
            <path d="M65.9344219,57.3272738 L65.9344219,51.507877 C65.9344219,50.5521865 65.1421641,49.7668413 64.1781328,49.7668413 L57.0907969,49.7668413 C58.0548281,49.7668413 58.8470859,50.5521865 58.8470859,51.507877 L58.8470859,57.3272738 L58.8470859,77.5859921 C58.8470859,79.2987183 57.4295859,80.6990635 55.7020078,80.6990635 L62.7941016,80.6990635 C64.5218438,80.6990635 65.9344219,79.2987183 65.9344219,77.5859921 L65.9344219,57.3272738 Z" id="Shape" fill="#2ED1E2"></path>
            <path d="M55.9549922,11.9318135 L58.3699922,9.04586905 C58.8662813,8.48765079 58.8329766,8.32202381 58.1027344,8.14224206 L54.3514453,7.21974206 C53.9266875,7.11561508 53.9028984,7.00205159 53.6928984,6.66152381 L51.7981406,3.52469841 C51.4163672,2.88594444 51.1824141,2.88594444 50.7958828,3.52469841 L48.901125,6.66152381 C48.6958828,7.00221429 48.6673359,7.11577778 48.2425781,7.21974206 L44.4912891,8.14224206 C43.7658047,8.32202381 43.7277422,8.48765079 44.2240313,9.04586905 L46.6437891,11.9318135 C46.9015313,12.2393135 46.9397578,12.598877 46.9062891,13.0342579 L46.6150781,16.6015833 C46.5338672,17.3395833 46.6913672,17.4295556 47.3883047,17.1503651 L50.686125,15.7877659 C51.0296719,15.6458929 51.5691094,15.6458929 51.9078984,15.7877659 L55.2104766,17.1503651 C55.90725,17.4295556 56.0599922,17.3395833 55.9787813,16.6015833 L55.6924922,13.0342579 C55.6590234,12.598877 55.6924922,12.2393135 55.9549922,11.9318135 L55.9549922,11.9318135 Z" id="Shape" fill="#FECE85"></path>
            <path d="M51.4353984,8.95589683 C50.9438672,12.0784048 49.898625,14.7988849 48.6338672,16.6346111 L50.686125,15.7877659 C51.0296719,15.6458929 51.5691094,15.6458929 51.9078984,15.7877659 L55.2104766,17.1503651 C55.90725,17.4295556 56.0599922,17.3395833 55.9787812,16.6015833 L55.6924922,13.0342579 C55.6590234,12.5990397 55.6924922,12.2394762 55.9549922,11.9318135 L58.3699922,9.04586905 C58.8662812,8.48765079 58.8329766,8.32202381 58.1027344,8.14224206 L54.3514453,7.21974206 C53.9266875,7.11561508 53.9028984,7.00205159 53.6928984,6.66152381 L51.7981406,3.52469841 C51.736125,3.42057143 51.6788672,3.33548016 51.6263672,3.2692619 C51.8076563,4.96750794 51.7599141,6.91679762 51.4353984,8.95589683 L51.4353984,8.95589683 Z" id="Shape" fill="#FDB440"></path>
            <path d="M80.0182031,39.9828095 L82.4330391,37.0968651 C82.9340859,36.5386468 82.8960234,36.3730198 82.1657812,36.1932381 L78.4144922,35.2707381 C77.9944922,35.1666111 77.9659453,35.0530476 77.7607031,34.7125198 L75.8659453,31.5756944 C75.4794141,30.9369405 75.2454609,30.9369405 74.8636875,31.5756944 L72.9641719,34.7125198 C72.7589297,35.0532103 72.7303828,35.1667738 72.3103828,35.2707381 L68.5590937,36.1932381 C67.8288516,36.3730198 67.7907891,36.5386468 68.2918359,37.0968651 L70.7068359,39.9828095 C70.9693359,40.2903095 71.0028047,40.649873 70.9693359,41.0850913 L70.6782891,44.6476984 C70.602,45.3904167 70.7545781,45.4803889 71.4515156,45.2011984 L74.7493359,43.8385992 C75.0928828,43.6967262 75.6323203,43.6967262 75.9758672,43.8385992 L79.2736875,45.2011984 C79.9704609,45.4803889 80.1232031,45.3904167 80.0469141,44.6476984 L79.7558672,41.0850913 C79.7223984,40.649873 79.7557031,40.2903095 80.0182031,39.9828095 L80.0182031,39.9828095 Z" id="Shape" fill="#FECE85"></path>
            <path d="M75.5033672,37.0068929 C75.0070781,40.1294008 73.9665937,42.849881 72.6970781,44.6856071 L74.7493359,43.8387619 C75.0928828,43.6968889 75.6323203,43.6968889 75.9758672,43.8387619 L79.2736875,45.2013611 C79.9704609,45.4805516 80.1232031,45.3905794 80.0469141,44.6478611 L79.7558672,41.085254 C79.7223984,40.6500357 79.7558672,40.2904722 80.0183672,39.9829722 L82.4332031,37.0970278 C82.93425,36.5388095 82.8961875,36.3731825 82.1659453,36.1934008 L78.4146562,35.2709008 C77.9946562,35.1667738 77.9661094,35.0532103 77.7608672,34.7126825 L75.8661094,31.5758571 C75.8040937,31.4717302 75.7468359,31.3866389 75.6895781,31.3157024 C75.875625,33.018504 75.823125,34.9677937 75.5033672,37.0068929 L75.5033672,37.0068929 Z" id="Shape" fill="#FDB440"></path>
            <path d="M75.7993359,6.18351587 C75.7993359,3.48678968 73.5943359,1.30093651 70.8740156,1.30093651 C69.9767578,1.30093651 69.1367578,1.5375 68.4114375,1.95384524 C69.8861953,2.79597222 70.8740156,4.3762619 70.8740156,6.18351587 C70.8740156,7.98605159 69.8860312,9.56634127 68.4114375,10.4084683 C69.1369219,10.8248135 69.9769219,11.061377 70.8740156,11.061377 C73.5943359,11.0612143 75.7993359,8.87552381 75.7993359,6.18351587 L75.7993359,6.18351587 Z" id="Shape" fill="#FE5694"></path>
            <g id="Group" fill-rule="nonzero" fill="#000000">
                <path d="M64.1781328,48.5466032 L33.8561016,48.5466032 L50.6091797,39.2877619 C52.3603828,38.316127 52.9930078,36.112377 52.0183125,34.3734563 L49.5212813,29.9337421 C48.5395313,28.194496 46.3151719,27.5707103 44.5651172,28.541369 L37.5962344,32.3922778 C38.4157266,30.7613889 38.9257969,29.1622262 39.1144688,27.6091071 C39.4288125,25.0230159 38.8370391,22.6889444 37.4031328,20.8590754 C35.072625,17.8851111 31.0033828,16.8965556 27.5070469,18.4547183 C26.8872188,18.7309802 26.6106094,19.4531984 26.8891875,20.0680357 C27.1677656,20.6825476 27.8960391,20.9570198 28.5160313,20.6807579 C30.9731953,19.5854722 33.8287031,20.2746627 35.4599766,22.3565516 C37.8024609,25.3459722 36.9038906,30.0219246 33.0656484,34.895881 L31.5795703,35.7170198 L30.5041406,33.8064524 C30.2280234,33.3142897 29.8695469,32.8849286 29.4479063,32.5304087 C29.7092578,30.9785913 30.4378594,28.9702421 31.2434063,27.6584048 C31.5967969,27.0827778 31.4128828,26.3320873 30.8324297,25.9816349 C30.2519766,25.6310198 29.4949922,25.8137302 29.1416016,26.3891944 C28.2746953,27.8009286 27.5234531,29.7572143 27.1456172,31.488 C26.1149766,31.3248135 25.0685859,31.5047579 24.1478672,32.0138413 L23.7224531,32.2491032 C23.5536328,28.7281468 24.1040625,25.7813532 25.344375,23.6561865 C25.6848047,23.0729127 25.4839922,22.3264524 24.8958281,21.9888532 C24.3079922,21.6515794 23.5549453,21.8503968 23.2145156,22.4336706 C21.5686406,25.2538849 20.9414297,28.9959484 21.3442031,33.563869 L19.8582891,34.3853333 C13.5799453,29.7570516 7.436625,28.8107976 3.31488281,31.8771746 C0.330914063,34.096869 -0.793242187,38.0248968 0.581273438,41.4293611 C1.98367969,44.9026468 5.49035156,47.0177262 10.3213359,47.4643333 L3.18675,51.4068413 C1.43653125,52.3747341 0.805382813,54.5768571 1.78057031,56.316754 L4.27710938,60.7602103 C4.94238281,61.942377 6.18564844,62.6096032 7.4655,62.6096032 C8.06498438,62.6096032 8.67250781,62.4631746 9.23245313,62.1548611 C9.23294531,62.1546984 9.2334375,62.154373 9.23392969,62.1540476 L17.2741406,57.7105913 L17.2741406,77.5858294 C17.2741406,79.9752183 19.2348516,81.9191389 21.6449297,81.9191389 L62.7941016,81.9191389 C65.2041797,81.9191389 67.1650547,79.9752183 67.1650547,77.5858294 L67.1650547,51.507877 C67.1648906,49.8750357 65.8249922,48.5466032 64.1781328,48.5466032 Z M23.1716953,51.6575595 L19.5252422,45.1724008 L30.6289922,39.0365556 L34.2751172,45.5210635 L28.7229141,48.5895556 C28.5247266,48.6422698 28.3465547,48.7424921 28.2013594,48.8778571 L23.1716953,51.6575595 Z M45.7650703,30.6723929 C45.9465234,30.5716825 46.1435625,30.5238492 46.3383047,30.5238492 C46.7530547,30.5238492 47.1564844,30.7407262 47.3732109,31.1242063 L49.8682734,35.560504 C50.1845859,36.1247421 49.9778672,36.8414286 49.4095547,37.1567381 L36.4248281,44.332877 L32.7788672,37.848369 L45.7650703,30.6723929 Z M25.3463438,34.1458413 C25.6764375,33.9632937 26.0413125,33.8705556 26.4120938,33.8705556 C26.6166797,33.8705556 26.8229063,33.8988651 27.0260156,33.9559722 C27.5971172,34.1167183 28.0686328,34.4850675 28.3545938,34.9949643 L29.4295313,36.9045556 L18.3266016,43.0400754 L17.2500234,41.124627 C17.0380547,40.7479802 16.9465078,40.3254524 16.9794844,39.9019484 C16.9806328,39.8902341 16.9821094,39.8786825 16.9829297,39.8669683 C16.9957266,39.7319286 17.0200078,39.5968889 17.0583984,39.4633135 C17.2203281,38.89875 17.5920938,38.432131 18.1061016,38.1487103 L25.3463438,34.1458413 Z M2.86584375,40.5224802 C1.90427344,38.1407381 2.69603906,35.3886944 4.79160938,33.829881 C7.80953906,31.5849683 12.4715391,32.2992143 17.4808594,35.7000992 L16.9092656,36.0160595 C16.0042969,36.5150556 15.3083438,37.2823413 14.9024531,38.212 C13.2775781,37.7045437 11.8184063,37.426004 9.72808594,37.1990397 C9.05198438,37.1261508 8.44495313,37.6093651 8.37096094,38.2791944 C8.29696875,38.9491865 8.78472656,39.5516587 9.46017188,39.6250357 C11.7595078,39.8746151 13.1122031,40.1852063 14.5498828,40.6630516 C14.6250234,41.2359127 14.8089375,41.794619 15.1006406,42.3131389 L16.1772188,44.2285873 L14.833875,44.9709802 C8.72746875,45.633 4.26152344,43.979496 2.86584375,40.5224802 L2.86584375,40.5224802 Z M8.03610938,60.0225357 C7.47452344,60.3306865 6.73739063,60.1245476 6.42632813,59.5720238 L3.9309375,55.1305198 C3.614625,54.5662817 3.81855469,53.8521984 4.3850625,53.539004 L15.7662422,47.2497341 C15.8023359,47.232 15.8372813,47.2128016 15.8710781,47.1918135 L17.3756953,46.3604246 L21.0221484,52.8455833 L17.9259609,54.5568452 C17.9193984,54.5602619 17.913,54.564004 17.9064375,54.5675833 L8.03610938,60.0225357 Z M19.7350781,77.5859921 L19.7350781,56.3507579 L29.4401953,50.9870794 L35.1139688,50.9870794 L35.1139688,61.7935079 C35.1139688,62.4674048 35.6648906,63.013746 36.3444375,63.013746 C37.0239844,63.013746 37.5749063,62.4674048 37.5749063,61.7935079 L37.5749063,50.9870794 L46.8639609,50.9870794 L46.8639609,79.4788254 L37.5749063,79.4788254 L37.5749063,67.5748333 C37.5749063,66.9009365 37.0239844,66.3545952 36.3444375,66.3545952 C35.6648906,66.3545952 35.1139688,66.9009365 35.1139688,67.5748333 L35.1139688,79.4788254 L21.6449297,79.4788254 C20.5918125,79.4788254 19.7350781,78.6297024 19.7350781,77.5859921 L19.7350781,77.5859921 Z M64.7039531,77.5859921 C64.7039531,78.6297024 63.8472188,79.4788254 62.7941016,79.4788254 L49.3250625,79.4788254 L49.3250625,50.9870794 L64.1781328,50.9870794 C64.4631094,50.9870794 64.7039531,51.2255952 64.7039531,51.507877 L64.7039531,77.5859921 Z" id="Shape"></path>
                <path d="M59.6664141,21.2085516 C59.6828203,21.3585595 61.2443672,36.2788175 55.9763203,41.9420238 C55.5154688,42.4374405 55.5469688,43.2094444 56.046375,43.6663016 C56.2829531,43.8826905 56.5820391,43.9895833 56.8804688,43.9895833 C57.2120391,43.9895833 57.542625,43.8574722 57.7852734,43.5966667 C63.80325,37.127127 62.1849375,21.6032579 62.1130781,20.9454683 C62.0399063,20.2754762 61.4332031,19.7919365 60.7572656,19.8636865 C60.0816563,19.9365754 59.5932422,20.5385595 59.6664141,21.2085516 L59.6664141,21.2085516 Z" id="Shape"></path>
                <path d="M70.9217578,19.3951151 C68.8401328,22.5560198 68.1787969,25.3770476 68.1515625,25.4956548 C68.0012813,26.1519802 68.4155391,26.80375 69.0770391,26.9540833 C69.1694063,26.9749087 69.2614453,26.984996 69.3523359,26.984996 C69.9126094,26.984996 70.4193984,26.6023294 70.5508125,26.0380913 C70.5567188,26.0127103 71.1657188,23.4599722 73.030125,20.657004 C75.4833516,16.9687937 78.8554922,14.5948611 83.0527031,13.6012619 C83.7137109,13.4449087 84.1217344,12.786631 83.9639063,12.131119 C83.8062422,11.4756071 83.1426094,11.0711389 82.4814375,11.2274921 C77.6913047,12.3613373 73.6939219,15.185619 70.9217578,19.3951151 L70.9217578,19.3951151 Z" id="Shape"></path>
                <path d="M45.6809063,12.6919405 C45.6851719,12.7215516 45.69075,12.7924881 45.6797578,12.9356627 L45.3900234,16.4860675 C45.3488438,16.8625516 45.2674688,17.7053294 45.961125,18.2258016 C46.6665938,18.7552222 47.4952734,18.4233175 47.861625,18.2767262 L51.1500938,16.9175437 C51.2152266,16.8967183 51.3758438,16.8960675 51.4352344,16.9142897 L54.7497891,18.2816071 C54.9583125,18.3652341 55.3320469,18.5149167 55.7481094,18.5149167 C56.0368594,18.5149167 56.3461172,18.4428413 56.6345391,18.2262897 C57.3262266,17.707119 57.2453438,16.8641786 57.2041641,16.4867183 L56.9196797,12.9413571 C56.9086875,12.7985079 56.912625,12.7259444 56.9163984,12.6937302 L59.3053125,9.83886111 C59.5812656,9.52810714 60.1261172,8.89895238 59.8695234,8.08318254 C59.6091563,7.25553571 58.7612813,7.04679365 58.3990313,6.95763492 L54.7670156,6.06425794 L52.8568359,2.90221429 C52.681125,2.60821825 52.2145313,1.82759127 51.303,1.82515079 L51.2987344,1.82515079 C50.3896641,1.82515079 49.9186406,2.6031746 49.741125,2.89651984 C49.7409609,2.89684524 49.7407969,2.89717063 49.7406328,2.89749603 L47.8452188,6.03546032 L47.8279922,6.06442063 L44.1933516,6.95828571 C43.8320859,7.04776984 42.9858516,7.2574881 42.7263047,8.08497222 C42.4703672,8.90057937 43.0335938,9.55137302 43.2895313,9.8395119 L45.6809063,12.6919405 Z M48.5375625,8.40418651 C49.3580391,8.20309127 49.6540078,7.8000873 49.9083047,7.3695873 L51.2969297,5.06935714 L52.6983516,7.38911111 C52.9515,7.8106627 53.2458281,8.20553175 54.0553125,8.40386111 L56.7529922,9.06734524 L55.0157344,11.143377 C54.4446328,11.8127183 54.4216641,12.5547857 54.4659609,13.1309008 L54.6644766,15.6032659 L52.3866328,14.6635198 C51.7395703,14.3924643 50.8661016,14.3916508 50.2128047,14.6612421 L47.9310234,15.6042421 L48.1331484,13.1268333 C48.1731797,12.6050595 48.1605469,11.8325675 47.5897734,11.1516746 L45.8420156,9.06718254 L48.5375625,8.40418651 Z" id="Shape"></path>
                <path d="M83.3665547,37.8922976 C83.6259375,37.6030198 84.1901484,36.9541786 83.9355234,36.138246 C83.6764688,35.3078333 82.8256406,35.0982778 82.4620781,35.0087937 L78.8351484,34.1167183 L76.9211953,30.9475159 C76.7436797,30.6543333 76.2726563,29.8761468 75.3635859,29.8761468 L75.3593203,29.8761468 C74.4510703,29.8785873 73.9844766,30.6538452 73.8072891,30.950119 L71.9082656,34.0862937 L71.8902188,34.1167183 L68.2629609,35.0087937 C67.8997266,35.0981151 67.0488984,35.3076706 66.7898438,36.1380833 C66.5353828,36.9540159 67.0994297,37.6028571 67.3588125,37.8919722 L69.7459219,40.7447262 C69.7496953,40.7767778 69.7537969,40.8480397 69.7431328,40.986496 L69.4530703,44.5364127 C69.4145156,44.9117579 69.3356016,45.7615317 70.0310625,46.2797262 C70.7350547,46.8042659 71.560125,46.4738254 71.9248359,46.3275595 L75.2136328,44.968377 C75.2805703,44.9470635 75.4449609,44.9470635 75.502875,44.9649603 L78.813,46.3324405 C79.0213594,46.4159048 79.3947656,46.5655873 79.8109922,46.5655873 C80.0985938,46.5655873 80.4067031,46.494 80.6946328,46.2795635 C81.3900938,45.761369 81.3111797,44.9117579 81.272625,44.53625 L80.9830547,40.9921905 C80.9720625,40.849504 80.976,40.7769405 80.9797734,40.7445635 L83.3665547,37.8922976 Z M79.0791094,39.194373 C78.5078438,39.8635516 78.484875,40.6057817 78.5291719,41.1836865 L78.7311328,43.6550754 L76.4490234,42.7120754 C75.7991719,42.443623 74.9258672,42.4437857 74.2761797,42.7120754 L71.9940703,43.6550754 L72.1965234,41.1776667 C72.2404922,40.6057817 72.2175234,39.8635516 71.6539688,39.2033214 L69.9093281,37.1181786 L72.6089766,36.4542063 C73.4230547,36.2524603 73.7177109,35.8505952 73.9711875,35.4215595 L75.3645703,33.1192143 L76.7047969,35.3380952 L76.7545078,35.4215595 C77.0078203,35.8507579 77.3026406,36.252623 78.1188516,36.4546944 L80.8165313,37.1181786 L79.0791094,39.194373 Z" id="Shape"></path>
                <path d="M70.8740156,12.2816151 C74.2683047,12.2816151 77.0298047,9.54600397 77.0298047,6.18351587 C77.0298047,2.8184246 74.2683047,0.0806984127 70.8740156,0.0806984127 C67.4797266,0.0806984127 64.7182266,2.8184246 64.7182266,6.18351587 C64.7182266,9.54600397 67.4797266,12.2816151 70.8740156,12.2816151 Z M70.8740156,2.5211746 C72.9113438,2.5211746 74.5688672,4.16410317 74.5688672,6.18351587 C74.5688672,8.2003254 72.9113438,9.84113889 70.8740156,9.84113889 C68.8366875,9.84113889 67.1793281,8.2003254 67.1793281,6.18351587 C67.1791641,4.16410317 68.8366875,2.5211746 70.8740156,2.5211746 L70.8740156,2.5211746 Z" id="Shape"></path>
            </g>
        </g>
    </g>
</svg>