<svg width="112" height="112" viewBox="0 0 112 112" xmlns="http://www.w3.org/2000/svg" fill="none"><circle cx="56" cy="56" r="56" fill="#E5EBEF"/><path d="M56 106c27.614 0 50-22.386 50-50s-22.386-50-50-50-50 22.386-50 50 22.386 50 50 50z" fill="#6D94D0"/><path d="M56 102.97c25.941 0 46.97-21.029 46.97-46.97s-21.029-46.97-46.97-46.97-46.97 21.029-46.97 46.97 21.029 46.97 46.97 46.97z" fill="#1C304E"/><path fill-rule="evenodd" clip-rule="evenodd" d="M81.956 34.348c2.398-1.018 4.645-2.176 6.712-3.459 1.669-1.036 3.237-2.166 4.677-3.38-.613-.803-1.252-1.585-1.915-2.346-2.871 2.425-6.372 4.544-10.353 6.264-2.961-9.096-7.515-16.421-13.004-20.831-3.853-1.022-7.899-1.566-12.073-1.566s-8.221.544-12.074 1.566c-5.489 4.41-10.043 11.735-13.004 20.831-3.982-1.721-7.483-3.84-10.353-6.264-.663.761-1.302 1.543-1.915 2.346 1.441 1.215 3.008 2.344 4.678 3.38 2.066 1.283 4.313 2.44 6.712 3.459-1.696 6.123-2.695 12.939-2.819 20.136h-18.171c-.016.503-.024 1.008-.024 1.515 0 .507.008 1.012.024 1.515h18.171c.123 7.198 1.122 14.013 2.819 20.137-2.399 1.018-4.645 2.176-6.712 3.459-1.669 1.036-3.237 2.166-4.678 3.38.613.803 1.252 1.585 1.915 2.346 2.87-2.425 6.372-4.544 10.353-6.264 2.961 9.096 7.515 16.421 13.004 20.831 3.853 1.022 7.899 1.567 12.074 1.567 4.174 0 8.221-.545 12.073-1.567 5.489-4.41 10.043-11.735 13.004-20.831 3.982 1.721 7.483 3.84 10.353 6.264.663-.761 1.302-1.543 1.915-2.346-1.441-1.215-3.008-2.344-4.677-3.38-2.067-1.283-4.313-2.441-6.712-3.459 1.696-6.123 2.695-12.939 2.819-20.137h18.171c.016-.503.024-1.008.024-1.515 0-.507-.008-1.012-.024-1.515h-18.171c-.123-7.198-1.123-14.013-2.819-20.136zm-.212 23.167c-.121 6.829-1.058 13.263-2.625 19.024-6.439-2.329-13.802-3.699-21.604-3.857v-15.167h24.229zm-3.488 21.934c-6.12-2.236-13.188-3.578-20.741-3.736v27.172c5.887-.656 11.658-5.128 16.215-13.042 1.757-3.052 3.287-6.548 4.526-10.394zm-23.771 23.436v-27.172c-7.552.159-14.621 1.501-20.741 3.736 1.239 3.846 2.768 7.342 4.526 10.394 4.557 7.914 10.328 12.386 16.215 13.042zm-21.604-26.346c6.439-2.329 13.802-3.699 21.604-3.857v-15.167h-24.229c.121 6.829 1.058 13.263 2.625 19.024zm0-41.077c-1.567 5.761-2.504 12.194-2.625 19.023h24.229v-15.167c-7.802-.158-15.165-1.528-21.604-3.857zm21.604.826c-7.552-.159-14.621-1.501-20.741-3.736 1.239-3.846 2.768-7.342 4.526-10.394 4.557-7.914 10.328-12.385 16.215-13.042v27.172zm3.03 0v-27.172c5.887.656 11.658 5.128 16.215 13.042 1.757 3.052 3.287 6.548 4.526 10.394-6.12 2.236-13.188 3.578-20.741 3.736zm0 3.031c7.802-.158 15.165-1.528 21.604-3.857 1.567 5.761 2.504 12.194 2.625 19.023h-24.229v-15.167z" fill="#6D94D0"/><path d="M56.297 39.044c-.197-.029-.397-.029-.593 0l-18 2.7c-.979.147-1.703.988-1.703 1.978v2.459c0 .8.477 1.523 1.212 1.838l1.369.587c.558.239.919.787.919 1.394 0 .607-.361 1.155-.919 1.394l-1.369.587c-.735.315-1.212 1.038-1.212 1.838v10.001c0 .12.009.235.034.353.767 3.692 5.549 12.614 18.96 20.73.617.373 1.396.373 2.013 0 13.411-8.116 18.192-17.038 18.96-20.73.024-.117.034-.233.034-.353v-10.001c0-.8-.477-1.523-1.212-1.838l-1.369-.587c-.558-.239-.919-.787-.919-1.394 0-.607.362-1.155.919-1.394l1.369-.587c.735-.315 1.212-1.038 1.212-1.838v-2.459c0-.99-.724-1.831-1.703-1.978l-18-2.7z" fill="#EA9F37"/><path d="M56.298 40.045c-.197-.03-.398-.03-.595 0l-16 2.409c-.979.147-1.702.988-1.702 1.978v1.929c0 .799.476 1.521 1.21 1.837l1.111.478c.503.216.83.712.83 1.26s-.326 1.044-.83 1.26l-1.111.478c-.734.316-1.21 1.038-1.21 1.837v8.89c0 .12.009.235.034.352.699 3.335 4.986 11.343 16.959 18.645.617.377 1.397.377 2.015 0 11.973-7.302 16.26-15.31 16.959-18.645.024-.117.034-.232.034-.352v-8.89c0-.799-.476-1.522-1.21-1.837l-1.111-.478c-.503-.217-.83-.712-.83-1.26s.326-1.044.83-1.26l1.111-.478c.734-.316 1.21-1.038 1.21-1.837v-1.929c0-.99-.724-1.83-1.702-1.978l-16-2.409z" fill="#F4C344"/><path fill-rule="evenodd" clip-rule="evenodd" d="M49 57c-1.105 0-2 .895-2 2v9c0 1.105.895 2 2 2h14c1.105 0 2-.895 2-2v-9c0-1.105-.895-2-2-2 0-3.866-3.134-7-7-7s-7 3.134-7 7zm10 0c0-1.657-1.343-3-3-3s-3 1.343-3 3h6z" fill="#328B28"/><path opacity=".3" d="M56 85.16c.349 0 .698-.093 1.007-.28 13.411-8.116 18.192-17.038 18.96-20.73.024-.117.034-.233.034-.353v-10.001c0-.8-.477-1.523-1.212-1.838l-1.369-.587c-.558-.239-.919-.787-.919-1.394 0-.607.362-1.155.919-1.394l1.369-.587c.735-.315 1.212-1.038 1.212-1.838v-2.459c0-.99-.724-1.831-1.703-1.978l-18-2.7-.297-.022v46.16z" fill="#fff"/><path opacity=".4" fill-rule="evenodd" clip-rule="evenodd" d="M70.567 73.68l-19.901-33.88 5.037-.755c.197-.029.397-.029.593 0l4.785.718 14.722 25.062c-.587 2.042-2.161 5.218-5.236 8.856z" fill="#fff"/></svg>