<?xml version="1.0" encoding="UTF-8"?>
<svg width="400px" height="416px" viewBox="0 0 400 416" version="1.1" xmlns="http://www.w3.org/2000/svg" xmlns:xlink="http://www.w3.org/1999/xlink">
	<title></title>
	<g id="Progress---B" stroke="none" stroke-width="1" fill="none" fill-rule="evenodd">
		<g id="fireworks" opacity="0.438651469" transform="translate(8.000000, 17.000000)" fill-rule="nonzero">
			<path d="M194.831201,51.5348054 C194.001768,51.5348054 193.168835,51.2659148 192.526637,50.7266235 C191.214243,49.6268921 191.182745,47.8171694 192.456642,46.6857146 L196.574059,43.0239715 C197.847957,41.8910066 199.942538,41.8638152 201.254931,42.9635467 C202.567325,44.0632781 202.598823,45.8730012 201.324926,47.0059661 L197.207508,50.6677093 C196.558311,51.2447663 195.695631,51.5348054 194.831201,51.5348054 Z" id="Shape" fill="#FF4E61"></path>
			<path d="M344.869521,11.322937 C344.038338,11.322937 343.207155,11.0555573 342.563207,10.5162661 C341.250813,9.41653462 341.219316,7.60681152 342.493213,6.47384624 L346.61063,2.81210308 C347.884527,1.68064871 349.980858,1.65345774 351.293251,2.75318918 C352.605646,3.85140972 352.637143,5.66264334 351.363246,6.79409809 L347.245829,10.4558413 C346.596631,11.0328979 345.733951,11.322937 344.869521,11.322937 Z" id="Shape" fill="#5C73BC"></path>
			<path d="M132.753217,43.6644744 C131.923784,43.6644744 131.090851,43.3970947 130.448653,42.8578034 C129.136259,41.758072 129.104762,39.9483489 130.378659,38.815384 L134.496076,35.1536408 C135.769973,34.0221861 137.866304,33.9949951 139.178697,35.0947266 C140.489342,36.194458 140.520839,38.0041811 139.246942,39.1356355 L135.129525,42.7973786 C134.480327,43.3744353 133.617647,43.6644744 132.753217,43.6644744 Z" id="Shape" fill="#FFAA00"></path>
			<path d="M82.5138046,107.826553 C81.6843714,107.826553 80.8514387,107.559173 80.2092404,107.019882 C78.8968467,105.920151 78.865349,104.110428 80.1392461,102.977463 L84.2549135,99.3157195 C85.5288106,98.1827546 87.6251414,98.1555633 88.9375356,99.2552947 C90.2499293,100.355026 90.281427,102.164749 89.0075299,103.297714 L84.8901123,106.959457 C84.2426648,107.536514 83.3782345,107.826553 82.5138046,107.826553 Z" id="Shape" fill="#2DC471"></path>
			<path d="M190.642039,112.723984 C187.854514,114.027649 184.596277,111.921844 185.128234,109.160431 L187.180818,98.5166016 C187.392552,97.4198912 186.984834,96.3020327 186.088907,95.5255737 L177.39211,87.9860686 C175.136542,86.0313264 176.380692,82.6248779 179.498939,82.2215423 L191.515219,80.6686248 C192.754118,80.5084992 193.823282,79.8181459 194.376237,78.8196258 L199.751803,69.1350405 C201.14644,66.6243896 205.172865,66.6243896 206.567502,69.1350405 L211.941318,78.8196258 C212.496023,79.8181459 213.565187,80.5084992 214.802337,80.6686248 L226.820366,82.2215423 C229.936864,82.6248779 231.181013,86.0313264 228.925445,87.9860686 L220.230398,95.5255737 C219.33447,96.3020327 218.925004,97.4198912 219.136736,98.5166016 L221.18932,109.160431 C221.723028,111.921844 218.464791,114.027649 215.677266,112.723984 L204.927885,107.698151 C203.820224,107.180008 202.497331,107.180008 201.391421,107.698151 L190.642039,112.723984 Z" id="Shape" fill="#FFD02F" opacity="0.56"></path>
			<path d="M203.185025,138.221741 L203.13428,138.221741 C201.305677,138.221741 199.821797,136.940735 199.821797,135.362137 C199.821797,133.783539 201.303927,132.504044 203.13428,132.504044 L203.185025,132.504044 C205.013628,132.504044 206.495758,133.783539 206.495758,135.362137 C206.495758,136.940735 205.013628,138.221741 203.185025,138.221741 Z" id="Shape" fill="#5C73BC"></path>
			<path d="M203.185025,128.389114 L203.171027,128.389114 L203.118531,128.389114 C201.289928,128.383072 199.814798,127.097534 199.821797,125.518936 C199.830547,123.943359 201.310927,122.672928 203.13253,122.672928 L203.148279,122.672928 L203.199024,122.672928 C205.027626,122.67897 206.502757,123.964508 206.495758,125.543106 C206.488758,127.117172 205.006628,128.389114 203.185025,128.389114 Z" id="Shape" fill="#FFAA00"></path>
			<path d="M88.5778422,61.7912444 C87.7134123,61.7912444 86.8507316,61.5012053 86.2015344,60.9241487 L50.6601564,29.3144224 C49.3862593,28.1814575 49.4160068,26.3717348 50.728401,25.2735139 C52.0407947,24.1737824 54.1371251,24.2009734 55.4110221,25.3324282 L90.9541499,56.942154 C92.228047,58.0736084 92.1965498,59.884842 90.8841556,60.9830629 C90.2402076,61.5223542 89.4090251,61.7912444 88.5778422,61.7912444 Z" id="Shape" fill="#FF4E61"></path>
			<path d="M100.546875,72.4683074 C99.7121926,72.4683074 98.8775097,72.1979067 98.2335617,71.6540834 C96.9246679,70.5513306 96.9001697,68.7416079 98.1775662,67.6116636 L98.2143136,67.5799407 C99.4917102,66.4515074 101.588041,66.4288484 102.896935,67.5331118 C104.205829,68.6358643 104.230327,70.4455874 102.95118,71.5755308 L102.916184,71.6072541 C102.266986,72.1797789 101.407805,72.4683074 100.546875,72.4683074 L100.546875,72.4683074 Z" id="Shape" fill="#FFAA00"></path>
			<path d="M108.363493,79.4201814 C107.532311,79.4201814 106.701128,79.1512908 106.05718,78.6119995 C104.746536,77.5122681 104.715038,75.7025454 105.988935,74.5710906 L106.023933,74.5378572 C107.299579,73.4048919 109.39591,73.3792114 110.706554,74.4789429 C112.018948,75.5786743 112.050445,77.388397 110.776548,78.5213623 L110.739801,78.5530852 C110.090604,79.1301423 109.227923,79.4201814 108.363493,79.4201814 L108.363493,79.4201814 Z" id="Shape" fill="#5C73BC"></path>
			<path d="M317.739713,60.667343 C316.90853,60.667343 316.077347,60.3999634 315.435149,59.8606721 C314.122755,58.7609406 314.091258,56.9512176 315.365155,55.8182527 L350.906533,24.2100373 C352.18043,23.077072 354.276761,23.0498811 355.589154,24.1496125 C356.901548,25.249344 356.933046,27.0590667 355.659149,28.192032 L320.116021,59.8002473 C319.466823,60.377304 318.604143,60.667343 317.739713,60.667343 Z" id="Shape" fill="#FFAA00"></path>
			<path d="M305.77068,71.3459166 C304.913249,71.3459166 304.057569,71.0604094 303.410121,70.4909058 L303.373374,70.4591828 C302.090728,69.33226 302.109976,67.5225373 303.413621,66.4167634 C304.719015,65.309479 306.815346,65.3260955 308.096242,66.4515074 L308.132989,66.4832307 C309.413886,67.6101531 309.396387,69.4198762 308.090993,70.5256501 C307.447045,71.0724944 306.608862,71.3459166 305.77068,71.3459166 Z" id="Shape" fill="#FF4E61"></path>
			<path d="M297.954062,78.2977905 C297.089632,78.2977905 296.226951,78.0077515 295.577754,77.4306948 L295.541007,77.3989715 C294.268859,76.2660066 294.298607,74.4562835 295.611001,73.356552 C296.923395,72.2568206 299.019726,72.2840119 300.293623,73.4154663 L300.33037,73.4471892 C301.602517,74.5801545 301.572769,76.3898772 300.260375,77.4896087 C299.616427,78.0289 298.785245,78.2977905 297.954062,78.2977905 Z" id="Shape" fill="#FFAA00"></path>
			<path d="M239.181367,45.1267547 C238.624912,45.1267547 238.061457,45.0059051 237.545249,44.7506104 C235.956377,43.9681089 235.403422,42.2218325 236.309849,40.8516999 L261.78254,2.31427002 C262.688967,0.944137477 264.710054,0.46678152 266.298925,1.24928293 C267.887797,2.03178396 268.440752,3.77806082 267.534325,5.14819336 L242.061634,43.6856233 C241.450933,44.6086119 240.332774,45.1267547 239.181367,45.1267547 Z" id="Shape" fill="#62D38F"></path>
			<path d="M230.612309,58.1347046 C230.033106,58.1347046 229.448653,58.0047915 228.914946,57.7298584 L228.8712,57.707199 C227.303327,56.8975066 226.790618,55.1421662 227.730292,53.7871401 C228.668216,52.430603 230.701552,51.9910125 232.271175,52.8007049 L232.314922,52.8233643 C233.884545,53.6330566 234.395503,55.388397 233.457579,56.7434236 C232.836379,57.6392212 231.739218,58.1347046 230.612309,58.1347046 Z" id="Shape" fill="#FFAA00"></path>
			<path d="M225.009262,66.6107942 C224.426559,66.6107942 223.836857,66.4778596 223.30315,66.1999055 L223.259403,66.1772461 C221.69328,65.3615112 221.18932,63.6046599 222.132494,62.2526548 C223.077418,60.9006501 225.112504,60.4671021 226.678627,61.2813264 L226.722374,61.3039858 C228.288497,62.1197203 228.792456,63.8765716 227.847532,65.2285767 C227.226333,66.1183318 226.130921,66.6107942 225.009262,66.6107942 L225.009262,66.6107942 Z" id="Shape" fill="#2DC471"></path>
			<path d="M167.199184,45.1267547 C166.047776,45.1267547 164.929617,44.6086119 164.318916,43.6841127 L138.846225,5.14819336 C137.939798,3.77655029 138.492753,2.03178396 140.079875,1.24928293 C141.668746,0.46678152 143.691583,0.942626953 144.59801,2.31427002 L170.070701,40.850189 C170.977128,42.2218325 170.424173,43.9681089 168.837051,44.7506104 C168.319093,45.0059051 167.755638,45.1267547 167.199184,45.1267547 Z" id="Shape" fill="#5C73BC"></path>
			<path d="M175.768241,58.1347046 C174.644832,58.1347046 173.547671,57.6407317 172.926471,56.749466 C171.985047,55.3959504 172.492506,53.6390991 174.058629,52.8263853 L174.104125,52.8037263 C175.671999,51.9910125 177.705335,52.4275816 178.646758,53.7810972 C179.589932,55.1346128 179.082473,56.8899536 177.5146,57.704178 L177.470853,57.7268374 C176.937146,58.0032805 176.349194,58.1347046 175.768241,58.1347046 Z" id="Shape" fill="#FF4E61"></path>
			<path d="M181.371288,66.6107942 C180.251378,66.6107942 179.159467,66.1213532 178.536517,65.2331086 C177.588094,63.882614 178.088554,62.1257631 179.651177,61.3070068 L179.694924,61.2843474 C181.261047,60.4671021 183.296133,60.8976287 184.244556,62.2481233 C185.191229,63.5986175 184.69252,65.3554687 183.128146,66.174225 L183.0844,66.1968841 C182.547193,66.4778596 181.955741,66.6107942 181.371288,66.6107942 Z" id="Shape" fill="#FFAA00"></path>
			<path d="M360.192255,87.6539 C358.3899,88.8185882 355.868354,87.6372834 355.926099,85.6568604 L356.151831,78.019165 C356.174579,77.2321321 355.761613,76.4858855 355.04592,76.0221254 L348.098982,71.5280305 C346.296627,70.3618318 346.779589,67.8647768 348.916166,67.3013152 L357.1545,65.1320647 C358.001432,64.9084929 358.673378,64.3269043 358.946355,63.5791472 L361.606141,56.3145752 C362.295585,54.4293213 365.116357,54.0667725 366.378005,55.6997527 L371.244362,61.9975279 C371.746571,62.6455842 372.574254,63.0338135 373.457933,63.0338135 L382.049738,63.0383454 C384.279058,63.039856 385.538956,65.3133391 384.181066,66.885895 L378.950739,72.9465025 C378.411782,73.5718994 378.252545,74.3921662 378.525523,75.1399233 L381.176559,82.4090269 C381.862504,84.2942808 379.820419,86.0617065 377.720588,85.4000551 L369.622243,82.8486175 C368.78931,82.5857698 367.863635,82.7051088 367.146193,83.1673584 L360.192255,87.6539 Z" id="Shape" fill="#FFD02F"></path>
			<path d="M40.5755268,126.163299 L45.8461009,132.198227 C47.2144901,133.763229 50.0055147,133.25415 50.5707191,131.337174 L52.749293,123.945709 C52.9732749,123.185867 53.6049737,122.571045 54.4379064,122.303665 L62.5187536,119.70993 C64.615084,119.037704 64.9335585,116.519501 63.0594598,115.449982 L55.8290441,111.322967 C55.0853543,110.896973 54.6233917,110.173386 54.5936442,109.387863 L54.3171663,101.750168 C54.2471719,99.7697447 51.6521315,98.7213745 49.9285209,99.9766999 L43.280808,104.816727 C42.5948634,105.315231 41.6779375,105.48291 40.8292562,105.26387 L32.5769231,103.136917 C30.4368459,102.585541 28.5137516,104.455688 29.3239358,106.301666 L32.4456836,113.421219 C32.7676576,114.15387 32.662666,114.981689 32.1657062,115.632767 L27.3413462,121.954712 C26.0901971,123.595246 27.4953337,125.797729 29.7211538,125.684433 L38.2972107,125.243332 C39.1808896,125.198013 40.0330704,125.542435 40.5755268,126.163299 L40.5755268,126.163299 Z" id="Shape" fill="#FFD02F"></path>
			<path d="M224.969015,21.6169741 C224.969015,17.2527923 220.989837,13.7149201 216.083233,13.7149201 C211.17488,13.7149201 207.197451,17.2527923 207.197451,21.6169741 C207.197451,25.9811555 211.17488,29.5205385 216.083233,29.5205385 C220.989837,29.5205385 224.969015,25.9811555 224.969015,21.6169741 Z" id="Shape" fill="#FFD02F"></path>
			<path d="M354.125495,117.790771 C354.125495,113.42659 350.148066,109.888718 345.241463,109.888718 C340.333109,109.888718 336.355681,113.42659 336.355681,117.790771 C336.355681,122.154953 340.333109,125.692825 345.241463,125.692825 C350.148066,125.692825 354.125495,122.154953 354.125495,117.790771 Z" id="Shape" fill="#5C73BC"></path>
			<path d="M14.2681525,146.854263 C14.2681525,143.354157 11.0781601,140.517212 7.14097851,140.517212 C3.20554663,140.517212 0.0155542986,143.354157 0.0155542986,146.854263 C0.0155542986,150.355881 3.20554663,153.192825 7.14097851,153.192825 C11.0781601,153.192825 14.2681525,150.355881 14.2681525,146.854263 L14.2681525,146.854263 Z" id="Shape" fill="#62D38F"></path>
			<path d="M33.9978083,84.0109556 C33.9978083,80.5108489 30.8078159,77.6739045 26.8706343,77.6739045 C22.935202,77.6739045 19.7452101,80.5108489 19.7452101,84.0109556 C19.7452101,87.5110627 22.935202,90.349518 26.8706343,90.349518 C30.8078159,90.349518 33.9978083,87.5110627 33.9978083,84.0109556 Z" id="Shape" fill="#5C73BC"></path>
			<g id="Group" transform="translate(163.631222, 0.000000)" fill="#FF4E61">
				<path d="M35.3173962,6.33856201 C35.3173962,2.83694477 32.1274038,0 28.191972,0 C24.2547899,0 21.064798,2.83694477 21.064798,6.33856201 C21.064798,9.83866873 24.2547899,12.6756135 28.191972,12.6756135 C32.1274038,12.6756135 35.3173962,9.83866873 35.3173962,6.33856201 Z" id="Shape"></path>
				<path d="M104.477057,59.12265 C104.477057,55.6225432 101.285315,52.7840883 97.3498832,52.7840883 C93.4144514,52.7840883 90.2227093,55.6225432 90.2227093,59.12265 C90.2227093,62.6227571 93.4144514,65.4597014 97.3498832,65.4597014 C101.285315,65.4597014 104.477057,62.6227571 104.477057,59.12265 L104.477057,59.12265 Z" id="Shape"></path>
				<path d="M3.56446185,12.6635285 C2.7332789,12.6635285 1.90209641,12.3961489 1.25814844,11.8553467 C-0.0542457285,10.7556152 -0.0857429593,8.94740305 1.1881541,7.81443777 L5.30557127,4.15269461 C6.57946833,3.01972971 8.67579915,2.99253836 9.98644313,4.0922698 C11.2988369,5.19200125 11.3303345,7.00172434 10.0564375,8.13468923 L5.94077005,11.7964324 C5.2915724,12.3734895 4.42714203,12.6635285 3.56446185,12.6635285 Z" id="Shape"></path>
			</g>
		</g>
	</g>
</svg>