<svg xmlns="http://www.w3.org/2000/svg" width="16" height="16" viewBox="0 0 16 16">
  <path id="ic_Info" style="fill: #3b9946; fill-rule: evenodd;" d="M1029,199a8,8,0,1,1,8-8A8,8,0,0,1,1029,199Zm0-15a7,7,0,1,0,7,7A7,7,0,0,0,1029,184Zm0.83,4.433a1.276,1.276,0,0,1-.88-0.325,1.029,1.029,0,0,1,0-1.581,1.265,1.265,0,0,1,.88-0.329,1.241,1.241,0,0,1,.87.329,1.029,1.029,0,0,1,0,1.581A1.251,1.251,0,0,1,1029.83,188.433Zm0,1.362a1.15,1.15,0,0,1,.41.91c0,0.078-.01.214-0.03,0.409a2.846,2.846,0,0,1-.1.537l-0.52,1.773q-0.06.215-.12,0.487a2.947,2.947,0,0,0-.05.415,0.585,0.585,0,0,0,.17.482,0.958,0.958,0,0,0,.57.128,1.721,1.721,0,0,0,.43-0.065,2.214,2.214,0,0,0,.34-0.112l-0.14.548c-0.41.158-.75,0.279-1,0.362a2.627,2.627,0,0,1-.86.125,1.773,1.773,0,0,1-1.18-.356,1.135,1.135,0,0,1-.42-0.905,3.261,3.261,0,0,1,.03-0.436c0.02-.148.06-0.315,0.1-0.5l0.52-1.779q0.075-.258.12-0.485a2.212,2.212,0,0,0,.05-0.419,0.616,0.616,0,0,0-.15-0.474,0.847,0.847,0,0,0-.56-0.133,1.5,1.5,0,0,0-.41.059c-0.14.042-.26,0.08-0.37,0.117l0.14-.548q0.51-.2.99-0.345a2.929,2.929,0,0,1,.88-0.144A1.731,1.731,0,0,1,1029.83,189.8Z" transform="translate(-1021 -183)"/>
</svg>
