<svg xmlns="http://www.w3.org/2000/svg" width="84.813" height="14.25" viewBox="0 0 84.813 14.25">
  <path id="Browsec" style="fill: #fff; fill-rule: evenodd;" d="M155.621,149.45a0.8,0.8,0,0,0,.78.8h5.441c3.061,0,5.081-1.42,5.081-3.821v-0.04c0-1.92-1.34-2.88-3-3.381a3.379,3.379,0,0,0,2.22-3.24v-0.04a3.112,3.112,0,0,0-.9-2.241,5.145,5.145,0,0,0-3.661-1.24H156.4a0.8,0.8,0,0,0-.78.8v12.4Zm1.56-6.962v-4.821h4.261c2,0,3.1.9,3.1,2.281v0.04c0,1.64-1.321,2.5-3.221,2.5h-4.141Zm0,6.342v-4.941H161.6c2.441,0,3.721.88,3.721,2.4v0.04c0,1.56-1.32,2.5-3.441,2.5h-4.7Zm13.119,0.74a0.771,0.771,0,1,0,1.541,0v-3.521c0-2.981,1.64-4.481,3.641-4.721a0.764,0.764,0,0,0,.68-0.78,0.74,0.74,0,0,0-.76-0.78,4.282,4.282,0,0,0-3.561,2.76v-1.94a0.768,0.768,0,0,0-.78-0.78,0.778,0.778,0,0,0-.761.78v8.982Zm12.882,0.92a5.37,5.37,0,0,0,5.421-5.4v-0.04a5.391,5.391,0,0,0-10.782.04v0.04A5.3,5.3,0,0,0,183.182,150.49Zm0.04-1.38a3.88,3.88,0,0,1-3.821-4.021v-0.04a3.817,3.817,0,0,1,3.781-4,3.913,3.913,0,0,1,3.84,4.041v0.04A3.816,3.816,0,0,1,183.222,149.11Zm11.6,1.3h0.04a0.862,0.862,0,0,0,.84-0.7l2.6-7.542,2.581,7.542a0.862,0.862,0,0,0,.84.7h0.06a0.912,0.912,0,0,0,.84-0.7l3.161-8.762a1.435,1.435,0,0,0,.1-0.42,0.739,0.739,0,0,0-.76-0.72,0.756,0.756,0,0,0-.74.6l-2.641,7.8-2.6-7.782a0.817,0.817,0,0,0-.8-0.62h-0.08a0.789,0.789,0,0,0-.76.62l-2.62,7.782-2.6-7.762a0.808,0.808,0,0,0-.78-0.64,0.76,0.76,0,0,0-.78.74,1.435,1.435,0,0,0,.1.42l3.14,8.742A0.916,0.916,0,0,0,194.822,150.41Zm17.459,0.04c2.061,0,3.681-1.14,3.681-3.1v-0.04c0-1.86-1.72-2.48-3.321-2.96-1.38-.42-2.66-0.8-2.66-1.781v-0.04c0-.86.78-1.5,2-1.5a5.6,5.6,0,0,1,2.7.8,0.773,0.773,0,0,0,.34.08,0.67,0.67,0,0,0,.68-0.66,0.748,0.748,0,0,0-.38-0.64,7.2,7.2,0,0,0-3.3-.88c-2.04,0-3.52,1.18-3.52,2.96v0.04c0,1.9,1.8,2.461,3.42,2.921,1.361,0.38,2.581.78,2.581,1.82v0.04c0,1-.9,1.641-2.141,1.641a5.809,5.809,0,0,1-3.28-1.1,0.615,0.615,0,0,0-.38-0.12,0.67,0.67,0,0,0-.68.66,0.7,0.7,0,0,0,.28.56A7.155,7.155,0,0,0,212.281,150.45Zm7.96-5.941a3.565,3.565,0,0,1,3.36-3.521c2.061,0,3.141,1.64,3.3,3.521h-6.661Zm7.5,4.421a0.664,0.664,0,0,0,.24-0.5,0.664,0.664,0,0,0-1.12-.48,4.227,4.227,0,0,1-2.981,1.2,3.612,3.612,0,0,1-3.64-3.5h7.481a0.717,0.717,0,0,0,.72-0.72c0-2.741-1.74-5.241-4.8-5.241a5.1,5.1,0,0,0-4.961,5.381v0.04a5.141,5.141,0,0,0,5.161,5.381A5.257,5.257,0,0,0,227.742,148.93Zm8.579,1.56a5.2,5.2,0,0,0,3.9-1.66,0.7,0.7,0,0,0,.2-0.48,0.723,0.723,0,0,0-.7-0.7,0.61,0.61,0,0,0-.44.2,4.129,4.129,0,0,1-2.881,1.261,3.864,3.864,0,0,1-3.8-4.021v-0.04a3.816,3.816,0,0,1,3.7-4,3.988,3.988,0,0,1,2.821,1.24,0.8,0.8,0,0,0,.5.18,0.738,0.738,0,0,0,.74-0.74,0.724,0.724,0,0,0-.24-0.54,5.376,5.376,0,0,0-9.1,3.9v0.04A5.31,5.31,0,0,0,236.321,150.49Z" transform="translate(-155.625 -136.25)"/>
</svg>
