<svg width="132" height="132" viewBox="0 0 132 132" xmlns="http://www.w3.org/2000/svg" fill="none"><path d="M66 130c35.346 0 64-28.654 64-64 0-35.346-28.654-64-64-64-35.346 0-64 28.654-64 64 0 35.346 28.654 64 64 64z" fill="#1C304E"/><path fill-rule="evenodd" clip-rule="evenodd" d="M66 41.82c11.779 0 20.974-.899 29.877-5.82 2.778 9.683 4.168 19.753 4.121 29.873 0 35.416-14.283 62.127-33.999 62.127s-33.999-26.711-33.999-62.127c-.046-10.12 1.344-20.189 4.121-29.873 8.904 4.921 18.099 5.82 29.877 5.82z" fill="#3B9946"/><path fill-rule="evenodd" clip-rule="evenodd" d="M13.749 25.673c-8.62 11.152-13.749 25.141-13.749 40.327s5.129 29.174 13.749 40.327c.82 1.06 1.671 2.095 2.553 3.103 12.098 13.833 29.878 22.57 49.698 22.57s37.6-8.737 49.698-22.57c.882-1.008 1.733-2.043 2.553-3.103 8.62-11.153 13.749-25.141 13.749-40.327s-5.129-29.174-13.749-40.327c-.82-1.061-1.671-2.096-2.553-3.104-12.098-13.833-29.877-22.57-49.698-22.57s-37.6 8.737-49.698 22.57c-.882 1.008-1.733 2.043-2.553 3.104zm86.513 11.746c3.166-1.344 6.132-2.872 8.86-4.565 2.203-1.368 4.272-2.858 6.174-4.462 7.593 9.937 12.249 22.238 12.672 35.607h-23.985c-.163-9.501-1.482-18.498-3.721-26.58zm-1.16-3.855c-3.908-12.007-9.92-21.676-17.165-27.497 12.141 3.22 22.82 10.032 30.831 19.228-3.789 3.201-8.41 5.998-13.666 8.269zm28.866 34.435c-.423 13.369-5.079 25.67-12.672 35.607-1.902-1.603-3.971-3.094-6.174-4.461-2.728-1.693-5.694-3.222-8.86-4.565 2.239-8.083 3.558-17.079 3.721-26.58h23.985zm-15.2 38.704c-3.789-3.2-8.41-5.998-13.666-8.269-3.908 12.007-9.92 21.676-17.165 27.498 12.141-3.221 22.82-10.032 30.831-19.229zm-12.786-38.704c-.16 9.014-1.396 17.507-3.465 25.111-8.5-3.074-18.219-4.883-28.517-5.091v-20.02h31.982zm-4.605 28.953c-8.078-2.951-17.409-4.722-27.378-4.932v35.867c7.771-.866 15.389-6.768 21.404-17.215 2.32-4.029 4.339-8.644 5.974-13.72zm-31.378-28.953v20.02c-10.298.208-20.018 2.017-28.517 5.091-2.069-7.604-3.305-16.097-3.465-25.111h31.982zm0 24.021c-9.969.21-19.3 1.981-27.378 4.932 1.635 5.076 3.654 9.691 5.974 13.72 6.015 10.447 13.633 16.349 21.404 17.215v-35.867zm-13.937 33.912c-7.245-5.822-13.257-15.491-17.165-27.498-5.256 2.271-9.877 5.069-13.666 8.269 8.011 9.197 18.69 16.008 30.831 19.229zm-27.184-26.787c2.728-1.693 5.694-3.222 8.86-4.565-2.239-8.083-3.558-17.079-3.721-26.58h-23.985c.424 13.369 5.08 25.67 12.672 35.607 1.902-1.603 3.971-3.094 6.174-4.461zm-6.174-70.753c-7.593 9.937-12.249 22.238-12.672 35.607h23.985c.163-9.501 1.482-18.498 3.721-26.58-3.166-1.344-6.132-2.872-8.86-4.565-2.203-1.368-4.273-2.858-6.174-4.462zm18.779 10.496c-2.069 7.604-3.305 16.096-3.465 25.111h31.982v-20.02c-10.298-.208-20.018-2.017-28.517-5.091zm28.517 1.09c-9.969-.21-19.3-1.981-27.378-4.932 1.635-5.076 3.654-9.691 5.974-13.72 6.015-10.447 13.633-16.349 21.404-17.215v35.867zm4 0v-35.867c7.771.867 15.389 6.769 21.404 17.215 2.32 4.029 4.339 8.644 5.974 13.72-8.078 2.951-17.409 4.722-27.378 4.932zm0 4.001c10.299-.208 20.018-2.017 28.517-5.091 2.069 7.604 3.305 16.096 3.465 25.111h-31.982v-20.02zm-35.102-10.415c-5.256-2.271-9.877-5.069-13.666-8.269 8.011-9.197 18.69-16.008 30.831-19.228-7.246 5.822-13.257 15.491-17.165 27.497z" fill="#fff"/></svg>