<svg xmlns="http://www.w3.org/2000/svg" width="84.813" height="28.875" viewBox="0 0 84.813 28.875">
  <path id="Premium" style="fill: #fff; fill-rule: evenodd;" d="M244.925,182.833a2.261,2.261,0,0,0-.4-0.729,2.311,2.311,0,0,0-.632-0.529,2.535,2.535,0,0,0-.731-0.294,5.088,5.088,0,0,0-.622-0.1c-0.176-.016-0.359-0.024-0.551-0.024H240.1a0.5,0.5,0,0,0-.322.117,0.474,0.474,0,0,0-.143.389v8.162a0.169,0.169,0,0,0,.027.1,0.183,0.183,0,0,0,.1.065,1.078,1.078,0,0,0,.181.041,2.372,2.372,0,0,0,.567,0,0.97,0.97,0,0,0,.178-0.041,0.212,0.212,0,0,0,.1-0.065,0.158,0.158,0,0,0,.031-0.1v-3.185h1.005a4.341,4.341,0,0,0,1.411-.205,2.813,2.813,0,0,0,1-.581,2.533,2.533,0,0,0,.626-0.91,3.139,3.139,0,0,0,.218-1.2A2.81,2.81,0,0,0,244.925,182.833Zm-1.22,1.743a1.6,1.6,0,0,1-.362.581,1.661,1.661,0,0,1-.592.379,2.463,2.463,0,0,1-.885.137h-1.059v-3.548h1.087a4.139,4.139,0,0,1,.618.048,1.686,1.686,0,0,1,.615.225,1.4,1.4,0,0,1,.5.54,1.833,1.833,0,0,1,.2.9A2.139,2.139,0,0,1,243.705,184.576Zm6.831-.745a0.942,0.942,0,0,0-.014-0.141,0.429,0.429,0,0,0-.024-0.078,0.183,0.183,0,0,0-.055-0.065,0.441,0.441,0,0,0-.14-0.068,2.084,2.084,0,0,0-.458-0.1c-0.075-.006-0.142-0.01-0.2-0.01a1.536,1.536,0,0,0-.393.051,1.333,1.333,0,0,0-.394.185,2.629,2.629,0,0,0-.42.366,4.87,4.87,0,0,0-.475.6v-0.9a0.172,0.172,0,0,0-.024-0.093,0.218,0.218,0,0,0-.079-0.068,0.409,0.409,0,0,0-.153-0.041,2.487,2.487,0,0,0-.25-0.01,2.446,2.446,0,0,0-.253.01,0.477,0.477,0,0,0-.157.041,0.187,0.187,0,0,0-.082.068,0.191,0.191,0,0,0-.021.093v6.152a0.166,0.166,0,0,0,.024.092,0.189,0.189,0,0,0,.089.065,0.684,0.684,0,0,0,.175.041,2.268,2.268,0,0,0,.273.014,2.348,2.348,0,0,0,.28-0.014,0.629,0.629,0,0,0,.171-0.041,0.212,0.212,0,0,0,.089-0.065,0.152,0.152,0,0,0,.027-0.092v-4.047q0.24-.375.438-0.636a2.806,2.806,0,0,1,.379-0.417,1.346,1.346,0,0,1,.345-0.225,0.858,0.858,0,0,1,.335-0.068,1.245,1.245,0,0,1,.267.027c0.082,0.018.156,0.037,0.222,0.058s0.125,0.041.178,0.062a0.386,0.386,0,0,0,.133.03,0.118,0.118,0,0,0,.086-0.03,0.257,0.257,0,0,0,.051-0.089,0.6,0.6,0,0,0,.027-0.161c0-.068.007-0.153,0.007-0.253S250.538,183.892,250.536,183.831Zm6.564,2.45a4.056,4.056,0,0,0-.154-1.131,2.52,2.52,0,0,0-.482-0.923,2.337,2.337,0,0,0-.837-0.625,2.96,2.96,0,0,0-1.234-.233,3.064,3.064,0,0,0-1.224.236,2.574,2.574,0,0,0-.933.677,3,3,0,0,0-.591,1.073,4.6,4.6,0,0,0-.205,1.425,4.881,4.881,0,0,0,.2,1.463,2.68,2.68,0,0,0,.588,1.046,2.46,2.46,0,0,0,.96.629,3.822,3.822,0,0,0,1.33.212,4.993,4.993,0,0,0,.823-0.065,6.5,6.5,0,0,0,.681-0.147,3.178,3.178,0,0,0,.478-0.168,0.926,0.926,0,0,0,.222-0.123,0.4,0.4,0,0,0,.062-0.078,0.307,0.307,0,0,0,.034-0.092c0.007-.035.012-0.073,0.017-0.117a1.359,1.359,0,0,0,.007-0.153,2,2,0,0,0-.01-0.209,0.533,0.533,0,0,0-.031-0.133,0.158,0.158,0,0,0-.059-0.072,0.154,0.154,0,0,0-.086-0.024,0.667,0.667,0,0,0-.243.072c-0.108.048-.245,0.1-0.413,0.16a4.525,4.525,0,0,1-.594.161,3.839,3.839,0,0,1-.783.072,2.486,2.486,0,0,1-.941-0.157,1.549,1.549,0,0,1-.625-0.452,1.778,1.778,0,0,1-.344-0.7,3.824,3.824,0,0,1-.1-0.922h4.052a0.464,0.464,0,0,0,.306-0.113,0.474,0.474,0,0,0,.134-0.38v-0.2Zm-4.492-.13a2.553,2.553,0,0,1,.131-0.721,1.911,1.911,0,0,1,.33-0.605,1.6,1.6,0,0,1,.53-0.417,1.631,1.631,0,0,1,.736-0.157,1.506,1.506,0,0,1,1.234.506,2.049,2.049,0,0,1,.4,1.394h-3.357Zm15.543-.212a4.5,4.5,0,0,0-.105-0.987,2.244,2.244,0,0,0-.356-0.817,1.8,1.8,0,0,0-.653-0.557,2.155,2.155,0,0,0-1-.209,1.9,1.9,0,0,0-.489.065,2.172,2.172,0,0,0-.5.209,3.461,3.461,0,0,0-.533.376,6.45,6.45,0,0,0-.584.567,2.2,2.2,0,0,0-.274-0.5,1.654,1.654,0,0,0-.4-0.382,1.819,1.819,0,0,0-.537-0.25,2.46,2.46,0,0,0-.687-0.089,2.024,2.024,0,0,0-.988.27,3.992,3.992,0,0,0-1.008.851v-0.813a0.172,0.172,0,0,0-.024-0.093,0.222,0.222,0,0,0-.078-0.068,0.421,0.421,0,0,0-.154-0.041,2.474,2.474,0,0,0-.25-0.01,2.446,2.446,0,0,0-.253.01,0.477,0.477,0,0,0-.157.041,0.187,0.187,0,0,0-.082.068,0.191,0.191,0,0,0-.02.093v6.152a0.165,0.165,0,0,0,.023.092,0.189,0.189,0,0,0,.089.065,0.7,0.7,0,0,0,.175.041,2.268,2.268,0,0,0,.273.014,2.348,2.348,0,0,0,.28-0.014,0.629,0.629,0,0,0,.171-0.041,0.212,0.212,0,0,0,.089-0.065,0.152,0.152,0,0,0,.027-0.092v-4.3a5.15,5.15,0,0,1,.862-0.882,1.3,1.3,0,0,1,.786-0.3,1.131,1.131,0,0,1,.543.123,1.031,1.031,0,0,1,.38.355,1.749,1.749,0,0,1,.225.554,3.126,3.126,0,0,1,.076.711v3.739a0.165,0.165,0,0,0,.023.092,0.189,0.189,0,0,0,.089.065,0.7,0.7,0,0,0,.178.041,2.649,2.649,0,0,0,.544,0,0.7,0.7,0,0,0,.174-0.041,0.211,0.211,0,0,0,.092-0.065,0.152,0.152,0,0,0,.027-0.092v-4.3a5.465,5.465,0,0,1,.865-0.882,1.289,1.289,0,0,1,.783-0.3,1.156,1.156,0,0,1,.547.123,1.024,1.024,0,0,1,.383.355,1.634,1.634,0,0,1,.218.554,3.389,3.389,0,0,1,.069.711v3.739a0.152,0.152,0,0,0,.027.092,0.211,0.211,0,0,0,.092.065,0.7,0.7,0,0,0,.175.041,2.348,2.348,0,0,0,.28.014,2.28,2.28,0,0,0,.273-0.014,0.629,0.629,0,0,0,.171-0.041,0.212,0.212,0,0,0,.089-0.065,0.152,0.152,0,0,0,.027-0.092v-3.89Zm3.4-2.262a0.158,0.158,0,0,0-.027-0.089,0.206,0.206,0,0,0-.089-0.068,0.594,0.594,0,0,0-.171-0.041,2.154,2.154,0,0,0-.28-0.014,2.094,2.094,0,0,0-.274.014,0.636,0.636,0,0,0-.174.041,0.18,0.18,0,0,0-.089.068,0.172,0.172,0,0,0-.024.089v6.152a0.166,0.166,0,0,0,.024.092,0.189,0.189,0,0,0,.089.065,0.675,0.675,0,0,0,.174.041,2.286,2.286,0,0,0,.274.014,2.348,2.348,0,0,0,.28-0.014,0.629,0.629,0,0,0,.171-0.041,0.219,0.219,0,0,0,.089-0.065,0.152,0.152,0,0,0,.027-0.092v-6.152Zm-0.017-2.608a0.792,0.792,0,0,0-.544-0.14,0.811,0.811,0,0,0-.553.143,0.74,0.74,0,0,0-.151.54,0.728,0.728,0,0,0,.147.53,0.792,0.792,0,0,0,.544.14,0.814,0.814,0,0,0,.554-0.143,0.745,0.745,0,0,0,.15-0.54A0.728,0.728,0,0,0,271.53,181.069Zm7.583,2.608a0.147,0.147,0,0,0-.031-0.093,0.3,0.3,0,0,0-.093-0.068,0.509,0.509,0,0,0-.17-0.041c-0.073-.007-0.165-0.01-0.274-0.01s-0.206,0-.277.01a0.578,0.578,0,0,0-.174.041,0.207,0.207,0,0,0-.092.068,0.172,0.172,0,0,0-.024.093v4.3a4.81,4.81,0,0,1-.892.881,1.443,1.443,0,0,1-.845.3,1.245,1.245,0,0,1-.574-0.126,1.115,1.115,0,0,1-.407-0.356,1.625,1.625,0,0,1-.239-0.553,3.848,3.848,0,0,1-.078-0.865v-3.582a0.158,0.158,0,0,0-.028-0.093,0.242,0.242,0,0,0-.092-0.068,0.549,0.549,0,0,0-.174-0.041c-0.073-.007-0.164-0.01-0.274-0.01s-0.2,0-.273.01a0.592,0.592,0,0,0-.178.041,0.207,0.207,0,0,0-.092.068,0.172,0.172,0,0,0-.024.093v3.732a4.883,4.883,0,0,0,.113,1.138,2.251,2.251,0,0,0,.372.821,1.829,1.829,0,0,0,.68.557,2.35,2.35,0,0,0,1.036.2,2.228,2.228,0,0,0,1.039-.267,3.82,3.82,0,0,0,1.039-.847v0.813a0.184,0.184,0,0,0,.021.092,0.158,0.158,0,0,0,.078.065,0.561,0.561,0,0,0,.157.041,1.965,1.965,0,0,0,.257.014,1.814,1.814,0,0,0,.242-0.014,0.615,0.615,0,0,0,.161-0.041,0.189,0.189,0,0,0,.086-0.065,0.174,0.174,0,0,0,.024-0.092v-6.152Zm11.42,2.262a4.438,4.438,0,0,0-.106-0.987,2.226,2.226,0,0,0-.355-0.817,1.8,1.8,0,0,0-.653-0.557,2.155,2.155,0,0,0-1-.209,1.9,1.9,0,0,0-.489.065,2.172,2.172,0,0,0-.5.209,3.461,3.461,0,0,0-.533.376,6.45,6.45,0,0,0-.584.567,2.2,2.2,0,0,0-.274-0.5,1.654,1.654,0,0,0-.4-0.382,1.819,1.819,0,0,0-.537-0.25,2.46,2.46,0,0,0-.687-0.089,2.024,2.024,0,0,0-.988.27,3.992,3.992,0,0,0-1.008.851v-0.813a0.172,0.172,0,0,0-.024-0.093,0.218,0.218,0,0,0-.079-0.068,0.409,0.409,0,0,0-.153-0.041,2.474,2.474,0,0,0-.25-0.01,2.446,2.446,0,0,0-.253.01,0.477,0.477,0,0,0-.157.041,0.187,0.187,0,0,0-.082.068,0.191,0.191,0,0,0-.021.093v6.152a0.166,0.166,0,0,0,.024.092,0.189,0.189,0,0,0,.089.065,0.7,0.7,0,0,0,.175.041,2.268,2.268,0,0,0,.273.014,2.348,2.348,0,0,0,.28-0.014,0.629,0.629,0,0,0,.171-0.041,0.212,0.212,0,0,0,.089-0.065,0.152,0.152,0,0,0,.027-0.092v-4.3a5.15,5.15,0,0,1,.862-0.882,1.3,1.3,0,0,1,.786-0.3,1.131,1.131,0,0,1,.543.123,1.031,1.031,0,0,1,.38.355,1.749,1.749,0,0,1,.225.554,3.128,3.128,0,0,1,.075.711v3.739a0.166,0.166,0,0,0,.024.092,0.189,0.189,0,0,0,.089.065,0.7,0.7,0,0,0,.178.041,2.3,2.3,0,0,0,.27.014,2.268,2.268,0,0,0,.273-0.014,0.7,0.7,0,0,0,.175-0.041,0.211,0.211,0,0,0,.092-0.065,0.152,0.152,0,0,0,.027-0.092v-4.3a5.465,5.465,0,0,1,.865-0.882,1.289,1.289,0,0,1,.783-0.3,1.156,1.156,0,0,1,.547.123,1.024,1.024,0,0,1,.383.355,1.634,1.634,0,0,1,.218.554,3.389,3.389,0,0,1,.069.711v3.739a0.152,0.152,0,0,0,.027.092,0.211,0.211,0,0,0,.092.065,0.7,0.7,0,0,0,.175.041,2.336,2.336,0,0,0,.28.014,2.28,2.28,0,0,0,.273-0.014,0.629,0.629,0,0,0,.171-0.041,0.212,0.212,0,0,0,.089-0.065,0.152,0.152,0,0,0,.027-0.092v-3.89Z" transform="translate(-206.625 -161.25)"/>
  <path id="Browsec" style="fill: #fff; fill-rule: evenodd;" d="M206.621,174.45a0.8,0.8,0,0,0,.78.8h5.441c3.061,0,5.081-1.42,5.081-3.821v-0.04c0-1.92-1.34-2.88-3-3.381a3.379,3.379,0,0,0,2.22-3.24v-0.04a3.112,3.112,0,0,0-.9-2.241,5.145,5.145,0,0,0-3.661-1.24H207.4a0.8,0.8,0,0,0-.78.8v12.4Zm1.56-6.962v-4.821h4.261c2,0,3.1.9,3.1,2.281v0.04c0,1.64-1.321,2.5-3.221,2.5h-4.141Zm0,6.342v-4.941H212.6c2.441,0,3.721.88,3.721,2.4v0.04c0,1.56-1.32,2.5-3.441,2.5h-4.7Zm13.119,0.74a0.771,0.771,0,1,0,1.541,0v-3.521c0-2.981,1.64-4.481,3.641-4.721a0.764,0.764,0,0,0,.68-0.78,0.74,0.74,0,0,0-.76-0.78,4.282,4.282,0,0,0-3.561,2.76v-1.94a0.768,0.768,0,0,0-.78-0.78,0.778,0.778,0,0,0-.761.78v8.982Zm12.882,0.92a5.37,5.37,0,0,0,5.421-5.4v-0.04a5.391,5.391,0,0,0-10.782.04v0.04A5.3,5.3,0,0,0,234.182,175.49Zm0.04-1.38a3.88,3.88,0,0,1-3.821-4.021v-0.04a3.817,3.817,0,0,1,3.781-4,3.913,3.913,0,0,1,3.84,4.041v0.04A3.816,3.816,0,0,1,234.222,174.11Zm11.6,1.3h0.04a0.862,0.862,0,0,0,.84-0.7l2.6-7.542,2.581,7.542a0.862,0.862,0,0,0,.84.7h0.06a0.912,0.912,0,0,0,.84-0.7l3.161-8.762a1.435,1.435,0,0,0,.1-0.42,0.739,0.739,0,0,0-.76-0.72,0.756,0.756,0,0,0-.74.6l-2.641,7.8-2.6-7.782a0.817,0.817,0,0,0-.8-0.62h-0.08a0.789,0.789,0,0,0-.76.62l-2.62,7.782-2.6-7.762a0.808,0.808,0,0,0-.78-0.64,0.76,0.76,0,0,0-.78.74,1.435,1.435,0,0,0,.1.42l3.14,8.742A0.916,0.916,0,0,0,245.822,175.41Zm17.459,0.04c2.061,0,3.681-1.14,3.681-3.1v-0.04c0-1.86-1.72-2.48-3.321-2.96-1.38-.42-2.66-0.8-2.66-1.781v-0.04c0-.86.78-1.5,2-1.5a5.6,5.6,0,0,1,2.7.8,0.773,0.773,0,0,0,.34.08,0.67,0.67,0,0,0,.68-0.66,0.748,0.748,0,0,0-.38-0.64,7.2,7.2,0,0,0-3.3-.88c-2.04,0-3.52,1.18-3.52,2.96v0.04c0,1.9,1.8,2.461,3.42,2.921,1.361,0.38,2.581.78,2.581,1.82v0.04c0,1-.9,1.641-2.141,1.641a5.809,5.809,0,0,1-3.28-1.1,0.615,0.615,0,0,0-.38-0.12,0.67,0.67,0,0,0-.68.66,0.7,0.7,0,0,0,.28.56A7.155,7.155,0,0,0,263.281,175.45Zm7.96-5.941a3.565,3.565,0,0,1,3.36-3.521c2.061,0,3.141,1.64,3.3,3.521h-6.661Zm7.5,4.421a0.664,0.664,0,0,0,.24-0.5,0.664,0.664,0,0,0-1.12-.48,4.227,4.227,0,0,1-2.981,1.2,3.612,3.612,0,0,1-3.64-3.5h7.481a0.717,0.717,0,0,0,.72-0.72c0-2.741-1.74-5.241-4.8-5.241a5.1,5.1,0,0,0-4.961,5.381v0.04a5.141,5.141,0,0,0,5.161,5.381A5.257,5.257,0,0,0,278.742,173.93Zm8.579,1.56a5.2,5.2,0,0,0,3.9-1.66,0.7,0.7,0,0,0,.2-0.48,0.723,0.723,0,0,0-.7-0.7,0.61,0.61,0,0,0-.44.2,4.129,4.129,0,0,1-2.881,1.261,3.864,3.864,0,0,1-3.8-4.021v-0.04a3.816,3.816,0,0,1,3.7-4,3.988,3.988,0,0,1,2.821,1.24,0.8,0.8,0,0,0,.5.18,0.738,0.738,0,0,0,.74-0.74,0.724,0.724,0,0,0-.24-0.54,5.376,5.376,0,0,0-9.1,3.9v0.04A5.31,5.31,0,0,0,287.321,175.49Z" transform="translate(-206.625 -161.25)"/>
</svg>
