<svg xmlns="http://www.w3.org/2000/svg" xmlns:xlink="http://www.w3.org/1999/xlink"><symbol viewBox="0 0 45 45" id="symbol_american_express" xmlns="http://www.w3.org/2000/svg"><g fill="none"><path d="M44.9 24.32V.02H0v44.9h44.9v-13.1c-.1 0 0-7.5 0-7.5" fill="#006FCF"/><path d="M39.4 21.82h3.4v-7.9h-3.7v1.1l-.7-1.1h-3.2v1.4l-.6-1.4h-5.9c-.2 0-.4.1-.6.1-.2 0-.3.1-.5.2s-.3.1-.5.2v-.5H10.2l-.5 1.3-.5-1.3h-4v1.4l-.6-1.4H1.4L0 17.32v4.5h2.3l.4-1.1h.8l.4 1.1h17.6v-1l.7 1h4.9v-.6c.1.1.3.1.4.2.1.1.3.1.4.2.2.1.4.1.6.1h3.6l.4-1.1h.8l.4 1.1h4.9v-1l.8 1.1zm5.5 10v-7.4H17.4l-.7 1-.7-1H8v7.9h8l.7-1 .7 1h5v-1.7h-.2c.7 0 1.3-.1 1.8-.3v2.1h3.6v-1l.7 1h14.9c.6-.2 1.2-.3 1.7-.6z" fill="#FFF"/><path d="M43.2 29.92h-2.7v1.1h2.6c1.1 0 1.8-.7 1.8-1.7s-.6-1.5-1.6-1.5h-1.2c-.3 0-.5-.2-.5-.5s.2-.5.5-.5h2.3l.5-1.1h-2.7c-1.1 0-1.8.7-1.8 1.6 0 1 .6 1.5 1.6 1.5h1.2c.3 0 .5.2.5.5.1.4-.1.6-.5.6zm-4.9 0h-2.7v1.1h2.6c1.1 0 1.8-.7 1.8-1.7s-.6-1.5-1.6-1.5h-1.2c-.3 0-.5-.2-.5-.5s.2-.5.5-.5h2.3l.5-1.1h-2.7c-1.1 0-1.8.7-1.8 1.6 0 1 .6 1.5 1.6 1.5h1.2c.3 0 .5.2.5.5.1.4-.2.6-.5.6zm-3.5-3.2v-1.1h-4.2v5.3h4.2v-1.1h-3v-1.1h2.9v-1.1h-2.9v-1h3v.1zm-6.8 0c.5 0 .7.3.7.6s-.2.6-.7.6h-1.5v-1.3l1.5.1zm-1.5 2.3h.6l1.6 1.9h1.5l-1.8-2c.9-.2 1.4-.8 1.4-1.6 0-1-.7-1.7-1.8-1.7h-2.8v5.3h1.2l.1-1.9zm-3.2-1.6c0 .4-.2.7-.7.7H21v-1.4h1.5c.5 0 .8.3.8.7zm-3.5-1.8v5.3H21v-1.8h1.6c1.1 0 1.9-.7 1.9-1.8 0-1-.7-1.8-1.8-1.8l-2.9.1zm-1.8 5.3h1.5l-2.1-2.7 2.1-2.6H18l-1.3 1.7-1.3-1.7h-1.5l2.1 2.6-2.1 2.6h1.5l1.3-1.7 1.3 1.8zm-4.5-4.2v-1.1H9.3v5.3h4.2v-1.1h-3v-1.1h2.9v-1.1h-2.9v-1h3v.1zm24.3-9.4l2.1 3.2h1.5v-5.3h-1.2v3.5l-.3-.5-1.9-3h-1.6v5.3h1.2v-3.6l.2.4zm-5.2-.1l.4-1.1.4 1.1.5 1.2h-1.8l.5-1.2zm2.1 3.3H36l-2.3-5.3h-1.6l-2.3 5.3h1.3l.5-1.1h2.6l.5 1.1zm-5.6 0l.5-1.1h-.3c-.9 0-1.4-.6-1.4-1.5v-.1c0-.9.5-1.5 1.4-1.5h1.3v-1.1h-1.4c-1.6 0-2.5 1.1-2.5 2.6v.1c0 1.6.9 2.6 2.4 2.6zm-4.5 0h1.2v-5.2h-1.2v5.2zm-2.6-4.2c.5 0 .7.3.7.6s-.2.6-.7.6h-1.5v-1.3l1.5.1zm-1.5 2.3h.6l1.6 1.9h1.5l-1.8-2c.9-.2 1.4-.8 1.4-1.6 0-1-.7-1.7-1.8-1.7h-2.8v5.3h1.2l.1-1.9zm-2.2-2.3v-1.1h-4.2v5.3h4.2v-1.1h-3v-1.1h2.9v-1.1h-2.9v-1h3v.1zm-9.1 4.2h1.1l1.5-4.3v4.3H13v-5.3h-2l-1.2 3.6-1.2-3.6h-2v5.3h1.2v-4.3l1.4 4.3zm-6.5-3.3l.4-1.1.4 1.1.5 1.2H2.2l.5-1.2zm2.1 3.3h1.3l-2.3-5.3H2.3L0 20.52h1.3l.5-1.1h2.6l.4 1.1z" fill="#006FCF"/></g></symbol><symbol viewBox="0 0 300 180" id="symbol_mastercard" xmlns="http://www.w3.org/2000/svg"><path d="M298.032 90.5c.014 48.936-39.646 88.614-88.582 88.627-48.937.012-88.614-39.646-88.627-88.582V90.5c-.013-48.935 39.647-88.615 88.581-88.628 48.937-.013 88.615 39.647 88.628 88.583v.045z" fill="#f90"/><path d="M90.001 1.895C41.355 2.204 1.967 41.781 1.967 90.5c0 48.909 39.695 88.604 88.605 88.604 22.955 0 43.879-8.748 59.624-23.086l-.007-.004h.019a89.437 89.437 0 008.995-9.488H141.05a86.536 86.536 0 01-6.606-9.127h31.308a88.75 88.75 0 005.158-9.488h-41.635a87.392 87.392 0 01-3.703-9.309h49.045a88.388 88.388 0 004.56-28.103c0-6.512-.706-12.861-2.042-18.974h-54.164a88.347 88.347 0 012.528-9.308h49.063a88.618 88.618 0 00-3.82-9.487H129.27a85.013 85.013 0 015.084-9.307h31.285a88.798 88.798 0 00-6.877-9.488h-17.443a82.232 82.232 0 018.889-8.95c-15.746-14.34-36.676-23.09-59.636-23.09h-.571z" fill="#c00"/><path d="M289.143 136.82c.482 0 .951.125 1.409.371.46.246.814.601 1.07 1.062.256.456.384.937.384 1.435 0 .492-.127.968-.379 1.424-.251.455-.605.81-1.061 1.063-.451.249-.928.375-1.424.375s-.972-.126-1.426-.375a2.71 2.71 0 01-1.063-1.063 2.908 2.908 0 01-.377-1.424c0-.498.127-.979.384-1.435a2.663 2.663 0 011.071-1.062 2.97 2.97 0 011.412-.371m0 .475c-.401 0-.793.104-1.176.311-.38.207-.677.5-.891.888a2.378 2.378 0 00-.325 1.194c0 .412.106.81.315 1.188.214.377.51.673.888.885.381.211.776.315 1.188.315.414 0 .81-.104 1.189-.315.378-.212.673-.508.884-.885a2.392 2.392 0 00-.008-2.382 2.179 2.179 0 00-.894-.888 2.402 2.402 0 00-1.17-.311m-1.256 3.975v-3.082h1.062c.36 0 .622.028.784.088a.758.758 0 01.388.297.813.813 0 01-.098 1.039.949.949 0 01-.639.281.896.896 0 01.264.164c.125.12.275.323.455.61l.375.603h-.606l-.272-.485c-.215-.382-.388-.62-.521-.718-.091-.069-.224-.105-.397-.105h-.293v1.311h-.5m.496-1.738h.604c.288 0 .483-.044.588-.129a.421.421 0 00.159-.342.404.404 0 00-.075-.244.466.466 0 00-.213-.162c-.089-.035-.255-.055-.497-.055h-.564v.932" fill="#fcb340"/><g><path d="M119.975 115.92l1.18-8.02c-.645 0-1.593.279-2.431.279-3.284 0-3.694-1.755-3.436-3.037l3.236-16.13h4.992l1.029-9.103h-4.705l.958-5.516h-9.842c-.208.208-5.568 31.022-5.568 34.776 0 5.555 3.118 8.027 7.516 7.988 3.442-.03 6.125-.982 7.071-1.237zm2.987-15.288c0 13.332 8.799 16.499 16.297 16.499 6.921 0 10.55-1.604 10.55-1.604l1.662-9.1s-5.848 2.378-10.601 2.378c-10.131 0-8.355-7.554-8.355-7.554l19.463.059s1.239-6.111 1.239-8.602c0-6.217-3.387-13.85-13.745-13.85-9.486.003-16.51 10.224-16.51 21.774zm16.546-13.325c5.324 0 4.342 5.984 4.342 6.469h-10.474c0-.62.989-6.47 6.132-6.47zm59.738 28.61l1.689-10.284s-4.632 2.32-7.807 2.32c-6.693 0-9.378-5.11-9.378-10.6 0-11.137 5.758-17.265 12.168-17.265 4.808 0 8.665 2.699 8.665 2.699l1.54-9.993s-4.554-3.29-9.456-3.308c-14.745-.058-23.182 10.208-23.182 27.955 0 11.763 6.248 19.768 17.506 19.768 3.183 0 8.255-1.292 8.255-1.292zM68.086 79.006c-6.47 0-11.427 2.079-11.427 2.079l-1.37 8.127s4.093-1.663 10.28-1.663c3.514 0 6.084.395 6.084 3.25 0 1.734-.314 2.374-.314 2.374s-2.772-.231-4.056-.231c-9.21 0-16.729 3.482-16.729 13.98 0 8.273 5.623 10.17 9.108 10.17 6.657 0 9.292-4.203 9.444-4.215l-.077 3.488h8.307l3.706-25.98c0-11.025-9.616-11.38-12.956-11.38zm1.438 21.096c.18 1.586-.41 9.086-6.092 9.086-2.93 0-3.691-2.24-3.691-3.562 0-2.584 1.403-5.683 8.315-5.683 1.61 0 1.197.116 1.468.159zM89.87 116.9c2.126 0 14.273.54 14.273-11.994 0-11.721-11.244-9.404-11.244-14.114 0-2.342 1.833-3.08 5.184-3.08 1.329 0 6.447.423 6.447.423l1.189-8.33s-3.312-.741-8.704-.741c-6.98 0-14.063 2.786-14.063 12.318 0 10.802 11.812 9.717 11.812 14.267 0 3.037-3.3 3.287-5.844 3.287-4.401 0-8.363-1.511-8.377-1.438l-1.26 8.245c.23.07 2.675 1.157 10.588 1.157zm187.193-45.451l-1.705 12.709s-3.553-4.905-9.112-4.905c-10.459 0-15.849 10.423-15.849 22.396 0 7.73 3.844 15.307 11.699 15.307 5.651 0 8.784-3.941 8.784-3.941l-.415 3.365h9.178l7.207-44.862-9.787-.07zm-4.052 24.7c0 4.984-2.468 11.64-7.581 11.64-3.396 0-4.988-2.85-4.988-7.323 0-7.315 3.285-12.14 7.432-12.14 3.394 0 5.137 2.33 5.137 7.824zM17.005 116.417l5.743-33.87.844 33.87h6.499l12.125-33.87-5.371 33.87h9.658l7.437-44.922-15.342-.117-9.126 27.504-.25-27.387h-14.06l-7.544 44.922h9.387z" fill="#006"/><path d="M162.357 116.48c2.746-15.614 3.724-27.946 11.732-25.392 1.15-6.044 3.891-11.3 5.143-13.858 0 0-.396-.59-2.871-.59-4.225 0-9.866 8.575-9.866 8.575l.843-5.301h-8.786l-5.884 36.566h9.689zm56.649-37.474c-6.472 0-11.43 2.079-11.43 2.079l-1.369 8.127s4.095-1.663 10.28-1.663c3.514 0 6.083.395 6.083 3.25 0 1.734-.313 2.374-.313 2.374s-2.77-.231-4.055-.231c-9.21 0-16.729 3.482-16.729 13.98 0 8.273 5.622 10.17 9.107 10.17 6.655 0 9.292-4.203 9.443-4.215l-.078 3.488h8.31l3.704-25.98c.001-11.025-9.615-11.38-12.953-11.38zm1.436 21.096c.18 1.586-.411 9.086-6.092 9.086-2.932 0-3.692-2.24-3.692-3.562 0-2.584 1.402-5.683 8.315-5.683 1.611 0 1.199.116 1.469.159zm21.08 16.378c1.508-11.487 4.299-27.615 11.731-25.392 1.149-6.044.041-6.028-2.433-6.028-4.228 0-5.164.154-5.164.154l.844-5.301h-8.785l-5.884 36.567h9.69z" fill="#006"/><g><path d="M122.434 113.059l1.181-8.019c-.645 0-1.594.276-2.431.276-3.284 0-3.646-1.746-3.437-3.037l2.653-16.362h4.991l1.205-8.87h-4.706l.958-5.516h-9.434c-.208.208-5.569 31.023-5.569 34.775 0 5.555 3.119 8.029 7.517 7.989 3.444-.029 6.126-.982 7.072-1.236zm2.989-15.289c0 13.332 8.8 16.5 16.297 16.5 6.92 0 9.965-1.547 9.965-1.547l1.662-9.099s-5.264 2.319-10.018 2.319c-10.13 0-8.356-7.553-8.356-7.553h19.172s1.238-6.113 1.238-8.604c0-6.216-3.094-13.79-13.452-13.79-9.486.002-16.508 10.223-16.508 21.774zm16.544-13.325c5.324 0 4.342 5.983 4.342 6.467h-10.474c0-.618.99-6.467 6.132-6.467zm59.74 28.61l1.688-10.285s-4.629 2.321-7.806 2.321c-6.692 0-9.376-5.11-9.376-10.6 0-11.137 5.758-17.264 12.168-17.264 4.807 0 8.665 2.699 8.665 2.699l1.54-9.993s-5.721-2.315-10.625-2.315c-10.891 0-21.486 9.448-21.486 27.192 0 11.766 5.721 19.537 16.979 19.537 3.183.001 8.253-1.292 8.253-1.292zM70.547 76.143c-6.469 0-11.428 2.079-11.428 2.079l-1.369 8.127s4.093-1.663 10.28-1.663c3.513 0 6.083.395 6.083 3.25 0 1.734-.315 2.374-.315 2.374s-2.771-.232-4.054-.232c-8.159 0-16.73 3.482-16.73 13.98 0 8.272 5.623 10.17 9.108 10.17 6.656 0 9.525-4.319 9.678-4.332l-.311 3.605h8.307l3.706-25.981c0-11.022-9.615-11.377-12.955-11.377zm2.021 21.154c.18 1.587-.995 9.026-6.675 9.026-2.93 0-3.692-2.238-3.692-3.562 0-2.582 1.403-5.682 8.316-5.682 1.608.002 1.78.174 2.051.218zm19.763 16.741c2.125 0 14.273.54 14.273-11.995 0-11.719-11.245-9.404-11.245-14.112 0-2.344 1.833-3.082 5.183-3.082 1.33 0 6.447.423 6.447.423l1.19-8.33c0 .001-3.312-.741-8.704-.741-6.979 0-14.063 2.786-14.063 12.318 0 10.801 11.812 9.717 11.812 14.267 0 3.037-3.3 3.284-5.843 3.284-4.401 0-8.364-1.51-8.378-1.438l-1.258 8.246c.228.07 2.672 1.16 10.586 1.16zm187.521-45.37l-2.035 12.627s-3.551-4.905-9.11-4.905c-8.644 0-15.849 10.422-15.849 22.397 0 7.73 3.843 15.304 11.699 15.304 5.651 0 8.784-3.94 8.784-3.94l-.415 3.365h9.176l7.207-44.863-9.457.015zm-4.381 24.62c0 4.983-2.467 11.639-7.582 11.639-3.395 0-4.986-2.85-4.986-7.323 0-7.314 3.285-12.14 7.43-12.14 3.396-.001 5.138 2.332 5.138 7.824zM19.466 113.555l5.743-33.87.843 33.87h6.5l12.125-33.87-5.371 33.87h9.658l7.438-44.923H41.467l-9.301 27.563-.484-27.563H17.915l-7.545 44.923h9.096zm145.352.062c2.746-15.616 3.255-28.296 9.808-25.975 1.147-6.044 2.254-8.382 3.506-10.94 0 0-.587-.123-1.819-.123-4.225 0-7.355 5.772-7.355 5.772l.841-5.301h-8.784l-5.885 36.567h9.688zm58.657-37.474c-6.469 0-11.428 2.079-11.428 2.079l-1.368 8.127s4.093-1.663 10.28-1.663c3.513 0 6.081.395 6.081 3.25 0 1.734-.313 2.374-.313 2.374s-2.77-.232-4.055-.232c-8.158 0-16.729 3.482-16.729 13.98 0 8.272 5.622 10.17 9.107 10.17 6.656 0 9.525-4.319 9.677-4.332l-.309 3.605h8.307l3.705-25.981c.001-11.022-9.615-11.377-12.955-11.377zm2.024 21.154c.18 1.587-.996 9.026-6.678 9.026-2.93 0-3.69-2.238-3.69-3.562 0-2.582 1.403-5.682 8.315-5.682 1.608.002 1.78.174 2.053.218zm18.524 16.32c2.747-15.616 3.256-28.296 9.807-25.975 1.149-6.044 2.257-8.382 3.508-10.94 0 0-.587-.123-1.82-.123-4.224 0-7.354 5.772-7.354 5.772l.84-5.301h-8.783l-5.885 36.567h9.687zm45.082-5.642c.479 0 .951.123 1.406.373.459.242.816.598 1.072 1.059.257.458.383.935.383 1.434 0 .493-.126.969-.379 1.424a2.655 2.655 0 01-1.059 1.063c-.454.25-.93.376-1.424.376-.498 0-.974-.126-1.429-.376a2.678 2.678 0 01-1.058-1.063 2.865 2.865 0 01-.381-1.424c0-.499.127-.976.384-1.434a2.63 2.63 0 011.073-1.059c.461-.25.933-.373 1.412-.373m0 .472c-.401 0-.793.104-1.176.313a2.183 2.183 0 00-.894.885c-.214.381-.322.78-.322 1.194s.104.81.313 1.188c.213.377.509.673.891.886.378.208.773.313 1.188.313.412 0 .81-.105 1.188-.313.378-.213.674-.509.884-.886.211-.381.314-.774.314-1.188s-.107-.813-.321-1.194a2.16 2.16 0 00-.894-.885 2.408 2.408 0 00-1.171-.313m-1.255 3.976v-3.083h1.061c.361 0 .625.029.785.088a.756.756 0 01.388.297.784.784 0 01.146.451.817.817 0 01-.244.588.934.934 0 01-.637.28.946.946 0 01.262.163c.123.122.275.326.455.611l.377.604h-.609l-.271-.485c-.216-.383-.389-.621-.521-.718-.091-.071-.224-.106-.399-.106h-.291v1.311l-.502-.001m.498-1.735h.604c.289 0 .484-.043.588-.129a.418.418 0 00.16-.342.404.404 0 00-.075-.242.458.458 0 00-.213-.164c-.091-.035-.254-.053-.498-.053h-.565v.93" fill="#fff"/></g></g></symbol><symbol viewBox="0 0 124 33" id="symbol_paypal" xmlns="http://www.w3.org/2000/svg"><path fill="#253B80" d="M46.211 6.749h-6.839a.95.95 0 00-.939.802l-2.766 17.537a.57.57 0 00.564.658h3.265a.95.95 0 00.939-.803l.746-4.73a.95.95 0 01.938-.803h2.165c4.505 0 7.105-2.18 7.784-6.5.306-1.89.013-3.375-.872-4.415-.972-1.142-2.696-1.746-4.985-1.746zM47 13.154c-.374 2.454-2.249 2.454-4.062 2.454h-1.032l.724-4.583a.57.57 0 01.563-.481h.473c1.235 0 2.4 0 3.002.704.359.42.469 1.044.332 1.906zm19.654-.079h-3.275a.57.57 0 00-.563.481l-.145.916-.229-.332c-.709-1.029-2.29-1.373-3.868-1.373-3.619 0-6.71 2.741-7.312 6.586-.313 1.918.132 3.752 1.22 5.031.998 1.176 2.426 1.666 4.125 1.666 2.916 0 4.533-1.875 4.533-1.875l-.146.91a.57.57 0 00.562.66h2.95a.95.95 0 00.939-.803l1.77-11.209a.568.568 0 00-.561-.658zm-4.565 6.374c-.316 1.871-1.801 3.127-3.695 3.127-.951 0-1.711-.305-2.199-.883-.484-.574-.668-1.391-.514-2.301.295-1.855 1.805-3.152 3.67-3.152.93 0 1.686.309 2.184.892.499.589.697 1.411.554 2.317zm22.007-6.374h-3.291a.954.954 0 00-.787.417l-4.539 6.686-1.924-6.425a.953.953 0 00-.912-.678h-3.234a.57.57 0 00-.541.754l3.625 10.638-3.408 4.811a.57.57 0 00.465.9h3.287a.949.949 0 00.781-.408l10.946-15.8a.57.57 0 00-.468-.895z"/><path fill="#179BD7" d="M94.992 6.749h-6.84a.95.95 0 00-.938.802l-2.766 17.537a.569.569 0 00.562.658h3.51a.665.665 0 00.656-.562l.785-4.971a.95.95 0 01.938-.803h2.164c4.506 0 7.105-2.18 7.785-6.5.307-1.89.012-3.375-.873-4.415-.971-1.142-2.694-1.746-4.983-1.746zm.789 6.405c-.373 2.454-2.248 2.454-4.062 2.454h-1.031l.725-4.583a.568.568 0 01.562-.481h.473c1.234 0 2.4 0 3.002.704.359.42.468 1.044.331 1.906zm19.653-.079h-3.273a.567.567 0 00-.562.481l-.145.916-.23-.332c-.709-1.029-2.289-1.373-3.867-1.373-3.619 0-6.709 2.741-7.311 6.586-.312 1.918.131 3.752 1.219 5.031 1 1.176 2.426 1.666 4.125 1.666 2.916 0 4.533-1.875 4.533-1.875l-.146.91a.57.57 0 00.564.66h2.949a.95.95 0 00.938-.803l1.771-11.209a.571.571 0 00-.565-.658zm-4.565 6.374c-.314 1.871-1.801 3.127-3.695 3.127-.949 0-1.711-.305-2.199-.883-.484-.574-.666-1.391-.514-2.301.297-1.855 1.805-3.152 3.67-3.152.93 0 1.686.309 2.184.892.501.589.699 1.411.554 2.317zm8.426-12.219l-2.807 17.858a.569.569 0 00.562.658h2.822c.469 0 .867-.34.939-.803l2.768-17.536a.57.57 0 00-.562-.659h-3.16a.571.571 0 00-.562.482z"/><path fill="#253B80" d="M7.266 29.154l.523-3.322-1.165-.027H1.061L4.927 1.292a.316.316 0 01.314-.268h9.38c3.114 0 5.263.648 6.385 1.927.526.6.861 1.227 1.023 1.917.17.724.173 1.589.007 2.644l-.012.077v.676l.526.298a3.69 3.69 0 011.065.812c.45.513.741 1.165.864 1.938.127.795.085 1.741-.123 2.812-.24 1.232-.628 2.305-1.152 3.183a6.547 6.547 0 01-1.825 2c-.696.494-1.523.869-2.458 1.109-.906.236-1.939.355-3.072.355h-.73c-.522 0-1.029.188-1.427.525a2.21 2.21 0 00-.744 1.328l-.055.299-.924 5.855-.042.215c-.011.068-.03.102-.058.125a.155.155 0 01-.096.035H7.266z"/><path fill="#179BD7" d="M23.048 7.667c-.028.179-.06.362-.096.55-1.237 6.351-5.469 8.545-10.874 8.545H9.326c-.661 0-1.218.48-1.321 1.132L6.596 26.83l-.399 2.533a.704.704 0 00.695.814h4.881c.578 0 1.069-.42 1.16-.99l.048-.248.919-5.832.059-.32c.09-.572.582-.992 1.16-.992h.73c4.729 0 8.431-1.92 9.513-7.476.452-2.321.218-4.259-.978-5.622a4.667 4.667 0 00-1.336-1.03z"/><path fill="#222D65" d="M21.754 7.151a9.757 9.757 0 00-1.203-.267 15.284 15.284 0 00-2.426-.177h-7.352a1.172 1.172 0 00-1.159.992L8.05 17.605l-.045.289a1.336 1.336 0 011.321-1.132h2.752c5.405 0 9.637-2.195 10.874-8.545.037-.188.068-.371.096-.55a6.594 6.594 0 00-1.017-.429 9.045 9.045 0 00-.277-.087z"/><path fill="#253B80" d="M9.614 7.699a1.169 1.169 0 011.159-.991h7.352c.871 0 1.684.057 2.426.177a9.757 9.757 0 011.481.353c.365.121.704.264 1.017.429.368-2.347-.003-3.945-1.272-5.392C20.378.682 17.853 0 14.622 0h-9.38c-.66 0-1.223.48-1.325 1.133L.01 25.898a.806.806 0 00.795.932h5.791l1.454-9.225 1.564-9.906z"/></symbol><symbol viewBox="0 0 1000.046 323.653" id="symbol_visa" xmlns="http://www.w3.org/2000/svg"><path fill="#00579f" d="M433.352 318.984h-81.01l50.67-313.305h81.006zM727.023 13.339c-15.978-6.34-41.322-13.34-72.66-13.34-80 0-136.336 42.661-136.682 103.653-.664 45 40.335 69.994 71 84.998 31.341 15.332 41.995 25.34 41.995 39.006-.319 20.989-25.326 30.664-48.65 30.664-32.343 0-49.673-4.988-76.009-16.666l-10.667-5.005-11.337 70.33c19 8.656 54.006 16.337 90.35 16.674 85.002 0 140.34-42 140.996-106.997.324-35.666-21.326-62.994-68-85.325-28.334-14.336-45.686-24.002-45.686-38.67.332-13.334 14.677-26.991 46.661-26.991 26.336-.67 45.686 5.661 60.345 11.996l7.327 3.327 11.017-67.654zm107.671 194.652c6.671-17.999 32.343-87.66 32.343-87.66-.337.669 6.658-18.331 10.658-29.995l5.662 26.996s15.34 74.995 18.672 90.66h-67.335zM934.69 5.68h-62.66c-19.323 0-34.004 5.662-42.341 25.995L709.357 318.98h85.002s13.994-38.669 17.002-46.997h104.011c2.326 11 9.666 46.997 9.666 46.997h75.008L934.691 5.68zm-650.012 0l-79.336 213.643-8.67-43.33C182.006 125.997 136.005 71.677 84.67 44.667l72.669 273.985h85.667L370.34 5.679h-85.662z"/><path d="M131.672 5.68H1.333L0 12.01c101.672 25.999 169.008 88.67 196.673 163.997L168.339 32.015c-4.665-20.01-19-25.676-36.667-26.336z" fill="#faa61a"/></symbol><view id="american_express" width="100" height="100" viewBox="0 0 100 100"/><view id="mastercard" width="100" height="60" viewBox="150 0 100 60"/><view id="paypal" width="100" height="26.613" viewBox="300 0 100 26.613"/><view id="visa" width="100" height="32.36" viewBox="450 0 100 32.36"/><use id="use_american_express" xlink:href="#symbol_american_express" width="100" height="100" x="0" y="0"/><use id="use_mastercard" xlink:href="#symbol_mastercard" width="100" height="60" x="150" y="0"/><use id="use_paypal" xlink:href="#symbol_paypal" width="100" height="26.613" x="300" y="0"/><use id="use_visa" xlink:href="#symbol_visa" width="100" height="32.36" x="450" y="0"/></svg>