<svg xmlns="http://www.w3.org/2000/svg" width="15.969" height="15.969" viewBox="0 0 15.969 15.969">
  <path style="fill: gray; fill-rule: evenodd;" d="M432.432,131.956a0.52,0.52,0,0,0-.513-0.393,1.765,1.765,0,0,1-1.207-3.071,0.444,0.444,0,0,0,.049-0.6,7.967,7.967,0,0,0-1.265-1.278,0.444,0.444,0,0,0-.607.049,1.836,1.836,0,0,1-1.99.448,1.776,1.776,0,0,1-1.079-1.735,0.443,0.443,0,0,0-.391-0.467,7.99,7.99,0,0,0-1.8-.005,0.445,0.445,0,0,0-.395.458,1.779,1.779,0,0,1-1.093,1.7,1.844,1.844,0,0,1-1.976-.451,0.445,0.445,0,0,0-.6-0.05,7.923,7.923,0,0,0-1.291,1.278,0.443,0.443,0,0,0,.048.607,1.774,1.774,0,0,1,.446,1.994,1.847,1.847,0,0,1-1.737,1.08,0.434,0.434,0,0,0-.461.392,8,8,0,0,0,0,1.817,0.527,0.527,0,0,0,.523.393,1.752,1.752,0,0,1,1.643,1.095,1.78,1.78,0,0,1-.447,1.976,0.444,0.444,0,0,0-.048.6,7.912,7.912,0,0,0,1.262,1.279,0.444,0.444,0,0,0,.608-0.048,1.834,1.834,0,0,1,1.99-.448,1.772,1.772,0,0,1,1.08,1.734,0.443,0.443,0,0,0,.391.467,7.858,7.858,0,0,0,.92.053,8.036,8.036,0,0,0,.876-0.048,0.446,0.446,0,0,0,.4-0.458,1.776,1.776,0,0,1,1.092-1.7,1.841,1.841,0,0,1,1.976.45,0.447,0.447,0,0,0,.6.051,7.963,7.963,0,0,0,1.291-1.278,0.444,0.444,0,0,0-.047-0.608,1.765,1.765,0,0,1,1.185-3.076l0.1,0a0.443,0.443,0,0,0,.467-0.391A8.067,8.067,0,0,0,432.432,131.956Zm-7.92,3.57a2.666,2.666,0,1,1,2.663-2.665A2.667,2.667,0,0,1,424.512,135.526Z" transform="translate(-416.531 -124.875)"/>
</svg>
