<svg width="50" height="100" viewBox="0 0 50 100" fill="none" xmlns="http://www.w3.org/2000/svg">
	<path fill-rule="evenodd" clip-rule="evenodd" d="M13.725 99.3902L13.1683 98.7887L12.4694 98.0892L12.2558 98.0007L12.2656 97.9833C12.3358 97.8145 19.2812 81.3564 16.7173 70.9222L18.6909 70.4404C20.5971 78.1598 17.7256 88.6592 15.7495 94.4624C27.475 82.0392 36.251 67.134 41.4258 50.8538C46.6005 34.5737 48.0411 17.3368 45.6405 0.423562L45.6381 0.405776L47.6058 0.00132286C50.0676 16.7253 48.803 33.7867 43.9024 49.965C39.0019 66.1433 30.5865 81.0386 19.2583 93.5854C26.1776 90.6601 33.4555 88.6688 40.9003 87.664L41.104 89.6546L41.0841 89.6573C40.9077 89.6808 21.8079 92.1306 13.725 99.3902Z" fill="white"/>
</svg>
