<svg width="24" height="24" viewBox="0 0 24 24" fill="none" xmlns="http://www.w3.org/2000/svg">
<path fill-rule="evenodd" clip-rule="evenodd" d="M12 23.5C18.3513 23.5 23.5 18.3513 23.5 12C23.5 5.64873 18.3513 0.5 12 0.5C5.64873 0.5 0.5 5.64873 0.5 12C0.5 18.3513 5.64873 23.5 12 23.5Z" fill="white"/>
<path fill-rule="evenodd" clip-rule="evenodd" d="M24 11.9998C24 13.4024 23.7594 14.7488 23.3171 16H0.682893C0.240642 14.7488 0 13.4024 0 11.9998C0 10.5973 0.240589 9.25105 0.682745 8L23.3173 8C23.7594 9.25105 24 10.5973 24 11.9998Z" fill="white"/>
<path fill-rule="evenodd" clip-rule="evenodd" d="M0.682922 16H23.3171C21.6697 20.6606 17.2248 23.9997 12 23.9997C6.77523 23.9997 2.33035 20.6606 0.682922 16H23.3171H0.682922Z" fill="black"/>
<path fill-rule="evenodd" clip-rule="evenodd" d="M12 0C17.225 0 21.67 3.33938 23.3173 8.0003H0.682716C2.32998 3.33938 6.77501 0 12 0Z" fill="#F65260"/>
<path fill-rule="evenodd" clip-rule="evenodd" d="M8.65 10.6667C8.65 10.2985 8.94848 10 9.31667 10H9.77732C9.90358 10 10.019 10.0713 10.0755 10.1843L10.65 11.3333C10.65 11.3333 11.3824 10 11.9833 10C12.65 10 13.3167 11.3333 13.3167 11.3333L13.8912 10.1843C13.9477 10.0713 14.0631 10 14.1893 10H14.65C15.0182 10 15.3167 10.2985 15.3167 10.6667V12.7543C15.3167 13.2868 14.7232 13.6044 14.2802 13.309L13.3167 12.6667H12.65V13.3333C12.65 13.7015 12.3515 14 11.9833 14C11.6151 14 11.3167 13.7015 11.3167 13.3333V12.6667H10.65L9.68647 13.309C9.24343 13.6044 8.65 13.2868 8.65 12.7543V10.6667Z" fill="#FFCA68"/>
<path d="M0.25 12C0.25 5.51065 5.51065 0.25 12 0.25C18.4893 0.25 23.75 5.51065 23.75 12C23.75 18.4893 18.4893 23.75 12 23.75C5.51065 23.75 0.25 18.4893 0.25 12Z" stroke="black" stroke-opacity="0.095389" stroke-width="0.5"/>
</svg>
