<svg width="24" height="24" viewBox="0 0 24 24" fill="none" xmlns="http://www.w3.org/2000/svg">
<path fill-rule="evenodd" clip-rule="evenodd" d="M12 23.5C18.3513 23.5 23.5 18.3513 23.5 12C23.5 5.64873 18.3513 0.5 12 0.5C5.64873 0.5 0.5 5.64873 0.5 12C0.5 18.3513 5.64873 23.5 12 23.5Z" fill="#0C69DA"/>
<path fill-rule="evenodd" clip-rule="evenodd" d="M0.683061 7.99902H23.3169C23.7593 9.25033 24 10.5969 24 11.9997C24 13.4026 23.7593 14.7492 23.3169 16.0006H0.683147C0.240734 14.7492 0 13.4026 0 11.9997C0 10.5969 0.240703 9.25033 0.683061 7.99902Z" fill="#0C69DA"/>
<path fill-rule="evenodd" clip-rule="evenodd" d="M0.68306 16.001L23.3169 16.001C21.6694 20.6614 17.2246 24.0003 12 24.0003C6.77537 24.0003 2.3306 20.6614 0.68306 16.001L23.3169 16.001L0.68306 16.001Z" fill="#F65260"/>
<path fill-rule="evenodd" clip-rule="evenodd" d="M12 0C17.2249 0 21.6699 3.33927 23.3172 8.00008H0.682793C2.33012 3.33927 6.77509 0 12 0Z" fill="white"/>
<path fill-rule="evenodd" clip-rule="evenodd" d="M5.16509 8.42556C5.18363 7.9091 5.60768 7.5 6.12448 7.5H10.3388C10.8556 7.5 11.2797 7.9091 11.2982 8.42556L11.4824 13.5578C11.4925 13.8384 11.3792 14.1094 11.1724 14.2993L9.20568 16.1055C8.65485 16.6114 7.80846 16.6114 7.25763 16.1055L5.29089 14.2993C5.08408 14.1094 4.97079 13.8384 4.98086 13.5578L5.16509 8.42556Z" fill="#F65260" stroke="white" stroke-width="0.96"/>
<path fill-rule="evenodd" clip-rule="evenodd" d="M7.76498 12.74C7.76498 12.6075 7.65753 12.5 7.52498 12.5H6.60498C6.47243 12.5 6.36498 12.3925 6.36498 12.26V11.74C6.36498 11.6075 6.47243 11.5 6.60498 11.5H7.52498C7.65753 11.5 7.76498 11.3925 7.76498 11.26V10.74C7.76498 10.6075 7.65753 10.5 7.52498 10.5H7.07165C6.9391 10.5 6.83165 10.3925 6.83165 10.26V9.74C6.83165 9.60745 6.9391 9.5 7.07165 9.5H7.52498C7.65753 9.5 7.76498 9.39255 7.76498 9.26V8.74C7.76498 8.60745 7.87243 8.5 8.00498 8.5H8.45832C8.59086 8.5 8.69832 8.60745 8.69832 8.74V9.26C8.69832 9.39255 8.80577 9.5 8.93832 9.5H9.39165C9.5242 9.5 9.63165 9.60745 9.63165 9.74V10.26C9.63165 10.3925 9.5242 10.5 9.39165 10.5H8.93832C8.80577 10.5 8.69832 10.6075 8.69832 10.74V11.26C8.69832 11.3925 8.80577 11.5 8.93832 11.5H9.85832C9.99086 11.5 10.0983 11.6075 10.0983 11.74V12.26C10.0983 12.3925 9.99086 12.5 9.85832 12.5H8.93832C8.80577 12.5 8.69832 12.6075 8.69832 12.74V14.26C8.69832 14.3925 8.59086 14.5 8.45832 14.5H8.00498C7.87243 14.5 7.76498 14.3925 7.76498 14.26V12.74Z" fill="white"/>
<path fill-rule="evenodd" clip-rule="evenodd" d="M8.23165 14C8.60311 14 8.92388 14.2325 9.07412 14.5691C9.58626 14.6555 10.0349 14.8187 10.3729 15.0335L9.29224 16.026C8.70649 16.5639 7.74964 16.5573 7.17106 16.026L6.09023 15.0335C6.42833 14.8188 6.87698 14.6556 7.38918 14.5691C7.53942 14.2325 7.86019 14 8.23165 14Z" fill="#0C69DA"/>
<path d="M0.25 12C0.25 5.51065 5.51065 0.25 12 0.25C18.4893 0.25 23.75 5.51065 23.75 12C23.75 18.4893 18.4893 23.75 12 23.75C5.51065 23.75 0.25 18.4893 0.25 12Z" stroke="black" stroke-opacity="0.095389" stroke-width="0.5"/>
</svg>
