<svg width="24" height="24" viewBox="0 0 24 24" fill="none" xmlns="http://www.w3.org/2000/svg">
<rect x="0.75" y="0.75" width="22.5" height="22.5" rx="11.25" fill="#F65260" stroke="#FFCA68" stroke-width="1.5"/>
<path fill-rule="evenodd" clip-rule="evenodd" d="M8.20091 7.44516L8.46576 8.50455C8.53727 8.79059 8.70632 9.24465 8.83262 9.49724L8.88166 9.59533C8.99092 9.81383 9.19803 10.113 9.38841 10.331L9.493 10.444L9.265 10.216L9.32463 10.2876C9.47075 10.4967 9.45324 10.7835 9.26218 10.9746L9.49972 10.737C9.28948 10.9473 9.34122 11.2288 9.59381 11.3551L9.6919 11.4041C9.95411 11.5352 10.1667 11.4041 10.1667 11.1177V11.6415C10.1667 11.3522 10.2778 10.8955 10.404 10.6429L10.4531 10.5449C10.5842 10.2827 10.5268 9.9064 10.3123 9.69188L9.496 8.875L9.44445 8.81436C9.30184 8.61435 9.36648 8.37495 9.59381 8.26128L9.6919 8.21224C9.95411 8.08114 10.3304 8.13855 10.5449 8.35307L11.3574 9.16561C11.5677 9.37585 11.9038 9.38055 12.1188 9.16561L12.9313 8.35307C13.1402 8.14419 13.5317 8.08594 13.7843 8.21224L13.8824 8.26128C14.1184 8.37928 14.1799 8.61141 14.0331 8.81335L13.982 8.872L13.1639 9.69188C12.955 9.90076 12.8968 10.2923 13.0231 10.5449L13.0721 10.6429C13.2032 10.9052 13.3095 11.3551 13.3095 11.6415V11.1177C13.3095 11.407 13.5317 11.5304 13.7843 11.4041L13.8824 11.3551C14.1446 11.224 14.1914 10.952 13.9765 10.737L14.214 10.9746C14.0271 10.7877 14.0027 10.5013 14.1505 10.289L14.211 10.216L13.982 10.444L14.0865 10.3319C14.2762 10.1135 14.4893 9.80582 14.5945 9.59533L14.6436 9.49724C14.7747 9.23504 14.937 8.79825 15.0104 8.50455L15.2753 7.44516C15.3468 7.15912 15.5498 7.1206 15.7228 7.35124L16.6582 8.59847C16.8338 8.83264 16.9762 9.26283 16.9762 9.55119V10.589C16.9762 10.881 16.8651 11.3399 16.7388 11.5925L16.6898 11.6906C16.5587 11.9528 16.2887 12.329 16.0742 12.5435L15.783 12.8347C15.5741 13.0436 15.1826 13.324 14.93 13.4503L14.8319 13.4994C14.6134 13.6086 14.2606 13.7006 13.9866 13.7283L13.8333 13.7368C13.544 13.7368 13.5317 13.8478 13.7843 13.9741L13.8824 14.0232C14.1446 14.1543 14.5229 14.4263 14.7378 14.6412L14.5003 14.4037C14.7105 14.6139 15.0467 14.6186 15.2616 14.4037L15.0241 14.6412C15.1876 14.4777 15.4273 14.4385 15.6269 14.5303L15.649 14.543L15.6767 14.5905C15.7762 14.8015 15.7859 15.0697 15.6912 15.2591L15.6421 15.3572C15.5256 15.5903 15.2367 15.7842 14.9767 15.8244L14.881 15.832C14.5917 15.832 14.135 15.7209 13.8824 15.5946L13.7843 15.5456C13.5221 15.4145 13.1984 15.086 13.0721 14.8334L13.0231 14.7353C12.9313 14.5518 12.7705 14.4738 12.6085 14.5172L12.539 14.543L12.5278 14.5636C12.4241 14.7699 12.4279 15.0334 12.5593 15.2305L13.0121 15.9097C13.1764 16.1561 13.1168 16.4843 12.8634 16.6532L12.1842 17.106C11.9378 17.2703 11.5454 17.275 11.292 17.106L10.6128 16.6532C10.3664 16.489 10.2951 16.1631 10.4641 15.9097L10.9169 15.2305C11.0446 15.0389 11.0533 14.7752 10.9497 14.5663L10.937 14.546L10.8688 14.5211C10.706 14.4801 10.5415 14.5585 10.4531 14.7353L10.404 14.8334C10.2729 15.0956 9.94449 15.4193 9.6919 15.5456L9.59381 15.5946C9.37531 15.7039 9.02255 15.7959 8.74851 15.8235L8.59524 15.832C8.30595 15.832 7.96034 15.6098 7.83405 15.3572L7.785 15.2591C7.68667 15.0625 7.69554 14.8005 7.79679 14.5912L7.824 14.544L7.84686 14.5317C8.04442 14.4398 8.28493 14.4741 8.4521 14.6412L8.21456 14.4037C8.4248 14.6139 8.76097 14.6186 8.97591 14.4037L8.73837 14.6412C8.94861 14.431 9.34122 14.1495 9.59381 14.0232L9.6919 13.9741C9.92789 13.8562 9.92685 13.7583 9.71955 13.7399L9.64286 13.7368C9.35356 13.7368 8.89687 13.6257 8.64428 13.4994L8.54619 13.4503C8.28399 13.3192 7.90774 13.0493 7.69321 12.8347L7.40202 12.5435C7.19314 12.3347 6.91272 11.9432 6.78643 11.6906L6.73738 11.5925C6.60628 11.3303 6.5 10.8774 6.5 10.589V9.55119C6.5 9.25919 6.64502 8.82912 6.818 8.59847L7.75343 7.35124C7.92905 7.11707 8.12749 7.15146 8.20091 7.44516ZM15.5479 14.4037L15.7854 14.6412C15.7616 14.6174 15.7362 14.5962 15.7096 14.5777L15.649 14.543L15.6196 14.4905L15.5479 14.4037ZM12.5788 14.4791L12.6426 14.4037L12.405 14.6412C12.4265 14.6198 12.4486 14.6009 12.471 14.5846L12.539 14.543L12.5788 14.4791ZM11.0712 14.6412L10.8336 14.4037C10.8575 14.4276 10.8791 14.4533 10.8985 14.4806L10.937 14.546C10.9612 14.5568 10.9839 14.5701 11.0062 14.586L11.0712 14.6412L10.8336 14.4037L11.0712 14.6412ZM7.69075 14.6412L7.9283 14.4037C7.90143 14.4306 7.87699 14.46 7.85505 14.4914L7.824 14.544L7.76516 14.5788L7.69075 14.6412L7.9283 14.4037L7.69075 14.6412ZM12.2353 6.56916L12.8123 6.7615C13.0869 6.85303 13.1458 7.09093 12.9313 7.30545L12.6401 7.59664C12.4573 7.77941 12.1188 7.93191 11.8489 7.96717L11.7381 7.97486C11.4488 7.97486 11.0506 7.81117 10.8361 7.59664L10.5449 7.30545C10.336 7.09657 10.3852 6.8544 10.6639 6.7615L11.2409 6.56916C11.5155 6.47763 11.9566 6.47626 12.2353 6.56916Z" fill="#FFCA68"/>
<path fill-rule="evenodd" clip-rule="evenodd" d="M10.6905 12.6891C10.6905 12.882 11.0153 12.9461 11.1092 12.7777C11.2919 12.4504 11.515 12.1653 11.7381 12.1653C11.9612 12.1653 12.1843 12.4504 12.367 12.7777C12.4609 12.9461 12.7857 12.882 12.7857 12.6891C12.7857 11.8212 12.3167 11.1177 11.7381 11.1177C11.1595 11.1177 10.6905 11.8212 10.6905 12.6891Z" fill="#0C69DA"/>
<path d="M0.25 12C0.25 5.51065 5.51065 0.25 12 0.25C18.4893 0.25 23.75 5.51065 23.75 12C23.75 18.4893 18.4893 23.75 12 23.75C5.51065 23.75 0.25 18.4893 0.25 12Z" stroke="black" stroke-opacity="0.095389" stroke-width="0.5"/>
</svg>
