<svg width="24" height="24" viewBox="0 0 24 24" fill="none" xmlns="http://www.w3.org/2000/svg">
<path fill-rule="evenodd" clip-rule="evenodd" d="M12 23.5C18.3513 23.5 23.5 18.3513 23.5 12C23.5 5.64873 18.3513 0.5 12 0.5C5.64873 0.5 0.5 5.64873 0.5 12C0.5 18.3513 5.64873 23.5 12 23.5Z" fill="white"/>
<path fill-rule="evenodd" clip-rule="evenodd" d="M7.00024 1.08789L7 7.33325H12.3333V4.66658H21.4926C21.4413 4.60847 21.395 4.54699 21.3533 4.48246C23.0092 6.5391 24 9.1538 24 11.9999C24 14.1928 23.4118 16.2483 22.3846 18.0172L22.3895 17.9999H1.60859L1.60966 18.0064C1.10599 17.1379 0.70847 16.2001 0.434439 15.211C0.453496 15.2373 0.469168 15.2642 0.481471 15.2917L0.497401 15.3332H4.35148V9.99992H0.187988C0.179332 10.0608 0.162254 10.1223 0.137672 10.1842C0.287659 9.18823 0.561187 8.23267 0.94127 7.33311L4.33333 7.33325L4.33314 2.76808C5.13971 2.0975 6.03556 1.53062 7.00024 1.08789Z" fill="white"/>
<path fill-rule="evenodd" clip-rule="evenodd" d="M1.60551 18L22.3945 18C20.3196 21.5867 16.4416 23.9998 12 23.9998C7.5584 23.9998 3.6804 21.5867 1.60551 18L22.3945 18L1.60551 18Z" fill="#0C69DA"/>
<path fill-rule="evenodd" clip-rule="evenodd" d="M12.3333 10V12.6667L23.9818 12.6669C23.9314 13.5872 23.7773 14.4799 23.5309 15.3335L7 15.3333V10H12.3333Z" fill="#0C69DA"/>
<path fill-rule="evenodd" clip-rule="evenodd" d="M4.35148 10.0002V15.3336L0.469083 15.3338C0.163658 14.2754 0 13.1569 0 12.0002C0 11.3187 0.0568105 10.6505 0.165954 10L4.35148 10.0002Z" fill="#0C69DA"/>
<path fill-rule="evenodd" clip-rule="evenodd" d="M12.3333 7.33329L23.0587 7.33301C23.4153 8.17702 23.6781 9.07033 23.8341 9.99987L12.3333 9.99995V7.33329L23.0587 7.33301L12.3333 7.33329Z" fill="#0C69DA"/>
<path fill-rule="evenodd" clip-rule="evenodd" d="M12 0C15.8657 0 19.3045 1.82788 21.4991 4.66649L12.3333 4.66667V7.33333H7L6.99974 1.0882C8.52192 0.389531 10.2155 0 12 0Z" fill="#0C69DA"/>
<path fill-rule="evenodd" clip-rule="evenodd" d="M4.33288 2.76855L4.33334 7.3335L0.941338 7.33321C1.66027 5.63175 2.7604 4.13066 4.1347 2.93698L4.33288 2.76855V2.76855Z" fill="#0C69DA"/>
<path d="M12 23.75C5.51065 23.75 0.25 18.4893 0.25 12C0.25 5.51065 5.51065 0.25 12 0.25C18.4893 0.25 23.75 5.51065 23.75 12C23.75 18.4893 18.4893 23.75 12 23.75Z" stroke="black" stroke-opacity="0.095389" stroke-width="0.5"/>
</svg>
