<svg width="22" height="22" viewBox="0 0 22 22" fill="none" xmlns="http://www.w3.org/2000/svg">
<path fill-rule="evenodd" clip-rule="evenodd" d="M7 18L11 14V17C14.31 17 17 14.31 17 11C17 9.98999 16.75 9.02999 16.3 8.19999L17.76 6.73999C18.54 7.96999 19 9.42999 19 11C19 15.42 15.42 19 11 19V22L7 18Z" fill="#18B1FE"/>
<path fill-rule="evenodd" clip-rule="evenodd" d="M11 5C7.69 5 5 7.69 5 11C5 12.01 5.25 12.97 5.7 13.8L4.24 15.26C3.46 14.03 3 12.57 3 11C3 6.58 6.58 3 11 3V0L15 4L11 8V5Z" fill="white"/>
</svg>
