<svg width="22" height="22" viewBox="0 0 22 22" fill="none" xmlns="http://www.w3.org/2000/svg">
<path fill-rule="evenodd" clip-rule="evenodd" d="M1 3.5C1 2.67275 1.66445 2 2.48149 2H12.8519C13.669 2 14.3334 2.67275 14.3334 3.5V10.25H8.40746C7.99857 10.25 7.66671 10.586 7.66671 11C7.66671 11.414 7.99857 11.75 8.40746 11.75H14.3334V18.5C14.3334 19.3272 13.669 20 12.8519 20H2.48149C1.66445 20 1 19.3272 1 18.5V3.5ZM14.3334 11.75H18.4712L16.7727 13.4697C16.5792 13.6578 16.5012 13.9372 16.5689 14.2C16.6366 14.4628 16.8393 14.6681 17.0989 14.7366C17.3585 14.8051 17.6344 14.7262 17.8201 14.5303L20.7831 11.5303C21.0723 11.2374 21.0723 10.7626 20.7831 10.4697L17.8201 7.46973C17.6807 7.32458 17.4892 7.24269 17.2892 7.24268C16.9878 7.24276 16.7164 7.42774 16.603 7.7105C16.4896 7.99326 16.5567 8.31741 16.7727 8.53027L18.4712 10.25H14.3334V11.75Z" fill="#FF4646"/>
</svg>
