<svg width="16" height="16" viewBox="0 0 16 16" fill="none" xmlns="http://www.w3.org/2000/svg">
<path d="M8.00413 16C12.3775 16 16 12.3756 16 8C16 3.62435 12.3693 0 7.99587 0C3.62249 0 0 3.62435 0 8C0 12.3756 3.63074 16 8.00413 16ZM8.00413 14.58C4.35688 14.58 1.43579 11.6491 1.43579 8C1.43579 4.35088 4.34863 1.42002 7.99587 1.42002C11.6431 1.42002 14.5725 4.35088 14.5807 8C14.589 11.6491 11.6514 14.58 8.00413 14.58ZM7.93811 5.26729C8.52398 5.26729 8.96957 4.80495 8.96957 4.23529C8.96957 3.64912 8.52398 3.19505 7.93811 3.19505C7.36875 3.19505 6.90665 3.64912 6.90665 4.23529C6.90665 4.80495 7.36875 5.26729 7.93811 5.26729ZM6.6261 12.2848H9.80299C10.1331 12.2848 10.3971 12.0454 10.3971 11.7069C10.3971 11.3932 10.1331 11.1455 9.80299 11.1455H8.87055V7.26522C8.87055 6.82766 8.64776 6.5387 8.24342 6.5387H6.76637C6.43631 6.5387 6.18051 6.78638 6.18051 7.1001C6.18051 7.4386 6.43631 7.67802 6.76637 7.67802H7.58329V11.1455H6.6261C6.30428 11.1455 6.04023 11.3932 6.04023 11.7069C6.04023 12.0454 6.30428 12.2848 6.6261 12.2848Z" fill="white"/>
</svg>
