<svg width="22" height="22" viewBox="0 0 22 22" fill="none" xmlns="http://www.w3.org/2000/svg">
<path fill-rule="evenodd" clip-rule="evenodd" d="M22 11C22 17.0751 17.0751 22 11 22C4.92487 22 0 17.0751 0 11C0 4.92487 4.92487 0 11 0C17.0751 0 22 4.92487 22 11ZM10.9996 4.71436C7.52808 4.71436 4.71387 7.52856 4.71387 11.0001C4.71387 14.4716 7.52808 17.2858 10.9996 17.2858C14.4711 17.2858 17.2853 14.4716 17.2853 11.0001C17.2853 7.52856 14.4711 4.71436 10.9996 4.71436Z" fill="#1AB3FF"/>
<path fill-rule="evenodd" clip-rule="evenodd" d="M11 0C11.8884 0 12.7522 0.105313 13.5796 0.304136L11.8214 4.76759C11.5524 4.73247 11.2781 4.71436 10.9996 4.71436C7.52808 4.71436 4.71387 7.52856 4.71387 11.0001C4.71387 14.4716 7.52808 17.2858 10.9996 17.2858C11.319 17.2858 11.6328 17.262 11.9393 17.216L13.693 21.668C12.8312 21.8848 11.9291 22 11 22C4.92487 22 0 17.0751 0 11C0 4.92487 4.92487 0 11 0Z" fill="white"/>
<path fill-rule="evenodd" clip-rule="evenodd" d="M11.0498 9.28748H11.7738C12.9187 9.28748 13.4912 9.89865 13.4912 11.1221C13.4912 12.3703 12.8755 12.9949 11.6442 12.9949H11.0498V9.28748ZM11.6442 13.628C12.5259 13.628 13.201 13.4046 13.6696 12.9585C14.1383 12.5128 14.3729 11.868 14.3729 11.0245C14.3729 10.2303 14.1467 9.61411 13.6943 9.17636C13.242 8.7386 12.6089 8.51917 11.7952 8.51917H10.2136V13.628H11.6442Z" fill="white"/>
<path fill-rule="evenodd" clip-rule="evenodd" d="M8.86332 8.51941H8.0271V13.6277H8.86332V8.51941Z" fill="white"/>
</svg>
