<svg width="22" height="22" viewBox="0 0 22 22" fill="none" xmlns="http://www.w3.org/2000/svg">
<path d="M7.63443 3.60522C5.42124 3.60522 3.51131 5.10038 3.51131 7.97365C3.51131 9.8507 4.41297 11.7684 5.55957 12.9473C6.00646 14.1246 5.19524 14.964 5.02755 15.0263C2.71222 15.8667 0 17.3814 0 18.8947V19.4736C0 21.536 3.97607 22 7.66103 22C11.3502 22 15.2955 21.536 15.2955 19.4736V18.8947C15.2955 17.3351 12.5652 15.8339 10.1349 15.0263C10.0234 14.9901 9.32496 14.2574 9.76249 12.921H9.73589C10.8765 11.7412 11.864 9.84396 11.864 7.97365C11.864 5.10038 9.84591 3.60522 7.63443 3.60522Z" fill="#00AAFF"/>
<path fill-rule="evenodd" clip-rule="evenodd" d="M14.8882 1C13.3727 1 12.0498 1.78105 11.464 3.26316C12.6938 4.27789 13.5449 5.84653 13.5449 7.97368C13.5449 10.2448 12.4729 12.3206 11.3586 13.6579C13.1338 14.3291 15.9117 15.6737 16.7057 17.7368C19.5024 17.5819 22.0001 17.0194 22.0001 15.4211V14.8947C21.9993 13.4295 19.4421 11.9956 17.1798 11.2368C17.077 11.2023 16.4303 11.0467 16.8374 9.78947C17.8995 8.68126 18.6286 6.88737 18.6286 5.13158C18.6286 2.42926 16.9466 1 14.8882 1Z" fill="white"/>
</svg>
