<svg width="40" height="40" viewBox="0 0 40 40" fill="none" xmlns="http://www.w3.org/2000/svg">
<path fill-rule="evenodd" clip-rule="evenodd" d="M33.3965 25.296L37.1304 32.7365C37.3099 33.094 37.2906 33.5188 37.0801 33.8586C36.8689 34.1981 36.4972 34.4049 36.0963 34.4049H30.4796L27.1099 38.8825C26.8909 39.1745 26.547 39.3435 26.1852 39.3435C25.7048 39.3435 25.3261 39.0578 25.1505 38.7066L21.6318 31.6938C26.3888 31.2405 30.5829 28.8368 33.3965 25.296ZM2.84958 32.7366L6.58341 25.2961C9.39704 28.8369 13.5911 31.2406 18.3482 31.6938L14.8297 38.7066C14.6538 39.0578 14.2752 39.3436 13.7947 39.3436C13.433 39.3436 13.0893 39.1746 12.8703 38.8825L9.50035 34.4049H3.88365C3.48273 34.4049 3.11104 34.1981 2.89989 33.8586C2.68934 33.5188 2.67006 33.0941 2.84958 32.7366Z" fill="white"/>
<path fill-rule="evenodd" clip-rule="evenodd" d="M19.9898 0C28.1421 0 34.7745 6.60937 34.7745 14.7334C34.7745 22.8574 28.1421 29.4668 19.9898 29.4668C11.8375 29.4668 5.20508 22.8571 5.20508 14.7334C5.20508 6.60937 11.8375 0 19.9898 0ZM20 9.25737C23.1748 9.25737 25.7576 11.7664 25.7576 14.8503C25.7576 17.9343 23.1748 20.4432 20 20.4432C16.8253 20.4432 14.2424 17.9342 14.2424 14.8503C14.2424 11.7664 16.8253 9.25737 20 9.25737Z" fill="#1AB3FF"/>
</svg>
