<?xml version="1.0" encoding="UTF-8"?>
<svg width="83px" height="83px" viewBox="0 0 83 83" version="1.1" xmlns="http://www.w3.org/2000/svg" xmlns:xlink="http://www.w3.org/1999/xlink">
    <!-- Generator: Sketch 52.2 (67145) - http://www.bohemiancoding.com/sketch -->
    <title>Keepsolid_Wise</title>
    <desc>Created with Sketch.</desc>
    <g id="Keepsolid_Wise" stroke="none" stroke-width="1" fill="none" fill-rule="evenodd">
        <g id="Group" transform="translate(0.000000, -30.181818)">
            <g id="Group-5">
                <g id="Group-3">
                    <circle id="Oval-12" fill="#F4F9FD" cx="41.5" cy="71.6818182" r="41.5"></circle>
                    <circle id="Oval-12-Copy" fill="#E9F3FB" cx="41.5578301" cy="71.7396483" r="36.6532847"></circle>
                </g>
            </g>
        </g>
        <path d="M40.2930294,47.0660416 C39.9124319,47.3818454 39.4684014,47.5713276 38.960938,47.5713276 L38.897505,47.5713276 C38.3900416,47.5713276 37.8825782,47.3186846 37.5654136,46.9397201 L31.6662753,40.4341623 L34.5206331,37.907732 L39.1512367,43.0237532 L49.4273708,33.2969969 L52.0281208,36.0760701 L40.2930294,47.0660416 Z M64.0169438,24.6439734 C64.0169438,23.5702405 63.1923158,22.7491507 62.113956,22.7491507 C54.1848403,22.7491507 48.1587123,20.4753635 43.1475111,15.6119853 C42.386316,14.917217 41.2445233,14.917217 40.4833282,15.6119853 C35.472127,20.4753635 29.4461229,22.7491507 21.5168832,22.7491507 C20.4385235,22.7491507 19.6138954,23.5702405 19.6138954,24.6439734 C19.6138954,25.9703492 19.6138954,27.2967251 19.5504625,28.6862617 C19.2967308,41.9500204 18.9161333,60.140318 41.1810904,67.7827694 L41.8154196,67.9090909 L42.4497489,67.7827694 C64.6512731,60.140318 64.3341085,42.0131811 64.0803768,28.6862617 C64.0169438,27.2967251 64.0169438,25.9703492 64.0169438,24.6439734 Z" id="Fill-1" fill="#16A9FC"></path>
    </g>
</svg>