<svg width="34" height="34" viewBox="0 0 34 34" fill="none" xmlns="http://www.w3.org/2000/svg">
<path d="M27.493 16.0808C31.0357 16.0808 34.0002 13.1163 34.0002 9.57358C34.0002 6.01858 31.0603 3.09094 27.493 3.09094C23.938 3.09094 20.998 6.01858 20.998 9.57358C20.998 13.1286 23.938 16.0808 27.493 16.0808ZM23.286 9.58588C23.286 8.97083 23.692 8.57719 24.2947 8.57719H26.4843V6.39991C26.4843 5.79716 26.8902 5.39123 27.5053 5.37893C28.108 5.37893 28.514 5.78486 28.514 6.39991V8.57719H30.7035C31.3063 8.57719 31.7122 8.97083 31.7122 9.58588C31.7122 10.1886 31.3063 10.5946 30.7035 10.5946H28.514V12.7964C28.514 13.3992 28.108 13.8051 27.5053 13.8051C26.8902 13.8051 26.4843 13.3992 26.4843 12.7964V10.5946H24.2947C23.7043 10.5946 23.2983 10.1886 23.286 9.58588Z" fill="#1DA7EB"/>
<path d="M10.136 23.7446H24.3929C25.1556 23.7446 25.8567 23.191 25.8567 22.33C25.8567 21.4689 25.1556 20.9153 24.3929 20.9153H10.542C10.1606 20.9153 9.91462 20.6447 9.85311 20.2265L9.6809 18.9718H24.6143C25.6845 18.9718 26.4595 18.6151 26.9884 17.9139C25.3032 17.754 23.7779 17.0405 22.6093 15.958C22.4863 16.0811 22.3263 16.1426 22.1049 16.1426H9.27496L8.5123 10.8039H19.2634C19.0912 9.86904 19.1158 8.90956 19.288 7.98699H8.11867L7.98336 7.05211C7.81114 5.7728 7.19609 5.12085 5.62156 5.12085H1.59913C0.738061 5.12085 0 5.85891 0 6.73228C0 7.61795 0.738061 8.35602 1.59913 8.35602H4.8958L6.67945 20.4848C6.97467 22.5268 8.09407 23.7446 10.136 23.7446ZM11.2185 30.2518C12.5593 30.2518 13.6418 29.1816 13.6418 27.8285C13.6418 26.4877 12.5593 25.4052 11.2185 25.4052C9.89001 25.4052 8.79522 26.4877 8.79522 27.8285C8.79522 29.1816 9.89001 30.2518 11.2185 30.2518ZM22.3263 30.2518C23.6548 30.2518 24.7373 29.1816 24.7373 27.8285C24.7373 26.4877 23.6548 25.4052 22.3263 25.4052C20.9855 25.4052 19.8907 26.4877 19.8907 27.8285C19.8907 29.1816 20.9855 30.2518 22.3263 30.2518Z" fill="white"/>
</svg>
