<svg width="24" height="24" viewBox="0 0 24 24" fill="none" xmlns="http://www.w3.org/2000/svg">
<path d="M7.87575 6.47574C7.72257 6.31541 7.63647 6.09771 7.63647 5.87066C7.63647 5.64361 7.72257 5.42591 7.87563 5.26571L8.49819 4.61364C8.81634 4.2803 9.33179 4.2803 9.64999 4.61358L16.1246 11.395C16.4435 11.7289 16.4435 12.271 16.1246 12.605L9.65011 19.3863C9.49549 19.5483 9.28822 19.6364 9.07412 19.6364C8.86007 19.6364 8.65285 19.5483 8.49825 19.3864L7.87575 18.7344C7.72257 18.5741 7.63647 18.3564 7.63647 18.1293C7.63647 17.9023 7.72257 17.6846 7.87563 17.5244L13.15 12L7.87575 6.47574Z" fill="#EBEBF5" fill-opacity="0.6"/>
</svg>
