<svg width="34" height="34" viewBox="0 0 34 34" fill="none" xmlns="http://www.w3.org/2000/svg">
<path fill-rule="evenodd" clip-rule="evenodd" d="M18.631 0.0739746C13.6334 0.0739746 9.0139 2.53054 6.18188 6.51921C6.89959 6.72284 7.55833 7.10726 8.10072 7.65113L8.5672 8.11932C10.8724 4.91972 14.6003 2.95268 18.631 2.95268C25.4745 2.95268 31.0414 8.54047 31.0414 15.409C31.0414 19.4748 29.088 23.2037 25.8966 25.5124L26.2573 25.874C26.8373 26.4566 27.2353 27.1759 27.4251 27.953C31.4423 25.1198 33.9102 20.4777 33.9102 15.409C33.9102 6.95314 27.0562 0.0739746 18.631 0.0739746Z" fill="#1AB3FF"/>
<path fill-rule="evenodd" clip-rule="evenodd" d="M20.7781 23.9214C20.3695 23.5113 19.8107 23.3058 19.2234 23.3648C18.1874 23.4701 17.2153 23.8705 16.4126 24.5228C16.3025 24.6135 16.16 24.6639 16.0137 24.6639C15.8702 24.6639 15.7302 24.615 15.6191 24.5258C13.3473 22.6907 11.2716 20.6059 9.44696 18.3283C9.26101 18.097 9.26151 17.7601 9.44993 17.5284C10.098 16.7248 10.4964 15.75 10.6007 14.7102C10.6587 14.131 10.4568 13.5619 10.0468 13.15L6.33429 9.42497C5.97068 9.0599 5.48726 8.85925 4.9738 8.85925C4.91198 8.85925 4.8483 8.86211 4.785 8.86844C3.56941 8.98768 2.42194 9.53354 1.55451 10.404C-0.113594 12.0782 -0.48203 14.6885 0.65765 16.7518C3.56076 22.0673 10.5427 29.7288 17.2042 33.3525C17.9784 33.7767 18.8564 34 19.744 34C21.1552 34 22.5298 33.4334 23.5144 32.4446C24.3824 31.5736 24.9256 30.422 25.0449 29.2014C25.1014 28.6241 24.8992 28.0575 24.49 27.6469L20.7781 23.9214Z" fill="white"/>
<path fill-rule="evenodd" clip-rule="evenodd" d="M19.2252 5.24768C18.6789 5.24768 18.2361 5.69216 18.2361 6.24038V14.3808C18.2361 14.929 18.6789 15.3735 19.2252 15.3735H26.7878C27.334 15.3735 27.7769 14.929 27.7769 14.3808C27.7769 13.8326 27.334 13.3881 26.7878 13.3881H20.2143V6.24038C20.2143 5.69216 19.7714 5.24768 19.2252 5.24768Z" fill="#1AB3FF"/>
</svg>
