<svg width="34" height="34" viewBox="0 0 34 34" fill="none" xmlns="http://www.w3.org/2000/svg">
<path fill-rule="evenodd" clip-rule="evenodd" d="M23.9046 8.83382L23.9046 8.86045C24.5973 8.63938 25.3354 8.52006 26.1015 8.52006C30.0881 8.52006 33.3199 11.7519 33.3199 15.7385C33.3199 18.7922 31.4238 21.403 28.7447 22.4577C29.2616 23.4525 29.5538 24.5829 29.5538 25.7816C29.5538 29.7682 26.322 33 22.3353 33C20.0477 33 18.0086 31.9359 16.686 30.2755C15.3635 31.9359 13.3244 33 11.0368 33C7.05011 33 3.81829 29.7682 3.81829 25.7816C3.81829 24.2867 4.27271 22.8979 5.05095 21.7459C2.48021 20.6412 0.679932 18.0862 0.679932 15.1108C0.679932 11.1241 3.91175 7.8923 7.89839 7.8923C8.45146 7.8923 8.98999 7.9545 9.50739 8.07228C9.88786 4.4436 12.9567 1.61536 16.6862 1.61536C20.6728 1.61536 23.9046 4.84717 23.9046 8.83382ZM13.8842 19.1465C14.987 19.6204 15.9481 20.3612 16.686 21.2876C17.4692 20.3044 18.5036 19.5303 19.6921 19.0624C19.1751 18.0676 18.883 16.9372 18.883 15.7385L18.883 15.7119C18.1903 15.933 17.4522 16.0523 16.6862 16.0523C16.1331 16.0523 15.5946 15.9901 15.0772 15.8723C14.9509 17.0765 14.5285 18.1926 13.8842 19.1465Z" fill="#1AB3FF"/>
<path d="M7 12.8621C7 11.8337 7.83368 11 8.86207 11H24.1379C25.1663 11 26 11.8337 26 12.8621V22.5617C26 23.5901 25.1663 24.4237 24.1379 24.4237H19.2054C18.9338 24.4237 18.6655 24.4831 18.4194 24.5978L8.96552 29L10.2759 24.4237H8.86207C7.83368 24.4237 7 23.5901 7 22.5617V12.8621Z" fill="white"/>
<path d="M14.038 22H18.962C19.659 22 20 21.6904 20 21.013V17.6077C20 16.9975 19.7192 16.6834 19.1425 16.6341V15.5484C19.1425 13.8345 17.8489 13 16.5 13C15.1511 13 13.8574 13.8345 13.8574 15.5484V16.6476C13.3109 16.7149 13 17.0244 13 17.6077V21.013C13 21.6904 13.341 22 14.038 22ZM14.9405 15.4721C14.9405 14.4895 15.6375 13.9377 16.5 13.9377C17.3625 13.9377 18.0595 14.4895 18.0595 15.4721V16.6251L14.9405 16.6296V15.4721Z" fill="black"/>
</svg>
