<svg width="24" height="22" viewBox="0 0 24 22" fill="none" xmlns="http://www.w3.org/2000/svg">
<path fill-rule="evenodd" clip-rule="evenodd" d="M5.08747 3.54692L7.04156 3.27451L7.94226 2.78081L8.95573 3.07283L10.575 2.98319L11.1297 2.11134L11.9387 2.2444L13.9033 2.06022L14.4447 1.46358L15.2081 0.95378L16.2881 1.11624L16.6817 1.05672C15.2593 0.387253 13.6764 0 11.9989 0C8.58452 0 5.53152 1.55602 3.51579 3.9993H3.52139L5.08747 3.54692ZM12.4639 1.09391L13.5874 0.475562L14.3088 0.892229L13.2645 1.68705L12.2671 1.78719L11.8182 1.49587L12.4639 1.09391ZM9.13642 1.18418L9.63229 1.39076L10.2816 1.18418L10.6353 1.79692L9.13642 2.19048L8.41571 1.76891C8.41567 1.76891 8.41802 1.76738 8.42247 1.76447C8.49463 1.71728 9.12124 1.30752 9.13642 1.18418ZM13.2646 16.7486L12.4633 15.2633L13.1987 13.7311L12.4633 13.5112L11.6375 12.6821L9.80812 12.2717L9.20088 11.0014V11.7556H8.93334L7.35675 9.61835V7.86275L6.20111 5.9839L4.36608 6.31093H3.12989L2.50794 5.90336L3.30149 5.27451L2.51004 5.45728C1.55611 7.08614 1 8.97619 1 11.0007C1 17.0742 5.92445 22 11.9997 22C12.4675 22 12.9263 21.9587 13.3801 21.9041L13.2653 20.5714C13.2653 20.5714 13.7702 18.5924 13.7702 18.5252C13.7695 18.4573 13.2646 16.7486 13.2646 16.7486ZM20.8077 4.98389L21.1369 4.87954C22.3121 6.62814 22.9985 8.73529 22.9999 10.9993C22.9999 16.1828 19.409 20.5182 14.5819 21.6807L14.7829 20.9538L16.6712 19.6933L17.1663 18.3438L18.4712 17.7374L19.7074 15.376L17.796 14.2521L16.8056 13.1281L16.2215 13.0595L15.0519 12.7451L14.0447 12.5861L13.1629 12.834L12.6229 12.2276L12.0822 12.0693L12.1277 11.2612L11.475 11.2815L11.1038 11.7094L10.8915 10.8095L11.7446 10.4048L12.6229 10.8095H13.0943L13.2652 10.112L14.5784 8.53711L16.4022 7.61624L17.4577 7.75069L17.5537 7.23459L16.2446 5.90686L15.7509 4.91806H15.0295L14.5798 4.65475L13.6126 4.5119L13.4101 5.66106L12.2384 5.43557L12.1494 4.71638L13.0487 4.5126L13.345 3.22338L14.2373 3.59033L14.2142 4.13865L14.8943 4.42226L15.3481 4.55601L15.9056 4.2647L15.4098 3.68066L14.3963 2.69187L14.4201 2.21848L15.4546 2.42086L16.3315 3.20727L16.6025 3.90475L16.8049 4.55882L18.2001 5.81652L18.5594 5.93066L19.0546 5.14005L20.8077 4.98389Z" fill="#00AAFF"/>
<path d="M3.95225 12.8094C3.8541 13.2049 3.85415 13.2049 3.85421 13.2049L3.85435 13.205L3.85471 13.2051L3.85574 13.2053L3.85905 13.2061L3.87055 13.2089L3.91245 13.2187C3.94855 13.227 4.00067 13.2386 4.06685 13.2525C4.19915 13.2801 4.38808 13.3167 4.61786 13.3532C5.07602 13.426 5.70339 13.4996 6.37168 13.4996C7.66334 13.4996 8.53037 13.4308 9.47265 12.9579C10.0019 12.6923 10.3542 12.2218 10.567 11.8547C10.676 11.6666 10.755 11.494 10.8071 11.3679C10.8332 11.3045 10.8528 11.2523 10.8663 11.2148C10.8727 11.197 10.8777 11.1824 10.8813 11.1716L10.894 11.1416C10.9066 11.1116 10.9248 11.0681 10.9475 11.0132C10.9929 10.9034 11.0563 10.7475 11.1286 10.5624C11.2608 10.2238 11.4248 9.7829 11.5635 9.34551C11.5666 9.3447 11.5698 9.34388 11.5731 9.34305C11.676 9.31761 11.828 9.30128 11.9941 9.30128C12.1601 9.30128 12.3121 9.31761 12.415 9.34305C12.4183 9.34387 12.4214 9.34468 12.4245 9.34547C12.5632 9.78455 12.7273 10.2256 12.8597 10.5639C12.932 10.7489 12.9954 10.9045 13.0408 11.0141C13.0635 11.0689 13.0817 11.1123 13.0943 11.1421L13.1069 11.1718C13.1106 11.1826 13.1155 11.1971 13.1219 11.2148C13.1353 11.2523 13.1549 11.3045 13.181 11.3679C13.2331 11.494 13.3122 11.6666 13.4212 11.8547C13.6339 12.2218 13.9862 12.6923 14.5155 12.9579L14.5161 12.9583C15.4616 13.4307 16.3243 13.4996 17.6164 13.4996C18.2847 13.4996 18.9121 13.426 19.3702 13.3532C19.6 13.3167 19.789 13.2801 19.9213 13.2525C19.9874 13.2386 20.0396 13.227 20.0757 13.2187L20.1176 13.2089L20.128 13.2064L20.1291 13.2061L20.1294 13.206L20.1324 13.2053L20.1324 13.2053L20.1334 13.2051L20.1338 13.205L20.1339 13.2049L20.1395 13.2036L20.1577 13.1986C20.1716 13.1947 20.189 13.1893 20.2094 13.1823C20.2503 13.1681 20.3036 13.1471 20.366 13.1164C20.4911 13.0549 20.6518 12.9552 20.8216 12.7967C21.1647 12.4763 21.5222 11.9372 21.7146 11.0469C21.8922 10.2337 22.0152 9.74364 22.0928 9.4596C22.1316 9.31765 22.1587 9.2282 22.1754 9.1763C22.1807 9.15964 22.185 9.14697 22.1881 9.1378C22.1918 9.13134 22.1966 9.12317 22.2025 9.11357C22.2218 9.08193 22.2521 9.03612 22.2931 8.98485C22.3731 8.88467 22.4819 8.77827 22.6149 8.70726C22.7563 8.65278 22.8442 8.54798 22.893 8.47243C22.9507 8.38298 22.987 8.28393 23.0112 8.19686C23.0603 8.02058 23.0807 7.81454 23.081 7.6251C23.0813 7.43695 23.0617 7.232 23.0111 7.06017C22.9865 6.97657 22.9466 6.87298 22.8771 6.78183C22.8105 6.69448 22.6862 6.58307 22.5018 6.56787C20.1923 6.20942 15.8397 6.13684 12.6526 6.99385H12.652H12.6502H12.6484H12.6466H12.6447H12.6429H12.641H12.6391H12.6372H12.6353H12.6334H12.6315H12.6295H12.6276H12.6256H12.6236H12.6216H12.6196H12.6176H12.6155H12.6135H12.6114H12.6093H12.6072H12.6051H12.603H12.6009H12.5987H12.5966H12.5944H12.5922H12.5901H12.5879H12.5856H12.5834H12.5812H12.5789H12.5767H12.5744H12.5721H12.5698H12.5675H12.5652H12.5629H12.5605H12.5582H12.5558H12.5534H12.551H12.5486H12.5462H12.5438H12.5414H12.5389H12.5365H12.534H12.5316H12.5291H12.5266H12.5241H12.5216H12.519H12.5165H12.514H12.5114H12.5088H12.5063H12.5037H12.5011H12.4985H12.4959H12.4932H12.4906H12.488H12.4853H12.4827H12.48H12.4773H12.4746H12.4719H12.4692H12.4665H12.4638H12.461H12.4583H12.4556H12.4528H12.45H12.4473H12.4445H12.4417H12.4389H12.4361H12.4332H12.4304H12.4276H12.4247H12.4219H12.419H12.4162H12.4133H12.4104H12.4075H12.4046H12.4017H12.3988H12.3959H12.393H12.39H12.3871H12.3842H12.3812H12.3782H12.3753H12.3723H12.3693H12.3663H12.3633H12.3603H12.3573H12.3543H12.3513H12.3483H12.3452H12.3422H12.3392H12.3361H12.333H12.33H12.3269H12.3238H12.3208H12.3177H12.3146H12.3115H12.3084H12.3053H12.3021H12.299H12.2959H12.2928H12.2896H12.2865H12.2834H12.2802H12.2771H12.2739H12.2707H12.2676H12.2644H12.2612H12.258H12.2548H12.2516H12.2484H12.2452H12.242H12.2388H12.2356H12.2324H12.2292H12.226H12.2227H12.2195H12.2163H12.213H12.2098H12.2065H12.2033H12.2H12.1968H12.1935H12.1903H12.187H12.1837H12.1805H12.1772H12.1739H12.1706H12.1674H12.1641H12.1608H12.1575H12.1542H12.1509H12.1476H12.1443H12.141H12.1377H12.1344H12.1311H12.1278H12.1245H12.1212H12.1178H12.1145H12.1112H12.1079H12.1046H12.1013H12.0979H12.0946H12.0913H12.088H12.0846H12.0813H12.078H12.0746H12.0713H12.068H12.0646H12.0613H12.058H12.0546H12.0513H12.048H12.0446H12.0413H12.038H12.0346H12.0313H12.0279H12.0246H12.0213H12.0179H12.0146H12.0113H12.0079H12.0046H12.0013H11.9979H11.9946H11.9913H11.9879H11.9846H11.9813H11.9779H11.9746H11.9713H11.9679H11.9646H11.9613H11.958H11.9547H11.9513H11.948H11.9447H11.9414H11.9381H11.9348H11.9315H11.9282H11.9248H11.9215H11.9182H11.9149H11.9116H11.9084H11.9051H11.9018H11.8985H11.8952H11.8919H11.8886H11.8854H11.8821H11.8788H11.8755H11.8723H11.869H11.8658H11.8625H11.8593H11.856H11.8528H11.8495H11.8463H11.843H11.8398H11.8366H11.8334H11.8301H11.8269H11.8237H11.8205H11.8173H11.8141H11.8109H11.8077H11.8045H11.8013H11.7982H11.795H11.7918H11.7887H11.7855H11.7823H11.7792H11.7761H11.7729H11.7698H11.7666H11.7635H11.7604H11.7573H11.7542H11.7511H11.748H11.7449H11.7418H11.7387H11.7356H11.7326H11.7295H11.7265H11.7234H11.7204H11.7173H11.7143H11.7113H11.7082H11.7052H11.7022H11.6992H11.6962H11.6932H11.6903H11.6873H11.6843H11.6813H11.6784H11.6754H11.6725H11.6696H11.6666H11.6637H11.6608H11.6579H11.655H11.6521H11.6493H11.6464H11.6435H11.6407H11.6378H11.635H11.6321H11.6293H11.6265H11.6237H11.6209H11.6181H11.6153H11.6125H11.6098H11.607H11.6042H11.6015H11.5988H11.596H11.5933H11.5906H11.5879H11.5852H11.5826H11.5799H11.5772H11.5746H11.5719H11.5693H11.5667H11.5641H11.5615H11.5589H11.5563H11.5537H11.5512H11.5486H11.5461H11.5435H11.541H11.5385H11.536H11.5335H11.531H11.5285H11.5261H11.5236H11.5212H11.5187H11.5163H11.5139H11.5115H11.5091H11.5068H11.5044H11.502H11.4997H11.4974H11.4951H11.4927H11.4904H11.4882H11.4859H11.4836H11.4814H11.4791H11.4769H11.4747H11.4725H11.4703H11.4681H11.466H11.4638H11.4617H11.4595H11.4574H11.4553H11.4532H11.4512H11.4491H11.447H11.445H11.443H11.441H11.439H11.437H11.435H11.433H11.4311H11.4292H11.4272H11.4253H11.4234H11.4215H11.4197H11.4178H11.416H11.4142H11.4124H11.4106H11.4099C8.21325 6.13429 3.84445 6.21365 1.54109 6.57093L1.52277 6.57378L1.50478 6.57827C1.33275 6.62124 1.22784 6.73858 1.17161 6.82285C1.11353 6.90991 1.07682 7.00611 1.05228 7.0898C1.00264 7.25911 0.980194 7.45664 0.975197 7.63744C0.970171 7.81932 0.982074 8.01175 1.01534 8.17453C1.03163 8.25425 1.05667 8.34526 1.09805 8.42896C1.12888 8.49133 1.2058 8.62645 1.36435 8.69521C1.50145 8.76618 1.61327 8.87505 1.69502 8.97742C1.73596 9.0287 1.76629 9.07451 1.78567 9.10615C1.78963 9.11262 1.7931 9.11845 1.79607 9.12354C1.79962 9.13526 1.80411 9.15031 1.80957 9.16902C1.82731 9.22975 1.85524 9.32868 1.89451 9.47697C1.97306 9.7736 2.0966 10.2663 2.27443 11.0437C2.46782 11.9015 2.8255 12.437 3.16082 12.7624C3.32688 12.9236 3.48331 13.0293 3.60391 13.0963C3.66415 13.1298 3.71538 13.1536 3.7544 13.1699C3.77391 13.1781 3.79039 13.1844 3.80343 13.1891L3.8204 13.195L3.82686 13.1972L3.82958 13.198L3.83081 13.1984L3.83139 13.1986C3.83167 13.1987 3.83194 13.1988 3.95225 12.8094ZM3.95225 12.8094L3.8541 13.2049L3.84293 13.2022L3.83194 13.1988L3.95225 12.8094ZM1.80913 9.14689C1.80932 9.14725 1.80932 9.14725 1.80913 9.14688L1.80913 9.14689ZM1.78592 9.09077C1.78588 9.09065 1.78588 9.09064 1.78591 9.09075L1.78592 9.09077Z" fill="white" stroke="#F4F8FD" stroke-width="0.815001"/>
</svg>
