<svg width="24" height="24" viewBox="0 0 24 24" fill="none" xmlns="http://www.w3.org/2000/svg">
<rect width="24" height="24" rx="12" fill="#13CE66"/>
<path fill-rule="evenodd" clip-rule="evenodd" d="M12 5.5L21 12L12 18.5L3 12L12 5.5Z" fill="#FFCA68"/>
<path fill-rule="evenodd" clip-rule="evenodd" d="M12 16.1364C14.3196 16.1364 16.2 14.2844 16.2 12C16.2 9.71555 14.3196 7.86363 12 7.86363C9.68041 7.86363 7.8 9.71555 7.8 12C7.8 14.2844 9.68041 16.1364 12 16.1364Z" fill="#073579"/>
<path fill-rule="evenodd" clip-rule="evenodd" d="M11.4 13.7727V14.9545H10.2V13.7727H11.4ZM13.8 13.7727V14.9545H12.6V13.7727H13.8Z" fill="white"/>
<path fill-rule="evenodd" clip-rule="evenodd" d="M8.47665 9.7477L8.49386 9.72238C8.76486 9.72774 9.05986 9.73978 9.37336 9.76037C10.2653 9.81898 11.1445 9.93786 11.9717 10.1319C12.3248 10.2147 12.6634 10.3102 12.9858 10.4194C13.3403 10.5394 13.6833 10.6673 14.0148 10.8021C14.6588 11.0641 15.2366 11.3421 15.7457 11.6235L16.0428 11.7926C16.0969 11.8243 16.1484 11.855 16.1974 11.8846L16.2 12C16.2 12.3429 16.1576 12.6761 16.0778 12.9948L15.7833 12.8036L15.5372 12.6553C14.9997 12.3403 14.3651 12.0242 13.638 11.7284C13.3249 11.601 13.0005 11.4801 12.6652 11.3666C12.3742 11.2681 12.0663 11.1812 11.7434 11.1054C10.9747 10.9252 10.1485 10.8135 9.3078 10.7582C8.9235 10.733 8.56905 10.7213 8.25682 10.7193L8.00503 10.7198C8.09079 10.46 8.20194 10.2116 8.33559 9.97724L8.49386 9.72238L8.47665 9.7477Z" fill="white"/>
<path d="M0.25 12C0.25 5.51065 5.51065 0.25 12 0.25C18.4893 0.25 23.75 5.51065 23.75 12C23.75 18.4893 18.4893 23.75 12 23.75C5.51065 23.75 0.25 18.4893 0.25 12Z" stroke="black" stroke-opacity="0.095389" stroke-width="0.5"/>
</svg>
