<svg width="24" height="24" viewBox="0 0 24 24" fill="none" xmlns="http://www.w3.org/2000/svg">
<path fill-rule="evenodd" clip-rule="evenodd" d="M12 23.5C18.3513 23.5 23.5 18.3513 23.5 12C23.5 5.64873 18.3513 0.5 12 0.5C5.64873 0.5 0.5 5.64873 0.5 12C0.5 18.3513 5.64873 23.5 12 23.5Z" fill="#FFCA68"/>
<path fill-rule="evenodd" clip-rule="evenodd" d="M12 0C13.4026 0 14.749 0.240642 16.0002 0.682893V23.3171C14.749 23.7594 13.4026 24 12 24C10.5975 24 9.25127 23.7594 8.00022 23.3173V0.682745C9.25127 0.240589 10.5975 0 12 0Z" fill="#FFCA68"/>
<path fill-rule="evenodd" clip-rule="evenodd" d="M16.0003 23.3171L16.0003 0.682922C20.6609 2.33035 24 6.77523 24 12C24 17.2248 20.6609 21.6697 16.0003 23.3171L16.0003 0.682922L16.0003 23.3171Z" fill="#F65260"/>
<path fill-rule="evenodd" clip-rule="evenodd" d="M8.0003 0.682709V23.3173C3.33938 21.67 0 17.225 0 12C0 6.775 3.33938 2.32997 8.0003 0.682709Z" fill="black"/>
<path d="M0.25 12C0.25 5.51065 5.51065 0.25 12 0.25C18.4893 0.25 23.75 5.51065 23.75 12C23.75 18.4893 18.4893 23.75 12 23.75C5.51065 23.75 0.25 18.4893 0.25 12Z" stroke="black" stroke-opacity="0.095389" stroke-width="0.5"/>
</svg>
