<svg width="642" height="542" viewBox="0 0 642 542" fill="none" xmlns="http://www.w3.org/2000/svg">
<g filter="url(#filter0_d)">
<g clip-path="url(#clip0)">
<path d="M16 16C16 11.5817 19.5817 8 24 8H618C622.418 8 626 11.5817 626 16V510C626 514.418 622.418 518 618 518H24C19.5817 518 16 514.418 16 510V16Z" fill="#F8F8F8"/>
<g filter="url(#filter1_d)">
<rect width="690" height="34" transform="translate(-64 8)" fill="white"/>
<rect y="11" width="551" height="28" rx="14" fill="#EFF1F4"/>
<path d="M533 18.629L534.311 22.6941L534.423 23.0414L534.788 23.0406L539.059 23.0313L535.598 25.5343L535.302 25.7481L535.416 26.095L536.745 30.1543L533.295 27.6361L533 27.421L532.705 27.6361L529.255 30.1543L530.584 26.095L530.698 25.7481L530.402 25.5343L526.941 23.0313L531.212 23.0406L531.577 23.0414L531.689 22.6941L533 18.629Z" stroke="#4B4D52"/>
<path d="M572.5 32C576.642 32 580 28.6421 580 24.5C580 20.3579 576.642 17 572.5 17C568.358 17 565 20.3579 565 24.5C565 28.6421 568.358 32 572.5 32Z" fill="#A2A2A2"/>
<path opacity="0.6" fill-rule="evenodd" clip-rule="evenodd" d="M576.672 21.3095C577.267 21.0966 577.82 20.8382 578.318 20.5395C578.451 20.4598 578.581 20.3764 578.707 20.2894C578.519 20.0125 578.313 19.7488 578.09 19.5C577.606 19.8244 577.045 20.1065 576.424 20.3357C576.075 19.1659 575.584 18.1677 574.995 17.425C574.214 17.1497 573.375 17 572.5 17C571.625 17 570.786 17.1497 570.005 17.425C569.416 18.1677 568.925 19.1659 568.576 20.3357C567.955 20.1065 567.394 19.8244 566.91 19.5C566.687 19.7488 566.481 20.0125 566.293 20.2894C566.419 20.3764 566.549 20.4598 566.682 20.5395C567.18 20.8382 567.733 21.0966 568.328 21.3095C568.148 22.1481 568.037 23.0533 568.008 24H565.016C565.006 24.1653 565 24.332 565 24.5C565 24.668 565.006 24.8347 565.016 25H568.008C568.037 25.9467 568.148 26.8519 568.328 27.6905C567.733 27.9034 567.18 28.1618 566.682 28.4605C566.549 28.5402 566.419 28.6236 566.293 28.7106C566.481 28.9875 566.687 29.2512 566.91 29.5C567.394 29.1756 567.955 28.8935 568.576 28.6643C568.925 29.8341 569.416 30.8323 570.005 31.575C570.786 31.8503 571.625 32 572.5 32C573.375 32 574.214 31.8503 574.995 31.575C575.584 30.8323 576.075 29.8341 576.424 28.6643C577.045 28.8935 577.606 29.1756 578.09 29.5C578.313 29.2512 578.519 28.9875 578.707 28.7106C578.581 28.6236 578.451 28.5402 578.318 28.4605C577.82 28.1618 577.267 27.9034 576.672 27.6905C576.852 26.8519 576.963 25.9467 576.992 25H579.984C579.994 24.8347 580 24.668 580 24.5C580 24.332 579.994 24.1653 579.984 24H576.992C576.963 23.0533 576.852 22.1481 576.672 21.3095ZM575.992 25C575.964 25.8486 575.866 26.654 575.712 27.3964C574.863 27.1771 573.949 27.0439 573 27.0091V25H575.992ZM575.469 28.3664C574.704 28.1682 573.872 28.0443 573 28.0098V31.9094C573.58 31.703 574.223 31.1295 574.798 30.0425C575.057 29.5541 575.284 28.9904 575.469 28.3664ZM572 31.9094V28.0098C571.128 28.0443 570.296 28.1682 569.531 28.3664C569.716 28.9904 569.943 29.5541 570.202 30.0425C570.777 31.1295 571.42 31.703 572 31.9094ZM569.288 27.3964C570.137 27.1771 571.051 27.0439 572 27.0091V25H569.008C569.036 25.8486 569.134 26.654 569.288 27.3964ZM569.288 21.6036C569.134 22.346 569.036 23.1514 569.008 24H572V21.9909C571.051 21.9561 570.137 21.8229 569.288 21.6036ZM572 20.9902C571.128 20.9557 570.296 20.8318 569.531 20.6336C569.716 20.0096 569.943 19.4459 570.202 18.9575C570.777 17.8705 571.42 17.297 572 17.0906V20.9902ZM573 20.9902V17.0906C573.58 17.297 574.223 17.8705 574.798 18.9575C575.057 19.4459 575.284 20.0096 575.469 20.6336C574.704 20.8318 573.872 20.9557 573 20.9902ZM573 21.9909C573.949 21.9561 574.863 21.8229 575.712 21.6036C575.866 22.346 575.964 23.1514 575.992 24H573V21.9909Z" fill="white"/>
<rect width="28" height="28" transform="translate(591 11)" fill="white"/>
<path d="M605 13C598.376 13 593 18.376 593 25C593 31.624 598.376 37 605 37C611.624 37 617 31.624 617 25C617 18.376 611.624 13 605 13ZM612.632 30.796C610.916 28.708 606.752 28 605 28C603.248 28 599.084 28.708 597.368 30.796C596.144 29.188 595.4 27.184 595.4 25C595.4 19.708 599.708 15.4 605 15.4C610.292 15.4 614.6 19.708 614.6 25C614.6 27.184 613.856 29.188 612.632 30.796ZM605 17.8C602.672 17.8 600.8 19.672 600.8 22C600.8 24.328 602.672 26.2 605 26.2C607.328 26.2 609.2 24.328 609.2 22C609.2 19.672 607.328 17.8 605 17.8Z" fill="#B6B9BE"/>
</g>
</g>
</g>
<defs>
<filter id="filter0_d" x="0" y="0" width="642" height="542" filterUnits="userSpaceOnUse" color-interpolation-filters="sRGB">
<feFlood flood-opacity="0" result="BackgroundImageFix"/>
<feColorMatrix in="SourceAlpha" type="matrix" values="0 0 0 0 0 0 0 0 0 0 0 0 0 0 0 0 0 0 127 0"/>
<feOffset dy="8"/>
<feGaussianBlur stdDeviation="8"/>
<feColorMatrix type="matrix" values="0 0 0 0 0 0 0 0 0 0 0 0 0 0 0 0 0 0 0.16 0"/>
<feBlend mode="normal" in2="BackgroundImageFix" result="effect1_dropShadow"/>
<feBlend mode="normal" in="SourceGraphic" in2="effect1_dropShadow" result="shape"/>
</filter>
<filter id="filter1_d" x="-64" y="8" width="690" height="35" filterUnits="userSpaceOnUse" color-interpolation-filters="sRGB">
<feFlood flood-opacity="0" result="BackgroundImageFix"/>
<feColorMatrix in="SourceAlpha" type="matrix" values="0 0 0 0 0 0 0 0 0 0 0 0 0 0 0 0 0 0 127 0"/>
<feOffset dy="1"/>
<feColorMatrix type="matrix" values="0 0 0 0 0 0 0 0 0 0 0 0 0 0 0 0 0 0 0.06 0"/>
<feBlend mode="normal" in2="BackgroundImageFix" result="effect1_dropShadow"/>
<feBlend mode="normal" in="SourceGraphic" in2="effect1_dropShadow" result="shape"/>
</filter>
<clipPath id="clip0">
<path d="M16 16C16 11.5817 19.5817 8 24 8H618C622.418 8 626 11.5817 626 16V510C626 514.418 622.418 518 618 518H24C19.5817 518 16 514.418 16 510V16Z" fill="white"/>
</clipPath>
</defs>
</svg>
