<svg width="24" height="24" viewBox="0 0 24 24" fill="none" xmlns="http://www.w3.org/2000/svg">
<path fill-rule="evenodd" clip-rule="evenodd" d="M12 23.5C18.3513 23.5 23.5 18.3513 23.5 12C23.5 5.64873 18.3513 0.5 12 0.5C5.64873 0.5 0.5 5.64873 0.5 12C0.5 18.3513 5.64873 23.5 12 23.5Z" fill="#F65260"/>
<path fill-rule="evenodd" clip-rule="evenodd" d="M23.8617 13.8046L23.8752 13.7368C23.0337 19.5411 18.0375 23.9999 12 23.9999C11.3487 23.9999 10.7096 23.948 10.0865 23.8481L10.0101 23.8356L9.97198 13.8046H23.8617L23.8752 13.7368L23.8617 13.8046Z" fill="#F65260"/>
<path fill-rule="evenodd" clip-rule="evenodd" d="M6.32834 13.8048L6.3279 22.5775C3.06599 20.8247 0.708288 17.6071 0.134796 13.8047L6.32834 13.8048Z" fill="#F65260"/>
<path fill-rule="evenodd" clip-rule="evenodd" d="M6.32791 1.42236L6.32834 10.0646L0.155273 10.0644C0.762593 6.31908 3.10348 3.15507 6.32791 1.42236Z" fill="#F65260"/>
<path fill-rule="evenodd" clip-rule="evenodd" d="M12 0C17.9878 0 22.9513 4.38562 23.8536 10.1199L23.8421 10.0648H9.97198V0.172646C10.6334 0.0582519 11.3099 0 12 0Z" fill="#F65260"/>
<path fill-rule="evenodd" clip-rule="evenodd" d="M10.0101 0.164062L10.01 10.0641L23.8448 10.0648C23.9469 10.6947 24 11.3411 24 11.9998C24 12.6203 23.9529 13.2298 23.8621 13.8249L10.01 13.8126L10.0101 23.8356C8.66867 23.6117 7.40262 23.1654 6.25111 22.5357L6.258 13.8096L0.134856 13.8048C0.0460409 13.2161 0 12.6133 0 11.9998C0 11.3411 0.0530791 10.6947 0.155194 10.0648L6.2615 10.0641L6.26866 1.45438C7.33357 0.874387 8.49607 0.451001 9.72523 0.215147L10.0101 0.164062Z" fill="white"/>
<path fill-rule="evenodd" clip-rule="evenodd" d="M8.97702 0.383789L8.97715 11.0636L23.964 11.0635C23.9879 11.3724 24 11.6847 24 11.9998C24 12.2742 23.9908 12.5465 23.9727 12.8164L8.97715 12.8167L8.85501 22.5729C8.84934 22.9493 8.84392 23.289 8.83887 23.579C8.32225 23.4384 7.81946 23.264 7.33304 23.0585L7.33336 12.8167L0.0248002 12.7908C0.00862923 12.529 0 12.2654 0 11.9998C0 11.6847 0.0121447 11.3724 0.0359917 11.0635L7.33336 11.0636L7.33304 0.941132C7.75676 0.762094 8.19291 0.606698 8.63983 0.476597L8.97702 0.383789Z" fill="#0C69DA"/>
<path d="M0.25 12C0.25 5.51065 5.51065 0.25 12 0.25C18.4893 0.25 23.75 5.51065 23.75 12C23.75 18.4893 18.4893 23.75 12 23.75C5.51065 23.75 0.25 18.4893 0.25 12Z" stroke="black" stroke-opacity="0.095389" stroke-width="0.5"/>
</svg>
