<svg width="24" height="24" viewBox="0 0 24 24" fill="none" xmlns="http://www.w3.org/2000/svg">
<path fill-rule="evenodd" clip-rule="evenodd" d="M12 23.5C18.3513 23.5 23.5 18.3513 23.5 12C23.5 5.64873 18.3513 0.5 12 0.5C5.64873 0.5 0.5 5.64873 0.5 12C0.5 18.3513 5.64873 23.5 12 23.5Z" fill="#F65260"/>
<path fill-rule="evenodd" clip-rule="evenodd" d="M12 0C18.6274 0 24 5.37258 24 12C24 13.1569 23.8363 14.2755 23.5308 15.334L3.99978 15.334L3.99959 3.05594C6.12266 1.15556 8.92638 0 12 0Z" fill="#F65260"/>
<path fill-rule="evenodd" clip-rule="evenodd" d="M23.5309 15.334C22.0863 20.3395 17.4706 24.0002 12 24.0002C8.92632 24.0002 6.12254 22.8446 3.99945 20.9441L3.99963 15.3335L23.5309 15.334Z" fill="#13CE66"/>
<path fill-rule="evenodd" clip-rule="evenodd" d="M3.99997 3.05566V20.9445C1.54499 18.7472 0 15.554 0 12.0001C0 8.44608 1.54499 5.25295 3.99997 3.05566Z" fill="white"/>
<path fill-rule="evenodd" clip-rule="evenodd" d="M2.28404 17.9999L3.61737 20L3.38301 20.3515C2.84257 19.7939 2.35575 19.1841 1.93087 18.5304L2.28404 17.9999ZM2.28404 13.9999L3.61737 15.9999L2.28404 17.9999L0.950708 15.9999L2.28404 13.9999ZM0.0549622 13.156L0.617375 13.9999L0.266347 14.526C0.18957 14.1677 0.128792 13.8034 0.0847984 13.434L0.0549622 13.156ZM2.28404 9.99995L3.61737 11.9999L2.28404 13.9999L0.950708 11.9999L2.28404 9.99995ZM0.266455 9.47335L0.617375 9.99995L0.0549622 10.8439C0.0905285 10.4718 0.143087 10.1047 0.211853 9.74331L0.266455 9.47335ZM2.28404 5.99995L3.61737 7.99995L2.28404 9.99995L0.950708 7.99995L2.28404 5.99995ZM3.38348 3.64795L3.61737 3.99995L2.28404 5.99995L1.93054 5.47002C2.30249 4.89764 2.72191 4.35896 3.18323 3.85956L3.38348 3.64795Z" fill="#F65260"/>
<path d="M0.25 12C0.25 5.51065 5.51065 0.25 12 0.25C18.4893 0.25 23.75 5.51065 23.75 12C23.75 18.4893 18.4893 23.75 12 23.75C5.51065 23.75 0.25 18.4893 0.25 12Z" stroke="black" stroke-opacity="0.095389" stroke-width="0.5"/>
</svg>
