<svg width="24" height="24" viewBox="0 0 24 24" fill="none" xmlns="http://www.w3.org/2000/svg">
<path fill-rule="evenodd" clip-rule="evenodd" d="M12 23.5C18.3513 23.5 23.5 18.3513 23.5 12C23.5 5.64873 18.3513 0.5 12 0.5C5.64873 0.5 0.5 5.64873 0.5 12C0.5 18.3513 5.64873 23.5 12 23.5Z" fill="white"/>
<path fill-rule="evenodd" clip-rule="evenodd" d="M22.6675 17.4995L22.568 17.6898C22.0807 18.5929 21.4811 19.4264 20.7879 20.1716L20.7138 20.2505L3.2865 20.25L3.21212 20.1716C2.51887 19.4264 1.91927 18.5929 1.43204 17.6898L1.332 17.4995H22.6675ZM12 0C15.4316 0 18.5267 1.44038 20.7138 3.74953L11.75 3.75V6.5H22.668L22.6856 6.53377C23.1219 7.38512 23.4596 8.29539 23.6833 9.24951L11.75 9.25V12H24C24 12.9464 23.8904 13.8672 23.6833 14.7505H0.316694C0.109562 13.8672 0 12.9464 0 12C0 5.37258 5.37258 0 12 0Z" fill="white"/>
<path fill-rule="evenodd" clip-rule="evenodd" d="M20.7138 20.2506C18.5267 22.5597 15.4316 24.0001 12 24.0001C8.6447 24.0001 5.61104 22.623 3.43335 20.4032L3.2862 20.2506H20.7138ZM23.6834 14.7502C23.4567 15.717 23.1131 16.6388 22.6683 17.4998H1.3317C0.936335 16.7345 0.620916 15.9211 0.396487 15.0708L0.316612 14.7502H23.6834ZM23.6834 9.24995C23.8675 10.035 23.9745 10.8497 23.996 11.6856L24 12.0001H11.75V9.25008L23.6834 9.24995ZM20.7142 3.75C21.4875 4.56657 22.1473 5.49177 22.6683 6.50031L11.75 6.50008V3.75008L20.7142 3.75Z" fill="#0C69DA"/>
<path fill-rule="evenodd" clip-rule="evenodd" d="M8.77287 8.81405L10.5 8.5L8.08021 8.06004C8.07838 8.0557 8.07717 8.05101 8.07535 8.04667L8.08342 8.03505L8.11058 8.03999L8.07786 8.05353C8.09296 8.0498 8.10702 8.04581 8.12177 8.04207L8.68965 8.14456C9.34612 7.8726 9.49911 7.59456 9.64672 7.40365L10.2336 7.16059C9.47594 6.77625 9.50379 7.45251 8.47565 7.46839L9.4749 6.0251L7.45324 7.42465C7.44899 7.42292 7.4443 7.42161 7.43996 7.41988L7.43727 7.40521L7.46001 7.38942L7.44647 7.42214C7.45454 7.40895 7.46157 7.3961 7.46938 7.383L7.94336 7.05394C8.21541 6.39729 8.12689 6.0927 8.09635 5.85328L8.33941 5.26641C7.53186 5.53038 8.0297 5.98883 7.31405 6.72713L7 5L6.56004 7.41988C6.5557 7.42161 6.55101 7.42292 6.54676 7.42465L6.53513 7.41658L6.54008 7.38942L6.55353 7.42214C6.54988 7.40704 6.54581 7.39298 6.54199 7.37823L6.64456 6.81044C6.3726 6.15388 6.09456 6.00089 5.90374 5.85328L5.66059 5.26641C5.27625 6.02415 5.95251 5.99621 5.96847 7.02435L4.5251 6.0251L5.92474 8.04667C5.92292 8.05101 5.92161 8.0557 5.91988 8.06004L5.90521 8.06264L5.88942 8.03999L5.92214 8.05353C5.90895 8.04555 5.8961 8.03843 5.883 8.03071L5.55394 7.55664C4.89738 7.28468 4.5927 7.37319 4.35328 7.40365L3.76641 7.16059C4.03038 7.96814 4.48892 7.4703 5.22713 8.18595L3.5 8.5L5.91988 8.93996C5.92161 8.9443 5.92292 8.94899 5.92474 8.95324L5.91667 8.96487L5.88942 8.96001L5.92214 8.94638C5.90712 8.95012 5.89298 8.95411 5.87831 8.95793L5.31044 8.85544C4.65388 9.12732 4.50089 9.40535 4.35328 9.59635L3.76641 9.83932C4.52415 10.2237 4.49629 9.54749 5.52435 9.53161L4.5251 10.9748L6.54676 9.57526C6.55101 9.57708 6.5557 9.57838 6.56004 9.58012L6.56264 9.59479L6.53999 9.61058L6.55353 9.57786C6.54555 9.59105 6.53843 9.6039 6.53071 9.617L6.05664 9.94606C5.78468 10.6025 5.87311 10.9073 5.90374 11.1466L5.66059 11.7336C6.46814 11.4696 5.9703 11.0111 6.68595 10.2729L7 12L7.43996 9.58012C7.4443 9.57838 7.44899 9.57708 7.45324 9.57526L7.46487 9.58333L7.46001 9.61049L7.44647 9.57786C7.4502 9.59288 7.45419 9.60693 7.45801 9.62169L7.35544 10.1896C7.6274 10.8461 7.90544 10.9991 8.09635 11.1467L8.33941 11.7336C8.72384 10.9759 8.04758 11.0037 8.03161 9.97565L9.4749 10.9748L8.07535 8.95324C8.07717 8.94899 8.07838 8.9443 8.08021 8.93996L8.09479 8.93727L8.11058 8.96001L8.07786 8.94638C8.09114 8.95445 8.1039 8.96157 8.117 8.96929L8.44606 9.44336C9.10262 9.71532 9.40738 9.62681 9.64672 9.59635L10.2336 9.83932C9.9697 9.03186 9.51108 9.5297 8.77287 8.81405Z" fill="#FFCA68"/>
<path d="M0.25 12C0.25 5.51065 5.51065 0.25 12 0.25C18.4893 0.25 23.75 5.51065 23.75 12C23.75 18.4893 18.4893 23.75 12 23.75C5.51065 23.75 0.25 18.4893 0.25 12Z" stroke="black" stroke-opacity="0.095389" stroke-width="0.5"/>
</svg>
