<svg width="24" height="24" viewBox="0 0 24 24" fill="none" xmlns="http://www.w3.org/2000/svg">
<path d="M13.7029 20.7029L13.7028 20.7028L13.6933 20.7126C13.52 20.8908 13.2778 21 13 21C12.7209 21 12.4736 20.8894 12.2971 20.7129L3.29711 11.7129C3.10794 11.5237 3 11.2754 3 11V4C3 3.45228 3.45228 3 4 3H11C11.2791 3 11.5264 3.11059 11.7029 3.28711L12.406 2.58399L11.7029 3.28711L20.7029 12.2871C20.8847 12.4689 21 12.7282 21 13C21 13.2778 20.8908 13.52 20.7126 13.6933L20.7126 13.6932L20.7029 13.7029L13.7029 20.7029Z" stroke="#8E8FA0" stroke-width="2"/>
<path d="M6.5 8C7.32843 8 8 7.32843 8 6.5C8 5.67157 7.32843 5 6.5 5C5.67157 5 5 5.67157 5 6.5C5 7.32843 5.67157 8 6.5 8Z" fill="#8E8FA0"/>
</svg>
