<svg width="24" height="24" viewBox="0 0 24 24" fill="none" xmlns="http://www.w3.org/2000/svg">
<path fill-rule="evenodd" clip-rule="evenodd" d="M2.80862 7.03552C2.70961 10.616 3.33157 19.187 10.5865 21.6785C11.0574 21.8402 11.552 21.9231 12.0498 21.9231C12.5476 21.9231 13.0422 21.8402 13.5131 21.6785C20.768 19.187 21.39 10.616 21.291 7.03552C21.2641 6.06351 20.5664 5.24609 19.6116 5.05481C16.535 4.43852 14.1624 3.07543 13.1832 2.44349C12.8453 2.22547 12.452 2 12.0498 2C11.6476 2 11.2543 2.22547 10.9165 2.44349C9.93717 3.07543 7.56466 4.43852 4.48792 5.05481C3.5332 5.24609 2.83545 6.06351 2.80862 7.03552Z" fill="#005AFF" stroke="#005AFF" stroke-width="2"/>
</svg>
