<svg width="24" height="24" viewBox="0 0 24 24" fill="none" xmlns="http://www.w3.org/2000/svg">
<rect width="24" height="24" rx="12" fill="#227415"/>
<path fill-rule="evenodd" clip-rule="evenodd" d="M15.3198 16.6432C14.4232 17.4175 13.2816 17.8813 12.0385 17.8813C10.7953 17.8813 9.65368 17.4175 8.75714 16.6432H15.3198ZM12.0385 7.97656C12.9995 7.97656 13.7785 9.36235 13.7785 11.0718C13.7785 11.3432 13.7589 11.6064 13.722 11.8572L13.8076 11.8303L14.0104 11.7728C15.6518 11.3304 17.1169 11.4764 17.2827 12.0989C17.4326 12.6617 16.4693 13.4213 15.0701 13.8888C15.0902 13.9452 15.1036 14.0054 15.1104 14.069L15.115 14.1656L15.1083 14.1352C15.0683 14.053 14.8612 14.0358 14.5338 14.0469C14.3521 14.0946 14.174 14.1342 13.9997 14.1669L16.9615 14.167C16.8448 14.5197 16.6957 14.856 16.518 15.172L16.3795 15.4051H7.69739C7.50574 15.0996 7.34167 14.7726 7.20897 14.4284L7.11538 14.167L10.0406 14.1675L9.77258 14.1099L9.51918 14.0461C9.20685 14.0367 9.00917 14.0548 8.96909 14.1343L8.96096 14.1656L8.96808 14.055C8.97501 13.9971 8.98738 13.9419 9.00491 13.8894C7.62566 13.4228 6.67966 12.6712 6.82831 12.1131C6.99413 11.4906 8.45919 11.3446 10.1006 11.787L10.3559 11.8603C10.3182 11.6085 10.2984 11.3442 10.2984 11.0718C10.2984 9.36235 11.0775 7.97656 12.0385 7.97656Z" fill="white"/>
<path fill-rule="evenodd" clip-rule="evenodd" d="M7.11538 8.59524C7.45525 8.59524 7.73077 8.8724 7.73077 9.21429C7.73077 9.55618 7.45525 9.83333 7.11538 9.83333C6.77552 9.83333 6.5 9.55618 6.5 9.21429C6.5 8.8724 6.77552 8.59524 7.11538 8.59524ZM16.9615 8.59524C17.3014 8.59524 17.5769 8.8724 17.5769 9.21429C17.5769 9.55618 17.3014 9.83333 16.9615 9.83333C16.6217 9.83333 16.3462 9.55618 16.3462 9.21429C16.3462 8.8724 16.6217 8.59524 16.9615 8.59524ZM15.1154 6.7381C15.4553 6.7381 15.7308 7.01525 15.7308 7.35714C15.7308 7.69903 15.4553 7.97619 15.1154 7.97619C14.7755 7.97619 14.5 7.69903 14.5 7.35714C14.5 7.01525 14.7755 6.7381 15.1154 6.7381ZM8.96154 6.7381C9.30141 6.7381 9.57692 7.01525 9.57692 7.35714C9.57692 7.69903 9.30141 7.97619 8.96154 7.97619C8.62167 7.97619 8.34615 7.69903 8.34615 7.35714C8.34615 7.01525 8.62167 6.7381 8.96154 6.7381ZM12.0385 5.5C12.3783 5.5 12.6538 5.77716 12.6538 6.11905C12.6538 6.46094 12.3783 6.7381 12.0385 6.7381C11.6986 6.7381 11.4231 6.46094 11.4231 6.11905C11.4231 5.77716 11.6986 5.5 12.0385 5.5Z" fill="#FFCA68"/>
<path d="M0.25 12C0.25 5.51065 5.51065 0.25 12 0.25C18.4893 0.25 23.75 5.51065 23.75 12C23.75 18.4893 18.4893 23.75 12 23.75C5.51065 23.75 0.25 18.4893 0.25 12Z" stroke="black" stroke-opacity="0.095389" stroke-width="0.5"/>
</svg>
