<svg width="24" height="24" viewBox="0 0 24 24" fill="none" xmlns="http://www.w3.org/2000/svg">
<path fill-rule="evenodd" clip-rule="evenodd" d="M12 23.5C18.3513 23.5 23.5 18.3513 23.5 12C23.5 5.64873 18.3513 0.5 12 0.5C5.64873 0.5 0.5 5.64873 0.5 12C0.5 18.3513 5.64873 23.5 12 23.5Z" fill="white"/>
<path fill-rule="evenodd" clip-rule="evenodd" d="M23.3169 7.99933C23.7593 9.25064 24 10.5972 24 12C24 13.4029 23.7593 14.7495 23.3169 16.0009L6.00568 16.0003L6.00636 7.99957L23.3169 7.99933Z" fill="white"/>
<path fill-rule="evenodd" clip-rule="evenodd" d="M23.3169 16.0007C21.6694 20.6611 17.2246 24 12 24C9.81667 24 7.76952 23.4169 6.00579 22.398L6.00632 15.9999L23.3169 16.0007Z" fill="black"/>
<path fill-rule="evenodd" clip-rule="evenodd" d="M12 0C17.2249 0 21.6699 3.33927 23.3172 8.00008L6.00651 8L6.00603 1.6019C7.76971 0.583035 9.81677 0 12 0Z" fill="#227415"/>
<path fill-rule="evenodd" clip-rule="evenodd" d="M6.00694 1.60138V22.3986C2.41631 20.3248 0 16.4446 0 12C0 7.55545 2.41631 3.67525 6.00694 1.60138Z" fill="#F65260"/>
<path d="M12 23.75C5.51065 23.75 0.25 18.4893 0.25 12C0.25 5.51065 5.51065 0.25 12 0.25C18.4893 0.25 23.75 5.51065 23.75 12C23.75 18.4893 18.4893 23.75 12 23.75Z" stroke="black" stroke-opacity="0.095389" stroke-width="0.5"/>
</svg>
