<svg width="48" height="48" viewBox="0 0 48 48" xmlns="http://www.w3.org/2000/svg" fill="none"><path d="M40.971 7.029c-4.533-4.533-10.56-7.029-16.971-7.029s-12.438 2.496-16.971 7.029c-4.533 4.533-7.029 10.56-7.029 16.971s2.496 12.438 7.029 16.971c4.533 4.533 10.56 7.029 16.971 7.029s12.438-2.496 16.971-7.029c4.533-4.533 7.029-10.56 7.029-16.971s-2.496-12.438-7.029-16.971zm-16.971 38.158c-11.683 0-21.188-9.505-21.188-21.188 0-11.683 9.505-21.188 21.188-21.188 11.683 0 21.188 9.505 21.188 21.188 0 11.683-9.505 21.188-21.188 21.188zM35.466 16.299c-.549-.549-1.439-.549-1.989 0l-12.418 12.418-6.537-6.537c-.549-.549-1.44-.549-1.989 0-.549.549-.549 1.44 0 1.989l7.531 7.531c.275.275.634.412.994.412s.72-.137.994-.412l13.412-13.412c.549-.549.549-1.439 0-1.989z" fill="#3D973F"/></svg>