<svg width="20" height="15" viewBox="0 0 20 15" xmlns="http://www.w3.org/2000/svg" fill="none">
	<path fill-rule="evenodd" clip-rule="evenodd" d="M20 13c0 1.105-.895 2-2 2h-16c-1.105 0-2-.895-2-2v-11l.01-.204c.102-1.009.954-1.796 1.99-1.796h16c1.105 0 2 .895 2 2v11zm-18.98-11.202c.093-.456.496-.798.98-.798h16c.552 0 1 .448 1 1v.959c0 .326-.159.632-.427.819l-8 5.6c-.344.241-.803.241-1.147 0l-8-5.6c-.267-.187-.427-.493-.427-.819v-.959l.02-.202zm-.02 2.902l7.853 5.497c.689.482 1.605.482 2.294 0l7.853-5.497v8.3c0 .552-.448 1-1 1h-16c-.552 0-1-.448-1-1v-8.3z" fill="#1C304E"/>
</svg>