<svg width="48" height="48" viewBox="0 0 48 48" xmlns="http://www.w3.org/2000/svg" fill="none"><path d="M40.97 7.03c-4.535-4.535-10.556-7.03-16.97-7.03s-12.434 2.495-16.97 7.03c-4.535 4.535-7.03 10.556-7.03 16.97s2.495 12.434 7.03 16.97c4.535 4.535 10.556 7.03 16.97 7.03s12.434-2.495 16.97-7.03c4.535-4.535 7.03-10.556 7.03-16.97s-2.495-12.434-7.03-16.97zm-1.929 32.01c-4.02 4.02-9.364 6.232-15.04 6.232-5.677 0-11.02-2.212-15.04-6.232-8.293-8.293-8.293-21.788 0-30.081 4.02-4.02 9.364-6.232 15.04-6.232 5.677 0 11.02 2.212 15.04 6.232 8.293 8.293 8.293 21.788 0 30.081zM34.576 13.424c-.535-.535-1.394-.535-1.929 0l-8.646 8.646-8.646-8.646c-.535-.535-1.394-.535-1.929 0-.535.535-.535 1.394 0 1.929l8.646 8.646-8.646 8.647c-.535.535-.535 1.394 0 1.929.263.263.616.404.96.404.343 0 .697-.131.96-.404l8.646-8.646 8.646 8.646c.263.263.616.404.96.404.353 0 .697-.131.96-.404.535-.535.535-1.394 0-1.929l-8.626-8.647 8.646-8.646c.535-.535.535-1.394 0-1.929z" fill="#994136"/></svg>