<svg width="84" height="24" viewBox="0 0 84 24" fill="none" xmlns="http://www.w3.org/2000/svg">
    <path fill-rule="evenodd" clip-rule="evenodd" d="M81.4168 16.744C81.2602 16.5705 81.1823 16.2835 81.1823 15.8834V10.4801H83.0625V8.35875H81.1823V5.69697H78.2355V8.35875H76.7576V8.53363L78.2355 10.4801V16.3136C78.2763 18.3618 79.3298 19.3856 81.3961 19.3856C81.968 19.3856 82.5247 19.31 83.0668 19.1583V16.9531C82.8429 16.9873 82.5922 17.0041 82.3139 17.0041C81.872 17.0041 81.5729 16.9174 81.4168 16.744ZM61.8519 8.1561C60.5264 8.1561 59.4693 8.63996 58.6808 9.60711V8.35639H55.8159V19.1832H58.7607V12.2711C58.7607 11.2876 59.5731 10.4903 60.5753 10.4903C61.5776 10.4903 62.3899 11.2876 62.3899 12.2711V13.2288C62.3913 13.2718 62.3922 13.3156 62.3922 13.3603V19.1832H65.339V12.1887C65.325 10.8479 65.0329 9.84071 64.462 9.16672C63.8911 8.49316 63.021 8.1561 61.8519 8.1561ZM51.0191 9.64719V8.35639H48.1542V19.1832H51.0966V13.2349C51.0966 11.9891 52.1256 10.9792 53.3951 10.9792C53.7352 10.9792 54.0581 11.0519 54.3486 11.182V8.27297C54.0761 8.1952 53.7853 8.1561 53.4762 8.1561C52.4295 8.1561 51.6104 8.65323 51.0191 9.64719ZM43.8344 12.5004C43.8344 11.3942 42.9121 10.489 41.785 10.489C40.6578 10.489 39.7355 11.3942 39.7355 12.5004V12.738H43.8344V12.5004ZM46.7129 13.0692V14.4662C46.7129 14.5422 46.711 14.6177 46.7075 14.693H46.4567H43.8344H39.7354V15.0213C39.7354 16.1275 40.6578 17.0328 41.7849 17.0328C42.7918 17.0328 43.6529 16.3901 44.0159 15.7337L46.2788 16.8442C45.4866 18.538 43.7213 19.3793 41.7067 19.3793C38.9532 19.3793 36.7003 17.1683 36.7003 14.4662V13.0692C36.7003 10.3671 38.9532 8.1561 41.7067 8.1561C44.4602 8.1561 46.7129 10.3671 46.7129 13.0692ZM73.9431 12.5004C73.9431 11.3942 73.0209 10.489 71.8936 10.489C70.7663 10.489 69.8441 11.3942 69.8441 12.5004V12.738H73.9431V12.5004ZM76.8214 13.0692V14.4662C76.8214 14.5422 76.8195 14.6177 76.8161 14.693H76.5654H73.9429H69.8439V15.0213C69.8439 16.1275 70.7661 17.0328 71.8934 17.0328C72.9003 17.0328 73.7614 16.3901 74.1244 15.7337L76.3873 16.8442C75.5951 18.538 73.8299 19.3793 71.8152 19.3793C69.0618 19.3793 66.809 17.1683 66.809 14.4662V13.0692C66.809 10.3671 69.0618 8.1561 71.8152 8.1561C74.5687 8.1561 76.8214 10.3671 76.8214 13.0692ZM7.97312 14.8717C7.97312 13.5375 7.26968 12.8603 5.86252 12.8405H3.05868V16.7729H5.679C6.39941 16.7729 6.9619 16.6045 7.36648 16.2675C7.77076 15.9308 7.97312 15.4653 7.97312 14.8717ZM3.05885 10.7178H5.32234C6.86528 10.6913 7.63689 10.0874 7.63689 8.90671C7.63689 8.24613 7.44129 7.77089 7.05052 7.48068C6.65961 7.19048 6.04275 7.04552 5.19995 7.04552H3.05885V10.7178ZM10.3743 12.8203C10.8128 13.3875 11.032 14.0812 11.032 14.9017C11.032 16.3025 10.5765 17.3634 9.66564 18.0838C8.75466 18.8042 7.45651 19.1712 5.77091 19.1845H0V4.61523H5.19978C7.00103 4.61523 8.3672 4.95385 9.2986 5.6308C10.2299 6.30803 10.6954 7.30031 10.6954 8.60776C10.6954 9.32169 10.5084 9.95023 10.1346 10.4939C9.7607 11.0378 9.24078 11.4362 8.57474 11.6897C9.33585 11.8765 9.93588 12.2535 10.3743 12.8203ZM19.3972 12.5004C19.3972 11.3942 18.475 10.489 17.3479 10.489C16.2206 10.489 15.2984 11.3942 15.2984 12.5004V12.738H19.3972V12.5004ZM22.2758 13.0692V14.4662C22.2758 14.5422 22.2739 14.6177 22.2703 14.693H22.0196H19.3971H15.2983V15.0213C15.2983 16.1275 16.2205 17.0328 17.3478 17.0328C18.3547 17.0328 19.2158 16.3901 19.5786 15.7337L21.8416 16.8442C21.0495 18.538 19.2842 19.3793 17.2694 19.3793C14.5161 19.3793 12.2632 17.1683 12.2632 14.4662V13.0692C12.2632 10.3671 14.5161 8.1561 17.2694 8.1561C20.0229 8.1561 22.2758 10.3671 22.2758 13.0692ZM33.6915 8.35875H35.576V10.4801H33.6915V15.8834C33.6915 16.2835 33.7694 16.5705 33.926 16.744C34.0821 16.9174 34.3812 17.0041 34.8231 17.0041C35.1014 17.0041 35.352 16.9873 35.576 16.9531V19.1583C35.0339 19.31 34.4772 19.3856 33.9055 19.3856C31.839 19.3856 30.7855 18.3618 30.7447 16.3136V10.4801H26.6394V15.8834C26.6394 16.2835 26.7173 16.5705 26.8738 16.744C27.03 16.9174 27.3292 17.0041 27.771 17.0041C28.0491 17.0041 28.3 16.9873 28.5238 16.9531V19.1583C27.9818 19.31 27.4251 19.3856 26.8534 19.3856C24.7869 19.3856 23.7334 18.3618 23.6926 16.3136V10.4801L22.2145 8.53363V8.35875H23.6926V5.69697H26.6394V8.35875H30.7447V5.69697H33.6915V8.35875Z" fill="#2A2A4B"/>
</svg>
