<svg width="24" height="24" viewBox="0 0 24 24" fill="none" xmlns="http://www.w3.org/2000/svg">
<path fill-rule="evenodd" clip-rule="evenodd" d="M12 23.5C18.3513 23.5 23.5 18.3513 23.5 12C23.5 5.64873 18.3513 0.5 12 0.5C5.64873 0.5 0.5 5.64873 0.5 12C0.5 18.3513 5.64873 23.5 12 23.5Z" fill="white"/>
<path fill-rule="evenodd" clip-rule="evenodd" d="M12 0C12.3369 0 12.6706 0.0138844 13.0005 0.0411123V23.9589C12.6706 23.9861 12.3369 24 12 24C5.37258 24 0 18.6274 0 12C0 5.37258 5.37258 0 12 0Z" fill="white"/>
<path fill-rule="evenodd" clip-rule="evenodd" d="M13.0008 23.9587V0.0410156C19.1599 0.549534 24 5.70948 24 11.9999C24 18.2903 19.1599 23.4502 13.0008 23.9587V0.0410156V23.9587Z" fill="#F65260"/>
<path fill-rule="evenodd" clip-rule="evenodd" d="M6.66667 5L6.666 6.333L8 6.33333V7.66667L6.666 7.666L6.66667 9H5.33333L5.333 7.666L4 7.66667V6.33333L5.333 6.333L5.33333 5H6.66667Z" fill="#A0AAC3"/>
<path fill-rule="evenodd" clip-rule="evenodd" d="M6.5 7C6.5 6.72386 6.27614 6.5 6 6.5C5.72386 6.5 5.5 6.72386 5.5 7C5.5 7.27614 5.72386 7.5 6 7.5C6.27614 7.5 6.5 7.27614 6.5 7Z" fill="#4F555F"/>
<path d="M12 23.75C5.51065 23.75 0.25 18.4893 0.25 12C0.25 5.51065 5.51065 0.25 12 0.25C18.4893 0.25 23.75 5.51065 23.75 12C23.75 18.4893 18.4893 23.75 12 23.75Z" stroke="black" stroke-opacity="0.095389" stroke-width="0.5"/>
</svg>
