<svg width="24" height="24" viewBox="0 0 24 24" fill="none" xmlns="http://www.w3.org/2000/svg">
<path fill-rule="evenodd" clip-rule="evenodd" d="M12 23.5C18.3513 23.5 23.5 18.3513 23.5 12C23.5 5.64873 18.3513 0.5 12 0.5C5.64873 0.5 0.5 5.64873 0.5 12C0.5 18.3513 5.64873 23.5 12 23.5Z" fill="white"/>
<path fill-rule="evenodd" clip-rule="evenodd" d="M1.76248 5.73633L9.64286 12.0929L1.83929 18.3873C1.56407 17.9505 1.31625 17.4946 1.09824 17.0221L7.39286 11.9501L1.13351 6.90225C1.32209 6.50097 1.53225 6.11183 1.76248 5.73633Z" fill="#FFCA68"/>
<path fill-rule="evenodd" clip-rule="evenodd" d="M1.13185 6.90527L7.39286 11.9552L1.09994 17.0253C0.393896 15.4966 0 13.7941 0 11.9996C0 10.2741 0.364185 8.63362 1.01988 7.15092L1.13185 6.90527V6.90527Z" fill="black"/>
<path fill-rule="evenodd" clip-rule="evenodd" d="M23.8313 14L23.8331 14.0056C23.776 14.3452 23.7046 14.68 23.6195 15.0093L23.5292 15.3361L23.5255 15.3333H11.8929L4.91557 21.6866C4.55658 21.4236 4.21274 21.1411 3.88563 20.8407L3.88317 20.834L11.5714 14H23.8313Z" fill="white"/>
<path fill-rule="evenodd" clip-rule="evenodd" d="M4.78111 2.41504L11.8929 8.66693L23.5309 8.66668C23.6564 9.10158 23.758 9.54664 23.8341 10.0003H11.5714L3.88195 3.16517C4.16911 2.90092 4.46918 2.65053 4.78111 2.41504Z" fill="white"/>
<path fill-rule="evenodd" clip-rule="evenodd" d="M11.8929 15.333H23.5255L23.5292 15.3357C22.0849 20.34 17.4698 23.9997 12 23.9997C9.35015 23.9997 6.9009 23.1408 4.91546 21.6862L11.8929 15.333Z" fill="#0C69DA"/>
<path fill-rule="evenodd" clip-rule="evenodd" d="M12 0C17.4707 0 22.0864 3.66086 23.5309 8.66646L11.8929 8.66667L4.78036 2.4139C6.7893 0.898508 9.28972 0 12 0Z" fill="#F65260"/>
<path fill-rule="evenodd" clip-rule="evenodd" d="M3.82493 3.21555L3.87814 3.16797L4.44793 3.66816L11.5714 10.0002L23.8341 10.0001C23.9432 10.6506 24 11.3187 24 12.0002C24 12.6816 23.9432 13.3497 23.8341 14.0001L11.5714 14.0002L3.88055 20.8362C3.09681 20.1157 2.4092 19.2922 1.83914 18.3872L9.64286 12.093L1.76248 5.73643C2.29634 4.86574 2.93819 4.06837 3.66937 3.36298L3.82493 3.21555Z" fill="#227415"/>
<path d="M0.25 12C0.25 5.51065 5.51065 0.25 12 0.25C18.4893 0.25 23.75 5.51065 23.75 12C23.75 18.4893 18.4893 23.75 12 23.75C5.51065 23.75 0.25 18.4893 0.25 12Z" stroke="black" stroke-opacity="0.095389" stroke-width="0.5"/>
</svg>
