<svg width="24" height="24" viewBox="0 0 24 24" fill="none" xmlns="http://www.w3.org/2000/svg">
<path fill-rule="evenodd" clip-rule="evenodd" d="M12 23.5C18.3513 23.5 23.5 18.3513 23.5 12C23.5 5.64873 18.3513 0.5 12 0.5C5.64873 0.5 0.5 5.64873 0.5 12C0.5 18.3513 5.64873 23.5 12 23.5Z" fill="white"/>
<path fill-rule="evenodd" clip-rule="evenodd" d="M24 12.0003C24 13.0364 23.8687 14.0419 23.6218 15.0009H0.378214C0.131316 14.0419 0 13.0364 0 12.0003C0 10.9643 0.131284 9.95894 0.378123 9L23.6219 9.00027C23.8687 9.95913 24 10.9644 24 12.0003Z" fill="white"/>
<path fill-rule="evenodd" clip-rule="evenodd" d="M0.682922 16H23.3171C21.6697 20.6606 17.2248 23.9997 12 23.9997C6.77523 23.9997 2.33035 20.6606 0.682922 16H23.3171H0.682922Z" fill="#13CE66"/>
<path fill-rule="evenodd" clip-rule="evenodd" d="M12 0C17.225 0 21.67 3.33938 23.3173 8.0003H0.682716C2.32998 3.33938 6.77501 0 12 0Z" fill="#2FA6F8"/>
<path fill-rule="evenodd" clip-rule="evenodd" d="M0.682746 8H23.3173C23.4328 8.32693 23.5346 8.66037 23.6219 8.99961H0.378098C0.465417 8.66037 0.567199 8.32693 0.682746 8H23.3173H0.682746Z" fill="#F65260"/>
<path fill-rule="evenodd" clip-rule="evenodd" d="M0.378181 15H23.6218C23.5345 15.3393 23.4327 15.6727 23.3171 15.9997H0.682897C0.567325 15.6727 0.465521 15.3393 0.378181 15H23.6218H0.378181Z" fill="#F65260"/>
<path fill-rule="evenodd" clip-rule="evenodd" d="M5.6875 3.5C6.03496 3.5 6.35789 3.59334 6.62629 3.75336L6.57882 3.75077L6.53125 3.75C5.7546 3.75 5.125 4.30964 5.125 5C5.125 5.69036 5.7546 6.25 6.53125 6.25L6.6253 6.24723C6.3571 6.40689 6.03453 6.5 5.6875 6.5C4.75552 6.5 4 5.82843 4 5C4 4.17157 4.75552 3.5 5.6875 3.5ZM7.9375 5.5C8.24816 5.5 8.5 5.72386 8.5 6C8.5 6.27614 8.24816 6.5 7.9375 6.5C7.62684 6.5 7.375 6.27614 7.375 6C7.375 5.72386 7.62684 5.5 7.9375 5.5ZM12.4375 5.5C12.7482 5.5 13 5.72386 13 6C13 6.27614 12.7482 6.5 12.4375 6.5C12.1268 6.5 11.875 6.27614 11.875 6C11.875 5.72386 12.1268 5.5 12.4375 5.5ZM10.1875 5.5C10.4982 5.5 10.75 5.72386 10.75 6C10.75 6.27614 10.4982 6.5 10.1875 6.5C9.87684 6.5 9.625 6.27614 9.625 6C9.625 5.72386 9.87684 5.5 10.1875 5.5ZM10.1875 3.5C10.4982 3.5 10.75 3.72386 10.75 4C10.75 4.27614 10.4982 4.5 10.1875 4.5C9.87684 4.5 9.625 4.27614 9.625 4C9.625 3.72386 9.87684 3.5 10.1875 3.5ZM12.4375 3.5C12.7482 3.5 13 3.72386 13 4C13 4.27614 12.7482 4.5 12.4375 4.5C12.1268 4.5 11.875 4.27614 11.875 4C11.875 3.72386 12.1268 3.5 12.4375 3.5Z" fill="white"/>
<path d="M0.25 12C0.25 5.51065 5.51065 0.25 12 0.25C18.4893 0.25 23.75 5.51065 23.75 12C23.75 18.4893 18.4893 23.75 12 23.75C5.51065 23.75 0.25 18.4893 0.25 12Z" stroke="black" stroke-opacity="0.095389" stroke-width="0.5"/>
</svg>
