<svg id="Outline" xmlns="http://www.w3.org/2000/svg" width="14.476" height="19" viewBox="0 0 14.476 19">
  <path id="Path_2372" data-name="Path 2372" d="M16.667,7.333h-.9V5.524a4.524,4.524,0,0,0-9.048,0v1.81h-.9A1.815,1.815,0,0,0,4,9.143V18.19A1.815,1.815,0,0,0,5.81,20H16.667a1.815,1.815,0,0,0,1.81-1.81V9.143A1.815,1.815,0,0,0,16.667,7.333ZM8.524,5.524a2.714,2.714,0,1,1,5.429,0v1.81H8.524ZM16.667,18.19H5.81V9.143H16.667Zm-5.429-2.714a1.81,1.81,0,1,0-1.81-1.81A1.815,1.815,0,0,0,11.238,15.476Z" transform="translate(-4 -1)" fill="#0e8acd"/>
</svg>
