<svg id="outline-contact_support-24px" xmlns="http://www.w3.org/2000/svg" width="24" height="24" viewBox="0 0 24 24">
  <g id="Bounding_Boxes">
    <path id="Path_2314" data-name="Path 2314" d="M0,0H24V24H0Z" fill="none"/>
  </g>
  <g id="Outline">
    <g id="Group_45" data-name="Group 45">
      <path id="Path_2315" data-name="Path 2315" d="M11,23.59v-3.6A9.5,9.5,0,1,1,21,10.5c0,4.95-3.44,9.93-8.57,12.4ZM11.5,3a7.5,7.5,0,0,0,0,15H13v2.3c3.64-2.3,6-6.08,6-9.8A7.5,7.5,0,0,0,11.5,3Z" fill="#008acd"/>
      <rect id="Rectangle_26" data-name="Rectangle 26" width="2" height="2" transform="translate(10.5 14.5)" fill="#008acd"/>
      <path id="Path_2316" data-name="Path 2316" d="M12.5,13h-2c0-3.25,3-3,3-5a2,2,0,0,0-4,0h-2a4,4,0,0,1,8,0C15.5,10.5,12.5,10.75,12.5,13Z" fill="#008acd"/>
    </g>
  </g>
</svg>
