<?xml version="1.0" encoding="utf-8"?>
<!-- Generator: Adobe Illustrator 24.3.0, SVG Export Plug-In . SVG Version: 6.00 Build 0)  -->
<svg version="1.1" id="Layer_1" xmlns:v="https://vecta.io/nano"
	 xmlns="http://www.w3.org/2000/svg" xmlns:xlink="http://www.w3.org/1999/xlink" x="0px" y="0px" viewBox="0 0 13.5 18"
	 style="enable-background:new 0 0 13.5 18;" xml:space="preserve">
<style type="text/css">
	.st0{fill:#007FC3;enable-background:new    ;}
</style>
<path class="st0" d="M6.7,0C6.7,0,6.6,0,6.5,0C2.8,0.1,0,3.3,0,7v9.3c0,0.3,0.3,0.6,0.6,0.6c0.1,0,0.3-0.1,0.4-0.2L1.8,16
	c0.1-0.1,0.2-0.1,0.3-0.1c0.2,0,0.3,0.1,0.4,0.2l1.5,1.7C4.2,17.9,4.3,18,4.5,18c0.1,0,0.3-0.1,0.4-0.2l1.4-1.6
	C6.4,16.1,6.6,16,6.7,16c0.2,0,0.3,0.1,0.4,0.2l1.4,1.6C8.7,17.9,8.8,18,9,18c0.1,0,0.3-0.1,0.4-0.2l1.5-1.7
	c0.2-0.2,0.5-0.3,0.8-0.1l0.9,0.6c0.1,0.1,0.3,0.2,0.4,0.2c0.3,0,0.6-0.2,0.6-0.6V6.7C13.5,3,10.5,0,6.7,0z M11.8,14.3
	c-0.2,0-0.3-0.1-0.5-0.1c-0.6,0-1.3,0.3-1.7,0.8L9,15.7l-0.6-0.6c-0.4-0.5-1-0.8-1.7-0.8s-1.3,0.3-1.7,0.8l-0.6,0.6L3.8,15
	c-0.4-0.5-1-0.8-1.7-0.8c-0.2,0-0.3,0-0.5,0.1V7c0-2.9,2.2-5.2,4.9-5.3l0.2,0c2.8,0,5.1,2.3,5.1,5.1V14.3z M4.5,5.6
	c-0.6,0-1.1,0.5-1.1,1.1s0.5,1.1,1.1,1.1s1.1-0.5,1.1-1.1S5.1,5.6,4.5,5.6z M9,5.6c-0.6,0-1.1,0.5-1.1,1.1S8.4,7.9,9,7.9
	c0.6,0,1.1-0.5,1.1-1.1S9.6,5.6,9,5.6z"/>
</svg>
