<?xml version="1.0" encoding="utf-8"?>
<!-- Generator: Adobe Illustrator 24.1.3, SVG Export Plug-In . SVG Version: 6.00 Build 0)  -->
<svg version="1.1" baseProfile="tiny" id="Layer_2" xmlns="http://www.w3.org/2000/svg" xmlns:xlink="http://www.w3.org/1999/xlink"
	 x="0px" y="0px" viewBox="0 0 19 19" overflow="visible" xml:space="preserve">
<path fill="#008ACD" d="M9.5,0C4.3,0,0,4.3,0,9.5S4.3,19,9.5,19S19,14.8,19,9.5S14.8,0,9.5,0z M9.5,17C5.4,17,2,13.7,2,9.5
	C2,5.4,5.4,2,9.5,2C13.7,2,17,5.4,17,9.5C17,13.7,13.7,17,9.5,17z M10.6,4.9H8.5V7h2.1V4.9z M10.6,8.1H7.4v1.6h1.2v2.8H7.4v1.6h4.3
	v-1.6h-1V8.1z"/>
</svg>
