<svg xmlns="http://www.w3.org/2000/svg" width="21.6" height="21.6" viewBox="0 0 21.6 21.6">
  <g id="Group_398" data-name="Group 398" transform="translate(-2259.2 -2161.286)">
    <path id="Path_2510" data-name="Path 2510" d="M2280,2172.049a10.032,10.032,0,0,1-10.028,10.037,10.141,10.141,0,0,1-9.972-10.218,9.779,9.779,0,0,1,9.57-9.773q.216-.009.434-.009A9.942,9.942,0,0,1,2280,2172.049Z" fill="none" stroke="#008acd" stroke-miterlimit="10" stroke-width="1.6"/>
    <path id="Path_2511" data-name="Path 2511" d="M2276.923,2162.106c-5.217,5.652-5.217,13.026,0,19.983" transform="translate(-7.353 -0.011)" fill="none" stroke="#008acd" stroke-miterlimit="10" stroke-width="1.6"/>
    <path id="Path_2512" data-name="Path 2512" d="M2284.01,2162.106c5.218,5.652,5.218,13.024,0,19.98" transform="translate(-13.571 -0.011)" fill="none" stroke="#008acd" stroke-miterlimit="10" stroke-width="1.6"/>
    <line id="Line_20" data-name="Line 20" x2="16.975" transform="translate(2261.54 2177.266)" fill="none" stroke="#008acd" stroke-miterlimit="10" stroke-width="1.6"/>
    <line id="Line_21" data-name="Line 21" x2="17.12" transform="translate(2261.395 2166.831)" fill="none" stroke="#008acd" stroke-miterlimit="10" stroke-width="1.6"/>
    <line id="Line_22" data-name="Line 22" x2="20" transform="translate(2260 2172.048)" fill="none" stroke="#008acd" stroke-miterlimit="10" stroke-width="1.6"/>
  </g>
</svg>
