<svg xmlns="http://www.w3.org/2000/svg" width="20.448" height="22" viewBox="0 0 20.448 22">
  <path id="Fill-2" d="M47.7-1053.789a48.848,48.848,0,0,0-9.742.976.532.532,0,0,0-.451.588c1.159,7.08,4.108,15.276,9.8,20.284a.648.648,0,0,0,.835,0c5.693-5.009,8.644-13.2,9.8-20.256a.532.532,0,0,0-.449-.588,47.633,47.633,0,0,0-9.793-1ZM48.758-1037a.6.6,0,0,1-.629.2.508.508,0,0,1-.4-.476v-13.271a.47.47,0,0,1,.168-.354.6.6,0,0,1,.4-.143,44.936,44.936,0,0,1,5.591.46.573.573,0,0,1,.371.207.452.452,0,0,1,.089.381A34.871,34.871,0,0,1,48.758-1037Z" transform="translate(-37.505 1053.789)" fill="#fe8d26"/>
</svg>
