<svg xmlns="http://www.w3.org/2000/svg" width="19.006" height="21" viewBox="0 0 19.006 21">
  <path id="Subtraction_4" data-name="Subtraction 4" d="M-1972-1695a1.362,1.362,0,0,1-.77-.236c-2.825-1.927-5.007-5.011-6.486-9.166a33.7,33.7,0,0,1-1.738-8.052,1.3,1.3,0,0,1,.839-1.328A23.9,23.9,0,0,1-1972-1715a23.881,23.881,0,0,1,8.155,1.218,1.3,1.3,0,0,1,.839,1.328,33.654,33.654,0,0,1-1.737,8.052c-1.479,4.154-3.661,7.238-6.486,9.165A1.366,1.366,0,0,1-1972-1695Zm-2.337-9.025h0a3.661,3.661,0,0,0,.864.491l.189,1.325a.264.264,0,0,0,.257.209h2.057a.265.265,0,0,0,.257-.217l.188-1.325a3.844,3.844,0,0,0,.866-.491l1.277.5a.284.284,0,0,0,.093.016.263.263,0,0,0,.225-.124l1.028-1.725a.251.251,0,0,0-.059-.325l-1.089-.825a2.973,2.973,0,0,0,.034-.483,4.5,4.5,0,0,0-.032-.468l0-.024,1.089-.825a.25.25,0,0,0,.059-.325l-1.028-1.724a.262.262,0,0,0-.225-.125.284.284,0,0,0-.093.016l-1.277.5a3.622,3.622,0,0,0-.866-.491l-.188-1.326a.263.263,0,0,0-.257-.208h-2.057a.265.265,0,0,0-.257.217l-.189,1.325a3.629,3.629,0,0,0-.865.483l-1.277-.5a.284.284,0,0,0-.093-.016.261.261,0,0,0-.225.125l-1.029,1.724a.251.251,0,0,0,.06.325l1.089.825a3.084,3.084,0,0,0-.043.491,4.461,4.461,0,0,0,.032.467l0,.026-1.088.824a.251.251,0,0,0-.052.326l1.029,1.724a.264.264,0,0,0,.224.124.281.281,0,0,0,.094-.016l1.277-.5Zm2.339-1.55a1.447,1.447,0,0,1-1.465-1.426,1.447,1.447,0,0,1,1.465-1.425,1.447,1.447,0,0,1,1.466,1.425A1.448,1.448,0,0,1-1972-1705.575Z" transform="translate(1981.503 1715.5)" fill="#fff" stroke="rgba(0,0,0,0)" stroke-width="1" opacity="0.8"/>
</svg>
