<svg xmlns="http://www.w3.org/2000/svg" width="14" height="14" viewBox="0 0 14 14">
<defs>
    <style>
      .cls-1 {
        fill: #3b9946;
        fill-rule: evenodd;
      }
    </style>
  </defs>
  <path id="ic_Help" class="cls-1" d="M733.906,1453a7,7,0,1,0,7.1,6.91A7,7,0,0,0,733.906,1453Zm-0.02,11.26h-0.039a1.02,1.02,0,0,1,.024-2.04h0.035a1,1,0,0,1,1.01,1.06A0.98,0.98,0,0,1,733.886,1464.26Zm2.5-4.97a4.5,4.5,0,0,1-.836.75l-0.427.29a1.2,1.2,0,0,0-.429.53,1.029,1.029,0,0,0-.066.43v0.07H733l0-.13a1.781,1.781,0,0,1,.269-1.18,6.975,6.975,0,0,1,1.217-.98,1.272,1.272,0,0,0,.288-0.3,1.019,1.019,0,0,0,.247-0.6,1.2,1.2,0,0,0-.224-0.7,0.935,0.935,0,0,0-.807-0.3,0.87,0.87,0,0,0-.816.38,1.5,1.5,0,0,0-.247.81v0.07h-1.681l0-.07a2.578,2.578,0,0,1,1.093-2.21,2.924,2.924,0,0,1,1.582-.41,3.418,3.418,0,0,1,2.042.59A2.159,2.159,0,0,1,736.39,1459.29Z" transform="translate(-727 -1453)"/>
</svg>
