<svg xmlns="http://www.w3.org/2000/svg" width="14" height="11" viewBox="0 0 14 11">
<defs>
    <style>
      .cls-1 {
        fill: #3b9946;
        fill-rule: evenodd;
      }
    </style>
  </defs>
  <path id="ic_Settings" class="cls-1" d="M93.5,21H84.9a1.479,1.479,0,0,1-2.8,0H80.5a0.5,0.5,0,0,1,0-1h1.6a1.479,1.479,0,0,1,2.8,0h8.6A0.5,0.5,0,0,1,93.5,21Zm0-4H88.9a1.479,1.479,0,0,1-2.8,0H80.5a0.5,0.5,0,0,1,0-1h5.6a1.479,1.479,0,0,1,2.8,0h4.6A0.5,0.5,0,0,1,93.5,17Zm-13,7h8.6a1.479,1.479,0,0,1,2.8,0h1.6a0.5,0.5,0,0,1,0,1H91.9a1.479,1.479,0,0,1-2.8,0H80.5A0.5,0.5,0,0,1,80.5,24Z" transform="translate(-80 -15)"/>
</svg>
