<svg width="24" height="24" viewBox="0 0 24 24" fill="none" xmlns="http://www.w3.org/2000/svg">
<path fill-rule="evenodd" clip-rule="evenodd" d="M12 23.5C18.3513 23.5 23.5 18.3513 23.5 12C23.5 5.64873 18.3513 0.5 12 0.5C5.64873 0.5 0.5 5.64873 0.5 12C0.5 18.3513 5.64873 23.5 12 23.5Z" fill="#FFCA68"/>
<path fill-rule="evenodd" clip-rule="evenodd" d="M12 0C13.4028 0 14.7494 0.240703 16.0007 0.683061V23.3169C14.7494 23.7593 13.4028 24 12 24C10.5968 24 9.24991 23.7592 7.99832 23.3166L7.99832 0.683415C9.24991 0.240832 10.5968 0 12 0Z" fill="#FFCA68"/>
<path fill-rule="evenodd" clip-rule="evenodd" d="M16.0007 23.317L16.0007 0.683105C20.6611 2.33064 24 6.77542 24 12C24 17.2247 20.6611 21.6694 16.0007 23.317L16.0007 0.683105L16.0007 23.317Z" fill="#F65260"/>
<path fill-rule="evenodd" clip-rule="evenodd" d="M12 8L12.6667 10H14V14L12 15.3333L10 14V10H11.3333L12 8ZM12.6667 11.3333H11.3333V13.3333H12.6667V11.3333Z" fill="#FF8E4B"/>
<path fill-rule="evenodd" clip-rule="evenodd" d="M8.00008 0.682617L7.99908 23.3167C3.33879 21.6691 0 17.2244 0 11.9998C0 6.77492 3.33927 2.32994 8.00008 0.682617Z" fill="#0C69DA"/>
<path d="M0.25 12C0.25 5.51065 5.51065 0.25 12 0.25C18.4893 0.25 23.75 5.51065 23.75 12C23.75 18.4893 18.4893 23.75 12 23.75C5.51065 23.75 0.25 18.4893 0.25 12Z" stroke="black" stroke-opacity="0.095389" stroke-width="0.5"/>
</svg>
