<svg width="65" height="65" viewBox="0 0 65 65" fill="none" xmlns="http://www.w3.org/2000/svg">
<path d="M18.4343 18.1016L47.1857 46.853L1.01562 64.2738L18.4343 18.1016Z" fill="#FFD2ED"/>
<path fill-rule="evenodd" clip-rule="evenodd" d="M29.9715 35.3173C21.9755 27.3213 16.934 19.3989 18.7108 17.622C20.4877 15.8451 28.4102 20.8867 36.4062 28.8827C44.4022 36.8786 49.4438 44.8011 47.6669 46.578C45.89 48.3549 37.9675 43.3133 29.9715 35.3173Z" fill="#BC83FF"/>
<path d="M36.7471 13.1729C37.3386 11.3982 39.8489 11.3982 40.4404 13.1729C40.6342 13.7541 41.0903 14.2102 41.6716 14.404C43.4462 14.9956 43.4462 17.5058 41.6716 18.0974C41.0903 18.2911 40.6342 18.7472 40.4404 19.3285C39.8489 21.1032 37.3386 21.1032 36.7471 19.3285C36.5533 18.7472 36.0972 18.2911 35.5159 18.0974C33.7413 17.5058 33.7413 14.9956 35.5159 14.404C36.0972 14.2102 36.5533 13.7541 36.7471 13.1729Z" fill="#5390FF"/>
<path d="M56.3672 11.1719C57.7695 11.1719 58.9062 10.0351 58.9062 8.63281C58.9062 7.23053 57.7695 6.09375 56.3672 6.09375C54.9649 6.09375 53.8281 7.23053 53.8281 8.63281C53.8281 10.0351 54.9649 11.1719 56.3672 11.1719Z" fill="#BC83FF"/>
<path d="M52.8125 30.4688C55.0562 30.4688 56.875 28.6499 56.875 26.4062C56.875 24.1626 55.0562 22.3438 52.8125 22.3438C50.5688 22.3438 48.75 24.1626 48.75 26.4062C48.75 28.6499 50.5688 30.4688 52.8125 30.4688Z" fill="#85E7D5"/>
</svg>
