<svg width="102" height="102" viewBox="0 0 102 102" fill="none" xmlns="http://www.w3.org/2000/svg">
<path fill-rule="evenodd" clip-rule="evenodd" d="M28.8549 0.979635C29.3572 -0.326545 31.2053 -0.326545 31.7076 0.979636L33.009 4.36322C33.1642 4.76682 33.4832 5.08576 33.8868 5.24099L37.2704 6.54237C38.5765 7.04475 38.5765 8.89275 37.2704 9.39513L33.8868 10.6965C33.4832 10.8517 33.1642 11.1707 33.009 11.5743L31.7076 14.9579C31.2053 16.264 29.3572 16.264 28.8549 14.9579L27.5535 11.5743C27.3983 11.1707 27.0793 10.8517 26.6757 10.6965L23.2921 9.39513C21.986 8.89275 21.986 7.04475 23.2921 6.54237L26.6757 5.24099C27.0793 5.08576 27.3983 4.76682 27.5535 4.36322L28.8549 0.979635Z" fill="#4083FF"/>
<circle cx="87.6562" cy="23.9062" r="4.78125" fill="#4083FF"/>
<circle cx="12.75" cy="19.125" r="3.1875" fill="#4083FF"/>
<path d="M35.0625 60.5625H86.0625V92.4375H35.0625V60.5625Z" fill="#BC83FF"/>
<rect x="35.0625" y="57.375" width="51" height="9.5625" fill="#FFD2ED"/>
<ellipse cx="60.5625" cy="92.4375" rx="25.5" ry="9.5625" fill="#BC83FF"/>
<ellipse cx="60.5625" cy="66.9375" rx="25.5" ry="6.375" fill="#FFD2ED"/>
<ellipse cx="60.5625" cy="51" rx="38.25" ry="12.75" fill="#BC83FF"/>
<ellipse cx="60.5625" cy="51" rx="25.5" ry="6.375" fill="#2A2A4B"/>
<path d="M47.8125 12.75L73.3125 12.75V51H47.8125V12.75Z" fill="#97E4D6"/>
<circle cx="56.5781" cy="27.8906" r="2.39062" fill="#2A2A4B"/>
<circle cx="64.5469" cy="35.8594" r="2.39062" fill="#2A2A4B"/>
<rect x="66.1973" y="23.9883" width="3.1875" height="19.125" rx="1.59375" transform="rotate(45 66.1973 23.9883)" fill="#2A2A4B"/>
<path d="M27.0655 31.3345L20.8115 29.6367L3.22226 96.1441C3.22 96.1518 3.21785 96.1595 3.21581 96.1672C2.98443 97.0421 4.19687 98.1313 5.92385 98.6002C7.65084 99.069 9.2384 98.7398 9.46978 97.865C9.46979 97.8649 9.46976 97.8651 9.46978 97.865L27.0655 31.3345Z" fill="#BC83FF"/>
<path d="M27.0657 31.3339C26.8343 32.2088 25.2468 32.5379 23.5198 32.0691C21.7928 31.6003 20.5804 30.511 20.8117 29.6361C21.0431 28.7613 22.6307 28.4321 24.3576 28.901C26.0846 29.3698 27.2971 30.4591 27.0657 31.3339Z" fill="#FFD2ED"/>
<path d="M22.876 47.1744C22.6447 48.0492 21.0571 48.3784 19.3301 47.9095C17.6031 47.4407 16.3907 46.3514 16.6221 45.4766C16.8534 44.6017 18.441 44.2726 20.168 44.7414C21.895 45.2102 23.1074 46.2995 22.876 47.1744Z" fill="#FFD2ED"/>
<path d="M20.8117 29.6361L27.0657 31.3339L22.876 47.1744L16.6221 45.4766L20.8117 29.6361Z" fill="#FFD2ED"/>
</svg>
