<svg width="24" height="24" viewBox="0 0 24 24" fill="none" xmlns="http://www.w3.org/2000/svg">
<path fill-rule="evenodd" clip-rule="evenodd" d="M12 23.5C18.3513 23.5 23.5 18.3513 23.5 12C23.5 5.64873 18.3513 0.5 12 0.5C5.64873 0.5 0.5 5.64873 0.5 12C0.5 18.3513 5.64873 23.5 12 23.5Z" fill="white"/>
<path fill-rule="evenodd" clip-rule="evenodd" d="M12 0C13.4026 0 14.749 0.240642 16.0002 0.682893V23.3171C14.749 23.7594 13.4026 24 12 24C10.5975 24 9.25127 23.7594 8.00022 23.3173V0.682745C9.25127 0.240589 10.5975 0 12 0Z" fill="white"/>
<path fill-rule="evenodd" clip-rule="evenodd" d="M15.9998 23.3174V0.682861C20.6607 2.33014 24 6.77516 24 12.0001C24 17.2251 20.6607 21.6701 15.9998 23.3174V0.682861V23.3174Z" fill="#F65260"/>
<path fill-rule="evenodd" clip-rule="evenodd" d="M8.0003 0.682617L7.9998 23.317C3.33914 21.6696 0 17.2247 0 11.9999C0 6.77491 3.33938 2.32988 8.0003 0.682617Z" fill="#0C69DA"/>
<path d="M12 23.75C5.51065 23.75 0.25 18.4893 0.25 12C0.25 5.51065 5.51065 0.25 12 0.25C18.4893 0.25 23.75 5.51065 23.75 12C23.75 18.4893 18.4893 23.75 12 23.75Z" stroke="black" stroke-opacity="0.095389" stroke-width="0.5"/>
</svg>
