<svg width="24" height="24" viewBox="0 0 24 24" fill="none" xmlns="http://www.w3.org/2000/svg">
<path fill-rule="evenodd" clip-rule="evenodd" d="M12 23.5C18.3513 23.5 23.5 18.3513 23.5 12C23.5 5.64873 18.3513 0.5 12 0.5C5.64873 0.5 0.5 5.64873 0.5 12C0.5 18.3513 5.64873 23.5 12 23.5Z" fill="white"/>
<path fill-rule="evenodd" clip-rule="evenodd" d="M13.8095 13.8811L23.8533 13.8821C23.7855 14.3125 23.6948 14.7352 23.5825 15.1492L21.7389 15.1487L23.3354 15.9481C23.2899 16.0788 23.2421 16.2085 23.1923 16.3371L23.111 16.5411L20.3215 15.1458H18.2201L22.7197 17.3991L22.594 17.6413C22.389 18.0255 22.1636 18.3974 21.9194 18.7553L15.0713 15.3309L15.0711 23.6034C14.659 23.7122 14.2382 23.7996 13.81 23.8644L13.8095 13.8811ZM10.0256 13.8811L10.0251 23.8383C9.75602 23.7937 9.48996 23.7402 9.22724 23.6781L8.7635 23.5585L8.76374 15.3308L2.03849 18.6931L1.80817 18.3377L1.69873 18.1556L7.71293 15.1483H5.59167L1.24404 17.3267C1.04075 16.917 0.860175 16.494 0.70397 16.0594L0.641729 15.8756L2.09627 15.1487L0.417469 15.1492C0.342622 14.8732 0.277374 14.5933 0.222103 14.3099L0.146729 13.8821L10.0256 13.8811ZM13.81 0.13562C14.2382 0.200404 14.659 0.287819 15.0711 0.396607L15.0713 8.65777L21.9132 5.23576C22.5023 6.09743 22.982 7.03983 23.3323 8.04295L21.7389 8.83993L23.5793 8.83888C23.6912 9.24989 23.7819 9.66968 23.8499 10.097L13.8095 10.0975L13.81 0.13562ZM10.0251 0.161745L10.0256 10.0975L0.150054 10.097C0.21814 9.66968 0.308784 9.24989 0.420727 8.83888L2.09626 8.83992L0.643906 8.11188C0.712007 7.91293 0.785189 7.71633 0.863297 7.52225L3.507 8.84487H5.60833L1.2496 6.66216L1.27431 6.61278C1.50365 6.15708 1.76117 5.71801 2.04458 5.29785L8.76374 8.65777L8.764 0.441396L9.221 0.323433C9.35339 0.292041 9.48661 0.262846 9.62064 0.235885L10.0251 0.161745Z" fill="white"/>
<path fill-rule="evenodd" clip-rule="evenodd" d="M12 0C12.6151 0 13.2194 0.0462762 13.8095 0.135537L13.8095 10.0975L23.85 10.0975C23.9487 10.7171 24 11.3526 24 12C24 12.6401 23.9499 13.2685 23.8533 13.8816L13.8095 13.8811L13.8095 23.8645C13.2194 23.9537 12.6151 24 12 24C11.3275 24 10.6679 23.9447 10.0255 23.8383L10.0256 13.8811L0.146656 13.8816C0.050122 13.2685 0 12.6401 0 12C0 11.3526 0.0512727 10.7171 0.149979 10.0975L10.0256 10.0975L10.0255 0.16166C10.6679 0.055321 11.3275 0 12 0ZM7.71293 15.1483L1.69809 18.1575L1.52821 17.8646L1.45048 17.7239L1.37475 17.5823L1.24394 17.3264L5.59167 15.1483H7.71293ZM20.3216 15.1458L23.111 16.5411C22.9916 16.833 22.861 17.1192 22.7197 17.3991L18.2201 15.1458H20.3216ZM1.24961 6.66215L5.60833 8.84486H3.507L0.863224 7.52243C0.980995 7.22978 1.10997 6.94284 1.24961 6.66215ZM22.2609 5.77461C22.4243 6.0433 22.5774 6.31891 22.7197 6.6009L18.2434 8.83989H16.142L22.2609 5.77461Z" fill="#F65260"/>
<path fill-rule="evenodd" clip-rule="evenodd" d="M15.0713 15.3309L21.919 18.7558C20.3149 21.1064 17.8971 22.8575 15.0709 23.6035L15.0713 15.3309ZM8.76375 15.3308L8.76351 23.5585C5.98391 22.7818 3.61155 21.0294 2.03894 18.6938L8.76375 15.3308ZM23.5826 15.1488C23.5094 15.4188 23.427 15.6851 23.3357 15.9472L21.7389 15.1487L23.5826 15.1488ZM2.09628 15.1487L0.640167 15.8772C0.558456 15.6377 0.484104 15.3948 0.417381 15.1488L2.09628 15.1487ZM0.643588 8.11281L2.09627 8.83992L0.420515 8.83967C0.46508 8.676 0.513023 8.51372 0.564264 8.35291L0.643588 8.11281ZM23.3324 8.04335C23.4237 8.30486 23.5062 8.5705 23.5796 8.83992H21.7389L23.3324 8.04335ZM15.0709 0.396545C17.8154 1.12097 20.1749 2.79327 21.778 5.04206L21.9136 5.23622L15.0713 8.65776L15.0709 0.396545ZM8.764 0.441386L8.76375 8.65776L2.04468 5.2977C3.61741 2.96622 5.98757 1.21706 8.764 0.441386Z" fill="#0C69DA"/>
<path d="M0.25 12C0.25 5.51065 5.51065 0.25 12 0.25C18.4893 0.25 23.75 5.51065 23.75 12C23.75 18.4893 18.4893 23.75 12 23.75C5.51065 23.75 0.25 18.4893 0.25 12Z" stroke="black" stroke-opacity="0.095389" stroke-width="0.5"/>
</svg>
