<svg width="24" height="24" viewBox="0 0 24 24" fill="none" xmlns="http://www.w3.org/2000/svg">
<path fill-rule="evenodd" clip-rule="evenodd" d="M12 23.5C18.3513 23.5 23.5 18.3513 23.5 12C23.5 5.64873 18.3513 0.5 12 0.5C5.64873 0.5 0.5 5.64873 0.5 12C0.5 18.3513 5.64873 23.5 12 23.5Z" fill="white"/>
<path fill-rule="evenodd" clip-rule="evenodd" d="M12 0C18.6274 0 24 5.37258 24 12L12.4943 11.9996L2.59933 4.5426L12.5 11.9913L2.59933 4.54086C4.79764 1.77407 8.19164 0 12 0Z" fill="white"/>
<path fill-rule="evenodd" clip-rule="evenodd" d="M2.59795 4.54297L12.5 11.9938L2.59576 19.455C0.97066 17.4077 0 14.8174 0 12.0004C0 9.18211 0.971533 6.59076 2.59795 4.54297Z" fill="#0C69DA"/>
<path fill-rule="evenodd" clip-rule="evenodd" d="M12.4943 12L24 12.0004C24 18.6278 18.6274 24.0004 12 24.0004C8.22237 24.0004 4.85244 22.2548 2.65278 19.5263L2.59679 19.4557L12.4943 12Z" fill="#F65260"/>
<path d="M0.25 12C0.25 5.51065 5.51065 0.25 12 0.25C18.4893 0.25 23.75 5.51065 23.75 12C23.75 18.4893 18.4893 23.75 12 23.75C5.51065 23.75 0.25 18.4893 0.25 12Z" stroke="black" stroke-opacity="0.095389" stroke-width="0.5"/>
</svg>
