<svg width="24" height="24" viewBox="0 0 24 24" fill="none" xmlns="http://www.w3.org/2000/svg">
<rect width="24" height="24" rx="12" fill="#2FA6F8"/>
<path fill-rule="evenodd" clip-rule="evenodd" d="M3.13021 17.6671C3.31603 17.6671 3.46667 17.8098 3.46667 18.0035V18.664C3.46667 18.8498 3.32398 19.0004 3.13021 19.0004H2.46979C2.28397 19.0004 2.13334 18.8577 2.13334 18.664V18.0035C2.13334 17.8177 2.27603 17.6671 2.46979 17.6671H3.13021ZM1.79688 16.3338C1.9827 16.3338 2.13334 16.4764 2.13334 16.6702V17.3306C2.13334 17.5164 1.99065 17.6671 1.79688 17.6671L1.41948 17.6669C1.21253 17.2813 1.02605 16.8831 0.861487 16.4737C0.921512 16.3884 1.01972 16.3338 1.13646 16.3338H1.79688ZM3.13021 15.0004C3.31603 15.0004 3.46667 15.1431 3.46667 15.3369V15.9973C3.46667 16.1831 3.32398 16.3338 3.13021 16.3338H2.46979C2.28397 16.3338 2.13334 16.1911 2.13334 15.9973V15.3369C2.13334 15.1511 2.27603 15.0004 2.46979 15.0004H3.13021ZM1.79688 13.6671C1.9827 13.6671 2.13334 13.8098 2.13334 14.0035V14.664C2.13334 14.8498 1.99065 15.0004 1.79688 15.0004H1.13646C0.95064 15.0004 0.800003 14.8577 0.800003 14.664V14.0035C0.800003 13.8177 0.942693 13.6671 1.13646 13.6671H1.79688ZM3.13021 12.3338C3.31603 12.3338 3.46667 12.4764 3.46667 12.6702V13.3306C3.46667 13.5164 3.32398 13.6671 3.13021 13.6671H2.46979C2.28397 13.6671 2.13334 13.5244 2.13334 13.3306V12.6702C2.13334 12.4844 2.27603 12.3338 2.46979 12.3338H3.13021ZM1.79688 11.0004C1.9827 11.0004 2.13334 11.1431 2.13334 11.3369V11.9973C2.13334 12.1831 1.99065 12.3338 1.79688 12.3338H1.13646C0.95064 12.3338 0.800003 12.1911 0.800003 11.9973V11.3369C0.800003 11.1511 0.942693 11.0004 1.13646 11.0004H1.79688ZM3.13021 9.66708C3.31603 9.66708 3.46667 9.80977 3.46667 10.0035V10.664C3.46667 10.8498 3.32398 11.0004 3.13021 11.0004H2.46979C2.28397 11.0004 2.13334 10.8577 2.13334 10.664V10.0035C2.13334 9.81772 2.27603 9.66708 2.46979 9.66708H3.13021ZM1.79688 8.33375C1.9827 8.33375 2.13334 8.47644 2.13334 8.67021V9.33063C2.13334 9.51645 1.99065 9.66708 1.79688 9.66708H1.13646C0.95064 9.66708 0.800003 9.52439 0.800003 9.33063V8.67021C0.800003 8.48439 0.942693 8.33375 1.13646 8.33375H1.79688ZM3.13021 7.00042C3.31603 7.00042 3.46667 7.14311 3.46667 7.33687V7.99729C3.46667 8.18311 3.32398 8.33375 3.13021 8.33375H2.46979C2.28397 8.33375 2.13334 8.19106 2.13334 7.99729V7.33687C2.13334 7.15105 2.27603 7.00042 2.46979 7.00042H3.13021ZM1.80515 5.66763C1.9827 5.66708 2.13334 5.80977 2.13334 6.00354V6.66396C2.13334 6.84978 1.99065 7.00042 1.79688 7.00042H1.13646L1.09139 6.99324C1.24937 6.64963 1.4231 6.31476 1.61167 5.98957L1.80515 5.66763ZM3.13021 4.33375C3.31603 4.33375 3.46667 4.47644 3.46667 4.67021V5.33063C3.46667 5.51645 3.32398 5.66708 3.13021 5.66708H2.46979C2.28397 5.66708 2.13334 5.52439 2.13334 5.33063L2.13349 5.1683C2.33319 4.88046 2.54515 4.60178 2.76863 4.33301L3.13021 4.33375Z" fill="#FFCA68"/>
<path fill-rule="evenodd" clip-rule="evenodd" d="M11.8667 15.4905L10.5612 17.4392L10.2305 15.117L8.20886 16.3063L8.91847 14.0707L6.58098 14.265L8.19032 12.5587L6 11.7196L8.19032 10.8805L6.58098 9.17413L8.91847 9.36847L8.20886 7.13283L10.2305 8.32212L10.5612 6L11.8667 7.94869L13.1721 6L13.5028 8.32212L15.5245 7.13283L14.8149 9.36847L17.1524 9.17413L15.543 10.8805L17.7333 11.7196L15.543 12.5587L17.1524 14.265L14.8149 14.0707L15.5245 16.3063L13.5028 15.117L13.1721 17.4392L11.8667 15.4905Z" fill="#FFCA68"/>
<path fill-rule="evenodd" clip-rule="evenodd" d="M11.8667 15.453C13.9285 15.453 15.6 13.7815 15.6 11.7197C15.6 9.6578 13.9285 7.98633 11.8667 7.98633C9.8048 7.98633 8.13333 9.6578 8.13333 11.7197C8.13333 13.7815 9.8048 15.453 11.8667 15.453Z" fill="#2FA6F8"/>
<path fill-rule="evenodd" clip-rule="evenodd" d="M11.8667 14.9195C13.634 14.9195 15.0667 13.4868 15.0667 11.7195C15.0667 9.95222 13.634 8.51953 11.8667 8.51953C10.0994 8.51953 8.66666 9.95222 8.66666 11.7195C8.66666 13.4868 10.0994 14.9195 11.8667 14.9195Z" fill="#FFCA68"/>
<path d="M0.25 12C0.25 5.51065 5.51065 0.25 12 0.25C18.4893 0.25 23.75 5.51065 23.75 12C23.75 18.4893 18.4893 23.75 12 23.75C5.51065 23.75 0.25 18.4893 0.25 12Z" stroke="black" stroke-opacity="0.095389" stroke-width="0.5"/>
</svg>
