<svg width="24" height="24" viewBox="0 0 24 24" fill="none" xmlns="http://www.w3.org/2000/svg">
<path fill-rule="evenodd" clip-rule="evenodd" d="M12 23.5C18.3513 23.5 23.5 18.3513 23.5 12C23.5 5.64873 18.3513 0.5 12 0.5C5.64873 0.5 0.5 5.64873 0.5 12C0.5 18.3513 5.64873 23.5 12 23.5Z" fill="white"/>
<path fill-rule="evenodd" clip-rule="evenodd" d="M9.79316 23.7975L9.69552 23.7771L9.79172 23.7942L9.97198 13.8048H23.8617L23.876 13.7315L23.8724 13.7559C23.0228 19.551 18.0309 24 12 24C11.2461 24 10.5085 23.9305 9.79316 23.7975ZM0.160546 13.9677L0.121231 13.712L0.138135 13.8048H6.32834L6.3284 22.5778C3.11298 20.8501 0.776074 17.6991 0.160546 13.9677ZM6.3284 1.42223L6.32834 10.0648H0.158017L0.138075 10.1772L0.157057 10.0535C0.767198 6.31284 3.10687 3.15318 6.3284 1.42223ZM12 0C17.9918 0 22.9579 4.39148 23.8554 10.1314L23.8421 10.0648H9.97198V0.172646L9.7035 0.220488C9.42064 0.275494 8.94071 0.380958 8.39249 0.552276L8.16986 0.624352C9.37272 0.219394 10.6607 0 12 0Z" fill="#F65260"/>
<path fill-rule="evenodd" clip-rule="evenodd" d="M9.97161 0.170898L9.97198 10.065L23.8448 10.0652C23.9469 10.6951 24 11.3414 24 12.0002C24 12.6137 23.954 13.2165 23.8651 13.8052L9.97198 13.8049L9.81688 23.8021C8.57684 23.5742 7.40351 23.1556 6.3284 22.578L6.32834 13.8049L0.134856 13.8052C0.0460409 13.2165 0 12.6137 0 12.0002C0 11.3414 0.0530791 10.6951 0.155194 10.0652L6.32834 10.065L6.3284 1.42241C7.36815 0.863751 8.49976 0.453912 9.69473 0.221395L9.97161 0.170898Z" fill="white"/>
<path d="M0.25 12C0.25 5.51065 5.51065 0.25 12 0.25C18.4893 0.25 23.75 5.51065 23.75 12C23.75 18.4893 18.4893 23.75 12 23.75C5.51065 23.75 0.25 18.4893 0.25 12Z" stroke="black" stroke-opacity="0.095389" stroke-width="0.5"/>
</svg>
