<?xml version="1.0"?>
<svg version="1.1" width="675" height="450" viewBox="0 0 6750 4500" xmlns="http://www.w3.org/2000/svg" xmlns:xlink="http://www.w3.org/1999/xlink">
<rect fill="#c8313e" height="100%" width="100%"/>
<rect fill="#4aa657" height="1500" width="100%" y="3000"/>
<rect fill="#fff" height="100%" width="1000"/>
<g id="a">
<path id="b" d="m173.9 0h130.4v73.77h43.48v73.77h43.48v73.77h43.48v73.77h43.48v73.77h-43.48v73.77h-43.48v73.77h-43.48v73.77h-43.48v73.77h-43.48v73.77h-43.48v-73.77h-43.48v-73.77h-43.48v-73.77h-43.48v-73.77h-43.48v-73.77h-43.48v-73.77h43.48v-73.77h43.48v-73.77h43.48v-73.77h43.48zm43.48 147.5h43.48v73.77h43.48v73.77h43.48v73.77h-43.48v73.77h-43.48v73.77h-43.48v-73.77h-43.48v-73.77h-43.48v-73.77h43.48v-73.77h43.48zm0 147.5h43.48v73.77h-43.48zm-217.4-221.3h43.48v73.77h-43.48zm0 442.6h43.48v73.77h-43.48zm478.2-516.4h43.64v147.5h-43.64zm0 516.4h43.64v147.5h-43.64zm-391.3 147.5h43.48v73.77h43.48v73.77h43.48v73.77h-43.48v73.77h-43.48v73.77h-43.48v-73.77h-43.48v-73.77h-43.48v-73.77h43.48v-73.77h43.48zm0 147.5h43.48v73.77h-43.48zm260.9-147.5h43.48v73.77h43.48v73.77h43.48v73.77h-43.48v73.77h-43.48v73.77h-43.48v-73.77h-43.48v-73.77h-43.48v-73.77h43.48v-73.77h43.48zm0 147.5h43.48v73.77h-43.48zm-347.8 295.1h43.48v73.77h-43.48zm478.2-73.77h43.64v147.5h-43.64zm-478.2 295.1h43.48v-73.77h43.48v-73.77h43.48v-73.77h43.48v-73.77h43.48v-73.77h43.48v73.77h43.48v73.77h43.48v73.77h43.48v73.77h43.48v73.77h43.48v73.77h43.48v295.1h-43.48v73.77h-43.48v73.77h-43.48v73.77h-43.48v73.77h-43.48v73.77h-43.47v221.64h-86.96v-74.1h-43.48v-73.77h-43.48v-73.77h-43.48v-73.77h-43.48v-221.3h43.48v73.77h43.48v73.77h43.48v73.77h43.48v-73.77h43.48v-73.77h43.48v-73.77h43.48v-73.77h43.48v-73.77h43.48v-73.77h-43.48v-73.77h-43.48v-73.77h-130.4v73.77h86.95v73.77h-43.48v73.77h-43.48v73.77h-43.48v-73.77h-43.48v-73.77h-43.48v-73.77h-43.48zm0 295.1h43.48v73.77h-43.48zm478.2 221.3h43.64v73.77h-43.64zm-86.95 147.5h43.48v73.77h43.48v73.77h43.63l-.01 147.92h-43.62v-74.18h-43.48v-73.77h-43.48zm-86.95 221.3h43.48v74.16h-43.48z" fill="#c8313e" fill-rule="evenodd"/>
<use transform="matrix(-1 0 0 1 1000 0)" xlink:href="#b"/>
</g>
<use transform="matrix(1 0 0 -1 0 4500)" xlink:href="#a"/>
</svg>