<svg xmlns="http://www.w3.org/2000/svg" width="900" height="600" viewBox="0 0 9600 6400">
	<title>Flag of Canada (Pantone colours, non-official aspect ratio of 3:2)</title>
	<path fill="#d52b1e" d="m0 0h9600v6400H0z"/>
	<path fill="#fff" d="m2400 0h4800v6400h-4800zm2490 5230-45-863a95 95 0 0 1 111-98l859 151-116-320a65 65 0 0 1 20-73l941-762-212-99a65 65 0 0 1-34-79l186-572-542 115a65 65 0 0 1-73-38l-105-247-423 454a65 65 0 0 1-111-57l204-1052-327 189a65 65 0 0 1-91-27l-332-652-332 652a65 65 0 0 1-91 27l-327-189 204 1052a65 65 0 0 1-111 57l-423-454-105 247a65 65 0 0 1-73 38l-542-115 186 572a65 65 0 0 1-34 79l-212 99 941 762a65 65 0 0 1 20 73l-116 320 859-151a95 95 0 0 1 111 98l-45 863z"/>
</svg>
