<?xml version="1.0" encoding="UTF-8"?><svg xmlns="http://www.w3.org/2000/svg" xmlns:xlink="http://www.w3.org/1999/xlink" version="1.1" width="450" height="300"><path fill="#00247d" d="M0 0H450V300H0z"/><g transform="matrix(.75 0 0 .75 337.5 150)"><g transform="translate(0 -102)" id="c" fill="#fff"><g id="b"><path d="M 0,-22.5 V 0 h 12" transform="rotate(18 0 -22.5)" id="a"/><use transform="scale(-1 1)" x="0" y="0" width="600" height="300" xlink:href="#a"/></g><use transform="rotate(72)" x="0" y="0" width="600" height="300" xlink:href="#b"/><use transform="rotate(144)" x="0" y="0" width="600" height="300" xlink:href="#b"/><use transform="rotate(-144)" x="0" y="0" width="600" height="300" xlink:href="#b"/><use transform="rotate(-72)" x="0" y="0" width="600" height="300" xlink:href="#b"/></g><use transform="rotate(24)" x="0" y="0" width="600" height="300" xlink:href="#c"/><use transform="rotate(48)" x="0" y="0" width="600" height="300" xlink:href="#c"/><use transform="rotate(72)" x="0" y="0" width="600" height="300" xlink:href="#c"/><use transform="rotate(96)" x="0" y="0" width="600" height="300" xlink:href="#c"/><use transform="rotate(120)" x="0" y="0" width="600" height="300" xlink:href="#c"/><use transform="rotate(144)" x="0" y="0" width="600" height="300" xlink:href="#c"/><use transform="rotate(168)" x="0" y="0" width="600" height="300" xlink:href="#c"/><use transform="rotate(-168)" x="0" y="0" width="600" height="300" xlink:href="#c"/><use transform="rotate(-144)" x="0" y="0" width="600" height="300" xlink:href="#c"/><use transform="rotate(-120)" x="0" y="0" width="600" height="300" xlink:href="#c"/><use transform="rotate(-96)" x="0" y="0" width="600" height="300" xlink:href="#c"/><use transform="rotate(-72)" x="0" y="0" width="600" height="300" xlink:href="#c"/><use transform="rotate(-48)" x="0" y="0" width="600" height="300" xlink:href="#c"/><use transform="rotate(-24)" x="0" y="0" width="600" height="300" xlink:href="#c"/></g><g font-size="12"><path d="M 0,0 V 16.77 L 199.85,150 H 225 V 133.23 L 25.15,0 H 0 z M 225,0 V 16.77 L 25.15,150 H 0 V 133.23 L 199.85,0 H 225 z" fill="#fff"/><path d="m 93.75,0 v 150 h 37.5 V 0 H 93.75 z M 0,50 v 50 H 225 V 50 H 0 z" fill="#fff"/><path d="M 0,60 V 90 H 225 V 60 H 0 z M 101.25,0 v 150 h 22.5 V 0 h -22.5 z M 0,150 75,100 h 16.77 l -75,50 H 0 z M 0,0 75,50 H 58.23 L 0,11.18 V 0 z m 133.23,50 75,-50 H 225 L 150,50 H 133.23 z M 225,150 150,100 h 16.77 L 225,138.82 V 150 z" fill="#cf142b"/></g></svg>