<?xml version="1.0" encoding="UTF-8"?>
<svg xmlns="http://www.w3.org/2000/svg" xmlns:xlink="http://www.w3.org/1999/xlink" width="900" height="600" version="1.1">
<title>Flag of Dominica</title>
<rect width="900" height="600" fill="#006b3f"/>
<rect x="375" width="75" height="600" fill="#fcd116"/>
<rect y="225" width="900" height="75" fill="#fcd116"/>
<rect x="450" width="75" height="600" fill="#fff"/>
<rect y="300" width="900" height="75" fill="#fff"/>
<rect x="425" width="50" height="600"/>
<rect y="275" width="900" height="50"/>
<g transform="translate(450,300)" fill="#006b3f">
<circle r="150" fill="#d41c30"/>
<g id="a">
<path id="b" d="m-4.81-118.41 4.81-13.72 4.37 13.5 14.65.22-11.59 8.85 5.25 15.05-12.68-9.29-12.46 8.85 4.81-14.61-11.37-8.63 14.21-.22z" stroke="#000"/>
<use transform="scale(-1)" width="1200" height="600" xlink:href="#b"/>
</g>
<use transform="matrix(.80902 .58779 -.58779 .80902 0 0)" width="1200" height="600" xlink:href="#a"/>
<use transform="matrix(.30902 .95106 -.95106 .30902 0 0)" width="1200" height="600" xlink:href="#a"/>
<use transform="matrix(-.30902 .95106 -.95106 -.30902 0 0)" width="1200" height="600" xlink:href="#a"/>
<use transform="matrix(-.80902 .58779 -.58779 -.80902 0 0)" width="1200" height="600" xlink:href="#a"/>
<g stroke="#000" stroke-width="2.5">
<ellipse transform="matrix(.28955 -.030182 .016588 .23226 -186.12 -75.926)" cx="680.21" cy="586.13" rx="30.805" ry="189.82"/>
<ellipse transform="matrix(.30626 -.031845 .016685 .23225 -188.73 -74.887)" cx="680.21" cy="586.13" rx="30.805" ry="189.82"/>
<ellipse transform="matrix(.245 -.025891 .017898 .25675 -151.95 -90.936)" cx="680.21" cy="586.13" rx="30.805" ry="189.82"/>
<path d="m-44.213 62.565c7.6573-.31851 4.3321-4.4157 8.1992-6.5957 3.8645-2.1773 9.3654-.73678 11.016 1.9858 1.6502 2.7226.32701 5.3967 2.4505 5.4333 2.126.03661 59.928-2.3876 62.01-.10526 2.0847 2.2797 2.4283 6.776.26944 8.5241-2.1593 1.7697-75.235 2.5879-77.751.73765-2.5169-1.8233-6.2021-9.5298-6.1938-9.98z" fill="#9c4a00" stroke-width=".6573"/>
<path d="m-3.3769 68.195c-.13885 5.7755 8.4036 4.1396 8.5209 8.9634-.25732 5.1136-14.324.31256-14.46-9.0417.58487-9.3447 14.354-13.962 14.524-8.6248.12667 4.4351-8.4466 2.9276-8.5854 8.7031z" fill="#fcd116" stroke-width=".6326"/>
<path d="m1.6637 68.261c-.13885 5.7755 8.4036 4.1396 8.5209 8.9634-.25732 5.1136-14.324.31256-14.46-9.0417.58487-9.3447 14.354-13.962 14.524-8.6248.12667 4.4351-8.4466 2.9276-8.5854 8.7031z" fill="#fcd116" stroke-width=".6326"/>
<path d="m7.0709 68.058c-.13885 5.7755 8.4036 4.1396 8.5209 8.9634-.25732 5.1136-14.324.31256-14.46-9.0417.58487-9.3447 14.354-13.962 14.524-8.6248.12667 4.4351-8.4466 2.9276-8.5854 8.7031z" fill="#fcd116" stroke-width=".6326"/>
<path d="m12.111 68.124c-.13885 5.7755 8.4036 4.1396 8.5209 8.9634-.25732 5.1136-14.324.31256-14.46-9.0417.58487-9.3447 14.354-13.962 14.524-8.6248.12667 4.4351-8.4466 2.9276-8.5854 8.7031z" fill="#fcd116" stroke-width=".6326"/>
<ellipse transform="matrix(1.3799 .020781 -.030617 1.4544 -625.23 117.21)" cx="478.38" cy="-41.086" rx="3.534" ry="3.403" fill="#9c4a00" stroke-width=".3991"/>
<ellipse transform="matrix(.20742 -.031292 .042261 .39514 -119.98 -293.42)" cx="427.11" cy="905" rx="20.814" ry="24.144"/>
<ellipse transform="matrix(.20742 -.031292 .042261 .39514 -127.33 -294)" cx="427.11" cy="905" rx="20.814" ry="24.144"/>
<ellipse transform="matrix(.20742 -.031292 .042261 .39514 -132.6 -303.41)" cx="427.11" cy="905" rx="20.814" ry="24.144"/>
<ellipse transform="matrix(.19943 -.031536 .046322 .43593 -125.41 -340.63)" cx="427.11" cy="905" rx="20.814" ry="24.144"/>
<ellipse transform="matrix(.1995 -.030839 .043561 .40874 -112.65 -316.23)" cx="427.11" cy="905" rx="20.814" ry="24.144"/>
<ellipse transform="matrix(.1995 -.030839 .043561 .40874 -118.3 -319.64)" cx="427.11" cy="905" rx="20.814" ry="24.144"/>
<ellipse transform="matrix(.1995 -.030839 .043561 .40874 -125.44 -324.55)" cx="427.11" cy="905" rx="20.814" ry="24.144"/>
<ellipse transform="matrix(.1995 -.030839 .043561 .40874 -132.04 -327.53)" cx="427.11" cy="905" rx="20.814" ry="24.144"/>
<path d="m-14.734-52.686s-14.655 12.719-13.011 47.144c1.8454 34.62 32.393 50.894 32.393 50.894s7.786-9.8269 6.882-37.643c-2.1832-40.668-16.608-58.637-16.608-58.637l-9.6562-1.7573z" fill="#9461c9" stroke-width=".5749"/>
<ellipse transform="matrix(.20968 .0061773 -.028839 .39634 -45.183 -309.4)" cx="427.11" cy="905" rx="20.814" ry="24.144"/>
<ellipse transform="matrix(.20968 .0061773 -.028839 .39634 -52.319 -311.28)" cx="427.11" cy="905" rx="20.814" ry="24.144"/>
<ellipse transform="matrix(.20968 .0061774 -.028839 .39634 -55.825 -321.49)" cx="427.11" cy="905" rx="20.814" ry="24.144"/>
<ellipse transform="matrix(.20186 .004513 -.032113 .43721 -42.11 -356.83)" cx="427.11" cy="905" rx="20.814" ry="24.144"/>
<ellipse transform="matrix(.2018 .0052108 -.029984 .40996 -33.907 -330.55)" cx="427.11" cy="905" rx="20.814" ry="24.144"/>
<ellipse transform="matrix(.2018 .0052108 -.029984 .40996 -38.863 -334.91)" cx="427.11" cy="905" rx="20.814" ry="24.144"/>
<ellipse transform="matrix(.2018 .0052108 -.029984 .40996 -45.006 -341.01)" cx="427.11" cy="905" rx="20.814" ry="24.144"/>
<ellipse transform="matrix(.2018 .0052108 -.029984 .40996 -50.974 -345.12)" cx="427.11" cy="905" rx="20.814" ry="24.144"/>
<ellipse transform="matrix(.19787 -.076435 .080235 .1871 -155.84 -59.213)" cx="624.42" cy="606.11" rx="58.28" ry="186.49" fill="#d41c30" stroke-width="1pt"/>
<ellipse transform="matrix(.49828 .0088718 -.0065693 .36896 -99.511 -162.77)" cx="218.13" cy="356.75" rx="10.823" ry="12.905" stroke-width="1.4635"/>
<ellipse transform="matrix(.44637 .0079477 -.0065693 .36896 -84.135 -169.3)" cx="218.13" cy="356.75" rx="10.823" ry="12.905" stroke-width="1.5462"/>
<ellipse transform="matrix(.44637 .0079477 -.0065693 .36896 -90.652 -169.42)" cx="218.13" cy="356.75" rx="10.823" ry="12.905" stroke-width="1.5462"/>
<ellipse transform="matrix(.46714 .0083173 -.0061671 .34637 -93.888 -166.37)" cx="218.13" cy="356.75" rx="10.823" ry="12.905" stroke-width="1.56"/>
<ellipse transform="matrix(.46714 .0083173 -.0061671 .34637 -94.462 -172.02)" cx="218.13" cy="356.75" rx="10.823" ry="12.905" stroke-width="1.56"/>
<ellipse transform="matrix(.44637 .0079477 -.0065693 .36896 -96.878 -173.22)" cx="218.13" cy="356.75" rx="10.823" ry="12.905" stroke-width="1.5462"/>
<ellipse transform="matrix(.44637 .0079477 -.0064352 .36143 -95.469 -176.63)" cx="218.13" cy="356.75" rx="10.823" ry="12.905" stroke-width="1.5623"/>
<ellipse transform="matrix(.49828 .0088718 -.0065693 .36896 -114.73 -179.37)" cx="218.13" cy="356.75" rx="10.823" ry="12.905" stroke-width="1.4635"/>
<ellipse transform="matrix(.46714 .0083173 -.0061671 .34637 -98.157 -179.08)" cx="218.13" cy="356.75" rx="10.823" ry="12.905" stroke-width="1.56"/>
<ellipse transform="matrix(.44637 .0079477 -.0064352 .36143 -100.29 -183.52)" cx="218.13" cy="356.75" rx="10.823" ry="12.905" stroke-width="1.5623"/>
<ellipse transform="matrix(.44637 .0079477 -.0065693 .36896 -110.49 -178.91)" cx="218.13" cy="356.75" rx="10.823" ry="12.905" stroke-width="1.5462"/>
<ellipse transform="matrix(.44637 .0079477 -.0064352 .36143 -108.86 -179.77)" cx="218.13" cy="356.75" rx="10.823" ry="12.905" stroke-width="1.5623"/>
<ellipse transform="matrix(.44637 .0079477 -.0064352 .36143 -106.81 -183.7)" cx="218.13" cy="356.75" rx="10.823" ry="12.905" stroke-width="1.5623"/>
<ellipse transform="matrix(.21932 -.077428 .086829 .20202 -145.02 -72.556)" cx="528.68" cy="564.48" rx="67.438" ry="205.64" stroke-width="2.5449"/>
<ellipse transform="matrix(.20574 -.097852 .094713 .21196 -137.12 -77.403)" cx="528.68" cy="646.07" rx="13.321" ry="40.796"/>
<path d="m31.463 7.7987c12.811 15.598 11.193 25.503 9.8573 33.884-4.0249-9.6633-6.2225-15.746-19.035-31.347-12.813-15.601-6.4175-26.548-5.5377-32.316 1.9266 4.9931 1.9028 14.179 14.716 29.78z" stroke-width=".5749"/>
<path d="m32.616 20.398c12.811 15.598 11.193 25.503 9.8573 33.884-4.0249-9.6633-6.2225-15.746-19.035-31.347-12.813-15.601-6.4175-26.548-5.5377-32.316 1.9266 4.9931 1.9028 14.179 14.716 29.78z" stroke-width=".5749"/>
<path d="m33.002 30.545c13.12 15.322 11.701 25.26 10.533 33.666-4.2173-9.5755-6.5361-15.61-19.658-30.935-13.122-15.325-6.947-26.405-6.1827-32.191 2.026 4.951 2.1859 14.135 15.308 29.46z" stroke-width=".5749"/>
<ellipse transform="matrix(.40784 -.10379 .16694 .37767 -299.57 -196.03)" cx="528.68" cy="646.07" rx="13.321" ry="40.796" stroke-width="1.3887"/>
<ellipse transform="matrix(.36689 -.063105 .12978 .31265 -259 -166.87)" cx="528.68" cy="646.07" rx="13.321" ry="40.796" stroke-width="1.6398"/>
<ellipse transform="matrix(.36815 -.055316 .12326 .31531 -261.52 -166.82)" cx="528.68" cy="646.07" rx="13.321" ry="40.796" stroke-width="1.6398"/>
<ellipse transform="matrix(.29658 -.054311 .11151 .23308 -211.07 -135.54)" cx="528.68" cy="646.07" rx="13.321" ry="40.796" stroke-width="2.0966"/>
<ellipse transform="matrix(.29952 -.038001 .096808 .23873 -208.27 -143.87)" cx="528.68" cy="646.07" rx="13.321" ry="40.796" stroke-width="2.0966"/>
<path d="m8.6195-15.768c3.7879 9.2551 5.3213 17.577 3.4203 18.577-1.8987.99944-6.5132-5.7004-10.301-14.955" stroke-width=".5749"/>
<ellipse transform="matrix(.29952 -.038001 .096808 .23873 -208.89 -154.74)" cx="528.68" cy="646.07" rx="13.321" ry="40.796" stroke-width="2.0966"/>
<ellipse transform="matrix(.30032 -.032104 .09144 .24056 -212.19 -155.99)" cx="528.68" cy="646.07" rx="13.321" ry="40.796" stroke-width="2.0966"/>
<path d="m2.0257-28.338c3.678 6.2539 5.6581 12.094 4.4185 13.037-1.2381.94236-5.2275-3.3683-8.9055-9.6222" stroke-width=".5749"/>
<path d="m4.5726-32.485c3.678 6.2539 5.6581 12.094 4.4185 13.037-1.2381.94236-5.2275-3.3683-8.9055-9.6222m15.928-2.5367c5.125 8.5426 7.8826 16.521 6.1533 17.811-1.7272 1.2885-7.2877-4.5986-12.413-13.141" stroke-width=".5749"/>
<path d="m8.4524-36.082c3.6927 6.9046 5.6865 13.348 4.449 14.385-1.236 1.0358-5.2356-3.7271-8.9283-10.632" stroke-width=".5749"/>
<path d="m8.1246-46.086c-2.4652 2.4822-.05083 7.1236 2.2055 8.801 2.5306 2.2942 16.742 17.286 26.769 4.6722-8.0335-.14611-23.027-19.005-28.974-13.473z" fill="#9461c9" stroke-width=".5905"/>
<path d="m6.369-53.486c-2.4652 2.4822-.05083 7.1236 2.2055 8.801 2.5306 2.2942 16.742 17.286 26.769 4.6722-8.0335-.14611-23.027-19.005-28.974-13.473z" fill="#9461c9" stroke-width=".5905"/>
<path d="m4.1227-60.576c-2.4652 2.4822-.05083 7.1236 2.2055 8.801 2.5306 2.2942 16.742 17.286 26.769 4.6722-8.0335-.14611-23.027-19.005-28.974-13.473z" fill="#9461c9" stroke-width=".5905"/>
<path d="m-.75855-68.687c-2.4652 2.4822-.05083 7.1236 2.2055 8.801 2.5306 2.2942 16.742 17.286 26.769 4.6722-8.0335-.14611-23.027-19.005-28.974-13.473z" fill="#9461c9" stroke-width=".5905"/>
<path d="m-18.272-76.448c5.0803-3.779 14.412-4.884 21.681-1.1832 6.0554 2.9668 16.147 15.073 23.734 17.935-5.34.95254-8.5886.14773-12.001-1.4916-6.7389 4.8797-9.1402 5.6113-16.008 6.5702-9.5516 1.378-17.48-1.1086-20.266-6.0894-2.8393-4.6995-1.6154-12.239 2.8598-15.741z" fill="#9461c9" stroke-width=".6276"/>
<ellipse transform="matrix(.30909 .0055034 -.0030149 .16933 -95.304 -125.19)" cx="287.23" cy="323.04" rx="14.154" ry="14.986" fill="#d41c30"/>
<ellipse transform="matrix(.24579 -.091437 .081322 .21925 -99.445 -116.29)" cx="204.58" cy="348.26" rx="23.254" ry="15.895" fill="#fcd116"/>
<ellipse transform="matrix(.2699 .0048056 -.0041561 .23342 -82.956 -148.37)" cx="283.9" cy="333.86" rx="5.828" ry="5.828" fill="#000" stroke="none"/>
<path d="m-17.128-65.515c.40208 1.9489-1.0435 4.5823-4.18 5.515-3.1952 1.3227-5.6184 4.322-7.0161 9.2263-4.8558-11.184-1.7696-15.916 3.3879-17.066 4.4366-1.4149 7.1103-1.2357 7.8082 2.3243z" fill="#fcd116" stroke-width=".7318"/>
<ellipse transform="matrix(.23597 -.012355 .013336 .24161 -73.601 -149.77)" cx="198.98" cy="362.39" rx="4.71" ry="4.71" fill="#000" stroke="none"/>
</g>
</g>
</svg>
