<?xml version="1.0" encoding="UTF-8"?>
<svg xmlns="http://www.w3.org/2000/svg" version="1.1" width="900" height="600">
<rect width="900" height="600" fill="#002868"/>
<path d="m0 300h450v-300h450v600h-900z" fill="#68bfe5"/>
<g stroke-miterlimit="4.8">
<path transform="translate(-225)" d="m778.8 143.94v205.09c0 67.08 121.2 106.91 121.2 106.91s121.2-39.833 121.2-106.91v-205.09z" fill="#fff"/>
<path transform="translate(-225)" d="m883.2 216v92.344h-104.4v33.6h104.4v107.6l16.8 6.396 16.8-6.396v-107.6h104.4v-33.6h-104.4v-92.344z" fill="#d21034"/>
<path transform="translate(-225)" d="m778.8 143.94h242.4v79.2h-242.4z" fill="#d21034"/>
<g stroke-miterlimit="3">
<g transform="translate(-225)" fill="#fff" stroke="#000" stroke-width=".805">
<ellipse cx="798.23" cy="192.21" rx="13.623" ry="10.962" stroke-width=".803"/>
<ellipse cx="798.23" cy="186.52" rx="12.114" ry="6.123"/>
<ellipse cx="798.23" cy="198.77" rx="12.114" ry="6.123"/>
<ellipse cx="798.23" cy="192.21" rx="12.114" ry="6.123"/>
</g>
<path transform="translate(-225)" d="m1015.2 207.43-1.9848-5.4756s-5.4336-2.2164-5.8476-5.1024c-.9672-7.6944-3.714-10.578-7.83-11.678-4.1244-1.0992-6.8676.6888-6.8676.6888-1.2408 1.7868-7.4256 1.7868-10.859 1.9212-3.4344.1404-3.4932-1.4916-3.4932-1.4916-2.6676.0192-3.7896-1.9416-3.7896-1.9416-1.746-3.4872-3.0456-4.7916-3.9084-5.2332 4.4568.066 7.8132-1.9908 12.844-7.2696 5.4936-5.772 9.4152-3.54 9.4152-3.54-2.6664 5.3892.8868 4.9128.8868 4.9128 7.2804-3.7056.96-13.051-1.2372-12.638-2.1972.4104-2.8248-1.0692-2.8248-1.0692.0672 1.6776-2.4396 2.3448-2.4396 2.3448 1.8804-10.674-4.4892-13.504-4.4892-13.504-.9636.9612-1.5156 2.8836-1.5156 2.8836-1.7832 6.4584-7.6908 5.4972-14.29 2.3352-6.5928-3.1584-24.179 3.3-29.672 5.4972-5.5008 2.1984-15.528 5.634-24.596.5496-9.0648-5.0868-11.269-4.1244-14.839-3.1608-3.5748.96-9.888 2.4756-12.222 1.236-2.3388-1.236-5.0028-1.3128-5.0028-1.3128.636-.3552-.3576-1.8468-.3576-1.8468-2.7468-3.708.3576-5.9808.3576-5.9808s-5.1144 1.44-3.0804 10.169l.9348 1.3092s.6852 2.7456 2.2008 3.5712l-.0552.6012s1.2936-.6012 1.7004 1.1832c.4176 1.7856 2.34.138 3.1644-1.3716 0 0-1.3764 7.9692 8.5188 9.8916 0 0-1.1064-1.2372-.6924-2.0616.4104-.8244-1.2336-1.5168-1.0944-2.7492.1356-1.2324-2.4696-1.7832-.414-2.7492 2.058-.9612 3.0252-2.886 7.4196-.2748s7.8336 2.064 7.8336 2.064-2.6808-5.502-1.2036-5.4984c1.4772.002 8.1228 8.2296 11.394 7.8228 3.2724-.4032 9.5928-4.1136 12.754-2.7396 0 0 .2712-1.6488 12.36-3.7104 12.092-2.0616 27.006-8.0868 32.599-2.8068 0 0 .654 4.182 2.9868 5.2824 0 0-.4176 8.6544-15.385 3.8424l-5.43-1.428s-.834-2.6292-29.304 4.6932c0 0-1.6752.5844-2.7744 1.4112-1.1028.8208-2.6148-.414-8.2476 1.6452-5.628 2.0652-26.654 8.9352-39.564 6.4596l-.0168.0348c-2.844-.8496-5.508-.4104-5.616-.8592-.1392-.5496 1.5132.1392 1.5132.1392-.96-1.1016-1.374-1.1904-1.374-1.1904-10.855-1.1904-8.9364-6.0936-8.9364-6.0936l.5532 1.512c1.7868-2.334-.6924-7.83-.6924-7.83l-.1044.018c-.0276-.1692-.0588-.3372-.1008-.5004l.8976-.6192c5.2224-4.398 11.269-5.2224 11.269-5.2224-3.5748-4.3944-11.134-2.058-11.134-2.058.1392-5.358-2.058-11.542-2.058-11.542-7.4232.8244-11.678 7.0056-11.678 7.0056-.2748-5.4936-7.284-8.652-7.284-8.652 2.6076 3.1584.9636 10.714.9636 10.714l.2748.138c-.4344-.0108-.6888 0-.6888 0l-.156 1.62-.2568-.108s-2.6076.96-5.6292 7.83c0 0-.306 1.6236-1.4748 3.0876-.01-.1896.0108-.3612-.0132-.5592 0 0-3.3756 4.4232-11.176 0 0 0-10.598-6.288-14.323-6.0552-3.7248.2316-6.174 1.9788-5.9364 3.0264 0 0-8.5044-.6996-11.413 4.1892 0 0-6.4032 2.3292-.93 7.5696 0 0 .7332 2.2776 2.3256 3.498 0 0-.2256-4.7844.9336-3.378 0 0 .3012.4716.8736.8016.1524.6708.666 2.5344 1.8036 3.4836l.8196-.2604c.1248-1.1928.3828-2.7.648-3.3336.1248.0168.2244.0312.27.0348-.036.0348-.0696.0552-.1044.0864l1.5132 2.3292 1.7448-.9312c.8172-.1188 1.8636.6996 1.8636.6996l1.98-1.6308c-.012-.018-.024-.0216-.036-.0408 1.95.3264 2.4828-3.4536 2.4828-3.4536 1.752.4608 3.39-.0552 4.7844-.9.8496 3.1344 7.7916 6.4956 7.7916 6.4956s.12-.0108.2988-.0252c-.588.3756-.9372.6576-.9372.6576 3.1584 2.202 9.0672 1.6512 9.0672 1.6512-2.4708.9636-2.1252 5.5368-2.1252 5.5368-1.4436.5928-1.5852 2.0184-1.5852 2.0184 4.8096 1.9188 8.0952.33 8.0952.33.264 1.5648-.1248 1.7316-.1248 1.7316-1.9224 4.1208-2.7468 8.1048-2.7468 8.1048.042.018.0912.0276.132.042-.0588.108-.132.2124-.1776.324 0 0-8.3832 2.91-12.109 6.9864 0 0-.3504-1.1664-1.3992-1.1664-1.0476 0-4.308-2.6748-5.8224-3.1428-1.5108-.4632-3.7248.468-4.308-.2292-.5268-.636-.2904-5.406-1.2984-6.1752.004 0 .0192.004.0192.004l-1.0488-2.91c-.6984 1.512-3.6084 1.1616-3.6084 1.1616-.1152.0696-.5628.396-1.1964.8688-.5808.0312-1.2492-.1692-1.2492-.1692-.2988.0612-.594.9-.8112 1.7148-.1164.0864-.2352.1764-.3528.2664v-.8172c-.5796.4656-1.7448-.2328-2.2128-.2328-.228 0-.51.6672-.7392 1.3524-1.1844.2196-2.754.2784-2.754.2784-.4656.2328-.1188 3.8424-.1188 3.8424-3.3744 1.8648-1.746 4.6572-1.746 4.6572 1.8636 9.0828 17.35 5.0064 18.515 6.174 1.1616 1.1652 3.8424 1.3944 5.2404 1.3944 1.3944 0 3.1392 3.378 5.1216 3.7272 1.9812.3504 0-2.6772 9.1824-4.8708 9.1788-2.1936 12.239-5.958 12.239-5.958 2.8752-.5544 3.6756-4.0488 3.8904-5.46.0276.6504.1044 1.3704.2088 2.19.414 3.1608-1.77 4.3116-1.77 4.3116l7.9548-2.388c3.1572-.8244 2.7468-3.5748 2.7468-3.5748 3.0216 8.6568 8.5188 9.2064 8.5188 9.2064 1.0992-3.2988.9636-4.2612.9636-4.2612l2.472-.1344c.1008-1.8636-1.5444-3.2256-2.4972-3.8592l3.87 2.3472 1.5084-.2748c0 1.374 2.0616 2.6076 2.0616 2.6076l.2784-1.782c1.7868 2.3352 5.0832 1.5096 5.0832 1.5096-.066-.4152-.1668-.8448-.2916-1.2828 7.0404 4.3452 18.286-1.1892 18.286-1.1892 3.0216.6864 3.4344-1.1004 3.4344-1.1004 3.4344.4104 4.2312-1.9368 4.2312-1.9368 8.0832-.6996 13.772-6.4464 13.772-6.4464 3.9804-.2748 4.11-3.1212 4.11-3.1212s3.9912.7872 7.8396-4.0224c8.928-12.775 22.28-6.1236 22.28-6.1236l-7.7196.4884c-20.194-.1356-11.822 13.598-11.822 13.598l1.2444-.132c1.9236.4116 8.5152 5.6328 6.0852 9.522-.0384.0684-.0912.1308-.1356.1932-4.1172 5.6364-11.742.2604-13.915-4.4952-2.2008-4.8072-6.5988-3.7068-6.5988-3.7068s-11.401 1.9236-6.7308 10.991l.1704.005c.0864 2.2128 1.4748 4.734 5.5416 7.2396 2.2848 3.2316 9.7944 3.5688 15.31 2.3736 2.5668-.5604 16.112-6.384 16.112-6.384.9936-2.9496 4.3596-2.2704 7.3812-6.5292s-4.26-5.772-5.9076-8.1048c-1.6512-2.3388.414-1.9248.414-1.9248 6.5916 3.5724 7.1412-7.8324 7.1412-7.8324.6888 6.5928 6.4572 8.3796 6.4572 8.3796 3.5748-3.5676.9672-10.852.9672-10.852 8.5188 15.25 13.678 12.822 13.678 12.822-4.5864-2.8392-2.2776-6.6396-2.2776-6.6396 4.1172 16.211 21.022 2.0616 21.022 2.0616-.8244 2.3328.004 3.7056 1.5132 5.2176 1.5096 1.512 3.2964 2.1996 2.4756 4.9476-.8268 2.7468-8.6532 2.1996-8.6532 2.1996s-7.698-.4104-7.0068 6.0468c.4032 1.5084 5.49 2.058 7.4136 1.6476 0 0-.7932.1728 2.0508.5532.9528.1224 2.1036.1428 3.2748.1044 3.2784-.1008 6.7704-.6576 6.7704-.6576 4.3908-.9588 3.7068-2.4756 3.7068-2.4756 6.726-1.2396 7.4172-5.7756 7.4172-5.7756z" fill="#ffd100" stroke="#000" stroke-width="1.2"/>
<path transform="translate(-225)" d="m791.95 179.3c.005-.007.3612-.8484 1.0392-.9492.5232-.078 1.158.3096 1.8288 1.1244l.3672-.276c-.0156-.0276-1.8132-2.646-1.0968-4.4952.3192-.8244 1.1136-1.3896 2.3568-1.6692l-.1008-.4524c-1.4028.3216-2.3052.9804-2.6856 1.9572-.1416.3648-.2016.7512-.2016 1.1364 0 .9036.318 1.8192.6444 2.5224-.4068-.2556-.8028-.3612-1.1832-.3036-.69.1044-1.026.6012-1.2084.9252zm212.05 35.985c-4.59.7284-11.328 1.1316-11.864-.2568-.0936-.2472-.1104-1.2384 3.648-3.6852l-.438-.6732c-3.1356 2.0424-4.398 3.5184-3.96 4.6464.9624 2.4996 10.799 1.0716 12.763.7584zm-87.8 2.65c-1.0464-1.6008-.576-3.7932 1.398-6.5232l-.6504-.4692c-2.1936 3.018-2.6712 5.5236-1.422 7.434z"/>
<path transform="translate(-225)" d="m910 211.02c.1008 2.7684 2.0556 5.3388 5.7996 7.632l.4212-.6864c-3.5052-2.1432-5.3232-4.4904-5.418-6.9732-.138-3.8124 3.8904-6.7524 3.9288-6.7836l-.4692-.654c-.1812.1284-4.4184 3.216-4.2624 7.4652zm78.29 1.03c-1.2588 1.8588-.8376 4.11-.8208 4.2048l.7884-.1548c-.007-.0216-.372-2.0256.7032-3.6036.6456-.9492 1.686-1.5648 3.0972-1.8324l-.1452-.7896c-1.6344.3096-2.85 1.0404-3.6228 2.1756zm-179.37-35.16-.2484-.0624-.0336.2556c-.007.0252-.3576 2.4636-1.464 3.1272-.3096.1848-.6432.2052-1.0284.0648l-1.878-1.1424c-.3744-.33-.696-.5724-1.2372-.414-.108-.1392-.5388-.7236-.5388-1.662 0-.1044.007-.216.0228-.3288.1332-1.1004.9012-2.1612 2.2896-3.1512l-.264-.3756c-1.5048 1.0752-2.3376 2.2428-2.484 3.48-.168 1.4328.6612 2.406.6972 2.448l.1116.1284.1524-.0696c.4176-.1848.5388-.0756.9456.2844l2.0268 1.2324c.5148.1896.9912.1548 1.422-.102 1.1448-.6852 1.5456-2.6808 1.6392-3.2352 4.8768 1.0488 8.802-4.8792 8.9724-5.1348l-.39-.252c-.0348.0624-4.0404 6.1344-8.7132 4.9092z"/>
<path transform="translate(-225)" d="m797.23 175.98c-.2436.9876-.0768 1.9572.4872 2.8824.5388.8772 1.0692 1.344 1.6224 1.4172.6744.0936 1.2132-.4068 1.6884-.8448.3456-.324.6744-.6252.9444-.6048l.4188.2892.3612-.2868-.7476-.4608c-.4716-.0348-.8676.3324-1.29.726-.4212.3864-.8532.7932-1.314.7296-.3996-.0552-.8316-.462-1.29-1.206-.4968-.8148-.6468-1.6692-.4356-2.5308.5256-2.1756 3.1272-3.774 3.1548-3.7896l-.2364-.3924c-.1164.0672-2.7912 1.7088-3.3636 4.0716zm-6.71 31.06c.2328-.8412.8796-1.5576 1.9188-2.1348-.2052.0192 1.0188 1.0152 2.0688.9036 0 0 .426-.2292.6816-.3684.2784.24 2.0964 1.8948 2.0964 3.9912 0 .4416-.0804.894-.2784 1.3536l.426.1788c1.3296-3.15-2.0148-5.9436-2.046-5.9736l-.1224-.096-.2064.1332-.5964.324c-.8592.09-1.9788-.8184-1.9872-.8268-1.4112.6156-2.1324 1.4304-2.4 2.3988zm15.53-8.04c-1.0044.0852-3.8016.6192-4.7148 2.0712-.33.5268-.3792 1.1064-.1392 1.7328l.3672.9768c.8712 2.3436 1.776 4.7652 2.7624 5.3124l.2232-.4008c-.8376-.4644-1.7496-2.9124-2.556-5.0712l-.3648-.9768c-.1872-.4944-.156-.9288.0948-1.3284.75-1.1904 3.2652-1.7652 4.3656-1.8564.6408-.0516.8496 2.3136.9768 3.7272l.4572-.042c-.1836-2.0832-.3768-4.236-1.4724-4.1448z"/>
<path transform="translate(-225)" d="m798.38 201.3c-.588.5256-.4692 1.3176-.462 1.3524.005.2172.2664 6.0672 3.0444 7.2768l.1824-.4212c-2.514-1.0956-2.7672-6.8448-2.7708-6.9012-.001-.0348-.0828-.6156.3168-.966.4212-.3744 1.2588-.4032 2.4204-.084l.1224-.4416c-1.3404-.3696-2.3004-.3084-2.8536.1848z"/>
<path transform="translate(-225)" d="m796.18 201.78c-1.2288.8556-1.1784 3.2976-1.1772 3.3996l.4596-.008c0-.0252-.0456-2.3028.9804-3.0144.3828-.264.8868-.2748 1.5012-.0276l.1704-.4248c-.7656-.312-1.4184-.2868-1.9344.0756z"/>
<g transform="translate(-225)">
<path d="m862.33 169.49c.0216.0384 1.3104 2.9448 1.3104 5.3052 0 .4188-.198.7164-.2916 1.0812-.0516-.1356-.5004-1.3668-.5004-1.3668l-.3888.9876c-.018.0552-.5256 1.3836.3816 2.8824 1.2 1.9776 4.1868 3.2436 8.8836 3.7584h-.002c0 .004.0588.0552.066.0648-.1944.0264-.3408.0804-.3852.1224l-.1884.1596.0252.4008c.1212.4872.678.5112 1.7832.5532.1872.0108.4908.0552.7056.066.2748.0768.5568.1536.5568.1536s-.0768-.0888-.0936-.108c1.0704.0732 2.274.3372 3.5808.8256-.2892.0756-.9948.252-.9948.252l1.1616.4584c.0876.0348 8.6484 3.474 12.191 6.3024-1.0056.8724-5.2992 4.08-12.736 2.2476l-1.2456-.306.8448.9648c.0516.0576 4.896 5.6136 5.9004 8.9832-1.6872.0168-8.1852-.042-10.456-1.9716l-.588.5352c.0312.0492 3.1152 4.5756 3.804 8.1048-.8832.1164-3 .2028-4.2516-1.4328l-.5772-.7512s-.2328 1.5168-.3132 2.0376c-.6048-.456-1.3668-1.1376-1.3668-1.8672v-.48s-1.5924.2892-1.8324.3324c-.2124-.1272-2.85-1.728-3.7656-2.2824-.324-.21-.5352-.33-.6048-.3648-.004-.004-.0348-.0228-.0348-.0228l-.0276-.0156-.39.7056s.4488.2676.5772.348c.8064.5256 2.1864 1.6704 2.3256 3.1884-.5952.0348-2.448.1356-2.448.1356l.0456.426v.0672c0 .252-.0792 1.3044-.8484 3.6792-1.158-.276-5.3688-1.7436-7.8576-8.874l-.7752.192c.004.0192.0132.114.0132.2652 0 .6492-.2292 2.2788-2.4648 2.8596-.0132.004-4.1508 1.248-6.4524 1.9368.4308-.6156.8244-1.4604.8244-2.6844 0-.2604-.0168-.54-.0516-.8376-.1392-1.0356-.2232-1.8984-.2232-2.6184 0-1.5012.3684-2.3952 1.4052-3.0312l-.3612-.7164c-.0972.0384-9.618 3.8196-14.339 2.25.216-.9216 1.0152-4.1616 2.628-7.6152l-.2088.198c.3096-.132.6252-.6156.3648-2.166l-.0864-.528-.4836.2328c-.0312.0144-3.0528 1.3632-7.4172-.2364.0888-.3576.3204-1.0008 1.2348-1.38l.2676-.108-.0252-.2916c0-.0108-.0108-.2136-.0108-.5316 0-1.1784.1848-3.9396 1.8804-4.602l-.18-.7764c-.0552.007-5.1612.4152-8.2572-1.3068.8124-.5604 2.5188-1.5924 4.5048-1.878l.318-.0456.0228-.318c.004-.0156.0108-.1092.0108-.2592 0-.4032-.156-1.2192-.5112-2.0412 1.1784.3288 2.5908.6252 3.0912.2496l.1704-.1284-.1464-3.0984-.8028.0384s.0972 2.0544.1224 2.562c-.504.0276-1.788-.2292-3.0348-.6252l-1.2336-.3924.7944 1.0236c.6456.8292.7272 1.8588.7368 2.3316-2.79.5184-4.9752 2.2512-5.0688 2.3292l-.4104.3372.4344.3036c2.4 1.6716 6.1536 1.8168 8.0808 1.7748-1.1364 1.2792-1.3284 3.4212-1.3284 4.4916 0 .2196.007.2784.0108.3864-1.3632.7356-1.5684 2.118-1.5768 2.1816l-.03.3012.282.1152c4.1244 1.644 6.9408.8508 7.8972.4968.007.1284.0348.3024.0348.3936 0 .378-.0696.4932-.0696.4932-2.0268 4.248-2.8752 8.286-2.886 8.3244l-.066.3336.3132.1248c3.828 1.53 10.705-.5592 13.751-1.6344-.3996.6888-.6324 1.464-.6324 2.4288 0 .8088.0972 1.7184.2328 2.7312.0348.2568.0492.4944.0492.7236 0 2.28-1.5408 3.1428-1.614 3.1812l.306.7404 7.9548-2.3892c1.8396-.4776 2.5308-1.5648 2.8236-2.4888 3.1392 7.4436 8.0664 8.1144 8.2848 8.1396l.3204.0276.1008-.3024c.7656-2.2872.942-3.4488.9768-4.0092.5316-.024 2.4624-.132 2.4624-.132l.0204-.3612c.004-.0624.004-.1224.004-.1812 0-.6588-.2052-1.2408-.4896-1.764.4968.3 1.3764.834 1.3764.834s.9108-.1656 1.3176-.24c.3444 1.3296 1.9236 2.3736 2.1276 2.4984l.5112.3072s.1884-1.212.2676-1.74c1.9644 1.758 4.7532 1.2348 4.8852 1.2024l.3516-.09-.0516-.3576c-.3996-2.688-2.2044-5.886-3.2652-7.596 3.4908 1.5876 9.8496 1.4712 10.163 1.4616l.474-.0168-.0936-.4644c-.564-2.8248-4.0932-7.272-5.5704-9.0408 8.202 1.542 12.607-2.7132 12.796-2.9064l.288-.306-.3168-.2784c-2.7576-2.4012-9.1128-5.19-11.665-6.2568.1392-.0348.894-.2256.894-.2256l-.8832-.4944c-2.1348-1.2-4.398-1.3488-5.928-1.4148l-.007-.012c-.9708-1.1112-1.464-1.2888-1.5888-1.3164-5.5464-.612-7.5792-2.166-8.3172-3.366-.0624-.0984-.0312-.1656-.0768-.2616.1188-.1596.2436-.318.2436-.318.5352-.6972.726-1.6296.726-2.6172 0-2.5464-1.2936-5.4564-1.3668-5.6244l-.738.3336z"/>
<path d="m836.8 167.86c-.0168.0792-.6084 3.1188-3.1956 4.5432-1.9476 1.0704-4.5204.9816-7.6392-.2664l-.3516-.1392.0372.3756c.008.078.2136 1.8636 1.8972 3.1716 1.4016 1.092 3.408 1.4748 5.922 1.2-.8412.9984-3.5436 4.452-3.5436 7.8024 0 .1764.0108.354.0276.528.3444.2472 4.5792 1.3944 6.5436-1.116.0696 1.0764.3792 4.5216 1.7244 5.8692.7368.7332.9108 1.8048.9108 2.6604 0 .7716-.1464 1.3668-.1464 1.3788l-.1524.6132.5112-.372c.1632-.1188 4.0572-2.9712 5.3016-6.7068-.004.01.6228-.9372 1.8252-1.3248-.0252.1632-.0456.33-.0456.5628 0 1.4436.6324 4.0644 4.836 5.6712l.3444.132-.0312-.3672c-.004-.008-.0276-.2964-.0276-.726 0-1.0548.1464-2.9928 1.1508-3.9972.6612-.66.8592-1.404.8592-2.0484 0-.5076-.1116-.918-.2256-1.2204.8484.2148 2.8548.8616 3.672 2.3904 1.1856 2.2224 5.3376.4536 5.5152.3792l-.1428-.4368c-.0168.004-1.746.3912-2.8368-.3576-.48-.33-.768-.8376-.8688-1.5108l-.192-2.31c-.042-1.0464-.1872-1.7112-.7128-2.2704.5496-.0504 1.6512-.0312 2.118 1.0008.7332 1.6164 3.2508 1.7736 3.3552 1.782l.8616.0456-.7236-.468c-.024-.0144-2.1972-1.4568-1.8216-3.336l.3132-1.3764c.5952-2.4804 1.5852-6.6324.7788-9.1812l-.438.1404c.1992.636.282 1.3896.282 2.196 0 2.2596-.6396 4.944-1.0716 6.738l-.3168 1.3944c-.0384.1812-.0516.3648-.0516.5388 0 1.2168.7896 2.1456 1.4052 2.7048-.7404-.1596-1.7664-.5124-2.1516-1.3704-.6048-1.326-2.2284-1.3872-3.0036-1.23l-.5424.1092.462.3072c.7296.4872.7512 1.0536.8028 2.2932l.1944 2.358c.1152.804.4728 1.4184 1.0608 1.824.5148.3504 1.116.3996 1.6656.4392-1.2336.3216-2.9244.522-3.5316-.6192-1.1448-2.1324-4.2912-2.7024-4.4232-2.7276l-.48-.0828.24.4212c.0252.0456.3576.6516.3576 1.422 0 .546-.1668 1.1712-.7332 1.7352-1.116 1.1256-1.2864 3.1668-1.2864 4.296 0 .2208.0108.252.0144.3864-3.5952-1.5108-4.2312-3.7488-4.2312-5.016 0-.5388.1044-.8976.1188-.9444l.1044-.354-.36481.0612c-1.746.288-2.472 1.71-2.5032 1.77-.9984 2.9916-3.7092 5.3592-4.6908 6.1488.0312-.2496.066-.5412.066-.8952 0-.9348-.2016-2.1264-1.05-2.976-1.4292-1.4292-1.6236-5.9736-1.6236-6.0192l-.0312-.8208-.3996.7128c-1.5816 2.8332-6.1992 1.4724-6.2448 1.4604-.1944-3.5796 3.8664-8.16 3.9084-8.2068l.4248-.4716-.6264.0924c-2.652.384-4.7112.0288-6.1224-1.0608-1.1052-.8568-1.5024-1.9476-1.644-2.4984 3.0756 1.146 5.6556 1.2096 7.6416.1128 2.7744-1.5336 3.3828-4.6752 3.4068-4.8072 2.9136-6.606 5.4588-7.6488 5.4864-7.656l-.1596-.4308c-.1152.0396-2.7396 1.0728-5.7684 7.95z"/>
<path d="m843.45 158.07-.1944.007-2.364 3.24.702.0696c12.829 1.248 19.613 8.988 19.679 9.0684l.2964.3444 2.3256-2.5272-.1704-.2604c-6.5052-10.244-20.135-9.9468-20.274-9.942zm.2196.804c1.5852.004 13.271.3648 19.189 9.3312-.2892.3132-.9348 1.0188-1.2792 1.3968-1.3872-1.4376-7.962-7.5816-19.237-8.9064.4368-.6012 1.164-1.5984 1.3272-1.8216z"/>
<path d="m841.6 164.84c-1.0956 1.4952-2.1144 3.7068-2.1144 4.7424 0 .198.0384.354.1224.4524.007.01.0456.0132.0588.0288-1.3356 1.1976-2.1312 3.1968-2.1312 5.4564 0 1.2432.2196 2.538.6816 3.7728l.2568.6948c1.2588 3.4248 2.3436 6.384 7.788 4.6416 5.244-1.6752 5.4492-2.0112 6.7704-4.1892l.3444-.564c.72-1.17 1.506-1.404 2.3436-1.6524.9984-.3 2.034-.6072 2.9412-2.4l.8832-1.3236c.9528-1.3128 2.142-2.94 2.2848-5.0232l-.4596-.0312c-.132 1.95-1.2792 3.5184-2.1972 4.7808l-.9216 1.3872c-.8208 1.6164-1.7148 1.884-2.664 2.1672-.8832.2628-1.7904.534-2.604 1.8528l-.348.5664c-1.2696 2.0964-1.4316 2.3664-6.5124 3.9936-5.0268 1.6068-5.946-.9-7.218-4.3632l-.2568-.702c-1.4328-3.8184-.3132-7.6692 1.5504-9.0492l.6396-.4752s-.7932.0888-.8868.1008c-.01-.0384-.0204-.072-.0204-.132 0-.624.6816-2.6112 2.0376-4.464 1.158-1.578 3.8904-3.1416 3.9192-3.1572l-.2292-.3984c-.1152.0684-2.8452 1.6296-4.0584 3.2868z"/>
<path d="m839.16 178.65c.9.624 2.166.5808 3.6924 0 .007.5436.1284 1.6992 1.0776 2.538 1.116.9876 2.9652 1.1784 5.4996.5736l-.108-.4452c-2.3748.5664-4.0884.4068-5.0868-.4692-1.0716-.9456-.9216-2.4504-.918-2.4636l.042-.3936-.3648.1548c-1.5372.6624-2.7396.702-3.5748.1248-1.4952-1.0392-1.3836-3.7548-1.38-3.786l-.4596-.0216c-.002.1236-.1272 3.0024 1.5804 4.188z"/>
<path d="m842.07 174.99c-.6564.156-.8268.7056-.8268 1.1304 0 .102.0108.1968.024.2784.1152 1.182 1.398 1.9692 2.5632 2.3064 1.1328.3276 2.5272.3492 3.0768-.3564.2196-.282.3792-.7896-.1008-1.6104-1.7496-2.976-4.5804-1.8108-4.7364-1.7484zm1.8876 3.2712c-1.0188-.2916-2.142-.9528-2.232-1.9332-.0216-.0936-.132-.7524.4488-.8904l.0456-.0144c.1044-.0468 2.6112-1.1364 4.1904 1.5504.2808.4788.3264.8448.132 1.092-.3384.4404-1.4544.5268-2.5848.1956zm-1.9332-3.2544c.004-.004.0456-.018.0456-.018l-.0456.018zm1.6256 5.9732c-.2952 2.514-.1152 2.574.066 2.6304l.1596.0504.18-.2124 1.4568-1.92-1.8288-.8664-.0336.318zm.4212.3756c.2604.1224.5004.2364.7368.348-.198.2532-.5664.744-.8448 1.1112.007-.3792.0528-.9132.108-1.4592zm-4.2112-2.3956-.0972 2.376 1.9956-2.4132-1.8876-.2088-.0108.246zm.4488.2664c.1764.0204.3024.0312.552.0588-.1944.234-.324.3924-.5844.7068.0192-.3696.0264-.5748.0324-.7656z"/>
<path d="m838.53 178.2c.0168.0312 1.4844 2.9004 1.7448 3.9468.1668.6648 1.0152 1.422 2.0268 1.7976 1.008.3792 1.9536.318 2.6592-.174l1.3248-1.1016c.4416-.4248.588-.5436.9456-.4824l.0768-.4536c-.6012-.1008-.894.1788-1.3392.6036l-1.2696 1.0572c-.7824.546-1.7388.3132-2.2392.1212-.9456-.3504-1.6308-1.0284-1.7424-1.4808-.2748-1.0944-1.7208-3.9192-1.7796-4.0404l-.408.2064zm1.91-8.6c-1.62.7476-2.3052 2.7132-2.3328 2.796l.4344.1512c.007-.0192.654-1.8696 2.0928-2.5308.702-.3216 1.488-.3108 2.3436.0252l.1704-.4248c-.9732-.3924-1.884-.396-2.7084-.0168zm10.89 5.16c.1284.096 3.1884 2.4144 1.4292 5.2428l.39.2436c1.9848-3.1884-1.5132-5.8308-1.5444-5.8584l-.2748.372zm-9.2.45s-.4764 1.7292 1.9572 2.34c0 0-2.2884-.0192-2.4336-.6108-.1536-.5904.0132-1.8996.4764-1.7292zm7.44 2.07c0 .15-.1224.2736-.2712.2736-.1464 0-.2712-.1236-.2712-.2736 0-.1476.1248-.2712.2712-.2712.15 0 .2712.1236.2712.2712zm.27 1.08c0 .15-.1224.2748-.2712.2748s-.2676-.1248-.2676-.2748c0-.1464.1188-.27.2676-.27s.2712.1248.2712.27z"/>
<circle cx="848.01" cy="177.82" r=".27"/>
<path d="m848.75 179.45c0 .1464-.1224.2676-.2712.2676-.1464 0-.2676-.1212-.2676-.2676 0-.1512.1224-.2748.2676-.2748.1488 0 .2712.1224.2712.2748zm-7.1-7.32c0 .15-.1212.2724-.2748.2724-.1464 0-.2712-.1236-.2712-.2724 0-.1464.1248-.2712.2712-.2712.1536 0 .2748.1248.2748.2712z"/>
<circle cx="841.65" cy="173.22" r=".27"/>
<circle cx="840.09" cy="172.68" r=".27"/>
<path d="m840.83 174.3c0 .1464-.1248.2712-.2748.2712-.1464 0-.2676-.1248-.2676-.2712 0-.1512.1224-.2748.2676-.2748.1488.001.2748.1236.2748.2748zm4.74-9.55s3.5184 2.1648.132 6.228c0 0 1.6656-1.2372 1.836-3.3624.1776-2.1228-1.2072-3.816-1.968-2.8656zm13.5 5.84c-1.1328.582-2.7636-.4956-3.5808-1.5144-.8136-1.0188-2.4996-1.2792-3.5496.5808-1.0476 1.8636-2.5596 2.562-2.5596 2.562s1.4772-.8724 2.9976-2.5032c1.512-1.6272 2.3856-.3204 3.87.4656s1.7172.9588 2.7636.552l.0588-.1428z"/>
<path d="m858.78 170.86c-.4632.348-1.3116.6396-2.2116-.09-.9-.7272-1.6584-1.7148-2.7924-1.134-1.1376.5844-3.2928 2.2116-3.2928 2.2116s3.4944-2.4168 4.1652-1.8912c.6672.5256 2.2428 1.8048 3.2016 1.4292.9612-.3828.93-.5256.93-.5256z"/>
<path d="m856.1 172.34c-1.1052-.8436-2.2116.9888-3.1428.7596-.9312-.2364-1.6896-1.7784-1.6896-1.7784s.876 1.6308 2.0964 1.2516c1.224-.3768 2.0688-1.1352 2.8236-.5544.7572.5844-.0876.3216-.0876.3216z"/>
<path d="m854.37 172.57c-2.1828.2256-2.3988-1.8132-2.3988-1.8336 0 0 .6888 1.7796 2.6184 1.4568l-.2196.3768z"/>
<path d="m854.3 171.18c.1428.552.1116.8028-.4728.8028-.588 0-.9876-.1956-.9876-.7656 0-.5712 1.374-.3924 1.4604-.0372zm-7.84-3.03c0 .3792-.3132.6852-.6996.6852s-.462-.2604-.462-.636.0756-.7296.462-.7296.6996.306.6996.6804z"/>
<path d="m844.05 165.71s3.7404.0396 1.8876 4.7196c0 0 1.4256-2.3292.5316-4.0056-.8976-1.674-2.3052-1.2516-2.3052-1.2516s-.3432.3168-.114.5376z"/>
<path d="m843.94 167.58c-.0108.9384.6156 1.9068 1.8564 2.8764l.2856-.36c-1.1232-.876-1.6896-1.7208-1.6824-2.5068.007-.786.612-1.2528.6192-1.2588l-.2748-.3708c-.0324.0264-.7908.6036-.804 1.62z"/>
<path d="m844.77 168.37c.1596.5388.5772.9456 1.2444 1.212l.1704-.4248c-.528-.21-.8556-.5184-.9732-.9132-.2364-.7956.4032-1.7244.4104-1.7316l-.372-.2676c-.036.048-.7788 1.1208-.48 2.1252zm5.13 2.6s.696 1.512-.3204 3.1428c-1.0188 1.6308-.9912 1.5444-.9912 1.5444s1.224-2.2416.7584-3.1752c-.462-.9312.5532-1.512.5532-1.512zm14.55 15.79c3.8424.7236 12.51 7.5204 12.6 7.59l.498-.636c-.3648-.282-8.9148-6.9852-12.948-7.7436l-.15.7896zm3.41 9.59c.2568 3.4092 3.9672 5.5284 4.1268 5.6136l.3924-.6996c-.0384-.018-3.4908-1.9956-3.72-4.9752l-.7992.0612zm-9.21.71c0 3.8244 3.5844 8.4504 3.738 8.6472l.6324-.4968c-.0348-.0432-3.5676-4.602-3.5676-8.1504h-.8028zm-12.15.43c.6324 1.2624.5664 1.902.4032 2.2152-.1908.3528-.5808.4068-.594.4104l.0936.8004c.2952-.0348.8868-.24 1.2-.816.3828-.7008.2532-1.6992-.3828-2.964l-.72.354z"/>
</g>
<g fill="#fff" stroke="#000" stroke-width=".36">
<path transform="translate(-225)" d="m791.86 178.63s.2328 2.5596 2.2116 4.0788c0 0-.2328-2.7996.3504-3.96 0-.001-1.0464-1.1652-2.562-.1188zm3.95 1.63s.468 2.3256 1.8648 3.3756l.8196-.2328s.348-2.9136.8136-3.2616c.4656-.3468-1.9788 1.0476-3.498.1188z"/>
<path transform="translate(-225)" d="m799.31 180.14 1.5132 2.3292 1.7448-.9312-.348-2.7924s-1.0464-.2364-2.91 1.3944z"/>
<path transform="translate(-225)" d="m806.41 180.61-1.98 1.6308s-1.0464-.8172-1.8636-.6996l.3516-2.562s1.3968-1.0476 3.492 1.6308zm-14.09 24.1s-.348-3.6096.1188-3.8424c0 0 1.3944.4656 1.9776-.1188 0 0 .816 2.9136.582 4.0776-.2316 1.1628-1.6284.7008-2.6784-.1164zm8.97-3.73s-.1152-3.0276.4656-3.3792c0 0 2.91.3504 3.6084-1.1616l1.0488 2.91s-3.2604-.3504-5.1228 1.6308z"/>
<path transform="translate(-225)" d="m798.15 201.56s.5808-3.1428 1.1652-3.2592c0 0 1.5132.4644 1.9788-.12l-.1152 3.846c0-.001.1152-1.632-3.0288-.4668zm-3.38.47s.6984-2.7948 1.1652-2.7948c.468 0 1.632.6984 2.2128.2328v2.0964s-2.5656-.5808-2.9112 2.91l-.4668-2.4444z" stroke-width=".35"/>
</g>
</g>
<g fill="#00a651" stroke="#000" stroke-width=".78">
<path transform="translate(-225)" d="m840.16 260s7.914 7.35 5.8452 13.758c0 0 5.0868-10.932-.3756-14.137-5.4696-3.2028-5.6568-.7476-5.4696.3792z"/>
<path transform="translate(-225)" d="m830.17 267.15s-2.07 2.8332.1884 4.9056c0 0-2.448 3.5748-.5604 6.5952 0 0-1.5108 3.2028-1.1328 6.5964 0 0-1.3212 5.2752 1.5048 7.7292 0 0 3.018 1.5084 4.3392.1884 0 0 2.6364-3.9564.9384-8.1084 0 0 1.8852-3.39-.1872-7.7256 0 0 .5664-2.4504-1.1304-5.274 0 0 1.1304-1.8876.186-3.3936 0 0-3.7668-3.9612-4.146-1.5132z" fill="#964b36"/>
<path transform="translate(-225)" d="m832.43 257.92s-9.4224-18.09-16.02-18.848c-6.5976-.7548-6.972-7.1604-6.972-7.1604s.7524 3.0156 6.0312 3.0156c5.2776 0 15.456 7.3488 16.585 13.003 1.1292 5.6532 2.2632 4.902 2.2632 4.902l-1.8876 5.088z"/>
<path transform="translate(-225)" d="m832.43 256.6s3.3936-22.805 18.286-23.184c14.885-.3792 9.9888 1.1304 13.567-1.3212 0 0-9.9852 5.2812-16.208 6.0324-6.2172.7536-11.308 12.812-11.119 15.079.1872 2.2596-3.3912 6.5964-5.088 5.0904-1.6968-1.5084.5628-1.6968.5628-1.6968z"/>
<path transform="translate(-225)" d="m835.82 265.09s3.3912-9.0468 9.2352-6.0288c0 0-4.5264-8.6736-12.629-1.134 0 0 3.582 4.8996 3.3936 7.1628zm-11.31-9.06s4.902 20.17-2.6388 26.387c0 0 .1872-10.361-4.3356-16.582-4.5204-6.2232 4.5228-13.003 6.9744-9.8052z"/>
<path transform="translate(-225)" d="m825.08 259.62s8.8608 8.484 9.4272 11.31c.5664 2.8272 2.6364-8.4804-1.5084-11.682-4.1472-3.2088-8.67-3.7728-8.67-3.7728l.7512 4.1448z"/>
<path transform="translate(-225)" d="m808.74 281.85s.8028 3.5604 2.988 4.2492c0 0 .1128 2.646 2.0676 3.4488 0 0-1.0368 2.184.6912 3.5604 0 0-.348 4.3668 1.2624 5.2884 0 0 3.9108-.2292 5.2848-1.38 0 0 .8064-2.868-1.374-5.7468 0 0 .3408-2.7576-1.8432-4.2492 0 0 .69-3.6816-2.0688-5.058 0 0-.4572-2.9904-2.184-4.482.001-.001-3.33 4.71-4.824 4.3692z" fill="#964b36"/>
<path transform="translate(-225)" d="m813.1 277.48s-11.606-4.2516-18.042 1.8396c0 0 9.8808 1.38 11.147 3.3336 1.2636 1.95 7.3524-3.216 6.8952-5.1732z"/>
<path transform="translate(-225)" d="m809.54 284.72s-.918-.8028-2.0664-1.6092c-1.1496-.8028-10.916-3.4464-12.299 5.976 0 0-3.564-9.3072 1.608-10.573 5.1756-1.266 9.312 1.7244 12.757 6.2064m-7.6396-19.26s3.5772 7.7256 4.8996 8.1084c1.3188.372 2.2596-.942 2.2596-.942s-4.71-6.9744-7.1592-7.1664zm-2.64-11.87s-3.018-9.9876-6.5964-7.35c-3.5808 2.6388-2.6388 9.798-2.6388 9.798s-7.1628-7.3464-3.018-13.192c4.152-5.8416 12.253.5664 12.253 10.744z"/>
<path transform="translate(-225)" d="m807.37 274.13s0 1.8852 1.32 2.448c1.32.5664 3.7692 1.5048 3.7692.3792 0-1.1304-1.8828-5.466-2.6412-4.8996-.7548.5676-2.0688.5604-2.448 2.0724z" fill="#964b36"/>
<path transform="translate(-225)" d="m805.11 262.45s-.3768-8.6676 5.274-11.876c0 0 1.134.1944 1.7004-1.5012 0 0-4.5288 10.927-3.2076 16.393l-.1872.7548"/>
<path transform="translate(-225)" d="m806.24 251.89s10.177-21.112 22.618-13.762c0 0-13.004 2.64-17.714 11.876l-4.7148 6.9672-.1884-5.082z"/>
<path transform="translate(-225)" d="m800.77 259.62s-3.0168-14.134-4.9008-16.016c-1.8864-1.8864-5.0904-3.9588-8.8608-.756 0 0 6.5988-5.8452 13.572-.942 6.9708 4.9008 5.4636 12.628 5.4636 12.628l-.7512 9.8016-4.7124-4.3356"/>
<path transform="translate(-225)" d="m811.7 276.39s-12.44-23.552-20.542-6.78c0 0-1.512 4.332.1836 6.0252 0 0-4.524-3.39-2.4492-11.682 2.07-8.2896 15.828-4.524 19.79 2.2632 3.9564 6.7836 5.0904 10.18 4.524 10.552-.5676.3792-1.5072-.378-1.5072-.378zm35.06 6.79s9.0504-18.66 14.324-10.18c0 0 1.506 4.1448-.7572 5.8452 0 0-3.5772-4.3356-6.78.942-3.2052 5.2752-1.8852 4.902-1.8852 4.902s-3.3936.942-4.902-1.5096z"/>
<path transform="translate(-225)" d="m860.32 278.84s4.8996 2.6352 3.2088 7.9128c0 0 6.5916-12.625-2.4516-13.758.001 0 1.698 3.96-.7572 5.8452zm.57-12.81s11.876 3.39 12.252 8.484c0 0 2.076-9.8052-4.7112-12.82.001.001-8.1072 1.3224-7.5408 4.3356z"/>
<path transform="translate(-225)" d="m866.17 250.38c5.0904-9.9888 11.498 3.204 11.498 3.204s2.2596-10.364-4.1448-12.252c-6.4116-1.884-10.556 22.05-10.556 22.05l-7.5408 1.6968s2.0748-20.917 13.382-22.805l1.3176.1908"/>
<path transform="translate(-225)" d="m857.12 256.41s-7.1592-14.7-12.061-16.206c-4.902-1.5084 2.6424-3.7704 5.6568-.9444 3.0108 2.8248 8.6652 6.408 8.1012 13.948l-1.6968 3.2028zm-7.35 20.17s2.0724-9.9852 7.7256-13.003c5.6532-3.018 10.932-1.884 10.932-1.884s-6.7872 1.5048-7.914 4.902c-1.1328 3.39-3.018 3.5772-3.018 3.5772l-7.7256 6.408z"/>
<path transform="translate(-225)" d="m846.76 283.18s-3.2028 6.0324-2.4516 6.972c0 0-3.39 4.8996-2.0724 7.35 0 0 3.3936 2.6388 4.902 1.506 0 0 3.9528-5.4624 2.8236-8.4804 0 0 2.6388-3.5772 1.7004-5.838 0 0-3.9564.1872-4.902-1.5096z" fill="#964b36"/>
<g fill="#000" stroke="none">
<path transform="translate(-225)" d="m830.18 272.41c.2124.108 2.1156 1.032 3.396.6048l.9156-.7824-.72-.3576c-.4692.9312-2.5416.1632-3.234-.18l-.3576.7152zm-.31 5.85-.156.7896c.162.0312 3.9864.7716 5.8104-.8484l-.5352-.5988c-1.524 1.3524-5.0808.6684-5.1192.6576zm-.97 6.66-.4716.6504c.0456.0348 4.4892 3.1992 7.3332-.2568l-.6228-.5112c-2.3616 2.868-6.0804.2328-6.2388.1176zm-17.26.96.1668.4308c.1596-.066 3.9252-1.578 4.164-4.332l-.4572-.042c-.2148 2.472-3.8376 3.9288-3.8736 3.9432zm2.13 3.44.0324.4584c.1464-.0108 3.6228-.2712 4.23-2.7012l-.4488-.1152c-.5232 2.1072-3.78 2.3544-3.8136 2.358zm.72 3.56-.0252.462c.1668.007 4.0608.2088 5.382-1.9476l-.3924-.2436c-1.1796 1.9272-4.926 1.7328-4.9644 1.7292zm29.53-2.44c.0696.0732 1.7484 1.7316 3.7092 1.6584.96-.0348 1.812-.4764 2.5308-1.3032l-.6084-.528c-.5664.6528-1.224 1.0008-1.9476 1.0284-1.6056.0588-3.1044-1.4076-3.1188-1.4256l-.5652.57z"/>
</g>
</g>
<g fill="#964b36" stroke="#000" stroke-width=".42">
<path transform="translate(-225)" d="m961.06 304.22c-.2088.0804-.4176.2052-.6084.4032l.6084-.4032zm13.86-3.47c-.1344-.3444-.222-.1992-.3996-.3516-.2532-.2088-.3996-.876-.6228-1.1256-.132-.1524-.2844-.004-.4272-.042-.324-.7128-.7056-1.464-1.0464-2.1516.0528-.0792.0864-.174.0936-.3204 0-.0276-.1596-.5772-.1704-.6012-.0972-.1524-.2508-.0624-.3444-.2988-.1044-.2364-.0252-.702-.0624-.9804-.0276-.2328-.1188-.3612-.1044-.6888.0144-.2844.1668-.6156.1488-.8652-.007-.156-.1908-.5076-.246-.6396-.2232-.5388-.4104-1.0464-.438-1.7112-.0276-.6012.0936-.9696.138-1.4916.0564-.62521-.2748-.92881-.2748-1.506.004-.4416.1908-.9384.2436-1.3344.0732-.5424.0792-1.3284.0336-1.884-.0408-.5316-.1908-.852-.108-1.4496.0216-.1464.0912-.264.108-.4692-.004-.1464-.004-.288-.004-.4308v-.858c0-.2784.0276-.5916.004-.8628-.024-.2256-.156-.4584-.156-.636 0-.306.1944-.4512.1524-.8664-.0264-.2988-.0696-.3684-.138-.6288-.132-.4932-.042-.9912-.1224-1.5192-.0384-.2532-.1188-.3336-.1428-.6228-.0336-.3408.0708-.4584.1044-.6996.0348-.24.0708-.5556.0384-.81-.0384-.306-.1836-.522-.1428-.8556l-.1116 3.7824c-.0936-3.3-.2256-6.3552-.2256-6.3552l-5.0184-2.3568s-.4248 9.2136-.3168 10.496c.1008 1.2864.5316 10.076.3168 11.147-.216 1.0716-.744 6.4284-.744 6.4284s-2.454 1.7148-3.414 3.6408c-.9636 1.9296-.7476 2.5728-1.0716 2.5728l2.3844-.372-1.776 1.1856c.366-.13801.7512-.108 1.1064.1716.0408.0336.306.2604.3396.2604.0936 0 .2232-.2388.3372-.2808.3696-.1248.6816.5676 1.032.5148.1884-.0276.4452-.2256.5988-.4272.1272-.1704.1764-.46921.3096-.58321.1224-.1044.4212.0168.5496.0168.3504 0 .7056.0108 1.056 0 .4668-.0132.8448-.6708 1.2756-1.0428.4008-.3372.696-.456 1.1244-.4308.4692.0348.8928.4728 1.3704.5004.3612.018.612.0624.9036-.3168.2016-.264.3444-.6564.5352-.9312l1.1856-.1836c.2352.0972.4752.2052.6768.198.3024-.0144.6156-.0516.9156-.004.114.0144.3396.282.4332.216.0636-.0492.1716-.4104.2364-.5184-.0264-.1452-.0708-.5064-.1236-.6276z"/>
<path transform="translate(-225)" d="M964.77 304.05c.3024 0 .5796-.0696.834.15241.042.0804.0792.1572.1188.2328.0828.0564.1704.0672.2508.0348.1704.1152.2052.18.3924.2232.174.0372.3648-.007.5388-.004.2196.007.3264.0828.5316.1668.3576.1464.594.007.9036-.216.3588-.264.4896-.0624.834.2688.258.246.2052.2232.438.0552.0348-.0792.0756-.156.1152-.2232.1152-.048.2328-.0792.3504-.1008.192-.09.3828-.0792.564-.1488.1908-.0744.33-.2856.5316-.2472.174.0348.3732.1764.5388.2292.1596.0552.2292.0864.3624.1836.2388-.49321.768-.63961 1.1052-.87841.3516-.2436.678.0516 1.0644.0552.2052 0 .288-.1188.4344-.1668.1632-.06.3504.0264.5076-.0384.1668-.0624.198-.2232.38161-.2436.3408-.042.72.5136 1.0608.618.1908.0636 1.0752.26161.9456-.3888-.1248-.6192-.6804-.1908-.7992-.6252-.0636-.2472.066-.5988-.0108-.876-.066-.2532-.3444-.546-.5112-.6012-.2088-.066-.33.1524-.5076-.018-.1464-.1356-.2016-.6432-.33001-.8448-.1716.1248-.2784.24-.504.1944-.258-.0624-.2328-.15-.4248-.3936-.4176-.522-.6576.3132-1.0428.1812-.2928-.0936-.564-.8304-.7932-1.1304-.1224-.1596-.4668-.678-.6432-.5628-.2988.1944-.0276.7584-.1836 1.008-.1116.174-.5076-.004-.6504.024-.2256.0492-.2676.108-.4308.3792-.33.546-.522.9804-1.0356.918-.2436-.0276-.4272-.2748-.6648-.1848-.2532.0972-.396.3684-.6744.3996-.2016.0168-.4344.024-.6324-.0516-.1944-.0876-.414-.4524-.5916-.5532-.0756-.0624-.1524-.0756-.2388-.0456-.0216-.0108-.2892-.1668-.2928-.1668-.3096-.09-.2844-.0792-.4104.33-.0732.2532-.1008.5148-.1944.7548-.09.2016-.288.4512-.4032.5868-.216.2328-.3204.1704-.6012.2544-.2256.0732-.5256.4248-.6468-.0276-.18-.6816.5004-1.7004-.258-1.5228-.198.0456-.3168.0828-.438.3756-.1344.3372-.0264.5556-.0864.9252-.0792.4656-.9672 1.248-.792 1.6692.1188.29641.5148-.1596.6228-.0864.18.1248.1284.42121.2568.61921.2688.4104 1.0644-.63601 1.11-.0696M961.55 300.4c-.002-.0588-.0132-.1152-.0168-.1764-.2124-.0384-.4524-.264-.6468-.2676-.1836-.0108-.5424.438-.6684.6528-.3888.6432-.2808 1.5192-.9348 1.506-.1596-.004-.5352-.1116-.6756-.0144-.246.174-.09.6888-.09 1.0392 0 .33.15 0-.0264.4284-.0528.1176-.2124.156-.2544.3132-.132.55921.3336.38161.5388.37561.528-.004 1.0536-.004 1.5756 0 .3168.007.5076-.1044.8028-.21961.1944-.066.6084-.0624.7728-.2364.0588-.066.2508-.5076.2772-.612.042-.216-.0408-.4764.0108-.6564.0828-.3168.366-.1956.4176-.6228.1356-1.0476-.9828-.264-.8064-1.2936"/>
</g>
<g stroke="#000" stroke-width=".78">
<path transform="translate(-225)" d="m974.21 271.28c0 1.356-.9276 2.448-2.0784 2.448-1.1364 0-2.0724-1.092-2.0724-2.448 0-1.3524.9348-2.4516 2.0724-2.4516 1.1496.001 2.0784 1.0992 2.0784 2.4516zm-6.78-3.02c0 1.3524-.9288 2.448-2.0736 2.448-1.1472 0-2.0784-1.0956-2.0784-2.448s.9312-2.4504 2.0784-2.4504c1.1448 0 2.0736 1.098 2.0736 2.4504z"/>
<path transform="translate(-225)" d="m971.01 269.2c0 1.356-.9288 2.448-2.0736 2.448s-2.0724-1.092-2.0724-2.448.9276-2.4504 2.0724-2.4504 2.0736 1.0956 2.0736 2.4504z"/>
<path transform="translate(-225)" d="m967.54 271.44c0 1.356-.9324 2.454-2.076 2.454s-2.0724-1.0992-2.0724-2.454c0-1.3524.9276-2.448 2.0724-2.448s2.076 1.0944 2.076 2.448z"/>
<path transform="translate(-225)" d="m970.76 273.31c0 1.3524-.9348 2.454-2.0748 2.454-1.1436 0-2.076-1.1016-2.076-2.454s.9324-2.448 2.076-2.448c1.1388.001 2.0748 1.0956 2.0748 2.448z"/>
</g>
<path transform="translate(-225)" d="m971.76 246.58s20.918-29.209 43.348 1.134c0 0 .1872 3.018-1.8852 6.2196l-.5664-2.448-1.3188.3744-.3756-1.5072-2.4552-.1872.7584-3.2052-2.6424 2.0736.3792-2.2632-3.0156 3.0204.3792-6.4116-3.2064 5.466.3756-3.7668-1.1292 1.6932-.68041-2.196-1.0128 2.196-1.512-1.128v1.5072l-2.6352-2.262-.942 3.0144-1.3188-3.2016-.378 2.2596-1.3224-2.6388-.1836 2.8284-4.3392-1.8864.942 2.6388-2.0688-1.5048.3756 1.5048-2.8236-.5628.1848 1.6944-3.0156-.5664.5676 1.506-4.1484-.5616 1.5024 1.6956-.4176.69s22.66-7.4724 24.168 20.796l-4.1472 2.0724 1.1328-2.256-1.1328-.7572-3.39-2.6352.942-3.5844-1.1292.3792-.1908-2.0724-.564.3756-1.3224-2.0724-.3756.75479-.942-2.454-.942 1.7004-.5676-4.1484-1.5048 2.6424-.192-1.5084-.5664.942-1.884-2.2632-.5604 1.5084-.7584-1.1304-.5628 1.3176-2.0736-1.8876v1.5132l-1.3176-1.134-.5712.7548-3.198-1.6968-.19561 1.5048-1.692-1.5048-.5676 1.5048s20.549 11.689 14.137 30.725l-1.134 2.448-.372-6.4044-1.884 3.39 1.3104-7.35-1.3104 1.3176-.1944-2.8236-1.6896 2.8236-.5748-3.2016-.7476.942-1.1364-4.902-.942 2.076-1.506-5.466-1.1292 2.2596-.75481-4.7076-.7548 2.826-2.2632-4.1484-.3732 1.6932-1.3176-3.39-.7584 1.134s-3.7692-.192-4.8984-1.134c-1.1304-.9384-4.3356 5.6568-4.3356 5.6568l.378-3.96-1.3176 2.6352v-2.6352l-2.4516 7.914-.5664-5.6532-1.3188 4.8996-.5676-1.5048-.3756 2.0748-.7548-.7572-.6576 2.2248-1.23-.9036v3.0144l-1.1292-1.5084-.942 4.524-.564-1.8804v2.0688l-.942-1.1256-.9456 4.524-1.3176-1.884-.1848 3.1992.5604 2.454-1.506-.7548.5676 3.9528s-5.844-10.927 1.1328-21.484c6.9684-10.549 16.393-13.379 16.393-13.379l-.9456-.9384-.1872-.9456-5.6532 2.826.1908-1.7004-1.5096 1.3212-.3756-1.884-.9456 1.6968-.1836-.7548-1.3224 2.076-.7572-3.018-.9396 3.5844-.8892-2.5068-1.9368 5.3292v-3.9564l-1.5084 4.1484-.564-4.524-1.1292 5.274v-4.7112l-1.7004 4.7112-1.1292-4.5204-.7548 4.332-1.1292-3.39-1.134 5.0868-1.6932-4.524-.942 6.7872-1.1292-2.6424-.1908 4.902-1.3152-3.0144 1.3152 6.4044-1.6968-2.448.5676 3.9564-2.448-4.3356.1872 5.094-1.3212-1.7004-.5676 1.8852s-.5604-19.6 12.816-23.372c13.386-3.768 22.055 1.1328 22.055 1.1328l-5.0868-4.1448.564-1.3212h-1.884l.7536-1.5084-3.9564.1908 1.1292-1.5084-3.018.3756v-.9408l-1.884 1.5036.7548-1.6932-2.6388 1.6932-.1608-2.5068-1.3488 2.1348-.7476-2.2632-6.0348 6.0276 1.6956-6.2172-1.1292 1.3212-.1872-1.3212-1.6968 2.6412-.378-1.8864-.7548 2.2596-.5676-2.6364-1.314 2.6364-1.3224-2.4456-.5628 3.2052-.9456-1.7004-1.1304 2.4504-1.5048-1.5096-.1908 1.5096-3.0156-1.32.7548 2.2632-2.2632-1.884-.5676 3.0144-1.3152-1.5084-.942 3.7728-.942-3.5832-.942 2.8272s11.786-30.286 41.605-10.526c0 0 3.2472 3.1752 4.002 5.436.7548 2.2632.1908.3804.1908.3804l-.5676-20.921 1.1304 9.0468.7536-3.2052-.1872 4.7124 3.012-6.5976s-3.5772 10.933-2.2608 14.89c0 0 1.3224-12.626 5.8488-14.136l-4.1484 9.0456 1.3176-.1896-.942 1.8876h1.1304l-1.3668 2.9904-.7068 1.5336.7512 1.506 1.1388-1.1412z" fill="#00a651" stroke="#000" stroke-width=".78"/>
<g transform="translate(-225)">
<path d="m968.66 258.87.594.5352c.0804-.0828 1.944-2.0688 5.0736.5736l.5184-.6156c-3.7416-3.1644-6.1692-.522-6.186-.4932zm-.91-10.26-.1224.7248s1.0764-.4584 1.4532-.6204c-.2328.4152-.9984 1.7484-.9984 1.7484s1.5816-.5256 2.1672-.7212c-.9456 1.2384-2.688 3.5172-2.688 3.5172l.6396.4944 4.2768-5.6016s-1.9692.6576-2.6568.8868c.2772-.4824 1.14-2.0052 1.14-2.0052s-1.7448.75-2.298.9876c.1524-.9288.4752-2.874.4752-2.874l-.7956-.1332-.5928 3.5964z"/>
<path d="m963.76 248.84s.528 1.1688.9252 2.0388c-.1716-.0708-1.4748-.5928-1.4748-.5928l4.3488 7.6944s.5256-.6708.5568-.7128c-.438 1.1232-.876 2.256-.876 2.256l.7512.2928 1.8744-4.8228-.6912-.39241s-1.0284 1.3176-1.5096 1.9332c-.4068-.7236-1.9116-3.3864-2.6256-4.6452.09.0336 1.2072.4836 1.2072.4836s-.8208-1.812-1.2036-2.6532c.5076.3168 1.6308 1.0188 1.6308 1.0188v-2.868h-.804v1.4184c-.6252-.39-2.6628-1.662-2.6628-1.662l.5532 1.2132zm-2.74 9.66.3204.7368c1.1772-.504 2.148-.588 2.8848-.2364.8628.414 1.1232 1.3032 1.1256 1.3104l.7752-.2088c-.0108-.0516-.3516-1.248-1.5432-1.8216-.9516-.4584-2.1516-.3852-3.5628.2196z"/>
<rect transform="matrix(-.1549 -.98793 .98793 -.1549 0 0)" x="-412.82" y="911.45" width="4.266" height=".806"/>
<rect transform="matrix(-.31629 -.94866 .94866 -.31629 0 0)" x="-559.16" y="836.26" width="3.394" height=".806"/>
<rect transform="matrix(-.24319 -.96998 .96998 -.24319 0 0)" x="-496.74" y="877.86" width="3.316" height=".806"/>
</g>
<g fill="#00a651" stroke="#000" stroke-width=".78">
<path transform="translate(-225)" d="m811.41 365.04s-3.534-1.6056-5.1432-.4308c-1.608 1.182-1.3884 2.8932-2.7828 2.7852 0 0 5.3544 1.1784 6.5316-.216 1.1772-1.3872 1.3944-1.8192 1.3944-1.8192m.65 1.1608s-2.3256 3.1092-1.5216 4.9296c.8016 1.8228 2.5224 1.9788 2.1156 3.3156 0 0 2.3016-4.974 1.1964-6.426-1.1052-1.4424-1.4748-1.7448-1.4748-1.7448m-4.2356-8.6844s-3.7104 1.1508-4.1256 3.0948c-.426 1.9464.8784 3.0864-.2328 3.9312 0 0 4.782-2.6796 4.7376-4.506-.0456-1.8228-.1632-2.2836-.1632-2.2836m1.964 1.0436s1.7592-3.4668.6516-5.118c-1.1052-1.6632-2.832-1.5204-2.6616-2.904 0 0-1.4136 5.2956-.0732 6.5364 1.3428 1.23 1.7628 1.4676 1.7628 1.4676m-3.3196-1.242s.0852-3.876-1.632-4.8888c-1.7148-1.0152-3.2088-.1416-3.6576-1.4676 0 0 1.026 5.3892 2.7732 5.928 1.746.5256 2.2272.5568 2.2272.5568m6.6292 6.3316s4.068-1.3968 4.392 2.9976c.3204 4.3908-.216 2.8932-.216 2.8932s-2.142-4.7124-4.4964-5.4636l.3204-.4272z"/>
</g>
<g transform="translate(-225)">
<path d="m811.99 366.59c0 .0936.426 3.414.426 3.414l.5724-.0732-.4308-3.3216c.0144.004 1.3908-7.3008 1.3908-7.3008l-.5676-.1044-1.3908 7.386z"/>
<path d="m808.29 365.51-.1896.5424c1.9452.684 4.6608-1.4544 4.7736-1.5444l-.36-.4476c-.024.0168-2.5776 2.034-4.224 1.4496z"/>
<rect transform="matrix(-.89232 -.45141 .45141 -.89232 0 0)" x="-888.86" y="44.844" width="10.201" height=".804"/>
<rect transform="matrix(-.70671 -.70751 .70751 -.70671 0 0)" x="-825" y="316.26" width=".802" height="2.574"/>
<rect transform="matrix(-.41879 -.90808 .90808 -.41879 0 0)" x="-665.49" y="585.05" width="4.603" height=".803"/>
<path d="m812.67 364.42.0516.804c2.4756-.168 3.0804 1.4352 3.084 1.4532l.7896-.1644c-.0936-.4584-1.0848-2.2836-3.9252-2.0928z"/>
</g>
<path transform="translate(-225)" d="m854.43 366.27c3.0348-1.7004 3.6432-7.6572 3.6432-7.6572-.72601 2.1912-6.3108 4.3752-6.3108 4.3752 4.1268-2.556 9.102-14.084 9.102-14.084-1.3344 4.1292-12.138 7.5264-19.061 11.411-6.9228 3.8832-3.2784 15.058-3.2784 15.058-1.9404-1.3368-5.706-7.2828-6.432-12.509-.7332-5.2188-2.796-7.2804-7.5312-7.8888-4.7376-.6084-7.5288 4.7316-7.5288 4.7316l-7.0404 3.6468 7.1592.24s5.106 1.704 5.106 5.7096c0 4.0092-4.4928 20.035 2.91 29.022 5.1528 6.2448 24.166 9.8328 24.166 9.8328" fill="#fff" stroke="#000"/>
<path transform="translate(-225)" d="m840.47 378.65s1.4568-7.1652 6.192-6.9216c4.7352.2424 6.0708-5.34 8.8632-6.192 2.7924-.8484 17.242-4.7316 18.821-11.656 0 0-1.3356 11.416-14.568 17.122 0 0 10.681-3.5232 11.898-5.8308 0 0-4.7388 10.2-16.272 11.778 0 0 10.806-.8484 12.385-3.7608 0 0-4.8576 6.4332-12.869 7.2852 0 0 7.4052 3.0348 9.3492.4836 0 0-4.008 4.7352-8.988 5.0964l1.3392.366s-4.7352 5.5872-9.9576 1.8216c-5.2188-3.7656-5.3436.9744-5.3436.9744" fill="#fff" stroke="#000"/>
<path transform="translate(-225)" d="m851.25 389.45s6.0984 10.202 6.7068 15.665c0 0 11.658 12.872 16.028 13.595 0 0-2.0652.8484-5.8308-2.3052 0 0 3.1572 3.2784 3.7656 3.4008.6048.12482-2.5512-.2436-3.0384-1.0956 0 0 1.338 1.9476 2.1864 2.19.852.2436-.8484-.2424-.8484-.2424s-1.5816-.2436-2.3088-.852c-.7296-.6048-.2436 1.5756-.2436 1.5756s-1.8216-.486-2.4264-1.092c-.6084-.6048.2436 1.3392.2436 1.3392l-1.578-.366-1.092.726s-.1224.7296-.8556.1224c-.7236-.6012-2.0616 0-2.0616 0s-.9744.852-1.4568.2436c-.4824-.606-2.3232 2.3352-2.3232 2.3352l-7.6452-18.455" fill="#fff" stroke="#000"/>
<g transform="translate(-225)">
<rect transform="matrix(-.46508 -.88527 .88527 -.46508 0 0)" x="-773.68" y="563.31" width="20.776" height="1.146"/>
<rect transform="matrix(-.66613 -.74583 .74583 -.66613 0 0)" x="-892.01" y="365.7" width="24.817" height="1.151"/>
<rect transform="matrix(-.73157 -.68177 .68177 -.73157 0 0)" x="-923.37" y="286.33" width="25.786" height="1.149"/>
</g>
<g transform="translate(-225)">
<path d="m823.44 360.84s-1.2312-2.2044-2.3028-1.3764c-1.0692.8256-1.6848.9768-1.8696.9192 0 0 1.0752.0588 1.686-.522.6132-.5856 1.656-.216 2.4864.9792zm-6.66-1.01s.6756 1.398.6852 1.422c-.0684.004-.7632 2.2572-.7632 2.2572l.5532.1704.75-2.454c-.0132-.2124-.7032-1.6416-.7032-1.6416l-.522.246z"/>
<path d="m823.16 360.5s-.918 1.0752-2.1756.7656c-1.2528-.306-1.2528-.306-1.2528-.306s1.0668.06 1.776.0936c.7008.0288 1.6188-.3372 1.6524-.5532z"/>
<path d="m822.86 360.72s-1.1316-1.1952-1.8996-.858c0 0 1.35-.4308 2.1156.7296l-.216.1284z"/>
<path d="m822.67 360.5s-1.2864.8868-2.6988-.09l-.0864-.066.1836-.0588c.001.001 1.7772.7344 2.6016.2148z"/>
<circle cx="821.57" cy="360.28" r=".383"/>
</g>
<path transform="translate(-225)" d="m822.61 394.2s-.996 1.8336-.4752 2.9388c.528 1.1028 2.8908 1.6752 3.2052 3.1464.3168 1.4748 1.1052 1.4712 2.208 1.266 1.1052-.2124 1.314-.264 1.314-.264s-4.6248-2.4732-5.8344-6.4608l-.4176-.6264z"/>
<g fill="#964b36" stroke="#000" stroke-width=".48">
<path transform="translate(-225)" d="m972.09 356.85s8.418-11.099 15.882-8.184c7.4652 2.9172 12.316 4.3212 12.316 4.3212s.1416 7.4748-3.828 7.4748c-3.96 0-7.7568-7.4652-11.366-5.2464-3.6156 2.2152-6.5844 5.25-6.8184 6.2964-.2328 1.0476-9.5616 1.2828-6.1848-4.662z"/>
<path transform="translate(-225)" d="m940.14 410.37s-2.328 2.4444-1.278 3.0312c1.0536.5808 3.1464-.1224 3.1464-.9348-.001-.8208-1.3956-2.3292-1.8684-2.0964z" stroke-width=".78"/>
<path transform="translate(-225)" d="m938.28 412.7s-4.3116-2.4552-7.6944 3.3756c-3.3864 5.8296-6.1812 15.277-8.1636 16.561-1.9812 1.2816 19.241-9.3288 19.475-13.759 0 0 1.3968-5.7156-.8172-5.6016-2.2152.1224-2.3328.3564-2.7996-.576z" stroke-width=".78"/>
<path transform="translate(-225)" d="m938.86 413.4s-4.4292 1.0428-5.3616 7.3368c-.9324 6.3036-7.1148 9.5652-7.4628 9.7968m74.264-77.544s-6.738 2.3436-5.574 7.0104"/>
</g>
<path transform="translate(-225)" d="m948.54 366.64s.2316-15.976 13.284-15.277c2.4732.2292 1.2936 3.1464 1.2936 3.1464s2.8236-1.9776 4.1136 1.1652c0 0 4.1172-1.8636 4.5852 2.2188 0 0 4.4688-.5808 3.8796 3.0312 0 0 3.0564-.6984 2.9424 1.8672 0 0 3.5256-1.4004 3.1704 2.2152 0 0 3.8808-2.5656 3.2964 2.0964 0 0 3.9984-2.7948 5.4036 1.8684 1.4112 4.662-3.9948 14.574-9.2868 17.138" fill="#fff200" stroke="#000" stroke-width=".48"/>
<path transform="translate(-225)" d="m984.81 367.61c.018.1248 1.7592 12.498-5.2572 17.026l.2472.39c7.2696-4.6908 5.4816-17.356 5.466-17.484l-.456.0684zm-8.45 13.55.324.33c4.4436-4.3248 5.4-15.976 5.4336-16.469l-.4548-.0384c-.0108.1224-.9768 11.974-5.3028 16.177zm-4.15-2.77.4584.0372c.5712-7.1952 6.1956-15.425 6.2556-15.509l-.3792-.258c-.0588.0816-5.7516 8.4132-6.3348 15.73zm-3.26-2.1.4584.0456c.8004-8.6796 6.5328-15.196 6.5892-15.258l-.3408-.3072c-.06.0636-5.8908 6.6876-6.7068 15.52zm-4.55-2.9.4584.0168c.456-10.249 7.1796-15.28 7.2468-15.329l-.2724-.372c-.0648.0516-6.9672 5.2008-7.4328 15.684zm-4.2-2.55.462-.0144c-.336-9.3276 6.8352-14.912 6.9096-14.969l-.2784-.3648c-.0732.06-7.434 5.7804-7.0932 15.348zm-7.57-3.41.4548.0564c1.2492-10.097 10.236-12.725 10.326-12.75l-.1248-.4416c-.09.024-9.3732 2.7288-10.656 13.135z"/>
<path transform="translate(-225)" d="m940.84 386s-2.2116-14.813 6.648-19.472c0 0 1.6368-.3516 2.5656 1.7484 0 0 4.6668-1.9812 4.7844 1.9776 0 0 2.3292-1.8636 2.9136.6996 0 0 5.0136-1.0464 4.0812 2.6832 0 0 4.1964-1.1652 3.846 2.4456 0 0 4.2-1.5144 3.4968 1.6344 0 0 4.4292-1.0464 3.3828 2.5668 0 0 5.4828-.5808 3.8496 3.2652 0 0 4.0812-1.0476 3.1464 2.1 0 0 5.3652.9348 2.9136 4.3152-2.448 3.378-8.6292 8.5092-14.686 10.724" fill="#00a651" stroke="#000" stroke-width=".48"/>
<path transform="translate(-225)" d="m936.06 400.92s-3.6156-12.355 3.2688-15.509c0 0 1.2756-.3516 1.5096.9348 0 0 1.5192-1.9848 2.6868-.2328 0 0 3.4944-1.6332 4.3152.9312 0 0 2.3292-1.9848 3.498.9276 0 0 2.2152-.9276 2.2152 1.4016 0 0 3.0312-1.2828 3.0312 1.5168 0 0 2.91-1.1652 2.3292 1.9812 0 0 4.4328.6984 3.15 2.7972 0 0 3.9708 1.0464 2.448 2.6832 0 0 4.3116-.4656 1.9812 2.448 0 0 3.2652-1.0464 1.4016 2.5704-1.8684 3.612-7.6944 7.5756-11.776 8.0412" fill="#00a651" stroke="#000" stroke-width=".48"/>
<path transform="translate(-225)" d="m940.37 410.71s-7.6944-7.4616-4.0752-9.6756c0 0 1.626.462 2.2116 2.0964 0 0 1.8636-2.6808 2.9172.1152 0 0 2.7996-.9312 2.7996.9384l2.2116 1.6332s2.5692-.2352 2.1036 1.398c0 0 2.7984-.3516 2.6796 1.1652 0 0 2.4516.1152 2.2188 1.7448 0 0 4.1928.6996 2.3292 2.8032 0 0-7.3464 1.512-12.475-.5844 0-.001-2.688-.936-2.9208-1.6344z" fill="#00a651" stroke="#000" stroke-width=".48"/>
<path transform="translate(-225)" d="m966.76 398.38.1644.4272c4.5588-1.7556 12.478-12.564 12.816-13.024l-.372-.2748c-.084.1164-8.1744 11.164-12.608 12.871zm-2.59-1.97.2232.3996c3.9672-2.2128 11.867-12.676 12.2-13.121l-.366-.2772c-.0792.1116-8.1744 10.834-12.058 12.998zm-2.25-.92.2964.3516c4.1892-3.4776 10.291-14.966 10.552-15.452l-.4068-.216c-.0612.1176-6.3204 11.896-10.441 15.317zm-2.06-2.65.456.0636c.7956-5.8068 8.9532-14.947 9.0324-15.037l-.3408-.3072c-.3372.3792-8.334 9.336-9.1476 15.281zm-16.33-7.06.4596-.0408c-.6852-8.202 6.1812-17.237 6.2508-17.327l-.3648-.2772c-.0732.0888-7.044 9.2616-6.3456 17.645zm4.32.72.456-.0792c-1.1364-6.5772 6.63-15.929 6.7104-16.02l-.3516-.2988c-.3264.3888-7.9836 9.6048-6.8148 16.398zm6.64 2.42.4596-.0132c-.2256-7.5072 6.9768-15.032 7.0512-15.109l-.33-.3204c-.0732.0768-7.4148 7.7424-7.1808 15.443zm-15.84 13.6.4308-.1608c-2.616-6.936 1.9248-15.818 1.9716-15.905l-.414-.2124c-.0456.0912-4.6776 9.1488-1.9884 16.278zm3.02.45.438-.1416c-2.2812-7.0656 1.5852-16.535 1.626-16.628l-.4272-.1764c-.0372.0924-3.966 9.7212-1.6368 16.946zm12.5 7.06.1572.4344c7.44-2.676 12.305-9.4608 12.353-9.5256l-.3756-.2688c-.0456.0672-4.8252 6.738-12.134 9.36zm-1.53-1.62.1872.4212c5.934-2.6772 11.467-10.146 11.519-10.223l-.3684-.2688c-.0564.0744-5.5152 7.4424-11.338 10.07zm-1.44-.56.2688.3732c4.6416-3.3624 10.604-11.982 10.667-12.07l-.378-.2568c-.0612.0876-5.9772 8.6376-10.558 11.953zm-7.44-4.33.456-.066c-1.026-7.4136 3.7728-16.208 3.8244-16.295l-.4032-.2232c-.0516.0912-4.9236 9.018-3.8772 16.584zm3.23 2.01.3096.3408c4.788-4.3224 6.4188-15.972 6.4848-16.465l-.456-.0636c-.0144.1188-1.6728 11.981-6.3384 16.188z"/>
<path transform="translate(-225)" d="m950.27 406.91.2688.372c6.7584-4.8876 8.5908-14.274 8.6052-14.365l-.4488-.0864c-.018.09-1.8156 9.2952-8.4252 14.08zm.78-20.23c0 .438.0216.8748.0624 1.3176-.007-.0372-5.1252 16.583-5.1252 16.583l.438.1356 5.1384-16.674c-.7932-8.0604 6.2964-16.859 6.366-16.945l-.354-.288c-.0708.0792-6.5256 8.0928-6.5256 15.871z"/>
<path transform="translate(-225)" d="m956.41 390.74c-.0672.2328-1.6272 11.618-7.7676 15.818l.2604.3792c6.3144-4.3188 7.848-15.544 7.9104-16.018 2.7252-3.2436 9.0048-14.614 9.0684-14.728l-.4032-.222c-.0636.114-6.318 11.45-9.0684 14.77zm-18.13 12.44c.0456.2388 1.0716 5.8956 2.2464 7.8912l.396-.2316c-1.1364-1.926-2.1756-7.68-2.1864-7.74l-.456.0804zm2.91.07c.0492 2.8164.0636 7.4364-.0936 7.8468l.4272.168c.2364-.5916.1464-6.7836.1284-8.0184l-.462.004z"/>
<path transform="translate(-225)" d="m941.45 411.32.4176.1872c1.9716-4.29 2.5788-7.2492 2.586-7.2768l-.4512-.09c-.007.024-.6024 2.9412-2.5524 7.1796z"/>
<path transform="translate(-225)" d="m941.89 411.45.2328.396c3.6576-2.1252 4.506-5.8212 4.536-5.976l-.4476-.1008c-.0108.0372-.8412 3.6612-4.3212 5.6808z"/>
<path transform="translate(-225)" d="m942.57 411.77.0456.4548c3.5844-.3576 6.0252-4.7112 6.1296-4.8948l-.4044-.2232c-.0228.0456-2.4288 4.3284-5.7708 4.6632z"/>
<path transform="translate(-225)" d="m942.93 412 .0276.4584c5.754-.354 8.3436-3.7932 8.448-3.9384l-.372-.2724c-.024.0324-2.5764 3.4152-8.1036 3.7524z"/>
<path transform="translate(-225)" d="m943.34 412.12-.0936.4488c.3096.0708 7.6416 1.6248 10.152-2.1972l-.3852-.2508c-2.334 3.558-9.6012 2.0136-9.6732 1.9992z"/>
<path transform="translate(-225)" d="m778.8 143.94v205.09c0 67.08 121.2 106.91 121.2 106.91s121.2-39.833 121.2-106.91v-205.09z" fill="none" stroke="#000" stroke-width="4.2"/>
</g>
<path d="M 0,0 V 33.54 L 399.69,300 H 450 V 266.46 L 50.31,0 H 0 z M 450,0 V 33.54 L 50.31,300 H 0 V 266.46 L 399.69,0 H 450 z" fill="#fff"/>
<path d="m187.5 0v300h75v-300h-75zm-187.5 100v100h450v-100h-450z" fill="#fff"/>
<path d="m0 120v60h450v-60h-450zm202.5-120v300h45v-300h-45zm-202.5 300 150-100h33.54l-150 100h-33.54zm0-300 150 100h-33.54l-116.46-77.64v-22.36zm266.46 100 150-100h33.54l-150 100h-33.54zm183.54 200-150-100h33.54l116.46 77.64v22.36z" fill="#cf1129"/>
</svg>
