<?xml version="1.0" encoding="UTF-8"?>
<svg version="1.0" xmlns="http://www.w3.org/2000/svg" xmlns:xlink="http://www.w3.org/1999/xlink" width="540" height="360" viewBox="0 0 450 300">
<defs>
<g id="g">
<g id="f">
<path id="h" d="M0-1l-.3.95.47.16" fill="#fcd116"/>
<use transform="scale(-1 1)" width="500" height="300" xlink:href="#h"/>
</g>
<use transform="rotate(72)" width="500" height="300" xlink:href="#f"/>
<use transform="matrix(-.809 .588 -.588 -.809 0 0)" width="500" height="300" xlink:href="#f"/>
<use transform="matrix(-.809 -.588 .588 -.809 0 0)" width="500" height="300" xlink:href="#f"/>
<use transform="rotate(-72)" width="500" height="300" xlink:href="#f"/>
</g>
</defs>
<path d="M0 0h450v300H0z" fill="#ce1126"/>
<path d="m29.5 42h391v216h-391z" fill="#007a5e"/>
<path d="m29.5 42h391l-391 216h391z" fill="#fcd116"/>
<circle transform="translate(-25)" cx="250" cy="150" r="36" fill="#ce1126"/>
<use transform="matrix(33 0 0 33 225 150)" width="500" height="300" xlink:href="#g"/>
<use x="-100" width="500" height="300" xlink:href="#e"/>
<use id="e" transform="matrix(19.5 0 0 19.5 225 21)" width="500" height="300" xlink:href="#g"/>
<use x="100" width="500" height="300" xlink:href="#e"/>
<use x="-100" y="258" width="500" height="300" xlink:href="#e"/>
<use y="258" width="500" height="300" xlink:href="#e"/>
<use x="100" y="258" width="500" height="300" xlink:href="#e"/>
<path d="M55.25 150.4c4.5 8.4 13.26 17.53 20.9 20.74.14-8.52-2.9-19.44-7.02-28.14l-13.88 7.4z" fill="#ce1126"/>
<path d="m47.6 121.63c6.54 13.6-16.92 46.08 22.17 53.7-4.82-6.6-7.93-17.45-6.76-26.17 8.2 3.12 16.84 12.25 20.33 19.23 10.23-37.16-26.24-34.9-35.72-46.77z" fill="#fcd116"/>
</svg>
