<?xml version="1.0" encoding="UTF-8"?>
<svg xmlns="http://www.w3.org/2000/svg" xmlns:xlink="http://www.w3.org/1999/xlink" width="750" height="500" viewBox="0 0 384 256">
<rect width="384" height="256" fill="#da000c"/>
<rect width="384" height="171.5" fill="#FFF"/>
<g transform="translate(-64)" stroke="#000">
<g id="castle_half" fill="#da000c" stroke-linecap="square">
<rect x="196.57" y="116.3" width="64" height="43.993" fill="#000"/>
<path d="m229.82 153.86h-39.07l-8.6601 5.6998v6.0397h47.729"/>
<path d="m213.47 128.59c5.6248 0 10.219 4.6893 10.219 10.469v14.781h7.3438v-56h-40.28v56h12.5v-14.778c-1e-5-5.5537 4.5149-10.469 10.219-10.469z"/>
<rect x="204.53" y="59.962" width="18.523" height="33.959" fill="#000"/>
<path d="m223 88.656h-16.209v-5.75h-11.885v5.75h-8.0625v-5.75h-4.8125v10.438h40.96m-36.156-.03771h34.97v4.5377h-34.97z"/>
<path d="m200.72 47.625v35.281h6.0723v-9.6875c0-3.6293 2.5621-6.5994 6.1464-6.7812.11562-.0059.22668 0 .34375 0 3.7464-3e-6 6.7812 3.0349 6.7812 6.7812v9.6875h5.7812v-35.281z"/>
<path d="m198.53 42.844v4.781h29.25v-4.7812z"/>
<path d="m194.78 33.688v9.1562h35.095v-9.1565h-5.4062v4.6562h-6.5325v-4.6565h-9.9688v4.6562h-6.5325v-4.6565z"/>
<path d="m182.09 159.56h47.91"/>
<path d="m261 156.81h-32.438l-9.7812 4.7188v7.0312h42.22"/>
<path d="m218.77 161.52h43.23" stroke-linecap="butt"/>
</g>
<use transform="matrix(-1,0,0,1,512,0)" width="512" height="256" xlink:href="#castle_half"/>
<g fill="#f8d80e">
<g stroke-linecap="round">
<path d="m273.3 150.03c-2.6543.88339-5.0533 2.369-7.4689 3.7528-3.1004 1.8316-6.1068 3.8273-8.9045 6.0988-.98462.64912-1.9293 1.3606-2.6891 2.2733-1.0258.8776-2.0649 2.0548-1.8688 3.513.0518.64315.87359-.75523 1.414-.82297.94235-.54095 2.0838-.7154 3.1422-.4713 1.2712-1.3386 2.9099-2.2356 4.3249-3.4061 3.0047-2.2422 6.2366-4.1677 9.525-5.9608 1.1481-.58838 2.301-1.1857 3.5251-1.6018-.33328-1.125-.66657-2.25-.99985-3.375z" stroke-width=".768"/>
<path d="m260.4 157.39v3.9119"/>
<path d="m262.82 155.69v3.8828"/>
<path d="m265.23 154.18v3.8581"/>
<path d="m267.65 152.69v3.9813"/>
<path d="m238.89 150.16c-.39583 1.1042-.79167 2.2083-1.1875 3.3125 5.537 2.1004 10.809 4.8787 15.798 8.0604 1.6907 1.1508 3.4672 2.2663 4.7959 3.8459.2927.81098-.51392 1.489-1.3141 1.244-.73225-.24871-1.4535-.53169-2.2263-.004-1.1064.50311-2.106 2.1416-.42575 2.6911 2.3153 1.5549 6.0816.87915 7.1945-1.8452.58146-1.4013.61878-3.1952-.50753-4.3446-2.0626-2.364-4.7973-4.008-7.4215-5.6718-4.6892-2.8202-9.5728-5.3739-14.706-7.288z" stroke-width=".768"/>
<path d="m254.05 158.04-.31238 3.3395"/>
<path d="m256.83 159.74-.86199 3.2697"/>
<path d="m259.8 162.01-1.8089 2.5373"/>
<path d="m260.72 168.18-2.6102-1.4005"/>
<path d="m261.53 165.43-2.9954.28045"/>
<path d="m257.66 169.76-.2051-2.6323"/>
<path d="m256.57 166.76-2.473 1.8222"/>
<path d="m244.68 152.94v3.115"/>
<path d="m250.96 156.24v3.5342"/>
<path d="m247.82 154.59v3.3189"/>
</g>
<path d="m235.78 227.56v8.0312h5.0312v-4.0312h6.8438v4.0312h5.4062v-8.0312zm0 11.062v8.0625h17.281v-8.0625h-5.4062v4.0312h-6.8375v-4.025z"/>
<rect x="253.05" y="193.65" width="4.9902" height="58.115"/>
<rect x="253.05" y="198.68" width="4.9902" height="50.06"/>
<path d="m255.55 179.41 10.625 6.1875-10.625 6.1562-10.625-6.1562zm-14.219 3.9688h-2.7812v4.4375h2.7812l14.219 8.25 14.219-8.25h2.7812v-4.4375h-2.7812l-14.219-8.25z" stroke-width="1.024"/>
<path d="m255.34 164.28c-2.4187.33922-4.2259 2.7302-4.0938 5.1341.009 3.7377-.0185 7.4763.0141 11.214.12824 2.4083 2.2322 4.5662 4.6744 4.5882 1.9849.18804 3.9789-.97232 4.8115-2.7796-.57292-.34375-1.1458-.6875-1.7188-1.0312-.44378 1.1839-1.7234 1.9176-2.9688 1.7812-1.6351.046-2.9592-1.544-2.8125-3.1341.01-3.7134-.0192-7.428.0146-11.141.0899-1.5151 1.5349-2.7549 3.048-2.6002.6265-.17973 1.4875.67715 1.8747-.0623.5838-.82944-.41442-1.4774-.96875-1.9374-.61348-.0841-1.2542-.008-1.8747-.0316zm5.7812 3.9062c-.39638.7459-1.2163 1.1892-1.875 1.5804v7.5133c.66667.38542 1.3333.77083 2 1.1562-.008-3.2038.0153-6.4081-.0117-9.6115-.0315-.19722-.008-.4984-.11328-.63848z" stroke-width="1.024"/>
</g>
<g fill="#da000c">
<rect x="240.8" y="38.351" width="29.329" height="53.255" fill="#000"/>
<path d="m238.75 38.375v44.562h9.3125v-13.219c0-3.0489 1.9525-7.2812 7.9375-7.2812s7.9375 4.2323 7.9375 7.2812v13.218h9.31v-44.562zm15.812 5h2.875v15.25h-2.875zm-8.25 3h2.9062v11.156h-2.9062zm16.469 0h2.9062v11.156h-2.9062z"/>
<path d="m235.59 31.969v6.3438h40.812v-6.3438z"/>
<path d="m231.75 24.594v7.375h48.5v-7.375h-6.0938v4.0625h-6.875v-4.0625h-7.8438v4.0625h-6.875v-4.0625h-7.8438v4.0625h-6.875v-4.0625z"/>
<path d="m222.75 97.844v4.5938h66.5v-4.5938z"/>
<path d="m220.03 82.906v14.938h71.938v-14.938h-6.8125v5.75h-9.0625v-5.75h-12.162v5.75h-15.875v-5.75h-12.156v5.75h-9.0625v-5.75z"/>
<path d="m228.69 102.44v54.344h12.844v-20.342c0-9.5827 6.3963-14.094 14.469-14.094 7.7589 0 14.469 4.511 14.469 14.094v20.344h12.842v-54.332z" stroke-linejoin="round"/>
</g>
</g>
</svg>
