<?xml version="1.0" encoding="UTF-8"?>
<svg width="900" height="600" version="1.1" xmlns="http://www.w3.org/2000/svg" xmlns:cc="http://creativecommons.org/ns#" xmlns:dc="http://purl.org/dc/elements/1.1/" xmlns:rdf="http://www.w3.org/1999/02/22-rdf-syntax-ns#" xmlns:xlink="http://www.w3.org/1999/xlink">
 <metadata>
  <rdf:RDF>
   <cc:Work rdf:about="">
    <dc:format>image/svg+xml</dc:format>
    <dc:type rdf:resource="http://purl.org/dc/dcmitype/StillImage"/>
    <dc:title/>
   </cc:Work>
  </rdf:RDF>
 </metadata>
 <defs>
  <radialGradient id="a">
   <stop style="stop-color:#f9f0aa" offset=".216"/>
   <stop style="stop-color:#b07e09" offset="1"/>
  </radialGradient>
  <radialGradient id="d" cx="447.42" cy="308.27" r="16.534" gradientUnits="userSpaceOnUse" xlink:href="#a"/>
  <radialGradient id="e" cx="451.56" cy="313" r="10.911" gradientUnits="userSpaceOnUse" xlink:href="#a"/>
  <radialGradient id="f" cx="454.11" cy="308.64" r="9.78" gradientUnits="userSpaceOnUse" xlink:href="#a"/>
  <radialGradient id="g" cx="458.39" cy="307.06" r="17.354" gradientUnits="userSpaceOnUse" xlink:href="#a"/>
  <radialGradient id="j" cx="445.98" cy="252.36" r="13.018" gradientUnits="userSpaceOnUse" xlink:href="#a"/>
  <radialGradient id="m" cx="477.86" cy="215.27" r=".345" gradientUnits="userSpaceOnUse">
   <stop style="stop-color:#a50a0a" offset=".259"/>
   <stop style="stop-color:#4c0505" offset="1"/>
  </radialGradient>
  <radialGradient id="n" cx="489.07" cy="210.33" r=".345" gradientTransform="scale(.97707 1.0235)" gradientUnits="userSpaceOnUse">
   <stop style="stop-color:#fff" offset="0"/>
   <stop style="stop-color:#fff;stop-opacity:0" offset="1"/>
  </radialGradient>
  <linearGradient id="h" x1="473.91" x2="472.36" y1="259.17" y2="231.96" gradientUnits="userSpaceOnUse">
   <stop style="stop-color:#b07e09;stop-opacity:0" offset=".216"/>
   <stop style="stop-color:#b07e09" offset="1"/>
  </linearGradient>
  <linearGradient id="i" x1="483.13" x2="485.5" y1="296.66" y2="326.58" gradientUnits="userSpaceOnUse">
   <stop style="stop-color:#b07e09;stop-opacity:0" offset=".216"/>
   <stop style="stop-color:#b07e09" offset="1"/>
  </linearGradient>
  <linearGradient id="k" x1="451.54" x2="455.37" y1="249.52" y2="240.58" gradientUnits="userSpaceOnUse">
   <stop style="stop-color:#f9f0aa" offset=".216"/>
   <stop style="stop-color:#b07e09" offset="1"/>
  </linearGradient>
  <linearGradient id="l" x1="473.31" x2="475.93" y1="237.25" y2="270.45" gradientUnits="userSpaceOnUse">
   <stop style="stop-color:#f9f0aa" offset=".216"/>
   <stop style="stop-color:#b07e09" offset="1"/>
  </linearGradient>
 </defs>
 <rect width="900" height="600" style="fill:#4997d0"/>
 <rect x="300" width="300" height="600" style="fill:#fff"/>
 <g transform="translate(-30)">
  <g style="stroke:#24420e">
   <g style="fill:none;stroke-width:.437">
    <path d="M452.12 377.48c2.67-.40662 4.2078-1.1381 6.035-1.7864M460.37 371.64c1.3468 1.4287 2.4172 2.9497 2.9932 4.6354M455.25 371.2c1.4045 1.3127 2.3761 2.7115 3.138 4.1523M408.81 238.77c-1.0444 1.6022-3.0921 2.7264-4.7798 3.4277M403.69 242c.035-1.3682-.23597-3.0257.0496-4.3935M401.76 242.63c.11383.36926.43502 1.401.67602 2.0278M404.46 245.58c-.37821.0817-1.5209.25695-2.0278.33845M398.48 245.04c-.0127 2.5201.28557 5.5528.53116 7.8214M397.22 251.9c.47195.75686.94717 1.5041 1.545 1.8828M394.18 260.25c.48878.93952.94259 2.1224 1.3038 3.9589M399.2 259.58c-.41449.20451-1.2148.93057-1.9313 1.5448M398.86 265.52c-.97864.87201-2.1978 1.5043-3.428 2.1244M391.62 308.05c1.1534 1.8935 2.4205 3.5595 3.9589 4.6836M396.16 314.42c-1.2944-.16606-2.1607-.54537-2.9451-.96575M397.61 321.86l1.6892.96575M398.86 326.3c1.2548.81629 2.5101 2.2826 3.7653 3.8625M401.18 333.01c1.3853.29278 2.493.64106 3.2348 1.0621M403.35 336.49l2.1244.0725M406.68 331.18c-.10248 1.534-.25346 2.972-.48266 4.2486M407.21 337.02l.43437-1.6418M412.33 341.37l-.14573 3.2357M451.39 372.51l-1.1587 1.593M447.82 370.19l-.6758-1.8343"/>
   </g>
   <g style="stroke-width:.1639">
    <path d="m486.11 384.93c-.79663-1.2555-2.1076-2.0278-3.2774-2.6556-7.7262-4.0566-15.406-5.8439-24.116-7.244-2.0126-.33757-4.0264-2.2216-6.0868-3.187-4.9633-2.3654-10.489-3.2842-15.311-5.6975-.32796-.14595-1.5452-.86939-2.1076-1.5448-1.9193-2.2221-5.3848-2.899-7.5387-4.9747-8.3347-7.8713-17.184-15.116-21.772-25.547-5.5729-12.7-12.504-25.786-11.567-40.226.60851-9.1267-.75031-18.35 1.4976-27.043 3.325-12.894 7.5864-25.641 15.406-36.314l-1.3112.82044c-7.8669 10.674-12.127 23.422-15.452 36.315-2.2479 8.6922-.89037 17.916-1.4989 27.043-.93647 14.439 5.9951 27.526 11.567 40.274 4.5882 10.383 13.485 17.626 21.774 25.547 2.1539 2.027 5.6195 2.7034 7.5387 4.9729.56218.62774 1.8255 1.4014 2.1067 1.5452 4.8237 2.4146 10.349 3.332 15.313 5.6505 2.0602 1.0136 4.0736 2.8481 6.087 3.1878 8.7098 1.3992 16.388 3.2348 24.115 7.2422 1.217.6273 2.4819 1.401 3.2783 2.6565l1.3575-.82154" style="fill:#406325"/>
    <g style="fill:#67923d">
     <path d="m406.34 331.62c-2.7941-6.3005-1.3649-21.608-.19817-23.53 6.6331 13.006 4.4252 23.741.19817 23.53zm45.86 45.39c-7.0923.36358-20.61 9.2946-21.864 11.396 15.085.11624 24.02-7.3152 21.864-11.396zm7.46-4.29c-6.8452-5.4495-14.189-23.661-14.032-26.501 15.11 10.834 18.936 24.281 14.032 26.501z"/>
     <path d="m454.61 372.78c-6.9503-4.2351-15.786-20.115-15.938-22.754 15.202 8.1944 20.198 20.129 15.938 22.754zm-15.56-6.78c.9841-7.8223-5.6658-24.241-7.5855-25.979-2.9503 16.467 2.9971 27.573 7.5855 25.979zm-27.31-24.28c-2.3045-5.6455-.61288-19.321.46998-20.998 5.5198 11.696 3.2645 21.218-.46998 20.998zm-13.71-76.83c3.5892-6.6479 18.381-15.712 20.99-15.931-6.7705 14.569-18.037 19.829-20.99 15.931z"/>
     <path d="m398.74 259.33c2.1485-7.2816 14.874-19.265 17.36-20.034-3.7269 15.676-13.678 23.179-17.36 20.034zm27.81 99.15c-4.9917-6.176-8.0115-23.865-7.2903-26.361 11.271 12.515 12.029 25.234 7.2903 26.361zm-28.65-36.46c-6.9088 1.0885-21.36-4.6362-22.921-6.3372 14.533-3.1503 24.288 2.0722 22.921 6.3372zm-2.22-9.68c.82307-5.5775 8.6653-15.809 10.361-16.66-1.11 11.958-7.4489 18.6-10.361 16.66zm51.33 58.54c-8.4752.4348-24.63 11.107-26.128 13.618 18.028.14334 28.705-8.7407 26.128-13.618z"/>
    </g>
    <g style="fill:#406325">
     <path d="m406.41 331.47c4.2268.20997 6.4054-10.396-.26853-23.379 1.2109 12.319 1.2078 22.309.26853 23.379zm11.18 19.99c-4.4741-5.4704-19.381-11.328-21.712-11.141 8.8846 12.081 19.88 15.097 21.712 11.141zm-24.42-52.98c-1.1475-8.0434-12.334-22.713-14.743-23.969 1.5168 17.175 10.548 26.697 14.743 23.969zm8.39 34.29c-4.9928-3.6812-18.971-5.3442-20.94-4.723 10.137 8.3046 20.212 8.4582 20.94 4.723zm-9.36-24.83c-2.8852-5.6898-14.812-13.482-16.892-13.701 5.5172 12.387 14.558 16.939 16.892 13.701zm2.73-47.54c.90544-7.573-5.5329-23.446-7.3449-25.158-2.8662 15.925 2.918 26.664 7.3449 25.158zm4.47-14.92c2.6582-6.4958.756-22.429-.52176-24.417-6.4032 13.509-3.8276 24.648.52176 24.417z"/>
     <path d="m404.42 237.83c3.1363-4.7713 4.1621-17.685 3.4848-19.47-7.2359 9.7147-6.9582 18.944-3.4848 19.47zm5.95-6.14c4.4018-3.4769 9.2242-15.501 9.0837-17.433-9.7398 6.9542-12.221 15.841-9.0837 17.433zm-16.05 43.2c.10772.86786-.97776-8.1807-10.054-18.314.40902 14.818 6.2503 20.421 10.054 18.314zm32.56 85.78c-6.1755-4.5593-23.385-6.7285-25.767-5.9267 12.562 10.355 24.878 10.551 25.767 5.9267zm12.07 5.24c-4.5421 1.593-10.443-9.4167-7.5398-25.883 2.8105 13.955 6.181 25.063 7.5398 25.883zm13.3 11.15c2.1159 4.0815-6.7004 11.436-21.787 11.315 11.952-4.8908 21.239-9.8613 21.787-11.315zm7.39-4.47c4.8646-2.2494 1.1006-15.536-14.009-26.369 8.5947 13.214 14.455 24.609 14.009 26.369z"/>
     <path d="m454.57 372.67c4.2779-2.6663-.68957-14.444-15.891-22.639 9.404 11.183 16.095 20.967 15.891 22.639zm-42.79-30.99c3.7347.22155 5.9566-9.2618.47698-20.924.71841 10.974.41841 19.978-.47698 20.924zm-13.76-76.74c2.9514 3.8975 14.055-1.3092 20.837-15.923-10.165 9.3385-19.225 16.064-20.837 15.923z"/>
     <path d="m398.86 259.33c3.6818 3.1446 13.542-4.3017 17.269-19.977-8.0961 11.245-15.644 19.736-17.269 19.977zm27.72 99.09c4.7402-1.1248 3.9539-13.784-7.2536-26.272 5.0127 13.416 8.0159 24.756 7.2536 26.272zm-28.87-36.46c1.4071-4.2401-8.2971-9.3693-22.803-6.259 12.261 2.1948 22.043 5.0424 22.803 6.259zm-1.94-9.61c2.9031 1.8871 9.1781-4.6592 10.286-16.617-4.674 9.1814-9.1663 16.265-10.286 16.617zm51.2 58.68c2.5758 4.8764-7.9595 13.667-26.035 13.522 14.283-5.8438 25.38-11.783 26.035-13.522z"/>
     <path d="m399.36 326.3c-2.6584-6.2616-14.798-15.462-16.982-15.841 4.9458 13.638 14.248 19.146 16.982 15.841z"/>
    </g>
    <g style="fill:#67923d">
     <path d="m392.42 273.92c4.0745-4.6657 17.469-9.134 19.599-8.8646-8.0424 10.409-17.941 12.515-19.599 8.8646zm25.07 77.59c-1.8072 3.9185-12.696.91615-21.646-11.152 10.885 6.8299 20.244 11.511 21.646 11.152zm-24.39-53.05c-4.1951 2.7268-13.128-6.7377-14.685-23.884 6.6226 13.203 13.037 23.384 14.685 23.884zm8.42 34.34c-.76888 3.731-10.688 3.5903-20.864-4.7173 10.729 3.4063 19.739 5.3328 20.864 4.7173zm-9.45-24.95c-2.3335 3.2394-11.289-1.2692-16.807-13.657 8.1922 7.9668 15.492 13.744 16.807 13.657zm2.76-47.55c-4.4269 1.5557-10.16-9.0789-7.294-25.005 2.6667 13.488 5.9354 24.175 7.294 25.005zm4.47-14.86c-4.3039.22724-6.8712-10.815-.4678-24.322-.82219 12.797-.50691 23.234.4678 24.322zm5.04-7.67c-3.4732-.52504-3.7166-9.6555 3.5206-19.369-2.7393 9.9762-4.1512 18.366-3.5206 19.369zm5.98-6.08c-3.1365-1.6426-.70137-10.431 9.0376-17.337-5.5251 8.6441-9.3179 16.178-9.0376 17.337z"/>
     <path d="m394.25 274.9c-3.804 2.1063-9.5773-3.5031-9.9867-18.322 5.1018 11.684 8.6028 17.807 9.9867 18.322zm32.57 85.8c-.88599 4.6251-13.144 4.4011-25.678-5.895 13.168 4.2742 24.246 6.6944 25.678 5.895zm-8.17-9.48c-4.0227-4.343-7.1579-17.347-6.7467-19.242 9.0116 8.7431 10.215 18.165 6.7467 19.242zm-16.88-24.99c-3.5704-5.7862-3.8759-20.907-2.9193-22.956 8.263 11.809 7.2531 22.585 2.9193 22.956zm-2.63.09c-2.7356 3.3047-11.93-2.1585-16.872-15.833 8.1324 9.1108 15.474 15.812 16.872 15.833z"/>
    </g>
    <g style="fill:#406325">
     <path d="m392.37 274c1.6173 3.6231 11.45 1.5297 19.493-8.8798-11.97 6.7926-16.711 9.7409-19.493 8.8798zm9.34 52.07c4.3325-.37079 5.3311-11.037-2.9328-22.846 2.6634 11.854 3.7909 21.678 2.9328 22.846zm16.96 25.11c3.4697-1.0706 2.2496-10.451-6.713-19.178 4.4027 9.7272 7.2055 18.011 6.713 19.178z"/>
     <path d="m394.23 291.77c2.0582-8.3856-1.7025-22.601-4.3-25.559-4.7164 15.427-.24471 26.599 4.3 25.559z"/>
    </g>
    <path d="m393.93 293.77c-5.8954 1.3394-8.645-12.034-4.0797-27.078 1.0708 13.546 2.8334 26.147 4.0797 27.078z" style="fill:#67923d"/>
    <path d="m392.73 293.72c-.55781-7.5274 6.9344-23.087 8.915-24.707 2.0147 15.803-4.4625 26.308-8.915 24.707z" style="fill:#67923d"/>
    <path d="m392.84 293.61c4.4134 1.6359 10.851-8.7614 8.8348-24.564-3.5106 13.267-7.4452 23.764-8.8348 24.564z" style="fill:#406325"/>
    <path d="m394.13 303.26c.005-7.6093 8.4702-22.23 10.562-23.619.83443 16.162-6.3315 25.829-10.562 23.619z" style="fill:#67923d"/>
    <path d="m394.21 303.41c4.2309 2.2096 11.306-7.3639 10.471-23.525-4.4092 12.857-9.0481 22.899-10.471 23.525z" style="fill:#406325"/>
   </g>
   <g style="fill:#ba1f3e;stroke-width:.2185;stroke:#511124">
    <circle cx="396.84" cy="251.27" r="1.085" style="stroke-width:.1857"/>
    <circle cx="405.2" cy="245.07" r="1.085" style="stroke-width:.1857"/>
    <circle cx="401.56" cy="241.71" r="1.086" style="stroke-width:.1857"/>
    <circle cx="392.5" cy="313.12" r="1.277"/>
    <circle cx="395.03" cy="297.13" r="1.277"/>
    <circle cx="408.21" cy="334.46" r="1.277"/>
    <circle cx="402.39" cy="336.43" r="1.277"/>
    <circle cx="446.7" cy="367.63" r="1.277"/>
    <circle cx="449.61" cy="374.71" r="1.277"/>
   </g>
  </g>
  <g style="stroke:#24420e">
   <g style="fill:none;stroke-width:.437">
    <path d="m561.15 258.97c.62271.6214 1.174.80799 2.2946 1.8946m-6.6246-18.945c-.035-1.3682-.63254-3.605-.91833-4.9729m3.4483 2.9829c.0551 1.952-.21849 3.8094-1.0617 5.5041m-4.1583-.5341c1.7526 1.5758 3.5053 3.0766 5.2576 3.8918m3.8224 1.2282c.10488 1.9802-.14202 3.9602-.6828 5.9404m.3228 1.5096 1.314-2.2623m-1.864 12.222c1.3997.29126 2.8096 1.9457 3.5053 3.4822m.4747-1.2922 1.6387-2.185m1.7113 30.725c-.74769 1.304-1.5815 2.4353-2.4576 3.4826m-3.9624-.0726c.78942 1.456 1.5563 2.9458 2.5946 4.0288m2.4554 5.8712c-1.307 1.7726-2.7661 3.1651-4.4383 4.0286m.1383 4.5014c-1.0925.7514-2.4264 2.9527-3.6871 4.7116m8.4371-20.182-2.1244.86896m-1.3956-7.489 1.2555 1.1108m-9.2955 37.389c-.83945-.10793-1.456.009-2.1244.0725m-1.9956-1.9325.61462 1.6387m-7.7146 5.1213c-.26197 1.8662-.0725 3.7328.20408 5.5989m4.3059-9.0189 1.0243 2.2536m3.8257-.2036-2.5265.40968m-30.854 25.27-.91702 1.7377m11.897-3.9277c-1.4923.18681-2.7782-.0435-4.0968-.20408m-5.4632 5.9441c-1.0835-.42344-2.0335-.7136-2.9361-.95591m-14.744 2.6559c-.90588.77282-1.9892 2.4353-3.0727 4.0968m-.5473-4.5668c-2.4334 1.2528-3.1815 3.71-4.4383 5.8041m2.7983 2.8659c-1.5528-.46081-3.4118-1.2277-5.3258-2.0484m16.766-.6816c-2.3211-1.2052-4.7479-1.087-7.1352-1.4685m10.755-.3415c-3.6279-.70749-7.01-.60982-10.276-.137m7.776-2.603-1.399-.58032m-5.531 5.5003-2.3226-1.2957m57.943-49.194c-1.2555.81629-2.5105 2.2826-3.766 3.8626m1.826-79.623-2.153-.72431"/>
   </g>
   <g style="stroke-width:.1639">
    <path d="m474.39 384.85c.79664-1.2555 2.1076-2.0278 3.2774-2.6556 7.7258-4.0566 15.406-5.8439 24.117-7.244 2.0126-.33758 4.0264-2.2217 6.0866-3.187 4.9629-2.3654 10.489-3.2842 15.311-5.6975.32818-.14596 1.5452-.86939 2.1076-1.5448 1.9195-2.2221 5.385-2.899 7.5389-4.9747 8.3345-7.8713 17.184-15.116 21.772-25.546 5.5729-12.7 12.503-25.787 11.567-40.225-.60851-9.1267.75031-18.35-1.4978-27.043-3.3255-12.893-7.5883-25.643-15.408-36.314l1.3114.82045c7.8667 10.674 12.127 23.423 15.452 36.314 2.2477 8.6922.89015 17.916 1.4987 27.043.93668 14.439-5.9951 27.526-11.566 40.275-4.5884 10.383-13.486 17.626-21.774 25.546-2.1541 2.027-5.6195 2.7034-7.5389 4.9729-.56197.62774-1.8255 1.4014-2.1065 1.5452-4.8239 2.4146-10.349 3.332-15.313 5.6505-2.06 1.0136-4.0738 2.8481-6.087 3.1878-8.7094 1.3992-16.388 3.2348-24.113 7.2422-1.2174.6273-2.4823 1.401-3.2787 2.6565l-1.3579-.82154" style="fill:#406325"/>
    <g style="fill:#406325">
     <path d="m553.65 334.6c2.741-7.4159-.009-24.838-1.4893-26.951-6.6486 15.372-3.3412 27.502 1.4893 26.951z"/>
     <path d="m546.54 341.64c2.3045-5.6455.61287-19.321-.46977-20.998-5.52 11.696-3.265 21.218.46977 20.998zm16.81-74.15c-3.2932-6.1004-16.867-14.418-19.261-14.618 6.2129 13.368 16.552 18.195 19.261 14.618z"/>
     <path d="m561.76 259.47c-1.7906-6.0678-12.395-16.053-14.466-16.694 3.105 13.063 11.398 19.315 14.466 16.694zm4.74 14.96c-3.537-4.0507-15.164-7.9285-17.013-7.6952 6.9807 9.0363 15.572 10.864 17.013 7.6952zm-2.8 46.33c6.1323.96619 18.959-4.1151 20.345-5.6254-12.9-2.7965-21.559 1.8395-20.345 5.6254zm-.15-5.64c-.0435-5.6378-6.3949-16.856-7.9563-17.933-.5552 11.996 4.8038 19.453 7.9563 17.933z"/>
     <path d="m563.96 301.44c-.005-7.6093-8.4697-22.23-10.562-23.619-.83421 16.161 6.3318 25.828 10.562 23.619zm-52.89 75.27c4.4772 5.5034 19.653 11.133 22.088 10.904-8.8047-12.233-20.07-15.05-22.088-10.904z"/>
    </g>
    <g style="fill:#67923d">
     <path d="m553.56 334.43c-4.8235.55082-8.0898-11.437-1.3946-26.785-.49074 14.192.2386 25.629 1.3946 26.785zm-53.37 43.66c7.0926.36314 20.61 9.2946 21.865 11.396-15.086.11689-24.021-7.3146-21.865-11.396zm0-7.94c2.0984-7.9674 15.006-21.21 17.514-22.151-3.6025 17.134-13.74 25.535-17.514 22.151zm21.27-4.23c-.98454-7.8223 5.6651-24.24 7.585-25.979 2.9506 16.466-2.9967 27.574-7.585 25.979zm21.46-14.54c4.4741-5.4704 19.381-11.328 21.712-11.141-8.8849 12.081-19.88 15.097-21.712 11.141zm25.79-53.26c.9026-6.3318 9.7097-17.881 11.606-18.87-1.1936 13.521-8.3041 21.018-11.606 18.87z"/>
     <path d="m557.02 336.18c5.817-4.2901 22.105-6.228 24.399-5.5037-11.813 9.676-23.552 9.8548-24.399 5.5037zm10.27-24.52c3.0329-5.9791 15.566-14.169 17.754-14.399-5.7991 13.019-15.301 17.802-17.754 14.399zm-1.48-45.56c-.0983-7.6255 7.9838-22.728 9.9655-24.24 1.1659 16.139-5.7222 26.206-9.9649 24.24zm-6.93-25.92c-2.3224-5.2808-1.101-18.414-.0931-20.074 5.5504 10.963 3.6722 20.17.0931 20.074zm-4.23-2.18c-5.2745-4.6832-10.645-19.756-10.411-22.103 11.751 9.2631 14.386 20.361 10.411 22.103z"/>
     <path d="m566.28 272.54c-.31659.81521 2.9447-7.6949 14.219-15.308-4.0118 14.271-11.044 18.279-14.219 15.308zm-34.1 89.9c7.0056-5.1726 26.532-7.634 29.232-6.7237-14.253 11.748-28.225 11.97-29.232 6.7237zm14.33-20.84c-3.7345.22156-5.9566-9.2618-.47675-20.924-.71885 10.974-.41842 19.978.47675 20.924zm16.85-74.07c-2.7082 3.5763-12.897-1.2015-19.121-14.611 9.3275 8.5696 17.642 14.742 19.121 14.611zm-1.7-8.06c-3.0683 2.6202-11.285-3.5835-14.391-16.646 6.746 9.3701 13.036 16.446 14.391 16.646zm4.89 15.03c-1.4045 3.145-9.9393 1.328-16.92-7.7078 10.389 5.8959 14.505 8.4546 16.92 7.7078zm-2.69 46.21c-1.2491-3.764 7.3648-8.3166 20.241-5.5559-10.884 1.9485-19.567 4.4765-20.241 5.5559zm-.4-5.6c-3.1365 1.4672-8.4452-5.8845-7.8885-17.881 3.3598 9.74 6.8284 17.376 7.8885 17.881z"/>
     <path d="m563.88 301.59c-4.2307 2.2092-11.305-7.3641-10.471-23.525 4.4092 12.857 9.0479 22.898 10.471 23.525zm-52.69 75.07c2.0178-4.1459 13.15-1.3776 21.976 10.888-10.995-6.7493-20.482-11.305-21.976-10.888z"/>
    </g>
    <g style="fill:#406325">
     <path d="m521.55 365.83c4.5423 1.593 10.443-9.4167 7.5402-25.883-2.8103 13.955-6.1816 25.064-7.5402 25.883z"/>
     <path d="m531.83 360.59c4.3386-6.6505 5.5498-24.554 4.579-26.967-9.9432 13.594-9.4086 26.324-4.579 26.967zm-31.69 17.54c-2.1163 4.081 6.7004 11.436 21.787 11.315-11.951-4.8897-21.238-9.8604-21.787-11.315zm.16-8.05c3.7852 3.3384 13.808-4.948 17.409-22.083-8.1269 12.423-15.723 21.799-17.409 22.083zm42.71-18.65c1.8072 3.9185 12.696.91615 21.646-11.152-10.885 6.8301-20.244 11.512-21.646 11.152zm25.75-53.33c3.3025 2.1469 10.335-5.3035 11.561-18.803-5.2139 10.395-10.263 18.409-11.561 18.803zm-11.69 38.11c.89539 4.3476 12.454 4.1833 24.312-5.496-12.502 3.9692-23.001 6.214-24.312 5.496zm10.36-24.64c2.4526 3.405 11.865-1.3337 17.664-14.352-8.6094 8.3729-16.281 14.445-17.664 14.352zm-1.51-45.56c4.2377 2.0156 11.064-7.9523 9.8985-24.093-4.0786 13.13-8.4597 23.412-9.8985 24.093zm-6.96-25.87c3.5416.0933 5.4145-9.0334-.13393-19.995.94936 10.498.91309 19.08.13393 19.995zm-4.23-2.24c3.9722-1.7421 1.3306-12.711-10.422-21.972 6.4718 11.02 10.853 20.573 10.422 21.972zm11.61 34.67c3.175 2.9709 10.143-1.0606 14.155-15.33-7.7985 10.084-12.688 15.169-14.155 15.33zm-34.09 89.91c1.0051 5.2474 14.913 4.9935 29.132-6.6879-14.94 4.849-27.508 7.5951-29.132 6.6879z"/>
     <path d="m539.14 354.75c3.272-4.9336 4.2744-18.274 3.5639-20.077-7.4878 10.079-7.1605 19.572-3.5639 20.077zm19.6-28.61c3.5702-5.7857 3.8761-20.908 2.9191-22.957-8.2635 11.81-7.254 22.586-2.9191 22.957z"/>
    </g>
    <g style="fill:#67923d">
     <path d="m531.79 360.54c-4.8298-.638-5.3313-13.312 4.5517-26.873-3.6261 13.856-5.4632 25.442-4.5517 26.873zm35.16-68.33c-.94346-7.7646 3.976-20.143 6.6318-22.522 2.5732 14.385-2.6602 23.949-6.6318 22.522zm-27.84 62.49c-3.5966-.49883-3.9012-9.9535 3.5407-20.007-2.7803 10.308-4.2141 18.935-3.5407 20.007zm23.36-104.24c-2.167-5.8812.0291-20.041 1.2358-21.774 5.2887 12.257 2.6381 22.116-1.2358 21.774zm-58.08 120.15c2.4738-8.0911 16.191-21.081 18.807-21.915-4.3352 17.421-15.065 25.529-18.807 21.915zm54.53-41.59c2.6582-6.2616 14.798-15.462 16.981-15.841-4.9452 13.638-14.248 19.146-16.981 15.841zm-.12-3.03c-4.3328-.37078-5.3313-11.037 2.9326-22.846-2.6637 11.854-3.7907 21.678-2.9326 22.846z"/>
    </g>
    <path d="m567 294.04c5.158 1.8423 9.0778-9.8897 6.5983-23.914-2.4286 12.067-5.3769 23.211-6.5983 23.914z" style="fill:#406325"/>
    <path d="m567.77 293.64c.55738-7.5274-6.9346-23.086-8.9152-24.707-2.0147 15.803 4.463 26.309 8.9152 24.707zm-5.22-43.22c3.8344.33692 6.4733-9.4346 1.1869-21.69.33015 11.446-.28251 20.75-1.1869 21.69zm-58.05 120.11c3.7874 3.6209 14.369-4.4169 18.704-21.838-8.839 12.353-16.968 21.612-18.704 21.838zm54.64-41.49c2.7351 3.3047 11.93-2.1581 16.872-15.833-8.133 9.111-15.474 15.812-16.872 15.833z" style="fill:#406325"/>
    <path d="m567.66 293.53c-4.4134 1.6359-10.851-8.761-8.8346-24.563 3.5099 13.267 7.445 23.763 8.8346 24.563z" style="fill:#67923d"/>
   </g>
   <g style="fill:#ba1f3e;stroke-width:.2185;stroke:#511124">
    <circle cx="564.62" cy="254.9" r="1.085"/>
    <circle cx="568.42" cy="266.82" r="1.085"/>
    <circle cx="569.76" cy="304.3" r="1.277"/>
    <circle cx="564.65" cy="297.29" r="1.277"/>
    <circle cx="549.91" cy="337.17" r="1.277"/>
    <circle cx="556.2" cy="339.9" r="1.277"/>
    <circle cx="513.8" cy="372.26" r="1.277"/>
    <circle cx="506.8" cy="377.29" r="1.277"/>
    <circle cx="557.05" cy="249.25" r="1.084"/>
   </g>
  </g>
  <g id="b" style="fill:#8c959d;stroke-width:.1092;stroke:#485654">
   <path d="m434.25 336.27c-.13416 1.066.84186 2.339 2.1284 2.0698.38608-.0784.62359-.58076.1311-.48987-.42497.10794-.87857-.0699-1.2017-.37384-.59693-.56372-.65527-1.3516-.39613-1.9186-.23073.24755-.44966.48352-.66051.71141l-.001.001z"/>
   <path d="m437.24 338.34c-1.0156 1.165-2.568 1.6758-3.4266.83421-.57311-.56503-.77784-1.2056-.46845-1.9118-.44289.48134-.82241.89692-1.1211 1.2308.0468.0896.71492 1.3088 1.708 1.7582 1.2231.5506 2.9724-.27946 4.0179-1.5644.73873-.90894 1.5612-2.4277.96706-3.6087-.36467-.7289-1.2384-1.4246-1.9673-1.6997-.35047.37515-.69482.74769-1.0261 1.101.50888-.23947 1.1475-.13437 1.6949.31289 1.2732 1.0348.5364 2.4987-.378 3.546l-.00022.002z" style="stroke:none"/>
   <path d="m437.24 338.34c-.32446.38324-.71469.71775-1.162.95591-.4442.2351-.95679.39045-1.4726.31835-.25521-.0358-.50669-.13394-.71186-.2965-.20386-.16562-.37035-.35942-.50953-.57945-.13656-.2198-.23007-.47369-.24734-.73742-.019-.26328.0387-.52875.14115-.76779l.12236.0798-1.1097 1.2389.0129-.099c.27574.47916.62314.93756 1.0418 1.2998.21041.17917.44158.33539.69394.43656.2493.10072.52351.14093.79663.1335.54886-.0157 1.0879-.20604 1.5729-.47632.48681-.27137.92576-.62905 1.2981-1.0424.37144-.41645.68979-.88687.93516-1.3883.23968-.50014.41011-1.0486.37384-1.5948-.0188-.2718-.09-.53465-.22418-.77456-.13087-.23685-.30567-.45753-.49991-.65505-.39154-.39307-.85912-.72584-1.3711-.93319l.0929-.0218-1.0359 1.0925-.0843-.11602c.23576-.10707.4997-.14509.75359-.11734.25433.0291.49795.11646.7147.24494.42781.25695.79838.64914.92554 1.1445.12913.49424.002 1.0079-.20823 1.448-.21237.44594-.51062.84207-.8377 1.2052l-.001.002zm.00022-.002c.3142-.37516.59496-.7809.79336-1.2251.1962-.44005.30196-.94237.16714-1.404-.13175-.45993-.49314-.82613-.90019-1.0625-.40793-.23816-.92445-.30545-1.3455-.10072l-.0843-.11646 1.0171-1.1091.0389-.0417.0542.021c.54929.2091 1.033.5493 1.4456.95985.20495.20735.38958.43524.53597.69678.14639.25695.23095.55651.25148.85169.042.5978-.13852 1.177-.38433 1.6988-.2528.52351-.57748 1.007-.96116 1.4429-.38979.43196-.84907.79925-1.3588 1.0804-.50888.27858-1.0759.47829-1.6704.49293-.29584.006-.59627-.0389-.87572-.15273-.27683-.11362-.52308-.28251-.74354-.47326-.44027-.38783-.79292-.85104-1.0735-1.363l-.0293-.0537.0415-.0457 1.1322-1.2218.12258.0797c-.099.22068-.15448.45993-.14115.69984.012.23947.0924.4737.21675.68192.12476.20692.28841.40247.47282.55695.18659.15447.41623.25258.65723.29365.48681.0824.99197-.0524 1.4357-.27312.44638-.22461.84645-.54077 1.1851-.91177z" style="fill:#485654;stroke:none"/>
   <path d="m515.24 249.25-40.137 39.515c-3.0526 3.0316-37.963 36.379-41.105 39.384-1.1025 1.323-4.2327 4.8584-4.5611 5.3531-2.129 2.3104-4.4389 5.3297-7.1968 8.0297-.49118.61878-1.1421.39394-1.7344.73742-1.8133 1.0503-3.6965 2.8695-5.0527 4.3699l-12.208 13.506c-.78636.85344-.99568 1.38-.4643 1.871l6.6232 8.849c1.2288 1.2142 2.6444 1.838 3.1955.81936 3.1463-5.4466 10.962-13.759 13.915-20.334 1.7641-3.929 3.9779-11.058 5.5581-12.782 1.9383-2.1572 7.1697-7.7301 11.806-12.705.31332-.33539.62314-.66881.92882-.99721.32119-.34434.63691-.68454.94761-1.019 23.506-23.951 50.715-53.046 70.526-73.558-.77784-.775-.28622-.31158-1.0416-1.04z" style="fill:#6c301e;stroke-linejoin:round;stroke-width:.2185;stroke:#351710"/>
   <path d="m431.89 328.11c-1.2251.043-2.0215-.70705-2.8481-1.4001 1.1687.34609 2.3449.79707 3.452.33845l-.60392 1.0617z"/>
   <path d="m557.05 220.1-31.804 26.219c-.30589.37407-.62358.26657-.9286 0l-2.895-2.4172c.004-.0363.0138-.0723.0138-.10925 0-.16256-.0317-.31878-.0819-.4643l1.4202-1.4475c.17633-.22068.11952-.3096-.12301-.54623-.1831-.19053-.34391-.36489-.58753-.60086-.22789-.17567-.41558-.0354-.64194.17763l-1.434 1.4748c-.73392.0297-1.3311.63014-1.352 1.3656-19.238 18.731-35.794 35.435-54.938 53.872l-22.573 21.549c-.80581 1.0429-4.2901 2.9075-6.5959 4.411-.81673.53269-1.5233 1.0164-1.8163 1.5432l-1.8437 5.4351c-.58207 1.1941-2.4308 4.0028-2.5127 4.1927 2.3683 2.3864 2.2479 2.2127 3.8647 3.7282 1.8179-2.0233 6.6894-7.1118 11.116-11.853.3568-.38236.37887-.42169.83312-.96968-.34653-.48855-.92751-1.2048-1.3929-1.6527-.39613-.37843-.82547-.76735-1.2013-1.0925-.24493-.21216-.46758-.39133-.62817-.54624-.163-.15622.24034-.44376.42344-.64194 26.464-25.579 54.962-53.695 78.276-76.595.12454.0367.25957.0546.39613.0546.22702 0 .44005-.0553.62817-.15032l2.7858 3.2092c.65417.6522 1.2081.63953 1.7346.39613l31.859-28.542z" style="fill:#b2b6ba;stroke-width:.2185"/>
   <path d="m430.95 330.39c.20145.0286.40509.0478.60633.0312.20079-.0166.397-.0699.57354-.16256l-.0164.0197c.22832-.79641.47151-1.5876.71404-2.3792.24733-.78986.49795-1.5791.75948-2.365l.006.0269c-.19489-.22308-.43589-.42126-.73108-.4962.29956.0573.55913.24406.77063.45971l.0111.0112-.005.0153c-.22789.79663-.4667 1.5887-.70857 2.3807-.24712.79029-.49293 1.5802-.75447 2.3663l-.005.0138-.012.006c-.18725.0922-.39548.13831-.60086.14093-.20626.003-.40946-.0284-.60873-.0686z" style="fill:#485654;stroke:none"/>
   <circle cx="438.18" cy="328.14" r=".619" style="fill:none;stroke-width:.1639"/>
   <circle cx="434.44" cy="331.88" r=".619" style="fill:none;stroke-width:.1639"/>
   <path d="m440.97 322.38c-.319-.24078-.61528-.50538-.90631-.77544-.28842-.27268-.57137-.55126-.83181-.85387.319.24034.61484.50494.90588.775.28863.27312.57136.55148.83224.85431z" style="fill:#485654;stroke:none"/>
   <path d="m502.17 259.06 3.487 3.4098.64521-.58578-3.487-3.4094-.64522.58534z"/>
  </g>
  <use transform="matrix(-.99877 -.049571 -.049571 .99877 973.59 23.686)" width="960" height="600" xlink:href="#b"/>
  <g style="stroke-width:.1639;stroke:#24420e">
   <path d="m433.91 365.36c-7.8658-3.3213-26.89-.67034-29.219.9321 16.285 8.0113 29.54 4.5738 29.219-.9321zm89.02 3.32c7.8658-3.3209 26.89-.6699 29.219.93254-16.285 7.9823-29.54 4.5733-29.219-.93254z" style="fill:#67923d"/>
   <path d="m433.76 365.48c.32054 5.5058-12.789 8.8853-29.075.90304 15.295.93209 27.793.37843 29.075-.90304zm89.32 3.29c-.32053 5.5058 12.789 8.8853 29.075.90304-15.295.93253-27.793.40793-29.075-.90304z" style="fill:#406325"/>
  </g>
  <g id="c">
   <path d="m508.49 359.99c-20.733-30.119-51.995-54.611-76.102-67.991 3.5569-.16649 11.46 3.8809 14.67 5.9485 23.94 15.427 44.3 35.803 65.664 59.822-1.2579 1.2456-2.0818 1.9802-3.4461 3.0517l-.7857-.83006z" style="fill:#b2b6ba;stroke-width:.2185;stroke:#485654"/>
   <path d="m510.55 359.75-1.4506 1.3938c-23.01-29.619-55.093-57.945-76.668-69.13 30.08 13.855 55.391 41.77 78.033 67.65l.085.0856z" style="fill:#8c959d"/>
   <path d="m510.56 359.75-1.4475 1.3968-.004.003-.003-.004c-5.3258-6.8234-10.975-13.389-16.864-19.73-5.8849-6.3453-12.012-12.466-18.368-18.337-6.3591-5.8677-12.943-11.495-19.81-16.76-3.4345-2.6296-6.9411-5.1665-10.542-7.5628-3.601-2.3932-7.2966-4.6522-11.133-6.6442l.0957-.19577c7.8922 3.6436 15.339 8.1949 22.375 13.281 7.0388 5.0907 13.677 10.715 20.029 16.631 6.3521 5.9199 12.422 12.135 18.328 18.497 5.902 6.3667 11.629 12.892 17.343 19.425zc-5.7401-6.5109-11.494-13.012-17.42-19.353-5.9164-6.3497-11.991-12.556-18.349-18.463-6.3573-5.9039-12.999-11.515-20.037-16.591-7.0358-5.0702-14.478-9.6039-22.36-13.229l.0957-.19555c3.8448 1.9999 7.5413 4.2696 11.144 6.6702 3.6014 2.4041 7.1078 4.948 10.542 7.585 6.8644 5.278 13.444 10.918 19.798 16.798 6.3512 5.8832 12.472 12.013 18.35 18.369 5.8675 6.3641 11.489 12.957 16.789 19.8l-.006-.00044 1.4536-1.3901z" style="fill:#485654"/>
   <g style="fill:#fab81c;stroke-width:.1092;stroke:#6c301e">
    <path d="m517.5 355.07c-1.9737.51128-3.7256 1.2533-5.2585 2.2256-.22701 1.3973-1.9525 2.9578-3.5864 3.3115-.29737-.37799-.36707-.48855-.5919-.77106-.0376-.0496-.10204-.073-.1689-.038-.14202.0756-.33211.18047-.57355.33932-.60938-.10204-1.3365.19796-1.6597.97602-.37843.96924.38542 2.2481 1.2244 3.084.92402.72933 1.3866 1.0691 2.4572.91964 1.0835-.22396 1.6813-1.2129 1.9258-1.5277 3.7196 4.503 6.517 6.9326 11.229 10.64 2.0984.017 3.225-1.3059 2.5203-2.8028-.23248-.50188-.84121-.83509-1.3324-.65155.0406-.15142.0238-.30546 0-.45098 2.4624-2.2643 3.5134-5.0881.91461-9.8733-2.2238-4.0293-4.712-5.397-7.0875-5.3804l-.0129-.00066zm6.2459 4.5307c.4383.74091.69176 1.3796 1.0245 2.053 1.4829 2.9993.19556 6.6027-2.334 7.7065-.12301-.005-.085-.0214-.21303.0218.41274-.68739-.82744-2.1537-1.4613-1.6387.29955-.75883-.66925-2.0189-1.4615-1.6938.4147-.70574-.53291-1.9059-1.4202-1.5159.4584-.76648-.32381-1.8653-1.2424-1.666.27662-.81717-.4182-1.753-1.3523-1.5978.0789-.723-.1571-1.1202-.50691-1.4493 1.1126-.84666 2.3475-2.1509 3.4378-2.738 2.7218-1.1788 4.4031 1.0724 5.5272 2.5173h.001v.00044h.00065z" style="stroke-width:.2185"/>
    <path d="m524.89 362.77c-.51543-.25345-.75577-.76036-.58687-1.1049.16846-.34217.70158-.43241 1.217-.17764.51587.25345.80144.74376.63276 1.0879-.17195.34304-.74725.44989-1.2636.19556l.00065-.00088z"/>
    <path d="m524.59 361.75c-.51543-.25345-.75577-.76014-.58688-1.1045.16846-.3426.70159-.43262 1.2175-.17785.51542.25345.80143.74419.63254 1.0881-.17196.34304-.74725.44945-1.2636.19512l.00044-.00088z"/>
    <path d="m523.97 360.62c-.51543-.25346-.75621-.76037-.58732-1.1049.16846-.34216.70159-.43262 1.2174-.17764.51587.25346.80188.74376.63255 1.0879-.17196.34303-.74726.44988-1.2636.19555l.00088-.00087z"/>
    <path d="m523.19 359.6c-.51586-.25346-.75577-.76037-.58731-1.1049.1689-.34216.70159-.4324 1.2174-.17764.51587.25302.80144.74376.63254 1.0879-.17151.3426-.74725.44944-1.2631.19555l.00043-.00087z"/>
    <path d="m522.16 358.61c-.51543-.25346-.75577-.76015-.58688-1.1049.0229-.0465.007-.13656.0551-.11384.20998.10794.64391.18682.59628-.13699-.0645-.11362-.14596-.22702-.0695-.14203.14858.004.4643.1335.63626.22156.51543.25345.80144.74375.63254 1.0879-.17195.34304-.74725.44988-1.2636.19556v-.007z"/>
   </g>
   <g style="fill:#fab81c">
    <path d="M511.27 363.6c.68192-1.7735 2.0468-3.414 3.5077-3.8057M511.5 363.85c1.2629.26241 3.3089-1.243 3.806-2.5878M512.69 365.3c1.6558.38149 3.2912-1.2175 3.9338-2.4085M514.18 366.88c1.9566.064 3.1636-1.3263 3.7387-2.3901M515.69 368.41c1.661.0111 3.1717-1.3597 3.6458-2.424M517.15 369.81c1.808-.073 3.084-.89539 3.6196-2.0748M518.79 371.23c1.661.0959 3.0026-.89583 3.443-1.8622M520.57 372.68c1.6614.0959 2.6954-.92991 3.1363-1.8965"/>
   </g>
   <g style="fill:#6c301e">
    <path d="m511.27 363.6c.13961-.42344.32555-.83312.54405-1.224.21893-.39089.47763-.76014.76451-1.1054.29453-.33845.6179-.65505.98585-.91506.36663-.25913.77587-.46649 1.2133-.56197-.42366.13962-.81302.36183-1.1633.62992-.35046.26875-.66925.57858-.95198.9179-.57748.67274-1.0284 1.4456-1.3925 2.2586zm.23.25c.4053.0572.80864-.0448 1.1796-.1925.37209-.15185.72387-.35374 1.0481-.59277.32861-.23292.63035-.50451.90172-.80188.2705-.29824.51172-.62817.67646-1.0007-.12301.39001-.35112.74179-.61287 1.0562-.26373.31441-.5718.58972-.90129.83421-.33539.23598-.69438.44376-1.0826.58251-.38411.1359-.80952.21784-1.2091.11493zm1.19 1.45c.40465.0712.81848.035 1.2035-.0863.38586-.12039.74769-.31114 1.0763-.54798.33321-.23052.63408-.50604.91156-.80406.27749-.29803.52701-.62228.74245-.97078-.17589.37123-.4123.71361-.67974 1.0267-.26853.3142-.57573.59496-.91156.83727-.34063.23423-.71316.43262-1.1154.53903-.40181.10859-.83247.12214-1.2271.006zm1.49 1.58c.39089-.0125.77806-.0653 1.1458-.18266.36751-.1169.71776-.28645 1.0333-.50691.32097-.21413.60632-.47763.86546-.76473.25979-.2871.48768-.60436.69481-.93582-.3332.70705-.84841 1.3378-1.4982 1.7906-.32861.21937-.68956.39482-1.0711.49664-.38214.10422-.78068.1359-1.17.10291zm1.51 1.53c.76691-.0417 1.4932-.33233 2.1128-.76517.3142-.21216.60086-.46299.86109-.73873.26023-.27618.49205-.58076.67121-.92008-.1383.35899-.35723.68454-.60894.97645-.25214.29279-.5458.54886-.86153.77238-.3214.21456-.66706.39766-1.0352.51762-.36795.12039-.75621.18244-1.1394.15753zm1.46 1.4c.36489-.0384.72628-.0935 1.078-.18681.35069-.0935.69482-.21631 1.0127-.38827.32228-.1643.6179-.37777.87835-.62904.25979-.25127.47828-.54668.65111-.87005-.13197.34304-.33757.65898-.59147.92991-.25476.27006-.56065.48987-.88774.66619-.6616.33933-1.4084.49293-2.141.47807zm1.64 1.42c.34522-.004.68739-.0398 1.0195-.12039.33124-.0815.65373-.19752.95285-.35965.30306-.15447.58251-.3533.83378-.58294s.47064-.49598.63625-.79969c-.1241.32381-.33233.61331-.57791.86065-.24625.24843-.53466.45228-.8423.61878-.31157.15841-.64259.27901-.98585.34434-.34216.0653-.69328.0802-1.0363.0389zm1.78 1.45c.326-.005.65002-.0363.96051-.11952.31026-.0815.60981-.2032.88031-.37471.27487-.16344.5198-.37516.73698-.61157.21762-.23685.4016-.50538.55826-.79073-.23008.612-.67646 1.1445-1.2384 1.4954-.28426.16934-.59452.29694-.91833.36314-.3225.0677-.65527.0771-.9793.038z"/>
   </g>
  </g>
  <use transform="matrix(-.99823 -.059442 -.059442 .99823 979.09 28.305)" width="960" height="600" xlink:href="#c"/>
  <g style="stroke-width:.1639;stroke:#24420e">
   <path d="m409.24 240.02c7.2105-2.3667 18.73-15.453 19.478-17.917-15.593 4.154-22.757 14.343-19.478 17.917zm145.74 4.7c-1.7023-7.0449-13.279-19.011-15.568-19.911 2.7633 15.161 11.916 22.759 15.568 19.911z" style="fill:#406325"/>
   <path d="m409.24 240.02c-3.3248-3.5739 3.7915-13.666 19.339-17.82-10.957 8.4033-19.199 16.178-19.339 17.82zm145.74 4.7c-3.6558 2.8916-12.72-4.6537-15.486-19.77 7.1631 11.072 13.934 19.511 15.486 19.77z" style="fill:#67923d"/>
  </g>
  <g style="stroke-width:.1639;stroke:#999270">
   <path d="m452.21 318.1s-6.1583.66182-7.8844-7.8335c-1.8458-9.0861 5.3064-10.052 5.3064-10.052s8.1033-.78046 13.15-.90894l2.24 17.953-12.812.84165z" style="fill:url(#d)"/>
   <path d="m453.02 315.36s-3.9845.76167-4.8069-5.5533c-.58272-4.4732 2.185-5.1073 2.185-5.1073l9.236 1.5636.0503 8.2414-6.6643.85562z" style="fill:url(#e)"/>
   <path d="m450.4 304.7s5.9055-.43022 8.9889-.82963l1.2806 5.7108-7.1011.44464c-.00022 0-.48746-5.1552-3.1684-5.3258z" style="fill:url(#f)"/>
   <path d="m449.16 300.36s7.5754-1.8574 8.5165 6.4886c.24581 2.1814-.94106 7.1673-4.6555 8.5145l13.874-1.4565-1.2563-15.007-4.6738.39045s-9.9225.34107-11.805 1.0702z" style="fill:url(#g)"/>
   <path d="m452.2 318.1c.0472 0 51.903-3.4913 57.217-3.2739 15.743-8.6382-.076-42.559-13.342-61.532 1.5146-4.2757-29.858-13.892-44.047-13.024-1.782.10903-3.5051.22724-5.1541.35397-7.6956.81629-7.7754 10.694-4.6367 16.923 3.0449 6.0429 30.315 55.126 11.14 60.317l-1.1766.23576z" style="fill:#f9f0aa"/>
   <path d="m507.79 273.34c-3.5202-7.304-7.7338-14.349-11.718-20.046 1.5142-4.2757-29.859-13.892-44.047-13.024-1.782.10903-3.5051.22724-5.1541.35397-7.6956.81629-7.7754 10.694-4.6367 16.923.95591 1.8976 4.3011 8.0393 7.8464 15.733" style="fill:url(#h)"/>
   <path d="m455.04 284.95c5.5546 14.65 8.6644 30.117-1.6413 32.907l-1.1766.23598c.0472 0 51.903-3.4913 57.216-3.2735 8.5377-4.6843 7.7926-16.804 3.2073-29.943" style="fill:url(#i)"/>
   <path d="m447.4 243.49c-3.705 0-4.6563 3.5621-4.6052 5.8172.13371 5.9085 4.6052 6.1921 4.6052 6.1921l5.9645-.33233 2.8577-12.163-8.8222.48615z" style="fill:url(#j)"/>
   <path d="m447.4 243.53 8.8222-.48615.90762 9.0857-7.696.33757c0 .00022 2.4913-7.2746-2.0338-8.9371z" style="fill:url(#k)"/>
   <path d="m496.12 253.29c6.6855-1.0741 6.5946-10.069 2.0257-13.673-15.498-.56939-35.895-.14311-50.63.95941 1.6761-.0483 6.3372.37625 6.8557 6.5111.24187 2.8625-1.1654 5.4912-3.0609 6.9859-1.8533 1.4615-3.906 1.4615-3.906 1.4615.24799.0955 2.1622.007 3.5984-.0867.73895-.0485 2.5518-.26438 3.0554-.33058 21.012-2.7616 41.987-1.8229 41.987-1.8229l.0797.003c-.002-.003-.003-.005-.005-.008z" style="fill:url(#l)"/>
   <g style="fill:#b07e09;stroke:none">
    <path d="m458.47 267.42c-.14307-.33143-.32344-.74904-.72915-.80525-.24955.0146-.64602-.0516-.56795-.39173.23471-.11275.53358-.0411.79388-.0653.5617.01 1.1134-.1139 1.6713-.14811.33714.0924.26114.53754-.1051.46371-.40765.0923-.17515.56277-.075.80926.44356 1.0343.87222 2.0753 1.3282 3.1041.12646.30356.38018.57176.72219.60554.36132.0353.75556.0449 1.0901-.1161.31087-.19947.24167-.62374.20014-.93675-.1251-.36343.53948-.28153.4942.0441.12951.42948.27963.85338.4476 1.2683-.0221.20027-.27563.14416-.42122.1692-.99242.0761-1.9867.13132-2.9778.22273-.31888-.0172-.79628.28094-.9909-.0956-.11854-.38638.51127-.1693.59555-.46271-.003-.32725-.19548-.6154-.30674-.91676-.38977-.91578-.7797-1.8351-1.1694-2.7487zm4.83-.34c-.1404-.31992-.302-.71957-.68686-.79561-.24688-.0227-.65282-.0174-.61569-.37437.15627-.16169.45617-.0582.67049-.0921.59111.0192 1.1738-.0896 1.7598-.1438.2904-.0276.3982.51827.0255.44396-.35822.0116-.3836.40448-.23349.65107.47033 1.1419.95892 2.2765 1.4375 3.415.10488.24466.24008.54794.54004.58586.2521.0492.64789-.0288.70423.31605-.0398.26696-.43337.11891-.62879.16072-.52229-.0363-1.0425.0314-1.5563.11861-.22635.0642-.5502.0273-.55928-.26976.0528-.27221.58365-.0683.60981-.40128-.0398-.3261-.21556-.61575-.3303-.92008-.37873-.89791-.75873-1.7974-1.1367-2.6943zm4.46.71c.0905.22743.40406.0636.58583.0752.26329-.0255.54341-.21507.51879-.50891-.0427-.4512-.26334-.90844-.63162-1.1828-.34103-.23966-.7793-.21343-1.172-.1626-.0226.15488.0979.30397.14476.45347.18473.44188.36966.8837.55426 1.3256zm.6684 1.5962c.16337.34893.27899.74478.56455 1.0172.24365.17131.5689.093.84351.0652.30167-.0202.47917-.33066.3856-.60827-.14179-.6355-.55438-1.3008-1.2378-1.4371-.30016-.0516-.61793-.0654-.91565-.001-.0232.14403.0918.28859.13557.42942.0747.17817.1496.35716.22424.53482zm-2.0348-2.3717c-.15771-.34702-.30945-.76722-.68808-.92519-.24435-.0813-.64253.0301-.69582-.32286.065-.30322.56261-.0904.80178-.15976.86327-.0225 1.7427-.26404 2.5932-.004.73402.18212 1.3916.80958 1.4496 1.5869.0243.3773-.26107.6843-.58138.83788-.0394-.13577.3671.0609.50625.082.58325.18645 1.1192.57568 1.3783 1.1433.20099.39775.35617.931.0394 1.3146-.36178.39514-.93916.41299-1.4376.43714-.75022.0198-1.5053.0256-2.2443.17278-.26712.0465-.45804-.48213-.0897-.44892.37045-.0136.40329-.41383.2441-.66837-.42527-1.0153-.85054-2.0307-1.2758-3.0459zm7.4164-1.9045c.32718-.0544.35831.3161.45793.53166.0983.28394.27637.54219.34849.83144-.27729.27636-.5018-.14465-.62456-.3594-.1439-.24731-.3827-.47568-.69009-.45095-.40636-.002-.81669.0145-1.2186.0722-.14455.15755.0652.39285.11247.57653.1894.44547.36011.9006.56164 1.3398.27062-.0225.61991.0146.81331-.20808.0751-.22898-.26998-.74689.20987-.64006.29748.1698.26318.6021.41591.88216.12636.38776.38401.72392.49191 1.1148-.26291.28875-.52448-.12967-.61934-.3631-.18831-.34686-.62469-.30588-.95946-.2961-.24094-.0507-.0753.17151-.041.28277.21575.49335.38321 1.0111.65934 1.4753.20678.34329.65054.29169.99357.28011.3281-.0177.73213-.0248.92609-.33842.21559-.25167-.27414-.75134.13115-.83062.34698-.0306.33749.37589.42927.60648.0734.28174.18493.55171.28456.82364-.0264.19879-.27783.14023-.42383.16319-1.0195.065-2.0406.10828-3.0588.19006-.30025.001-.80525.23909-.90167-.19822.0262-.2876.64599-.13478.55396-.54392-.0732-.34705-.24884-.66262-.37267-.99381-.37616-.89638-.73147-1.8019-1.1229-2.6916-.14057-.2963-.36799-.61968-.73047-.62841-.23799.0464-.60085-.12899-.46164-.40696.34613-.067.71114-.0198 1.0641-.0569.92382-.0545 1.8476-.10915 2.7714-.16357zm2.31 1.32c-.15374-.34845-.30185-.76874-.67875-.92975-.25693-.0765-.72611.0133-.69679-.39387.24605-.18988.65923-.0315.96836-.0898.80068-.0109 1.6199-.23795 2.4073.00027.82463.22961 1.5151.97195 1.5727 1.8413.0267.41568-.30657.75244-.6847.86344-.29656.0153.22879.10055.30962.19647.63275.30389 1.0688.87693 1.406 1.4737.0757.22539.51881.69649.58657.24657-.0269-.49.6373-.075.48723.26344.002.35658-.35128.58745-.68118.58286-.46451.0366-.90432-.23136-1.138-.62365-.42141-.55349-.70862-1.2243-1.2649-1.6634-.23114-.16553-.55903-.26894-.82981-.15171-.0582.1395.0681.28041.10427.41651.17986.40844.30537.84509.547 1.2225.2006.30876.59311.35831.9303.35601.3598.0889.25929.57544-.12356.43251-.58509-.001-1.1749-.0442-1.7528.0764-.26879.12586-.86512.0102-.64932-.37044.283-.0161.6752-.17232.47996-.52437-.33128-.87221-.69856-1.7309-1.0447-2.5975-.0849-.20914-.17-.41822-.25479-.62739zm1.404.89347c.13446.32598.59518.14488.86133.11358.35755-.0786.34757-.50799.23351-.77734-.16266-.46877-.37331-1.0295-.89017-1.1951-.26165-.035-.84451-.20185-.88465.15199.18883.53496.42263 1.0546.62982 1.5834.0167.0411.0334.0825.0502.12348zm7.216 1.7165c.10917.25915.21273.60969.53838.65626.25495.0587.66431-.0241.71644.32963-.0491.26525-.43911.10496-.63631.14317-.53793-.0503-1.0754.0123-1.608.0839-.23088.0709-.5509-.0297-.51807-.31944.12458-.20956.64721-.0374.61945-.40227-.0857-.39995-.27577-.76838-.41598-1.1514-.38316-.96139-.76234-1.9244-1.148-2.8848-.0945-.30484-.44335-.29727-.7022-.2799-.27334.002-.68302.0613-.68325.41585-.0873.2297.21725.61574-.0444.7351-.3013.0636-.36166-.27486-.42591-.48749-.0983-.32057-.26015-.61799-.38487-.92568.0357-.21414.3206-.17639.49259-.19361 1.3772-.0572 2.7542-.12015 4.1314-.17371.30284-.047.50224.19156.51743.47691.10822.33686.26985.65337.41381.97461-.11306.33043-.50781.0472-.55333-.19565-.19914-.34881-.50948-.69255-.9391-.71063-.25705.0125-.64239-.0856-.8153.14506.007.23983.14513.45279.21975.67783.4084 1.0285.81753 2.0591 1.2255 3.0862zm3.73-.91c-.1915.001-.0974.242-.11817.36667.0118.28256-.017.56914.0297.84837.13231.3102.52709.2343.78488.31822.22981.13123.17292.50149-.13592.38771-.42261-.0259-.85122-.0688-1.2678.0331-.24848.1327-.71306-.12286-.49305-.39157.2016-.0347.44875-.10136.49484-.33467.0718-.41378.0335-.83739.0472-1.2559.007-1.238.015-2.476.0225-3.714.11955-.27851.51386-.0443.60235.16635 1.1921 1.516 2.3695 3.0443 3.5933 4.5348.19176.23288.46186.40029.76809.4178.25954.002.40172.53161.0275.42657-.51126-.0289-1.0269-.0629-1.5353.0229-.22818.006-.49228.11148-.69618-.022-.24312-.17858-.0701-.43576.19588-.40343.35203-.10003-.005-.47695-.11676-.65245-.1898-.25561-.37883-.5135-.58929-.75233-.17041-.0841-.37343-.0217-.55849-.0313-.35132.012-.70591.022-1.0552.0352zm1.1732-.51153c.18229.0111-.0571-.15544-.0868-.23536-.42445-.55445-.84889-1.1089-1.2733-1.6633.0839-.0129.0172.17549.0386.25552-.002.5612.004 1.1226-.002 1.6837.44105-.0106.88396-.0264 1.3238-.0405zm3.0568-1.8485c-.14936-.39834-.34992-.88654-.81752-.98102-.24305.0438-.70218-.17699-.45279-.43884.55052-.008 1.1029.0301 1.6534-.0168.69784-.0604 1.416-.0428 2.0797.20455 1.4601.49242 2.672 1.7777 2.9142 3.3212.10741.60447-.0788 1.3034-.62503 1.6411-.73524.46702-1.6421.38035-2.4704.33336-.46991-.0221-.93798.0398-1.4038.086-.30403-.0415-.3372-.51217.0233-.45643.37223-.0121.36467-.42242.22829-.66787-.37645-1.008-.75316-2.0193-1.1294-3.0252zm1.97 2.4936c.14884.34026.23924.75541.56296.97636.30214.14269.6575.11564.98151.0803.43944-.0594.71224-.49285.71647-.91173.0269-.75326-.28171-1.4733-.63171-2.1243-.37441-.7006-1.0557-1.2335-1.8441-1.3722-.32451-.0534-.66476-.10312-.99053-.0491-.0707.123.059.27181.0864.40147.373.99972.74599 1.9994 1.119 2.9991zm-21.11 12.416c.11606.34963.43958.60007.80483.63405.25677.0452.69924-.0156.7128.35386-.13761.2344-.52951.0712-.76858.1225-.51864-.009-1.0376.008-1.5504.0922-.27697.0118-.56691.12559-.8373.0485-.24472-.11624-.19392-.47039.10657-.42647.24725-.0579.60421-.13495.622-.44863-.023-.28469-.18161-.53458-.27762-.79946-.38512-.91649-.76056-1.8372-1.1519-2.751-.0861-.32419-.44627-.33313-.71537-.28394-.24766.0472-.61627.1239-.67679-.21966.0302-.29194.49713-.23832.70232-.38999.31181-.12117.61996-.25633.93884-.35646.2159-.0466.32497.1506.37916.32165.57039 1.3671 1.1415 2.7383 1.7114 4.1028zm.75-4.51c.68157-.0264 1.3667.0766 2.0461.002.30072-.0289.0947-.49726.38365-.47016.37142.0171.31167.47765.33508.73916.0422.33127-.23741.62475-.56978.58312-.53305.0289-1.0648-.0493-1.598-.0213.12116.41264.28802.80975.44482 1.2092.0275-.13437.46005-.15534.63873-.1809 1.0643-.0467 2.1676.56093 2.6138 1.5434.21451.47701.32727 1.1006-.0285 1.5406-.38664.45626-1.0303.54904-1.5958.55416-.48924-.006-1.0641-.11235-1.353-.5493-.16678-.21528-.13828-.68045.22108-.64108.30463.004.65887.26426.60927.59572.16287.22213.52468.14404.77532.13986.29921-.0105.58436-.24171.56922-.55843.007-.48591-.18499-.96182-.45431-1.3595-.29162-.42264-.78266-.70723-1.3024-.69596-.29377-.0494-.5476.1472-.82727.14669-.28405-.0376-.33434-.36628-.43468-.58118-.2377-.59776-.46117-1.2018-.64986-1.817-.0191-.10564.0752-.19163.17659-.17909zm6.85 1.02c-.16047-.39514-.37046-.88248-.8414-.96765-.24185.0565-.70339-.16996-.46203-.42988.55717-.022 1.1176-.001 1.6734-.0676.70408-.0848 1.4324-.0708 2.1052.17584 1.486.49365 2.7091 1.8179 2.9341 3.3872.0887.58373-.11406 1.2385-.63224 1.5634-.71804.46579-1.6078.39631-2.4238.37712-.4528-.005-.90098.0699-1.3477.12798-.30094-.0344-.35294-.50358.008-.4612.3732-.0274.34313-.44024.20295-.68191-.4054-1.0075-.81109-2.0171-1.2163-3.0233zm2.0307 2.4609c.15813.33874.25946.75312.58863.9696.30223.13593.65449.098.97409.0527.43943-.0753.68696-.52453.67805-.94167.003-.76061-.32573-1.4787-.69458-2.1277-.38903-.6907-1.0775-1.2137-1.869-1.3328-.32242-.044-.66071-.0842-.98153-.0206-.0653.12618.068.27222.0991.40236.40169.99938.8037 1.9988 1.2052 2.9981zm6.4393-4.2609c.31178-.0532.35285.29338.437.50448.10128.28312.24535.54906.3459.83193-.1893.31085-.50732-.0573-.58803-.28325-.14484-.24762-.35587-.519-.67346-.51186-.4115-.0205-.82498.002-1.2352.0343-.22517.10065.0154.38945.0539.56683.18315.45139.34635.91271.54261 1.3576.26528-.009.57328.0123.79839-.15157.17488-.21253-.26822-.73665.21199-.68033.32664.11904.27678.56859.41544.83786.12466.39688.35587.74837.4908 1.1405-.17513.33071-.54337-.0556-.59294-.30249-.14146-.32034-.52112-.36204-.82832-.35078-.20477-.0355-.37006.0103-.22596.21599.21474.51544.37925 1.0551.65528 1.5422.20328.34681.64962.30164.9943.29753.33009-.0121.73597-.008.93997-.31739.20676-.24272-.19639-.65729.0819-.81092.33772-.0958.41613.27773.46617.5222.0755.30705.18428.60483.28994.90134-.0315.19742-.28035.13291-.42657.15311-1.0295.0442-2.0601.0672-3.0888.12727-.28711-.0192-.69076.20649-.86993-.11391-.18386-.39605.50285-.17964.5304-.52494.0206-.30461-.15923-.57313-.25097-.8547-.38399-.9655-.75106-1.938-1.1469-2.8986-.13617-.31314-.36116-.66186-.74051-.67914-.23682.0409-.60259-.13649-.45593-.41257.35614-.0589.72799-.005 1.0901-.0347.92646-.0354 1.8533-.0702 2.7795-.10605zm-27.28 14.28c.14889.48692.66813.68606 1.1115.81754.76953.26088 1.5999.5188 2.1474 1.158.30658.3717.51888.85427.49645 1.3425-.0396.49631-.46485.86901-.92484.99075-.5659.18399-1.1912.1355-1.735-.0972-.26579-.1147-.16456.46707-.49617.27047-.23849-.18227-.16339-.5597-.29566-.81493-.10452-.33044-.24388-.64843-.38522-.96389.0122-.3258.47952-.15603.49529.0975.32751.59399.92384 1.12 1.6332 1.1256.35806.011.80671-.17966.83786-.58366.007-.53472-.41913-.95354-.86493-1.1829-.63918-.33173-1.3753-.43717-1.9939-.81201-.55467-.33412-.94649-.95389-.9475-1.6079.0124-.43668.36971-.77784.7672-.90267.50247-.17158 1.0552-.20067 1.5676-.0533.23849.12524.34031-.27354.59498-.0757.11428.19555.0847.46072.19379.67176.0806.28622.27144.5368.33396.82495-.15855.24419-.46565.0144-.51716-.20276-.22085-.36611-.51648-.77262-.98273-.80483-.34605-.0265-.7856-.0294-1.0066.28776-.0965.1537-.0917.34996-.0294.51496zm6.69-1.65c.32657-.0589.33649.314.41808.52848.0813.27158.20932.52697.28887.79855-.13999.28678-.49293.0246-.53577-.21096-.13686-.26048-.33786-.57167-.67348-.55212-.4093-.007-.81908.0304-1.2254.0755-.22745.10072-.007.39086.0247.5716.15781.4505.29564.90987.46654 1.3546.2675-.0184.57594-.01.79916-.17995.1955-.20067-.19249-.60425.13885-.69572.37391-.0471.34474.44123.43459.68421.0967.44975.33494.84931.46752 1.2862-.14491.31671-.5323.01-.55108-.24764-.11183-.32857-.48297-.39833-.78805-.36789-.17891-.0113-.42194-.0128-.2756.21065.181.50461.3186 1.0269.54996 1.5117.12108.28359.45097.34613.72676.32248.39263-.0271.84683.0151 1.1533-.28135.24544-.23384.0408-.58484.095-.85328.24945-.19893.52577.068.49972.34236.0692.34542.16129.68631.26731 1.0211-.0418.20112-.29151.14397-.4453.16981-1.0176.0778-2.0371.13304-3.0531.22801-.28026-.0136-.68355.23497-.85527-.0871-.15839-.38323.45714-.20653.53743-.50154.081-.295-.0978-.57443-.17249-.85371-.33603-.9796-.65391-1.9657-1.0027-2.9407-.11595-.30747-.32641-.66035-.69818-.66291-.23795.0555-.59246-.13222-.42986-.40217.3458-.072.71148-.0279 1.0643-.0703.92469-.066 1.8496-.13171 2.7742-.19787zm4.18 4.14c.091.30434.2697.63825.61206.6999.24923.0888.66447-.0731.73162.28619-.0121.32758-.49229.14975-.71215.20375-.50985-.0271-1.0209.008-1.5222.10462-.21782.0315-.54463.10754-.60795-.18878-.0545-.33567.4631-.14679.57268-.39914.0804-.25911-.0661-.51646-.13591-.76453-.33739-1.0049-.66303-2.0138-1.0085-3.0159-.11428-.29175-.27006-.67408-.62939-.70776-.23232-.0105-.6288-.0315-.55781-.36759.1746-.16557.48564-.0523.71242-.0825.73096.0161 1.4495-.19235 2.1804-.144.75108.0285 1.4823.50765 1.7354 1.2278.1648.40531.21971.91647-.0793 1.2755-.38705.45469-1.0216.5475-1.5803.62208-.21194-.0276-.04.19166-.0267.30158.10509.31628.21129.63246.31569.94881zm-.57141-1.7202c.2055.0293.46107-.0251.67612-.0833.31359-.0633.47812-.39914.39601-.69578-.0877-.42243-.22807-.86517-.54377-1.1743-.30389-.25301-.74642-.26101-1.112-.16344-.13967.12196.002.31915.0355.46985.18281.54879.36475 1.0991.5481 1.647zm6.1514 1.4302c.0897.25498.17001.61087.49187.65157.24649.0547.66053-.036.69072.32033-.0607.26474-.44121.11529-.64317.1555-.53863-.0414-1.0748.0309-1.6059.11158-.22567.0776-.54836-.0218-.49373-.31187.13752-.21281.64999-.0496.64426-.4153-.0549-.39043-.21769-.75577-.3292-1.1326-.31766-.96675-.63085-1.935-.95132-2.9008-.0762-.30964-.42906-.29003-.67893-.26934-.25453.019-.62035.0473-.69252.35027-.0828.25442.0399.53291-.0153.7784-.23703.16264-.46687-.089-.45654-.33006-.0829-.34413-.20809-.6764-.34461-1.0016-.009-.23925.30469-.21863.47906-.23639 1.3809-.0816 2.7616-.17001 4.1427-.24727.30058-.0552.49009.18787.48207.47102.0834.33503.22364.65237.3452.97347-.0677.28279-.4853.13043-.50147-.11884-.17371-.35344-.44476-.73357-.87382-.76235-.28084-.005-.62542-.0571-.85908.1244-.0529.20577.0778.40251.12516.59989.3483 1.0632.69586 2.1274 1.0446 3.19zm2.1-3.29c-.10511-.30537-.21974-.69305-.57144-.78928-.23567-.0608-.64922.009-.62597-.35547.0961-.2119.41704-.0804.60887-.11995.59887.0268 1.1927-.0588 1.7867-.11794.26641-.12052.47853.42109.15225.42081-.25499-.002-.54577.18766-.44215.47338.13157.53152.32425 1.0457.48566 1.5688.24059.73278.46742 1.4703.71758 2.1998.0665.22873.24776.43142.49851.44095.24128.001.66349.0343.58769.37901-.1803.1561-.47927.0579-.70826.0802-.53844-.0442-1.0723.0478-1.6044.11402-.23234.0989-.53601-.13911-.39232-.37822.20623-.0973.64726-.043.61705-.38405-.0778-.41061-.23705-.80053-.35686-1.2003-.25102-.77713-.50179-1.555-.75297-2.3317zm5.76-1.6c.31717-.0569.33321.30467.40399.51705.0781.27686.20196.53879.27922.81529-.14497.28325-.49455.0177-.53358-.21905-.13249-.26332-.32917-.57588-.66559-.56223-.41104-.014-.82341.0142-1.2324.0527-.23041.0941-.0151.38839.0135.56872.14972.4516.28011.91144.44239 1.3577.26893-.0116.57851.002.80688-.163.20002-.19577-.18048-.60674.15397-.68977.3753-.0418.33671.44565.4235.6897.0859.45005.32007.85096.44274 1.2887-.11466.28936-.52699.0423-.52805-.21334-.095-.31925-.42841-.45271-.73858-.42294-.1459.017-.50285-.0743-.35829.1705.17515.51627.30659 1.0495.53275 1.5467.11732.28608.44757.35292.72429.33446.39424-.0213.85017.0326 1.164-.2582.2504-.22688.0537-.58104.11246-.84692.2531-.19218.52629.0749.4951.35.0621.345.1479.68566.24775 1.0205-.0412.19413-.28099.13883-.42978.15928-1.0307.0587-2.063.0955-3.0926.1711-.27507-.0176-.64413.20276-.83815-.0655-.21721-.38819.37975-.2524.50742-.48641.13455-.26611-.0422-.5471-.10792-.80986-.32143-.99485-.6289-1.9944-.95988-2.986-.11127-.3225-.31496-.70295-.7037-.71373-.23837.0517-.59267-.14098-.42458-.40838.34344-.0639.70388-.0156 1.0537-.0492.93604-.0492 1.8754-.0989 2.8094-.14777zm2 .96c-.0657-.35753-.33894-.67675-.73368-.62169-.37451.0966-.49968-.57125-.0338-.43032.50848.003 1.0301-.0779 1.5292.0357.24359.26365.43909.576.66317.85939.72332.96789 1.4466 1.9358 2.17 2.9037-.15869.0356-.0357-.18539-.0528-.30101.11819-1.1806.23638-2.3613.35457-3.5419.27347-.22599.73028-.13101 1.0778-.20207.28161-.0423.92456-.13543.745.34872-.33791.0556-.77046.22133-.53651.64662.35919 1.1968.73766 2.388 1.1146 3.5793.0684.41823.48925.54588.85784.52738.31687.0176.33222.56251-.0483.43054-.59356-.0131-1.1911-.049-1.7788.0635-.26548.0904-.82078.0613-.64053-.35521.2974-.0534.79403-.14241.58654-.57225-.31695-1.0602-.65767-2.1134-.98417-3.1707.0684.095-.0116.25498-.004.37763-.0959.98935-.22807 1.9758-.29215 2.9677-.0395.26019.0492.57372-.0735.79806-.23587.11618-.38592-.11309-.50374-.27632-.95195-1.2325-1.9039-2.465-2.8558-3.6975.0969-.0356.0852.20949.13956.29186.3062.95953.58871 1.9272.91128 2.8811.10061.3878.4941.50099.84781.50431.37869.19377.0985.54795-.23164.40323-.50034-.0717-.99765.0282-1.4927.0846-.31467-.009-.33014-.51374.0285-.44736.46931.004.32648-.52269.21748-.80097-.3411-1.0914-.68219-2.1828-1.0233-3.2742.0141-.004.0283-.008.0424-.0118zm8.74.85c.0593.22476.36397.0736.52636.0972.28524-.0165.61957-.17486.63537-.4985.0105-.43614-.15685-.90446-.49909-1.188-.33014-.25253-.7692-.22938-1.1607-.19218-.0424.14588.0624.3026.0924.45097.13509.44347.27115.88718.40563 1.3305zm.48727 1.5984c.1243.34789.19268.74271.45051 1.0221.23769.17962.56719.10432.84205.087.25743-.0181.48711-.22901.46145-.49857-.0314-.59699-.31608-1.2607-.90721-1.4938-.34005-.12467-.71258-.12688-1.0689-.0911-.11162.0967.0379.28888.0537.42193.0561.18406.11246.36888.16841.55248zm-1.7731-2.4024c-.11732-.34452-.22409-.76964-.58576-.93399-.23304-.0884-.64285.0181-.66332-.33802.0833-.28874.54417-.0786.77388-.13791.88678.011 1.7946-.22455 2.6611.0631.69317.18493 1.2838.81885 1.2791 1.5575-.003.40874-.3333.71678-.6865.86554-.0233-.13426.361.07.49973.0951.52848.18831 1.0182.55649 1.225 1.0936.17741.4142.27983.9529-.0379 1.328-.36163.40228-.94951.43124-1.454.44425-.79021.003-1.5851-.0181-2.3676.11407-.28387.0354-.39564-.50222-.0385-.44706.35957-.001.45947-.37887.32266-.65627-.30878-1.0152-.62145-2.0365-.9278-3.0479zm5.0058-.176c-.11404-.34551-.21756-.77042-.57837-.93689-.23778-.0893-.68709.0123-.6651-.37022.1937-.25554.6567-.0412.95446-.10429.67824.005 1.3575-.13005 2.0341-.0445.79087.0929 1.5491.64555 1.7414 1.4413.14245.42071.0486.95351-.35953 1.1906-.0865.0956-.51977.19808-.44425.19026.60412.23923 1.1193.69009 1.4122 1.2729.15965.26189.2415.58058.46616.7966.2655.19822.29658-.1638.34165-.32636.3514-.17469.5287.31622.386.58035-.14669.42164-.67828.50437-1.06.40458-.34269-.0777-.60222-.34-.75643-.6456-.34142-.53715-.55388-1.1701-1.0298-1.6109-.2241-.19542-.56642-.30903-.85076-.19697-.0741.13476.0394.28906.0626.42985.12706.39123.20766.80039.38614 1.1723.15783.32729.5426.40775.87264.40953.3218-.008.34475.55927-.032.42881-.61-.003-1.224-.0761-1.8297.0331-.22134-.005-.5324.13592-.67395-.10107-.21466-.41912.41715-.22783.55717-.46773.0897-.27847-.0644-.55997-.12956-.83138-.26816-.90409-.53726-1.8139-.80484-2.7144zm1.3126.91741c.0983.32687.55572.14918.80494.14415.29054-.0294.45975-.32567.39805-.59836-.075-.44854-.19181-.94321-.54745-1.2556-.30615-.22447-.72127-.2232-1.0797-.16157-.1535.12803-.0127.3413.0189.50327.13493.45593.27113.91278.40527 1.3681zm6.8874-2.5374c.31224-.0488.32571.29784.38442.50986.0709.28206.18743.55093.25681.83269-.13482.25829-.48808.0312-.51432-.2046-.12875-.2599-.29229-.58898-.62453-.60507-.42769-.0352-.85882-.0179-1.2866.005-.23408.0833-.0305.38309-.008.5622.13486.45258.24983.91319.39766 1.3605.25857.00033.53808.008.77834-.10389.28143-.15885-.11061-.58931.1868-.70182.37332-.0818.36884.39384.426.63885.068.46738.29585.8879.40974 1.3417-.12441.28166-.53048.028-.52429-.22846-.0805-.2955-.37283-.45338-.66666-.44026-.14063.0268-.55645-.12009-.43577.13659.16066.52292.27429 1.0625.48729 1.5675.11003.29024.44075.36352.71812.3554.3983-.007.85477.0615 1.1832-.2172.26034-.21419.0738-.57422.14373-.83477.25814-.18142.52699.087.4865.3627.0504.34399.12514.68435.21332 1.0195-.053.19462-.29552.12713-.44878.14399-1.0382.0236-2.077.0258-3.1147.0658-.26829-.0246-.60747.15841-.81792-.0558-.26364-.37823.29767-.30441.47311-.46745.1894-.22034.0327-.51217-.0246-.75657-.29628-1.0238-.57846-2.0518-.88432-3.0728-.10036-.30857-.27116-.6801-.6367-.72204-.23665.0117-.6103-.0938-.48481-.40469.30107-.10493.65561-.003.97706-.0349.98244-.0168 1.9704-.0371 2.9494-.0525zm-32.82 13.13c-.0934-.36829-.21694-.84959-.6443-.94876-.23667.006-.64397-.0622-.49975-.39344.30684-.12338.67358-.0278 1.003-.0757.81944-.0426 1.6529-.24547 2.465-.0271 1.1924.27335 2.2307 1.1874 2.5821 2.3689.22609.73058.26116 1.602-.23082 2.237-.51874.66626-1.4103.85237-2.2124.86219-.6166-.006-1.2373-.0111-1.8449.1133-.23578.14216-.62923-.0921-.42203-.35446.25782-.0745.66966-.1498.59153-.51787-.0949-.51357-.24249-1.0168-.3601-1.5259-.14236-.57881-.28538-1.1622-.42733-1.7381zm1.6413 2.4389c.0991.32378.13668.70991.40472.94539.27474.16116.61568.0966.91779.0711.46892-.0634.81472-.47881.8889-.93115.14121-.75838-.0791-1.5356-.37855-2.2291-.2592-.60261-.79874-1.0799-1.4469-1.2138-.37709-.0769-.77868-.11418-1.1574-.0394-.0844.11562.0226.27276.0359.40346.24516.99783.49037 1.9957.7355 2.9935zm7.0587-4.4289c.31751-.0599.3103.30394.36154.51419.0564.27571.15977.53983.21483.81525-.12851.26041-.48747.0612-.50141-.18582-.11291-.2546-.26765-.58408-.59289-.58558-.42598-.0187-.85316.0187-1.2768.0589-.2345.0864-.049.38539-.0319.56853.1139.45184.20726.91087.3345 1.3581.27365-.0154.58483-.006.81844-.17075.21328-.18819-.13012-.61637.20804-.69169.37629-.0458.30263.44717.36776.68698.0505.44535.25212.85205.34087 1.2876-.1201.28437-.53015.0584-.51079-.2098-.0687-.3233-.40261-.45182-.70361-.41733-.14571.0204-.49528-.0733-.37278.17365.13438.51618.22207 1.0468.41064 1.5469.0962.29139.4297.34951.69682.32934.41639-.0214.90481.0215 1.2204-.30646.24471-.22532.0177-.60203.17019-.83264.29085-.16695.48367.14183.44323.40792.0325.33023.0931.65735.16165.9806-.0589.19934-.30534.14109-.46594.16517-1.0253.0667-2.0522.11211-3.0763.19516-.2567-.009-.55177.15352-.7803.0117-.2579-.27125.0945-.40864.32475-.43973.28961-.0955.26016-.44281.18662-.67677-.26272-1.0796-.51185-2.1627-.78379-3.24-.0831-.30026-.23842-.67663-.5989-.70188-.2364.0282-.60358-.0817-.46308-.38846.29574-.11893.6518-.0314.97047-.0755.97561-.0585 1.9542-.11668 2.9278-.17758zm6.49 4.1c.0446.30912.28477.57044.59589.62091.23667.0983.60539-.0382.73338.24268.0925.35055-.38792.23525-.59032.2514-.57299-.01-1.148-.0211-1.7165.066-.28534.0184-.57319.0958-.85811.0647-.27732-.11669-.15-.50142.14665-.44363.26817-.0588.63011-.12887.70639-.44099.0331-.26867-.079-.52694-.12588-.78863-.2154-.92095-.42177-1.8442-.64295-2.7637-.0304-.32556-.38717-.33441-.63464-.29444-.2285.009-.58736.16253-.66028-.16279-.0359-.33806.46553-.2687.67085-.4065.36855-.12678.732-.27248 1.1066-.37935.21164-.0481.30106.1503.31907.32049.31649 1.3713.63402 2.7426.94986 4.1138zm3.69-3.32c-.0726-.36321-.27901-.7858-.68883-.83918-.29181-.0554-.67132.0288-.77688.34277-.11265.37317.0381.80935.36877 1.0224.27207.19826.59182.31183.89418.4538.0592-.11868.24697-.34967.23698-.55858.0137-.14055-.007-.28821-.0342-.4212zm.83637 2.8932c-.10281-.48732-.5702-.7696-.99649-.94842-.1846-.0322-.44459-.27742-.55824-.17656-.30832.268-.45707.71405-.32031 1.1068.11379.48284.47947.96037 1.0057 1.0009.3479.0459.75979-.11009.86327-.47412.0535-.16421.0442-.34228.006-.50864zm.88943-.20863c.13592.47897-.0601 1.0199-.47068 1.3005-.58142.40047-1.3554.42767-2.016.23143-.58667-.17203-1.0812-.66342-1.185-1.2762-.12189-.48865.0785-1.0449.51326-1.3111.10093-.10012.48787-.14045.17512-.21569-.49885-.24496-.98962-.64525-1.0924-1.2224-.12081-.48733.10613-1.0354.55173-1.2747.85828-.46833 2.0876-.192 2.5834.67512.21739.36862.25955.86121-.001 1.2206-.1401.19397-.32105.38958-.56398.44303.48542.099.92759.39815 1.2228.79362.13902.18823.2327.40754.28275.63563zm3.2642.55543c.24295.009.50439-.13521.54094-.39284.0851-.19635-.0838-.61545.25474-.59164.30868.0197.27738.37878.30899.60186.0259.39781-.002.87237-.34408 1.1374-.24853.15789-.55805.0922-.83593.0963-.56166-.0186-1.123-.13696-1.685-.0727-.23517.024-.49487.28626-.71675.0978-.19209-.22319-.077-.51875-.005-.76428.19446-.61516.62428-1.1173 1.0997-1.5381.33451-.31284.71044-.65162.76033-1.1362.0412-.41146-.0782-.836-.29245-1.1863-.28303-.45124-.94979-.60823-1.3988-.32122-.23138.14903-.41348.49488-.22791.74502.21074.16246.59983.0174.70201.35421.13004.23361-.005.59858-.30108.59523-.44024.068-.83814-.27723-.95201-.68516-.18088-.51011.0211-1.1303.49487-1.4058.49942-.31245 1.1347-.30455 1.6897-.16948.56589.13998 1.0426.57886 1.2146 1.1377.15369.43258.16049.93304-.0813 1.336-.37581.71765-1.149 1.0743-1.6571 1.6769-.14278.15646-.24423.37142-.18553.5856.0763-.20325.39739-.13277.58205-.16726.3472-.0144.68867.0763 1.0351.067zm3.94-.42c.038.30996.27363.57568.58352.63192.22828.10146.56734-.0157.71536.22534.14451.345-.33305.28338-.53603.27056-.59094-.0206-1.184-.0507-1.7725.0266-.28688.0121-.57763.0817-.86298.0444-.28059-.1282-.1302-.49628.1579-.43846.26995-.0519.6339-.11286.7198-.42222.0384-.26561-.0671-.52405-.10789-.7845-.19476-.9229-.38014-1.848-.58094-2.7695-.0191-.28415-.3155-.34607-.54674-.31214-.23597-.0262-.56287.16536-.71312-.0926-.1734-.35216.34436-.34537.5521-.43795.40776-.1253.80848-.27728 1.2211-.38452.21179-.0436.29799.15464.31202.32504.28623 1.3726.57163 2.7456.85839 4.118z"/>
   </g>
  </g>
  <g>
   <g style="fill:#448127;stroke-width:.2185;stroke:#34541f">
    <path d="m475.8 219.41-3.7712 4.4831c-1.1995 5.2399 1.782 9.187 7.6495 12.614 4.7523 2.9497 13.549 3.6886 16.327 1.311l-13.714-13.071-6.4917-5.3367z" style="fill:url(#m);stroke:#4c0505"/>
    <path d="m503.58 354.27c-.67209-.80996-1.352-1.6173-2.0351-2.424-8.5576 11.298-19.248 21.429-32.617 28.575 15.077-4.2692 24.945-15.257 34.652-26.151zm-15.44 35.71c5.3164-10.772 11.731-21.544 18.203-32.317-.70661-.87988-1.4224-1.7595-2.1441-2.6357-7.3517 12.186-15.979 26.679-16.059 34.952zm41.73-114.5c-.98453-4.2467-2.2704-8.8375-4.3089-13.055-2.6573-5.4313-6.6232-10.831-11.832-16.804-9.3826-10.173-18.771-19.997-31.926-27.251.0242-.0465.0452-.0913.0686-.13743l.0774.0459h.16387l-.16125-.20036h.47064l-.25481-.255h.43698l-.35199-.4005h.46124l-.32861-.32775h.49248l-.27312-.36423.39767.0304-.3721-.38695.54798-.10881-.4442-.27946.48047-.0918-.40334-.27552.58557-.18747-.51587-.30568.65243-.28797-.63167-.45644.66794-.22854-.72584-.29541.61244-.32162-.72125-.13023.48899-.56612-.70202.0371.31965-.59693-.66706.0555c-.0149-.019-.0286-.0389-.0444-.0577l.36576-.44945-.67514.12018.29693-.61092-.64958.32469.18528-.70705-.62774.43218.0953-.71906-.57901.4962.0601-.68739-.50996.53335.0457-.72453-.50275.61026-.0503-.71273-.4029.56-.20495-.67624-.33452.67624-.17064-.7171-.3166.7171-.15447-.7171-.27312.7171-.20648-.67624-.21456.67624-.15928-.59431-.24079.71535-.22352-.67449-.24078.76976-.29191-.68782-.12629.82241-.35155-.67231-.0406.79357-.38281-.60239-.0247.78746-.40836-.56809.0323.69088-.43393-.36488.2126.74375-.52482-.30589.19708.65177-.43197-.24209.15404.63123-.39307-.12585.2056.4702c-.0103.0212-.0192.043-.0291.0642l-.30392-.0566.17414.36598.001.00066c-.38411 1.0385-.41405 2.2785-.35112 3.5147.0116.23051.59365.46409.68542.60698.27617.42912.2257.66073.2257.66073-1.5913 2.5804-3.0146 4.5731-3.1749 7.5311 1.2786-1.6184 2.6036-3.5997 4.4608-3.5997-.92008 1.5373-1.3562 6.1718-.32315 6.8771l.77107-1.352c.0282 1.0748.1796 1.7914.38914 2.3215.32227-.6498.6415-1.271.96268-1.7412.0734 1.5056.26678 2.7141.70334 3.3115.42934-.74026 1.0088-1.191 1.6182-1.5705-.21129.86-.52024 1.6721-.38914 2.7039.6439-1.1014 1.2887-1.7526 1.9324-2.5127-.37297 1.5867-.0336 2.771.41688 4.5222.40029-2.0757.55738-2.2959 1.5159-3.1699.10619 1.9033-.25739 3.6323.1429 4.6941.87397-1.6752 1.46-1.4357 1.9826-2.5192-.10204 1.5795-.41908 3.291-.014 4.7009.33627-1.4128 1.2435-2.169 1.9442-2.6707.0572 2.1987.56502 1.8369-.80144 3.7017.57901.26504 2.5413-.3769 3.6052-.8329-.51455 1.1781-.36314 2.1024-.87835 2.9359 1.08-.54253 2.0001-1.4204 2.9014-2.3215-.41776 1.352-1.5251 2.7041-.96968 4.0559.25171-1.2633 1.2734-2.3036 2.2422-2.493-.15033.70814-.25215 2.1742-1.2725 2.8824 2.4428.25193 3.4068-1.3975 4.6367-2.7039-.15885 1.358-.11384 2.4434 1.5522 4.3553-.3367-2.4308.24144-1.9306 1.3429-3.3924.53182 2.1482 1.1425 4.4302 3.3821 6.0143-.9286-2.2669-1.1001-3.435-.57355-4.8615.28841 1.4722 1.6844 3.2488 2.0189 4.6441.20779-1.5476.44158-3.0454.96269-4.0559.65155 1.7569 1.1974 3.5711 1.352 5.5989.48812-1.0108.88425-2.0353 1.1611-3.0862 19.736 20.623 24.137 46.84 2.5127 74.541 7.7703-5.2493 9.7757-13.569 14.093-20.662-4.2141 9.2876-6.0923 19.737-13.513 27.421 7.1876-6.2024 8.7118-11.885 13.034-17.862-4.6067 12.501-10.982 26.2-19.821 38.742 1.5705 1.7071 3.1413 3.4409 4.7182 5.1892 1.3715-2.2839 2.7423-4.5646 4.0966-6.8489 9.3688-15.436 24.658-37.5 16.913-71.147z"/>
   </g>
   <path d="m473.16 215.29c-.99699.22614-1.392.64238-2.1111 1.4429.91746.20014 1.6925.24603 2.5212.26416.25695-.0225.34348-.34784.28645-.58491l-.1276-.95504c-.0227-.2174-.6013-.20014-.87354-.0863l.30458-.0808z" style="fill:#eac102;stroke-width:.2185;stroke:#a08307"/>
   <path d="m471.04 216.73c.34544-.12301.69831-.21412 1.0532-.29781.35549-.0795.71273-.15141 1.0776-.19118-.34566.12323-.69853.21434-1.0531.29781-.35593.0793-.71317.1512-1.0776.19118z" style="fill:#a08307"/>
   <ellipse cx="477.68" cy="215.42" rx=".775" ry=".811" style="stroke-width:.0978;stroke:#000"/>
   <ellipse cx="477.86" cy="215.26" rx=".337" ry=".353" style="fill:url(#n)"/>
   <g style="fill:#34541f">
    <path d="m488.18 389.69c.46649-1.4941.9782-2.9744 1.5282-4.4402.55695-1.4628 1.1543-2.9112 1.7825-4.3461 1.2594-2.8686 2.663-5.6715 4.1352-8.4348 1.4886-2.7554 3.0474-5.4726 4.6631-8.1534.80864-1.3405 1.6276-2.6744 2.4537-4.0037l2.5101-3.9674-2.4192 4.0234c-.8069 1.3409-1.6092 2.6838-2.4004 4.0336-1.5845 2.6984-3.1439 5.4112-4.6153 8.1708-1.4864 2.7517-2.8844 5.5506-4.1741 8.3996-.64565 1.4242-1.2594 2.8632-1.8362 4.3166-.58273 1.451-1.1276 2.9182-1.6276 4.4016zm-18.84-9.46c1.6549-.73392 3.2842-1.5249 4.8812-2.3748 1.6002-.84273 3.1699-1.7436 4.7022-2.7047 3.0653-1.9177 5.9902-4.0605 8.733-6.4165 2.755-2.3416 5.3276-4.8938 7.7616-7.5693 1.2188-1.3365 2.4004-2.7074 3.5549-4.1014 1.1591-1.389 2.2892-2.8042 3.3991-4.2342-1.0818 1.4521-2.1841 2.8892-3.3163 4.3019-1.1377 1.4091-2.3071 2.7935-3.5125 4.1464-2.4128 2.703-4.993 5.2614-7.745 7.6231-2.762 2.3488-5.6942 4.5006-8.7863 6.3927-1.5465.94521-3.128 1.8325-4.7416 2.6569-1.6162.8187-3.2617 1.578-4.9303 2.28zm37.28-29.34c.7691-1.0741 1.4855-2.1863 2.2016-3.2962.71557-1.1104 1.4156-2.2315 2.0984-3.362 1.3678-2.2605 2.6897-4.549 3.9591-6.866 1.2854-2.3086 2.5208-4.6456 3.7507-6.9846l3.6773-7.0268-1.7453 3.5612-1.7825 3.5429c-1.1991 2.356-2.4367 4.6937-3.709 7.0128-1.2876 2.3104-2.608 4.6032-4.0078 6.8485-1.4054 2.2396-2.8529 4.4573-4.4424 6.5701zm5.89-25.11c1.7073-2.0313 3.2774-4.177 4.6917-6.42 1.4237-2.2365 2.694-4.5696 3.8103-6.9735 2.235-4.8099 3.8411-9.8941 4.9751-15.071.14377-.64674.28251-1.2948.41361-1.9439.10881-.64631.20516-1.3064.29365-1.9619.17589-1.3132.31027-2.6316.40029-3.9534.18004-2.6431.17829-5.2998-.0299-7.9416-.20604-2.6425-.62271-5.2675-1.2397-7.8455-.60676-2.5811-1.4185-5.1136-2.403-7.578 1.0173 2.4511 1.8644 4.9751 2.5072 7.5525.63319 2.5798 1.0608 5.2107 1.2802 7.8588.22111 2.6484.23553 5.3131.0666 7.9654-.0837 1.3263-.21304 2.6495-.38281 3.9674-.0859.66007-.17785 1.3142-.28688 1.9763-.12891.65155-.26285 1.302-.40618 1.9509-1.16 5.1834-2.7939 10.274-5.0566 15.084-1.1314 2.4043-2.4128 4.7378-3.8527 6.9696-1.4464 2.2289-3.0462 4.3555-4.7809 6.3636z"/>
    <path d="m510.87 320.07c1.8434-1.7624 3.4714-3.7408 4.898-5.8493 1.4364-2.1034 2.682-4.3328 3.795-6.6232 1.1143-2.2907 2.0984-4.6426 3.0272-7.015.4643-1.1866.91527-2.3788 1.3612-3.5728l.33233-.89605c.10619-.29584.20189-.59933.29409-.90369.1866-.60851.35549-1.2238.57792-1.8297l-.005.0168c.50647-2.5236.7785-5.0946.8104-7.67.0323-2.5752-.17064-5.1528-.57136-7.6976-.39985-2.5461-.99568-5.0603-1.7314-7.5315-.72541-2.4749-1.5926-4.9087-2.5538-7.3038.99393 2.3816 1.8952 4.8038 2.656 7.2724.7514 2.4714 1.3588 4.9882 1.7722 7.5396.41405 2.5507.63123 5.1364.61026 7.7233-.0205 2.5861-.27771 5.1718-.78003 7.7102l-.002.008-.003.009c-.2198.59081-.39263 1.2054-.58207 1.8148-.0948.30502-.19074.60982-.30174.91331l-.33801.89539c-.45097 1.1928-.90763 2.3831-1.3789 3.5693-.94193 2.3707-1.9387 4.7214-3.0666 7.0124-1.1266 2.2896-2.3833 4.5202-3.8374 6.6193-1.4589 2.0934-3.1164 4.0522-4.9841 5.789z"/>
    <path d="m505.05 349.23c1.2017-1.6588 2.3886-3.3274 3.5733-4.9985l1.7774-2.5064c.58972-.83771 1.2076-1.6544 1.7331-2.5315 1.068-1.7445 1.9896-3.5748 2.8979-5.4095.90086-1.8393 1.8196-3.67 2.7089-5.5139 1.7816-3.6867 3.5053-7.405 4.9673-11.228 1.4681-3.8197 2.6228-7.7566 3.4511-11.763.84667-4.0033 1.4158-8.062 1.8854-12.129.42585-4.0649.47108-8.1798.0376-12.248-.4289-4.0688-1.3617-8.0802-2.7253-11.939-1.3503-3.8647-3.1153-7.5772-5.0975-11.16 2.0134 3.565 3.8121 7.2632 5.1982 11.124 1.38 3.8608 2.3261 7.88 2.7692 11.959.44638 4.0791.41426 8.2025-.001 12.284-.45797 4.0716-1.0149 8.1374-1.8528 12.153-.84208 4.0144-2.0126 7.9611-3.4946 11.784-1.477 3.8267-3.2134 7.5427-5.0066 11.226-.89626 1.8428-1.8196 3.6705-2.7268 5.5067-.91418 1.833-1.8406 3.6644-2.92 5.4095-.53597.87748-1.1624 1.6912-1.7587 2.5221l-1.7986 2.4904c-1.2 1.6612-2.4008 3.3205-3.6172 4.9686z"/>
    <path d="M507.81 352.25c2.3617-3.8352 4.7108-7.6786 6.954-11.583 2.2498-3.9006 4.4831-7.8142 6.4653-11.856 1.9857-4.0378 3.7011-8.2136 4.9972-12.523.65002-2.153 1.2008-4.3362 1.6525-6.5396.22921-1.1023.42716-2.2068.59322-3.3192.17108-1.1126.32905-2.2262.47195-3.3423.58163-4.4617.92816-8.957.92226-13.457-.005-4.4977-.36576-9.0013-1.1982-13.424-.82963-4.4206-2.141-8.756-3.9768-12.865-1.8218-4.114-4.1706-7.9958-6.9573-11.533 2.8149 3.5158 5.1965 7.3818 7.055 11.49 1.8533 4.1105 3.1776 8.4531 4.022 12.882.84623 4.4296 1.2196 8.943 1.2376 13.45.0184 4.5097-.31529 9.0155-.88797 13.486-.14639 1.1167-.3072 2.2328-.48178 3.3458-.16846 1.1139-.37166 2.226-.60392 3.3281-.4584 2.2077-1.0169 4.3942-1.6741 6.5505-1.311 4.3161-3.0419 8.4962-5.0411 12.534-1.9964 4.0417-4.2384 7.9528-6.5033 11.846-2.2756 3.8892-4.6546 7.7142-7.0465 11.53zM480 220.77c.47435-.012.94871.0402 1.4176.11275.46932.0736.9345.17392 1.3946.29409.91877.24559 1.815.57224 2.6864.95373 1.7429.76757 3.3718 1.774 4.9008 2.9029 1.5188 1.1449 2.9398 2.4161 4.2558 3.7854.65702.68563 1.2917 1.392 1.9038 2.117.60654.72956 1.1976 1.4718 1.7584 2.2363-.59977-.73415-1.2065-1.4617-1.8393-2.1664-.62729-.70923-1.2738-1.4008-1.9431-2.0696-1.3352-1.3394-2.7469-2.6042-4.2661-3.7282-1.5085-1.1362-3.1253-2.1314-4.8388-2.9252-.8565-.39701-1.7396-.73851-2.6464-1.0038-.90544-.26548-1.8362-.47217-2.7838-.5091z"/>
   </g>
   <g style="fill:#448127">
    <path d="m496.38 231.57s3.0589 1.7982 4.7254 4.4385c0 0-4.7173-.8825-8.0699-4.6513"/>
    <path d="m496.38 231.57c.47872.26111.93253.56612 1.3794.88032.44136.32184.86939.66269 1.2804 1.0245.41208.36074.79663.75271 1.1609 1.1628.36183.4123.7029.84623.9959 1.3132l.13634.21719-.24755-.0535c-.78418-.16955-1.5345-.42016-2.2728-.71185-.73611-.29409-1.4539-.63582-2.1371-1.0376-1.3693-.7951-2.6232-1.7997-3.6397-3.008 1.0804 1.1493 2.3482 2.1072 3.7203 2.8658.68825.37603 1.3979.71251 2.1286.99699.72934.28186 1.482.52504 2.2404.68279l-.111.16366c-.28907-.45382-.61157-.88775-.96465-1.2966-.35091-.41099-.73415-.79379-1.1255-1.1681-.39285-.37319-.8045-.72737-1.2308-1.0636-.42257-.34217-.86131-.66357-1.3132-.96794z" style="fill:#34541f"/>
    <path d="m489.58 230.69s7.2265 4.6109 8.2733 4.9782c0 0-1.6083-3.4784-5.0488-4.9721"/>
    <path d="m489.58 230.69 4.1403 2.4878c.68716.41886 1.3759.83487 2.0689 1.2428.34676.20364.69438.40553 1.0444.60174.34719.19402.70202.40508 1.0538.5482l-.12848.14115c-.25695-.52964-.57791-1.0414-.92401-1.526-.35047-.48331-.72759-.9487-1.1423-1.3796-.41361-.43218-.86589-.82656-1.3462-1.1842-.48025-.35877-.99895-.66553-1.5421-.92554.56022.22133 1.0938.51215 1.5957.84951.50275.33713.96683.73064 1.3997 1.1543.43197.42519.83247.88316 1.189 1.3739.35746.49139.68433.99983.95832 1.5509l.1241.24952-.25258-.10815c-.76801-.32927-1.4368-.75774-2.1351-1.1676-.69066-.41514-1.3763-.83792-2.0602-1.2638-1.3588-.86436-2.7124-1.7375-4.0432-2.6449z" style="fill:#34541f"/>
    <path d="m492.46 228.36s3.7596 1.5992 4.6111 4.3791c0 0-6.7528-2.8409-7.9617-4.3491"/>
    <path d="m492.46 228.36c.50778.19927.99218.45534 1.4646.73065.46779.2836.91789.59824 1.34.95089.42257.35155.80669.75206 1.1399 1.1941.32993.44311.60764.93559.76954 1.4718l.0673.22243-.21238-.0913c-.69984-.30087-1.3925-.61332-2.0822-.93429-.68914-.32162-1.3754-.65002-2.0495-1.0031-.6745-.35177-1.344-.71447-1.9942-1.1113-.32359-.20058-.64281-.40902-.95023-.63407-.30502-.22636-.60894-.46496-.84361-.76561.25171.28558.56438.5056.87573.71951.31485.21084.64085.40487.97077.59081.65898.37471 1.3337.7219 2.0152 1.0544 1.3643.66204 2.7443 1.2976 4.142 1.8847l-.14508.13109c-.15688-.50669-.4088-.98388-.72475-1.4158-.31419-.43437-.69197-.8211-1.0909-1.1836-.40072-.36139-.83334-.68913-1.2861-.98759-.44922-.30458-.91986-.57836-1.406-.82373z" style="fill:#34541f"/>
    <path d="m486.76 231.25s6.6462 4.7577 8.6126 4.7577c0 0-1.9477-3.258-5.3876-4.7516"/>
    <path d="m486.76 231.25c.68826.45622 1.3794.90785 2.0761 1.3499.69459.44529 1.3955.8801 2.1061 1.2981.70661.42344 1.4224.83268 2.1565 1.2013.36729.18354.73938.35724 1.1191.50538.37668.14574.77063.28863 1.1547.29978l-.0891.15666c-.31376-.50582-.68236-.99022-1.0704-1.4497-.39198-.45774-.80472-.8991-1.2476-1.3094-.44158-.41143-.91528-.78811-1.4106-1.1346-.49532-.34719-1.0221-.64915-1.5699-.9109 1.1296.4501 2.1657 1.1285 3.0812 1.9337.45884.40246.89343.83399 1.2913 1.2974.39897.46386.77281.94433 1.104 1.467l.10247.16147-.19118-.005c-.44617-.0107-.84361-.15797-1.2345-.30371-.38826-.15557-.76342-.33495-1.1329-.52373-.73829-.37909-1.4532-.79663-2.1587-1.2282-.70136-.43874-1.3916-.89386-2.0744-1.3588-.68039-.46976-1.3544-.94761-2.0123-1.4469z" style="fill:#34541f"/>
    <path d="m486.76 232.74s3.4605 2.9195 5.427 2.9195c0 0-1.9477-3.2578-5.3876-4.7514"/>
    <path d="m486.76 232.74c.41754.31179.84077.61463 1.2716.90479.42868.29365.86655.57333 1.3153.83159.44507.26394.90194.50865 1.3759.70792.23663.0994.47806.18638.72343.25214.24362.0688.49336.11712.74092.11952l-.0892.15666c-.31376-.50581-.68236-.99022-1.0704-1.4495-.3922-.45775-.80472-.89911-1.2476-1.3094-.44179-.41143-.91527-.78811-1.4106-1.1346-.49533-.34719-1.0223-.64893-1.5699-.91091 1.1296.4501 2.1655 1.1285 3.0812 1.9337.45884.40247.89342.83378 1.2913 1.2974.39897.46387.77282.94434 1.1041 1.467l.0996.15732-.18834-.00044c-.55083-.00087-1.0634-.18004-1.5456-.38848-.48353-.21172-.94325-.4667-1.3896-.74048-.44223-.28076-.86983-.58141-1.2876-.89495-.4147-.31769-.82045-.64653-1.2046-.99918z" style="fill:#34541f"/>
    <path d="m485.03 226.18s7.2073 5.1165 8.0592 7.8964c0 0-6.5225-2.9945-7.7314-4.5025"/>
    <path d="m485.03 226.18c.78614.53378 1.5482 1.1019 2.304 1.6785.75031.58382 1.4879 1.1842 2.2053 1.8098.71754.62512 1.4075 1.2839 2.0536 1.9872.32185.35287.63123.71863.912 1.1091.27618.39176.54034.8045.68738 1.2799l.0719.23292-.22024-.10335c-.67974-.31857-1.3525-.64784-2.0224-.98519-.66925-.3378-1.3352-.68193-1.9892-1.0496-.65439-.3662-1.3038-.74245-1.9339-1.1506-.31354-.20604-.62293-.4193-.92074-.64784-.29584-.22942-.5895-.47086-.82023-.76735.24756.28164.55083.50494.85344.72212.30546.21456.62184.41361.94237.60545.63953.3863 1.2946.74703 1.9566 1.0944 1.3252.69175 2.665 1.3601 4.0236 1.9826l-.14814.12957c-.14006-.43284-.38411-.83859-.65286-1.221-.27094-.3828-.57311-.74572-.8884-1.0968-.63167-.70268-1.3208-1.354-2.0193-1.9938-.70071-.63822-1.4235-1.2533-2.1594-1.8522-.73152-.60414-1.4794-1.1888-2.2354-1.7639z" style="fill:#34541f"/>
   </g>
  </g>
  <g style="stroke-width:.1639;stroke:#24420e">
   <path d="m445.02 370.33c-4.8888 3.644-18.553 5.4292-20.448 4.8005 9.9428-8.2718 19.725-8.471 20.448-4.8005zm69.76 4.44c5.2537 4.768 21.104 8.0531 23.475 7.4607-10.542-10.77-22.102-11.863-23.475-7.4607z" style="fill:#406325"/>
   <path d="m444.98 370.3c-.72081-3.6709-10.458-3.4489-20.378 4.775 10.446-3.4422 19.238-5.4047 20.378-4.775zm69.91 4.41c1.3715-4.4018 12.794-3.338 23.364 7.4616-11.884-5.021-21.947-8.0983-23.364-7.4616z" style="fill:#67923d"/>
  </g>
 </g>
</svg>
