<?xml version="1.0" encoding="UTF-8"?>
<svg xmlns="http://www.w3.org/2000/svg" xmlns:xlink="http://www.w3.org/1999/xlink" width="900" height="600">
<path d="m0 0h900v600h-900z" fill="#d21034" stroke-width=".94868"/>
<path d="m0 0h900v300h-900z" fill="#00209f" stroke-width=".94868"/>
<g transform="translate(-50)" fill="#f1b517" stroke="#000" stroke-width=".183">
<path d="m405.36 224.57h189.28v150.68h-189.28z" fill="#fff" stroke="none"/>
<path d="m538.09 333.53-38.628 1.121-38.454 0.437s-19.756 7.307-27.833 8.947c-8.052 1.635-7.005 4.28-13.236 5.673-4.99 1.116-5.567 1.467-8.495 1.66-1.772 0.116-3.955 1.48-6.09 2.982v20.898h189.28v-19.878c-2.052-1.118-4.007-1.887-6.008-2.567-2.78-0.946-4.655-1.98-9.646-3.095-6.23-1.392-5.184-4.038-13.236-5.673-8.076-1.64-27.658-10.505-27.658-10.505z" fill="#016a16" stroke="#016a16" stroke-width=".366"/>
<g transform="scale(2)">
<g id="h">
<path d="m244.53 143.51 1.397-0.033 2.555 10.75-0.545 3.385z"/>
<path d="m243.06 136.35 0.954 8.284 1.022-0.066z" fill="#fff"/>
<path d="m245.72 154.59-4.293-11.538 1.601-0.098 5.009 14.101z"/>
<path d="m239.42 136.48 1.772 8.02h1.43z" fill="#fff"/>
<path d="m241.91 150.55-2.521-5.424 1.09-0.23 4.6 9.007z"/>
<path d="m236.08 138.78 2.794 7.626h1.43z" fill="#fff"/>
<path d="m242.25 151.36-11.436-12.484c-3.571 2.828-2.908 8.021-2.908 8.021l12.957 10.166z" fill="#0a328c"/>
<path d="m248.86 158.24-8.483-8.594c-3.587 0.125-0.741 5.48-0.56 6.152l9.043 7.734z" fill="#d20014"/>
<path d="m248.14 156.76-17.54-18.78-0.684 0.483 18.561 20.622zm-18.553-19.985-0.385-0.446 0.038-0.891-3.619-2.303 1.617 3.64 1.232 0.223 0.385 0.446z"/>
<path d="m227.74 138.11c0.616-0.743 1.348-1.486 2.657-2.192l1 1.45-2.155 1.82z"/>
<path d="m225.81 141.28 0.588 1.026c0.364-0.135 4.031-3.457 4.031-3.457l2.632-0.08 0.756-0.838c-1.932-2.08-3.752 0.297-3.752 0.297z" fill="#0a328c" stroke="#0a328c"/>
<path d="m227.91 143.01c0.14-0.918 1.876-3.214 2.128-3.295 1.303 0.391 2.515 1.141 3.835-1.837-1.148 1.459-3.471-0.027-3.471-0.027l-1.008 0.838 0.028 0.405-3.052 2.836z" fill="#d20014" stroke="#d20014"/>
<path d="m237.25 154.67-14.367-11.411c-2.46 2.503-0.415 10.231-0.415 10.231l14.043 7.608z" fill="#0a328c"/>
<path d="m249.17 163.92-11.818-9.467c-4.036 0.566-0.864 6.506-0.623 7.16l12.481 6.77z" fill="#d20014"/>
<path d="m248.7 162-25.554-19.182-0.587 0.591 26.837 20.955zm-26.769-20.198-0.46-0.374-0.122-0.885-3.979-1.662 2.248 3.314 1.254 0.014 0.459 0.374z"/>
<path d="m220.35 143.43c0.473-0.835 1.06-1.689 2.222-2.603l1.246 1.259-1.795 2.153z"/>
<path d="m218.92 146.64 0.16 1.06c0.337-0.188 3.56-3.726 3.56-3.726l2.586-0.477 0.527-0.833c-1.797-2.114-3.713 0.698-3.713 0.698z" fill="#0a328c" stroke="#0a328c"/>
<path d="m220.97 148.54c-0.123-0.982 1.22-3.863 1.455-3.98 1.547 0.46 2.894 1.152 3.462-2.07-0.897 1.614-3.46 0.363-3.46 0.363l-0.86 0.979 0.121 0.53-2.61 3.37z" fill="#d20014" stroke="#d20014"/>
<path d="m236.22 161.65c-0.19-0.046-18.517-10.442-18.517-10.442-1.334 2.252-0.128 5.52 0.457 6.029 0.034 1.5-0.602 2.306 0.707 5.439 0.386 2.036 1.328 3.913 2.7 5.027 1.671 6.417 8.222 6.848 10.746 1.624z" fill="#0a328c"/>
<path d="m248.35 168.51-12.548-7.355c-4.036 0.567 0.085 8.056 0.326 8.71l12.116 4.304z" fill="#d20014"/>
<path d="m246.24 165.85-28.35-15.089-0.484 0.672 29.905 16.647zm-29.715-15.909-0.514-0.3-0.265-0.856-4.2-1.04 2.758 2.934 1.24-0.177 0.515 0.301z"/>
<path d="m215.23 151.78c0.332-0.896 0.773-1.828 1.772-2.907l1.436 1.056-1.425 2.398z"/>
<path d="m214.1 155.18 0.593 1.167c0.307-0.232 3.004-4.578 3.004-4.578l2.492-0.82 0.469-1.014c-2.002-1.85-3.498 1.342-3.498 1.342z" fill="#0a328c" stroke="#0a328c"/>
<path d="m216.77 156.84c-0.2-0.999 0.484-4.197 0.7-4.345 1.56 0.465 2.863 0.597 3.223-2.622-0.907 1.529-3.328 0.953-3.328 0.953l-0.71 1.085 0.15 0.38-2.059 3.95z" fill="#d20014" stroke="#d20014"/>
</g>
<use transform="matrix(-1 0 0 1 499.86 0)" width="100%" height="100%" xlink:href="#h"/>
</g>
<g transform="scale(2)">
<path d="m248.96 125.6-0.465 9.07h2.9l-0.425-8.992 3.023-0.424-0.335-3.582-7.51 0.29 0.041 3.253z" fill="#016a16" stroke="#016a16"/>
<g id="g" fill="#016a16">
<path d="m249.82 121.9c-7.764-7.771-13.878-3.98-15.334-2.902 0.963 0.187 1.826-0.412 2.273-0.48-0.28 0.353-0.865 1.229-0.865 1.229s2.4-1.134 2.668-1.03c-0.346 0.276-0.727 0.936-0.727 0.936 0.178 0.069 1.528-1.057 1.795-1.077-0.411 0.466-0.539 1.528-0.539 1.528l1.17-0.545c0.304 0.216-0.085 0.63 0.18 0.609 1.944-0.16 4.677 1.777 5.053 2.372"/>
<path d="m247.9 123.32c-0.81-1.854-15.588-5.005-18.56 0.244 1.164 0.293 2.276-0.976 2.276-0.976l-0.101 1.171 1.972-1.512-0.708 1.56 1.568-1.268-0.05 1.269 1.921-2.098-0.253 1.22 1.72-0.732-0.203 1.024"/>
<path d="m247.24 123.61c-3.793-2.537-9.66-0.83-9.66-0.83-3.741 2.099-5.736 1.72-6.22 5.611 0.355-0.146 1.366-1.366 1.366-1.366l0.759 1.513 0.252-2.147 0.607 1.659 0.91-2.732 0.203 1.854 1.416-1.854 0.657 0.536 0.607-1.415 0.556 0.927s0.961-0.585 1.518-0.244l1.062-1.22 0.252 0.879 0.91-1.073 0.355 0.78 0.91-0.83-0.05 0.586 3.135 0.05"/>
<path d="m246.38 124.05c-2.643-0.05-10.226 2.812-12.188 5.806a13.29 13.29 0 0 1 1.263-0.635l0.387 1.203 0.473-1.203 0.1 0.927c0.29-0.724 0.618-0.806 1.164-0.049l0.202-1.122 0.304 1.073 0.505-1.17s0.318 1.269 0.506 1.22c0 0 0.838-2.195 1.214-2.294l0.1 1.366 0.506-1.366 0.456 1.025 0.1-1.464 0.506 1.122s0.266-1.103 0.658-1.317l0.758 0.683 3.378-2.427"/>
<path d="m246.89 124.68c-3.521 1.35-6.67 6.179-6.43 8.226 1.565-1.941 1.229-1.674 1.928 0.56 0 0 0.264-1.955 0.53-2.187l0.459 1.446 0.17-1.892 0.47 0.022-0.12-1.187 0.7 0.535c-0.164-0.678-0.339-0.907 0.385-1.489 0 0-0.917 0.117-0.193-1.535l0.675 0.651s-0.12-0.721 0.12-1l2.485-0.861"/>
<path d="m247.23 125.04-1.33 2.534 0.682 0.197-1.535 1.152 1.296-0.132s-1.978 0.724-2.217 2.665l2.013-0.888s-1.706 1.744-1.945 2.797l1.16-1.02s-1.125 1.217-0.955 3.06l0.853-0.954c-0.205 2.237-0.137 2.435 0.887 4.146 0 0-0.273-2.633 0.034-2.962l2.25 2.337-1.261-3.324s1.398 2.106 2.25 1.909l-1.773-2.698 1.74 1.414-1.978-2.961 1.841 0.56s-1.33-1.679-1.228-2.732l1.262 1.382s-0.477-1.58-0.34-2.04l0.647 0.132-1.262-1.448 0.853-0.165-0.102-0.954 0.614-0.197-0.034-1.053m-1.092 0c-2.183 2.961-1.057 7.535-2.353 9.871"/>
</g>
<use transform="matrix(-1 0 0 1 499.86 0)" width="100%" height="100%" xlink:href="#g"/>
<path d="m251.14 166.54s1.19-9.945 1.186-14.225c-2e-3 -3.37-0.814-10.835-0.814-10.835h-3.417s-0.52 7.429-0.442 10.789c0.1 4.281 1.186 14.27 1.186 14.27h2.301z"/>
<path d="m247.87 141.95h3.96l-0.465-2.666h-2.87z"/>
<path d="m248.13 139.82h3.539l-0.667-2.666h-2.18z"/>
<path d="m248.36 137.66h2.95l-0.5-2.666h-1.875z"/>
<path d="m250.91 134.67h-2.063l-0.21 0.964h2.441z"/>
<path d="m251.33 164.37h-2.72" stroke-width=".186"/>
<path d="m251.55 162.42h-3.17" stroke-width=".19"/>
<path d="m251.86 160.44h-3.669" stroke-width=".181"/>
<path d="m252.06 158.29h-3.972m3.999-2.152h-4.173" stroke-width=".184"/>
<path d="m252.24 154.17h-4.449m4.459-1.791h-4.65m4.622-2.161h-4.65"/>
<path d="m252.07 148.08h-4.394" stroke-width=".181"/>
<path d="m251.86 145.91h-4.064"/>
<path d="m251.72 143.96h-3.73" stroke-width=".184"/>
<path d="m249.91 119.04c-0.688-0.324-2.245-1.313-1.783-1.903l0.713-1.214c1.01-2.277-0.018-1.395-0.126-2.106-0.103-0.682 3.865-0.149 3.924 1.397 0.016 0.426-0.295 0.176-0.252 2.611l-0.755 1.458c-0.565 0.053-1.234-0.014-1.721-0.243z" fill="#0a328c" stroke="#0a328c"/>
<path d="m250.39 124.93-0.986-0.83 0.273-7.105 0.965 0.283z"/>
<path d="m251.67 119.25c0.62-0.362 1.024-1.443 0.65-2.085-1.016-1.287-1.673-0.756-3.378-1.336-0.34 0.362-1.055 1.059-0.902 1.579 2.242 1.056 1.372 0.156 2.114 0.288 0.4 0.07 0.658 0.545 1.516 1.554z" fill="#d20014" stroke="#d20014"/>
</g>
<g transform="scale(2)">
<use transform="matrix(1 0 0 -1 -.002 320.37)" width="100%" height="100%" xlink:href="#f"/>
<path d="m238.36 161.75c0 1.299-0.815 2.353-1.818 2.353-1.004 0-1.819-1.054-1.819-2.353v-1.276h3.637z" fill="#016a16" stroke="#fff" stroke-linecap="round" stroke-width=".181"/>
<ellipse cx="236.54" cy="160.06" rx="1.806" ry=".898" fill="#fff" stroke="none"/>
<path d="m236.13 161.08-0.31-3.297h1.382l-0.226 3.297z" fill="#016a16" stroke="#f1b517"/>
<path id="f" d="m238.54 160.12c-0.265 0.493-1.06 0.852-1.999 0.852-0.938 0-1.728-0.359-1.993-0.852a0.756 0.756 0 0 0-0.099 0.359c0 0.669 0.937 1.21 2.092 1.21s2.092-0.541 2.092-1.21a0.748 0.748 0 0 0-0.093-0.359z" fill="#016a16" stroke="#fff" stroke-linecap="round" stroke-width=".237"/>
<g id="e">
<path d="m246.04 172.79-7.06-2.19-3.076-5.254-10.893-0.535 0.378 3.94 9.28 1.777 0.882 1.581 10.666 2.968z"/>
<path d="m238.66 174.25-11.149-16.398-0.547 0.411 11.06 16.467z" fill="#503200"/>
<path d="m228.55 158.5-1.19-1.992c-0.223-0.368-0.561-0.49-1.059-0.228-0.484 0.255-0.437 0.76-0.24 1.123l1.101 1.852z" fill="#fff"/>
<path d="m239.99 164.13-22.496-2.286-0.547 3.27 22.387 2.252z"/>
<path d="m217.09 161-0.583 4.538h0.948l0.656-4.151zm3.755 0.738-0.255 4.08 0.583 0.07 0.474-3.622zm15.241 1.759-0.547 3.834 1.094-0.035 0.437-3.799zm3.351 0.105-0.779 4.434 1.238 0.18 0.354-2.332c0.1 0.468 0.531 0.824 1.046 0.824 0.589 0 1.07-0.464 1.07-1.032s-0.481-1.026-1.07-1.026c-0.409 0-0.78 0.24-0.94 0.687l0.231-1.662zm-8.119 0.72-3.094 3.482 0.361 0.423 3.97-2.711zm-7.193 8.681 3.094-3.482-0.361-0.423-3.97 2.711zm8.096-0.871-3.764-2.91-0.387 0.273 2.965 3.756zm-9.282-6.716 3.816 2.81 0.464-0.348-2.99-3.755zm4.152-2.319 0.365 4.573 0.513-0.022 1.207-4.452zm1.251 11.095-0.365-4.573-0.565-0.053-0.691 4.626zm5.06-6.163-4.795 0.51-0.073 0.457 4.85 0.634zm-11.408 1.583 4.68-0.74 0.1-0.364-4.842-0.54z"/>
<ellipse cx="227.69" cy="168.55" rx="1.27" ry="1.225"/>
<path d="m234.44 168.55c0 3.592-3.022 6.507-6.745 6.507s-6.745-2.915-6.745-6.507 3.022-6.507 6.745-6.507 6.745 2.915 6.745 6.507zm-1.347 0c0 2.874-2.419 5.207-5.398 5.207-2.98 0-5.398-2.333-5.398-5.207s2.419-5.207 5.398-5.207c2.98 0 5.398 2.333 5.398 5.207z" fill-rule="evenodd" stroke-linecap="round"/>
<path d="m223.48 165.26-1.057-0.796m8.611 0.025 0.902-0.92m1.031 9.128-1.109-0.87m-8.378 1.865 0.954-1.02"/>
<path d="m246.2 162.12 1.155 5.886-0.942 0.497-1.014-6.299z"/>
<path d="m245.59 161.36c-0.535-0.224-1.232 0.155-2.374-1.292-1.878 1.723-0.107 1.98 0.179 3.686 0.53 0.218 0.858-1.323 2.302-1.481 0.179-0.018 2.298-0.203 2.298-0.203l-0.532-0.726s-1.474 0.04-1.873 0.016z" fill="#fff"/>
<path d="m246.36 162.52-0.214-1.756c-0.232-0.62-1-0.087-1 0.275l0.197 1.619z" fill="#fff"/>
<path d="m240.76 167.37 0.019 1.637c-0.536 0.183-0.454 0.585-0.437 1.168l0.019 4.772c-0.19 0.316-0.778 0.331-1.054 0.58-0.277 0.247-0.242 0.729 1.02 1.046l0.975 0.035c1.486-0.325 1.793-0.818 1.048-1.095-0.397-0.148-0.919-0.324-1.117-0.557l0.033-1.137 0.964 0.035c0.26 0 0.753-0.652 0.77-1.185l5e-3 -2.47c-0.035-1.401-1.085-1.559-1.38-1.542l0.021-1.29zm1.63 2.73c0.018-0.4-0.555-0.757-0.786-0.767-0.23-0.01-0.734 0.467-0.751 0.867v1c0.034 0.367 0.327 1.61 0.915 1.701 0.28 0.043 0.64-0.4 0.64-0.767l-0.017-2.034z" fill-rule="evenodd"/>
<g fill="#fff">
<path d="m234.28 172.33c-0.636-0.257-0.63 1.172-0.63 1.172l1.002 0.01c0.44 0.2 0.792 0.843 0.512 1.159-0.231 0.261-2.177-0.441-2.308-0.037 0.344 1.941 2.917 2.688 3.848 1.839 0.91-0.83 1.141-3.048-1.817-3.629zm0.595 0.528-0.292 0.639"/>
</g>
<path d="m214.94 173.06-0.963-4.05m2.132 3.817-1.48-3.153m4.026 2.324-3.337-1.792m4.782 1.427-6.192-2.688"/>
<path d="m210.22 166.01s-2.254-0.036-2.656 0.122c-0.162 0.064 0.567 0.825 0.416 1.115-0.563 1.083-4.394 0.934-4.697 0.698-0.519-0.405 3.568-0.753 3.595-1.029 0.03-0.316-0.605-1.146-0.506-1.655 0.128-0.661 1.788-0.907 1.788-0.907z" fill="#d20014" stroke="#d20014"/>
<path d="m213.23 168.05-5.102-4.222s-0.225-0.238-0.413-0.033c-0.184 0.2 0.069 0.431 0.069 0.431l5.263 4.348z" fill="#503200"/>
<path d="m218.15 172.22c-0.09-0.087-4.155-3.608-4.155-3.608l-0.271-1.028s-0.628 0.425-0.858 0.645-0.587 0.819-0.587 0.819l1.138 0.052 3.595 3.294z"/>
<ellipse cx="232.53" cy="177.06" rx=".74" ry=".715"/>
<ellipse cx="230.64" cy="175.72" rx=".74" ry=".715"/>
<ellipse cx="228.09" cy="176.59" rx=".74" ry=".715"/>
<ellipse cx="224.15" cy="177.45" rx=".74" ry=".715"/>
<ellipse cx="222.49" cy="177.64" rx=".74" ry=".715"/>
<ellipse cx="220.85" cy="177.64" rx=".74" ry=".715"/>
<ellipse cx="219.18" cy="177.59" rx=".74" ry=".715"/>
<ellipse cx="219.99" cy="176.32" rx=".74" ry=".715"/>
<ellipse cx="221.6" cy="176.4" rx=".74" ry=".715"/>
<ellipse cx="223.14" cy="176.2" rx=".74" ry=".715"/>
<ellipse cx="222.36" cy="174.96" rx=".74" ry=".715"/>
<ellipse cx="220.85" cy="174.94" rx=".74" ry=".715"/>
<path d="m236.47 177.99c0-0.316-0.769-0.18-0.769-0.55 0-0.412 1.173-0.11 1.335 0.252 0.66-0.596 0.944-0.16 1.348 0.02 0.575-0.855 1.287-0.823 1.981-0.197 0.401-0.443 1.41-0.297 1.757 0.197 0.664-0.66 1.255-0.497 1.715-0.02 0.186-0.346 0.458-0.27 0.654-0.02 0.354-0.628 1.242-0.44 1.616-0.024 0.332-0.366 0.673-0.08 1.114 0.19 0.297-0.28 0.778-0.227 0.778 0.05 0 0.29-0.628 0.188-0.628 0.474 0 0.256 0.458 0.127 0.458 0.45 0 0.255-0.68 0.35-0.785-0.056-0.23 0.44-1.062 0.271-1.144-0.138-0.276 0.335-0.897 0.436-1.246-0.059-0.286 0.234-0.63 0.267-0.787 0.031-0.517 0.556-1.388 0.442-1.688-0.17l-0.294 0.012c-0.508 0.69-1.302 0.37-1.52-0.01-0.853 0.615-1.362 0.42-1.838 0.02-0.548 0.666-1.381 0.62-1.573 0-0.368 0.267-1.137 0.33-1.137 0.017 0-0.301 0.653-0.192 0.653-0.469zm1.655 0.15c0 0.143-0.195 0.26-0.436 0.26-0.24 0-0.435-0.117-0.435-0.26s0.195-0.26 0.435-0.26 0.436 0.117 0.436 0.26zm1.82-0.218c0 0.172-0.235 0.312-0.524 0.312s-0.524-0.14-0.524-0.312c0-0.173 0.235-0.312 0.524-0.312 0.29 0 0.524 0.14 0.524 0.312zm3.575 0.197c0 0.175-0.212 0.316-0.474 0.316s-0.474-0.141-0.474-0.316c0-0.174 0.212-0.316 0.474-0.316s0.474 0.142 0.474 0.316zm-1.904-0.083c0 0.22-0.207 0.4-0.463 0.4s-0.464-0.18-0.464-0.4 0.208-0.4 0.464-0.4 0.463 0.18 0.463 0.4zm4.06 0.01c0 0.198-0.186 0.358-0.414 0.358-0.229 0-0.415-0.16-0.415-0.358 0-0.197 0.186-0.357 0.415-0.357 0.228 0 0.414 0.16 0.414 0.357zm-1.244 0.083c0 0.128-0.12 0.231-0.267 0.231-0.148 0-0.268-0.103-0.268-0.23 0-0.128 0.12-0.231 0.268-0.231 0.147 0 0.267 0.103 0.267 0.23zm2.422 0.094c0 0.183-0.135 0.331-0.302 0.331-0.166 0-0.301-0.148-0.301-0.331s0.135-0.332 0.301-0.332c0.167 0 0.302 0.149 0.302 0.332z" fill-rule="evenodd"/>
</g>
<use transform="matrix(-1 0 0 1 499.86 0)" width="100%" height="100%" xlink:href="#e"/>
<g stroke-width=".231">
<path d="m249.84 165.72c-2.512 0-4.55 0.944-4.55 2.102 0 0.199 0.057 0.39 0.169 0.572 0.543 0.629 2.307 1.087 4.398 1.087 1.957 0 3.625-0.402 4.277-0.97 0.164-0.216 0.256-0.446 0.256-0.689 0-1.158-2.038-2.102-4.55-2.102z" fill="#0a328c" stroke="#0a328c"/>
<path d="m254.43 167.98v7.058c0 0.828-2.048 1.5-4.572 1.5s-4.573-0.672-4.573-1.5v-7.058c0 0.828 2.049 1.5 4.573 1.5s4.572-0.672 4.572-1.5z" stroke-width=".187"/>
<path d="m245.28 167.98v1.082l2.22 6.845 1.772-5.264 1.946 5.465 1.425-5.159 1.783 3.469v-1.92l-1.656-3.363a8.25 8.25 0 0 1-0.593 0.134l-1.028 3.812-1.447-3.604a14.522 14.522 0 0 1-0.715-0.023l-1.453 3.627-1.661-4.367c-0.376-0.217-0.593-0.466-0.593-0.734z" fill="#d20014" stroke="#d20014" stroke-width=".183"/>
<path d="m254.43 173.72v1.318c0 0.827-2.048 1.499-4.572 1.499s-4.573-0.672-4.573-1.5v-1.317c0 0.828 2.049 1.5 4.573 1.5s4.572-0.672 4.572-1.5z" fill="#0a328c" stroke="#0a328c" stroke-width=".187"/>
<path d="m251.74 175.08c-0.372 0.055-0.769 0.097-1.185 0.118l0.011 1.317a12.24 12.24 0 0 0 1.186-0.118zm-4.869-0.23-0.012 1.312c0.353 0.1 0.75 0.185 1.186 0.246v-1.317a8.907 8.907 0 0 1-1.174-0.241zm-1.586-1.132v1.317c0 0.246 0.185 0.474 0.506 0.679l0.023-1.3c-0.336-0.21-0.529-0.444-0.529-0.696zm9.146 0.14-0.023 6e-3c-0.08 0.267-0.379 0.516-0.831 0.723l6e-3 1.312c0.53-0.245 0.848-0.54 0.848-0.863z" stroke-width=".187"/>
<path d="m254.43 168.03v7.012c0 0.828-2.048 1.5-4.572 1.5s-4.573-0.672-4.573-1.5v-7.012" fill="none" stroke-width=".187"/>
<path d="m253.39 167.52c0 0.501-1.584 0.907-3.537 0.907-1.954 0-3.538-0.406-3.538-0.907s1.584-0.907 3.538-0.907c1.953 0 3.537 0.406 3.537 0.907z" fill="#fff" stroke="#fff" stroke-width=".192"/>
<path d="m248.7 168.19 0.157 1.25c0.307 0.022 0.626 0.038 0.953 0.04l0.232-1.29zm4.103-0.303-0.912 0.247 0.058 1.177c0.31-0.053 0.602-0.117 0.866-0.19zm-5.404-1.908c-0.259 0.076-0.5 0.165-0.72 0.263l0.127 0.945 0.581-0.185zm2.44-0.373c-0.122 0-0.241 7e-3 -0.36 0.011l0.197 1.183 0.605-0.012 0.238-1.154a9.727 9.727 0 0 0-0.68-0.028zm2.673 0.418-0.122 1.034 0.691 0.244 0.076-1.015a5.259 5.259 0 0 0-0.645-0.263z"/>
<path d="m245.99 168.8 0.184-1.288-0.935-0.506 0.028 1.465zm8.403-0.278 0.042-1.288-0.876 0.262z" stroke-width=".183"/>
</g>
<path d="m263.69 160.03c0.83-0.115 2.062 1.024 2.136 2.433 0.06 1.118-1.69 1.06-1.69 1.06-0.09 0.458-1.055 0.881-1.84 0.916-0.763 0.033 0.207-1.432 0.207-1.432-0.475-1.26 0.148-2.748 0.148-2.748z"/>
<path d="m262.5 162.95 0.801-0.029s0.061 0.414 0.208 0.43c0.157 0.017 0.326-0.401 0.326-0.401l1.217-0.029"/>
<path d="m264.13 160.86c0.68-0.491 0.084-1.48-0.386-1.489l-1.098 0.029c-0.517 0.01-1.392 0.573-1.276 1.06 0.102 0.423 0.387 0.617 0.831 0.543 0.202-0.033 0.626-0.563 0.831-0.572 0.275-0.013 0.878 0.588 1.098 0.429z" fill="#d20014" stroke="#f1b517"/>
<path d="m214.24 174.86c-0.617 0.078-0.731 0.788-0.5 1.44-2.686 0.756-5.086 1.74-7.455 2.406-0.095-0.474 1.174-1.845 1.174-1.845 0.336 0.162 0.587 0.93 0.587 0.93 0.084-1.578 1.639-2.628 1.639-2.628-0.924-0.122-3.732 0.967-4.068 1.412 0 0 1.087-0.121 1.255 0 0 0-2.14 2.312-2.237 3 0.333 0.75 4.027 1.311 4.027 1.311-0.058 0.195-1.087 0.93-1.087 0.93 1.47 0.323 3.685-0.717 4.347-1.35 0 0-1.728-0.143-3.074-1.234 0 0 0.277 0.68 0.11 1.004 0 0-2.1-0.605-2.318-0.953 6e-3 -0.03 4.966-1.315 7.368-2.001 0.088 0.429 0.565 1.24 1.138 1.048 0.374-0.125 0.256-0.866 0.117-1.39a0.77 0.77 0 0 0 0.505 0.185c0.422 0 0.767-0.327 0.767-0.735 0-0.407-0.345-0.74-0.767-0.74a0.757 0.757 0 0 0-0.72 0.505c-0.096-0.453-0.345-1.354-0.808-1.295zm1.889 1.528c0 0.19-0.16 0.345-0.358 0.345a0.352 0.352 0 0 1-0.358-0.345c0-0.19 0.16-0.345 0.358-0.345 0.197 0 0.358 0.154 0.358 0.345z" fill-rule="evenodd"/>
<path d="m293.07 177.88c0.183-0.367-0.162-2.212-0.162-2.212-0.373 0.042-0.882 0.681-0.882 0.681 0.48-1.511-0.865-4.037-0.865-4.037 0.91 0.19 3.945 3.128 4.103 3.657 0 0-1.33-0.474-1.53-0.415 0.217 1.506 1.258 2.205 1.65 2.988 0 0-1.726 0.38-1.553 1.822l-1.127 0.021c-0.39-0.481 0.152-1.276 0.152-1.276l-7.739-3.241c-0.499-0.21-1.62-0.718-1.452-1.318 0.17-0.604 2.016 0.251 2.47 0.398z"/>
<path d="m285.64 176.54 0.91-1.673c0.326-0.44-0.346-0.92-0.823-0.356l-1.02 1.527c-0.454 0.837 0.5 1.067 0.933 0.502z"/>
</g>
<g fill="#fff" stroke-width=".366">
<path d="m462.73 360.73-0.126-3.65-4.414 0.244-0.252 3.974z"/>
<path d="m430.47 365.85-5.902-3.31c24.338 2.23 29.308-6.259 35.189-6.713 3.615-0.282 4.18 4.004-2.826 1.965l1.812 4.483s-17.277 9.719-34.259 5.704zm106.02-5.116 0.126-3.65 5.398 0.125 0.253 3.974z"/>
<path d="m569.88 364.95 5.553-3.03c-27.877 0.83-21.53-4.579-35.478-6.097-3.604-0.39-6.314 4.242 2.825 1.965l-1.811 4.483 4.384 4e-3c9.496 6.253 22.312 6.811 30.803 4.804l-6.276-2.13z"/>
<path d="m456.84 357.82v6.308s15.456 5.735 43.038 5.735c27.7 0 43.037-5.735 43.037-5.735v-6.308s-11.698 5.39-43.037 5.39c-31.221 0-43.038-5.39-43.038-5.39z"/>
</g>
<path d="m459.15 364.16 1.364-4.619 0.633 0.175-1.203 4.073 2.358 0.648-0.16 0.545zm4.473-2.031 0.076-0.907 0.203-0.778 0.675 0.164-0.203 0.778-0.386 0.832-0.365-0.09zm6.65-0.312 0.646 0.127-0.574 2.719c-0.1 0.473-0.234 0.838-0.404 1.094s-0.418 0.443-0.744 0.56c-0.326 0.119-0.724 0.131-1.195 0.039-0.457-0.09-0.814-0.24-1.073-0.448a1.32 1.32 0 0 1-0.483-0.782c-0.063-0.313-0.042-0.718 0.063-1.217l0.573-2.718 0.646 0.126-0.573 2.716c-0.086 0.409-0.11 0.718-0.073 0.927 0.038 0.209 0.142 0.385 0.312 0.527 0.17 0.143 0.393 0.241 0.67 0.296 0.475 0.093 0.835 0.056 1.08-0.112 0.246-0.168 0.432-0.547 0.556-1.138zm0.727 5.02 0.803-4.739 0.667 0.105 1.95 4.129 0.63-3.722 0.624 0.099-0.804 4.74-0.667-0.106-1.948-4.131-0.632 3.724zm5.082 0.768 0.684-4.757 0.652 0.087-0.683 4.757zm1.875-2.098c0.094-0.792 0.388-1.388 0.881-1.787 0.494-0.4 1.09-0.561 1.787-0.484 0.457 0.05 0.856 0.2 1.197 0.451 0.342 0.251 0.587 0.576 0.734 0.973 0.148 0.398 0.194 0.835 0.137 1.313-0.057 0.484-0.21 0.905-0.457 1.265-0.248 0.36-0.569 0.617-0.963 0.772-0.395 0.156-0.806 0.21-1.236 0.163a2.403 2.403 0 0 1-1.21-0.463 2.112 2.112 0 0 1-0.728-0.98 2.622 2.622 0 0 1-0.142-1.223zm0.673 0.084c-0.068 0.575 0.039 1.045 0.32 1.412 0.282 0.366 0.664 0.576 1.148 0.629 0.492 0.054 0.917-0.068 1.275-0.367 0.358-0.3 0.573-0.756 0.646-1.37a2.38 2.38 0 0 0-0.084-1.04 1.522 1.522 0 0 0-0.517-0.739 1.662 1.662 0 0 0-0.854-0.336 1.73 1.73 0 0 0-1.25 0.328c-0.37 0.27-0.598 0.765-0.683 1.483zm4.617 2.832 0.406-4.786 0.673 0.053 2.288 3.963 0.318-3.758 0.63 0.05-0.406 4.787-0.673-0.054-2.287-3.966-0.32 3.76zm6.979 0.486 0.217-4.798 3.355 0.141-0.025 0.566-2.697-0.114-0.068 1.486 2.334 0.099-0.025 0.566-2.334-0.099-0.099 2.18-0.658-0.028zm3.667 0.156 2.008-4.766 0.71 0.014 1.94 4.84-0.75-0.014-0.552-1.465-2.081-0.039-0.576 1.444-0.7-0.014zm1.475-1.945 1.688 0.032-0.493-1.34a12.78 12.78 0 0 1-0.333-1.002 5.96 5.96 0 0 1-0.287 0.912zm3.828 2.022 0.01-4.803 0.659 1e-3 -0.01 4.803-0.66-1e-3zm3.084-0.014-0.063-4.236-1.64 0.023-8e-3 -0.567 3.946-0.054 8e-3 0.567-1.647 0.022 0.063 4.236-0.66 0.01zm4.884-0.116-0.232-4.797 0.658-0.03 0.205 4.231 2.449-0.11 0.027 0.566zm3.35-0.146 1.553-4.921 0.708-0.049 2.386 4.65-0.749 0.052-0.686-1.41-2.076 0.142-0.438 1.488zm1.287-2.065 1.684-0.116-0.617-1.291a12.89 12.89 0 0 1-0.425-0.97c-0.04 0.312-0.107 0.623-0.2 0.934zm5.844 1.516-0.546-4.774 3.338-0.355 0.064 0.563-2.683 0.286 0.169 1.478 2.322-0.247 0.064 0.563-2.322 0.248 0.248 2.168zm3.65-2.74c-0.117-0.79 0.012-1.438 0.385-1.945s0.907-0.808 1.601-0.904c0.455-0.062 0.88-0.014 1.277 0.146 0.396 0.159 0.718 0.413 0.965 0.762s0.406 0.76 0.476 1.236c0.072 0.482 0.035 0.928-0.11 1.336a2.017 2.017 0 0 1-0.73 0.982c-0.34 0.247-0.725 0.4-1.153 0.459a2.442 2.442 0 0 1-1.292-0.153 2.17 2.17 0 0 1-0.961-0.772 2.655 2.655 0 0 1-0.458-1.148zm0.674-0.083c0.084 0.572 0.31 1.002 0.679 1.288 0.368 0.285 0.793 0.395 1.275 0.329 0.49-0.068 0.87-0.29 1.138-0.667 0.268-0.376 0.356-0.87 0.266-1.482a2.403 2.403 0 0 0-0.354-0.986 1.562 1.562 0 0 0-0.694-0.59 1.684 1.684 0 0 0-0.914-0.117 1.699 1.699 0 0 0-1.124 0.623c-0.287 0.352-0.378 0.886-0.272 1.602zm5.227 1.612-0.889-4.726 2.172-0.38c0.436-0.076 0.776-0.092 1.02-0.047 0.242 0.045 0.452 0.163 0.628 0.354 0.177 0.192 0.29 0.417 0.338 0.677 0.063 0.335 4e-3 0.637-0.178 0.907s-0.501 0.476-0.96 0.62c0.187 0.05 0.332 0.106 0.436 0.167 0.22 0.135 0.44 0.313 0.656 0.535l1.094 1.137-0.816 0.142-0.833-0.87c-0.242-0.25-0.44-0.44-0.59-0.568a1.498 1.498 0 0 0-0.388-0.259 1.022 1.022 0 0 0-0.32-0.074 2.13 2.13 0 0 0-0.365 0.041l-0.752 0.132 0.395 2.098zm0.152-2.754 1.393-0.244c0.296-0.051 0.522-0.122 0.678-0.21a0.735 0.735 0 0 0 0.378-0.797 0.716 0.716 0 0 0-0.356-0.507c-0.195-0.115-0.474-0.14-0.837-0.076l-1.55 0.271zm7.862-0.523 0.679 0.018c-0.016 0.538-0.168 0.98-0.455 1.323-0.288 0.343-0.685 0.57-1.19 0.68-0.524 0.113-0.973 0.103-1.35-0.031a2.036 2.036 0 0 1-0.956-0.731 3.211 3.211 0 0 1-0.55-1.2c-0.114-0.488-0.117-0.935-8e-3 -1.34 0.108-0.405 0.319-0.74 0.632-1.007a2.505 2.505 0 0 1 1.111-0.538c0.486-0.106 0.922-0.075 1.31 0.091 0.386 0.167 0.695 0.453 0.927 0.857l-0.6 0.28c-0.192-0.315-0.413-0.528-0.664-0.637-0.25-0.11-0.538-0.128-0.862-0.058-0.374 0.081-0.665 0.235-0.876 0.462-0.21 0.227-0.332 0.497-0.366 0.81a2.78 2.78 0 0 0 0.058 0.933c0.093 0.398 0.234 0.733 0.424 1.004s0.428 0.452 0.717 0.544c0.288 0.092 0.58 0.106 0.876 0.042 0.36-0.078 0.641-0.245 0.844-0.5 0.203-0.254 0.303-0.588 0.299-1.001zm1.83 1.306-1.339-4.626 3.467-0.934 0.158 0.546-2.832 0.763 0.41 1.417 2.652-0.715 0.157 0.543-2.653 0.715 0.456 1.574 2.944-0.793 0.158 0.546z" fill="#000" stroke="none"/>
</g>
</svg>
