<?xml version="1.0" encoding="UTF-8"?>
<svg xmlns="http://www.w3.org/2000/svg" xmlns:xlink="http://www.w3.org/1999/xlink" width="450" height="300">
<path d="M0 0h450v300H0z" fill="#ce1126"/>
<g transform="translate(-75)" fill="#fcd116" stroke="#bd9c08" stroke-width="1.2">
<path d="M349.4 141.3c8.75 2.34 22 1.75 27.95 8.7-8.75-2.35-19.55 11.8-27.96 8.7 7.42 5.2-108.05 0-98.8 0-8.75-2.34-22-1.75-27.95-8.7 8.75 2.35 19.55-11.8 27.96-8.7-7.42-5.2-20.3-9.24-23.3-17.76 7.44 5.2 22.55-4.44 29.27 1.38-5.2-7.42-16.07-15.57-15.83-24.64 5.2 7.43 22.7 3.45 27.02 11.3-2.34-8.76-9.4-20.05-6.44-28.57 2.35 8.77 19.98 10.94 21.53 19.87.8-9.03-2.4-22.1 3.72-29.05-.8 9.03 15.13 17.1 13.43 26.03 3.83-8.22 5.95-21.5 13.43-26.03-3.83 8.22 8.67 21.2 3.72 29.05 6.4-6.4 12.6-18.3 21.53-19.86-6.4 6.42.42 22.75-6.44 28.58 8.2-3.83 17.9-12.88 27.02-11.3-8.22 3.83-7.4 21.54-15.83 24.64 9.04-.8 21.17-5.9 29.26-1.38-9.04.8-14.05 17.75-23.3 17.75z"/>
<path d="M258.36 150l-31.6-12.9 34.1-1.34-25.26-22.94 32.5 10.42-15.9-30.2 26.98 20.9-4.6-33.8 18.2 28.86L300 75.65l7.23 33.35 18.2-28.87-4.6 33.8 26.96-20.9-15.9 30.2 32.5-10.4-25.27 22.93 34.1 1.33-31.6 12.9 31.6 12.9H226.76l31.6-12.9z"/>
<circle cx="300" cy="150" r="41.358"/>
<path d="M313.6 49.86l22.18.15c.14-.93-1.9-2.8-3.65-3.07-5.6-.88-9.82.94-16.64 1l-1.9 1.93z"/>
<path d="M269.43 44.64c5.2 6.58 15.3 11.16 24.95 11.22 13 .08 27.42-10.44 44.85-13.67L282.33 41c-7.38-5.04-12.97-4.4-16.78-1.27l-10.88.32c-1.54.84 1.27 4.35 3.55 4.48l11.2.1z"/>
<path d="M295.16 40.87c-2.07-9.52-9.7-13.62-18.9-14.84-10.6-1.4-35-2.85-51.23-7.5 7.02 6.9 21.7 10.34 31.92 11.9 10.8 1.65 21.33 4.05 29.67 10.35l8.54.1z"/>
<path d="M288.27 47.22c3.4 4.35 8.65 4.1 14.3.3 5.65-3.78 11.78-14.44 14.74-14.6 20.7-1.2 45.73-9.95 57.67-16.7-15.14 2.15-30.14 4.58-45.4 4.64-26.06.1-29.14 11.97-39.76 20.3"/>
<path d="M292.3 42.1c5.56-3.53 10.07-8.15 15.27-12 8.6-6.38 18.55-6.57 29.23-6.7 9.46-.12 26.04-4.07 35.04-6.18" fill="none"/>
<path d="M286.53 40.44c-1.63-8.5-9.6-11.07-19.66-12.6-10.95-1.66-22.12-2.6-33.04-5.6-2.7-.75-5.23-2.07-7.85-3.1" fill="none"/>
<path d="M290.02 52.98c10.28.76 17.9-2.33 26.68-6.7" fill="none"/>
<path d="m254.63 41.83h12.96" fill="none"/>
<circle cx="271.75" cy="40.437" r="1.62" fill="#bd9c08" stroke="none"/>
</g>
<path d="M0 165h450v135H0z" fill="#003f87"/>
<path id="a" d="M0 257.14c15 0 30 12.86 45 12.86s30-12.86 45-12.86S120 270 135 270s30-12.86 45-12.86S210 270 225 270s30-12.86 45-12.86S300 270 315 270s30-12.86 45-12.86S390 270 405 270s30-12.86 45-12.86V235.7c-15 0-30 12.87-45 12.87s-30-12.86-45-12.86-30 12.87-45 12.87-30-12.86-45-12.86-30 12.87-45 12.87-30-12.86-45-12.86-30 12.87-45 12.87-30-12.86-45-12.86-30 12.87-45 12.87S15 235.7 0 235.7v21.44z" fill="#fff"/>
<use y="-42.857" width="600" height="300" xlink:href="#a"/>
<use y="-85.714" width="600" height="300" xlink:href="#a"/>
</svg>
