<?xml version="1.0" encoding="UTF-8"?>
<svg xmlns="http://www.w3.org/2000/svg" xmlns:xlink="http://www.w3.org/1999/xlink" width="900" height="600" version="1.1">
<rect width="900" height="600" fill="#00247d"/>
<path d="m0 300h450v-300h450v600h-900z" fill="#00247d"/>
<path transform="matrix(1.1803 0 0 1.1938 -210.19 -.45691)" d="m758.27 90.869c-3.1372.92293-6.6128 4.7883-7.783 6.7385 0-1.9968-1.1892-5.1698-1.9879-6.3679-.7987 3.1949-3.614 5.9844-1.6172 10.377-3.517-1.1724-6.6487-1.5944-9.4002 1.3814-3.2528-4.2984-7.0162-7.5991-11.354-9.3666 4.0032 5.8715 8.7204 13.532 12.601 23.686-7.3591-10.533-13.041-13.185-16.61-16.105 1.7122 3.2343 4.5968 9.015 7.7156 14.993-6.2513-5.4179-13.459-9.7202-21.294-10.984 5.3601 3.0629 13.031 9.8599 19.205 17.925-7.0023-4.1219-14.392-7.4369-21.597-7.9515 6.2899 3.2947 14.824 9.9461 21.563 16.611-6.8192-4.4828-14.218-8.1243-21.159-9.0296 3.8672 2.3203 12.211 8.6516 18.834 14.016-.20895.12336-.39731.23607-.60647.37062-.20485.13182-.43795.26241-.64011.40431-.10113.071-.16938.12873-.26954.20216-.006.006-.0279.0278-.0338.0337-.0116.005-.0558.0279-.0674.0337-.004.004-.0294.0293-.0336.0337-.0175.018-.0549.0558-.0674.0674-.23331.17515-.47838.35085-.7076.53909-.32744.26891-.65854.54765-.97703.84232-.0956.0884-.1751.17889-.26954.26954-.008.008-.0254.0265-.0338.0337-.0341.0277-.10081.0732-.13477.10108-.008.007-.0259.026-.0336.0337-.004.004-.0301.0296-.0337.0337-.0277.0339-.0735.10062-.10102.13478-.007.008-.026.0259-.0337.0337l-.80862.40431c-1.5526-.77625-4.5917.34929-5.8625 1.1456-2.3405-.2629-4.3358-1.4272-5.7278-3.1671-2.7956-3.5943-10.384-5.1828-13.578-1.9879-1.1982.79874-2.778.81357-3.9757 1.2129-1.997 2e-5-4.4039 1.97-3.6052 5.9636 1.5974-1.1981 2.0027 0 3.2009 0 .0623-.0312.11989-.0503.16841-.0674.011-.006.0551-.0274.0674-.0337.003 1e-5.03-.00014.0338 0 .018-.00029.0577-.00019.0674 0 .004-2e-4.0306 3e-5.0336 0 .003.003.0302.0299.0338.0337.004.004.0269.027.0336.0337.006.006.0275.0276.0337.0337-.00032.004 0 .0307 0 .0337-.00021.003 0 .0307 0 .0337.0221.16523-.0322.44017-.0674.74124.00011.006.00021.0296 0 .0337-.007.11517 0 .25269 0 .37062-.00011 1.9968 4.3619 5.9924 8.3558 5.593 1.5101 0 2.7474.1915 3.7398.47169.003-7e-5.0303.00033.0338 0 .0791.0226.15957.0437.23579.0674.003-.00022.0306 5e-5.0338 0 1.7086.53821 2.6706 1.3568 3.1671 1.8531.14975.14976.27622.26297.37056.37062.0166.0166.017.0171.0337.0337.006.006.0277.0277.0336.0337-.00033.003 1e-4.0307 0 .0337-.00011.003.00021.0302 0 .0337.006.006.0275.0277.0337.0337.007 9e-5.0317.00026.0336 0 .009.0177.0295.0583.0337.0674.009.0179.0277.0559.0336.0674-.00033.001-.00011.026 0 .0337.008 9e-5.0318.00031.0337 0 .0733.17842.11461.40365.16841.64016.00011.003.00011.031 0 .0337 0 .003-.00021.0307 0 .0337.006.006.0276.0275.0337.0337.0235.14832.0332.33731.10102.57277.006.006.0274.0281.0337.0337-.00021.002-.00011.026 0 .0337.0125.0483.0199.0871.0336.13477-.00011.003.00022.0298 0 .0337.006.006.0277.0278.0338.0337-.00011.003.00032.0306 0 .0337.002.001.0319.0325.0336.0337 1e-4.008.00021.0323 0 .0337 1e-4.007.00043.0306 0 .0337-.00033.003 1e-4.0308 0 .0337 1e-4.008.00021.0322 0 .0337.0355.0979.0898.19091.13477.30323.53358.53352.93509.92094 1.0108 1.314 0 .0118.00021.0556 0 .0674-.00011.007-.00022.0302 0 .0337.00043.014.00043.0533 0 .0674.00021.0117 0 .0556 0 .0674.00011.003 0 .0308 0 .0337-.006.0117-.0275.0556-.0336.0674.00032.0117-.00022.0557 0 .0674-.006.0117-.0277.0557-.0338.0674-.15913.36738-.56517.81605-1.314 1.4151-2.7956 2.3962-4.7923 7.9722 0 12.365 1.9107 1.4698 4.9064 3.2087 8.659 4.2453-.40895.15534-.74081.36007-.97704.57278-.0443.0413-.0963.0918-.13477.13477-.0763.0897-.14922.20122-.20216.30323-.10652.21675-.16851.47507-.16851.74124-3.0549-.0358-5.6001 1.3413-8.3894 3.2008-3.1948 1.9968-4.0039 7.5868-.80862 10.782 1.872 1.716 3.5493 2.7091 5.2223 3.2008h-35.95c-.00011 10.783 0 32.751 0 51.92 0 7.9217-.00022 15.393 0 21.159-.00011 1.5974 0 3.1869 0 4.7844-.00011.21217-.00097.42953 0 .64017.00011.0547-.00022.11382 0 .16846.002.46713-.006.9214 0 1.3814.00054.0565-.00065.11203 0 .16846.004.25832-.005.51872 0 .77494.004.25826.0288.51799.0336.77493.004.14685-.004.2918 0 .438.008.36757.0238.74701.0337 1.1119.00054.0167.00011.0505 0 .0674-1e-4.008-.00043.0254 0 .0337.4041 14.719 2.4307 27.22 5.8288 37.972-.74404-.66455-1.4717-1.2434-2.1226-1.8194.35386.39472.69035.85119 1.0444 1.3477-.48571-.534-1.0485-1.0185-1.6509-1.5162-1.3728-1.248-2.9107-1.776-4.5148-1.7857-3.5297-.0215-7.2375 2.3857-9.434 4.5822-.58415.5842-1.1405 1.13-1.6172 1.6846.00064.004-.00022.0307 0 .0337-.006.003-.0268.0316-.0338.0337-.003.001-.0308-.001-.0336 0 .00065.004-.00021.0307 0 .0337-.006.006-.028.0281-.0337.0337-3.516 3.561-9.9628 8.361-15.061 10.546-5.1918 2.7955-9.582 7.2131-5.1887 15.6 2.9736 5.677 6.2323 10.874 9.7371 15.667-4.6064.55318-9.8502-.79053-15.734-5.6941-.1545-.13728-.33466-.25858-.50544-.33692-.71084-1.657-1.3395-3.134-1.8868-4.4474-1.9968-4.7924-5.9844-10.391-10.377-8.7938-4.393 1.5974-3.9946 4.7952-2.7964 8.3895.79557 3.978 3.9459 19.43 7.9177 25.472.003.003.0245.0247.0337.0337.009.009.0306.0304.0336.0337 2.3961 6.3898 19.553 14.792 39.522 4.0094.15504-.0866.31784-.18206.4717-.26954 26.062 23.131 58.324 30.627 81.402 30.627 23.119 2e-5 55.228-7.5328 81.199-30.761.2235.12818.44744.27791.67385.40431 19.569 10.783 36.726 2.3804 39.522-4.0094.006-.006.0276-.028.0337-.0337-.00021-.004 0-.0306 0-.0337 3.5791-6.0353 6.7573-21.492 7.9515-25.472.79881-3.5943 1.5964-6.792-2.7966-8.3895-4.393-1.5974-8.3805 4.0014-10.377 8.7938-.54652 1.3115-1.1772 2.7934-1.8868 4.4474-.16938.0783-.35095.19964-.50534.33692-5.9971 4.9975-11.37 6.2985-16.105 5.6604 3.4854-4.7827 6.7376-9.9712 9.7035-15.633 4.3929-8.3866.003-12.804-5.1887-15.6-5.2198-2.2371-11.496-7.2336-15.229-10.815.00011-.004-1e-4-.0306 0-.0337-.006-.006-.0275-.0279-.0337-.0337-.003-.002-.0246-.0246-.0336-.0337-.004 3e-4-.0307-8e-5-.0338 0-.009-.009-.0307-.0313-.0336-.0337-.42792-.45915-.87601-.93774-1.3814-1.4151-2.7104-3.0977-8.8416-6.5984-13.578-3.1671.0216-.0289.0135-.0706.0336-.10108-1.093.85192-2.057 1.7002-3.0997 2.7291.67126-2.1631 1.3027-4.3784 1.8532-6.6712-.0114.00027-.0562-3e-4-.0674 0 1.3997-5.651 2.4498-11.757 3.1334-18.363.0456 7e-5.0891 0 .13477 0 .67386-5.0544.75849-10.099.77499-15.633.003-.20213-.003-.40353 0-.60647 0-.0558-.00022-.11261 0-.16847.009-.77881.0336-1.5676.0336-2.3585v-4.7844-73.08h-107.34c.60453-.11697 1.2378-.25455 1.8868-.40431 3.4056-.92881 6.806-2.8366 9.4677-3.6388.0113-.00014.0558.00018.0674 0 2.9282.36257 6.0977-.60634 12.028-1.9542-.39558-.19776-.73833-.4835-1.0782-.77494.21111.13764.44378.25559.67386.37062 3.5943 1.9968 13.603.79376 15.6-.40431 3.07 2.3026 13.148 2.391 14.993.97709.0506-.0406.0979-.0918.13477-.13477.36151.44653.78997.84728 1.2467 1.1792 2.7867 2.7868 10.717 2.7792 13.14 1.9879.27483.32849.6828.7552 1.2129 1.1792 2.7955 1.9968 9.9928 2.4051 11.59-1.9879 1.1505-2.301 1.6453-5.2765-.13477-7.9852.85251-.39961 1.3426-1.4037.9434-3.2008-1.5101-10.571-7.6533-12.576-8.996-17.15.19116-.25066.39051-.50702.57283-.74124 3.5846.31936 6.1217.21231 7.6146-1.2803 1.1981-1.5974 2.8163-4.39 4.4137-5.1887.44927-.29952.71741-.60597.80862-.84232.008-.024.0264-.0712.0338-.10107-.00011-.003.00011-.0301 0-.0337.00043-.0118.00011-.0559 0-.0674-.006-.006-.0275-.0279-.0338-.0337.00011-.003-.00021-.0299 0-.0337-.006-.006-.0276-.0278-.0336-.0337-.00011-.008-.00032-.0318 0-.0337-.004.00035-.0306-1e-4-.0337 0-.0176-.009-.0579-.0285-.0674-.0337-.006-.006-.0278-.0276-.0336-.0337-.006-.002-.0273.002-.0337 0-.007-.002-.0266-.032-.0336-.0337-.0148-.003-.0515.002-.0674 0-.0331-.004-.0971.001-.13477 0-.1945-.002-.46447.0234-.77499.10108-1.5434.30871-2.6186.82786-4.6832.87601.0299-.0368.0764-.10322.10102-.13477.0235-.0315.0758-.0983.10114-.13477.02-.0365.0526-.10414.0674-.13478.006-.0115.0276-.0553.0336-.0674 0-.003.00032-.0304 0-.0337.006-.0109.0274-.055.0338-.0674 0-.003.00021-.0304 0-.0337.006-.0115.0274-.0552.0336-.0674 0-.003 1e-4-.03 0-.0337.002-.0249.00053-.0766 0-.10108 1e-4-.004 0-.0306 0-.0337-.006-.012-.0281-.0563-.0336-.0674.00032-.0117-.00022-.0558 0-.0674-.006-.0117-.0276-.0557-.0338-.0674-.009-.0176-.0284-.0561-.0336-.0674-.006-.0112-.0249-.0499-.0338-.0674-.006-.0118-.028-.0557-.0336-.0674-.0127-.0141-.0482-.0487-.0674-.0674-.009-.008-.028-.0276-.0338-.0337-.0239-.024-.0716-.074-.10102-.10108-.0327-.0262-.0981-.076-.13477-.10108-.34933-.22963-.891-.42364-1.5836-.53908-1.9969-.39937-3.1769-1.9978-3.9757-2.7965-.23709-.23712-.47256-.47596-.7075-.70754-.46997-.46315-.95213-.90777-1.4151-1.3477-.058-.055-.11073-.11385-.16852-.16847-.40485-.38233-.811-.74841-1.2129-1.1119-.007-.006-.0266-.0268-.0336-.0337-.028-.0284-.0732-.0728-.10113-.10108-.007-.007-.0265-.0272-.0336-.0337-.22954-.2061-.47849-.4068-.7076-.60647-.004-.003-.0271-.0268-.0336-.0337-.0238-.0168-.0773-.0506-.10113-.0674-.007-.007-.0301-.0306-.0336-.0337-.22922-.19803-.44474-.3814-.67385-.57278-.007-.007-.0302-.0304-.0338-.0337-.028-.0287-.0731-.0725-.10102-.10108-.005-.005-.0249-.0249-.0338-.0337-.17197-.14226-.33326-.2659-.50534-.40431-.11482-.0923-.25574-.17901-.37067-.26954-.1724-.13581-.33251-.27249-.50534-.40432-.0577-.0439-.11083-.0913-.16851-.13477-.17305-.13049-.36529-.27788-.53909-.40431-.11579-.0843-.2207-.1534-.33692-.23585-.11623-.0824-.22038-.15526-.33693-.23585-.0583-.0403-.14372-.0949-.20216-.13477-.1752-.11948-.32938-.2217-.50534-.33693-.0588-.0384-.10964-.0968-.16851-.13477-.29445-.18965-.61165-.36159-.90965-.53908-.11925-.071-.21736-.13314-.33693-.20216-.0599-.0345-.14221-.0671-.20216-.10108-.0602-.034-.10824-.0676-.16851-.10107-.12054-.067-.24938-.13718-.37057-.20216-.1214-.065-.24862-.13922-.37067-.20216-.061-.0315-.10739-.0701-.16841-.10107-.49003-.24762-.97833-.46004-1.4825-.67386-.25229-.10691-.5186-.20502-.77499-.30323-.064-.0246-.13779-.0771-.20215-.10108-.0644-.024-.13747-.0439-.20216-.0674-.12927-.0469-.24032-.0901-.37057-.13477-.13046-.0447-.27299-.0924-.40431-.13477-.004.00013-.0307-4e-5-.0338 0-.0308-.007-.10393-.0269-.13477-.0337-.003 4e-5-.03-.00012-.0336 0-.19838-.0619-.37164-.14537-.57283-.20216-.003 2e-5-.0305-.00026-.0336 0-.0232-.007-.0779-.0275-.10113-.0337-.0115.00047-.0559 3e-5-.0674 0-.24281-.0661-.48798-.13893-.74124-.20216 9.2613-6.027 21.438-11.526 26.28-13.342-6.5356-1.2568-14.652.80458-21.563 3.504 6.9699-7.092 15.209-15.356 20.35-20.283-11.326 3.7752-22.04 12.294-29.144 19.171 6.0646-8.7019 16.638-21.422 24.36-29.144-14.404 5.6945-23.464 15.588-28.841 22.642 2.9821-8.6582 9.5867-20.941 14.084-25.438-6.7053 3.0948-11.61 7.3354-15.296 12.332 1.7836-5.9194 3.7887-11.935 5.6941-15.937-2.7707 2.6321-5.2915 5.1776-7.6483 7.8841-.004-.00077-.0307.00019-.0336 0-1.8309.28429-3.8741.6782-5.3234 1.5836 2.5009-3.2401 2.3338-7.844 5.9636-8.659-2.3429-.23356-5.7264 1.2166-8.3894 3.8073.9862-2.1395 1.1043-4.8856 2.2574-5.9636.075-.06729.15169-.14912.2359-.20215-.003-1e-4-.0308-.00033-.0338 0zm63.747 222.34c.0202-.0304.0457-.0387.0674-.0674-.0279.0216-.0397.0458-.0674.0674zm-83.659-210.11c3.1582-.076 5.9057 1.1429 7.345 3.3019-2.3963-.29953-3.8816.51108-4.8181 1.7857-1.0384-1.7784-2.1372-3.4665-3.3019-5.0202.10232-.009.20151-.0272.30329-.0337.15709-.01.31634-.03.4717-.0337zm21.125 2.3248c.003.00022.0303-.00083.0338 0-.01.0137-.0254.0196-.0338.0337-.004.007.004.0266 0 .0337-.0154.0284-.0477.0736-.0674.10107-.003-.00016-.03.00066-.0336 0-.005.00012-.0274.00019-.0338 0 .0339-.034.0672-.0913.10113-.13477.003-.003.0307.003.0336 0 .003-.003-.003-.0307 0-.0337zm-13.679 2.8639c.39266-.0162.74264.0286 1.0108.10108-1.1184 1.1188-2.8776 2.957-3.4367 4.4811-.61218-1.2575-1.2238-2.4878-1.8868-3.6725 1.5174-.4204 2.9543-.77787 4.0431-.87601.0961-.009.17898-.03.26955-.0337zm-1.4151 4.1779c-.23482.35629-.45197.73459-.64011 1.1456-.0907-.19095-.178-.38325-.26954-.57277.29725-.22447.61057-.40713.90965-.57278zm23.45 24.292-.0336 1.5499h-.0338c-.16615.01-.33693.0212-.50534.0337l-.0337-.0337c.23989-.46074.45832-.97455.60646-1.5499zm11.894 32.951c1.5526 3.2243 2.2487 5.3448 2.628 7.1092-1.2957-1.8867-3.4154-2.2117-7.5135-2.527-4.6644-.3588-6.7544-.39347-8.2884.4717-.49391-.63789-1.0866-1.1526-1.7857-1.5499 5.6845-.53641 10.802-1.8218 14.96-3.504zm-40.869 1.2803c1.3322.43393 2.7381.82753 4.2453 1.1456-.82361.0253-1.7107.092-2.628.16847-2.0223.15557-3.5671.36464-4.7844.64016 1.0469-.56142 2.0971-1.2217 3.1671-1.9542zm9.2318 1.9542c.42943.0491.87148.0574 1.3141.10108-.20345.13143-.38081.27961-.53908.438-.23537-.21453-.49337-.38371-.77499-.53908zm-64.993 148.96c.0164.0458.0562.0861.0674.13477-.00022.003.00043.0308 0 .0337 1.5156 8.6271-5.0575 18.707-11.961 25.371-.86609-1.1485-1.7183-2.3388-2.5606-3.5377 1.6402-4.7052 6.7546-6.2198 7.5472-2.2574 4.3967-5.4959 8.0548-13.078 6.9071-19.744zm142.65 17.453c.0343-.005.0662.003.10103 0 .0278-.003.0711-4e-4.10113 0 .0401.001.0967.00076.13477 0 1.938-.0391 4.4133 1.6587 5.4245 4.5485-.89067 1.2681-1.8119 2.4946-2.729 3.7062-.003 8e-5-.0302-.00066-.0338 0-1.7786-1.7786-3.5662-3.7773-5.1887-5.9636.27774-1.3885 1.1242-2.1485 2.1901-2.2911zm-128.77 6.3005c3.2099 3.8834 6.6744 7.4489 10.445 10.714.00065.004-.00021.0306 0 .0337 11.599 10.043 25.415 17.504 41.139 24.124.002-.00025.026-8e-5.0338 0 .30781.12956.60032.27535.90965.40431.006.006.028.0276.0337.0337.003-6e-5.0302.00033.0336 0 .16906.0704.33563.13188.50545.20215.19299-.082.38005-.15356.57272-.23585.31062-.13414.60021-.26963.90975-.40431.34027-.14643.67138-.29077 1.0108-.43801.15191-.0667.31978-.13528.47169-.20215.005-.006.0281-.0277.0336-.0337.24076-.10617.4675-.19669.7076-.30324.58416-.25647 1.1712-.51574 1.752-.77493.0124-.005.0483-.0276.0674-.0337.009-.003.0274.002.0336 0 .29013-.12968.58685-.27392.87601-.40432.0789-.036.15687-.065.2359-.10108 13.394-6.0536 25.696-12.926 35.984-21.833-.028-.0116-.0733-.0561-.10113-.0674 3.7089-3.2332 7.1206-6.7765 10.276-10.613 3.537 7.1549 7.1494 13.029 11.119 17.958-17.167 15.081-38.18 22.675-63.949 22.675-25.787 0-46.809-7.6074-63.983-22.709 3.9299-4.9403 7.4775-10.819 10.883-17.992z" fill="#fff" stroke="#fff" stroke-linecap="square" stroke-linejoin="round" stroke-width="6.739"/>
<path class="fil0 str0" transform="matrix(1.1803 0 0 1.1938 -210.19 -.45691) matrix(1.0782 0 0 1.0782 -530.1 130.74)" d="m1074.8 226.21c2.2224 5.9265 18.15 13.705 36.67 3.7041 12.594-7.0378 20.743-17.039 28.522-34.818 2.2224-4.4449 3.3336-10.001-1.8521-13.335-4.0745-2.9633-10.742-6.297-13.705-9.2602-1.4816-1.4816-2.9633-2.5929-4.0745-3.7041.7408.74082 1.4816 1.4816 2.2224 2.5929 7.4082 8.8898-.3704 21.854-8.5194 29.633-5.9265 5.5561-16.668 19.261-32.226 6.297-3.3337-2.9633-11.112 9.2602-7.0378 18.891zm225.21 0c-2.5929 5.9265-18.52 13.705-36.67 3.7041-12.594-7.0378-20.743-17.039-28.892-34.818-1.8521-4.4449-2.9633-10.001 2.2224-13.335 4.0745-2.9633 10.742-6.297 13.705-9.2602 1.4817-1.4816 2.5929-2.5929 4.0745-3.7041-.7408.74082-1.4816 1.4816-2.2224 2.5929-7.4082 8.8898.3704 21.854 8.149 29.633 5.9265 5.5561 17.039 19.261 32.596 6.297 3.3337-2.9633 10.742 9.2602 7.0378 18.891z" fill="#fcea83" stroke="#000" stroke-width=".936"/>
<path class="fil0 str0" transform="matrix(1.1803 0 0 1.1938 -210.19 -.45691) matrix(1.0782 0 0 1.0782 -530.1 130.74)" d="m1187.4 258.07c29.633 0 75.193-13.335 99.64-60.006 4.0745-7.7786 0-11.853-4.8153-14.446-5.1857-2.2224-11.483-7.4082-14.816-10.742 5.9265 5.9266 4.8153 10.001.7408 16.668-18.891 31.485-44.82 47.412-80.749 47.412s-61.858-15.928-80.749-47.412c-4.0745-6.6674-5.1858-10.742.3704-16.668-2.9633 3.3337-9.6307 8.5194-14.816 10.742-4.8153 2.5929-8.8898 6.6674-4.8153 14.446 24.447 46.672 70.378 60.006 100.01 60.006z" fill="#fcea83" stroke="#000" stroke-width=".936"/>
<path class="fil1 str0" transform="matrix(1.1803 0 0 1.1938 -210.19 -.45691) matrix(1.0782 0 0 1.0782 -530.1 130.74) matrix(.37041 0 0 .37041 845.12 -37.891)" d="m739 630c-2-10-15-6-19 6-5-7-10-14-14-22-12-18-14-30 3-47 8-8 24-17 35-7 23 19 11 50-5 70zm369 0c2-10 16-6 20 6 5-7 10-14 14-22 12-18 14-30-4-47-7-8-23-17-35-7-22 19-11 50 5 70zm-488 83c-10-15-18-54-20-64-3-9-4-17 7-21s21 10 26 22 13 30 22 52c-22-13-40-4-35 11zm608 0c9-15 17-54 20-64 2-9 4-17-7-21s-21 10-26 22-13 30-22 52c22-13 39-4 35 11z" fill="#db161c" stroke="#000" stroke-width="2.527"/>
<path class="fil2 str0" transform="matrix(1.1803 0 0 1.1938 -210.19 -.45691) matrix(1.0782 0 0 1.0782 -530.1 130.74)" d="m1256.6 58.785v72.23c0 62.599-29.633 84.083-69.266 101.12-39.634-17.039-69.637-38.523-69.637-101.12v-72.23h138.9z" fill="#fff"/>
<path class="fil1 str0" transform="matrix(1.1803 0 0 1.1938 -210.19 -.45691) matrix(1.0782 0 0 1.0782 -530.1 130.74)" d="m1187.4 119.9c3.3337 0 8.5194-2.9633 12.964-7.4082 4.8153-5.1857 12.964-7.0378 21.484 0 8.5194 7.0378 13.705 4.0745 18.15 0 4.4449-4.0745 8.149-5.5561 16.668-5.5561v-48.153h-138.9v48.153c8.5194 0 12.224 1.4816 16.668 5.5561 4.4449 4.0745 9.6307 7.0378 18.15 0 8.8898-7.0378 16.668-5.1857 21.854 0 4.0745 4.4449 9.2602 7.4082 12.964 7.4082z" fill="#cf142b"/>
<path class="fil3 str0" transform="matrix(1.1803 0 0 1.1938 -210.19 -.45691) matrix(1.0782 0 0 1.0782 -530.1 130.74) matrix(.37041 0 0 .37041 845.12 -37.891)" d="m924 526c12 0 36-13 42-16 22-13 38-1 51 5 14 6 40 13 56 0s25-12 36-12c2-15 2-30 2-47v-12c-14-3-21 1-36 14s-32 10-54 2c-21-9-42-25-63 0-6 7-20 17-34 17-15 0-28-10-34-17-22-25-42-9-63 0-22 8-40 11-55-2-14-13-21-17-36-14v12c0 17 1 32 3 47 11 0 19-1 35 12s43 6 56 0c14-6 30-18 52-5 6 3 29 16 42 16zm0 43c15 0 33-6 49-15 20-11 34-6 54 4 21 10 38 7 50 0 6-4 11-12 24-9-6 25-15 47-26 65-20 5-31 5-52-4-21-10-47-16-61-7-13 8-27 12-38 12s-25-4-38-12c-14-9-40-3-61 7-21 9-32 9-52 4-11-18-20-40-26-65 13-3 18 5 24 9 11 7 29 10 49 0 21-10 35-15 55-4 16 9 34 15 49 15zm0 160c40-17 77-36 107-62-8-3-13-1-20-6s-28-7-46 3c-19 9-27 11-41 11s-22-2-41-11c-18-10-39-8-46-3s-12 3-20 6c30 26 66 45 107 62z" fill="#0b50a0"/>
<path class="fil2 str0" transform="matrix(1.1803 0 0 1.1938 -210.19 -.45691) matrix(1.0782 0 0 1.0782 -530.1 130.74) matrix(.37041 0 0 .37041 845.12 -37.891)" d="m847 260c-13 3-22 4-34-7-8-8-6-22 2-27 9-6 17-10 28-7s40 30 33 31c-7 0-18 7-29 10zm31-48c4-3 9-5 22-6 12-1 21-1 24 8 4 11 7 24 15 30-5 3-30 6-39 1-12-6-15-29-22-33zm86 1c4-3 9-3 22-2s18 2 21 11c3 10 0 23 6 32-6 2-26 2-33-5-11-8-10-31-16-36z" fill="#fff" stroke="#000" stroke-width="2.527"/>
<path class="fil4 str0" transform="matrix(1.1803 0 0 1.1938 -210.19 -.45691) matrix(1.0782 0 0 1.0782 -530.1 130.74) matrix(.37041 0 0 .37041 845.12 -37.891)" d="m1024 219c-9-2-15-3-19 0 5 6 1 30 11 38 7 5 25 6 29-5 5-10 5-25-21-33zm-103-10c3-3 9-4 21-4 13 0 21 2 25 10 4 10 3 23 10 31-3 4-30 4-38-2-11-7-12-30-18-35zm-85 9c0-5 7-6 25-7 18-2 19-1 25 12 3 7 7 19 15 23-22 5-29 8-41 1-9-5-19-17-21-22-1-3-1-6-3-7z" fill="#073163" stroke="#000" stroke-width="2.527"/>
<g stroke="#000" stroke-width="1.137">
<g fill="#f9d050" stroke="#000" stroke-width="1.137">
<path class="fil5 str0" transform="matrix(1.1803 0 0 1.1938 -210.19 -.45691) matrix(1.0782 0 0 1.0782 -530.1 130.74) matrix(.37041 0 0 .37041 845.12 -37.891)" d="m884 116c-21-16-46-31-69-34 15 9 57 42 68 53"/>
<path class="fil5 str0" transform="matrix(1.1803 0 0 1.1938 -210.19 -.45691) matrix(1.0782 0 0 1.0782 -530.1 130.74) matrix(.37041 0 0 .37041 845.12 -37.891)" d="m896 101c-25-17-54-36-82-38 21 11 52 37 69 58m45-48c14-31 29-48 49-67-10 21-21 64-26 81"/>
<path class="fil5 str0" transform="matrix(1.1803 0 0 1.1938 -210.19 -.45691) matrix(1.0782 0 0 1.0782 -530.1 130.74) matrix(.37041 0 0 .37041 845.12 -37.891)" d="m950 68c10-22 25-41 51-53-13 13-33 52-38 73"/>
<path class="fil5 str0" transform="matrix(1.1803 0 0 1.1938 -210.19 -.45691) matrix(1.0782 0 0 1.0782 -530.1 130.74) matrix(.37041 0 0 .37041 845.12 -37.891)" d="m959 88c12-17 36-49 79-66-25 25-62 71-71 89m6-1c18-10 54-26 80-21-16 6-64 28-85 48"/>
<path class="fil5 str0" transform="matrix(1.1803 0 0 1.1938 -210.19 -.45691) matrix(1.0782 0 0 1.0782 -530.1 130.74) matrix(.37041 0 0 .37041 845.12 -37.891)" d="m969 103c17-18 48-45 81-56-24 23-75 75-82 83m-47-38c-12-37-30-72-57-83 15 22 34 54 44 102m-10-20c-20-24-47-48-78-53 21 12 56 47 69 81"/>
<path class="fil5 str0" transform="matrix(1.1803 0 0 1.1938 -210.19 -.45691) matrix(1.0782 0 0 1.0782 -530.1 130.74) matrix(.37041 0 0 .37041 845.12 -37.891)" d="m909 90c-25-45-44-53-55-62 9 17 31 62 44 81"/>
</g>
<path class="fil5 str0" transform="matrix(1.1803 0 0 1.1938 -210.19 -.45691) matrix(1.0782 0 0 1.0782 -530.1 130.74) matrix(.37041 0 0 .37041 845.12 -37.891)" d="m859 87c12 7 30 24 36 35m-36-14c6 5 17 11 27 20m92-5c10-8 32-21 43-25m-50 18c10-13 30-31 37-37m-9-25c-9 10-30 35-38 47m12-56c-7 9-21 35-25 44m-54-42c6 16 17 43 21 54m-30-37c4 6 12 20 15 30" fill="none" stroke="#000" stroke-width="1.137"/>
</g>
<g stroke="#000" stroke-width="1.137">
<g fill="#f9d050">
<path class="fil6 str0" transform="matrix(1.1803 0 0 1.1938 -210.19 -.45691) matrix(1.0782 0 0 1.0782 -530.1 130.74) matrix(.37041 0 0 .37041 845.12 -37.891)" d="m919 59c0-9 6-19 12-19 7 0 12 12 12 19 0 8-6 15-12 15s-12-6-12-15z"/>
<path class="fil6 str0" transform="matrix(1.1803 0 0 1.1938 -210.19 -.45691) matrix(1.0782 0 0 1.0782 -530.1 130.74) matrix(.37041 0 0 .37041 845.12 -37.891)" d="m906 67c1-10 8-18 14-17s9 13 8 20c-1 8-8 14-13 13-5 0-10-7-9-16zm27 3c-2-9 2-19 8-20s12 9 13 17c2 8-3 16-8 16-5 1-12-4-13-13z"/>
<path class="fil6 str0" transform="matrix(1.1803 0 0 1.1938 -210.19 -.45691) matrix(1.0782 0 0 1.0782 -530.1 130.74) matrix(.37041 0 0 .37041 845.12 -37.891)" d="m918 78c0-10 6-19 12-19 7 0 12 11 12 19s-6 15-12 15-12-6-12-15z"/>
<path class="fil6 str0" transform="matrix(1.1803 0 0 1.1938 -210.19 -.45691) matrix(1.0782 0 0 1.0782 -530.1 130.74) matrix(.37041 0 0 .37041 845.12 -37.891)" d="m900 83c0-9 7-19 13-19s12 12 12 19c0 8-7 15-12 15-6 0-13-6-13-15zm37-4c0-9 6-19 12-19 7 0 12 12 12 19 0 8-6 15-12 15s-12-6-12-15z"/>
<path class="fil6 str0" transform="matrix(1.1803 0 0 1.1938 -210.19 -.45691) matrix(1.0782 0 0 1.0782 -530.1 130.74) matrix(.37041 0 0 .37041 845.12 -37.891)" d="m933 87c0-10 7-19 13-19s12 11 12 19-6 15-12 15-13-6-13-15z"/>
<path class="fil6 str0" transform="matrix(1.1803 0 0 1.1938 -210.19 -.45691) matrix(1.0782 0 0 1.0782 -530.1 130.74) matrix(.37041 0 0 .37041 845.12 -37.891)" d="m917 96c0-10 6-19 12-19 7 0 12 12 12 19 0 8-6 15-12 15s-12-6-12-15zm-25 0c0-10 5-19 10-19s9 12 9 19c0 8-5 15-9 15-5 0-10-6-10-15zm56-2c0-9 5-18 10-18s10 11 10 18c0 9-6 15-10 15-5 0-10-6-10-15z"/>
<path class="fil6 str0" transform="matrix(1.1803 0 0 1.1938 -210.19 -.45691) matrix(1.0782 0 0 1.0782 -530.1 130.74) matrix(.37041 0 0 .37041 845.12 -37.891)" d="m954 111c2-10 8-18 12-17s5 13 3 20c-1 9-7 14-11 13s-6-8-4-16z"/>
<path class="fil6 str0" transform="matrix(1.1803 0 0 1.1938 -210.19 -.45691) matrix(1.0782 0 0 1.0782 -530.1 130.74) matrix(.37041 0 0 .37041 845.12 -37.891)" d="m935 108c1-9 7-18 12-17 6 0 9 12 8 19-1 9-6 15-11 14-5 0-10-7-9-16zm-28 3c-3-10-9-17-13-16s-5 13-3 20c2 8 8 13 12 12 3-1 6-8 4-16z"/>
<path class="fil6 str0" transform="matrix(1.1803 0 0 1.1938 -210.19 -.45691) matrix(1.0782 0 0 1.0782 -530.1 130.74) matrix(.37041 0 0 .37041 845.12 -37.891)" d="m900 109c0-9 5-18 10-18 6 0 10 11 10 18 0 9-5 15-10 15-4 0-10-6-10-15z"/>
<path class="fil6 str0" transform="matrix(1.1803 0 0 1.1938 -210.19 -.45691) matrix(1.0782 0 0 1.0782 -530.1 130.74) matrix(.37041 0 0 .37041 845.12 -37.891)" d="m915 113c0-10 6-19 12-19 7 0 12 11 12 19s-6 15-12 15-12-6-12-15z"/>
</g>
<path class="fil6 str0" transform="matrix(1.1803 0 0 1.1938 -210.19 -.45691) matrix(1.0782 0 0 1.0782 -530.1 130.74) matrix(.37041 0 0 .37041 845.12 -37.891)" d="m920 3c-2 8-9 15-4 26-9-3-17-4-24 4 9-1 17 2 21 8-8-1-12 3-14 8 7-2 14-4 17-3-3 3-8 8-9 12 6-5 13-4 17-7-3 7 3 14 8 21-1-10 5-17 2-22 9 2 10 10 23 10-5-3-8-13-14-13 3-1 15-2 17 0-2-4-9-8-13-8 4-4 11-12 16-14-7 1-18 2-22 8 10-8 8-23 19-25-6-1-15 3-22 10 3-6 3-14 7-16-8 2-17 12-20 17 0-5-3-13-5-16z" fill="#f9d050"/>
<path class="fil5 str0" transform="matrix(1.1803 0 0 1.1938 -210.19 -.45691) matrix(1.0782 0 0 1.0782 -530.1 130.74) matrix(.37041 0 0 .37041 845.12 -37.891)" d="m925 19c0 3 0 9-1 11m14-12c-2 2-6 9-6 15m12-3c-3 2-6 5-7 9" fill="none"/>
</g>
<path class="fil7 str0" transform="matrix(1.1803 0 0 1.1938 -210.19 -.45691) matrix(1.0782 0 0 1.0782 -530.1 130.74) matrix(.37041 0 0 .37041 845.12 -37.891)" d="m838 129c-7 0-13-3-17-8-7-9-26-13-34-5-3 2-7 2-10 3-5 0-11 5-9 15 4-3 5 0 8 0 2-1 1 1 1 3 0 5 11 15 21 14 11 0 16 4 18 6 3 3 1 2 3 7 3 3 4 4-1 8-7 6-12 20 0 31 13 10 46 25 83-4 36-28 92-12 96-2 5 10 7 16 8 21 1 4 6 8 13 7 7 0 15 3 19 6 5 3 12 2 10-7-4-28-21-32-23-45 10 1 17 1 21-3 3-4 7-11 11-13 3-2 3-4-1-3-5 1-8 3-17 2-46-5-175-40-200-33z" fill="#059334" stroke="#000" stroke-width="2.527"/>
<path class="fil8 str0" transform="matrix(1.1803 0 0 1.1938 -210.19 -.45691) matrix(1.0782 0 0 1.0782 -530.1 130.74) matrix(.37041 0 0 .37041 845.12 -37.891)" d="m1042 163c-5 3-10 8-19 20-10 13-40 26-77 26-36 0-58-6-74-19-9-7-16-11-22-14-11-5-13-16-10-25-3 5-5 10-11 9-4 0-12 0-10 4-1-2-1-5-2-6l-2-2c3 2 10-4 15-4 4 1 9-4 8-10-1-5-2-9-3-13 8-4 113 15 134 17 21 1 81 10 73 17z" stroke="#000" stroke-width="2.527"/>
<path class="fil7 str0" transform="matrix(1.1803 0 0 1.1938 -210.19 -.45691) matrix(1.0782 0 0 1.0782 -530.1 130.74) matrix(.37041 0 0 .37041 845.12 -37.891)" d="m852 125c10-10 22-15 34-12h3c6-5 20-6 28-2h4c12-4 35 0 43 8l3 2c27-2 43 10 62 29 2 2 5 6 10 7 6 1 7 4 2 7-6 3-11 8-21 19-9 12-38 24-74 24-35 0-56-6-72-18-9-7-16-11-21-14-6-2-14-10-11-18 2-8-3-18-7-28 3-2 11-5 15-3l2-1z" fill="#059334" stroke="#000" stroke-width="2.527"/>
<g fill="#00493d" stroke="#000" stroke-width="2.527">
<path class="fil9 str0" transform="matrix(1.1803 0 0 1.1938 -210.19 -.45691) matrix(1.0782 0 0 1.0782 -530.1 130.74) matrix(.37041 0 0 .37041 845.12 -37.891)" d="m1029 150c-19-19-35-31-62-29 0 1 0 4-1 6 16 6 39 24 49 37 4-4 11-9 14-14zm-65-31c-8-8-31-12-43-8 0 4 0 10-2 14 7 3 13 10 19 17 4-1 14-4 19-5 2-4 6-13 7-18zm-47-8c-8-4-22-3-28 2-2 4-3 12-3 16 4 0 10 3 12 5 6-2 14-6 17-9 1-4 3-10 2-14zm-65 14c10-10 22-15 34-12-2 3-3 9-3 15-11-1-25 2-31 6v-9z"/>
<path class="fil9 str0" transform="matrix(1.1803 0 0 1.1938 -210.19 -.45691) matrix(1.0782 0 0 1.0782 -530.1 130.74) matrix(.37041 0 0 .37041 845.12 -37.891)" d="m1011 166c-9-13-31-28-46-35 0 1-2 5-3 8 6 9 18 29 23 40 5-2 19-8 26-13zm-76 22c2-14 3-34 3-41 5-1 15-4 19-5 5 8 17 29 22 39-12 3-32 8-44 7zm-35-48c5-2 12-6 17-10 4 3 12 10 15 14 0 9-3 35-4 44-8 0-21-2-28-6 1-15 2-32 0-42zm-50 12c1-2 2-9 2-12 8-5 28-10 43-2 1 10 0 35-1 41-13-10-34-24-44-27z"/>
</g>
<path class="fil8" transform="matrix(1.1803 0 0 1.1938 -210.19 -.45691) matrix(1.0782 0 0 1.0782 -530.1 130.74) matrix(.37041 0 0 .37041 845.12 -37.891)" d="m800 134c-2 0-3-6-7-6-1 0-4 1-5 0 0 2 1 4 2 5 1 3 6 1 10 1z"/>
<path class="fil5 str0" transform="matrix(1.1803 0 0 1.1938 -210.19 -.45691) matrix(1.0782 0 0 1.0782 -530.1 130.74) matrix(.37041 0 0 .37041 845.12 -37.891)" d="m800 151c12 0 14-15 20-16m-13 17c9 4 16-17 23-16m-41-10c3 0 5-4 10 1 2 2 5 3 7 3m-2 11c-4 6-11 10-15 8m-2-33c-3 2-5 6-7 9m-3 6v5" fill="none" stroke="#000" stroke-width="2.527"/>
<path class="fil6 str0" transform="matrix(1.1803 0 0 1.1938 -210.19 -.45691) matrix(1.0782 0 0 1.0782 -530.1 130.74) matrix(.37041 0 0 .37041 845.12 -37.891)" d="m898 310c1 2-1 7 0 9 2 4 2 6 5 8h7c22 0 48-9 70-9 21 0 34 7 46 7 7 0 13-5 13-10s-8-8-25-8c-24 0-37 6-57 6-30 0-35-11-35-16s5-12 21-12c5 0 9-1 11-3 1-2 4-6 10-9 7-4 21 0 28-5 0 4-6 10-11 12 10-3 21-3 23 5-5-3-13-1-16 0-4 1-6 2-10 3 4-1 6 7 12 7-6 5-16 5-26 1-3-1-11-4-16-4-10 0-16 2-16 6 0 5 6 8 24 8s28-5 55-5c-2-3 1-6-3-9 10 0 21 3 25 10-1-7 5-13 3-19 6 1 11 7 12 12 0-3 4-3 4-6 6 3 9 10 8 16 3-5 6-3 8-9 2 4 1 16-6 20 6-4 15-4 21 3-6-1-9 2-12 3-12 7-32 11-47 10-16-1-18-4-28-4 6 1 18 13 29 13 7 0 12 0 15-1s8 0 12 2c3 3 9 6 13 5-1 4-3 6-6 7 5 3 2 5 7 9-2 0-4 2-7 1 3 3 3 7 6 9-1 0-4 1-6 0 3 4 0 9 3 11 3 4-3 9-8 5 1 3-2 6-5 5s-5-4-4-5c0-1 0-1 1-2-2 3-6 3-8 2-1-1-2-2-2-3-7 2-10-4-9-7s7-4 9-3 4 2 6 0c2-1 3-3 3-5 0-3-3-12-16-11-15 1-39-3-51-7-1-1-2-1-3-2 0 4-4 6-4 10 0 5 2 9 8 11-3 5-8 4-10 1 0 3-4 5-4 9-1-2-2-3-3-5-3 7-11 11-15 9-5 4-11 3-13-1-3 2-7 2-9 0 0 3-2 2-3 6 0 2-4 3-6 2s-3-5-1-7c-3 2-6 2-8 0 0-2 0-5 2-6h2c-2-1-5 0-7-1-2-2-2-4-1-6 1-1 4-3 6-1l1 1c0-2 1-4 2-4 2-1 5-1 8 2 2 3 4 3 10 2 5 0 13-5 19-10-17-3-7-14-2-18-4-1-10-1-14 1-21 11-43 24-57 20 0 2 1 4 2 6-3 0-9 0-11-3-1 2-3 7-1 11-2-2-8-4-11-5 2 2 0 6 1 9-3-3-8-5-10-3s-6 3-9 2c-2 3-5 5-8 6 0-2 0-5-1-6-1 3-4 7-8 9 0-2 0-5-1-7 0 4-8 6-9 9 1-3 1-6 1-8-2 3-5 6-10 7 1-2 2-4 1-6-1 4-7 6-12 5 0 2-4 5-9 2-3-1-5-4-3-6-4 0-8-4-6-7 0-1 1-2 1-3-3-2-4-6-1-9 1-1 4-1 6-1 0-8 7-8 10-2 2 3 8 8 13 7 2 0 3-1 5-1 6-2 18-7 25-13 1-3 1-5 1-7-4 2-8 4-10 7v-3c-3 0-8-1-10-1 1-1 2-6 4-7-5 1-10 0-14-1 2-2 2-5 3-8-2 1-7-1-11 0 1-3 2-7 5-8-4 1-9 0-14-2 4 0 6-5 9-5-8 0-10-4-14-6 3 1 5-2 8-2-3-1-8-6-6-9-1 1-2 3-4 4s-6 0-9-3c-2-4-1-9 3-10-5-1-5-6-3-8 1-2 5-5 7-2 1 1 2 3 3 4-1-2-1-6-1-9 1-3 3-3 6-4 3 0 5 3 5 6s1 5 2 9c0-1 1-3 1-4 0-4 5-3 8-2s4 7 0 10c-2 2-1 5 1 7 7 11 19 20 29 21 0-4 2-8 5-11 0-2 1-5 2-7 1-6 4-9 8-7-1-1-2-2-2-3-3-3-6-8-4-12s8-3 10-1c-1-6 6-11 6-14 1 3 3 7 2 10 1-4 8-9 13-11-2 3 4 8 3 11 2-5 10-8 16-8-2 2-2 6-2 8 3 0 8-1 10-4 0 4-2 8-4 10 1-1 5-1 8-1-3 3-2 6-5 8 4-2 9-2 10 2 2 3-1 8-3 11-2 1-4 3-5 3z" fill="#f9d050" stroke="#000" stroke-width="2.527"/>
<g fill="none" stroke="#000" stroke-width="2.527">
<path class="fil5 str0" transform="matrix(1.1803 0 0 1.1938 -210.19 -.45691) matrix(1.0782 0 0 1.0782 -530.1 130.74) matrix(.37041 0 0 .37041 845.12 -37.891)" d="m836 322c-7 3-9 10-10 14m9-7c-10 6-14 11-12 22m17 8c6-2 10-4 15-13"/>
<path class="fil5 str0" transform="matrix(1.1803 0 0 1.1938 -210.19 -.45691) matrix(1.0782 0 0 1.0782 -530.1 130.74) matrix(.37041 0 0 .37041 845.12 -37.891)" d="m852 350c-2 4 0 11-3 14 5-3 9-7 10-14"/>
<path class="fil5 str0" transform="matrix(1.1803 0 0 1.1938 -210.19 -.45691) matrix(1.0782 0 0 1.0782 -530.1 130.74) matrix(.37041 0 0 .37041 845.12 -37.891)" d="m854 361c4-2 10-8 13-15-1 3 0 8-2 11 5-5 7-8 8-13 0 1 1 3 1 4 2-2 4-4 4-8m0 3v5c4-3 5-7 5-12m-1 6c6-4 7-10 7-19m0 10c4-3 5-5 5-14m-13-27c-2 0-4 1-4 4 0 2-3 5-3 8-1 4-3 5-6 4-3-2-3-2-3-5 0-4 5-5 5-9 1-2 2-5 3-5-5 3-12 1-13-5"/>
<path class="fil5 str0" transform="matrix(1.1803 0 0 1.1938 -210.19 -.45691) matrix(1.0782 0 0 1.0782 -530.1 130.74) matrix(.37041 0 0 .37041 845.12 -37.891)" d="m890 295c-2 1-4-2-7-1-1 0-4 1-5 0"/>
<path class="fil5 str0" transform="matrix(1.1803 0 0 1.1938 -210.19 -.45691) matrix(1.0782 0 0 1.0782 -530.1 130.74) matrix(.37041 0 0 .37041 845.12 -37.891)" d="m876 300c1 1 6 3 11 1-4 1-7-4-3-7m-17-4c-4 0-7 3-6 6s5 3 8 1m-9 43c1-1 2-3 2-4 2 0 4-1 5-2 4 0 7-3 8-6 2 0 3-5 4-7 1 1 3 0 4-4 2 1 5 0 6-3m-41-7c0 1-2 3-4 4 1 2 0 7-2 8 1 2 0 5-1 7 0 1 1 4 1 5m10-44c-2 5-1 11 3 12"/>
<path class="fil5 str0" transform="matrix(1.1803 0 0 1.1938 -210.19 -.45691) matrix(1.0782 0 0 1.0782 -530.1 130.74) matrix(.37041 0 0 .37041 845.12 -37.891)" d="m854 303c-1 5-1 12-2 15-1 2-3 9 5 11 9 2 14 1 19-14m15 39c0 1-1 3-3 3m10-5c0 2-2 5-3 6m10-8c0 2 0 5-2 6m-59-68c1 0 2 2 3 4-3-2-6 3-4 6m-2 7c-1 1-3 2-4 3m1 6c-1 0-2 1-3 1m-45-19c0-1 0-1 1-2m-10-1c-1 0-1 0-2-1m3 15h2m-6-6c-2-2-5-3-6-3m61 40c-7 6-10 11-11 18m18-13c-2 4-5 7-8 9m-31 21c-8 2-14 1-20-3-1-1-2-1-3-2m53-9c-1 4-2 9-4 10 8-4 15-10 16-19m-70 28c3-1 6 1 8-1m166-32c2 1 5 2 6 3 1-2 5-5 8-6m-85 24c-1-4 1-9 7-11m-46 28c1-2 1-5 2-7m-46 10c-1 2-3 4-3 6m-12-4s0-1 1-1c2-1 5-3 6-5m129-8c-2 1-3 0-4-1m3 6s-1 1-2 1m7 4c-1 1-2 2-3 2m32 0c2-1 3-3 4-7m-17 6c3-1 5-3 8-6m20-2c0-2 0-4 1-6m73 15c-2-2-2-5 1-7 2-1 3-2 5-3m-67-25c-16-7-15-16-28-15m99 46c1 1 0 4 0 5m9-5c-1 3-1 4-1 7m-76-101h-8m-76 34c0 2 3 6 11 6-1 0-2-1-2-1"/>
<path class="fil5 str0" transform="matrix(1.1803 0 0 1.1938 -210.19 -.45691) matrix(1.0782 0 0 1.0782 -530.1 130.74) matrix(.37041 0 0 .37041 845.12 -37.891)" d="m898 310c-1 1-2 0-2 0-2-2 1-6 4-8-3 1-5 1-7 1-2 6-8 9-12 5-1 4-6 9-10 8-4-2-5-5-4-8-5 6-11 2-13 0-1-2 0-7 2-13"/>
</g>
<path class="fil8" transform="matrix(1.1803 0 0 1.1938 -210.19 -.45691) matrix(1.0782 0 0 1.0782 -530.1 130.74) matrix(.37041 0 0 .37041 845.12 -37.891)" d="m962 348c-3 2-6 0-9 3-2 2 1 3 3 3-1 3-1 4 4 4-2 3 4 4 3 8 3-3 3-7 2-10s-6-5-3-8z"/>
<path class="fil4" transform="matrix(1.1803 0 0 1.1938 -210.19 -.45691) matrix(1.0782 0 0 1.0782 -530.1 130.74) matrix(.37041 0 0 .37041 845.12 -37.891)" d="m871 316c-4-2-5-5-4-8-1 2-3 3-5 3-4 9-9 17-15 17-7 1-6 8-1 8 11 2 16-2 25-20zm-99-24c3-3 1-6-1-7-3-1-9 0-12 5 3-1 6-1 7 1s3 4 6 1zm5-18c7 0 9 1 10 4 1 2-1 5-3 5-3 0-6-2-5-3 1-2 1-5-2-6zm20 16c5 1 7-2 4-6-1-3-4-5-9-4 5 3 0 8 5 10zm-37 17c3 5 8 5 10 4 3-1 4-4 3-6-2-3-5-4-6 0-2 4-5 3-7 2zm15 61c-2-4-8-4-13 0 2-1 6 0 7 2s3 2 4 2c1-1 3-2 2-4zm8-6c0-5-7-6-11-4 2 0 5 2 5 4 1 2 3 3 4 3 2-1 3-2 2-3zm-10 18c-6-1-9 6-9 11 1-3 4-5 7-4 3 0 4-1 4-3 1-2 0-3-2-4zm1 17c2 1 4-1 5-4 0-2 4-2 5-1 2 1 2 5-1 7-2 1-7 2-9-2zm139-30c-2-1-7-3-11 0 3-1 5 1 6 3 0 2 3 3 4 1 1-1 2-3 1-4zm-9 7c-4-2-9 3-10 7 1-1 5-3 7-3 2 1 4 0 4-2 1-1 1-2-1-2zm5 8c-3 0-7 4-7 8 1-2 3-3 5-2 2 0 5-1 5-3s-1-3-3-3zm9 8c-2-1-5 0-5 3s0 6-1 7c2-2 4-3 6-4 1-1 2-4 0-6zm113-9c-2-2-5-1-6 1s-2 7 0 11c0-2 2-5 4-5 3-1 4-5 2-7zm6 4c-4 2-4 9-1 13 0-2 1-5 3-6 3 0 4-4 3-6-2-2-4-1-5-1zm12 4c-2-1-4 1-4 3-1 3 1 7 4 9 0-2 1-4 2-5 3-2 2-6-2-7zm9-1c-2 0-4 3-2 6 1 2 3 3 7 2-1 0-3-3-2-4 1-2 0-4-3-4z" fill="#073163"/>
<g fill="#f9d050">
<path class="fil6 str0" transform="matrix(1.1803 0 0 1.1938 -210.19 -.45691) matrix(1.0782 0 0 1.0782 -530.1 130.74) matrix(.37041 0 0 .37041 845.12 -37.891)" d="m830 421-19 59h-62l50 36-19 59 50-36 50 36-19-59 50-36h-62l-19-59zm189 0 18 59h63l-51 36 19 59-49-36-50 36 19-59-51-36h62l20-59z"/>
<path class="fil6 str0" transform="matrix(1.1803 0 0 1.1938 -210.19 -.45691) matrix(1.0782 0 0 1.0782 -530.1 130.74) matrix(.37041 0 0 .37041 845.12 -37.891)" d="m924 530-19 59h-62l50 36-19 59 50-36 50 36-19-59 50-36h-62l-19-59z"/>
</g>
<path class="fil7" transform="matrix(1.1803 0 0 1.1938 -210.19 -.45691) matrix(1.0782 0 0 1.0782 -530.1 130.74) matrix(.37041 0 0 .37041 845.12 -37.891)" d="m830 439-15 46h-49l40 29-16 47 40-29 39 29-15-47 40-29h-49l-15-46zm189 0 14 46h50l-40 29 15 47-39-29-40 29 15-47-40-29h49l16-46zm-95 109-15 46h-49l40 29-16 47 40-29 39 29-15-47 40-28h-49l-15-47z" fill="#024919"/>
<g fill="#00493d">
<path class="fil9" transform="matrix(1.1803 0 0 1.1938 -210.19 -.45691) matrix(1.0782 0 0 1.0782 -530.1 130.74) matrix(.37041 0 0 .37041 845.12 -37.891)" d="m678 623-8 4c-2 1-2 3-2 4h-1l-4-9h1c0 1 1 2 3 1l17-9c2-1 2-2 1-3l1-1 5 10h-1c-1-1-2-2-4-1l-7 4 3 6 8-3c2-1 1-3 1-4h1l4 9c-1-1-2-2-4-1l-17 9c-2 1-2 2-1 3l-1 1-5-9 1-1c1 1 2 2 4 1l8-4-3-7zm17 13c2-1 2-2 1-4h1l10 15-7 5v-1c4-3 4-7 3-8s-2-2-2-3c-1 0-1-1-3 1-1 1-7 5-7 5 1 1 2 4 7 1h1l-11 8v-1c5-4 3-7 2-8l-7 5c-2 1-2 2-2 3 1 0 1 1 2 2 1 2 4 4 9 2l1 1-8 3-10-16h1c1 1 2 2 4 1l15-11zm16 38-7 6c-1 1-1 3 0 4h-1l-7-7 1-1c1 1 2 2 4 0l13-13c2-1 2-2 1-4l7 8c-1-1-3-1-4 0l-6 6 5 5 6-5c2-2 1-3 0-4l1-1 7 8h-1c-1 0-2-1-4 1l-13 12c-2 2-2 3-1 4v1l-7-8c1 0 3 1 4 0l7-7-5-5zm15 21 3 3 4-9s-3 1-8 4l1 2-1 1-2-2c-1 1-2 1-3 2-3 2-2 3-1 4v1l-5-5h1s2 0 4-1l20-11 1 1s-1 1-10 21c0 2-1 3 0 5l-8-7 1-1c1 2 3 2 4 0 0-1 1-3 1-4l-3-3 1-1zm8 20 1-1c1 1 2 1 4 0l13-17-1-1c-2-1-5-1-8 2v-1l4-5 15 11-5 6h-1c3-3 2-7 0-8v-1l-13 17c-2 1-1 3 0 4h-1l-8-6z"/>
<path class="fil9" transform="matrix(1.1803 0 0 1.1938 -210.19 -.45691) matrix(1.0782 0 0 1.0782 -530.1 130.74) matrix(.37041 0 0 .37041 845.12 -37.891)" d="m760 719-5 7c-1 2 0 3 1 4l-1 1-8-6v-1c2 1 3 1 4-1l11-15c1-2 0-3-1-4l1-1 8 6v1c-2-1-3-1-4 1l-5 7 6 4 5-7c1-2 0-3-1-4l1-1 8 6v1c-1-1-3-1-4 1l-10 16c-2 1-1 2 0 3v1l-9-6h1c1 0 2 0 3-1l5-8-6-4zm20 28 1-1c1 1 3 1 4-1l8-17c1-2 0-3-1-4l17 8-4 8-1-1c3-4 0-8-1-9-1 0-2-1-3-1s-1 0-2 2c-1 1-4 7-4 7 1 1 3 3 7-2h1l-6 12-1-1c3-6-1-7-2-7l-4 8c-1 2 0 3 1 3v1l-10-5zm29 14c-3-2-3-8 0-14 2-6 6-11 10-9 3 1 2 7 0 13-3 7-7 11-10 10h-1c7 3 12-1 15-8 3-6 2-13-4-16s-12 1-15 8-2 14 4 16h1zm31 2 4-12c1-2 0-3-1-4l5 1v1c-1 0-2 0-3 2l-4 12c-2 5-5 9-11 7-4-1-7-6-5-11l5-13c1-2 0-3-1-4v-1l9 4v1c-1-1-3-1-3 1l-5 13c-1 4-1 8 2 9s6-1 8-6zm9-13c0-1 0-1-1-1l7 1 6 19 3-12c1-2 0-3-1-4l6 1-1 1c-1 0-2 0-3 2l-5 22h-1l-8-24-5 16c0 3 1 3 2 4v1l-6-2v-1c1 1 3 0 3-2l5-18-1-3zm34 20c-2 9-6 11-8 11h-2s-1-1 0-2l3-20c1-1 1-2 2-1h2c2 0 4 4 3 12l3 1c2-10-2-14-7-15-4-1-10-2-10-2v1c1 1 3 1 2 4l-3 18c-1 2-2 3-3 3h-1l10 2c5 1 10 0 12-11l-3-1zm9-8c0-2-2-3-3-3v-1l18 2-1 8c0-5-3-7-5-7-1-1-2-1-3-1s-1 0-1 3c0 1-1 8-1 8 1 0 4 1 6-5l-1 13h-1c0-6-3-6-4-6l-1 9c0 2 0 2 1 2 0 0 2 0 2 1 3 0 6-1 8-7h1l-2 8-19-2c2 0 3-1 4-3l2-19zm62 20c0 2 1 2 3 2v1l-11 1c1-1 3-2 3-4l-2-19c-1-2-2-2-4-2v-1l11-1c-1 1-3 2-2 4l2 19zm10 2v-1c1 0 2-1 2-3l-4-21h-1c-2 1-4 3-3 7h-1l-1-7 18-3 1 7h-1c0-4-3-5-6-5h-1l4 21c0 2 1 3 3 3v1l-10 1zm43-20-4-12c0-2-2-2-3-2v-1l5-2v1c-1 1-1 1-1 3l4 13c1 4 1 10-5 12-4 1-9-1-10-7l-4-13c-1-2-2-2-3-2l-1-1 10-3v1c-1 1-2 2-1 4l3 13c1 4 4 6 7 6 3-1 4-5 3-10zm11-7c5-2 4-5 3-8s-3-5-5-4c-1 0-2 1-1 2l3 10 1 1 2 8c1 2 3 2 4 1v1l-9 4-1-1c2-1 2-2 2-4l-7-17c-1-3-2-2-4-2v-1l10-4c4-1 8 0 10 4 1 5-1 8-5 10-1 0-2 1-2 1l-1-1zm26-25h-2l6-4 18 10-6-11c-1-2-3-2-4-2v-1l5-2c-1 1-2 2 0 4l10 20-1 1-22-12 8 15c1 2 3 2 4 1v1l-5 3v-1c1-1 1-2 0-4l-8-16-3-2zm45 3v-1c0-1 1-2 0-4l-12-17h-1c-2 1-3 5 0 8l-1 1-4-7 15-10 4 6c-3-3-6-3-8-2l-1 1 12 17c1 2 3 2 4 1v1l-8 6zm11-24 6 7c1 1 3 1 4 0v1l-8 7v-1c1-1 1-2 0-4l-12-15c-1-2-2-1-4-1l8-7v1c0 1-1 2 0 4l5 6 6-4-5-7c-1-2-3-1-4-1l8-7v1c-1 1-1 2 0 4l12 15c1 1 2 1 3 0l1 1-8 7-1-1c1-1 2-2 1-4l-6-7-6 5zm9-21c-1-1-3-1-4 0v-1l13-12 6 6h-1c-3-4-7-2-9-1 0 1-1 1-2 2 0 0 0 1 1 3l6 6c1-1 4-3 0-8h1l8 9v1c-5-5-7-2-8-1l6 6c1 2 2 2 2 2l3-3c1-1 2-4 0-10h1l4 7-13 13-1-1c1-1 2-2 0-4l-13-14zm24-28c-1 1-1 3 1 4 2 2 4 2 8 0 2-1 6-2 9 1 5 5 3 9 2 11-1 1-3 2-4 3-1 0-1 0-1 1v1l-7-6h1c4 2 8 3 10 0 2-2 0-4-1-5-2-2-4-2-7 0-3 1-7 1-10-1-4-4-4-7-2-10 1-1 3-2 4-3 1 0 1 0 0-2l7 5h-1c-5-2-8-1-9 1zm9-8c-2-1-3 0-4 1h-1l11-16 7 5-1 1c-4-3-8-1-9 0 0 1-1 2-1 3-1 0-1 1 1 2 1 1 7 5 7 5 1-1 3-3-1-7v-1l10 8c-6-3-7 0-8 1l7 5c2 1 3 1 3 1 0-1 1-2 2-3 1-2 2-5-2-9l1-1 5 6-10 15h-1c1-2 1-3-1-5l-15-11zm27-18-3 5c-4-4-6-7-6-7l9 2h2c1 0 3 1 4 1 3 1 2 2 1 4h1l5-9c-2 2-3 1-5 1-21-4-23-5-23-5v1l16 18c1 1 1 3 1 4h1l3-5-1-1c-1 2-2 3-4 0l-2-2 3-7h-2zm-6-22c-1 1-1 3 2 4s4 0 7-2 6-4 10-2c6 3 5 8 4 10-1 1-2 3-3 4v2l-8-4c5 1 9 0 10-3 1-2-1-4-2-5-2-1-4 0-7 2-3 3-6 4-10 2s-6-5-4-8c0-2 2-3 3-4 0-1 0-1-1-2v-1l8 4h-1c-5-1-8 1-8 3zm-238 160c0 9-3 12-6 12-1-1-1-1-2-1 0 0-1 0-1-1l1-21c0-1 0-1 1-1h2c2 0 5 3 5 12h4c0-10-5-13-10-13-4-1-10-1-10-1v1c1 0 3 1 3 3l-1 19c0 2-1 3-2 3v1h9c5 0 10-2 11-13h-4zm118-14c-3 1-7-3-10-10-3-6-3-12 0-13s7 3 10 9 3 12 0 14c6-2 8-9 5-16-3-6-9-10-15-8-6 3-8 10-5 16 3 7 9 11 15 8z"/>
</g>
<path class="fil2 str0" transform="matrix(1.1803 0 0 1.1938 -210.19 -.45691) matrix(1.0782 0 0 1.0782 -530.1 130.74)" d="m1256.6 58.785v72.23c0 62.599-29.633 84.083-69.266 101.12-39.634-17.039-69.637-38.523-69.637-101.12v-72.23h138.9z" fill="none" stroke="#000" stroke-width=".936"/>
<g transform="matrix(2,0,0,2,0,-2.4e-5)">
<path d="m0 150h25.155l199.84-133.23v-16.77h-25.155l-199.84 133.23v16.77z" fill="#fff" fill-rule="evenodd"/>
<path d="m225 150h-25.155l-199.84-133.23v-16.77h25.155l199.84 133.23v16.77z" fill="#fff" fill-rule="evenodd"/>
<rect x="93.75" width="37.5" height="150" fill="#fff" fill-rule="evenodd"/>
<rect y="50" width="225" height="50" fill="#fff" fill-rule="evenodd"/>
<path d="m101.25-6e-6v60h-101.25v30h101.25v60h22.5v-60h101.25v-30h-101.25v-60h-22.5z" fill="#cf142b" fill-rule="evenodd"/>
<path id="c" d="m133.23 50h16.77l75-50h-16.77l-75 50z" fill="#cf142b" fill-rule="evenodd"/>
<path id="d" d="m0-1.2e-5v11.18l58.23 38.82h16.77l-75-50z" fill="#cf142b" fill-rule="evenodd"/>
<use transform="matrix(-1,0,0,-1,225,150)" width="600" height="300" xlink:href="#d"/>
<use transform="translate(-133.23,100)" width="600" height="300" xlink:href="#c"/>
</g>
</svg>
