<?xml version="1.0" encoding="UTF-8"?>
<svg version="1.0" xmlns="http://www.w3.org/2000/svg" xmlns:xlink="http://www.w3.org/1999/xlink" xmlns:sodipodi="http://sodipodi.sourceforge.net/DTD/sodipodi-0.dtd" width="900" height="600">
<rect width="900" height="600" style="fill:#002b7f"/>
<rect y="300" width="900" height="300" style="fill:#ce1126"/>
<g transform="translate(-50)" style="fill:#ffd83d;stroke-linecap:round;stroke-linejoin:round;stroke-width:2;stroke:#000000">
<g id="half">
<path d="m216.38 122.29-1.8382 62.5h-63.419c-7.8025-15.168-14.246-28.051-14.246-45.496 0-14.6 11.483-26.195 28.033-26.195 17.52 0 36.769 5.9036 51.471 9.1912z" style="stroke:none"/>
<g style="stroke-width:1.5">
<path d="m144.46 125.16v36.075"/>
<path d="m149.55 121.48v48.034"/>
<path d="m154.64 118.95v57.225"/>
<path d="m159.74 117.77v44.881"/>
<path d="m164.83 117.55v45.327"/>
<path d="m169.92 115.96v46.885"/>
<path d="m175.02 115.96v46.885"/>
<path d="m180.11 116.42v46.885"/>
<path d="m185.2 116.88v46.885"/>
<path d="m190.3 119.87v46.885"/>
<path d="m195.39 120.33v52.859"/>
<path d="m200.48 120.33v46.885"/>
<path d="m205.58 120.33v46.885"/>
<path d="m176.4 117.92c10.763 1.7754 34.406 12.837 31.71 27.803-3.8213 21.209-16.208 12.698-32.629 9.6507l-12.408 4.136c-4.4398 4.5318-10.978 8.6835-15.395 3.2169h-7.3529v28.722h81.342v-69.393z" style="fill:#000000"/>
</g>
<circle cx="212.82" cy="112.98" r="4.9403"/>
<circle cx="201.71" cy="110.31" r="4.9403"/>
<circle cx="190.45" cy="107.48" r="4.9403"/>
<circle cx="179.14" cy="105.6" r="4.9403"/>
<circle cx="167.84" cy="104.48" r="4.9403"/>
<circle cx="156.75" cy="105.11" r="4.9403"/>
<circle cx="146.18" cy="108.73" r="4.9403"/>
<circle cx="137.28" cy="115.28" r="4.9403"/>
<circle cx="130.96" cy="124.41" r="4.9403"/>
<circle cx="127.91" cy="135.16" r="4.9403"/>
<circle cx="128.03" cy="146.3" r="4.9403"/>
<circle cx="130.15" cy="157.22" r="4.9403"/>
<path d="m215 119.53-.45956 6.4338c-12.291-1.8831-29.715-8.7316-45.956-8.7316-15.006 0-26.654 6.0027-26.654 21.14 0 14.918 6.3178 28.485 14.706 42.279l-8.7316 4.136c-7.8025-15.168-14.246-28.051-14.246-45.496 0-14.6 11.483-28.952 31.25-28.952 17.52 0 35.39 5.9036 50.092 9.1912z"/>
</g>
<use transform="matrix(-1 0 0 1 443.94 0)" width="900" height="600" xlink:href="#half"/>
<path d="m221.97 53.125-5.1562 9.6562 5.1562 9.625 5.1562-9.625-5.1562-9.6562zm0 24.375-5.1562 9.625 5.1562 9.6562 5.1562-9.6562-5.1562-9.625z"/>
<path d="m203.59 74.953 8.1315 5.1562 8.1052-5.1562-8.1052-5.1562-8.1315 5.1562zm20.526 0 8.1052 5.1562 8.1315-5.1562-8.1315-5.1562-8.1052 5.1562z"/>
<circle cx="221.97" cy="75.069" r="3.9062"/>
<circle cx="221.97" cy="100" r="10.455"/>
<path d="m219.34 89.875c0 3.1144-.0221 4.9241-.0312 6.625-2.5204.11186-5.0057.37671-7.4375.78125m20.188 0c-2.4318-.40454-4.9171-.66938-7.4375-.78125v-6.625m-12.781 12.688c3.2947-.55035 6.6741-.84375 10.125-.84375s6.8303.2934 10.125.84375" style="fill:none;stroke-width:1.5"/>
<path d="m211.75 117.69c-.99188 17.082-3.0086 34.479-9.6562 47.125l10.812-4.375c3.7765-14.329 4.5698-32.843 5.7188-41.594l-6.875-1.1562zm20.438 0-6.875 1.1562c1.1489 8.7512 1.9423 27.265 5.7188 41.594l10.812 4.375c-6.6477-12.646-8.6644-30.043-9.6562-47.125z"/>
<path d="m221.95 154.69c-12.913 0-22.399 6.0866-22.969 21.594-3.1566-5.5549-16.51-23.026-28.969-20.688-7.4099 1.3907-13.957 11.666-12.844 23.438-6.1349-17.63-24.107-20.519-37.219-10.094 11.642 9.5725 16.821 37.835 26.625 50.094h75.375 75.375c9.8039-12.259 15.014-40.521 26.656-50.094-13.112-10.425-31.084-7.5362-37.219 10.094 1.1133-11.772-5.4651-22.047-12.875-23.438-12.459-2.3382-25.781 15.133-28.938 20.688-.56959-15.507-10.087-21.594-23-21.594z"/>
<g style="stroke-width:1.5">
<path d="m297.11 219.03c0 5.5809-33.662 11.719-75.138 11.719-41.476 0-75.138-6.1378-75.138-11.719 0-5.5809 33.662-8.5018 75.138-8.5018 41.476 0 75.138 2.921 75.138 8.5018z" style="fill:#000000"/>
<circle cx="221.97" cy="114.44" r="3.5041"/>
<circle cx="221.97" cy="122.03" r="3.7339"/>
<circle cx="221.97" cy="130.18" r="4.0786"/>
<circle cx="221.97" cy="139.26" r="4.653"/>
<circle cx="221.97" cy="149.37" r="5.1126"/>
<path d="m219.94 159.21c-.55295-.007-1.0759.45902-.9375 1.3438.16296 1.0435.36705 2.9952.5625 4.3125.22088 1.4932 1.0912 1.1302 1.3125-.0312.2213-1.161.13208-1.9059.1875-4.0625.0277-1.0781-.57204-1.5556-1.125-1.5625zm4.0625 0c-.55296.007-1.1527.48441-1.125 1.5625.0554 2.1566-.0338 2.9015.1875 4.0625.22128 1.1614 1.0916 1.5244 1.3125.0312.19545-1.3173.39956-3.269.5625-4.3125.13836-.88473-.38453-1.3506-.9375-1.3438zm-7.6875.5625c-.50583.0704-1.0303.58054-1 1.125.055.99518.3304 2.1889.4375 3.6875.11045 1.5482 1.2016.94683 1.3125.0625.11045-.88472.23542-2.1922.125-3.9062-.0414-.64291-.32221-.92563-.65625-.96875-.0696-.009-.14649-.0101-.21875 0zm11.094 0c-.33404.0431-.61482.32584-.65625.96875-.11042 1.714.0146 3.0215.125 3.9062.11085.88433 1.2021 1.4857 1.3125-.0625.1071-1.4986.3825-2.6923.4375-3.6875.0303-.54446-.49415-1.0546-1-1.125-.0723-.0101-.14915-.009-.21875 0zm-15.438 1.75c-.46309.11967-.88836.67656-.75 1.3125.27631 1.2719.53125 2.6781.53125 3.9688 1e-5 1.106.94458.71137 1-.0625.055-.77429.15625-2.4135.15625-3.9062 1e-5-1.1146-.4744-1.4322-.9375-1.3125zm19.688 0c-.32879.0911-.625.47658-.625 1.3125 0 1.4928.10125 3.132.15625 3.9062.0554.77387 1 1.1685 1 .0625 0-1.2906.25496-2.6969.53125-3.9688.13836-.63594-.28689-1.1928-.75-1.3125-.11577-.0299-.2029-.0304-.3125 0zm-59.094.17096c-.55406-.0184-.94278.7332-.5625 1.5625.60803 1.3273 1.2541 2.1648 1.875 3.5938.55302 1.2719 1.4013.47889 1.125-.40625-.27671-.88473-.57693-1.8701-1.4062-3.75-.31113-.70511-.69881-.98895-1.0312-1zm98.812 0c-.33244.0111-.72012.29489-1.0312 1-.82932 1.8799-1.1295 2.8653-1.4062 3.75-.27629.88514.57198 1.6781 1.125.40625.62094-1.429 1.267-2.2664 1.875-3.5938.38028-.8293-.008-1.5809-.5625-1.5625zm-94.812.0625c-.40782.12446-.65504.64177-.40625 1.25.49801 1.2165 1.2166 2.4635 1.7188 3.7812.44217 1.161 1.4259.83185 1.0938-.21875-.33172-1.0506-.4303-1.6655-1.0938-3.6562-.33192-.99516-.90467-1.2807-1.3125-1.1562zm90.5 0c-.3487.0745-.75106.40988-1 1.1562-.66345 1.9908-.76203 2.6057-1.0938 3.6562-.33214 1.0506.65158 1.3798 1.0938.21875.50217-1.3177 1.2207-2.5648 1.7188-3.7812.24879-.60823.002-1.1255-.40625-1.25-.10196-.0311-.19627-.0248-.3125 0zm-85.5.96875c-.51413.0978-.91225.88218-.5625 1.8438.44259 1.2165 1.072 2.3677 1.625 3.75.55302 1.3823 1.4713 1.1035 1.25.21875-.22127-.88473-.49238-2.3509-1.1562-4.5625-.29025-.96776-.75636-1.3261-1.1562-1.25zm80.812 0c-.39989-.0761-.866.28224-1.1562 1.25-.66387 2.2116-.93498 3.6778-1.1562 4.5625-.22129.88472.69698 1.1636 1.25-.21875.55301-1.3823 1.1824-2.5335 1.625-3.75.34975-.96157-.0484-1.7459-.5625-1.8438zm-93.188.6875c-.55687.0569-1.0641.96524-.71875 1.6562.55344 1.106.90366 1.4823 1.4375 2.6562.55302 1.2165 1.1588.2743.9375-.5-.22128-.77429-.50494-1.6757-.78125-2.7812-.20252-.80997-.54087-1.0654-.875-1.0312zm105.56 0c-.33413-.0341-.67248.22128-.875 1.0312-.27631 1.1056-.55997 2.007-.78125 2.7812-.22128.7743.38448 1.7165.9375.5.53384-1.1739.88406-1.5502 1.4375-2.6562.34537-.69101-.16188-1.5994-.71875-1.6562zm-67.031 2.7978c-.58375-.00052-1.2073.77436-1 1.5.33173 1.1615.84452 2.191 1.2188 3.6875.33173 1.3269 1.2742.66599 1.2188-.21875-.0554-.88472-.207-2.0884-.59375-3.9688-.14517-.70496-.49349-.99968-.84375-1zm28.5 0c-.35026.00032-.69856.29504-.84375 1-.38675 1.8803-.53832 3.084-.59375 3.9688-.0554.88474.88704 1.5457 1.2188.21875.37423-1.4965.88704-2.526 1.2188-3.6875.20733-.72564-.41623-1.5005-1-1.5zm-14.25 1.1875c-.71918 1e-5-.81853.96561-.84375 1.75-.0827 2.5713-1.1498 5.0685-2.0625 6.3125-.91223 1.2444-2.2556.91345-3.5.25-1.2444-.66343-1.9856-1.1607-3.3125-2.1562-1.3273-.99515-2.3336-.4133-.75 1.8438 4.6175 6.5803 9.625 12.205 9.625 22.938 1e-5 1.3877.24246 1.8125.84375 1.8125s.87498-.42476.875-1.8125c0-10.733 4.9763-16.357 9.5938-22.938 1.5836-2.257.57733-2.8389-.75-1.8438-1.3269.99559-2.0681 1.4928-3.3125 2.1562-1.2444.66345-2.5878.99437-3.5-.25-.91266-1.244-1.9798-3.7412-2.0625-6.3125-.0252-.78439-.12455-1.75-.84375-1.75zm-35.281-1.6103c-.0629-.002-.13154.0136-.1875.0312-.26858.0846-.44752.40881-.34375.96875.18546 1.0023.87995 2.9665 1.1562 3.9062.27673.94018 1.4326.74022 1.1562-.53125-.2767-1.2719-.26202-1.656-.59375-3.0938-.1814-.78626-.74696-1.2692-1.1875-1.2812zm70.562 0c-.44054.0121-1.0061.49499-1.1875 1.2812-.33173 1.4377-.31703 1.8219-.59375 3.0938-.2763 1.2715.87954 1.4714 1.1562.53125.2763-.93974.97079-2.904 1.1562-3.9062.10377-.55994-.0752-.88414-.34375-.96875-.056-.0176-.12456-.033-.1875-.0312zm-91.531.40625c-.57879.0453-.99385.77247-.40625 1.8438.63386 1.1569 1.7212 2.6082 2.2188 3.4375.4976.82932 1.3584.26977.75-.78125-.60802-1.0506-.81237-2.2572-1.5312-3.75-.26956-.55993-.68397-.77718-1.0312-.75zm112.5 0c-.34728-.0272-.76169.19007-1.0312.75-.71888 1.4928-.92323 2.6994-1.5312 3.75-.60843 1.051.2524 1.6106.75.78125.49758-.82931 1.5849-2.2806 2.2188-3.4375.5876-1.0713.17254-1.7984-.40625-1.8438zm-144.19 3.329c-.66781-.0355-.87717 1.1702-.25 1.9688.91267 1.161 1.5478 1.7769 2.5938 2.7188.82973.74639 1.0709-.22237.65625-.96875-.41464-.74637-1.0144-1.5056-1.8438-2.75-.45463-.68201-.8527-.95262-1.1562-.96875zm175.88 0c-.30355.0161-.70162.28674-1.1562.96875-.82931 1.2444-1.4291 2.0036-1.8438 2.75-.41466.74638-.17348 1.7151.65625.96875 1.046-.94183 1.6811-1.5577 2.5938-2.7188.62717-.7985.41781-2.0042-.25-1.9688zm-170.84 1c-.53222.007-.8834.40005-.46875 1.3125.59387 1.3061 1.377 2.7857 1.875 3.7812.4976.99519 2.0143 1.3294 1.4062-.21875-.60842-1.5482-.72824-2.3435-1.2812-3.7812-.2765-.71886-.99902-1.1007-1.5312-1.0938zm165.81 0c-.53223-.007-1.2548.37489-1.5312 1.0938-.55301 1.4378-.67283 2.2331-1.2812 3.7812-.60802 1.5482.90865 1.2139 1.4062.21875.498-.99559 1.2811-2.4752 1.875-3.7812.41465-.91245.0635-1.3056-.46875-1.3125zm-175.56.34375c-.77377.008-.84043.78367-.15625 1.2812.91266.66346 2.0002 1.3998 3.0625 2.25 1.244.99518 1.7259.0797 1.0625-.75-.66344-.8293-1.3097-1.6703-2.9688-2.5-.41475-.20732-.74208-.28388-1-.28125zm185.31 0c-.25792-.003-.58525.0739-1 .28125-1.659.82972-2.3053 1.6707-2.9688 2.5-.66344.82972-.18147 1.7452 1.0625.75 1.0623-.85016 2.1498-1.5865 3.0625-2.25.68418-.49758.61751-1.2734-.15625-1.2812zm-109.66.71875c-.43296.0606-.80641.55234-.625 1.1875.33173 1.161.70829 2.3914.9375 3.5938.2213 1.1615 1.565 1.1756 1.3438.125-.22086-1.0506-.33202-2.3651-.71875-3.9688-.14517-.60134-.44831-.89021-.75-.9375-.0628-.01-.12565-.009-.1875 0zm33.812 0c-.30169.0473-.60481.33616-.75.9375-.38673 1.6036-.49787 2.9182-.71875 3.9688-.22129 1.0506 1.1225 1.0365 1.3438-.125.22921-1.2023.60579-2.4327.9375-3.5938.18141-.63516-.19202-1.1269-.625-1.1875-.0618-.009-.12464-.01-.1875 0zm-63.906-1.9853c-.33997.094-.53559.74396-.28125 1.6562 1.4102 5.0596 1.8425 7.7244 1.5938 8.9688-.24878 1.244-.93151 1.4146-1.8438 1-.91223-.41465-1.9832-1.0132-2.8125-1.5938-.8293-.58092-1.6919.114-.5 1.0938 6.0548 4.9767 10.252 10.664 11.875 17.562.33174 1.4098 1.2176 1.5757.96875 0-1.3723-8.6898-1.6362-15.833.4375-20.312.77931-1.6832-.006-3.2996-1.25-.5625-.8293 1.8249-2.1715 2.5449-3.25.96875-1.0781-1.5757-3.3053-5.7797-3.9688-7.6875-.24894-.71543-.55598-1.0464-.8125-1.0938-.0534-.01-.10768-.0134-.15625 0zm94.031 0c-.25652.0473-.56356.37832-.8125 1.0938-.66344 1.9078-2.8906 6.1118-3.9688 7.6875-1.0785 1.5761-2.4207.85617-3.25-.96875-1.2444-2.7371-2.0293-1.1207-1.25.5625 2.0737 4.4791 1.8098 11.623.4375 20.312-.2488 1.5757.63701 1.4098.96875 0 1.6232-6.8983 5.8202-12.586 11.875-17.562 1.1919-.97975.3293-1.6747-.5-1.0938-.8293.58052-1.9003 1.1791-2.8125 1.5938-.91224.41465-1.595.24398-1.8438-1-.24879-1.2444.18351-3.9091 1.5938-8.9688.25434-.91229.0587-1.5623-.28125-1.6562-.0486-.0134-.10282-.01-.15625 0zm-124.47 2.4228c-.54607.007-.99879.38944-.75 1.2188.39883 1.3286 1.2237 2.7644 1.5 3.5938.27672.82933 1.1659.44229 1-.71875-.16584-1.161-.24746-1.8531-.46875-3.125-.11063-.63572-.73517-.97568-1.2812-.96875zm155.06 0c-.54608-.007-1.1706.33303-1.2812.96875-.22129 1.2719-.30291 1.964-.46875 3.125-.16586 1.161.72328 1.5481 1 .71875.2763-.82931 1.1012-2.2652 1.5-3.5938.24879-.82931-.20393-1.2118-.75-1.2188zm-136.28-1.7353c-.63504-.11396-.72634 1.5242-.1875 2.1875.71889.88517 1.7173 1.9548 2.7188 3.1562.82932.9956 1.3417.11057.84375-.71875-.49757-.82972-1.2356-1.7113-2.5625-3.8125-.33182-.52529-.60082-.77451-.8125-.8125zm117.5 0c-.21168.038-.48068.28721-.8125.8125-1.3269 2.1012-2.0649 2.9828-2.5625 3.8125-.49799.82932.0144 1.7144.84375.71875 1.0014-1.2015 1.9999-2.2711 2.7188-3.1562.53884-.66325.44754-2.3015-.1875-2.1875zm-132 3.954c-.39402-.0276-.72836.29195-.5625 1.0938.2313 1.1164.56704 2.0432.84375 3.0938.27632 1.0506 1 .87059 1-.125 1e-5-.99517-.17789-2.1056-.34375-3.1562-.0829-.52529-.54347-.87859-.9375-.90625zm146.5 0c-.39403.0277-.85458.38096-.9375.90625-.16586 1.0506-.34376 2.1611-.34375 3.1562 0 .99559.72368 1.1756 1 .125.27671-1.0506.61245-1.9773.84375-3.0938.16586-.8018-.16848-1.1214-.5625-1.0938zm-133.41 1.421c-.61886.0935-1.1634.69176-.4375 1.625 1.1611 1.4928 2.4324 2.5407 2.875 3.0938.44217.55303 1.5626.34895.84375-.8125-.7347-1.1864-1.8462-2.6153-2.3438-3.5-.18658-.33177-.56618-.46234-.9375-.40625zm120.06 0c-.27216.0286-.54756.15742-.6875.40625-.49759.88474-1.609 2.3136-2.3438 3.5-.71887 1.1614.40158 1.3655.84375.8125.44258-.55301 1.7139-1.601 2.875-3.0938.72591-.93324.18136-1.5315-.4375-1.625-.0928-.014-.15928-.01-.25 0zm-140.72 4.1728c-.48826-.0443-.65688.34959 0 1.25 1.4928 2.0458 3.1396 5.1418 3.25 6.4688.11087 1.3273-.54531 1.3125-1.1562 1.3125-1.8249 2e-5-2.7164-1.332-4.375-1.7188-1.659-.38713-1.8998.48527-.71875 1.3438 6.0823 4.4237 12.179 9.3592 14.625 13.844.99519 1.8249 2.3406 2.492 1.5938.75-2.2871-5.3372-2.8413-9.8566-2.3438-12.594.498-2.7371 1.1767-4.5802 1.0938-6.1562-.0829-1.5757-.97661-1.4682-1.3438 0-.24879.9956-.73078 2.3145-1.0625 2.8125-.33171.49761-1.6656.77655-2.9375-.9375-1.2719-1.714-4.4806-5.0144-5.5312-5.8438-.39396-.31098-.80079-.50464-1.0938-.53125zm161.62 0c-.29296.0266-.69979.22027-1.0938.53125-1.0506.82931-4.2594 4.1297-5.5312 5.8438-1.2719 1.714-2.6058 1.4351-2.9375.9375-.33172-.498-.81371-1.8169-1.0625-2.8125-.36714-1.4682-1.2608-1.5757-1.3438 0-.0829 1.5761.59575 3.4191 1.0938 6.1562.49759 2.7371-.0567 7.2566-2.3438 12.594-.7468 1.742.59856 1.0749 1.5938-.75 2.4462-4.4845 8.5427-9.4201 14.625-13.844 1.181-.85848.94027-1.7309-.71875-1.3438-1.6586.38674-2.5501 1.7188-4.375 1.7188-.61094 0-1.2671.0148-1.1562-1.3125.11044-1.3269 1.7572-4.423 3.25-6.4688.65688-.90041.48826-1.2943 0-1.25z" style="fill:#000000;stroke:none"/>
<path d="m150.13 212.65 1.9497 6.1742m2.0608-7.3444 1.7276 6.24m2.6046-6.9524 1.187 6.365m2.8332-7.1693 1.2705 6.3489m3.8851-6.8578 1.033 6.3918m4.4516-6.3851 1.1124 6.3784m4.2413-8.1888.80352 6.4247m4.2333-6.0997.80352 6.4247m4.0708-7.0746.80352 6.4247m4.0891-6.9296.442 6.4596m4.7866-6.4615.3835 6.4634m4.3568-6.7899.32661 6.4665m4.9004-6.7927.27128 6.469m5.7404-6.6315.27128 6.469m79.044.17749-1.9497 6.1742m-2.0608-7.3444-1.7276 6.24m-2.6046-6.9524-1.187 6.365m-2.8332-7.1693-1.2705 6.3489m-3.8851-6.8578-1.033 6.3918m-4.4516-6.3851-1.1124 6.3784m-4.2413-8.1888-.80352 6.4247m-4.2333-6.0997-.80352 6.4247m-4.0708-7.0746-.80352 6.4247m-4.0891-6.9296-.442 6.4596m-4.7866-6.4615-.3835 6.4634m-4.3568-6.7899-.32661 6.4665m-4.9004-6.7927-.27128 6.469m-5.7404-6.6315-.27128 6.469m-7.2022-6.8899v7.1232"/>
</g>
</g>
</svg>
