<?xml version="1.0" encoding="UTF-8" standalone="no"?>
<svg id="svg" xmlns:rdf="http://www.w3.org/1999/02/22-rdf-syntax-ns#" xmlns="http://www.w3.org/2000/svg" width="1200" height="800" version="1.1" xmlns:cc="http://creativecommons.org/ns#" xmlns:dc="http://purl.org/dc/elements/1.1/">
<metadata>
<rdf:RDF>
<cc:Work rdf:about="">
<dc:format>image/svg+xml</dc:format>
<dc:type rdf:resource="http://purl.org/dc/dcmitype/StillImage"/>
<dc:title/>
</cc:Work>
</rdf:RDF>
</metadata>
<path d="m0 0h1200v800h-1200z" fill="#da2032"/>
<path d="m400 0h400v800h-400z" fill="#0066b3"/>
<g transform="matrix(.33333 0 0 .33334 466.66 -.0136)" fill="#ffd900">
<path d="m-1240 1080h200v960h-200z" stroke-width="1.118"/>
<path d="m-560 1080h200v960h-200z" stroke-width="1.118"/>
<path d="m-1e3 1920 200 120 200-120z" stroke-width=".55902"/>
<path d="m-1e3 1800h400v80h-400z" stroke-width=".45644"/>
<path d="m-1e3 1080 200 120 200-120z" stroke-width=".55902"/>
<path d="m-1e3 1240h400v80h-400z" stroke-width=".45644"/>
<path d="m-705 1384.2c14.88 20.22 22.928 44.664 22.968 69.768 0.03 65.176-52.796 118.03-117.97 118.04a94 94 0 0 0-93.988 93.988 94 94 0 0 0 93.988 93.984c110.45 0 200-89.544 200-200 0-73.424-40.392-140.91-105-175.78zm-95 241.8a40 40 0 0 1 40 40 40 40 0 0 1-40 40 40 40 0 0 1-40-40 40 40 0 0 1 40-40z" style="paint-order:normal"/>
<path d="m-895 1735.8c-14.88-20.22-22.928-44.664-22.968-69.768-0.03-65.176 52.796-118.03 117.97-118.04a94 94 0 0 0 93.988-93.988 94 94 0 0 0-93.988-93.984c-110.45 0-200 89.544-200 200 0 73.424 40.392 140.91 105 175.78zm95-241.8a40 40 0 0 1-40-40 40 40 0 0 1 40-40 40 40 0 0 1 40 40 40 40 0 0 1-40 40z" style="paint-order:normal"/>
<path d="m-1019.6 815.62a220 220 0 0 0-0.4 4.38 220 220 0 0 0 220 220 220 220 0 0 0 220-220 220 220 0 0 0 0-4 240 240 0 0 1-219.84 143.98 240 240 0 0 1-219.76-144.38z" style="paint-order:normal"/>
<circle cx="-799.83" cy="760" r="160" style="paint-order:normal"/>
<path d="m-783.19 240.05c-19.88 9.02-27.308 25.284-28.908 41.484-1 13.64 5.02 29.004 5.62 42.344 0 22.956-23.752 30.516-23.752 63.28 0 11.26 10.4 23.668 10.4 52.892-1.8 15.34-10.36 18.8-20 20a20 20 0 0 1-20-20 20 20 0 0 1 5.54-13.76 20 20 0 0 1 2.04-2c4.56-4.6 10.82-6.38 10.78-18.52 0-6.24-4.04-11.92-7.9-22.968-3.64-10.72-1-28.64 7.66-39.22-14 5.4-22.628 18.82-27.028 30.86-4.64 14.8-0.6 23.324-6.96 35.624-3.88 7.96-8.5 11.26-12.88 17.9-5.18 7.24-11.26 24.172-11.26 32.032a100 100 0 0 0 100 100 100 100 0 0 0 100-100c0-7.86-6-24.792-11.18-32.032-4.38-6.64-9.08-9.94-12.96-17.9-6.28-12.3-2.24-20.824-6.88-35.624-4.4-12.04-13.04-25.456-27.032-30.86 8.66 10.58 11.3 28.5 7.66 39.22-3.88 11.04-7.96 16.72-7.96 22.968 0 12.14 6.22 13.92 10.78 18.52a20 20 0 0 1 2.04 2 20 20 0 0 1 5.54 13.76 20 20 0 0 1-20 20c-11.06-1.4-19-6.56-20-20 0-38.504 16.48-40.96 16.48-69.452 0-40.684-36.484-59.944-36.484-89.688 0-10.08 2.36-27.26 16.64-40.86z" style="paint-order:normal"/>
</g>
</svg>
