<?xml version="1.0" encoding="UTF-8"?>
<svg xmlns="http://www.w3.org/2000/svg" xmlns:xlink="http://www.w3.org/1999/xlink" width="900" height="600" version="1.1">
<defs>
<linearGradient id="j" x1="498.74" x2="500.63" y1="289.06" y2="283.42" gradientUnits="userSpaceOnUse">
<stop stop-color="#510000" offset="0"/>
<stop stop-color="#8a0000" offset=".3"/>
<stop stop-color="#a00" offset="1"/>
</linearGradient>
<linearGradient id="k" x1="501.44" x2="502.93" y1="291.37" y2="287.45" gradientUnits="userSpaceOnUse">
<stop stop-color="#ff2a2a" offset="0"/>
<stop stop-color="red" offset="1"/>
</linearGradient>
<linearGradient id="d">
<stop stop-color="#025" offset="0"/>
<stop stop-color="#04a" offset=".5"/>
<stop stop-color="#025" offset="1"/>
</linearGradient>
<linearGradient id="b" x1="444.51" x2="634.41" y1="317.49" y2="317.49" gradientUnits="userSpaceOnUse" xlink:href="#d"/>
<clipPath id="p">
<path d="m500 226.38-63.702 110.33h127.4z"/>
</clipPath>
<linearGradient id="e" x1="484.76" x2="484.76" y1="311.71" y2="317.65" gradientUnits="userSpaceOnUse">
<stop stop-color="#f5f549" offset="0"/>
<stop stop-color="#97c924" offset="1"/>
</linearGradient>
<linearGradient id="n" x1="98.901" x2="124.97" y1="1440.2" y2="1440.2" gradientTransform="scale(4.4572 .22436)" gradientUnits="userSpaceOnUse" xlink:href="#d"/>
<linearGradient id="o" x1="47.855" x2="61.745" y1="3054.2" y2="3054.2" gradientTransform="scale(9.1241 .1096)" gradientUnits="userSpaceOnUse" xlink:href="#d"/>
</defs>
<rect width="900" height="600" fill="#0067c6"/>
<rect y="200" width="900" height="200" fill="#fff"/>
<g transform="translate(-50)" fill="#c8a400">
<path d="m410 299.33c3.3263.22223 6.6527.44445 9.979.66668.0329-.48587.064-.97205.0981-1.4577-1.3082-.0873-2.6164-.17511-3.9247-.26198.0986-1.6033.23297-3.2047.3036-4.8094 1.3883-1.0041 2.7776-2.007 4.1615-3.0172.0412-.61599.0823-1.232.12346-1.848-1.4628 1.062-2.9256 2.1239-4.3884 3.1859-.14757-1.0379-.72165-2.1073-1.7646-2.4679-.91323-.33059-2.0317-.3884-2.8231.26424-1.0033.738-1.1836 2.0586-1.3139 3.2078-.17463 2.177-.29658 4.36-.45091 6.5375zm1.5194-1.3622c.12006-1.6376.19451-3.2792.35147-4.9136.12284-.80837.27116-1.7421.97877-2.2569.63951-.42451 1.5846-.10865 1.8462.61403.52201 1.2467.29033 2.6216.22338 3.9302-.0632.94689-.12655 1.8938-.18977 2.8407-1.0698-.0707-2.1415-.14232-3.2101-.21445zm-.22043-13.961c3.246.75791 6.492 1.5158 9.7381 2.2737.73769-3.1594 1.4754-6.3188 2.2131-9.4782-.4612-.10769-.92241-.21537-1.3836-.32306-.62753 2.6876-1.2551 5.3752-1.8826 8.0628-.98811-.2308-1.9763-.4614-2.9644-.69221.56551-2.4219 1.131-4.8439 1.6965-7.2658-.45886-.10714-.91773-.21428-1.3766-.32142-.5655 2.4219-1.131 4.8439-1.6965 7.2658-.87427-.20424-1.7486-.40821-2.6229-.61249.60401-2.5868 1.208-5.1737 1.812-7.7605-.46355-.10824-.92711-.21647-1.3907-.32471-.71415 3.0587-1.4283 6.1174-2.1425 9.176zm3.508-13.077c3.1484 1.0949 6.2968 2.1899 9.4451 3.2848.15992-.45982.31983-.91964.47975-1.3795-1.2384-.4307-2.4768-.86135-3.7152-1.2921.48491-1.4288 1.0162-2.8425 1.4621-4.284.31982-1.1769.56684-2.5527-.12567-3.6471-.56233-.80874-1.5622-1.3277-2.5494-1.2964-1.0886.0466-1.9754.84759-2.4583 1.7755-.71429 1.3421-1.1137 2.818-1.6346 4.2399-.30127.86629-.60255 1.7326-.90382 2.5989zm1.8252-.91156c.50573-1.4172.96234-2.8528 1.5095-4.2545.34032-.74874.75526-1.6371 1.6168-1.8754.70884-.16219 1.4517.38249 1.5132 1.1086.17309 1.3358-.4107 2.5967-.82087 3.8366-.25986.74722-.51973 1.4944-.77958 2.2417-1.013-.35237-2.026-.70467-3.0391-1.0569zm3.3918-11.184c1.7808 1.0329 3.5465 2.0926 5.3375 3.1073 1.0102.54316 2.2914.85386 3.3473.24536 1.4406-.79757 2.343-2.2707 3.051-3.7071.55788-1.2103.96223-2.714.25161-3.9506-.76525-1.235-2.1561-1.8026-3.3437-2.5402-1.1524-.67405-2.3048-1.3481-3.4572-2.0222-.2446.4182-.4892.83639-.7338 1.2546 1.6941.99759 3.4004 1.9752 5.0865 2.9859.80638.49107 1.4745 1.3805 1.3356 2.3686-.15909 1.178-.83235 2.2118-1.5033 3.1639-.5532.77126-1.4826 1.3938-2.469 1.1852-1.0291-.19727-1.8651-.87054-2.7694-1.3571-1.1331-.66277-2.2662-1.3255-3.3993-1.9883-.24459.41819-.48923.83643-.7338 1.2546zm7.203-11.771c2.6473 2.0256 5.2946 4.0512 7.9418 6.0768 1.2324-1.609 2.46-3.2225 3.7014-4.8237.71204-1.0218 1.3678-2.3506.88541-3.6042-.43852-.99742-1.466-1.7695-2.5672-1.8208-.49731-.0682-1.1458.30822-1.4149.47419.28305-1.0658-.58942-2.0679-1.5719-2.3504-1.1818-.42013-2.3805.33763-3.1622 1.1784-.9204 1.0011-1.6889 2.1285-2.5307 3.1946-.42725.55838-.85449 1.1168-1.2817 1.6751zm2.0143-.29772c.92943-1.1906 1.8092-2.4218 2.783-3.5763.45282-.50395 1.1794-1.0748 1.8816-.70532.64009.27772.79787 1.0851.49233 1.6663-.48521 1.0398-1.2862 1.8828-1.954 2.8054-.36367.47529-.72737.95057-1.091 1.4259-.70398-.53866-1.408-1.0773-2.1119-1.616zm3.2359 2.476c.96434-1.2336 1.8726-2.5129 2.8901-3.7034.51954-.54354 1.1724-1.2286 1.997-1.0723.70444.16212 1.2166.92689.97341 1.6363-.39626 1.3091-1.376 2.3114-2.1643 3.396-.4137.54068-.82742 1.0813-1.2411 1.622-.81839-.62621-1.6368-1.2524-2.4552-1.8786zm3.7538-12.785 6.8675 7.2689 5.8826-5.5577-.97575-1.0328-4.7055 4.4456-.12052.11387-.0869-.092-5.8049-6.1442zm8.804-7.703 6.0954 7.9276 1.1892-.91429-6.0954-7.9276zm8.956-6.082c-.98774.61544-1.7842 1.335-2.3978 2.1755-.6112.83726-.94122 1.7105-.98884 2.6224-.0476.91165.19536 1.7945.73286 2.6572.49251.79046 1.1527 1.4038 1.9762 1.8442.82023.43856 1.7056.60098 2.676.49235.96511-.10804 2.0551-.53501 3.2688-1.2913 1.1655-.72616 1.9914-1.5623 2.5003-2.5248.48822-.92337.62578-1.9036.41645-2.9473l-1.383.5422c.36225 1.9986-.92658 2.9588-2.3699 3.8748-2.2587 1.374-4.4597 1.2745-5.8083-.78982-1.3983-2.3278.12974-4.2509 2.0517-5.4996 1.3639-.85119 2.7079-1.4332 3.9872-.61857l1.0826-.9642c-.74564-.51452-1.5921-.75257-2.5556-.6994-1.0116.0558-2.0682.42819-3.1887 1.1263zm11.817-5.897-1.047 11.206 1.5574-.62791.31478-3.4742.006-.003 5.0583-2.0394 2.6364 2.2843 1.5574-.62791-8.5265-7.3458-1.5574.62791zm1.3684 1.1486 3.3246 2.8779-3.7234 1.5012.39877-4.3791zm20.55-7.3306c.20805 3.3268.41609 6.6537.62414 9.9805 1.8044-.12174 3.6118-.20647 5.414-.35597 1.4176-.16233 2.9388-.53067 3.9077-1.6588 1.2513-1.3881 1.4288-3.4619.88129-5.1886-.4596-1.5208-1.8274-2.6711-3.3756-2.9629-1.5244-.29289-3.0784-.0617-4.6138.008-.94594.0591-1.8919.11841-2.8378.1774zm1.5393 1.3273c1.4365-.0757 2.8707-.21585 4.3097-.22392.81646-.0241 1.6286.21461 2.2879.70072 1.0007.68405 1.588 1.9155 1.4567 3.125-.0712 1.3898-1.0933 2.6686-2.4441 3.0204-.77283.19999-1.5759.25601-2.3671.34365-.93214.0583-1.8643.11665-2.7964.17483-.14939-2.3802-.29825-4.7605-.44654-7.1407zm12.399-1.9183c-.19023 3.3279-.38046 6.6558-.57069 9.9837 3.2391.18516 6.4782.37031 9.7173.55547.027-.47284.0541-.94567.0811-1.4185-2.7554-.1572-5.5107-.31562-8.2662-.47205.0573-1.0131.11603-2.0261.17328-3.0391 2.4831.14086 4.966.28372 7.4491.42535l.0807-1.4113c-2.483-.14163-4.966-.28449-7.4491-.42535.0507-.89637.10241-1.7927.15347-2.689 2.6521.15053 5.3042.30305 7.9562.45434.0272-.47524.0543-.95049.0815-1.4257-3.1356-.17925-6.2711-.35851-9.4067-.53776zm26.11 4.166-3.6161 9.3233 1.286.4988 3.016-7.7762.15998.42657 3.4482 9.9188 1.684.65315 3.6161-9.3233-1.2893-.50007-2.8657 7.3885-.1464.37752-.158-.42191-3.454-9.9134zm13.434 5.771-4.5458 8.907-1.3361-.68187 4.5458-8.907zm7.543 4.419c-.97142-.64089-1.9577-1.0645-2.9776-1.2715-1.0159-.20614-1.9472-.14174-2.7958.19546-.84836.3371-1.5494.92626-2.1091 1.7747-.51289.77738-.79492 1.6332-.85151 2.5654-.0563.92841.16547 1.8009.66904 2.6374.50084.83202 1.3436 1.6444 2.5373 2.432 1.1462.75621 2.2506 1.1579 3.3377 1.2189 1.0429.0584 1.9911-.22553 2.8523-.85122l-1.0698-1.0306c-1.6652 1.1631-3.0756.39239-4.5102-.53714-2.1911-1.4795-3.019-3.5213-1.7056-5.6081 1.5321-2.242 3.9174-1.6556 5.8541-.43 1.3426.88435 2.4323 1.863 2.2257 3.3655l1.328.58161c.15651-.89231.0197-1.7609-.43062-2.6143-.47283-.89607-1.252-1.701-2.354-2.428zm9.521 7.182-10.454 4.1698 1.2681 1.1007 3.2365-1.3015.005.005 4.1188 3.5751-.83343 3.3874 1.2681 1.1007 2.6582-10.936-1.2682-1.1007zm-.39961 1.7412-1.0486 4.2704-3.0318-2.6316 4.0804-1.6388zm7.9526 5.2068-7.716 6.363c.30955.37576.6199.75094.92896 1.1271 1.0116-.83421 2.0232-1.6684 3.0347-2.5026 1.0288 1.2336 2.0292 2.4914 3.0795 3.7066-.32075 1.6831-.6431 3.3659-.95647 5.0504.39278.4763.78555.95259 1.1783 1.4289.33526-1.7763.67051-3.5526 1.0058-5.3288.86447.70788 2.1276 1.0633 3.1602.50203.88803-.42012 1.6704-1.2277 1.7162-2.2566.10773-1.3787-.87542-2.4962-1.6624-3.5187-1.2557-1.5241-2.5136-3.0474-3.7689-4.5713zm-.17038 2.0335c1.0802 1.3343 2.2144 2.6267 3.246 3.9989.47574.70741 1.0686 1.7014.52294 2.528-.44979.70689-1.4347.64494-2.0391.18646-1.2247-.82376-2.0334-2.0869-2.9893-3.1837-.40756-.49424-.81514-.98846-1.2227-1.4827.82739-.68229 1.6549-1.3647 2.4822-2.047zm11.868 13.881-11.243.51528.83758 1.4554 3.4843-.16949.003.006 2.7204 4.7271-1.8971 2.9274.83758 1.4554 6.094-9.4618-.83758-1.4554zm-.94796 1.5142-2.3896 3.6912-2.0025-3.4795 4.3921-.21167zm7.364 11.723c-.62517-1.6966-1.6112-3.4337-3.2799-4.2824-1.8566-.93284-4.328-.47908-5.6446 1.1557-1.147 1.3592-1.2056 3.2812-.89925 4.9518.36199 1.9179 1.2413 3.7441 2.563 5.1854-.24899.0895-.49798.17897-.74697.26846.15949.44375.31898.88751.47847 1.3313 1.5614-.56118 3.1229-1.1224 4.6843-1.6836-.60724-1.6861-1.2145-3.3722-1.8217-5.0583-.36076.12966-.72152.25931-1.0823.38897.44666 1.2427.89326 2.4855 1.34 3.7282-.52894.19019-1.0579.38024-1.5869.57038-1.3999-1.2026-2.181-2.9803-2.5864-4.7482-.30073-1.3266-.3127-2.9166.69375-3.9606 1.1545-1.2009 3.2012-1.5738 4.587-.54964 1.3668 1.0002 2.1383 2.6215 2.5281 4.233.26694 1.06.22329 2.32-.58098 3.1471-.22477.16883.13155.40385.19251.60544.12747.21048.25493.42097.3824.63145.84766-.66844 1.3601-1.7142 1.3436-2.7967.0283-1.0643-.20642-2.1206-.56409-3.1178zm2.872 7.809-5.5926 1.0879c-1.0379.20191-1.8158.53072-2.3346.96809-.51784.43655-.84913 1.0522-1.0089 1.871-.15808.81019-.13548 1.8029.0969 3.0108.002.009.004.0182.005.0277.23733 1.207.58855 2.1357 1.0388 2.8276.45504.69917.99299 1.1458 1.6367 1.3564.64489.21099 1.4893.2242 2.5272.0223l5.5926-1.0879-.27754-1.4267-5.4575 1.0616c-2.45.47659-3.2752-.81293-3.696-3.0187-.002-.009-.003-.0183-.005-.0277-.43677-2.2026-.15514-3.7075 2.2948-4.1841l5.4575-1.0616-.27752-1.4267zm3.068 17.02-10.348-4.4252.12129 1.6748 3.2113 1.3626.00051.007.39395 5.4397-2.9814 1.8111.1213 1.6748 9.6023-5.8701-.1213-1.6748zm-1.5122.95131-3.7571 2.2847-.28998-4.0041 4.0471 1.7195z"/>
<rect transform="matrix(-.96705 .25458 .25458 .96705 0 0)" x="-322.94" y="414.2" width="1.5" height="6.3"/>
<rect transform="matrix(.96705 .25458 -.25458 .96705 0 0)" x="644.14" y="159.61" width="1.5" height="6.3"/>
<path d="m433.22 343.99-11.181 1.2862.93557 1.3944 3.4644-.40839.004.006 3.0386 4.5291-1.6916 3.0508.93557 1.3944 5.4297-9.858-.93556-1.3944zm-.84172 1.5758-2.1305 3.8466-2.2367-3.3338 4.3672-.51281zm5.1217 4.5332-7.1271 6.6648.95177 1.0178 6.0063-5.6166-3.151 8.67 1.0915 1.1672 8.6112-2.614-5.898 5.5154.95176 1.0178 7.1271-6.6648-1.4457-1.546-8.751 2.6144 3.2765-8.4686zm10.381 10.591c-2.0052 2.6628-4.0104 5.3256-6.0155 7.9883 2.5917 1.9517 5.1834 3.9033 7.7751 5.855.2849-.37833.5698-.75667.8547-1.135-2.2047-1.6602-4.4094-3.3205-6.6141-4.9806.61036-.8106 1.2208-1.6211 1.8312-2.4317 1.9868 1.4961 3.9735 2.9922 5.9603 4.4883.28345-.37641.5669-.75281.85035-1.1292-1.9868-1.4961-3.9735-2.9922-5.9603-4.4883.54002-.71722 1.0802-1.4344 1.6202-2.1516 2.1221 1.5979 4.2441 3.1959 6.3661 4.7939.28635-.38026.5727-.76052.85905-1.1408l-7.5271-5.6682zm9.784 7.161c-1.57 2.9409-3.14 5.8818-4.71 8.8228.42937.22948.85923.45816 1.2883.68814.61751-1.1566 1.2349-2.3134 1.8525-3.47 1.4211.74871 2.8254 1.5302 4.2594 2.2538.34467 1.6784.68772 3.3571 1.0397 5.0339.54461.29074 1.0892.58147 1.6338.87221-.36674-1.77-.73349-3.5401-1.1002-5.3102 1.069.32516 2.3722.17258 3.1131-.73977.62944-.70484 1.058-1.6933.75635-2.6393-.35132-1.3034-1.6342-1.9859-2.717-2.6173-1.8029-.96908-3.6118-1.9287-5.416-2.8944zm.61719 1.9451c1.5071.8222 3.0482 1.5848 4.5247 2.4607.68458.46205 1.5532 1.0947 1.4672 2.0265-.0761.81768-.95762 1.2541-1.7034 1.0806-1.4592-.24188-2.69-1.1122-3.9896-1.7612-.60467-.32278-1.2093-.64561-1.814-.96836.50503-.94608 1.0101-1.8922 1.5151-2.8382zm10.678 3.9609-3.7786 9.2586 1.3888.5668 3.7786-9.2586zm9.018 3.115c-1.1045-.36671-2.167-.51975-3.2056-.45482-1.0346.0647-1.9172.36866-2.6492.91462-.73176.5458-1.2558 1.2968-1.576 2.2614-.29347.88389-.34361 1.7836-.15626 2.6985.18663.9112.62734 1.6961 1.3308 2.3732.69968.67346 1.7245 1.2392 3.0817 1.6898 1.3032.43271 2.4741.5339 3.5397.31054 1.0223-.21431 1.8643-.73475 2.5335-1.5626l-1.3006-.71755c-1.3061 1.5555-2.8682 1.1774-4.495.65224-2.5-.85988-3.8297-2.6167-3.1031-4.973.89751-2.5628 3.3532-2.6159 5.5417-1.9351 1.5262.50545 2.8326 1.1676 3.0232 2.6723l1.4334.2169c-.0805-.90234-.43816-1.7056-1.0946-2.4129-.68925-.74259-1.6507-1.3176-2.9036-1.7336zm10.054 2.251-6.5402 9.1591 1.6619.24047 2.0192-2.8446.007.001 5.3977.78104 1.13 3.3003 1.6619.24048-3.6757-10.637-1.6619-.24047zm.60512 1.6809 1.4264 4.1594-3.9732-.57492 2.5469-3.5845zm22.836-1.6099c-1.1427.22076-2.1441.60727-3.018 1.1722-.87056.56274-1.4915 1.2598-1.8626 2.0941-.37102.83409-.46045 1.7454-.26766 2.7434.17666.91443.57327 1.7236 1.1844 2.4297.6087.70328 1.3772 1.1721 2.322 1.4183.93976.24486 2.1104.23669 3.5145-.0346 1.3482-.26047 2.4188-.74526 3.2388-1.4616.7866-.6872 1.2662-1.5531 1.4446-2.6025l-1.4854.0108c-.37773 1.9957-1.925 2.4305-3.6007 2.7687-2.601.47368-4.6203-.40766-5.1399-2.8181-.47161-2.6742 1.6439-3.9223 3.8856-4.3997 1.5783-.30613 3.0416-.36804 3.9442.85082l1.3562-.51239c-.51183-.74748-1.2168-1.273-2.1354-1.5685-.96449-.31025-2.0844-.34112-3.3806-.0907zm6.678-1.183c.94813 3.1956 1.8963 6.3913 2.8444 9.5869 3.1104-.92283 6.2207-1.8456 9.3311-2.7685-.13471-.45405-.26943-.90809-.40414-1.3621-2.6459.78505-5.2918 1.57-7.9377 2.3551-.28864-.97278-.57724-1.9456-.86588-2.9184 2.3843-.70751 4.7687-1.4149 7.153-2.1223-.13403-.45173-.26805-.90347-.40208-1.3552-2.3844.70745-4.7687 1.4148-7.153 2.1223-.25541-.86072-.51069-1.7215-.76615-2.5822 2.5467-.75567 5.0934-1.5112 7.6401-2.2668-.1354-.45636-.27079-.91271-.40619-1.3691-3.0111.89339-6.0223 1.7868-9.0334 2.6802zm10.818-3.4c1.3994 3.0253 2.7989 6.0507 4.1984 9.076.41731-.19304.83461-.38607 1.2519-.57911-1.1672-2.5233-2.3344-5.0466-3.5017-7.5699 3.2371 1.4682 6.4549 2.9794 9.6846 4.4642.21532.18677.43059.0619.64586-.0532.41968-.19414.83935-.38827 1.259-.5824-1.3994-3.0253-2.7989-6.0507-4.1984-9.076-.41837.19353-.83673.38706-1.2551.58059 1.1657 2.52 2.3314 5.04 3.4971 7.56-3.3236-1.5069-6.629-3.0544-9.9456-4.5771-.54537.25228-1.0908.50455-1.6361.75683zm10.981-5.158.7834 1.1903 3.5716-2.3506.13556-.0892.0676.10271 4.6466 7.0602 1.2141-.79904-4.7142-7.1629.13849-.0912 3.5892-2.3622-.7834-1.1903zm10.062-6.89c2.2591 2.4516 4.5182 4.9032 6.7774 7.3547.35826-.32963.71559-.66044 1.0744-.98933-.88853-.9642-1.777-1.9284-2.6656-2.8926 1.1753-1.0949 2.3759-2.1632 3.5318-3.2786 1.6982.22782 3.3962.45717 5.0953.67753.45399-.41836.90799-.83671 1.362-1.2551-1.792-.23715-3.584-.4743-5.376-.71145.65931-.90206.94479-2.1828.32762-3.183-.46831-.86361-1.3177-1.6004-2.3476-1.5896-1.3825-.0318-2.4444 1.0113-3.422 1.8532-1.4528 1.3374-2.9049 2.6777-4.3573 4.0142zm2.0398.0584c1.273-1.1518 2.501-2.3555 3.8145-3.4609.6802-.51389 1.6401-1.1605 2.4954-.66105.73053.41027.7228 1.3971.29822 2.0258-.75622 1.2694-1.9746 2.1471-3.0183 3.163-.46989.433-.93977.866-1.4097 1.299-.72675-.78859-1.4537-1.5775-2.1802-2.366zm9.5942-11.702 4.4734 10.327 1.0632-1.2998-1.3955-3.1971.004-.005 3.4532-4.2215 3.4103.73412 1.0632-1.2998-11.009-2.3375-1.0632 1.2998zm1.7522.34857 4.2992.9234-2.5419 3.1074-1.7573-4.0308zm2.6028-6.0136 8.3904 5.4407 4.403-6.7901-1.1921-.77303-3.522 5.4315-.0902.13913-.10617-.0688-7.0921-4.5989z"/>
</g>
<g transform="translate(-50)" clip-path="url(#p)">
<path d="m500 226.41-31.479 54.536-15.42 26.702h93.797l-14.714-25.484-32.184-55.753z" fill="#fff"/>
<g id="a">
<g id="c">
<path d="m500 226.41-2.3566 4.0816 2.3566 54.977 2.3566-54.977z" fill="#17c0eb" opacity=".62041" stroke="#17c0eb" stroke-width=".12869"/>
<path d="m500 277.48c-.044 0-.0891.002-.1335.003l.1335 3.1112.13351-3.1112c-.0443-.00097-.0892-.003-.13351-.003z" fill="#fff"/>
</g>
<use transform="matrix(.30902 .95106 -.95106 .30902 616.99 -278.28)" width="1000" height="600" xlink:href="#c"/>
<use transform="matrix(-.80902 .58779 -.58779 -.80902 1072.3 222.52)" width="1000" height="600" xlink:href="#c"/>
<use transform="matrix(-.80902 -.58779 .58779 -.80902 736.72 810.31)" width="1000" height="600" xlink:href="#c"/>
<use transform="matrix(.30902 -.95106 .95106 .30902 73.997 672.78)" width="1000" height="600" xlink:href="#c"/>
</g>
<use transform="matrix(.99027 .13917 -.13917 .99027 44.595 -66.809)" width="1000" height="600" xlink:href="#a"/>
<use transform="matrix(.96126 .27564 -.27564 .96126 98.054 -126.76)" width="1000" height="600" xlink:href="#a"/>
<use transform="matrix(.91355 .40674 -.40674 .91355 159.34 -178.69)" width="1000" height="600" xlink:href="#a"/>
<use transform="matrix(.84805 .52992 -.52992 .84805 227.25 -221.58)" width="1000" height="600" xlink:href="#a"/>
<use transform="matrix(.76604 .64279 -.64279 .76604 300.47 -254.61)" width="1000" height="600" xlink:href="#a"/>
<use transform="matrix(.66913 .74314 -.74314 .66913 377.58 -277.12)" width="1000" height="600" xlink:href="#a"/>
<use transform="matrix(.55919 .82904 -.82904 .55919 457.07 -288.68)" width="1000" height="600" xlink:href="#a"/>
<use transform="matrix(.43837 .89879 -.89879 .43837 537.39 -289.07)" width="1000" height="600" xlink:href="#a"/>
<path d="m500 265.84c-11.067 0-21.195 4.0514-28.969 10.75l-14.656 25.406c-.50136 2.6704-.75 5.434-.75 8.25h5.0312c0-21.726 17.617-39.344 39.344-39.344 21.726 0 39.344 17.617 39.344 39.344h5.0312c0-2.8134-.24954-5.5819-.75-8.25l-14.656-25.406c-7.7729-6.6966-17.904-10.75-28.969-10.75z" fill="red"/>
<path d="m500 266.66c-11.764 0-22.439 4.6749-30.281 12.25l-12.031 20.844c-.83351 3.3661-1.2812 6.8762-1.2812 10.5h4.25c0-21.726 17.617-39.344 39.344-39.344 21.726 0 39.344 17.617 39.344 39.344h4.25c0-3.6249-.44735-7.1641-1.2812-10.531l-12.031-20.812c-7.841-7.5746-18.518-12.25-30.281-12.25z" fill="#f60"/>
<path d="m500 267.47c-12.702 0-24.101 5.5222-31.938 14.312l-8.7188 15.094c-1.384 4.2085-2.125 8.7035-2.125 13.375h3.4375c0-21.726 17.617-39.344 39.344-39.344 21.726 0 39.344 17.617 39.344 39.344h3.4375c0-4.6731-.74037-9.1653-2.125-13.375l-8.719-15.095c-7.836-8.788-19.237-14.312-31.938-14.312z" fill="#ff0"/>
<path d="m500 268.25c-14.55 0-27.372 7.4141-34.906 18.656l-2.8125 4.875c-2.735 5.574-4.282 11.842-4.282 18.469h2.6562c0-21.726 17.617-39.344 39.344-39.344 21.726 0 39.344 17.617 39.344 39.344h2.6562c0-6.6156-1.5558-12.871-4.2812-18.438l-2.844-4.937c-7.536-11.227-20.337-18.625-34.875-18.625z" fill="#0f0"/>
<path d="m500 269.06c-22.747 0-41.188 18.44-41.188 41.188h1.8438c0-21.726 17.617-39.344 39.344-39.344 21.726 0 39.344 17.617 39.344 39.344h1.8438c0-22.747-18.44-41.188-41.188-41.188z" fill="#0cf"/>
<path d="m500 269.84c-22.306 0-40.375 18.1-40.375 40.406h1.3438c0-21.559 17.472-39.031 39.031-39.031s39.031 17.472 39.031 39.031h1.375c0-22.306-18.1-40.406-40.406-40.406z" fill="#00f"/>
<path d="m500 270.66c-21.864 0-39.589 17.725-39.589 39.589 0 .24501.003.48981.007.73377h.8008c-.005-.24405-.007-.48864-.007-.73377 0-21.422 17.366-38.788 38.788-38.788s38.788 17.366 38.788 38.788c0 .24513-.002.48972-.007.73377h.79727c.004-.24396.007-.48876.007-.73377 0-21.864-17.721-39.589-39.585-39.589z" fill="purple"/>
<path d="m500.4 288.13c-.64444-.12422-1.2256-.48362-1.7753-.60947-.75553.72433-.83505 1.4562-.73118 2.0793.26291.13958.31133.353.87825.86011s.49599.7732.46178 1.9654c-.0144.50237.0702 1.5806.57906 1.682.54856.1093.93237-.34645 1.0899-1.1605.15297-.79058.4179-1.2158.69822-1.7018.30651-1.8522-.19317-2.508-1.2008-3.1151z" fill="#510000"/>
<path d="m497.17 283.52c-.5954.015-1.5285 1.0122-1.9431.4754-.2385-.30879-.2787-.90191-.037-1.4001.55866-1.1514 1.1245-1.716 2.1674-2.3305 2.3777-1.4008 3.8889-.95056 5.074 1.0627 1.0982 1.7729 2.152 3.7299 2.2461 5.3719.0291.50093.28239 1.4078-.15623 1.8598-1.3478 1.3892-4.5961-1.4351-6.4972-.9882-.63913.15025-1.3773.6166-1.9805.21781-.46922-.31025-.0771-.99697.27265-1.2941.61215-.52003 1.501-2.3652 1.3801-3.1644-.0677-.44682-.08.17838-.52586.18962z" fill="red"/>
<path d="m496.93 282.55c-1.0833.4452-.96582 1.0762-1.5094 1.5902.15386.0578.7653.31056 1.3634-.30126.25817-.21386.54788-.29339.67713-.36245-.30513.22158-.52326.55469-.68366.68484-.40495.32861-1.0346 1.0824-1.341 1.8461-.30631.76368-.43013 1.6729-.37506 1.782.0551.1091.42587.77878 1.5653 1.2316 2.031.80708 2.4171 2.4386 4.4777 2.4386 1.6134 0 1.3544-1.0558 2.6458-.83159 1.1192.19425 1.714-.69654.63574-1.2318-1.371-.46864-4.0919-.19196-5.3725.0332-.41337-4.0836-.0551-2.6498-.15181-4.4052-.0968-1.7554-.62285-1.8606.0724-3.2812-.57778.87239-1.2768.73447-2.004.807z" fill="url(#j)"/>
<path d="m500.94 279.8c-.0401.22319-.0767.51644-.0555.6.087.33854.17464.69288.27745.99375.11493.33621.16173.57942.24047.92812.0812.35981.40101.50003.69364.72188.36987.28044.0839 1.0376.31445 1.0688.18399.025.48828-1.0713.49017-1.2469 0-.23637-.001-.42692-.037-.64687-.1351-.29493-.27167-.58548-.42543-.87188-.002-.004-.007-.006-.009-.009-.0604-.11211-.12197-.22206-.19422-.32812-.21674-.3182-.48469-.61247-.78613-.8625-.0186-.0154-.0367-.0318-.0555-.0469-.0843-.0645-.17013-.13028-.25896-.1875-.0629-.0405-.12933-.0758-.19422-.1125z" fill="#ff2a2a"/>
<path d="m501.25 287.4c-.71834-.18768-1.4258-.54264-2.0371-.72519-1.2005-.3585-2.4799-1.1341-3.3655-.81346-.31696.14032-.28927.45588-.39018.90946-.0419.53363-.59621 1.3195-.13634 1.0624.68545-.38318 2.4907.73271 3.0954 1.1062.28651.17693.89218.52377 1.0815 1.0217.18934.49792.092 1.7559.0412 2.2955-.0533.56606.11902 1.835.68594 1.987.61122.16378 1.078-.32245 1.3158-1.2298.23091-.8812.40519-1.3872.75742-1.9153s.75591-.75584 1.3198-.86236c.56393-.10651 1.3823.46186 1.3823-.20334 0-.43694-.38382-.85479-.22071-1.4537.12846-.47174-.40137-.37766-.84179-.57224-1.0359-.31872-1.9694-.41916-2.6878-.60684z" fill="url(#k)"/>
<path d="m498.36 288.9c-.32675-.17761-2.3152-1.4778-3.0428-1.071-.22993.12854-.31747-.0162-.32062-.25731-.004-.24106.10913-.59399.18399-.86612.0749-.27214.19591-.79179.5164-1.0619.68731-.5793 2.2686.57503 3.1082.88679-.0717.4352-.47012 2.3552-.44516 2.3696z" fill="#910000"/>
<path d="m501.76 291.36c.91566-1.6029 1.5076-1.3969 2.6134-1.3736.36843.008.47628-.32925.39238-.66749-.278.62397-1.6621-.069-2.415.26261-1.5725.69255-1.2803 3.7698-2.0263 4.0703.77552.65117 1.1236-1.7457 1.4356-2.2918z" fill="#ff3a3a"/>
<g fill="url(#b)">
<path d="m453.1 307.64-9.9554 17.237h113.71l-9.9554-17.237h-93.797z" fill="#fff"/>
<g id="h">
<path id="g" d="m449.7 321.36c-1.6578 0-3.1973.16736-4.7096.35278l-.48684.84666c2.4334-.21658 4.6972-.64924 7.1403-.70908 3.2935.0801 6.2835.82902 9.7861.82902 1.5179.0147 3.027-.0297 4.5262 0 3.4992 0 6.4885-.74896 9.7826-.82902 3.2958.0801 6.304.82902 9.8038.82902 1.5177.005 3.1775-.0238 4.5297 0 3.4992 0 6.4743-.74896 9.765-.82902 3.2929.0801 6.2692.82902 9.7685.82902 1.5304.0148 3.033-.0299 4.5438 0 3.4992 0 6.4904-.74896 9.7861-.82902 3.2963.0795 6.2811.82902 9.7826.82902 1.5162.0145 3.0311-.0297 4.5298 0 3.4987 0 6.4748-.74896 9.765-.82902 2.5508.062 4.9209.51761 7.486.72319l-.51507-.89252c-1.4029-.16829-2.8346-.32103-4.3674-.32103-1.5292-.0208-3.0364.0308-4.5473 0-3.4992 0-6.4737.74842-9.765.82902-3.2963-.0801-6.2835-.82902-9.7861-.82902-1.5127-.0209-3.0301.0312-4.5262 0-3.4992 0-6.4926.74897-9.7861.82902-3.2941-.0801-6.2834-.82902-9.7826-.82902-1.5219-.0207-3.0419.0308-4.5473 0-3.4992 0-6.4754.74897-9.765.82902-3.294-.0801-6.2692-.82902-9.7685-.82902-1.5228-.0213-3.0263.0313-4.5262 0-3.5026 0-6.4898.74897-9.7861.82902-3.294-.0806-6.2834-.82902-9.7826-.82902-1.5202-.0209-3.0433.0313-4.5473 0z" fill="url(#b)"/>
<use y="-1.113" width="1000" height="600" fill="url(#b)" xlink:href="#g"/>
<use y="-2.23" width="1000" height="600" fill="url(#b)" xlink:href="#g"/>
</g>
<use y="-3.344" width="1000" height="600" fill="url(#b)" xlink:href="#h"/>
<use y="-6.691" width="1000" height="600" fill="url(#b)" xlink:href="#h"/>
<path d="m453.23 307.46-.12347.21519h93.79l-.12348-.21519h-93.543zm-.21872.37746-.127.21873h94.235l-.127-.21873h-93.981zm-.20109.34572-.20461.35631h94.792l-.2046-.35631h-94.383zm-.3175.55033-.25047.43392h95.519l-.25048-.43392h-95.018zm-.39864.69144-.25047.43392h96.316l-.25047-.43392h-95.815zm-.39864.69144-.24695.43039h97.106l-.24693-.43039h-96.612zm-.39864.69144-.25048.43039h97.911l-.25048-.43039h-97.41zm-.43039.74436-.30339.52916h98.877l-.30339-.52916h-98.27z" fill="url(#b)"/>
<path d="m457.36 312.29c3.4502.6621 3.7818 0 3.7818 0zm81.503 0s.3316.6621 3.7818 0z" fill="url(#b)"/>
</g>
<g fill="#ccd11e">
<g id="l">
<path d="m530.63 297.04c-1.7088 0-2.2316.86208-2.2316.86208-2.7368 10.576-11.808 21.333-22.601 21.333h-8.0802v10.768c0 .003.0112 0 .017 0h61.498l-6.1865-10.954c-9.7078-1.4488-17.64-11.373-20.167-21.147-3e-4 0-.54017-.86208-2.249-.86208z" fill="url(#e)"/>
<path d="m530.63 297.46c-.78411 0-1.2601.18069-1.5384.35499-.26383.16497-.31454.2757-.32096.28758 0 .007-.0151.01-.0176.0168-1.3997 5.3224-4.3519 10.668-8.3337 14.706-4.012 4.0697-9.0697 6.8293-14.605 6.8293h-7.6748v9.9227h60.856l-5.68-10.058c-4.6876-.61173-8.9731-3.163-12.458-6.6942-3.9857-4.0383-6.9321-9.3835-8.3337-14.706 0 0-.0164-.0165-.017-.0168-.007-.012-.0696-.10431-.33797-.27057-.28308-.17556-.75393-.372-1.538-.372z" fill="#97c924"/>
<path d="m530.63 297.46c.14713 0 .27966.0211.4057.0341.0238 3.0173 0 8.1091 0 10.801-.0287 2.3401-.83034 4.2225-2.0118 6.4408-.54742 1.5541-.98612.96232-2.3493 2.8567-1.8316.65398-3.1867.90876-5.1384 1.2166-2.5175.39758-8.1216.75027-10.887.13523 3.6411-1.0672 6.9608-3.2694 9.771-6.1195.74649-.7573 1.4594-1.5595 2.1297-2.4001 1.1181-1.4005 2.1275-2.9129 3.0092-4.4794.35269-.6264.68645-1.249.99749-1.8933.46683-.9661.88335-1.9506 1.2512-2.941.12279-.3305.24396-.66588.35485-.99747.22233-.66372.41706-1.3296.59179-1.995.002-.006.0151-.0103.0168-.0168.006-.0119.0579-.12225.32077-.28724.13578-.0849.3316-.17039.57502-.23692.005-.001.0124.001.0168 0 .25153-.0665.55446-.11793.9461-.11793z" fill="#ede71f"/>
<path d="m529.94 298.9c-.41166 6.0341-2.2774 13.192-6.6443 17.811-1.6066 1.3366-3.66 2.55-5.6458 2.2546 6.7704-5.5104 10.885-13.947 12.29-20.065z" fill="#c6cb24"/>
<path d="m524.49 309.28c-1.0018 2.7214-4.7878 6.7465-8.84 10.045-1.1506.0352-1.7597.10115-2.8042.0379 2.4678-.22502 8.2217-5.0826 11.644-10.083z" fill="#9ecb34"/>
</g>
<use x="-15.341" width="1000" height="600" xlink:href="#l"/>
<g fill="#c6cb24">
<path d="m502.22 297.91c2.7346 10.576 11.79 21.333 22.583 21.333h8.0885v10.768c0 .003-.0144 0-.017 0h-65.795c-.006 0-.0167.003-.0167 0v-10.768h8.0715c10.793 0 19.863-10.758 22.6-21.333 0 0 .53408-.86562 2.2429-.86562s2.2429.86562 2.2429.86562z" fill="url(#e)"/>
<path d="m499.98 297.46c.78378 0 1.2546.19644 1.5384.372.26865.16626.33123.25869.33829.27057l.017.0168c1.4016 5.3228 4.3481 10.668 8.3338 14.706 4.0165 4.0697 9.0867 6.8293 14.623 6.8293h7.6405v9.9224h-64.98v-9.9224h7.6745c5.5356 0 10.593-2.7599 14.605-6.8293 3.9818-4.0383 6.9337-9.3838 8.3337-14.706.003-.007.0151-.01.017-.0168.006-.012.0575-.12228.32096-.28758.2786-.1743.75458-.35499 1.5384-.35499z" fill="#97c924"/>
<path d="m499.26 297.53c-.0864.0162-.16714.0347-.24243.0546-.004.001-.0128-.001-.0176 0-.24288.0665-.43572.15144-.5715.23636-.26398.16499-.31454.27385-.32103.28575-.002.006-.016.0111-.0176.0176-.17526.66535-.37034 1.333-.59266 1.9967-.11089.33159-.23352.66433-.35631.99484-.36838.99044-.782 1.9761-1.2488 2.9422-.31158.64425-.64567 1.268-.99836 1.8944-.88173 1.5665-1.8911 3.0763-3.0092 4.4768-.67076.84061-1.3843 1.6451-2.1308 2.4024-2.8096 2.8502-6.1279 5.0499-9.7684 6.1172 2.7647.61504 4.0315-.056 6.5485-.45356 1.9522-.30779 4.2109-.5631 6.0431-1.2171 1.3637-1.8943.89896-1.2999 1.4464-2.854 1.1809-2.2184 2.9054-4.2218 3.3338-6.6816 1.6186-3.0215 1.903-8.6137 1.903-10.213z" fill="#ede71f"/>
<path d="m499.28 298.9c-.41166 6.0341-2.2768 13.192-6.6438 17.811-1.6066 1.3366-3.66 2.55-5.6458 2.2546 6.7704-5.5104 10.885-13.947 12.29-20.065z"/>
<path d="m493.83 309.28c-1.002 2.7214-4.7881 6.7468-8.8402 10.045-1.1503.035-1.7595.10077-2.8042.0375 2.4679-.2253 8.2224-5.0827 11.644-10.083z" fill="#9ecb34"/>
<path d="m500.95 297.58c.004.001.0128-.001.0176 0 .24288.0665.43572.15144.5715.23636.26398.16499.31454.27385.32103.28575.002.006.016.0111.0176.0176.17526.66535.37034 1.333.59266 1.9967.11089.33159.23352.66433.35631.99484.36838.99044.782 1.9761 1.2488 2.9422.31158.64425.64567 1.268.99836 1.8944.88173 1.5665 1.8911 3.0763 3.0092 4.4768.67076.84061 1.3843 1.6451 2.1308 2.4024 2.8096 2.8502 6.1279 5.445 9.7684 6.5123-7.2449.0274-10.389-.63-13.022-4.0166-2.6332-3.3866-3.606-4.8682-4.1405-6.9364-.53451-2.0683-2.0254-6.5704-1.8699-10.806z" fill="#ede71f"/>
<path d="m501.48 298.9c.41166 6.0341 2.2209 12.006 6.5874 16.625 1.6066 1.3366 3.66 2.5499 5.6458 2.2546-7.3348-5.0019-10.829-12.762-12.233-18.88z"/>
</g>
<g id="m">
<path d="m484.75 297.04c-1.7091 0-2.2483.86208-2.2483.86208-2.5224 9.7465-11.825 22.318-21.496 23.811l-4.7898 8.2898h49.014v-11.349c-8.8247-2.3707-15.889-11.629-18.248-20.752-.00034 0-.52284-.86208-2.2316-.86208z" fill="url(#e)"/>
<path d="m484.75 297.46c-.7841 0-1.255.19644-1.5384.372-.26864.16626-.33123.25869-.33797.27057-.00033 0-.017.0168-.017.0168-1.4016 5.3228-4.6775 10.704-8.0797 14.989-3.4023 4.2842-9.7197 8.6182-14.042 9.0764l-4.2827 7.3937h48.06v-10.694c-3.554-1.0906-6.7992-3.2664-9.5523-6.0586-3.9818-4.0383-6.9337-9.3838-8.3337-14.706-.002-.007-.0154-.01-.017-.0168-.006-.012-.0578-.12228-.32128-.28758-.27891-.1743-.7549-.35499-1.5387-.35499z" fill="#97c924"/>
<path d="m483.44 298.9c-.61721 9.0433-5.6533 20.454-11.34 22.419-1.8543.64154-5.0983.86441-6.2273 1.0088 9.9489-4.7315 15.828-15.854 17.568-23.428z" fill="#93bc30"/>
<path d="m484.75 297.46c-.14713 0-.27966.0211-.4057.0341-.0233 3.0173 0 8.1091 0 10.801.0292 2.3401.83088 4.2225 2.0118 6.4408.0687.1942.13577.35377.20285.49009.41003 1.0856.7135 1.4627 2.2822 2.6538 4.9869 3.7865 11.17 4.3529 14.808 4.0402-1.1398-.89849-2.3579-1.7153-3.4317-2.4677 1.7115-.0552 3.3511-.24883 4.5136-.5074-3.6405-1.0672-6.9608-3.2694-9.7704-6.1195-.48955-.49658-.94501-1.0218-1.4032-1.5552-.20826-.29156-.50091-.69725-.59178-.81139-1.1181-1.4005-2.2628-2.947-3.1445-4.5135-.35269-.6264-.6859-1.249-.99748-1.8933-.46683-.9661-.88282-1.9506-1.2512-2.941-.1228-.3305-.24397-.66588-.35486-.99747-.22232-.66372-.41652-1.3296-.59178-1.995-.002-.006-.0152-.0103-.0168-.0168-.006-.0119-.0573-.12225-.32132-.28724-.13578-.0849-.3316-.17039-.57502-.23692-.005-.001-.0124.001-.0168 0-.25153-.0665-.55446-.11793-.9461-.11793z" fill="#ede71f"/>
<path d="m485.45 298.9c.41166 6.0341 2.2774 13.192 6.6438 17.811 1.6066 1.3366 3.66 2.55 5.6458 2.2546-6.7704-5.5099-10.885-13.947-12.29-20.065z"/>
<path d="m489.61 307.25c2.369 5.8369 8.37 11.289 14.543 14.954 1.1503.035 1.4912.003 2.5362-.06-4.4183-2.3709-11.538-5.7538-17.08-14.894z" fill="#9ecb34"/>
</g>
<use x="-15.43" width="1000" height="600" fill="#c6cb24" xlink:href="#m"/>
</g>
<path d="m556.5 324.69c-.57438.20274-4.4212-.18918-6.4329-.0441l-1.2794.33561c-1.1235-.008-2.2382.0249-3.3302 0-3.6022 0-6.6495.94833-10.075.94896-3.4327 0-6.47-.94896-10.075-.94896-1.1191-.008-2.2336.025-3.3302 0-3.6015 0-6.6463.94896-10.075.94896-3.4292 0-6.4733-.94896-10.075-.94896-1.1309-.007-2.2416.0238-3.3479 0-3.6018 0-6.6322.94896-10.058.94896-3.4288 0-6.4559-.94896-10.058-.94896-.26736 0-.51646.009-.77612.0177-.17781-.004-.37669-.0177-.55739-.0177-.11972 0-.22152-.003-.33867 0-.11714-.003-.23659 0-.35631 0-.18069 0-.3443.0138-.52212.0177-.25964-.008-.51195-.0177-.77963-.0177-3.6054 0-6.6424.94929-10.075.94896-3.4291 0-6.4736-.94896-10.075-.94896-.2619 0-.52159.01-.77611.0177-.1807-.004-.33885-.0177-.52212-.0177-.12421 0-.25198-.003-.37394 0-.11715-.003-.23659 0-.35631 0-.1807 0-.36162.0138-.53975.0177-.25902-.008-.50844-.0177-.77612-.0177-2.8788 0-6.2181.60744-8.9359.8502l-6.2724 10.858 62.971-.007 64.375.007z" fill="#fff"/>
<path d="m547.99 323.11c-.19914 0-.3979 0-.5962.007-3.2402.0945-5.5641 1.1148-11.201 1.1148-5.6366 0-6.2181-1.0186-12.584-.87843-5.9467.13098-8.4422 1.2612-11.67 1.2171-3.2276-.0441-8.4727-.69756-12.51-.27513-4.0368.4224-8.8283 1.2839-11.973 1.2911-3.9083-.0174-7.8196-.73101-11.906-.32454-4.0867.40647-5.997 1.4999-11.063 1.4852-4.3552-.0126-9.0829-.69768-12.746-.69498-3.4348.003-7.2666.95724-10.086 1.4429l-.84314 1.464c2.247-.26058 8.5515-1.2182 10.802-1.2771 2.3442-.0613 10.717.48306 15.335.32457 4.6183-.15849 5.1587-1.1712 10.619-1.1712 3.801 0 6.666.39864 10.566.39864 2.4341 0 4.6432-1.2418 8.3432-1.2418.93595-.0267 1.8645-.0608 2.794-.0914 3.1186-.51522 8.3834.0449 12.047.23274 3.3153.17289 5.4573-.61554 8.9147-.73023 1.4958-.0682 2.9974-.0659 4.4732-.1483 3.4606-.11481 6.4222.64053 9.6802.62442 3.25-.20046 6.4035-.9225 9.8601-1.0372 1.5112-.0717 2.9979-.0723 4.4909-.1482 2.2862-.0758 5.8358.0784 8.2726.50094l-.83962-1.4499c-2.3795-.0756-5.3119-.63528-8.1809-.63501z" fill="url(#n)"/>
<g id="f">
<path id="i" d="m450.31 334.75c-3.4571 0-6.4022.85314-9.6521.94542-1.2107-.0338-2.3665-.18372-3.5348-.34572l-.49037.8502c.48641.0323.97518.0635 1.4887.0635 1.5012.0181 2.9903-.0362 4.4733 0 3.4571 0 6.382-.85251 9.6344-.94545 3.254.0923 6.2055.94545 9.6662.94545 1.5011.0185 2.9922-.0362 4.4733 0 3.4574 0 6.4121-.85317 9.6662-.94545 3.256.0923 6.2302.94545 9.6874.94545 1.4952.018 2.9932-.0361 4.4698 0 3.4574 0 6.4013-.85317 9.6521-.94545 3.2534.0923 6.1914.94545 9.6485.94545 1.5128.0184 2.9993-.0362 4.4909 0 3.4571 0 6.4105-.85317 9.6662-.94545 3.2576.0917 6.21.94545 9.6697.94545 1.4954.018 2.9921-.0361 4.4698 0 3.4571 0 6.401-.85317 9.6521-.94545 3.253.0923 6.209.94545 9.6662.94545 1.4993.0181 2.9955-.0361 4.4732 0 .60565 0 1.1964-.0342 1.778-.0776l-.46213-.79728c-1.0641.14412-2.1338.27615-3.235.3069-3.2544-.0923-6.195-.94542-9.6521-.94542-1.5106-.0196-2.9978.0292-4.4909 0-3.4571 0-6.3968.85314-9.6485.94542-3.2569-.0916-6.2058-.94542-9.6662-.94542-1.496-.0198-2.9929.0297-4.4732 0-3.4571 0-6.4124.85314-9.6662.94542-3.2544-.0923-6.209-.94542-9.6662-.94542-1.5033-.0196-3.0035.0292-4.4909 0-3.4571 0-6.3987.85314-9.6485.94542-3.2541-.0923-6.195-.94542-9.6521-.94542-1.5058-.02-2.9897.0296-4.4732 0-3.4604 0-6.4092.8538-9.6662.94542-3.2544-.0923-6.2087-.94542-9.6662-.94542-1.5022-.0201-3.0058.0298-4.4909 0z" fill="url(#o)"/>
<use y="-1.289" width="1000" height="600" xlink:href="#i"/>
<use y="-2.575" width="1000" height="600" xlink:href="#i"/>
</g>
<use y="-3.867" width="1000" height="600" xlink:href="#f"/>
<use y="-7.729" width="1000" height="600" xlink:href="#f"/>
<path d="m443.85 324.7-2.4271 4.191c2.839-.47073 7.1022-1.7031 10.634-1.7057 3.6629-.003 8.0819.90279 12.437.91545 5.0661.0147 6.9764-1.0787 11.063-1.4852 4.0867-.40644 7.9979.52761 11.906.54507 3.145-.007 7.9365-1.0892 11.973-1.5117 4.0368-.42243 7.7372.29346 12.603.3687 4.8658.0753 5.6296-1.1796 11.576-1.3106 6.3654-.14022 6.947.8784 12.584.8784 4.2415.22824 7.8828-.8541 11.666-1.1218 3.7835-.26772 5.5383.043 8.3044.10938l-1.838-3.2526c-.0306 0-.0608.003-.0917.004l-101.25 2.2256z" fill="#97c924"/>
<path d="m550.07 324.65s2.7101.1485 3.8475.27558c1.1374.12711 2.9545.25356 2.9545.25356l-.36909-.48504c-.57438.20274-4.4212-.18918-6.4329-.0441z" fill="#fff"/>
</g>
<path d="m450 224.87-32.142 55.686-32.858 56.899 64.298-.007 65.702.007-32.153-55.683-32.847-56.902zm0 3.0021 31.549 54.652 30.851 53.428-63.102-.004-61.701.004 31.56-54.645z" fill="#c8a400"/>
</svg>
