<?xml version="1.0" encoding="UTF-8"?><svg xmlns="http://www.w3.org/2000/svg" width="450" height="300"><path fill="#002b7f" d="M0 0h450v300H0z"/><path fill="#ffc61e" d="M0 137.5h450v25H0z"/><path fill="#fff" d="M112.5,262.5 106.0295,236.6481 87.5,255.8012 94.8223,230.1777 69.1987,237.5 88.3519,218.9705 62.5,212.5 88.3519,206.0295 69.1987,187.5 94.8223,194.8223 87.5,169.1988 106.0295,188.3519 112.5,162.5 118.9705,188.3519 137.5,169.1988 130.1777,194.8223 155.8013,187.5 136.6481,206.0295 162.5,212.5 136.6481,218.9705 155.8013,237.5 130.1777,230.1777 137.5,255.8012 118.9705,236.6481 112.5,262.5z"/></svg>