<?xml version="1.0" encoding="UTF-8" standalone="no"?><svg xmlns="http://www.w3.org/2000/svg" xmlns:xlink="http://www.w3.org/1999/xlink" version="1.1" width="450" height="300"><path d="M 0,0 H 450 V 300 H 0 z" style="fill:#002868"/><path d="M 225,0 H 450 V 300 H 0 V 150 h 225 z" style="fill:#fcd116"/><g style="font-size:12px"><path d="M 0,0 V 16.77 L 199.85,150 H 225 V 133.23 L 25.15,0 H 0 z M 225,0 V 16.77 L 25.15,150 H 0 V 133.23 L 199.85,0 H 225 z" style="fill:#fff"/><path d="m 93.75,0 v 150 h 37.5 V 0 H 93.75 z M 0,50 v 50 H 225 V 50 H 0 z" style="fill:#fff"/><path d="M 0,60 V 90 H 225 V 60 H 0 z M 101.25,0 v 150 h 22.5 V 0 h -22.5 z M 0,150 75,100 h 16.77 l -75,50 H 0 z M 0,0 75,50 H 58.23 L 0,11.18 V 0 z m 133.23,50 75,-50 H 225 L 150,50 H 133.23 z M 225,150 150,100 h 16.77 L 225,138.82 V 150 z" style="fill:#cf142b"/></g><g transform="matrix(5,0,0,5,112.5,75)"><g transform="scale(5.104,5.104)"><circle cx="0" cy="0" r="1" style="fill:#002868"/><path d="m 0,-1 0.6,1.8 -1.56,-1.1 h 1.9 L -0.6,0.8" id="a" style="fill:#fcd116"/></g><use transform="matrix(3,0,0,3,-17.5,0.29)" x="0" y="0" width="744.094" height="1052.36" xlink:href="#a"/><use transform="matrix(3,0,0,3,17.5,0.29)" x="0" y="0" width="744.094" height="1052.36" xlink:href="#a"/><use transform="matrix(3,0,0,3,0,10.29)" x="0" y="0" width="744.094" height="1052.36" xlink:href="#a"/><use transform="matrix(3,0,0,3,0,-9.71)" x="0" y="0" width="744.094" height="1052.36" xlink:href="#a"/></g></svg>