<?xml version="1.0" encoding="UTF-8"?>
<svg xmlns="http://www.w3.org/2000/svg" xmlns:xlink="http://www.w3.org/1999/xlink" width="675" height="450" version="1.1">
<g transform="translate(0 -602.36)">
<rect y="602.36" width="675" height="450"/>
<g transform="matrix(.78125 0 0 .78125 0 602.36)" fill="#fff">
<path d="m220.25 418.6 11.455-36.851 11.455 37.252-30.164-22.832h37.418z"/>
<path id="a" d="m192.42 178.5-22.909 73.702 60.327-44.862h-74.836l60.327 45.664z"/>
<use x="-88" y="112.504" width="768" height="576" xlink:href="#a"/>
<use x="87.582" y="104.504" width="768" height="576" xlink:href="#a"/>
<use y="264.504" width="768" height="576" xlink:href="#a"/>
</g>
<path d="m0 602.36h675v450z" fill="#ce1126"/>
<path d="m446.47 733.11c-4.4314 5.7238-14.918-5.7575-27.48-6.0198-12.562-.2622-21.461 12.039-25.125 16.227-3.6635 4.1881-15.441 26.172-15.179 28.527.26146 2.3555 7.3286-6.5427 9.9456-8.113.26145 3.1406-2.8792 6.805-2.094 7.8516.78516 1.0466 9.1596-6.2813 12.039-6.5427.78515 2.094-1.5703 4.1872-.78516 7.3278 1.0474 1.0466 5.7583-5.2346 8.899-6.5427.52292 2.3555-2.8792 6.805-1.0474 9.6834 1.3089.2614 9.1596-8.8982 11.777-9.9456s-1.3089 8.6367 0 9.4219c2.3555-1.5704 9.6841-9.9456 12.04-10.992s-.26146 10.731.78516 10.731c2.8784-2.094 10.207-12.039 10.992-13.609.78515-1.5703-.78516 15.179 7.3279 24.078 8.113 8.8989 20.415 19.105 21.723 19.105 1.5703-2.8792-.52292-8.8982.78515-8.6367 3.6635 3.9257 10.468 9.6833 12.039 9.6833s-1.0474-6.2813 1.0466-6.2813c4.188 3.9258 16.227 19.368 39.782 26.434-1.5703-4.4495-4.9732-8.3753-5.2346-10.468 1.5703.2615 7.0672 2.8792 8.1138 2.6169 1.0466-.2622-11.516-15.703-10.731-17.797 2.8792-.2615 4.188 1.5703 5.2346.2615-1.3088-2.0933-12.301-14.394-12.301-17.274s3.4029.5237 4.4495 0c1.0466-.5237-4.1872-11.516-3.1406-12.824 1.0466-1.3081 12.562 7.0664 15.441 7.0664 2.8792 0 .78516-10.207 2.094-10.731 1.3089-.5237 10.993 5.4961 13.086 5.4961s1.8318-4.4495 2.6169-3.9257c.78516.5236 23.555 23.293 15.703 49.988-7.8516 19.106-23.554 29.313-46.586 20.938 1.3081 2.094 13.609 12.301 26.957 8.6367 13.348-3.6644 29.574-14.133 27.742-40.304-1.8318-26.172-10.469-29.836-11.777-33.762s2.0948 1.0466 4.9732 2.094c2.8784 1.0474-.52371-5.4968-1.3089-8.376-.78516-2.8792 8.6367 6.0198 10.992 6.8049 2.3555.7852-5.4961-21.461-7.8516-23.031-2.3555-1.5704 2.3555.5229 3.9258 1.0466 1.5703.5237-14.395-24.34-17.797-24.34s2.8784-1.3088 4.7109-1.3088c1.8326 0-18.319-16.227-21.722-16.227-3.4029 0 7.3271-4.188 8.3745-4.4494 1.8326.2614-23.292-13.348-45.801.2614-1.3088-1.0458 10.6-9.29 10.992-12.823.13112-.91627-3.925-2.8792-4.1872-3.9258-.26224-1.0466 6.2812-4.1872 6.5427-6.5427-1.5703-2.094-4.4495-1.3088-6.0198-1.8318-.3918-1.9629 5.4969-6.805 4.9732-8.8982-.39258-1.1777-4.7117-1.5703-5.7583-.78516-1.0466.78516 2.7488-5.4961 2.094-7.3279-.52292-.78516-2.6169-.26146-4.7109.26146-1.3088-.26146 6.805-11.516 5.2346-13.086s-23.555 11.515-31.668 26.172c-8.113 14.656-1.831 26.434-2.8784 31.406-1.0474 4.9724-2.3563 9.9456-5.7583 9.9456-3.4021 0-11.253-5.2346-13.871-7.8516-2.6177-2.6169-3.1406-4.4495-6.805-5.4961-3.6643-1.0466-12.039 2.094-15.179 2.3555-3.1406.2615-15.442-2.3555-16.227-1.5703-.78516.7851 12.039 5.4961 14.918 7.0664s3.1414 3.6643 5.2346 4.9724c2.0932 1.3081 21.722 7.0664 15.441 15.179zm76.684 36.902c6.2812 6.2812 48.68 34.547 48.68 69.094s-30.883 33.501-39.782 32.454c9.9456 8.3744 47.633 6.8041 47.633-32.454 0-34.547-48.68-69.094-54.961-72.234-6.2812-3.1406-7.8516-3.1406-1.5703 3.1407z" fill="#fcd116"/>
</g>
</svg>
