<?xml version="1.0" encoding="UTF-8"?>
<svg xmlns="http://www.w3.org/2000/svg" width="825" height="550">
<path d="m0 0h825v550h-825z" fill="#0038a8" stroke-width=".9083"/>
<path d="m0 0h825v366.67h-825z" fill="#fff" stroke-width=".9083"/>
<path d="m0 0h825v183.33h-825z" fill="#d52b1e" stroke-width=".9083"/>
<path d="m482.19 274.98c0 38.504-31.193 69.712-69.696 69.712-38.483 0-69.692-31.208-69.692-69.712 0-38.488 31.21-69.676 69.692-69.676 38.503 0 69.696 31.188 69.696 69.676z" fill="#fff" stroke="#000" stroke-miterlimit="10" stroke-width="3.072"/>
<path d="m446.23 264.16c-1.693-0.068-1.703 1.798-1.703 1.798s0.058-0.552 0.01 0.074c-0.032 0.62 0.278 2.13 1.528 2.253 1.319 0.116 1.757-1.426 1.768-2.174 0-0.297-0.097-1.913-1.603-1.95" fill="#009b3a" stroke="#000" stroke-width=".821"/>
<path d="m368.78 302.87-0.597-0.989c-0.06-0.11-0.216-0.292-0.465-0.563a0.681 0.681 0 0 0-0.462-0.227 0.823 0.823 0 0 0-0.543 0.11c-0.232 0.141-0.384 0.331-0.408 0.562-0.045 0.236 0.065 0.56 0.327 0.998l0.604 1.029zm5.9-0.34-7.583 4.51-2.315-3.89c-0.429-0.73-0.69-1.31-0.792-1.768-0.119-0.466-0.062-0.903 0.13-1.337 0.192-0.438 0.54-0.803 1.025-1.094a2.63 2.63 0 0 1 1.233-0.381c0.425 0 0.813 0.105 1.189 0.304 0.232 0.133 0.502 0.34 0.796 0.64-0.07-0.324-0.11-0.58-0.094-0.778 0.025-0.118 0.078-0.312 0.184-0.608 0.102-0.284 0.2-0.482 0.261-0.608l1.532-2.44 1.563 2.65-1.563 2.631c-0.196 0.332-0.315 0.588-0.331 0.766-9e-3 0.247 0.045 0.462 0.163 0.673l0.13 0.215 3.072-1.828zm-13.35-6.175-2.315-6.918 1.785-0.6 1.45 4.336 1.339-0.45-1.364-4.024 1.715-0.56 1.347 4.005 1.642-0.531-1.482-4.462 1.894-0.645 2.352 7.048zm0.247-14.083-0.093-0.648c-0.061-0.54-0.192-0.888-0.392-1.07a0.944 0.944 0 0 0-0.747-0.235c-0.27 0.044-0.49 0.158-0.658 0.348-0.175 0.211-0.233 0.56-0.16 1.066l0.074 0.779zm-3.43 3.158-0.526-4.495c-0.106-0.965 0.033-1.735 0.437-2.278 0.417-0.539 1.054-0.863 1.911-0.96 0.882-0.11 1.613 0.08 2.168 0.547 0.548 0.474 0.899 1.264 1.03 2.35l0.167 1.48 3.246-0.377 0.319 2.72zm-0.306-17.2 0.282-2.708 5.235 0.563c0.514 0.061 0.996 0.199 1.425 0.402 0.461 0.206 0.829 0.506 1.135 0.895 0.302 0.39 0.515 0.762 0.613 1.164 0.134 0.53 0.171 1.179 0.085 1.925a9.93 9.93 0 0 1-0.245 1.378c-0.11 0.498-0.281 0.908-0.494 1.224a3.21 3.21 0 0 1-0.849 0.859 2.77 2.77 0 0 1-1.074 0.458c-0.58 0.118-1.078 0.142-1.51 0.093l-5.211-0.55 0.281-2.712 5.346 0.58c0.482 0.048 0.865-0.041 1.163-0.285 0.299-0.239 0.466-0.587 0.523-1.045 0.05-0.483-0.049-0.855-0.282-1.143-0.232-0.296-0.592-0.462-1.078-0.519zm8.769-7.41 0.47-1.305c0.143-0.442 0.184-0.783 0.086-1.03a0.817 0.817 0 0 0-0.535-0.482c-0.262-0.09-0.478-0.073-0.69 0.057-0.22 0.133-0.409 0.417-0.56 0.859l-0.465 1.313zm-3.27-1.147 0.396-1.107c0.134-0.405 0.171-0.713 0.073-0.92-0.073-0.199-0.245-0.357-0.51-0.434a0.758 0.758 0 0 0-0.645 0.029c-0.192 0.113-0.352 0.356-0.482 0.746l-0.413 1.138zm-4.162 1.463 1.675-4.827c0.29-0.803 0.702-1.338 1.257-1.642a2.098 2.098 0 0 1 1.7-0.126c0.481 0.19 0.848 0.483 1.102 0.912 0.15 0.284 0.245 0.657 0.245 1.09 0.347-0.55 0.747-0.9 1.192-1.05 0.453-0.161 0.947-0.153 1.482 0.033 0.42 0.146 0.772 0.385 1.05 0.701 0.265 0.333 0.44 0.698 0.527 1.111 0.04 0.267 0.02 0.624-0.074 1.066-0.139 0.62-0.22 1.013-0.29 1.196l-1.552 4.442zm4.493-11.296 1.425-2.326 5.676 3.44 2.21-3.63 1.85 1.13-3.602 5.954zm5.822-8.672 1.752-2.087 6.726 5.686-1.756 2.087zm12.214-4.738 2.292-0.98c0.294 0.616 0.461 1.203 0.485 1.779 0.02 0.567-0.09 1.102-0.326 1.6-0.262 0.507-0.69 0.998-1.278 1.513-0.748 0.608-1.434 1.005-2.083 1.179-0.641 0.166-1.36 0.126-2.16-0.126-0.772-0.255-1.507-0.81-2.217-1.641-0.923-1.13-1.348-2.237-1.254-3.324 0.09-1.106 0.686-2.099 1.772-3.015 0.862-0.713 1.662-1.086 2.45-1.147 0.768-0.073 1.585 0.158 2.405 0.673l-1.506 1.953c-0.229-0.15-0.42-0.25-0.584-0.283a1.322 1.322 0 0 0-0.731-9e-3c-0.241 0.053-0.474 0.166-0.67 0.333-0.478 0.4-0.686 0.895-0.616 1.487 0.04 0.442 0.322 0.957 0.812 1.569 0.633 0.75 1.18 1.17 1.63 1.256 0.473 0.097 0.91-0.036 1.318-0.377 0.397-0.34 0.613-0.697 0.621-1.086 0.012-0.414-0.098-0.863-0.36-1.354m8.917-5.296-2.303-2.383 0.58 3.27zm1.372 1.447-2.76 1.403 0.282 1.495-2.479 1.26-1.05-9.358 2.65-1.354 6.955 6.352-2.536 1.297zm10.719-9.188 0.678 4.758 0.662-0.097c0.567-0.07 0.964-0.195 1.188-0.353 0.217-0.174 0.364-0.397 0.453-0.746 0.098-0.324 0.098-0.83-3e-3 -1.536-0.13-0.92-0.376-1.536-0.719-1.828-0.35-0.292-0.878-0.397-1.58-0.292zm-2.964-1.593 4.002-0.576c0.788-0.105 1.429-0.097 1.943 0.049 0.531 0.15 0.968 0.393 1.352 0.75 0.372 0.356 0.67 0.79 0.882 1.297a6.19 6.19 0 0 1 0.457 1.665c0.143 0.924 0.143 1.67-8e-3 2.201a3.72 3.72 0 0 1-0.694 1.43c-0.335 0.394-0.707 0.69-1.119 0.856a6.112 6.112 0 0 1-1.58 0.482l-4.01 0.564zm11.993-1.709 7.272 0.54-0.135 1.876-4.553-0.34-0.106 1.398 4.223 0.312-0.152 1.787-4.201-0.3-0.123 1.719 4.684 0.348-0.147 1.986-7.412-0.547zm11.205 1.029 2.618 0.73-1.81 6.404 4.088 1.155-0.596 2.075-6.71-1.9zm14.867 9.777 0.563 0.365c0.433 0.287 0.8 0.409 1.066 0.38a0.818 0.818 0 0 0 0.65-0.405c0.146-0.223 0.2-0.474 0.167-0.746-0.053-0.259-0.294-0.522-0.719-0.802l-0.65-0.438zm-0.217-4.641 3.786 2.497c0.82 0.539 1.302 1.147 1.45 1.803 0.158 0.665 0 1.362-0.487 2.084-0.473 0.733-1.086 1.163-1.813 1.288-0.735 0.118-1.54-0.109-2.458-0.713l-1.245-0.827-1.789 2.728-2.283-1.512zm9.56 13.435 1.535-2.938-2.915 1.577zm-0.931 1.751-2.21-2.172-1.33 0.73-1.98-1.946 4.07-1.88 4.484-2.072 2.107 2.084-3.83 8.612-2.026-2.01zm8.184 3.822 0.621 0.981c0.074 0.098 0.208 0.288 0.486 0.547a0.725 0.725 0 0 0 0.474 0.207 0.758 0.758 0 0 0 0.522-0.13c0.233-0.15 0.364-0.336 0.405-0.575 0.032-0.227-0.09-0.568-0.364-0.981l-0.629-1.005zm-5.892 0.523 7.428-4.742 2.438 3.822c0.453 0.705 0.739 1.285 0.878 1.735 0.102 0.45 0.069 0.904-0.115 1.337-0.18 0.446-0.51 0.815-0.976 1.12-0.42 0.267-0.825 0.417-1.241 0.417-0.396 0.024-0.8-0.077-1.197-0.244a4.563 4.563 0 0 1-0.804-0.628c0.078 0.324 0.127 0.588 0.118 0.77a4.817 4.817 0 0 1-0.155 0.608 3.219 3.219 0 0 1-0.265 0.624l-1.438 2.489-1.666-2.598 1.495-2.667c0.2-0.357 0.298-0.612 0.298-0.79 8e-3 -0.24-0.029-0.466-0.188-0.67l-0.118-0.202-3.022 1.925zm10.414 11.866 2.642-1.994-3.303 0.183zm-1.604 1.18-1.058-2.914-1.503 0.105-0.96-2.614 9.417 0.11 1.017 2.78-7.15 6.128-0.98-2.691zm4.217 9.372 1.813-0.239 0.526 4.2-3.728 0.45c-0.629-0.73-1.11-1.383-1.368-1.979-0.286-0.591-0.47-1.309-0.575-2.148-0.135-1.037-0.066-1.905 0.224-2.602 0.261-0.697 0.727-1.277 1.38-1.735 0.658-0.433 1.434-0.721 2.336-0.83 0.952-0.126 1.813-0.029 2.564 0.283 0.752 0.3 1.356 0.807 1.826 1.52 0.363 0.564 0.604 1.338 0.718 2.343 0.135 0.96 0.135 1.694 8e-3 2.193a2.636 2.636 0 0 1-0.665 1.3 3.41 3.41 0 0 1-1.295 0.884l-0.792-2.541c0.315-0.158 0.547-0.36 0.686-0.649 0.143-0.275 0.18-0.624 0.143-1.005-0.098-0.6-0.343-1.045-0.792-1.345-0.461-0.3-1.14-0.394-2.03-0.284-0.947 0.117-1.588 0.389-1.96 0.782-0.35 0.414-0.481 0.944-0.416 1.577 0.033 0.3 0.122 0.58 0.237 0.839 0.126 0.275 0.31 0.555 0.563 0.904l0.83-0.114zm5.578 13.213-0.31 2.699-5.21-0.588a4.426 4.426 0 0 1-1.438-0.41 3.178 3.178 0 0 1-1.127-0.895c-0.298-0.38-0.502-0.766-0.6-1.155-0.127-0.563-0.16-1.196-0.074-1.937 0.058-0.422 0.14-0.888 0.241-1.386 0.119-0.499 0.294-0.904 0.515-1.22 0.212-0.317 0.498-0.596 0.841-0.848 0.384-0.239 0.735-0.389 1.086-0.45 0.572-0.109 1.082-0.145 1.511-0.08l5.219 0.595-0.31 2.692-5.338-0.613c-0.486-0.052-0.87 0.033-1.172 0.272-0.294 0.243-0.47 0.584-0.518 1.05-0.053 0.478 0.037 0.855 0.273 1.143 0.23 0.292 0.588 0.466 1.066 0.539zm-8.11 10.029 3.32 0.118-2.68-1.954zm-1.969-0.101 1.005-2.922-1.23-0.88 0.915-2.63 7.244 6.019-0.996 2.816-9.388 0.231 0.923-2.699zm4.864 8.112-1.532 2.606-3.47 0.012 1.661 3.048-1.523 2.574-2.678-5.549-3.177-1.872 1.396-2.355 3.173 1.885z"/>
<path d="m470.86 274.98c0 32.242-26.126 58.372-58.352 58.372-32.235 0-58.361-26.13-58.361-58.372 0-32.218 26.126-58.344 58.36-58.344 32.227 0 58.353 26.126 58.353 58.344z" fill="none" stroke="#000" stroke-miterlimit="10" stroke-width="1.229"/>
<path d="m455.93 274.78c0 23.994-19.436 43.428-43.423 43.428-23.986 0-43.431-19.434-43.431-43.428 0-23.97 19.445-43.409 43.431-43.409 23.987 0 43.424 19.439 43.424 43.409z" fill="none" stroke="#000" stroke-miterlimit="10" stroke-width="1.229"/>
<path d="m412.51 259.16 3.647 10.441 11.037 0.247-8.795 6.688 3.197 10.582-9.086-6.29-9.09 6.29 3.181-10.582-8.808-6.688 11.058-0.247z" fill="#fedf00" stroke="#000" stroke-width=".502"/>
<path d="m432.56 304.75c-0.368 0.308-1.85 0.474-2.242 0.54-0.396 0.052-1.952 0.068-2.61 0.092-0.363 0.025-1.061 0.126-1.424 0.126-3.19-0.364 5.182-0.313 6.276-0.758m-8.359-2.468c0.208-0.373 1.254-2.7 1.63-3.36 0.383-0.649 1.249-2.38 1.767-3.1 0.266-0.39 1.307-1.52 1.556-1.014-1.813 1.567-3.242 4.302-4.004 6.142-0.098 0.198-0.694 1.222-0.914 1.49-0.213 0.263-0.126 0.76-0.46 0.8-0.352 0.044-0.106 0.108-0.106 0.108s0.302-0.673 0.531-1.066zm12.026 1.78s-1.442-0.216-2.336-0.532c-0.89-0.3-2.385-0.53-3.659-0.498-1.262 0.016-2.417 0.397-3.446 0.79-1.025 0.381-2.352 0.413-2.352 0.413s-0.752 0.118-0.4-0.056c0.334-0.166 1.498-1.074 1.498-1.074l0.752-1.03c0.216-0.06 4.03-5.064 3.615-6.407 0.584-0.989 1.268-2.753 1.011-3.06-0.122-0.126-2.969 0.903-3.593 1.47-0.723 0.625-1.234 1.926-1.45 2.676-0.212 0.745-1.307 1.361-1.307 1.361-0.89 0.64-1.535 2.667-1.837 4.325-0.306 1.637-4.34 2.544-4.34 2.544s-1.119 0.418-0.126 0.734c0.171 0.048 0.614 0.797 0.97 0.809 0.493 0.057 2.998-1.015 3.386-0.93a29.72 29.72 0 0 1 2.523 0.69c0.956 0.324 1.744 0.49 2.413 0.243 0.678-0.244 1.646-0.15 2.373-8e-3 0.715 0.154 1.515 0.089 1.976-0.053 0.494-0.15 1.793-0.872 1.793-0.872s1.405-0.608 2.217-0.989c0.813-0.38 0.319-0.547 0.319-0.547" fill="#009b3a" stroke="#000" stroke-width=".628"/>
<path d="m425.27 308.93s-5.554-2.906-5.852-2.975c-0.175-0.024-2.52-1.317-3.593-1.65-0.776-0.251-1.846-0.316-2.23-0.292-0.914 0.065-2.407 0.468-2.407 0.468l1.38 0.564s1.295 0.636 1.928 0.977c0.906 0.478 0.947 1.061 0.947 1.061l5.029 2.212 1.02 0.733s0.928-1.28 3.778-1.098" fill="#009b3a" stroke="#000" stroke-width=".502"/>
<path d="m430.86 297.4c1.747-1.558 2.601-3.773 4.038-5 0.233 0.167 0.233 0.445-0.051 0.936-0.272 0.483-0.633 0.65-0.792 0.902-0.293 0.393-1.168 1.12-1.405 1.556-0.21 0.414-0.482 0.992-1.244 1.432-0.758 0.453-0.52 1.174-0.584 1.477-0.06 0.333-1.229 1.17-1.793 2.204-0.107 1.078-0.156 0.626-0.81 1.009 1.19-1.794 1.816-2.95 2.641-4.516m-3.926 4.93c-0.112 0.236-3.557 2.192-2.48 1.902 1.071-0.282 4.254-1.431 5.158-1.833 1.106-0.483 1.77-1.496 2.6-2.32 0.848-0.842 3.47-3.347 3.923-4.313 0.443-0.995 0.847-2.378-0.931-5.485 0 0-0.276 0.594-0.938 1.175-0.655 0.594-1.632 1.252-1.632 1.252l-1.14 1.077s-4.026 7.396-4.56 8.546" fill="#009b3a" stroke="#000" stroke-width=".662"/>
<path d="m440.92 299.73s-2.205-0.198-2.397-0.198c-0.208 0-1.417-0.167-3.173-0.167-1.74 0-2.393 0.604-2.85 1.09-0.494 0.544-1.866 1.8-1.866 1.8l0.739-0.065c1.764-1.374 3.136-0.87 3.683-0.91 0.572-0.02 1.26 0.036 3.025-0.589 1.792-0.628 1.687-0.04 1.491 0.02a9.298 9.298 0 0 1-2.66 0.537c-1.33 0.073-2.498 0.331-3.02 0.331-0.527 0-4.409 1.062-4.409 1.062s4.201 0.246 4.654 0.396c0.45 0.183 1.156 0.098 1.74-0.182 1.609-0.742 2.336-0.884 2.997-1.033 0.666-0.13 1.458-0.58 1.458-0.58s0.425-0.268 0.817-0.98c0.404-0.73-0.23-0.532-0.23-0.532m2.062-11.509c0.265-0.657 0.927-2.201 1.63-2.809 0.428-0.373 1.167-0.547 1.559-0.713 0.167-0.057 1.373-0.115-0.134 0.299-0.625 0.166-1.469 0.536-1.844 1.165-0.527 1.462-0.987 2.736-1.965 3.67-0.719 0.754-1.174 1.736-1.174 1.736l-0.77 0.267c1.412-0.865 2.025-2.468 2.698-3.615zm6.827-0.823c-0.804 0.268-1.086 0.49-1.086 0.49-1.8 0.54-2.537 1.67-3.325 2.59-0.4 0.482-0.964 0.842-2.863 1.656-1.735 0.746-3.077 1.898-3.11 1.898 0 0-0.55 0.113-0.445 0.38 0.041 0.127 0.51 0.025 0.51 0.025s3.575-0.51 5.065-1.417c0.952-0.596 1.49-1.03 2.392-2.424 0.404-0.616 0.857-1.775 0.878-1.03 0.07 1.978-3.002 3.895-4.34 4.487-0.716 0.304-1.671 0.43-2.92 0.636-1.234 0.227-1.985 0.159-1.895-0.113 0.126-0.393 0.27-0.474 0.596-0.863 0.588-0.701 2.009-0.949 3.054-1.44 1.238-0.554 2.41-1.37 2.998-2.066 0.6-0.705 0.808-0.965 0.971-1.56 0.458-1.557 0.482-2.42 0.911-2.976 1.51-1.86 1.731-2.46 1.805-3.29 0.016-0.191-0.784 0.441-1.2 0.672-0.813 0.482-1.115 0.482-2.781 0.916-1.691 0.422-1.654 1.512-1.916 2.027-0.077 0.206-0.763 1.062-1.09 1.22-0.327 0.166-1.131 1.329-1.429 2.01-0.22 0.498-0.613 0.855-0.927 0.815-0.33-0.061 0.633-3.664 0.845-4.26 0.229-0.592 0.274-1.747 0.274-2.136 0-0.373 0.013-1.354-0.64-1.464-0.65-0.11-0.68-1.007-0.68-1.007-1.563 1.354-0.69 3.74-0.522 5.154 0.168 1.402-0.322 3.996-0.322 3.996 1.51 0.645 0.322 2.48-0.147 3.073-0.494 0.603-1.43 0.713-1.85 1.244-0.445 0.547-3.609 4.953-3.609 4.953l3.936-1.115s0.367 0.065-0.221-0.38c-0.596-0.427 0.192-2.08 0.698-2.485 0.968-0.758 2.275-0.207 2.275-0.207s1.825 0.28 4.063-0.608c1.87-0.738 2.674-1.933 3.56-2.833 0.482-0.49 1.364-2.116 1.92-3.08 0.335-0.556 0.935-1.614 0.567-1.488" fill="#009b3a" stroke="#000" stroke-width=".628"/>
<path d="m438.65 297.98c0.3-0.122 0.345-0.176 0.896-0.777 0.542-0.6 0.064-1.613-0.774-1.572-0.41 0.027-0.846-0.068-1.652 1.016-0.778 1.085 0.373 1.482 0.81 1.527 0.187 0.01 0.433-0.072 0.72-0.194" fill="#009b3a" stroke="#000" stroke-width=".7"/>
<path d="m436.62 291.12c-0.521 0.872-0.8 1.874-0.39 2.183 0.092 0.051 0.455 0.37 0.762 0.37 0.302 0 1.158-0.411 1.646-1.164 0.489-0.73 0.889-1.532-0.111-2.03-0.907-0.449-1.53-0.029-1.907 0.64" fill="#009b3a" stroke="#000" stroke-width=".715"/>
<path d="m439.6 280.46s0.082-0.134-0.261-0.49c-0.543-0.556-1.223-1.547-1.223-1.547-1.082 0.592-1.442 1.787-1.442 2.262 0 0.494 0.184 1.568 0.017 2.663-0.058 0.372-0.119 0.798-0.654 2.152-0.547 1.337 0.078 2.565 0.2 2.999 0.094 0.43 0.54 1.767 0.54 1.767s0.424-0.272 0.567-0.304c0.167-0.045 0.743-0.02 0.743-0.02s0.652-1.178 0.676-1.834c0.012-0.483-0.065-1.301-0.294-2.558-0.318-1.828-0.298-2.35-0.082-3.372 0.217-1.038 1.213-1.719 1.213-1.719" fill="#009b3a" stroke="#000" stroke-width=".628"/>
<path d="m441.21 282.29s0.614-0.147 0.923-0.704c0.39-0.672 0.288-1.385 0.288-1.385-0.952-1.844-2.23-0.356-2.23-0.356-1.145 2.342 1.018 2.445 1.018 2.445" fill="#009b3a" stroke="#000" stroke-width=".69"/>
<path d="m444.45 278.91c-1.42 0.074-2.118 2.626-2.118 2.626s-0.23 0.63-0.987 1.118c-0.805 0.497-0.33 1.212-0.33 2.483 0 1.27-0.886 3.516-0.886 3.516l-0.33 0.762s0.031 0.572 0.549-0.466c0.88-1.747 1.845-1.323 2.208-3.203 0.23-1.398 2.545-1.843 2.545-1.843l-0.651-0.122c-2.406-1.127 0.139-3.939 0.55-4.437 0.437-0.497 0.853-0.497-0.55-0.434" fill="#009b3a" stroke="#000" stroke-width=".82"/>
<path d="m444.04 281.94c-0.65 1.394 1.2 1.462 1.627 1.218 0.172-0.1 0.563-0.564 0.563-0.564 0.75-1.078 0.064-1.808-0.327-1.912-0.377-0.126-1.181-0.221-1.863 1.258" fill="#009b3a" stroke="#000" stroke-width=".698"/>
<path d="m440.53 276.52c0.486 0.904 1.842 3.42 2.16 3.263 0.2-0.097 0.041-0.612 0.041-0.612s-0.04-0.681-0.261-1.504c-0.217-0.83-0.164-1.893-0.597-2.574-0.42-0.68-1.428-1.487-1.824-2.561-0.392-1.078-0.085-3.117-0.052-3.368 0.04-0.235 0.159-0.081-0.05-0.324-0.212-0.264-1.926-1.176-1.926-1.176s0.1 0.665 0.059 1.869c-0.016 0.292-0.098 0.632-0.143 1.139-0.04 0.482 0.25 1.09 0.952 2.476 0.816 1.605 1.208 2.59 1.641 3.372m10.28-11.969s-0.494 0.823-0.67 1.005c-0.183 0.183-2.976 2.582-3.135 2.683-0.135 0.106-1.593 0.572-2.92 4.159-1.331 3.575-0.755 6.918-0.755 6.918l0.645-0.08 0.11-0.35s0.217-1.187 0.384-2.087c0.184-0.887 1.179-2.128 1.84-3.044 0.63-0.896 1.138-2.184 1.138-2.184 0.748-1.508 1.108-2.856 1.849-3.907 0.03 1.252-4.73 8.951-5.24 11.571l1.41-0.215c1.126-1.029 2.6-3.19 3.597-4.584 1.004-1.398 1.43-3.582 1.613-4.551 0.175-0.957 0.135-5.334 0.135-5.334" fill="#009b3a" stroke="#000" stroke-width=".628"/>
<path d="m441.32 265.35c-0.719-0.665-1.278-0.864-1.278-0.864s0.171 1.305 0.171 2.1c0 0.798 0.07 2.136 0.029 2.85-0.029 0.712-0.384 1.892 0.122 3.047 0.519 1.139 1.103 1.719 1.515 2.436 0.376 0.701 1.064 4.347 1.064 4.347s-0.251-4.93-0.035-6.325c0.2-1.37 0.266-3.506-0.04-4.576-0.319-1.074-0.846-2.334-1.548-3.015m3.286-4.813c0.216-0.422 0.723-1.293 0.935-2.619 0.077-0.563 0.13-1.475 0.11-2.107-0.016-0.422-0.184-1.155 0-1.204 0.163-0.04 0.027 0.228 0.12 0.853 0.045 0.223-0.108 0.84-0.137 1.63-0.037 0.632-0.062 1.16-0.344 2.015-0.245 0.754-0.023 1.59-0.174 1.825-0.163 0.239-0.596 1.143-0.596 1.143s-0.265 0.73-0.22 1.394c0.024 0.68 0.065 1.415 0.065 1.415s0.314-0.584 1.017-0.681c0 0 0.159-1.14 0.159-1.496 0-0.357 0.457-2.691 0.69-3.405 0.318-1.045 0.543-2.865 0.037-4.977-0.14-0.571-0.241-2.359-0.241-2.359s-0.674 0.54-1.074 2.578c-0.123 0.62 0.139 2.282 0.036 4.053-0.04 0.977-0.977 4.936-1.104 5.183" fill="#009b3a" stroke="#000" stroke-width=".628"/>
<path d="m444.61 260.54c-0.033 0.06-0.045 0.085-0.045 0.085s0.028-0.025 0.045-0.085" fill="#009b3a" stroke="#000" stroke-width=".628"/>
<path d="m441.95 250.26c0.36 0 0.36 0.389 0.286 0.697-0.057 0.316-0.049 0.904-0.049 1.025 0 0.138 0.151 0.977 0.27 1.415 0.13 0.45 0.355 0.591 0.257 1.495-0.066 0.568-0.65 1.236-0.445 2.201 0.11 0.507 0.473 1.038 0.653 1.475 0.151 0.304 0.069 1.047 0.11 1.655 0.016 0.591 0.343 0.992 0.343 0.992s-0.404 0.754-0.539-0.19c-0.147-1.083-0.196-1.565-0.404-2.055-0.339-0.803-0.65-2.247-0.123-3.361 0.09-0.215 0.16-0.615 0.16-1.09 0-0.482-0.297-1.306-0.354-1.817-0.05-0.405-0.017-1.26-0.017-1.569m-1.887 4.533c0.085 0.612 0.281 0.96 0.971 2.29 0.213 0.438 0.695 1.557 0.768 1.913 0.086 0.357 0.16 0.787 0.16 0.896 0 0.118 0.077 0.957 0.077 0.957v0.348s-1.911-1.114-2.748-1.71c-0.833-0.6-1.78-1.423-2.385-1.921-0.686-0.564-2.32-2.501-2.34-4.053l-0.751-0.681s-0.572 3.449 2.131 5.682c0.78 0.64 1.63 1.346 3.447 2.168 1.821 0.84 1.582 1.591 2.342 3.204 0.747 1.621 1.215 2.554 1.309 3.012 0.065 0.49-0.207 7.381-0.207 7.381l0.065 0.625s1.665-6.383 2.465-7.096c0 0-1.588-0.244-1.462-2.74l-0.278-1.646s-0.318-1.978 0.278-3.206c0 0 0.707-2.25 0.466-4.195-0.151-1.163-0.205-1.511-0.347-2.626-0.217-1.735-0.911-4.215-0.989-4.515-0.237-0.871-0.318-1.005-0.596-1.694-0.082-0.243-0.237-1.046-0.494-1.058-0.147-8e-3 -0.372 1.033-0.372 1.033s-0.334 1.135-0.404 1.443c-0.216 0.916-0.723 1.686-0.955 3.745-0.041 0.373-0.082 1.378-0.127 1.512-0.024 0.114-0.073 0.705-0.024 0.932" fill="#009b3a" stroke="#000" stroke-width=".628"/>
<path d="m441.63 264.37s-0.278-0.616-0.56-0.932c-0.567-0.669-1.33-1.236-3.503-2.298-2.164-1.078-2.736-2.85-3.839-3.579-0.506-0.349-1.486-0.515-1.486-0.515s0.964 1.326 1.192 1.784c0.294 0.583 0.364 0.98 1.556 2.091 1.184 1.115 2.63 1.504 3.561 1.78 1.315 0.409 3.079 1.67 3.079 1.67m-6.821-10.243c0.058 0.174 0.616 2.08 1.788 3.56 1.792 2.265 5.243 3.883 5.243 3.883-0.323-1.41-0.885-3.04-1.33-3.762-1.569-2.533-5.713-3.774-5.713-3.774s-0.073-0.097 0.012 0.093m4.947 1.068c0.928-2.033-1.844-3.975-2.626-5.391 0.29-0.231 0.633 0.373 0.951 0.774 0.454 0.604 1.732 2.35 1.732 2.35l0.396-1.86-3.301-3.003c-0.04 0.437-1.06 0.796-1.06 0.796-0.494 2.78 3.908 6.333 3.908 6.333" fill="#009b3a" stroke="#000" stroke-width=".628"/>
<path d="m434.01 250.49c-0.796 0.356-1.078 0.356-1.078 0.356l0.444 1.178 0.258 0.32s1.037 1.5 1.641 1.687c0.253 0.093 1.197 0.259 2.144 0.664 1.192 0.507 3.138 2.209 3.138 2.209s-3.237-3.65-4.478-6.387l-0.418-1.577-1.173 0.078s0.322 1.107-0.478 1.472" fill="#009b3a" stroke="#000" stroke-width=".628"/>
<path d="m421.9 248.15c0.371 0.332 0.98 0.839 1.76 1.305 0.714 0.43 2.772 1.641 4.312 1.933 0.36 0.057 2.294 0.3 2.294 0.3 0.077-0.847 0.996-0.92 0.996-0.92l-2.739-0.3c-2.209-0.164-3.89-1.087-5.198-2.565 1.755 1.064 4.278 2.74 6.323 2.65 8.396-0.826-2.53-1.033-3.477-1.641-1.005-0.62-1.862-1.65-1.862-1.65l-2.462-0.11s-1.21-0.076 0.053 0.998" fill="#009b3a" stroke="#000" stroke-width=".628"/>
<path d="m431.78 252.94c0.543-0.04 0.923-0.142 1.046-0.737 0.11-0.665-0.143-1.147-0.944-1.322-0.445-0.11-1.225-0.133-1.543 0.657-0.347 0.81 0.914 1.33 0.914 1.33s0.241 0.105 0.527 0.072m0.941-4.813c-0.71 0-0.951 0.58-0.8 1.71 0.188 1.14 1.931 0.641 1.931 0.641l0.323-0.166s0.237-0.183 0.106-1.09c-0.123-0.929-0.845-1.095-1.56-1.095m2.855 0.8h-0.028c-0.013 8e-3 0.028 0 0.028 0" fill="#009b3a" stroke="#000" stroke-width=".628"/>
<path d="m435.55 248.92c0.02-8e-3 0.069-0.033 0.253-0.085 0.363-0.138 0.73-1.01 0.73-1.01 0.184-1.179-0.66-1.47-0.66-1.47-1.422-0.284-1.459 0.964-1.459 0.964-0.392 1.625 0.927 1.609 1.135 1.6m-6.329-5.581c0.079 0.54 0.846 1.322 0.965 1.456 0.138 0.121 1.119 1.143 1.45 1.6 0.33 0.459 1.43 2.536 1.43 2.536s0.191-0.032 0.273-0.19c0.192-0.324-0.736-2.84-0.83-3.014-0.34-0.764-0.895-1.334-1.454-1.93-0.13-0.084-0.588-0.672-1.09-1.304 0.994 1.272 3.542 4.888 4.293 6.495 0 0-0.091-1.713-0.185-2.633-0.318-2.683-1.017-3.514-1.241-3.903-0.396-0.725-1.4-1.43-2.12-1.678-0.718-0.26-1.568-0.616-2.478-0.908-0.94-0.287-0.217 0.56 0.13 1.29 0.433 0.863 0.78 1.637 0.858 2.184" fill="#009b3a" stroke="#000" stroke-width=".628"/>
<path d="m425.72 247.75c0.927 0.786 1.343 1.334 3.266 1.617 1.94 0.304 2.103 0.175 2.103 0.175s1.006-0.486 0.495-0.912c-2.85-1.253-5.548-2.745-6.918-4.422 0 0 0.237-0.231 1.225 0.758 0.572 0.58 0.956 0.871 1.307 1.143 1.037 0.725 1.486 0.932 2.52 1.495 0.55 0.3 1.927 0.624 1.927 0.624s0.196-0.417 0.371-0.466c0.168-0.04-0.106-0.694-1.303-1.663-1.053-0.851-1.747-1.897-1.747-1.897s-1.417-0.31-2.952-0.566c-1.144-0.182-3.296-1.852-3.259-1.398 0.04 0.466 0.323 1.913 0.903 2.833 0.583 0.924 1.139 1.869 2.062 2.68" fill="#009b3a" stroke="#000" stroke-width=".628"/>
<path d="m409.7 305.74c-0.84 0.247-7.143 2.614-7.143 2.614l-1.76 0.705c2.43-0.547 4.292 0.677 4.292 0.677l7.02-3.25s-0.02-0.106-0.195-0.232c-0.184-0.125-1.364-0.77-2.214-0.514" fill="#009b3a" stroke="#000" stroke-width=".502"/>
<path d="m400.53 309.27c-0.047 0.04-0.094 0.207 0.028 0.26 0.35 0.194 0.256 0.271 1.847 0.462 1.604 0.174 2.65-0.13 2.924-0.434 0.322-0.352-3.974-1.009-4.8-0.288" fill="#009b3a" stroke="#000" stroke-width=".537"/>
<path d="m390.44 286.6-0.291-1.97s-0.368-5.327-0.972-6.395c-0.116-0.237-0.064-0.79-0.448-0.799-0.735-0.055-0.735 1.677-0.824 3.247-1.195 7.917 5.119 13.962 5.119 13.962z" fill="#009b3a" stroke="#000" stroke-width=".697"/>
<path d="m421.69 310.06s-0.662-0.148-0.243-0.665c0.402-0.492 1.596-0.755 1.835-0.755 0.235-0.01 0.905 0.048 1.404 0.187 0.503 0.124 1.198 0.568 0.995 0.889-0.213 0.306-0.893 0.688-1.823 0.688-0.797 0-1.206-0.02-1.557-0.12-0.34-0.129-0.611-0.224-0.611-0.224" fill="#009b3a" stroke="#000" stroke-width=".642"/>
<path d="m414.84 306.29s-2.168-0.997-4.222-2.002c-2.708-1.322-5.962-3.158-8.228-6.526-2.838-4.17-5.305-6.404-5.901-6.853-0.613-0.45-0.702-0.616-0.927-0.3-0.204 0.275-0.061 0.514 0.11 0.806 0.584 0.949 2.018 2.732 2.532 3.689 0.886 1.71 2.72 3.578 2.703 4.685 0 0.154-0.535-0.11-0.535-0.11s-4.291-1.47-6.03-6.67c-1.267-3.77-0.728-4.877-1.022-6.761-0.502-3.348-0.604-3.62-2.262-7.373-0.045-0.093-1.013-1.662-1.143-1.313-0.18 0.45 0.163 2.128 0.163 2.128l0.176 1.933s-0.14 4.292-0.14 4.552-1.081 2.938 3.512 7.441c0 0 0.07 0.766-0.547 0.093-0.437-0.482-3.724-3.007-4.724-7.161-1.03-4.155-1.18-8.313-0.4-10.04 0.706-1.56 2.123-5.374 1.519-8.706-0.07-0.348-0.168-1.37-0.388-1.102-0.094 0.13-0.507 1.816-0.756 2.4-0.347 0.798-0.886 1.584-1.053 2.135-0.323 0.936-1.907 2.383-1.597 5.046 0.351 3.06 0.551 3.538 0.919 4.629 0.126 0.397 0.433 1.41 0.233 1.512-0.184 0.097-0.833-1.212-0.833-1.212s-2.908-5.715-1.115-10.352c1.813-4.616 6.362-8.994 6.362-8.994s3.695-3.064 4.447-3.777c0.294-0.276 0.224-0.482 0.126-0.45-0.918 0.231-8.028 1.702-10.527 10.173 0 0-0.13 0.357-0.314 0.268-0.229-0.102 0-0.499 0-0.499s1.564-6.006 5.953-8.73c4.79-2.987 4.227-2.55 5.811-3.49 0.997-0.62 1.899-1.45 3.014-3.295 0.114-0.206 0.567-1.28 0.506-1.463-0.049-0.182-0.265 0.069-0.367 0.373 0 0-1.356 2.095-3.386 2.8-2.037 0.706-3.691-0.3-5.737 1.962-2.05 2.274-3.679 5.423-3.679 5.423s-0.535 0.815-0.653 0.79c-0.225-0.068 0.11-0.867 0.11-0.867s2.736-5.804 4.933-6.983c2.2-1.188 4.16-2.327 5.41-3.291 1.52-1.192 4.137-4.11 5.08-5.115 0.2-0.215 1.605-1.638 1.915-2.1 0.188-0.251 0.633-0.616 0.56-0.68-0.2-0.15-1.532 0.49-1.532 0.49s-7.246 1.997-11.754 8.806c-0.208 0.316-0.704 0.959-0.97 1.23-0.481 0.499-0.722 1.331-0.722 1.331-0.294-0.243 2.548-3.796 2.548-3.796l0.498-2.298s0.841-3.453 2.61-5.89c0.175-0.222 1.22-1.276 1.396-1.495 0.35-0.38-0.666 0.333-0.486 0.174 0 0-6.758 4.852-6.758 10.964 0 1.098-0.682 2.1-1.626 3.465-1.102 1.585-1.47 2.558-1.947 4.917a192.91 192.91 0 0 1-0.621 2.97s0.065 0.872-0.217 0.807c-0.294-0.065-0.191-0.786-0.191-0.786s0.69-4.556 1.18-5.958c0.477-1.362 0.792-2.29 0.792-2.29s-0.282-3.425 0.478-5.302c0.645-1.637 2.278-3.793 2.531-4.332 0.11-0.235 0.866-1.771 1.078-3.522 0.029-0.235-0.155-0.04-0.461 0.644-0.743 1.674-1.364 2.112-2.585 3.688 0 0-3.132 2.27-4.267 9.022 0 0-0.037 2.517-0.42 6.461-0.278 2.89-0.041 5.597 0.285 7.227 0.208 0.997 0.605 1.005 0.36 1.126-0.152 0.077 0.097 0.013-0.258-0.74-0.433-0.904-0.765-2.295-0.765-4.217 0-3.522 0.306-6.35 0.306-6.35s0.23-5.691-2.13-8.257c-0.114-0.133 0.413 1.151 0.65 2.432 0.29 1.589-0.237 3.794-0.392 4.653-0.151 0.863-1.724 4.625-1.168 8.155 0 0 1.33 5.986 3.046 8.888 0 0 1.067 1.25 0.123 0.078-0.935-1.171-2.855-5.83-3.022-6.226-0.147-0.381-1.523-3.28-2.818-4.459-0.67-0.624-2.511-1.73-2.511-1.73s-1-0.762-0.241 0.25c0.6 0.8 1.405 2.234 1.788 2.858a33.536 33.536 0 0 1 2.124 4.02c0.616 1.355 2.05 5.339 2.05 5.339l0.917 2.527s1.537 0.853 2.374 1.785c0.686 0.754 2.107 2.485 3.287 5.565 0.531 1.362 1.59 2.61 1.59 2.61s-0.224 0.432-1.168-1.2c-0.93-1.655-1.842-4.758-4.084-7.173-1.703-1.853-6.285-3.721-6.285-3.721s2.944 5.131 3.675 6.047c1.237 1.467 3.026 3.526 3.487 4.07 0.478 0.555 3.247 3.975 3.655 4.523 0.645 0.855 1.07 1.232 1.409 1.58 0.73 0.778 2.894 2.197 3.062 2.42 0.032 0.227 0.075 0.04-0.108-0.094-0.96-0.572-2.106-1.476-3.29-2.246-1.18-0.782-5.737-2.727-8.807-6.958-0.727-1.252-1.074-1.75-1.319-1.621-0.376 0.199 2.066 8.28 7.089 10.85 0 0 5.541 2.464 6.77 3.206 0.674 0.405 2.034 1.005 2.663 1.512 0.359 0.296-0.327 0.28-0.372 0.271-2.944-0.23-7.17-0.62-9.764-2.124 0 0-1.114-0.782-0.2 0.317 0.727 0.85 2.107 2.946 4.77 4.126 2.666 1.17 6.542 1.852 7.959 1.925 1.392 0.077 6.357 0.101 7.309 0.41 0.93 0.315 2.515 1.33 3.422 1.622 0.824 0.267 3.311 1.22 3.311 1.22s0.748 0.41 1.148 0.555c0.449 0.179 2.312 0.163 2.443-0.186 0.126-0.312-0.532-0.788-0.532-0.788" fill="#009b3a" stroke="#000" stroke-width=".502"/>
<path d="m447.04 264.21c0.563 0.206 0.812 1.876 0.812 1.876s-0.049-0.956-0.049-1.427c0-0.474-0.232-2.253-0.232-2.253l-0.499 0.357c-0.596 0.474-0.927 1.313-0.927 1.313s0.343-0.057 0.895 0.134" fill="#009b3a" stroke="#000" stroke-width=".628"/>
</svg>
