<?xml version="1.0" encoding="UTF-8"?>
<svg xmlns="http://www.w3.org/2000/svg" xmlns:xlink="http://www.w3.org/1999/xlink" viewBox="0 0 1050 700" height="600" width="900" version="1.1">
<rect style="fill:#060" y="0" x="0" height="700" width="1050"/>
<rect style="fill:#fff" y="0" x="0" height="500" width="1050"/>
<rect style="fill:#c00" y="0" x="0" height="200" width="1050"/>
<g style="fill:#f8c300" transform="translate(-175,0)">
<path d="m 672,340.7 a 12.5,12.5 0 0 1 23.3,5.9 v 50 h 9.4 v -50 a 12.5,12.5 0 0 1 23.3,-5.9 29.5,29.5 0 1 0 -56,0"/>
<path style="fill:#fff" d="m 678.7,327.65 a 20,20 0 0 1 21.3,9.55 20,20 0 0 1 21.3,-9.55 21.5,21.5 0 0 0 -42.6,0"/>
<path id="a" d="m 695.3,376.627 a 38,38 0 0 1 -63.845,24.316 39.5,39.5 0 0 1 -59.734,17.467 c 3.6496,36.426 58.252,28.989 62.32,-6.4288 17.154,30.115 54.873,21.49 65.91,-15.4 z"/>
<use xlink:href="#a" height="700" width="1400" y="0" x="0" transform="matrix(-1,0,0,1,1400,0)"/>
<path id="b" d="m 658.84,441.31 c -7.6181,16.446 -22.845,19.271 -36.164,5.9953 0,0 5.3539,-3.7831 11.086,-4.826 -1.0748,-4.5744 1.1291,-10.902 4.2354,-14.324 3.2575,2.2264 7.8036,6.6886 8.9598,11.874 8.0291,-1.0394 11.883,1.2815 11.883,1.2815 z"/>
<use xlink:href="#b" height="700" width="1400" y="0" x="0" transform="matrix(0.98665754,0.16280937,-0.16280937,0.98665754,140.23845,-103.23923)"/>
<use xlink:href="#b" height="700" width="1400" y="0" x="0" transform="matrix(0.94698622,0.32127419,-0.32127419,0.94698622,295.4141,-182.26885)"/>
<path style="fill:none;stroke:#f8c300;stroke-width:16" d="m 603,478 a 340,340 0 0 1 194,0"/>
<g transform="translate(700,380)">
<g transform="translate(0,-140)">
<polygon id="c" transform="scale(4.8669e-5,4.8669e-5)" points="301930 415571 -488533 -158734 488533 -158734 -301930 415571 0 -513674"/>
</g>
<g id="d">
<use xlink:href="#c" height="700" width="1400" y="0" x="0" transform="translate(-70,-121.24356)"/>
<use xlink:href="#c" height="700" width="1400" y="0" x="0" transform="translate(-121.24356,-70)"/>
<use xlink:href="#c" height="700" width="1400" y="0" x="0" transform="translate(-140,0)"/>
</g><use xlink:href="#d" height="700" width="1400" y="0" x="0" transform="scale(-1,1)"/>
</g>
</g>
</svg>