<svg xmlns="http://www.w3.org/2000/svg" xmlns:xlink="http://www.w3.org/1999/xlink" width="750.094" height="500.047"><path fill="#006400" d="M0 0h750.094v500.047H0z"/><path fill="#ffd200" d="M0 71.435h750.094v357.176H0z"/><path fill="#d40000" d="M0 142.871h750.094v214.306H0z"/><path d="M0 214.306h750.094v71.435H0z"/><path d="M0 0v500.047l333.365-250.023z" stroke="#000" stroke-width="23.812"/><path d="M0 0v500.047l333.365-250.023z" fill="#fff"/><path d="M126.822 124.315l66.028 203.216L19.985 201.937h213.673L60.793 327.53z" fill="#d40000"/><path d="M98.544 302.003l11.669-2.121 21.64-.849 7.955.743 17.82 2.97 1.38-1.803v-12.835l2.015-11.032 3.713-11.244 3.819-8.91 4.985-9.23 8.168 2.016h2.121l.213-1.591-17.079-14.639-17.926-13.683-25.777-19.306-2.334-.637-2.864-20.154-2.015-6.152-2.652-2.334-5.198-1.697-5.728.212-2.546 1.485-5.515 1.273-2.865.424-1.909 2.228-.212 2.864 7.956.212 2.015.849-.212.848-4.561.637-2.122.636 2.546 1.91 2.546.954 3.394 1.273.637 2.228.318 30.868-1.803 4.773-.637 8.91 2.652 10.714-6.683 7.532-3.712 6.788-.637 4.243-2.015 4.137-.319 2.652 1.38 2.758 5.091 16.972 2.652 13.896z" fill="#fc0"/><path d="M104.72 168.967c-2.042-.001-3.022.351-5.045 1.45-1.827.993-3.993 1.653-5.47 1.653-3.001 0-5.424 2.154-5.424 4.844v1.786l4.375-.134c12.542.42 1.092 1.576.179 1.741-3.114.565.69 3.105 4.353 4.33 3.94 1.32 3.772.557 3.772 17.837 0 14.189-.123 16.196-1.205 19.467-1.59 4.8-1.59 11.935 0 16.63.642 1.898 1.172 3.667 1.183 3.93.01.262-1.856 2.582-4.152 5.156-4.147 4.649-6.697 9.638-6.697 13.126 0 .804-.542 2.16-1.206 3.036-1.531 2.024-1.575 5.509-.089 6.831 1.542 1.373 7.908 25.947 7.925 30.584.006 1.69.308 1.68 9.979-.268 7.807-1.573 26.263-1.907 35.606-.648 4.315.582 9.336 1.43 11.161 1.898 5.75 1.476 5.434 1.78 5.447-5.157.021-10.725 1.976-20.926 6.117-31.833 1.884-4.962 6.835-15.038 8.148-16.587.13-.153 2.239.237 4.688.871 5.01 1.297 6.385 1.055 6.385-1.116 0-1.243-5.115-5.507-30.16-25.114-16.875-13.211-30.716-23.618-31.409-23.618-.68 0-1.369-.35-1.518-.782-.149-.431-.944-5.538-1.786-11.362-.84-5.824-1.977-11.576-2.522-12.77-1.594-3.49-4.894-5.34-10.157-5.692a37.133 37.133 0 0 0-2.478-.09zm.178 1.25a36.29 36.29 0 0 1 2.3.067c7.906.415 9.402 2.597 11.474 16.653.804 5.456 1.466 10.5 1.473 11.229.01.946-1.09 2.065-3.862 3.929-4.082 2.744-9.35 7.75-11.92 11.296l-1.54 2.098-.291-4.933c-.17-2.712-.17-9.041 0-14.064.35-10.381.078-11.406-3.326-12.546-2.78-.93-6.407-1.93-5.336-2.567 1.17-.695 2.252-.199 5.224-.938 1.053-.262.996-.217.826-1.116-.305-1.62-1.886-2.362-6.362-2.12-3.515.189-3.966.098-3.728-.85.481-1.913 2.47-3.17 5.424-3.46 1.59-.155 3.91-.86 5.18-1.562 1.404-.777 2.494-1.092 4.464-1.116zm17.703 30.806c.166-.003.321 0 .469.023 2.026.318 60.474 46.015 60.474 47.281 0 .501-.468.902-1.05.893-.58-.009-15.456-4.222-33.038-9.354-28.098-8.2-32.138-9.54-33.351-11.005-1.724-2.083-1.782-5.264-.157-7.412.664-.877 1.206-1.955 1.206-2.41 0-1.389-2.98 2.152-3.55 4.219-.666 2.416.576 6.459 2.389 7.768.717.518 6.072 2.358 11.899 4.085 9.943 2.948 10.611 3.265 11.139 4.912 1.267 3.952-2.909 8.54-8.952 9.844-1.949.42-4.427 1.568-6.139 2.858-6.805 5.126-11.543 8.156-15.515 9.867-2.335 1.006-4.591 2.143-5 2.545-.409.401-1.005 2.23-1.34 4.063-.71 3.89-1.01 4.487-2.165 4.487-.668 0-.728-.35-.268-1.608.849-2.32.756-5.29-.178-5.29-.495 0-.804.826-.804 2.21 0 1.207-.34 2.537-.781 2.969-.662.648-.746.169-.47-2.813.185-1.984.105-3.617-.178-3.617-.541 0-1.605 3.007-1.987 5.648-.223 1.549-.236 1.536-.736-.29-.39-1.426-.201-2.383.803-4.197.717-1.294 1.318-3.176 1.318-4.197 0-1.538 1.133-3.025 6.697-8.661 3.693-3.741 7.993-8.384 9.554-10.314 2.7-3.339 2.843-3.693 2.746-7.076-.056-1.955-.282-3.712-.491-3.929-.706-.733-1.646 3.046-1.273 5.112.337 1.868-.01 2.504-3.906 7.099-2.352 2.774-6.346 6.955-8.863 9.309-4.636 4.335-6.295 6.678-6.295 8.885 0 .67-.52 2.44-1.16 3.929-.642 1.488-.997 3.01-.804 3.37.215.404.061.377-.38-.044-.523-.5-.565-1.424-.134-3.416.325-1.502.459-2.954.29-3.237-.647-1.088-1.406.31-1.786 3.282-.217 1.704-.625 2.954-.915 2.768-.873-.56-.597-3.664.469-5.246.55-.815 1.235-2.758 1.518-4.33.793-4.411 2.688-7.912 6.898-12.68 2.122-2.404 3.862-4.46 3.862-4.577 0-.117-.566-1.89-1.25-3.929-1.583-4.712-1.688-11.888-.246-16.251 1.52-4.598 4.651-9.15 9.6-13.952 4.788-4.65 9.339-7.55 11.83-7.59zm17.881 38.308a1.023.682 0 0 1 1.183.67 1.023.682 0 0 1-2.031 0 1.023.682 0 0 1 .848-.67zm2.947.38a1.023.682 0 0 1 .022 0 1.023.682 0 0 1 1.206.691 1.027.685 0 0 1-2.054 0 1.023.682 0 0 1 .826-.692zm3.125.58a1.023.682 0 0 1 .112 0 1.023.682 0 0 1 1.093.692 1.023.682 0 0 1-2.031 0 1.023.682 0 0 1 .826-.693zm2.813.58a1.023.682 0 0 1 .134 0 1.023.682 0 0 1 1.094.692 1.027.685 0 0 1-2.054 0 1.023.682 0 0 1 .826-.692zm-7.501.692a1.023.682 0 0 1 .022 0 1.023.682 0 0 1 1.206.692 1.027.685 0 0 1-2.054 0 1.023.682 0 0 1 .826-.692zm2.947.491a1.023.682 0 0 1 1.205.67 1.027.685 0 0 1-2.054 0 1.023.682 0 0 1 .849-.67zm6.183.246a1.023.682 0 0 1 1.206.67 1.027.685 0 0 1-2.054 0 1.023.682 0 0 1 .848-.67zm-3.259.044a1.023.682 0 0 1 1.206.67 1.027.685 0 0 1-2.054 0 1.023.682 0 0 1 .848-.67zm6.027.692c.091-.134 4.376.956 9.51 2.433l9.332 2.68-1.809 3.214c-.995 1.761-2.25 4.125-2.79 5.246-1.096 2.277-1.484 2.316-7.099 1.027-6.21-1.426-16.025-2.78-26.007-3.594l-9.599-.782 3.616-1.361c1.992-.755 4.856-2.049 6.363-2.88 2.363-1.305 3.316-1.472 6.942-1.206 5.384.397 9.012-.596 10.358-2.835.563-.935 1.093-1.808 1.183-1.942zm-10.536.67a1.023.682 0 0 1 .022 0 1.023.682 0 0 1 1.206.692 1.027.685 0 0 1-2.054 0 1.023.682 0 0 1 .826-.692zm6.72 0a1.023.682 0 0 1 .022 0 1.023.682 0 0 1 1.205.692 1.027.685 0 0 1-2.054 0 1.023.682 0 0 1 .826-.692zm-9.645.09a1.023.682 0 0 1 .134 0 1.023.682 0 0 1 1.094.691 1.027.685 0 0 1-2.054 0 1.023.682 0 0 1 .826-.692zm6.363.11a1.023.682 0 0 1 1.205.67 1.027.685 0 0 1-2.054 0 1.023.682 0 0 1 .849-.67zm-7.814 1.407a1.023.682 0 0 1 .023 0 1.023.682 0 0 1 1.183.692 1.023.682 0 0 1-2.032 0 1.023.682 0 0 1 .826-.692zm2.925.045a1.023.682 0 0 1 .111 0 1.023.682 0 0 1 1.094.692 1.023.682 0 0 1-2.031 0 1.023.682 0 0 1 .826-.692zm3.125.111a1.023.682 0 0 1 1.206.67 1.027.685 0 0 1-2.054 0 1.023.682 0 0 1 .848-.67zm3.304.09a1.023.682 0 0 1 .022 0 1.023.682 0 0 1 1.183.692 1.023.682 0 0 1-2.031 0 1.023.682 0 0 1 .826-.692zm-24.176 9.621c4.084-.13 18.345.904 25.114 1.92 5.956.895 16.39 2.831 16.742 3.103.088.068-.806 2.923-2.009 6.34-1.203 3.417-2.3 6.607-2.433 7.077-.182.64-.915.74-2.947.424-9.919-1.546-38.498-1.406-49.491.245-6.25.939-7.167.87-6.63-.446.246-.604.768-2.494 1.16-4.22l.715-3.147 6.63-3.438c3.644-1.898 7.705-4.316 9.019-5.38 1.313-1.063 2.683-2.119 3.058-2.344.117-.07.488-.115 1.072-.134zm-32.102 16.944c.298 0 1.042.343 1.898.893 1.118.718 2.545 1.31 3.17 1.317 3.11.038 4.819 4.42 7.456 19.131.37 2.07.807 4.364.96 5.112.243 1.192-.098 1.459-2.768 2.054-3.375.752-4.197.807-4.197.357 0-1.263-3.356-16.336-4.822-21.654-.999-3.622-1.83-6.81-1.83-7.099 0-.035.017-.072.044-.089a.154.154 0 0 1 .09-.022zm34.066 2.21h3.416l-1.139 1.295c-2.022 2.322-2.987 2.542-4.398.982-.71-.785-1.294-1.616-1.294-1.853 0-.237 1.538-.424 3.415-.424zm7.233 0h6.474l-1.43 1.563c-1.75 1.936-1.865 1.936-3.615 0zm9.778 0h1.495c.814 0 2.308.168 3.326.38l1.853.379-1.719 1.496c-.941.823-1.801 1.492-1.92 1.473-.118-.02-.857-.882-1.63-1.898zm10.067.446l1.496.38c.83.217 2.601.418 3.93.424h2.41l-1.808 1.54c-.996.849-1.956 1.55-2.143 1.563-.187.012-1.146-.858-2.121-1.942zm-35.963.201c.174.005.282.013.313.045.122.128-.382.984-1.139 1.897l-1.384 1.652-1.741-1.428-1.741-1.451 2.902-.447c1.193-.186 2.27-.282 2.79-.268zm2.746.179c0-.06.867.697 1.92 1.674l1.92 1.786-3.55.2-3.55.202 1.63-1.875c.897-1.034 1.63-1.928 1.63-1.987zm21.565 0c.254.017.5.162.803.424.526.454 1.215 1.355 1.54 1.987.51.99.356 1.125-1.093 1.071-.925-.034-2.309-.243-3.081-.468l-1.406-.402 1.54-1.496c.814-.794 1.273-1.145 1.697-1.116zm-10.001.022c.668-.092 1.187.406 1.897 1.518.87 1.361.839 1.382-2.366 1.362l-3.237-.022 1.719-1.563c.85-.778 1.467-1.223 1.987-1.295zm20.202.223l1.474 1.452c1.614 1.576 1.899 2.538.714 2.366-.415-.06-1.913-.203-3.326-.335l-2.567-.246 1.853-1.607zm-41.834.804c.28 0 1.142.682 1.898 1.518l1.361 1.518-2.924.402c-1.61.217-3.466.509-4.13.647-.897.188-.626-.31 1.05-1.92 1.24-1.191 2.466-2.165 2.745-2.165zm-4.465.09c.2-.004.38.019.536.044.989.16.895.414-.714 2.01l-1.853 1.83-.536-1.518c-.447-1.245-.317-1.6.715-2.01a5.774 5.774 0 0 1 1.852-.357zm54.715 2.098c.287-.018.347.214.179.67-.366.992-1.429 1.236-1.429.334 0-.308.412-.7.893-.893.146-.058.262-.105.357-.111zm-25.381 1.897c9.129 0 18.43.227 20.671.514 3.77.481 4.063.626 4.063 2.031 0 1.674-.51 1.754-5.425.87-1.493-.268-7.484-.837-13.327-1.272-10.14-.754-22.71-.346-33.91 1.094-2.31.298-2.857.184-2.857-.58 0-1.618 12.105-2.657 30.785-2.657zm-12.278 3.438H128.829l-1.429 1.563c-1.75 1.936-1.866 1.936-3.616 0zm8.282 0l1.696 1.674c.933.929 1.697 1.79 1.697 1.898 0 .108-1.55.2-3.438.2h-3.438l1.741-1.897zm2.567 0h6.474l-1.43 1.563c-1.75 1.936-1.865 1.936-3.615 0zm-15.27.09c.283.018.029.495-.825 1.696-.777 1.092-1.597 1.987-1.809 1.987-.211 0-1.006-.723-1.786-1.585l-1.428-1.563h2.165c1.193 0 2.64-.194 3.215-.424.21-.084.374-.118.469-.112zm2.434.535l1.54 1.406c.851.777 1.635 1.466 1.741 1.518.107.053-1.292.193-3.125.313l-3.348.223 1.607-1.741zm20.671 0l1.742 1.898c1.897 2.058 1.707 2.148-2.612 1.317l-2.032-.38 1.451-1.429zm2.434 0h2.812c3.049 0 3.442.478 1.72 2.099-1.417 1.332-1.424 1.322-3.104-.536zm-36.455.647c1.372-.012 1.331.118-.446 1.853-1.363 1.33-1.528 1.36-1.898.358-.443-1.201.62-2.195 2.344-2.21zm46.188.18c.463-.005 1.415.1 2.478.29l2.59.446-1.497 1.45-1.473 1.452-1.295-1.697c-.708-.936-1.202-1.784-1.094-1.897.028-.028.136-.044.29-.045zm-42.817.557c.366-.062.69.236 1.317.826 1.197 1.126 1.212 1.229.179 1.652-.603.247-1.914.467-2.902.491l-1.786.045 1.63-1.697c.802-.833 1.196-1.255 1.562-1.317zm40.584.335c.42-.023.753.335 1.34 1.16l1.094 1.519h-2.5c-1.629 0-2.408-.26-2.255-.737.129-.402.76-1.081 1.406-1.518.381-.258.664-.41.915-.424zm7.635 1.607c.133.03.156.249.156.648 0 1.17-.975 1.939-1.45 1.138-.186-.311.063-.913.557-1.34.366-.314.604-.476.737-.446zm-30.873 1.429c10.322-.011 21.803.674 28.462 1.92l1.965.38v5.245c0 3.838-.187 5.242-.737 5.18-.415-.048-3.072-.594-5.894-1.228-8.514-1.915-18.14-2.656-28.975-2.21-5.478.225-11.21.636-12.747.915l-2.813.513-.692-4.375c-.382-2.401-.597-4.444-.491-4.554.106-.11 2.752-.558 5.893-.982 4.045-.546 9.835-.797 16.029-.804z"/><path id="a" d="M148.54 259.265c-3.529 0-6.049 2.605-6.049 6.273 0 5.716 6.426 8.484 10.314 4.443 3.887-4.041 1.235-10.716-4.264-10.716zm-.022 1.474c2.608-.103 4.845 1.926 4.845 4.866 0 3.442-3.983 5.842-7.055 4.242-3.284-1.711-3.04-7.212.38-8.684a5.1 5.1 0 0 1 1.83-.424z" stroke-width="1.191"/><use xlink:href="#a" x="-20.065" y="-.6" width="100%" height="100%"/><path d="M104.787 172.963a2.051 2.1 0 0 0-1.898 2.098 2.054 2.103 0 1 0 4.108 0 2.051 2.1 0 0 0-2.21-2.098zm.134.736a1.38 1.361 0 0 1 1.339 1.362 1.384 1.365 0 1 1-2.768 0 1.38 1.361 0 0 1 1.429-1.362z"/></svg>