<svg width="375" height="272" viewBox="0 0 375 272" fill="none" xmlns="http://www.w3.org/2000/svg">
<g clip-path="url(#clip0)">
<g clip-path="url(#clip1)">
<rect y="-23" width="375" height="320" fill="#FFD2ED"/>
<rect x="-1" y="257" width="376" height="40" fill="#F28FCF"/>
<rect x="38" y="15" width="299" height="148" fill="#FFEDF8"/>
<rect x="86" y="15" width="2" height="148" fill="#FFD2ED"/>
<rect x="38" y="63" width="299" height="2" fill="#FFD2ED"/>
<rect x="38" y="113" width="299" height="2" fill="#FFD2ED"/>
<rect x="186" y="15" width="2" height="148" fill="#FFD2ED"/>
<rect x="136" y="15" width="2" height="148" fill="#FFD2ED"/>
<rect x="236" y="15" width="2" height="148" fill="#FFD2ED"/>
<rect x="286" y="15" width="2" height="148" fill="#FFD2ED"/>
<rect x="133.586" y="129.312" width="16" height="25.1429" rx="1" transform="rotate(-45 133.586 129.312)" fill="#5DD1BB"/>
<rect x="142.476" y="120.426" width="25.1429" height="3.42857" transform="rotate(45 142.476 120.426)" fill="#2A2A4B"/>
<path d="M118 210.008V178.008H219.564L251.4 89.5874C252.904 85.4099 257.523 83.2564 261.69 84.7895L284 92.9983L242 209.649V210.008H118Z" fill="#5DD1BB"/>
<rect x="118" y="204.008" width="124" height="6" fill="#09A285"/>
<path d="M218.985 78.1433C218.985 78.5111 218.944 78.5929 218.944 78.6337C218.743 83.3079 219.619 84.1328 215.5 85.5059C213.088 86.2825 210.565 86.2772 209.298 84.1926C207.091 80.5957 206.887 76.7944 208.072 72.8296C208.317 72.0121 208.603 71.2764 209.625 71.1947C210.361 71.1538 210.77 70.5407 211.301 70.1728C213.672 68.5378 216.901 69.6006 217.718 72.3391C218.127 73.688 218.495 75.0368 218.822 76.4265C218.985 77.0805 218.944 77.7345 218.985 78.1433Z" fill="#2A2A4B"/>
<path d="M205.743 36.6141C205.416 37.3499 194.134 50.5113 193.644 49.8982C192.704 48.7537 191.804 47.5684 190.946 46.383C188.453 42.7452 187.799 38.6987 189.025 34.4887C190.905 28.1532 197.241 22.063 204.148 20.3054C211.015 18.466 206.805 34.2026 205.743 36.6141Z" fill="#2A2A4B"/>
<path d="M88.7171 241.313C86.5099 244.91 84.2619 248.507 82.0547 252.104C78.1723 259.092 57.6802 252.785 64.0701 245.482C67.4626 241.436 70.4464 237.144 73.3485 232.73C74.5477 230.091 85.5 235.507 88.7171 241.313Z" fill="#A16A34"/>
<path d="M93.784 246.959L61.412 227.176C60.393 226.554 60.1433 225.182 60.8774 224.24L109.394 161.985C113.563 156.635 119.965 153.508 126.747 153.508H144.5C145.605 153.508 146.5 154.403 146.5 155.508V162.951C146.5 163.315 146.401 163.673 146.212 163.984L96.5392 246.286C95.9662 247.235 94.7302 247.537 93.784 246.959Z" fill="#4083FF"/>
<path d="M89.2096 249.486C90.3694 243.688 92.7399 238.198 93.8284 232.36C95.1273 226.515 112.843 232.562 112.303 235.262C111.21 240.074 108.731 244.313 108.134 249.282C107.891 251.719 108.129 253.39 106.867 255.618C105.573 257.689 88.635 251.976 89.2096 249.486Z" fill="#A36A36"/>
<path d="M120.173 241.724C119.828 242.789 118.67 243.354 117.615 242.976C107.083 239.198 95.1575 234.702 84.6209 230.879C83.4957 230.47 82.9589 229.208 83.4937 228.137C88.7572 217.599 113.433 168.236 117.372 161.159C120.021 156.303 123.026 150.204 128.5 149.008C148.138 144.718 170.145 145.7 190.128 143.911C191.028 143.829 225.239 155.11 225.73 155.233C226.792 155.478 227.445 155.986 227.2 157.008C218.943 180.02 206.151 178.654 203.494 178.613C195.115 178.613 142.428 178.694 139.363 178.899C137.523 179.021 137.523 178.94 136.951 180.779C130.718 200.76 126.632 221.795 120.173 241.724Z" fill="#4083FF"/>
<path d="M94 94.0078L126 150.008H190V144.008H129.796L99.1962 91.0078L94 94.0078Z" fill="#6FA2FF"/>
<path d="M82.6894 252.306C82.6894 257.415 82.5668 262.565 82.7303 267.675C82.812 269.759 80.2997 271.435 78.2151 271.844C77.5611 271.966 76.8662 271.926 76.2123 271.926C60.5575 271.926 44.8618 271.966 29.2071 271.966C27.613 271.885 27.2449 271.508 27.2451 270.209C27.2451 259.508 35.9564 258.997 42.3277 256.843C49.9815 254.23 54.4613 250.222 59.8626 244.09C60.969 242.846 62.9674 241.603 64.5223 242.701C67.6619 244.968 64.067 251.589 70.4998 253.508C78.9812 256.678 82.6894 248.665 82.6894 252.306Z" fill="#BC83FF"/>
<path d="M56.7293 272.007C52.3262 271.701 57.557 262.906 58.9365 261.473C63.2685 256.973 71.3489 257.726 77.2072 255.034C86.2686 250.871 84.013 242.224 89 243.007C89.812 243.134 90.6139 245.097 90.7774 245.852C91.7175 250.86 94.3335 252.967 99.1566 253.722C102.769 254.288 105.185 252.088 107.269 251.138C109.517 250.144 109.866 254.75 109.907 257.095C109.947 261.945 109.947 262.904 109.907 267.714C109.907 270.377 108.269 272.007 105.737 272.007C89.7685 272.007 72.7685 272.007 56.7293 272.007Z" fill="#BC83FF"/>
<path d="M228.672 76.5481C228.713 77.0795 228.713 77.57 228.713 78.1013C228.631 80.8399 228.59 80.8808 225.893 80.8808C225.361 80.8808 224.871 80.9625 224.34 81.0034C215.573 81.4709 215.421 99.4925 215.879 81.6574C215.919 78.9597 215.797 76.3029 214.816 73.7687C214.244 72.3381 214.284 72.3381 212.69 72.6651C206.5 73.7687 204.551 73.0608 201.859 69.5995C200.346 67.6376 199.325 65.3895 198.548 63.0597C198.18 61.9969 197.771 61.5065 196.627 61.343C193.398 60.8525 192.253 59.3401 192.621 56.1519C193.03 52.4733 193.234 48.7946 192.744 45.0751C192.253 41.3555 191.64 36.9003 194.134 34.1208C196.627 31.3414 210.524 41.2738 214.775 47.3231C219.026 53.3725 228.182 71.9702 228.672 76.5481Z" fill="#A36A36"/>
<path d="M238.278 78.8413C239.667 80.6806 244.45 84.5227 244.818 85.2176C246.984 89.2641 247.76 93.6377 247.229 98.1338C246.739 102.548 245.921 106.922 244.695 111.214C243.591 115.056 227.528 156.298 226.915 157.728C226.342 159.036 226.056 159.2 224.708 158.587C222.419 157.524 220.13 156.461 217.882 155.317C214.203 153.518 210.565 151.72 206.927 149.88C177.921 134.262 187.965 142.173 192.376 133.94C193.071 132.713 193.888 131.569 194.665 130.383C196.259 127.849 197.404 125.111 198.425 122.331C198.957 120.942 198.875 119.634 198.303 118.244C197.036 114.974 196.177 111.622 196.791 108.066C197.158 105.9 198.466 104.265 199.693 102.63C200.878 101.118 202.227 99.7279 203.576 98.3382C206.846 94.823 210.156 91.267 213.058 87.4657C214.53 85.5446 214.979 83.4191 214.53 81.0076C213.753 76.9202 213.876 76.9202 217.759 75.3261C222.01 73.5685 226.22 71.77 230.471 70.0125C230.593 69.9716 230.757 69.8898 230.879 69.849C231.411 69.6446 232.065 69.1541 232.392 69.9716C232.76 70.6664 237.378 77.6559 238.278 78.8413Z" fill="#BC82FF"/>
<path d="M93.2158 233.916L84.6501 230.843C83.514 230.435 82.9951 229.122 83.5458 228.048L121 155.008" stroke="#2A2A4B" stroke-miterlimit="10" stroke-linecap="round"/>
<path d="M146.189 141.99C144 141.99 144.35 140.519 145.413 139.129C146.966 137.126 148.519 135.124 150.358 133.407C152.443 131.486 155.1 130.668 157.961 130.914C163.438 131.363 168.874 131.895 174.351 132.426C179.583 132.957 184.815 133.53 190.047 134.102C194.094 134.551 198.14 135.083 202.187 135.532C202.841 135.614 203.535 135.614 204.189 135.614C205.538 135.655 206.478 135.001 206.969 133.775C207.582 132.262 208.195 130.75 208.726 129.197C211.015 122.207 213.1 115.177 215.512 108.228C216.779 104.591 218.454 101.116 220.089 97.6421C221.152 95.394 222.787 93.5547 224.749 92.0014C227.079 90.1621 229.695 89.4672 232.433 90.7343C235.254 92.0423 236.725 94.4539 236.684 97.5194C236.643 100.095 236.276 102.71 235.703 105.204C232.801 118.12 228.755 130.668 223.605 142.849C222.992 144.361 222.174 145.792 221.397 147.222C219.272 151.105 215.879 152.945 211.547 153.026C209.585 153.026 207.541 152.781 205.62 152.332C193.971 149.757 182.322 147.141 170.714 144.484C169.651 144.239 168.711 144.239 167.689 144.566C164.705 145.465 161.721 145.342 158.737 144.279C155.999 143.258 155.427 143.503 153.914 146.078C152.889 147.848 150.741 147.98 150 146.008C148.079 146.907 147 145.508 147.5 144.508C145.751 144.279 145.576 143.176 146.189 141.99Z" fill="#A36A36"/>
<path fill-rule="evenodd" clip-rule="evenodd" d="M236.413 206.396L236 207.53L236.951 207.876L258.249 266.39L263.887 264.338L242.798 206.396L284.049 93.0599L278.41 91.0078L256.936 150.008H145H139V156.008V272.008H145L145 156.008H218.073L236.413 206.396ZM239.605 197.625L254.752 156.008H224.458L239.605 197.625Z" fill="#09A285"/>
<path d="M194.297 26.3973C197.117 22.7595 201.123 21.0019 205.456 19.8983C209.707 18.8356 213.998 18.9174 218.208 20.2662C218.617 20.3888 219.067 20.5114 219.68 20.6749C219.639 17.2006 220.538 14.176 223.318 12.0096C225.116 10.579 227.201 9.92506 229.531 10.0068C233.986 10.1703 237.746 13.6446 238.4 18.2225C239.095 23.0865 236.152 26.7243 229.653 28.8906C230.675 30.8526 231.329 32.978 231.983 35.0626C232.555 36.9837 233.741 38.496 235.253 39.7223C236.765 40.9485 238.441 41.8886 240.076 42.9104C242.815 44.668 245.594 46.3847 247.801 48.878C250.295 51.6575 251.97 54.8048 253.033 58.3608C253.197 58.9331 253.36 59.5053 253.524 60.0775C255.118 65.4729 258.51 69.0698 263.987 70.6639C266.808 71.4814 269.301 72.912 271.059 75.5279C270.078 76.0184 269.138 75.8958 268.238 75.8549C264.355 75.6097 260.677 76.2637 257.325 78.3074C255.69 79.2884 254.341 79.2884 252.911 78.0621C252.297 77.5308 251.603 77.1629 250.908 76.6724C250.867 76.9994 250.785 77.122 250.826 77.2447C251.562 80.9642 251.562 80.9233 248.251 82.7218C244.245 84.8881 239.994 86.0326 235.457 85.8282C234.027 85.7873 232.678 85.4195 231.37 84.8881C229.49 84.1524 228.427 82.8035 227.691 80.9642C226.71 78.43 226.383 75.7732 226.138 73.1164C225.77 69.3151 224.176 66.3313 221.07 64.1241C217.432 61.5081 215.347 58.0338 214.775 53.5377C214.612 52.148 214.121 50.7991 213.794 49.4503C213.222 47.0796 211.628 45.8125 209.42 45.1994C208.276 44.8724 207.091 44.668 205.946 44.3819C200.633 42.9922 195.442 37.3924 193.929 34.9809C192.294 32.6102 191.64 29.8307 194.297 26.3973Z" fill="#2A2A4B"/>
<path d="M201.09 54.0502C200.52 54.2476 199.898 54.0502 199.691 53.5072L198.81 51.5326C198.603 50.9896 198.81 50.3973 199.38 50.1998C199.95 50.0024 200.572 50.1998 200.779 50.7428L201.66 52.7174C201.867 53.2604 201.608 53.8527 201.09 54.0502Z" fill="#29294A"/>
<path d="M196.995 49.4414C197.486 47.7247 199.202 46.9072 200.878 48.0108" stroke="#29294A" stroke-miterlimit="10" stroke-linecap="round"/>
<path d="M200.674 66.7415C203.004 66.4962 204.069 65.6333 205.5 63.5078" stroke="#29294A" stroke-miterlimit="10" stroke-linecap="round"/>
<rect x="255" y="184.008" width="72" height="88" fill="#AFCCFF"/>
<circle cx="299" cy="192.008" r="4" fill="#6FA2FF"/>
<circle cx="275" cy="192.008" r="4" fill="#6FA2FF"/>
<rect x="319" y="184.008" width="24" height="88" fill="#4083FF"/>
<rect x="207" y="224.008" width="80" height="48" fill="#BC83FF"/>
<circle cx="256" cy="232.008" r="4" fill="#9755FF"/>
<circle cx="232" cy="232.008" r="4" fill="#9755FF"/>
<rect x="280" y="224.008" width="23" height="48" fill="#9755FF"/>
<path d="M55.5 272.008C55.5 266.008 57 262.008 65 259.508C73 257.008 78 257.008 83 250.508" stroke="#29294A" stroke-miterlimit="10" stroke-linecap="round"/>
<path d="M216.158 71.4288L214 72.5078L215 74.0078L216.478 71.7911C216.62 71.5778 216.387 71.3142 216.158 71.4288Z" fill="#2A2A4B"/>
<path d="M232 232.008V244.008C232 250.635 237.373 256.008 244 256.008V256.008C250.627 256.008 256 250.635 256 244.008V232.008" stroke="#29294A" stroke-miterlimit="10" stroke-linecap="round"/>
<path d="M275 192.008V204.008C275 210.635 280.373 216.008 287 216.008V216.008C293.627 216.008 299 210.635 299 204.008V192.008" stroke="#29294A" stroke-miterlimit="10" stroke-linecap="round"/>
<path d="M291.5 225.008V265.008" stroke="#29294A" stroke-miterlimit="10" stroke-linecap="round"/>
<path d="M281 272.008L291.5 265.008" stroke="#29294A" stroke-miterlimit="10" stroke-linecap="round"/>
<path d="M302.5 272.008L291.5 265.008" stroke="#29294A" stroke-miterlimit="10" stroke-linecap="round"/>
<path d="M78 255.008C81.2 255.008 83.3333 257.674 84 259.008" stroke="#29294A" stroke-miterlimit="10" stroke-linecap="round"/>
<path d="M52 252.008C55.2 252.008 57.3333 254.674 58 256.008" stroke="#29294A" stroke-miterlimit="10" stroke-linecap="round"/>
<path d="M74 257.008C77.2 257.008 79.3333 259.674 80 261.008" stroke="#29294A" stroke-miterlimit="10" stroke-linecap="round"/>
<path d="M48 254.008C51.2 254.008 53.3333 256.674 54 258.008" stroke="#29294A" stroke-miterlimit="10" stroke-linecap="round"/>
<path d="M331.5 185.008V265.008" stroke="#29294A" stroke-miterlimit="10" stroke-linecap="round"/>
<path d="M321 272.008L331.5 265.008" stroke="#29294A" stroke-miterlimit="10" stroke-linecap="round"/>
<path d="M342.5 272.008L331.5 265.008" stroke="#29294A" stroke-miterlimit="10" stroke-linecap="round"/>
<circle cx="99" cy="262.008" r="4" fill="#DDC7FF"/>
<path d="M146 142.008C147.167 140.508 149.9 137.208 151.5 136.008" stroke="#2A2A4B" stroke-miterlimit="10" stroke-linecap="round"/>
<path d="M147.5 144.508C148.333 143.008 150.6 139.608 153 138.008" stroke="#2A2A4B" stroke-miterlimit="10" stroke-linecap="round"/>
<path d="M150 146.008C150.667 144.674 152.5 141.608 154.5 140.008" stroke="#2A2A4B" stroke-miterlimit="10" stroke-linecap="round"/>
</g>
</g>
<defs>
<clipPath id="clip0">
<rect width="375" height="272" fill="white"/>
</clipPath>
<clipPath id="clip1">
<rect width="375" height="320" fill="white" transform="translate(0 -23)"/>
</clipPath>
</defs>
</svg>
