<svg width="8" height="8" viewBox="0 0 8 8" fill="none" xmlns="http://www.w3.org/2000/svg">
<path d="M4 0C4.55733 0 5.052 0.610667 5.368 1.55733C5.53733 2.06467 5.936 2.46333 6.442 2.632C7.39 2.94867 8 3.44333 8 4C8 4.55667 7.39 5.052 6.442 5.368C5.936 5.53667 5.53733 5.936 5.368 6.442C5.052 7.38933 4.55733 8 4 8C3.44267 8 2.948 7.38933 2.632 6.442C2.46267 5.936 2.06467 5.53667 1.558 5.368C0.61 5.052 0 4.55667 0 4C0 3.44333 0.61 2.94867 1.558 2.632C2.06467 2.46333 2.46267 2.06467 2.632 1.55733C2.948 0.610667 3.44267 0 4 0Z" fill="#5390FF"/>
</svg>
