<svg width="87" height="89" viewBox="0 0 87 89" fill="none" xmlns="http://www.w3.org/2000/svg">
<path d="M47 41C45.3431 41 44 39.6569 44 38C44 36.3431 45.3431 35 47 35C48.6569 35 50 36.3431 50 38C50 39.6569 48.6569 41 47 41Z" fill="#BC83FF"/>
<path d="M80 10C77.2386 10 75 7.76142 75 5C75 2.23858 77.2386 0 80 0C82.7614 0 85 2.23858 85 5C85 7.76142 82.7614 10 80 10Z" fill="#5390FF"/>
<path d="M83 89C80.7909 89 79 87.2091 79 85C79 82.7909 80.7909 81 83 81C85.2091 81 87 82.7909 87 85C87 87.2091 85.2091 89 83 89Z" fill="#BC83FF"/>
</svg>
