<svg xmlns="http://www.w3.org/2000/svg" xmlns:xlink="http://www.w3.org/1999/xlink" width="360" height="560" viewBox="0 0 360 560">
  <defs>
    <linearGradient id="linear-gradient" x1="-0.061" y1="-0.071" x2="1" y2="1" gradientUnits="objectBoundingBox">
      <stop offset="0" stop-color="#085178"/>
      <stop offset="1" stop-color="#04b6ec"/>
    </linearGradient>
    <clipPath id="clip-path">
      <rect id="Rectangle_1484" data-name="Rectangle 1484" width="360" height="560" rx="8" transform="translate(1146 82)" fill="url(#linear-gradient)"/>
    </clipPath>
    <clipPath id="clip-path-2">
      <rect id="Rectangle_1483" data-name="Rectangle 1483" width="873.994" height="654.039" fill="none"/>
    </clipPath>
  </defs>
  <g id="Mask_Group_10" data-name="Mask Group 10" transform="translate(-1146 -82)" clip-path="url(#clip-path)">
    <path id="Path_3369" data-name="Path 3369" d="M8,0H352a8,8,0,0,1,8,8V552a8,8,0,0,1-8,8H8a8,8,0,0,1-8-8V8A8,8,0,0,1,8,0Z" transform="translate(1146 82)" fill="none"/>
    <g id="Group_135" data-name="Group 135" transform="translate(684 29.934)" opacity="0.1">
      <g id="Group_134" data-name="Group 134" clip-path="url(#clip-path-2)">
        <path id="Path_2470" data-name="Path 2470" d="M2346.055-139.251a2.33,2.33,0,0,1-1.278.443l-2.53,30.651,23.653-6.226Zm-3.122-.32-59.7,46.246a3.171,3.171,0,0,1,.307.62l58.222-15.324,2.54-30.805A2.364,2.364,0,0,1,2342.933-139.572Zm-59.271,47.323a3,3,0,0,1,.042.508,2.9,2.9,0,0,1-1.069,2.252l4.858,7.074,15.167-10.227a2.886,2.886,0,0,1-.369-1.422,2.905,2.905,0,0,1,2.9-2.9,2.9,2.9,0,0,1,2.9,2.9,3.116,3.116,0,0,1-.066.634l.223.066c10.5,3.051,21.037,5.953,31.568,8.844l1.9-23.011Zm17.792.993-13.7,9.231,1.311,1.907q3.008-2.706,6.022-5.407C2297.219-87.429,2299.311-89.375,2301.453-91.255Zm1.666-.777c-4.646,4.02-9.225,8.145-13.795,12.289l4.03,5.872,10.195-17.8A2.931,2.931,0,0,1,2303.119-92.033Zm-20.872,2.812a2.891,2.891,0,0,1-1.443.384,2.9,2.9,0,0,1-.771-.1l-5.563,15.3L2287.1-82.15Zm25.631-3.734a2.781,2.781,0,0,1-.308.562l30.783,25.645,1.429-17.262q-14.767-4.08-29.51-8.28C2309.477-92.516,2308.672-92.73,2307.878-92.955ZM2288.713-79.8l-1.348-1.962-13.17,8.882-3.35,9.208Q2279.772-71.753,2288.713-79.8ZM2180.36-65.381a2.306,2.306,0,0,1-.752.282l.251,2.895,4.882,2.847ZM2358.014-50.37l1.353,1.127,2.592-1.779Zm-20.782,2.953,19.684-3.252L2338.75-65.8Zm-59.191-43.42-96.525,23.1a2.357,2.357,0,0,1,.019.318,2.4,2.4,0,0,1-.071.587l53.746,19.669L2273.8-73.184l5.786-15.917A2.923,2.923,0,0,1,2278.041-90.837Zm29.227-1.193a2.9,2.9,0,0,1-2.072.87,2.876,2.876,0,0,1-1.235-.275l-10.308,18L2314.136-43.6l22.618-3.736,1.552-18.834Zm-37.174,29.04,3.435-9.438-37.771,25.461,11.9,4.353Q2258.867-52.818,2270.093-62.99Zm-88.8-3.4a2.276,2.276,0,0,1-.554.733l5.015,6.894,35.75,20.835,13.218-8.91ZM2269.734-62q-10.794,9.776-21.572,19.573l12.754,4.667Zm2.9,25.255,40.987-6.77-20.233-29.467Zm16.335-42.677q-3.853,3.493-7.707,6.986-5.393,4.874-10.781,9.755L2261.36-37.6l5.114,1.871,5.563-.919,21.057-36.769ZM2260.31-34.71l5.213-.861-4.324-1.583Zm7.068-.688,3.259,1.194,1.1-1.913Zm69.816-11.533-1.13,13.694,22.9-15.728-1.565-1.3ZM2236.32-32.3q5.471-4.978,10.938-9.953l-11.983-4.385-13.312,8.974,10,5.825a2.9,2.9,0,0,1,2.385-1.242A2.883,2.883,0,0,1,2236.32-32.3Zm.837,1.417,22.618-3.736.979-2.7-12.986-4.753q-5.571,5.057-11.127,10.117A2.891,2.891,0,0,1,2237.158-30.885Zm-31.043.119a2.9,2.9,0,0,1,1.514-.424,2.906,2.906,0,0,1,2.266,1.09l11.179-7.537-34.624-20.178Zm162.037-10.546-8.809-7.338-23.332,16.022-.407,4.972.076-.034Q2351.895-34.561,2368.152-41.312ZM2237.233-30.418a1.932,1.932,0,0,1,.01.238c0,.068,0,.136,0,.2l19.75,3.014,2.6-7.147Zm77.2-12.753L2326-26.326l9.561-6.566,1.149-13.959ZM2260.125-34.2l-2.659,7.309,8.26,1.26,4.674-8.157-3.973-1.453Zm74.987,6.75.4-4.834-9.245,6.348,1.173,1.709C2329.994-25.305,2332.558-26.37,2335.112-27.449ZM2210.16-29.708a2.89,2.89,0,0,1,.369,1.422,2.831,2.831,0,0,1-.17.983l8.482,3.856,12.764-5.758a2.888,2.888,0,0,1-.166-.975,2.859,2.859,0,0,1,.284-1.253l-10.194-5.94Zm116.834,5.669-1.116-1.629-8.591,5.9C2320.494-21.258,2323.739-22.661,2326.994-24.039Zm-89.827-5.471a2.932,2.932,0,0,1-.218.6l17.059,10.133,2.814-7.738Zm78.322,10.4,10.119-6.951-11.689-17.028-41.583,6.87-1.249,2.178,41.73,15.269a1.654,1.654,0,0,1,1.457-.87A1.656,1.656,0,0,1,2315.49-19.107Zm-49.262-6.447,45.742,6.979-41.12-15.048Zm-56.064-1.319a2.9,2.9,0,0,1-2.536,1.49c-.071,0-.137,0-.2-.007l-1.154,7.608,11.988-5.407Zm21.639-1.9-12.39,5.588,12.12,5.512,2-9.717A2.9,2.9,0,0,1,2231.8-28.775Zm84.07,10.366a1.585,1.585,0,0,1,.057.424v.019c.322.044.667.085.994.116,5.024.484,10.067.825,15.115,1.156l-4.565-6.652Zm18.36,1.586.8-9.742-7.12,3.031,4.721,6.88.525.034A2.907,2.907,0,0,1,2334.232-16.823Zm-79.807-1.7,5.4,3.206,5.653-9.87-8.175-1.247Zm77.017,3.8a2.915,2.915,0,0,1,.955-1.445l-.009-.013q-4.861-.341-9.722-.711c-.9-.069-1.821-.121-2.735-.177Zm-125.71-15.762-20.3-27.92-5.525-3.22,4.139,48.007,21.009-13.317a2.88,2.88,0,0,1-.331-1.35A2.908,2.908,0,0,1,2205.731-30.488Zm110.1,13.062a1.72,1.72,0,0,1-.19.374l4.135,3.791,11.552-.716a2.694,2.694,0,0,1,.02-.289Zm-.511.723c-.033.027-.066.052-.1.076L2317-13.088l2.12-.132Zm-.52.289a1.673,1.673,0,0,1-.478.084l-.388,3.431,2.549-.158Zm-1.646-.35-5.17,4.234,5.468-.339.4-3.514A1.677,1.677,0,0,1,2313.152-16.764Zm-167.08-64.581a2.39,2.39,0,0,1-.672.623l34.085,69.994,4.111-2.606L2179.4-61.919ZM2312.618-18l-46.64-7.116-5.748,10.034,8.4,4.989,38.546-2.388,5.682-4.65a1.638,1.638,0,0,1-.237-.855Zm-75.909-10.5a2.9,2.9,0,0,1-2.365,1.222,2.979,2.979,0,0,1-.355-.021l-2.015,9.823,17.683,8.042a1.177,1.177,0,0,1,.956-.488,1.207,1.207,0,0,1,.175.013l3.056-8.413Zm20.248,19.131,10.833-.671-7.8-4.63Zm-5.724-.378a1.179,1.179,0,0,1,.521.7l4.641-.288,3.193-5.578-5.327-3.164Zm-45.921-16.792-21.217,13.449.44,5.115,21.231-9.576,1.2-7.91A2.9,2.9,0,0,1,2205.311-26.537ZM2179.694-10.3l1.8,3.7,2.583-1.165-.435-5.036Zm72.086,1.727a1.18,1.18,0,0,1-.435.764l1.954,3.882,2.81-4.913ZM2249.458-9l-17.584-8-2.961,14.414,20.522-6.052a.69.69,0,0,1,0-.1A1.21,1.21,0,0,1,2249.458-9Zm81.9-4.5-11.1.687,11.411,10.459,1.76-8.77A2.914,2.914,0,0,1,2331.356-13.5ZM2181.7-6.177l3.056,6.272-.634-7.362Zm87.651-3.484,19.921,11.831,17.272-14.135ZM2250.919-7.6a1.127,1.127,0,0,1-.27.041L2248.625,4.23l4.39-7.665ZM2206.2-17.224l-3.378,22.335L2228.4-2.434l3.032-14.766-12.6-5.728ZM2155.028,5.335l26.033-11.743-1.769-3.637Zm-10.053-85.849a2.356,2.356,0,0,1-.818.145c-.047,0-.095,0-.142,0l-6.623,40.841a2.907,2.907,0,0,1,2.209,2.82,2.9,2.9,0,0,1-1.717,2.651l13.634,38.688a2.37,2.37,0,0,1,2.422.839l25.144-15.939Zm39.6,73.04.757,8.754,3.828,7.859,13.156-3.88,3.364-22.251Zm1.514,17.519,2.611-.77-3.254-6.682ZM2317.23-12.629l11.789,23.451,2.541-12.638L2319.6-12.776Zm-9.878.612L2289.7,2.427l20.621,12.246,3.075-27.064ZM2154.318,6.173a2.369,2.369,0,0,1-.327,2.14l9.447,8.41,22.187-6.543-.757-8.774-3.6-7.39ZM1593.62-20.1a2.923,2.923,0,0,1-1.122.952l15.361,40.117,51.585-1.823a2.344,2.344,0,0,1,.183-.6ZM2256.677-8.876l-3.127,5.455,12.414,24.663,22.916-18.754-20.366-12.1Zm-664.641-10.1-.04.011,4.745,40.323,10.618-.375-15.3-39.965ZM2153.68,8.666a2.37,2.37,0,0,1-2.115.569l-4,12.169,15.337-4.522ZM1588.934-20.006,1525.019,23.48a2.359,2.359,0,0,1,.4.4l70.845-2.5-4.737-40.255c-.1.009-.191.014-.288.014A2.9,2.9,0,0,1,1588.934-20.006Zm724.942,7.585-3.108,27.358,15.564,9.245,2.536-12.608L2316.714-12.6ZM2142.8-80.8l-90.8,105.7.038.041h0c24.524-18.125,48.958-36.209,73.686-54.172,2.8-2.034,5.554-4.153,8.407-6.108a2.875,2.875,0,0,1-.351-1.377,2.905,2.905,0,0,1,2.9-2.9c.076,0,.156,0,.232.009l6.619-40.841A2.346,2.346,0,0,1,2142.8-80.8Zm-8.383,45.882c-2.833,1.973-5.611,4.037-8.406,6.068-24.628,17.892-49.143,36.038-73.686,54.17a2.353,2.353,0,0,1,.265.643c10.9-1.834,21.752-4.055,32.638-6.166q32.259-6.252,64.494-12.652a1.809,1.809,0,0,1-.014-.225,2.366,2.366,0,0,1,1.362-2.141L2137.434-33.9a2.9,2.9,0,0,1-.738.1A2.89,2.89,0,0,1,2134.42-34.913Zm15.924,43.448-25.191,19.088a2.276,2.276,0,0,1,.175.34l21.69-6.4,4.1-12.479A2.382,2.382,0,0,1,2150.344,8.535Zm39.024,1.035,9.381,19.267,3.487-23.062Zm137.395,14.869,12.22,7.257-9.769-19.435Zm-77.2-32.622L2228.808-2.06l-7.266,35.353,28.219-41.208A1.219,1.219,0,0,1,2249.566-8.183Zm-85.711,25.278,24.226,21.571-2.413-28Zm-14.041-9.48c-30.556,6.056-61.055,12.193-91.743,17.851-1.8.333-3.6.72-5.412,1.01v.057a2.759,2.759,0,0,1-.014.279l55.634,12.342,12.8-9.124a2.4,2.4,0,0,1-.308-1.174,2.364,2.364,0,0,1,4.1-1.609l25.191-19.088A2.219,2.219,0,0,1,2149.814,7.615Zm-447.989,31.6,8.562-1.4L1665.846,21.3ZM2248.394,5.589l-6,34.942,23.2-18.982L2253.271-2.929ZM2125.46,28.417a2.239,2.239,0,0,1,.042.439,2.368,2.368,0,0,1-.308,1.167l15.451,10.937,6.193-18.846Zm-4.1,2L2108.9,39.291l11.624,2.579,1.954-10.74A2.356,2.356,0,0,1,2121.359,30.414ZM1663.791,20.8a2.4,2.4,0,0,1-.317.4l17.766,21.382,19.787-3.236Zm-.681.7a2.362,2.362,0,0,1-.75.335l3.417,23.273,14.921-2.441Zm461.356,9.308a2.35,2.35,0,0,1-1.329.409c-.066,0-.128,0-.189-.008l-1.958,10.759,15.749,3.494Zm61.661-20.286,2.469,28.6,7.579,6.749,2.451-16.211-9.717-19.956ZM1661.893,21.907h0l-1.333,24.059,4.753-.778Zm463.028,8.5c-.034.034-.062.067-.095.1L2137.5,45.634l1.5.333,1.49-4.537Zm-599.214-6.064a2.366,2.366,0,0,1,.183,1.427l73.39,21.221-2.958-25.144Zm612.946,22.671.194-.6-.852-.189Zm.809-.945,11.042,2.45-9.613-6.8ZM1660.207,21.309l-23.557,28.567,23.428-3.831,1.339-24.163A2.364,2.364,0,0,1,1660.207,21.309ZM2202.737,5.627l-3.619,23.959,10.375,21.3L2220.851,34.3l7.441-36.209Zm-676.977,20.6a2.374,2.374,0,0,1-1.5,1.381l3.974,19.923,71.607,4.2-.5-4.227Zm803.6-14.718,10.375,20.636,33.649,19.988,8.681-7.635-50.1-45.939Zm-721.326,9.927,11.3,29.507a2.368,2.368,0,0,1,2.79,1.309l13.814-2.259,23.942-29.034a2.363,2.363,0,0,1-.471-1.338ZM1618.9,51.112l-11.358-29.661-10.742.38,2.978,25.3,18,5.2A2.376,2.376,0,0,1,1618.9,51.112Zm-18.579.644,17.231,1.01-17.715-5.122Zm21.96.949a2.375,2.375,0,0,1,.056.516c0,.044,0,.087,0,.129l9.6,1.5,3.549-4.3ZM2196.6,46.248l9.986,8.89,2.6-3.8L2198.99,30.411ZM1630.493,56.6l1.093-1.326-9.022-1.409Zm516.9-34.65-6.339,19.295,10.654,7.539,37.978,8.425-1.537-17.857-24.823-22.1ZM1629.356,57.979l.816-.99-7.482-2.581Zm560.807-.663,4.144.919,1.784-11.8-7.437-6.621Zm-553.968-6.887-3.715,4.506,26.875,4.2.7-12.605Zm558.576,7.909,8.354,1.853,3.188-4.658-9.8-8.726Zm20.758,1.886L2220.6,35.5l-10.876,15.885,4.4,9.02a2.877,2.877,0,0,1,1.05-.2A2.912,2.912,0,0,1,2215.529,60.224Zm-555-13.775-.707,12.756,7.722,1.206-2.166-14.755ZM2221.3,34.489l-5.3,25.831a2.882,2.882,0,0,1,.417.158l31.53-55.051,2.242-13.062h0l-.024-.011Zm-7.6,26.12-4.277-8.778-2.483,3.626,6.235,5.551A2.846,2.846,0,0,1,2213.7,60.608Zm3.122.105a2.776,2.776,0,0,1,.445.378l24.567-20.1,5.875-34.2Zm-3.964.646-6.187-5.51-3.046,4.452,8.78,1.948A2.905,2.905,0,0,1,2212.856,61.359ZM2052.541,27.274a2.359,2.359,0,0,1-.866,1.181l20.815,36.207,35.272-25.14ZM1665.846,45.58l2.188,14.908,31.564,4.929-18.549-22.324ZM1630.97,56.765l27.98,9.65.377-6.808-27.2-4.248Zm726.055,9.763,15.994-14.067-32.888-19.532ZM2047.981,27.023l-16.766,1.824,0,.009a2.371,2.371,0,0,1-2.838,2.319l-11.018,35.686,31.27-38.647A2.356,2.356,0,0,1,2047.981,27.023ZM1854.05,14.8,1712.228,37.995l79.652,29.543,62.565-51.552A2.345,2.345,0,0,1,1854.05,14.8ZM1531.8,67.825l-3.959-19.844-52.3-3.066Zm127.617-1.249,9.517,3.282-1.315-8.956-7.82-1.221Zm391.849-37.884-.024.011,13.322,41.608,7.541-5.373ZM2027.7,30.924l-25.967,37.409a2.363,2.363,0,0,1,.828,1.8v.075l10.914,1.45,3.08-3.806,11.373-36.816A1.881,1.881,0,0,1,2027.7,30.924Zm-13.672,40.805,1.277.17.875-2.832ZM1629.781,58.207l28.771,15.409.372-6.71-28.274-9.752Zm-26.912,15.227a2.35,2.35,0,0,1,1.221.347l14.27-18.828a2.357,2.357,0,0,1-.755-1.709l-17.23-1.01Zm588.85,1.914,2.517-16.644-4.031-.894Zm-190.374-7.285,25.74-37.073-44.1,44.782,14.911-5.1a2.248,2.248,0,0,1-.061-.538,2.366,2.366,0,0,1,2.365-2.365A2.331,2.331,0,0,1,2001.345,68.063Zm190.791,7.708a1.687,1.687,0,0,1,.25.1l10.45-15.258-8.137-1.8Zm-1.68.446a1.635,1.635,0,0,1,.823-.473l-1.557-18.04L2152.7,49.49Zm2.318-.079a1.5,1.5,0,0,1,.161.167l19.642-11.9a2.9,2.9,0,0,1-.3-1.3,3.624,3.624,0,0,1,.024-.4l-8.965-1.989ZM2002.5,70.675a2.347,2.347,0,0,1-.322.755l6.93,5.628,4.026-4.971ZM1780.7,76.746l10.753-8.86-80.174-29.737-8.734,1.428,75.281,37.5a1.891,1.891,0,0,1,2.873-.327ZM2049,28.511l-32.013,39.566-1.2,3.885,39.166,5.2,9.21-6.566-13.374-41.752a2.365,2.365,0,0,1-1.788-.336ZM1777.62,77.5l-75.87-37.789-20.16,3.3L1700.3,65.528l77.283,12.07C1777.6,77.564,1777.608,77.53,1777.62,77.5Zm278.014-.241,11.131,1.478-2.455-7.662Zm-433.7-22.716a2.364,2.364,0,0,1-3.2.7l-14.27,18.828a2.367,2.367,0,0,1,.691,2.282l7.031,2.447,16.859-20.445Zm37.079,19.322,11.4,6.108-1.407-9.585-9.621-3.318Zm350.465,3.494,3.316,2.691,2.375-7.689-1.485-.2Zm55.236-6.572,2.568,8.019,13.847,1.839-8.79-15.292ZM1602.4,73.478l-2.5-21.273-71.568-4.2,4,20.029,35.437,14.431,32.743-6.448q-.011-.11-.011-.223A2.366,2.366,0,0,1,1602.4,73.478Zm615.17-12.021a2.911,2.911,0,0,1-.218,3.574l17.263,18,7.1-41.331Zm-144.841,3.617,8.993,15.646,30.986,4.116,7.734-42.5-12.058-2.675Zm-403.292,4.957,47.651,16.435-17.031-20.5-31.949-4.99ZM2113.175,84.9l12.484,1.659,12.82-39.013-1.24-1.483L2120.9,42.438Zm99.648-20.09-19.642,11.9a1.645,1.645,0,0,1,.132.647,1.286,1.286,0,0,1-.014.19l40.424,10.682.79-4.618-17.5-18.251a2.9,2.9,0,0,1-4.187-.551ZM1533.4,73.425l3.718,15.079,29.8-5.868-34.48-14.041ZM1605,76.8a2.372,2.372,0,0,1-1.672,1.321l.838,10.407,7.7-9.338Zm421.487-48.07-86.268,56.735,4.113,3.533,37.649-12.88,45.051-45.748a2.354,2.354,0,0,1-.544-1.511ZM2190.182,76.6,2151.5,49.225l-12.187-2.7-.3.92L2173.908,89.1l16.26-11.021a1.669,1.669,0,0,1,.014-1.478Zm-409.176.509a1.9,1.9,0,0,1,.229,1.5l26.954,10.944L1805.5,75.125c-.065.006-.132.009-.2.009a2.366,2.366,0,0,1-2.289-2.962l-11.042-4.1Zm453.176,11.238,6.533,1.727-5.795-6.042Zm-293.5,1.9,3.135-1.072-3.529-3.031Zm238.47,1.092,11.127-12.762L2174.21,89.465l1.538,1.837a2.9,2.9,0,0,1,3.4.034Zm87.032-69.661,35.357,70.259,8.723-76.745L2289.314,2.745ZM2126.137,86.621l43,5.712,4.376-2.965-34.676-41.4Zm49.251,4.985-1.57-1.874-3.974,2.695,4.745.63A2.927,2.927,0,0,1,2175.389,91.606Zm-162.2-11.238,17.423,14.14,23.767-16.941-38.735-5.146Zm-400.525-1.406,44.727,15.566,1.13-20.392-29.049-15.557Zm-12.073-2.477-32.036,6.308,30.2,12.3,4.983-6.043-.876-10.884h0A2.367,2.367,0,0,1,1600.593,76.486Zm573.935,17.04-5.275-.7-3.449,2.339,8.724-1.3c0-.063,0-.128,0-.193A1.453,1.453,0,0,1,2174.528,93.526Zm-652.6-1.55a2.889,2.889,0,0,1,0,.643l16.5,3.182-1.663-6.746Zm77.282,3.3,5.2,2.116-.617-7.668Zm632.8,2.9,1.632-9.485-40.008-10.572ZM2001.879,71.8a2.372,2.372,0,0,1-2.176.647l-8.648,26.928,17.759-21.947ZM1657.858,94.69l15.512,5.4L1670.5,80.552l-11.519-6.169Zm286.892-5.338,13.108,11.259,23.382-23.743Zm176.4,12.466,43.575-6.492,3.827-2.594-42.558-5.653Zm-11.358,1.692,10.833-1.614,4.892-14.881-12.423-1.65ZM2096,105.563l13.293-1.98,3.325-18.281-30.6-4.065Zm146.265-64.321-7.248,42.212,6.576,6.853,58.373,15.426,1.471-12.942-35.632-70.81ZM1537.229,88.963l1.71,6.936,51.031,9.843,8.468-10.269-30.726-12.512Zm772.631,17.213,16.373-81.5-15.526-9.221-8.78,77.252,6.855,13.616a2.343,2.343,0,0,1,.847-.157C2309.7,106.165,2309.779,106.169,2309.86,106.176Zm.463.093a2.373,2.373,0,0,1,.914.529l45.419-39.948L2339.375,32.48l-12.708-7.55Zm1.225.885a1.55,1.55,0,0,1,.095.14l52.592-25.372-7.361-14.635Zm-453.09-91.3a2.38,2.38,0,0,1-1.032.951l32.427,90.825L1940.22,90.4l-.452-4.706Zm449.9,90.677-6.528-12.971-1.4,12.292,6.978,1.845A2.41,2.41,0,0,1,2308.355,106.535ZM1998.048,71.116l-15.806,5.409-24.024,24.395,8.569,7.36,31.691-36.526A2.4,2.4,0,0,1,1998.048,71.116Zm78.724,37.312,18.729-2.79-14.074-24.479L2067.442,79.3ZM1590.5,105.844l14.82,2.859-.868-10.782L1598.9,95.66Zm201.894-38.116,10.785,4a2.366,2.366,0,0,1,4.277,2.022l61.3,35.755-12.27-92.47h-.075a2.358,2.358,0,0,1-1.666-.686Zm238.6,27.089,21.269,17.262,24.037-3.58-9.376-29.267-11.851-1.574ZM1856.981,16.968l-.025.006,12.318,92.833,5.26,3.068,14.873-5.088Zm110.166,91.62,5.351,4.6L1998.279,72.7ZM1807.215,74.158a2.372,2.372,0,0,1-1.25.881l2.744,14.725,58.893,23.912a2.37,2.37,0,0,1,1.547-1.2l-.315-2.38Zm62.4,38.258h.075a2.367,2.367,0,0,1,2.151,1.379l2.1-.718-4.59-2.677Zm133.05,2.005,27.542-19.629-17.172-13.937ZM2232.451,98.41l32.6,17.036-23.706-24.715-7.243-1.914Zm-291.724-7.681,2.388,24.852,14.41-14.633-13.295-11.419Zm58.409-18.486L1972.861,113.5l3.993,3.43,13.379-16.535,9.021-28.092C1999.216,72.282,1999.173,72.263,1999.136,72.243Zm-221.621,5.823-76.753-11.987,17.187,20.685,88.633,30.57a1.4,1.4,0,0,1,.2-.275c-1.927-2.575-3.767-5.22-5.639-7.844Q1791.453,95.632,1781.855,82l-1.411-2-.147-.21a1.892,1.892,0,0,1-2.782-1.67C1777.514,78.1,1777.515,78.085,1777.515,78.066Zm89.91,36.049-58.612-23.8,5.059,27.143,53.46-2.793A2.351,2.351,0,0,1,1867.425,114.115Zm-86.368-35.067a1.89,1.89,0,0,1-.375.472c8.6,12.2,17.1,24.38,25.877,36.431.2.271.391.545.588.817a1.419,1.419,0,0,1,2.066.936l4.183-.219-5.1-27.379ZM1605.8,108.8l48.17,9.292-49.03-19.966Zm50.314,8.809,1.251-22.585-45.021-15.668-8.122,9.849.676,8.392,50.4,20.525A1.181,1.181,0,0,1,1656.114,117.6Zm346.328-2.438-1.405,4.543,50.59-7.537L2030.6,95.1ZM1670.935,80.248l73.846,39.55-27.111-32.63-48.156-16.609Zm323.816,40.4,5.767-.859,1.292-4.168Zm-185.513-2.471a1.42,1.42,0,0,1-.056.263l4.853,2.477-.552-2.961Zm174.609,2.1,5.984-18.632-12.617,15.6,4.381,3.765a2.363,2.363,0,0,1,1.755-.781A2.4,2.4,0,0,1,1983.846,120.271Zm1.8,1.732,8.08-1.2,8.312-5.926,10.606-34.341-3.463-2.81-18.525,22.9-6.358,19.8A2.373,2.373,0,0,1,1985.644,122Zm321.647-13.845-6.912-1.827-1.854,16.291,9.48-12.369a2.355,2.355,0,0,1-.743-1.723A2.4,2.4,0,0,1,2307.291,108.158ZM2096.258,106l9.565,16.642,3.382-18.571Zm-114.943,15.378-4.4-3.78-4.343,5.364,8.416-.483A2.3,2.3,0,0,1,1981.315,121.382Zm-14.7,1.926,5.322-.306,4.622-5.709L1972.6,113.9Zm19.1-.836v.113a2.481,2.481,0,0,1-.057.534l3.572.882,3.643-2.6Zm-31.983,1.575,12.3-.706,6.212-9.754-5.407-4.643Zm-10.557-7.852.809,8.411,9.089-.521,13.4-15.448-8.59-7.379Zm44.906,8.627.644-.459-2.824-.7Zm-53.733.338,9.164-.526-.769-8Zm-59.273-11.969,20.539,11.979-6.047-16.937Zm118.83,8.061-4.064,2.9,8.671,2.139,1.854-6Zm-8.582,2.644a2.39,2.39,0,0,1-.833.763l.889,2.089,2.271-1.618Zm-311.449-23.631,76.921,26.77-5.21-6.27L1671.02,80.83Zm216.139,7.816,6.234,17.46,2.818,1.644,34.578-1.984,9.04-9.179-2.416-25.135Zm6.866,19.229,1.332-.076-1.717-1ZM1872,114.243a2.384,2.384,0,0,1,.061.538,2.358,2.358,0,0,1-.76,1.736l8.859,11.751,16.227-.931-.527-1.476-21.377-12.468Zm318.76-35.5-11.25,12.9a2.9,2.9,0,0,1-.516,4.47l17.437,32.8-4.854-49.909A1.625,1.625,0,0,1,2190.759,78.746Zm-202.211,46.323,8.884,4.708.937-3.035-9.04-2.23Zm277.817-8.936,26.511,13.857,5.09-6.638,1.949-17.142-57.691-15.246ZM2111.4,129.97l9.06-27.571L2109.7,104l-3.51,19.28,3.922,6.821a2.126,2.126,0,0,1,.852-.176A2.154,2.154,0,0,1,2111.4,129.97Zm1.183.7,51.239-34.733-42.837,6.382-9.135,27.8A2.119,2.119,0,0,1,2112.579,130.671ZM1867.356,115.14l-53.4,2.79.607,3.258,19.1,9.749,45.926-2.635-8.669-11.5a2.365,2.365,0,0,1-3.566-1.663Zm-50.79,16.778,16.164-.927-18.054-9.216Zm-7.6-13.058a1.425,1.425,0,0,1-.355.336l5.706,12.851,1.773-.1-1.946-10.442ZM2293.3,130.212l3.666,1.915.894-7.863Zm-183.6.126L2106.06,124l-1.59,8.715,4.362-.606v-.057A2.12,2.12,0,0,1,2109.7,130.338Zm55.2-34.56-52.057,35.285a2.094,2.094,0,0,1,.246.907l12.234.879,49.654-37.617a2.865,2.865,0,0,1-.378-.9Zm-358.474,22-87.9-30.315,27.358,32.926,24.263,12.994a2.365,2.365,0,0,1,3.972.072c9.257-4.535,18.569-9.082,27.934-13.352,1.445-.659,2.872-1.392,4.358-1.942a1.41,1.41,0,0,1-.008-.151A1.432,1.432,0,0,1,1806.427,117.78Zm-54.768,9.556,17.69,6.156-22.656-12.134Zm192.369-2.258.816,8.491,7.8-8.985Zm-288.924-6.29-49.264-9.5,1.983,24.627L1655.11,118.9C1655.106,118.863,1655.1,118.825,1655.1,118.788Zm151.448-.152c-.207.09-.413.184-.621.271-3.438,1.448-6.811,3.066-10.188,4.662q-10.739,5.074-21.409,10.316a2.34,2.34,0,0,1,.117.45l39.362-2.258-5.633-12.687a1.421,1.421,0,0,1-1.627-.753Zm270.367-9.751,8.478,26.481,18.582-2.581,1.713-9.418-9.935-17.288Zm36.133,23.575c0,.027-.014.054-.019.081l8.638,3.073,2.938-2.225Zm-60.289-19.976,28.843,23.409,3.316-.46-8.482-26.476Zm122.5-16.875L2126.038,132.9l51.153,3.675V96.566A2.887,2.887,0,0,1,2175.266,95.608Zm1.925,41.53v-.088l-10.318-.741Zm.535-40.576-.062.005V136.61l8.412.6-8.3-40.659Zm109.28,41.091,5.582-7.281-25.2-13.168Zm-109.342-.476,8.544.686-.033-.167-8.511-.611Zm.913-40.837a2.623,2.623,0,0,1-.341.122l8.331,40.788,10.748.773-.762-7.87Zm19.221,41.718,3.075.221-3.737-7.031Zm-11.1-.155,10.691.859-.029-.261-10.7-.769Zm-372.178-5.393L1817.4,139l-1.228-6.587Zm383.347,6.29,3.425.275-.161-.3-3.292-.237ZM1899.8,127.615l19.982,11.655,13.362-13.568Zm182.3,8.685,4.177,3.39-1.216-3.8Zm-81.226-16.088-1.911,6.19,54.394,13.413,27.6-3.833-28.834-23.4Zm-231.068,13.943-17.57-6.115,9.877,11.888,7.817-4.3a2.37,2.37,0,0,1-.125-1.476ZM2193,78.324a1.651,1.651,0,0,1-.946.64l4.963,51.049,4.414,8.3,23.4,1.681,7.1-41.329ZM1762.43,140.3l.255.307,4.215-2.764Zm439.428-1.179,22.812,1.833.08-.484-23.057-1.657Zm-88.981-6.133a2.15,2.15,0,0,1-1.3,1.1l1.5,8.029,8.137-6.164ZM1997.858,130l26.208,13.882,28.034-3.894-53.268-13.135Zm227.449,10.031,56.745,4.078,4.66-6.079-20.636-21.516L2232.371,98.9Zm-239.74-12.841,7.337,17.247,4.385-14.2-9.173-4.86Zm297.052,16.959,10.7.769-6.277-6.543Zm12.887.839,1.405-12.359-3.9-2.038-5.677,7.4,6.689,6.973,1.045.075A1.9,1.9,0,0,1,2295.507,144.99Zm-70.365-4,55.865,4.488.7-.918-56.48-4.059Zm68.917,4.7-.251-.262-11.533-.829-.709.923,12.11.973A1.9,1.9,0,0,1,2294.059,145.691Zm-360.207-20.029-13.643,13.854,12.931,7.542,11.277-13-.861-8.957Zm362.123,19.381a1.842,1.842,0,0,1,.27.087l28.5,2.048-27.386-14.312Zm-302.781.07,1.225,2.888L2023.267,144l-25.551-13.533Zm-.989,3.2,1.732-.24-.96-2.255Zm304.769-2.653a1.9,1.9,0,0,1,.444,1.09l29.539,1.588-1.159-.606ZM2054.6,140.12l34.549,8.52-2.6-8.126-5.081-4.124Zm46.451,8.738,2.833-15.583-18.346,2.548,1.415,4.412,11.713,9.506a2.912,2.912,0,0,1,2.384-.883Zm3.331-15.652-2.867,15.736a2.917,2.917,0,0,1,1.415.87l9.731-7.374-1.547-8.261c-.052,0-.1.006-.156.006a2.129,2.129,0,0,1-2.063-1.6Zm-552.248,16.219c.057,0,.115-.006.172-.006a2.353,2.353,0,0,1,1.314.4l36-43.66L1539.063,96.4ZM2328.1,148.4l27.722,1.49-28.834-2.072Zm-16.686-38.317a2.359,2.359,0,0,1-3.027.464l-9.963,12.993-1,8.827,28.512,14.9,42.628,3.063Zm-789.569-17A2.9,2.9,0,0,1,1517.966,95l-16.994,34.116,49.275,21.512a2.372,2.372,0,0,1,1.423-1.119l-13.118-53.2Zm576.53,57.025-11.151-9.05,2.47,7.715,8.321,2.052A2.851,2.851,0,0,1,2098.373,150.108Zm-544.384.012a2.355,2.355,0,0,1,.492.727l52.879-16.788-2-24.867-15.2-2.932Zm427.743-25.812L1949.8,152.1l35.182-25.073-.932-2.184a2.367,2.367,0,0,1-2.323-.536Zm-.714-1.353-8.846.508L1948.8,152.345l32.615-28.393A2.364,2.364,0,0,1,1981.017,122.955ZM2097.9,151.284l-8.038-1.983,1.036,3.236,6.968-.726v-.064A2.958,2.958,0,0,1,2097.9,151.284Zm-131.6-27.485-18.472,29,23.713-29.3Zm-19.047,29.028,18.466-28.994-12.414.712-8.392,9.672,1.769,18.408A2.357,2.357,0,0,1,1947.247,152.828Zm-50.2-25.054,9.064,25.387,13.336-13.543-20.495-11.954Zm49.151,24.8-1.717-17.863-10.923,12.59,10.714,6.249a2.363,2.363,0,0,1,1.914-.975Zm2.054,1.215a2.337,2.337,0,0,1,.232.592l43.208-6,1-3.242-7.512-17.666ZM2122.206,135.8l54.985,19.558V137.612l-51.873-4.167Zm-97.425,8.459,23.919,12.671,41.716-4.345-1.093-3.419L2053.34,140.3ZM1880.5,128.723l21.538,28.569,3.7-3.757-9.187-25.733Zm297.162,26.807,13.1,4.66-4.461-21.845-8.643-.694Zm-183.051-7.077,5.748,13.515,47.5-4.946-23.876-12.648ZM1834.5,131.362l61.939,31.616,5.265-5.347-21.771-28.877Zm157.549,17.446-4.475,14.49,12.3-1.28-5.743-13.5Zm199.24,11.567,8.5,3.022-2.351-24.159-10.635-.854Zm-88.072-10.186a2.907,2.907,0,0,1-.081,3.24l13.752,11.563-4.125-22.034Zm-154.671,4.662c0,.03,0,.06,0,.089a2.352,2.352,0,0,1-.443,1.378l11.257,9.919,27.7-2.885,4.47-14.472Zm-.755,1.822a2.354,2.354,0,0,1-.539.377l1.63,10.278,9.839-1.025ZM2365.607,168l16.359-8.23-12.3-8.665-40.552-2.179Zm-420.116-10.8L1940.9,168.16l7.512-.782-1.61-10.154a2.373,2.373,0,0,1-1.31-.021Zm254.786,6.37,17.314,6.159-16.033-30.162-3.643-.292Zm-297.95-5.9,9.287,12.318-5.7-15.962Zm10.769,12.485,19.728-22.736-12.958-7.558-13.581,13.792,5.826,16.317a1.419,1.419,0,0,1,.986.185Zm305.157-.192,1.348.48,4.986-29.027-22.471-1.8Zm-306.927.429-9.335-12.382-5.112,5.191,14.339,7.319A1.264,1.264,0,0,1,1911.327,170.4Zm2.127.073c.021.025.04.051.06.078l30.448-14.791a2.373,2.373,0,0,1,.069-1.8l-10.791-6.294Zm30.715-14.288-30.449,14.791,0,.01,0,.008,26.637-2.774,4.692-11.2A2.373,2.373,0,0,1,1944.169,156.181ZM2219.337,172l.184-1.083-.937-.334Zm-533.488,9.847,75.85-41.69-10.32-12.421-77.428-26.947Zm534.207-11.242,32.756,11.651,27.85-36.333-55.6-4.467Zm-170.6-13.277,51.163,27.1-10.053-31.384Zm-89.607,9.332,20.59,18.144,6.476-20.963Zm337.55-19.443a1.9,1.9,0,0,1-.417.878l34.416,37.107,33.692-16.945-37.118-19.4Zm-3.756-.252-12.414-1-27.944,36.455,10.649,3.788,30.248-38.01A1.887,1.887,0,0,1,2293.638,146.968Zm-637.052-29.337a1.183,1.183,0,0,1,.258,2.187l20.021,66.969,8.54-4.694-11.96-81.477-15.617-5.435Zm29.336,64.718,1.149,7.829,75.215-49.313-.279-.336Zm-8.918,4.9,2.382,7.967,7.249-4.753-1.156-7.872Zm420.908-34.967-6.869.715,10.167,31.751,21.51,11.393-5.7-30.417-14.2-11.935a2.9,2.9,0,0,1-4.916-1.508Zm198.719-3.864a1.888,1.888,0,0,1-.633.3l6.159,48.493.132,0a2.9,2.9,0,0,1,2.479,1.392l26.185-13.171ZM2264.4,186.381l35.244,12.536a2.921,2.921,0,0,1,2.049-1.649l-6.16-48.493a1.877,1.877,0,0,1-.984-.276Zm-44.7-13.7,16.567,31.159,16.246-21.191-32.534-11.572Zm-563.305-52.732c-.035,0-.07,0-.106,0h-.017l-19.531,88.885,39.7-21.823Zm160.262,12.433,1.58,8.482,31.07,69.974,46.787-47.51-62.526-31.916ZM2236.505,204.3l5.217,9.812,21.894-27.512-10.639-3.785ZM1911,170.944l-14.471-7.387-47.022,47.749,1.409,3.173,60.159-42.5a1.423,1.423,0,0,1-.075-1.04Zm202.18-28.305,4.277,22.833,59.73,50.22V155.863l-55.435-19.718Zm-457.93-23.288L1607.862,134.4l6.965,86.49,21.36-11.74,19.62-89.29A1.186,1.186,0,0,1,1655.254,119.351Zm115.023,16.842-7.288,4.778,68.472,82.41-58.229-86.591a2.364,2.364,0,0,1-2.955-.6Zm4.2-1.387a2.362,2.362,0,0,1-.854,1.719l59.254,88.115a2.352,2.352,0,0,1,.453-.185L1817.78,141.01l-3.762-8.472Zm59.319,89.562c.065-.005.132-.008.2-.008a2.356,2.356,0,0,1,1.483.523l13.47-13.678-30.339-68.327Zm289.459-27.943L2177.191,225V216.31l-59.593-50.1ZM1836.023,225l14.5-10.245-1.372-3.089ZM1636.6,209.457l-3.545,16.135,45.916-30.1-2.393-8Zm350.819-45.667-6.594,21.359,46.2,40.7-26.96-63.377Zm-151.368,61.771a2.353,2.353,0,0,1,.306,1.165c0,.069,0,.137-.009.2l21.375,4.044-7-15.775Zm531.734,5.715,5.384-.332-3.591-3.869ZM1832.276,225.1l-69.686-83.87-75.443,49.462,6.2,42.27,138.281-6.367A2.353,2.353,0,0,1,1832.276,225.1ZM1679.528,195.69l11.18,37.4,2.169-.1-6.165-42.005Zm234.247-24.229a1.419,1.419,0,0,1-1.179,1.309v61.709l27.559-65.766Zm391.208,27.559a2.879,2.879,0,0,1,.213,1.089,2.908,2.908,0,0,1-2.668,2.894V235.3l64.731-3.99,1.973-4.613-37.94-40.907Zm-687.057,36.492,14.566-9.55,3.561-16.2L1614.869,221.4l1.089,13.519a1.891,1.891,0,0,1,1.968.59Zm14.988-9.26-2.108,9.591,59.416-2.735-11.105-37.148Zm-14.727,9.655a1.881,1.881,0,0,1,.165.509l11.966-.551,2.03-9.243Zm588.767,1.2-7.115-73.191-8.439-3Zm92.533-37.747-35.4-12.59-22.125,27.8,12.593,23.684,47.5-2.928V203a2.9,2.9,0,0,1-2.668-2.894A2.782,2.782,0,0,1,2299.485,199.362Zm-91.8,40.336h.028l11.5-66.935-1.282-2.413-17.594-6.258Zm-30.017-14.452,27.453,14.542-27.453-23.08Zm30.513,14.533a1.829,1.829,0,0,1,.4.177l27.367-35.7-16.378-30.81Zm-1.159.018-16.142-79.066-13.213-4.7v60.058l28.678,24.112A1.877,1.877,0,0,1,2207.019,239.8Zm14.476.5,32.542-2.006-12.395-23.312Zm-310.142-67.923-60.236,42.551,7.176,16.16,51.634,9.769,2.2-5.243V172.769A1.417,1.417,0,0,1,1911.352,172.371Zm297.606,67.873a1.893,1.893,0,0,1,.478.793l11.424-.7L2241.4,214.52l-5.208-9.8Zm-298.558.7,1.722.326v-4.435Zm-360.343-89.88-49.3-21.521-26.153,52.5,98.02,59.317a2.913,2.913,0,0,1,1.431-1.054L1552.8,154.1a2.366,2.366,0,0,1-2.745-3.039Zm4.567.238a2.368,2.368,0,0,1-1.371,2.656l21.264,86.236a2.931,2.931,0,0,1,.463-.037,2.9,2.9,0,0,1,2.422,1.3l36.97-20.32-6.973-86.592Zm23.007,90.572a2.846,2.846,0,0,1,.176.518l36.787-5.6v-.049a1.891,1.891,0,0,1,.906-1.615l-1.085-13.472ZM1948.957,167.8l12.463,78.584,18.864-61.078L1959.2,166.729Zm260.559,73.71c0,.028,0,.056,0,.084a1.861,1.861,0,0,1-.156.745l6.32,4.5,4.778-6.007Zm-518.669-7.953L1695,247.438l-2.052-13.982Zm145.417-6.158a2.366,2.366,0,0,1-.247.557l30.121,21.967L1857.96,231.5Zm-217.892,9.494a1.889,1.889,0,0,1-.546,1.185l9.365,12.015,3.02-13.745Zm587.558,3.865-28.266-14.972v24.53l28.072-8.6v-.126A1.844,1.844,0,0,1,2205.93,240.754Zm-265.239-72.1L1912.6,235.7v5.653l47.595,9,.913-2.955-12.617-79.559ZM2342.648-139.95a2.379,2.379,0,0,1-.34-1.221,2.366,2.366,0,0,1,2.365-2.365,2.367,2.367,0,0,1,2.342,2.033l35.41.1a.238.238,0,0,1,0,.473l-35.391-.1a1.991,1.991,0,0,1-.023.237L2382.5-129.4s.1,0,.151.157a.243.243,0,0,1-.3.293l-35.466-11.387a2.322,2.322,0,0,1-.478.772l19.992,25.05,15.966-4.2a.472.472,0,0,1,.18.025c.113.1.023.393.023.393l-.085.04-15.763,4.148,15.886,19.9c.142.233-.095.56-.369.3l-16.014-20.068-24.018,6.322-1.921,23.266q5.429,1.491,10.857,2.984,14.014,3.862,28.034,7.7l2.446.67.937.272c.265.265.1.449-.2.421-14.06-3.851-28.1-7.667-42.118-11.541l-1.448,17.5,18.739,15.607,5.341-.883,19.415-13.334c.033-.016.042-.03.062-.037s.052-.009.151.009c.26.141.185.3.057.418l-18.583,12.762,18.274-3.019.09,0c.3.135.246.134.142.368l-.156.1L2363.057-51.2l-3.312,2.275,8.9,7.411q5.378-2.239,10.757-4.472l2.167-.9.326-.13.44-.187a.322.322,0,0,1,.052-.01l.019-.008.062,0h.015l.042.019c.118.057.175.123.18.191a.272.272,0,0,1-.137.2.385.385,0,0,1-.047.033l-13.359,5.685,13.417,11.176c.289.341-.024.522-.3.364l-13.6-11.332-33.144,14.1-.823,9.99a2.869,2.869,0,0,1,.937.327l.274.018q22.878,1.521,45.761,2.82l.762.044c.2.043.2.1.218.176.033.132.009.271-.246.3-15.313-.89-30.684-1.759-46.068-2.808a2.887,2.887,0,0,1,.795,1.991,2.909,2.909,0,0,1-2.9,2.9,3.032,3.032,0,0,1-.34-.02l-1.817,9.051,50.51,46.31h0a.176.176,0,0,1,.066.243.223.223,0,0,1-.127.16l-8.7,7.656,8.729,5.184s.1.027.113.237l-.175.2-.179-.026-8.861-5.262-16.2,14.251,7.418,14.752,17.665-8.522a.446.446,0,0,1,.142-.019c.313.109.289.289.062.446l-17.655,8.519,17.764,35.339c.085.315.052.274-.194.342,0,0-.1.036-.227-.13l-17.769-35.346-52.6,25.376a2.311,2.311,0,0,1,.146.809,2.351,2.351,0,0,1-.308,1.162l57.791,40.7,12.527.9.009,0c.417.1.27.431-.042.469l-11.42-.614,12.012,8.458.014.016a.181.181,0,0,1,.071.276.2.2,0,0,1-.166.138l-16.359,8.229,16.411,8.578a.24.24,0,0,1-.038.435l-.18-.016L2365.6,168.53l-33.872,17.036,37.7,40.652,12.773-29.9a.267.267,0,0,1,.279-.136.244.244,0,0,1,.156.322l-12.858,30.1,4,4.308,8.629-.532.094.012s.289.053.1.38l-.165.079-8.241.509,8.4,9.06c.17.278.128.248-.09.383l-.256-.061-8.667-9.345-6.008.37-8.1,18.962c-.137.229-.535.185-.435-.186l8.009-18.744-64.522,3.978v14.859a.254.254,0,0,1-.08.179.245.245,0,0,1-.393-.179V235.8l-47.255,2.913,6.277,11.806s.071.077-.028.262c0,0-.057.18-.332.032l-.057-.072-6.377-12-33.181,2.045-5.034,6.321,4.669,3.326c.2.166-.024.539-.28.385l-4.683-3.34-3.316,4.168s-.1.156-.331.038l-.081-.251.043-.082,3.3-4.148-6.264-4.465a1.889,1.889,0,0,1-3.292-.561l-28.333,8.675a.265.265,0,0,1-.052,0c-.374.045-.256-.23-.256-.23v-25.1l-53.826-28.511,10.034,53.568-.1.242-.265,0-.095-.151-10.1-53.938-21.411-11.343,20.867,65.165s.062.088-.071.253l-.26.03a.338.338,0,0,1-.118-.138l-21.014-65.627L2048.6,157.418l-48.05,5,27.287,64.154,27.1,23.878.066.254-.208.159a.318.318,0,0,1-.17-.059l-26.36-23.225,9.764,22.954c.042.206-.047.258-.047.258-.388.263-.388-.073-.388-.073l-10.152-23.864-46.778-41.215-19.084,61.794.5,3.155-.111.239-.262-.01a.309.309,0,0,1-.094-.154l-.35-2.205-.645,2.086a.3.3,0,0,1-.04.127l-.007.024-.01.015-.019.045-.242.1-47.714-9.027v8.795c-.026.146-.073.178-.118.2-.131.076-.305.077-.355-.2v-8.885l-1.909-.361-3.913,9.337c-.088.13-.376.31-.455-.092l.019-.091,3.874-9.244-51.213-9.689,8.4,18.929c.079.348-.12.312-.12.312l-.029-.005a.228.228,0,0,1-.207-.02l-30.842-22.493a2.369,2.369,0,0,1-.385.336l12.825,21.846a.238.238,0,0,1-.408.239l-12.83-21.855a2.347,2.347,0,0,1-.938.194,2.382,2.382,0,0,1-.325-.022l-4.65,21.613a.243.243,0,0,1-.235.167h0a.221.221,0,0,1-.224-.266l4.652-21.625a2.373,2.373,0,0,1-1.453-1.465l-97.052,23.369-.247-.091c-.137-.3-.1-.262.136-.369l96.858-23.323-138.032,6.355,2.52,17.163s.037.083-.081.207l0,.011h-.008l-.02.019s-.062.066-.222,0h-.011l-.007-.008-.022-.01-.038-.064-.047-.058-5.12-17.124-59.66,2.747-3.156,14.361c-.143.327-.281.18-.281.18l0-.005a.246.246,0,0,1-.131-.08l-9.674-12.412a1.892,1.892,0,0,1-2.788-1.109l-36.787,5.6q.007.1.007.2a2.882,2.882,0,0,1-.037.462l27.967,6.883a.309.309,0,0,1,.158.131.243.243,0,0,1-.271.329l-27.967-6.883a2.891,2.891,0,0,1-.5.907l5.833,5.576c.178.191-.067.563-.327.342l-5.833-5.576a2.9,2.9,0,0,1-4.832-2.17c0-.081,0-.162.01-.242-32.312-5.379-64.573-10.835-96.867-16.053-.368-.059-.736-.123-1.105-.173-.172-.023-.157-.069-.157-.069l-.069-.167s-.028-.1.146-.219a.4.4,0,0,1,.112-.018c.384.041.766.117,1.148.178,27.969,4.519,55.959,9.254,83.965,13.909l11.425,1.9,1.479.246a2.852,2.852,0,0,1,.218-.588l-97.986-59.3-.059.119c-.088.119-.145.127-.2.131-.151.009-.308-.067-.227-.342l.144-.289a.159.159,0,0,1,.052-.1l26.217-52.629-26.3-11.48c-.338-.224-.147-.515.189-.434l26.318,11.49,17.005-34.137a2.905,2.905,0,0,1-1.264-3.37L1474.035,74c-.231-.133-.2-.537.181-.438l42.244,17.415c.025-.048.05-.1.078-.141l-42.381-29.591c-.251-.229-.108-.488.216-.416l.055.029,42.381,29.591a2.9,2.9,0,0,1,5.031,1.059l14.812-2.917-3.714-15.062v0l0-.006-1.026-5.142-57.873-23.567-.009-.006c-.155-.045-.178-.072-.158-.162a.113.113,0,0,1,.037-.14s.022-.143.22-.14l.012-.007,53.6,3.143-3.95-19.8c-.075.007-.151.011-.229.011a2.365,2.365,0,1,1,1.014-4.5l64.1-43.611a2.882,2.882,0,0,1-.341-1.364,2.9,2.9,0,0,1,2.9-2.9,2.9,2.9,0,0,1,2.9,2.9,2.893,2.893,0,0,1-.287,1.258l66.008,38.65a2.373,2.373,0,0,1,4.213,2l47.251,17.525,142.742-23.345a2.366,2.366,0,1,1,4.587,1.091L1939.7,85.017l86.862-56.758a2.364,2.364,0,0,1,4.6.117l16.761-1.82v-.023a2.366,2.366,0,0,1,2.366-2.365,2.342,2.342,0,0,1,1.353.426l90.8-105.7a2.368,2.368,0,0,1-.653-1.631,2.367,2.367,0,0,1,2.366-2.365,2.366,2.366,0,0,1,2.365,2.365,2.352,2.352,0,0,1-.212.981L2179.358-62.5l-.223-2.563a2.365,2.365,0,0,1-2.332-2.365,2.366,2.366,0,0,1,2.365-2.365A2.363,2.363,0,0,1,2181.4-68.2l96.531-23.1a2.774,2.774,0,0,1-.033-.444,2.905,2.905,0,0,1,2.9-2.9,2.887,2.887,0,0,1,2.138.945Z" transform="translate(-1491.868 403)" fill="#fff"/>
      </g>
    </g>
  </g>
</svg>
