<svg xmlns="http://www.w3.org/2000/svg" xmlns:xlink="http://www.w3.org/1999/xlink" width="249.142" height="71.2" viewBox="0 0 249.142 71.2">
  <defs>
    <clipPath id="clip-path">
      <path id="Path_47" data-name="Path 47" d="M79.491-6.573H57.215V-10.1l15.7-23.173H57.641v-4.354H79.065v3.568L63.306-10.927H79.491Zm15.27.425q-5.494,0-8.593-3.2t-3.1-8.8q0-5.756,2.875-9.048a9.943,9.943,0,0,1,7.9-3.292,9.719,9.719,0,0,1,7.368,2.825,10.777,10.777,0,0,1,2.7,7.774v2.7h-15.7a7.7,7.7,0,0,0,1.853,5.257A6.463,6.463,0,0,0,94.994-10.1a18.207,18.207,0,0,0,3.887-.393,20.41,20.41,0,0,0,3.865-1.306v4.057a15.393,15.393,0,0,1-3.706,1.232,22.78,22.78,0,0,1-4.281.361Zm-.916-20.56A5.035,5.035,0,0,0,90.022-25.2a7.177,7.177,0,0,0-1.714,4.4H99a6.491,6.491,0,0,0-1.406-4.407,4.814,4.814,0,0,0-3.748-1.5Zm28-3.781q8.476,0,8.476,8.6V-6.573H125.3V-21.016a6.309,6.309,0,0,0-1.1-4.057,4.245,4.245,0,0,0-3.482-1.338,5.543,5.543,0,0,0-4.643,1.869q-1.469,1.869-1.469,6.266v11.7h-5V-30.064h3.919l.7,3.08h.256a6.962,6.962,0,0,1,3.024-2.591A10.157,10.157,0,0,1,121.849-30.489Zm19.635-7.137,11.032,27.314h.128l11.031-27.314h3.28V-6.573h-2.193V-30.107q0-2.464.255-5.1h-.17L153.2-6.573h-1.384L140.206-35.247h-.17q.17,2.634.17,5.395V-6.573h-2.087V-37.626Zm47.78,31.053-.532-3.653h-.17a10.985,10.985,0,0,1-3.588,3.154,9.607,9.607,0,0,1-4.355.924,7.547,7.547,0,0,1-5.3-1.742,6.221,6.221,0,0,1-1.9-4.821,5.945,5.945,0,0,1,2.822-5.246q2.822-1.869,8.167-1.975l4.408-.127V-21.59a7.836,7.836,0,0,0-1.342-4.97,5.209,5.209,0,0,0-4.323-1.678,14.491,14.491,0,0,0-6.666,1.784L175.7-28.28a17.679,17.679,0,0,1,7.539-1.784q3.812,0,5.7,1.975t1.885,6.16V-6.573ZM180.745-8.06a7.957,7.957,0,0,0,5.846-2.113,7.88,7.88,0,0,0,2.14-5.873v-2.273l-4.046.17q-4.877.234-6.953,1.519a4.372,4.372,0,0,0-2.076,4,4.3,4.3,0,0,0,1.331,3.367,5.419,5.419,0,0,0,3.759,1.2Zm23.673.042a15.855,15.855,0,0,0,3.493-.34v1.7a11.2,11.2,0,0,1-3.535.51,5.765,5.765,0,0,1-4.526-1.635q-1.459-1.635-1.459-5.14v-14.91h-3.429v-1.232l3.429-.956,1.065-5.225h1.086v5.586h6.794v1.827h-6.794v14.613a6.656,6.656,0,0,0,.937,3.929,3.4,3.4,0,0,0,2.939,1.274Zm17.846,1.869a10.1,10.1,0,0,1-7.869-3.1q-2.822-3.1-2.822-8.687a13.519,13.519,0,0,1,2.726-8.846,9.007,9.007,0,0,1,7.347-3.324,7.942,7.942,0,0,1,6.453,2.846,11.732,11.732,0,0,1,2.364,7.731v1.7H213.789q.043,4.758,2.225,7.264a7.843,7.843,0,0,0,6.25,2.506,19.439,19.439,0,0,0,3.482-.276,21.2,21.2,0,0,0,3.8-1.189v1.912a16.987,16.987,0,0,1-3.62,1.158,20.146,20.146,0,0,1-3.663.308Zm-.618-22.089a6.944,6.944,0,0,0-5.367,2.2,10.352,10.352,0,0,0-2.364,6.34h14.311a10.048,10.048,0,0,0-1.746-6.276,5.766,5.766,0,0,0-4.834-2.262Z" transform="translate(-57.215 37.626)" fill="#fff" clip-rule="evenodd"/>
    </clipPath>
    <clipPath id="clip-path-2">
      <path id="Path_46" data-name="Path 46" d="M-585,443.305H524.891V-341H-585Z" transform="translate(585 341)" fill="#fff"/>
    </clipPath>
  </defs>
  <g id="Group_475" data-name="Group 475" transform="translate(-684.491 -191.5)">
    <g id="Group_68" data-name="Group 68" transform="translate(760.385 211)" clip-path="url(#clip-path)">
      <g id="Group_67" data-name="Group 67" transform="translate(-846.542 -399.896)" clip-path="url(#clip-path-2)">
        <path id="Path_45" data-name="Path 45" d="M52.215-42.626h186.43V2.033H52.215Z" transform="translate(787.736 435.931)" fill="#fff"/>
      </g>
    </g>
    <path id="Subtraction_4" data-name="Subtraction 4" d="M-1949.413-1644.8a4.779,4.779,0,0,1-2.7-.83c-9.916-6.766-17.576-17.59-22.768-32.172a118.275,118.275,0,0,1-6.1-28.263,4.564,4.564,0,0,1,2.944-4.66c6.948-2.717,17.384-4.275,28.633-4.275s21.68,1.559,28.624,4.275a4.557,4.557,0,0,1,2.944,4.66,118.155,118.155,0,0,1-6.1,28.263c-5.191,14.581-12.851,25.4-22.767,32.169A4.8,4.8,0,0,1-1949.413-1644.8Zm-8.2-31.678h0a12.847,12.847,0,0,0,3.034,1.724l.664,4.65a.925.925,0,0,0,.9.732h7.219a.929.929,0,0,0,.9-.761l.66-4.65a13.479,13.479,0,0,0,3.039-1.725l4.482,1.753a.991.991,0,0,0,.327.055.922.922,0,0,0,.789-.434l3.607-6.056a.881.881,0,0,0-.208-1.141l-3.823-2.9a10.437,10.437,0,0,0,.12-1.7,15.745,15.745,0,0,0-.111-1.642l-.009-.083,3.823-2.9a.877.877,0,0,0,.208-1.141l-3.607-6.052a.92.92,0,0,0-.789-.437.991.991,0,0,0-.327.055l-4.482,1.756a12.725,12.725,0,0,0-3.039-1.725l-.66-4.654a.924.924,0,0,0-.9-.729h-7.219a.929.929,0,0,0-.9.761l-.664,4.65a12.744,12.744,0,0,0-3.036,1.7l-4.482-1.756a.994.994,0,0,0-.327-.055.915.915,0,0,0-.789.438l-3.61,6.052a.882.882,0,0,0,.211,1.141l3.822,2.9a10.832,10.832,0,0,0-.151,1.725,15.618,15.618,0,0,0,.111,1.639l.009.089-3.819,2.894a.882.882,0,0,0-.183,1.144l3.61,6.052a.929.929,0,0,0,.787.436.99.99,0,0,0,.329-.057l4.481-1.753Zm8.21-5.44a5.081,5.081,0,0,1-5.143-5,5.079,5.079,0,0,1,5.143-5,5.08,5.08,0,0,1,5.146,5A5.082,5.082,0,0,1-1949.405-1681.917Z" transform="translate(2666 1907)" fill="#fff" stroke="rgba(0,0,0,0)" stroke-width="1"/>
  </g>
</svg>
