<svg xmlns="http://www.w3.org/2000/svg" width="113.043" height="32" viewBox="0 0 113.043 32">
  <g id="Logos" transform="translate(-0.104 1087.438)">
    <g id="Logos_Vector_ZenMateLogo-L-VectorEPS-White" data-name="Logos/Vector/ZenMateLogo-L-VectorEPS-White" transform="translate(0.104 -1087.438)">
      <g id="Logo">
        <path id="Fill-1" d="M1.449-1085.489a2.093,2.093,0,0,0-1.337,2.124c.425,4.829,2.589,20.345,13.1,27.548a2.18,2.18,0,0,0,2.457,0c10.513-7.2,12.677-22.719,13.1-27.548a2.091,2.091,0,0,0-1.337-2.124c-6.615-2.6-19.374-2.6-25.988,0Zm13.471,27a.787.787,0,0,1-.954,0c-6.957-5.318-10.189-15.551-11.121-24.123a.758.758,0,0,1,.536-.8,39.9,39.9,0,0,1,22.112.014.758.758,0,0,1,.549.806c-.931,8.573-4.177,18.8-11.122,24.107Z" transform="translate(-0.104 1087.438)" fill="#fff"/>
        <path id="Fill-2" d="M46.2-1053.789a37.925,37.925,0,0,0-8.309.918.5.5,0,0,0-.385.553c.989,6.66,3.5,14.369,8.359,19.079a.514.514,0,0,0,.712,0c4.855-4.711,7.372-12.42,8.358-19.053a.5.5,0,0,0-.383-.553,36.979,36.979,0,0,0-8.353-.945ZM47.1-1038a.483.483,0,0,1-.536.19.469.469,0,0,1-.341-.447v-12.483a.462.462,0,0,1,.143-.333.482.482,0,0,1,.344-.134,34.831,34.831,0,0,1,4.769.433.48.48,0,0,1,.317.195.459.459,0,0,1,.076.359A34.631,34.631,0,0,1,47.1-1038Z" transform="translate(-31.887 1058.844)" fill="#fff"/>
      </g>
      <path id="ZenMate" d="M238.381-1006.588H228.254v-1.607l7.136-10.563h-6.942v-1.985h9.74v1.627l-7.165,10.543h7.358Zm6.942.194a5.18,5.18,0,0,1-3.907-1.457,5.531,5.531,0,0,1-1.409-4.013,6.068,6.068,0,0,1,1.307-4.124,4.515,4.515,0,0,1,3.592-1.5,4.413,4.413,0,0,1,3.35,1.288,4.921,4.921,0,0,1,1.23,3.544v1.23h-7.136a3.516,3.516,0,0,0,.842,2.4,2.934,2.934,0,0,0,2.237.837,8.243,8.243,0,0,0,1.767-.179,9.254,9.254,0,0,0,1.758-.6v1.849a6.993,6.993,0,0,1-1.685.562,10.336,10.336,0,0,1-1.946.165Zm-.416-9.372a2.286,2.286,0,0,0-1.738.687,3.277,3.277,0,0,0-.779,2h4.86a2.964,2.964,0,0,0-.639-2.009,2.185,2.185,0,0,0-1.7-.683Zm16.585,9.178h-2.285v-6.584a2.881,2.881,0,0,0-.5-1.849,1.927,1.927,0,0,0-1.583-.61,2.517,2.517,0,0,0-2.111.852,4.7,4.7,0,0,0-.668,2.856v5.335h-2.275V-1017.3h1.781l.32,1.4h.116a3.166,3.166,0,0,1,1.375-1.181,4.606,4.606,0,0,1,1.975-.416q3.853,0,3.853,3.921Zm9.769,0-5.277-13.07h-.077q.077,1.2.077,2.459v10.611h-.949v-14.155h1.53l5.015,12.451h.058l5.015-12.451h1.491v14.155h-1v-10.727q0-1.123.116-2.324h-.077l-5.3,13.051Zm17.03,0-.242-1.665h-.077a5,5,0,0,1-1.632,1.438,4.357,4.357,0,0,1-1.98.421,3.425,3.425,0,0,1-2.411-.794,2.84,2.84,0,0,1-.862-2.2,2.712,2.712,0,0,1,1.283-2.391,6.976,6.976,0,0,1,3.713-.9l2-.058v-.7a3.579,3.579,0,0,0-.61-2.266,2.365,2.365,0,0,0-1.965-.765,6.574,6.574,0,0,0-3.03.813l-.358-.833a8.019,8.019,0,0,1,3.427-.813,3.416,3.416,0,0,1,2.59.9,3.956,3.956,0,0,1,.857,2.808v7Zm-3.873-.678a3.612,3.612,0,0,0,2.658-.963,3.6,3.6,0,0,0,.973-2.677v-1.036l-1.84.077a6.949,6.949,0,0,0-3.161.692,1.994,1.994,0,0,0-.944,1.825,1.963,1.963,0,0,0,.6,1.534,2.46,2.46,0,0,0,1.709.547Zm10.766.019a7.187,7.187,0,0,0,1.588-.155v.775a5.081,5.081,0,0,1-1.607.232,2.617,2.617,0,0,1-2.058-.745,3.461,3.461,0,0,1-.663-2.343v-6.8h-1.559v-.562l1.559-.436.484-2.382h.494v2.546h3.088v.833h-3.088v6.661a3.039,3.039,0,0,0,.426,1.791,1.546,1.546,0,0,0,1.336.581Zm8.113.852a4.585,4.585,0,0,1-3.578-1.414,5.681,5.681,0,0,1-1.283-3.96,6.174,6.174,0,0,1,1.239-4.033,4.091,4.091,0,0,1,3.34-1.515,3.606,3.606,0,0,1,2.934,1.3,5.357,5.357,0,0,1,1.075,3.524v.775h-7.581a4.979,4.979,0,0,0,1.012,3.311,3.561,3.561,0,0,0,2.842,1.143,8.828,8.828,0,0,0,1.583-.126,9.63,9.63,0,0,0,1.728-.542v.871a7.706,7.706,0,0,1-1.646.528,9.144,9.144,0,0,1-1.665.14Zm-.281-10.069a3.153,3.153,0,0,0-2.44,1,4.726,4.726,0,0,0-1.075,2.89h6.506a4.59,4.59,0,0,0-.794-2.861,2.619,2.619,0,0,0-2.2-1.031Z" transform="translate(-193.982 1030.762)" fill="#fff"/>
    </g>
  </g>
</svg>
