<svg id="Logo" xmlns="http://www.w3.org/2000/svg" width="61.452" height="68.571" viewBox="0 0 61.452 68.571">
  <path id="Fill_1" data-name="Fill 1" d="M30.727,68.571a4.639,4.639,0,0,1-2.633-.812C18.448,61.151,11,50.578,5.949,36.335A115.859,115.859,0,0,1,.017,8.727,4.457,4.457,0,0,1,2.882,4.176C9.637,1.522,19.786,0,30.725,0S51.814,1.522,58.57,4.176a4.46,4.46,0,0,1,2.865,4.551A115.853,115.853,0,0,1,55.5,36.334C50.454,50.577,43,61.15,33.358,67.759A4.633,4.633,0,0,1,30.727,68.571ZM30.679,5.286A82.451,82.451,0,0,0,7.02,8.613a1.634,1.634,0,0,0-1.148,1.722A104.982,104.982,0,0,0,12.946,38.8C17.191,48.957,22.828,56.773,29.7,62.028a1.689,1.689,0,0,0,2.044,0c6.867-5.248,12.5-13.055,16.749-23.205A104.619,104.619,0,0,0,55.58,10.37,1.627,1.627,0,0,0,54.4,8.642,84.485,84.485,0,0,0,30.679,5.286Z" transform="translate(0 0)" fill="#085a82"/>
  <path id="Fill_2" data-name="Fill 2" d="M18.687,44.343a1.086,1.086,0,0,1-.763-.308C13.107,39.362,9.048,33.011,5.861,25.161A97.52,97.52,0,0,1,.012,3.151,1.055,1.055,0,0,1,.836,1.967,81.018,81.018,0,0,1,18.64,0a79.486,79.486,0,0,1,17.9,2.023,1.058,1.058,0,0,1,.822,1.186,97.247,97.247,0,0,1-5.846,21.956c-3.189,7.848-7.248,14.2-12.065,18.869A1.087,1.087,0,0,1,18.687,44.343Zm1.029-38.8a1.029,1.029,0,0,0-.722.289.991.991,0,0,0-.307.714V33.29a1.008,1.008,0,0,0,.731.957,1.045,1.045,0,0,0,.3.043,1.026,1.026,0,0,0,.853-.449c5.8-8.584,8.762-18.98,10.224-26.19a.984.984,0,0,0-.163-.766,1.031,1.031,0,0,0-.678-.418A74.894,74.894,0,0,0,19.73,5.538h-.015Z" transform="translate(12.039 10.831)" fill="#085a82"/>
</svg>
