<svg xmlns="http://www.w3.org/2000/svg" width="117.505" height="130" viewBox="0 0 117.505 130">
  <g id="Group_444" data-name="Group 444" transform="translate(18199.312 -5081.179)">
    <path id="Path_3375" data-name="Path 3375" d="M111.73,8.42a8.5,8.5,0,0,0-5.477,8.629c1.74,19.619,10.606,82.652,53.687,111.916a9,9,0,0,0,10.068,0c43.079-29.265,51.944-92.3,53.685-111.915a8.489,8.489,0,0,0-5.476-8.629c-27.105-10.555-79.386-10.553-106.487,0Zm55.2,109.68a3.249,3.249,0,0,1-3.908,0c-28.508-21.6-41.748-63.177-45.569-98a3.081,3.081,0,0,1,2.2-3.263c9.693-2.981,46.964-12.6,90.606.056a3.084,3.084,0,0,1,2.25,3.274c-3.815,34.829-17.115,76.373-45.573,97.937Zm0,0" transform="translate(-18305.533 5080.675)" fill="#fff" fill-rule="evenodd"/>
    <path id="Path_3376" data-name="Path 3376" d="M202.64,54.715a156.638,156.638,0,0,0-34.046,3.73,2.01,2.01,0,0,0-1.576,2.245c4.051,27.055,14.358,58.374,34.251,77.509a2.117,2.117,0,0,0,2.917,0c19.9-19.14,30.207-50.458,34.248-77.4a2.013,2.013,0,0,0-1.571-2.245,152.767,152.767,0,0,0-34.224-3.838Zm3.682,64.158a1.989,1.989,0,0,1-2.2.772,1.909,1.909,0,0,1-1.4-1.819V67.116a1.871,1.871,0,0,1,.587-1.356,1.988,1.988,0,0,1,1.408-.545,143.881,143.881,0,0,1,19.54,1.759,1.968,1.968,0,0,1,1.3.792,1.858,1.858,0,0,1,.312,1.456c-3.444,16.829-9.671,35.153-19.551,49.651Zm0,0" transform="translate(-18343.289 5046.998)" fill="#fff" fill-rule="evenodd"/>
  </g>
</svg>
