<svg id="Logo" xmlns="http://www.w3.org/2000/svg" width="79.448" height="88.654" viewBox="0 0 79.448 88.654">
  <path id="Fill-1" d="M3.829-1082.04a5.8,5.8,0,0,0-3.7,5.885c1.177,13.379,7.171,56.364,36.3,76.321a6.04,6.04,0,0,0,6.807,0c29.127-19.957,35.121-62.942,36.3-76.321a5.794,5.794,0,0,0-3.7-5.885c-18.326-7.2-53.674-7.2-72,0Zm37.319,74.8a2.181,2.181,0,0,1-2.642,0c-19.275-14.732-28.227-43.084-30.81-66.832A2.1,2.1,0,0,1,9.18-1076.3a110.544,110.544,0,0,1,61.26.039,2.1,2.1,0,0,1,1.521,2.233c-2.578,23.752-11.571,52.082-30.813,66.788Z" transform="translate(-0.104 1087.438)" fill="#db2424"/>
  <path id="Fill-2" d="M61.6-1053.789a105.072,105.072,0,0,0-23.019,2.543,1.37,1.37,0,0,0-1.065,1.531c2.739,18.451,9.707,39.809,23.158,52.858a1.423,1.423,0,0,0,1.972,0c13.452-13.053,20.424-34.41,23.156-52.784a1.371,1.371,0,0,0-1.062-1.531,102.438,102.438,0,0,0-23.14-2.618Zm2.489,43.753a1.338,1.338,0,0,1-1.485.526,1.3,1.3,0,0,1-.944-1.239v-34.583a1.28,1.28,0,0,1,.4-.924,1.336,1.336,0,0,1,.952-.372,96.5,96.5,0,0,1,13.211,1.2,1.33,1.33,0,0,1,.877.54,1.272,1.272,0,0,1,.211.993c-2.328,11.477-6.539,23.972-13.219,33.859Z" transform="translate(-21.94 1067.792)" fill="#db2424"/>
</svg>
