<svg width="24" height="24" viewBox="0 0 24 24" fill="none" xmlns="http://www.w3.org/2000/svg">
<rect width="24" height="24" rx="12" fill="#F65260"/>
<path fill-rule="evenodd" clip-rule="evenodd" d="M10.7451 7.13672C10.563 6.94462 10.2676 6.9151 10.0511 7.06737L9.56895 7.40653C9.24301 7.6358 9.27448 8.12852 9.62694 8.31447L10.6675 8.86342C10.8425 8.95573 10.952 9.13731 10.952 9.33514V9.5858C10.952 9.88036 10.7132 10.1191 10.4187 10.1191H10.0362C9.94943 10.1191 9.86401 10.098 9.7873 10.0575L8.16607 9.20222C7.95455 9.09064 7.69462 9.13349 7.53011 9.30706L7.24423 9.6087C7.00128 9.86504 7.07009 10.2825 7.38248 10.4473L8.14987 10.8521C8.47289 11.0225 8.50173 11.4741 8.20301 11.6842C7.85365 11.93 7.96538 12.4741 8.38331 12.5623L8.7919 12.6485C9.23401 12.7418 9.36706 13.3082 9.01274 13.5886L8.5946 13.9195C8.33537 14.1246 8.48043 14.5417 8.811 14.5417C8.84102 14.5417 8.87092 14.5378 8.89994 14.5301L9.84508 14.2808C10.2405 14.1765 10.5589 14.6109 10.3405 14.9566C10.1511 15.2564 10.3665 15.6473 10.7211 15.6473H11.149C11.3436 15.6473 11.5158 15.7735 11.5744 15.9591C11.7057 16.3748 12.294 16.3748 12.4253 15.9591C12.4839 15.7735 12.6561 15.6473 12.8508 15.6473H13.2786C13.6332 15.6473 13.8486 15.2564 13.6592 14.9566C13.4408 14.6109 13.7592 14.1765 14.1547 14.2808L15.0998 14.5301C15.1288 14.5378 15.1587 14.5417 15.1887 14.5417C15.5193 14.5417 15.6644 14.1246 15.4051 13.9195L14.987 13.5886C14.6327 13.3082 14.7657 12.7418 15.2078 12.6485L15.6164 12.5623C16.0344 12.4741 16.1461 11.93 15.7967 11.6842C15.498 11.4741 15.5268 11.0225 15.8499 10.8521L16.6173 10.4473C16.9296 10.2825 16.9985 9.86504 16.7555 9.60869L16.4696 9.30706C16.3051 9.13349 16.0452 9.09064 15.8337 9.20222L14.2124 10.0575C14.1357 10.098 14.0503 10.1191 13.9636 10.1191H13.5811C13.2865 10.1191 13.0477 9.88036 13.0477 9.5858V9.33514C13.0477 9.13731 13.1572 8.95579 13.3321 8.86348C13.6535 8.69393 14.0398 8.49014 14.373 8.31438C14.7254 8.12844 14.7567 7.6358 14.4308 7.40653L13.9486 7.06737C13.7321 6.9151 13.4367 6.94462 13.2547 7.13672L12.387 8.05225C12.1766 8.27419 11.8231 8.27419 11.6128 8.05225L10.7451 7.13672Z" fill="black"/>
<path d="M0.25 12C0.25 5.51065 5.51065 0.25 12 0.25C18.4893 0.25 23.75 5.51065 23.75 12C23.75 18.4893 18.4893 23.75 12 23.75C5.51065 23.75 0.25 18.4893 0.25 12Z" stroke="black" stroke-opacity="0.095389" stroke-width="0.5"/>
</svg>
