<svg xmlns="http://www.w3.org/2000/svg" width="11" height="14" viewBox="0 0 11 14">
  <path style="fill: #3b9946; fill-rule: evenodd;" d="M1699.7,822h-10.4a0.3,0.3,0,0,1-.31-0.3v-0.553a1.26,1.26,0,0,1,1.5-1.145h2.15v-0.178a0.869,0.869,0,0,1,.58-0.836h2.56a0.869,0.869,0,0,1,.58.836v0.178h2.15a1.26,1.26,0,0,1,1.5,1.145V821.7A0.3,0.3,0,0,1,1699.7,822Zm-9.23,1.023h8.01a0.484,0.484,0,0,1,.5.472v7.242a2.332,2.332,0,0,1-2.38,2.27h-4.24a2.332,2.332,0,0,1-2.38-2.27V823.5A0.481,0.481,0,0,1,1690.47,823.023Zm5.53,7.466a0.541,0.541,0,0,0,.5.579,0.549,0.549,0,0,0,.51-0.579V825.5a0.549,0.549,0,0,0-.51-0.579,0.541,0.541,0,0,0-.5.579v4.988Zm-2,0a0.541,0.541,0,0,0,.5.579,0.549,0.549,0,0,0,.51-0.579V825.5a0.549,0.549,0,0,0-.51-0.579,0.541,0.541,0,0,0-.5.579v4.988Zm-2.03,0a0.519,0.519,0,1,0,1.03,0V825.5a0.519,0.519,0,1,0-1.03,0v4.988Z" transform="translate(-1689 -819)"/>
</svg>
