<svg width="24" height="24" viewBox="0 0 24 24" fill="none" xmlns="http://www.w3.org/2000/svg">
<path fill-rule="evenodd" clip-rule="evenodd" d="M12 23.5C18.3513 23.5 23.5 18.3513 23.5 12C23.5 5.64873 18.3513 0.5 12 0.5C5.64873 0.5 0.5 5.64873 0.5 12C0.5 18.3513 5.64873 23.5 12 23.5Z" fill="white"/>
<path fill-rule="evenodd" clip-rule="evenodd" d="M11.9525 0.0005L12 0C18.6274 0 24 5.37258 24 12C24 12.3368 23.9861 12.6704 23.9589 13.0002L11.9527 13L11.9525 0.0005Z" fill="white"/>
<path fill-rule="evenodd" clip-rule="evenodd" d="M11.9785 0L11.9786 13L0.041094 13.0002C0.0138782 12.6704 0 12.3368 0 12C0 5.43886 5.26567 0.107577 11.8016 0.00160766L11.9785 0Z" fill="#0C69DA"/>
<path fill-rule="evenodd" clip-rule="evenodd" d="M0.0410919 13.0005H23.9589C23.4506 19.1599 18.2906 24.0002 12 24.0002C5.70942 24.0002 0.54936 19.1599 0.0410919 13.0005H23.9589H0.0410919Z" fill="#F65260"/>
<path fill-rule="evenodd" clip-rule="evenodd" d="M7 9.61024L5.1459 11L5.83 8.71644L4 7.2918L6.2769 7.27024L7 5L7.7231 7.27024L10 7.2918L8.17 8.71644L8.8541 11L7 9.61024Z" fill="white"/>
<path d="M0.25 12C0.25 5.51065 5.51065 0.25 12 0.25C18.4893 0.25 23.75 5.51065 23.75 12C23.75 18.4893 18.4893 23.75 12 23.75C5.51065 23.75 0.25 18.4893 0.25 12Z" stroke="black" stroke-opacity="0.095389" stroke-width="0.5"/>
</svg>
