<svg width="24" height="24" viewBox="0 0 24 24" fill="none" xmlns="http://www.w3.org/2000/svg">
<path fill-rule="evenodd" clip-rule="evenodd" d="M12 23.5C18.3513 23.5 23.5 18.3513 23.5 12C23.5 5.64873 18.3513 0.5 12 0.5C5.64873 0.5 0.5 5.64873 0.5 12C0.5 18.3513 5.64873 23.5 12 23.5Z" fill="white"/>
<path fill-rule="evenodd" clip-rule="evenodd" d="M12 24V0C18.6274 0 24 5.37258 24 12C24 18.5255 18.7915 23.8344 12.305 23.9962L12 24V0V24Z" fill="white"/>
<path fill-rule="evenodd" clip-rule="evenodd" d="M12 0V24C5.37258 24 0 18.6274 0 12C0 5.47454 5.20854 0.165607 11.695 0.00379986L12 0Z" fill="#227415"/>
<path fill-rule="evenodd" clip-rule="evenodd" d="M10.8182 6.5C12.5246 6.5 14.0433 7.33114 15.0164 8.62334C14.2657 8.05865 13.3213 7.72222 12.2955 7.72222C9.84783 7.72222 7.86364 9.63745 7.86364 12C7.86364 14.3626 9.84783 16.2778 12.2955 16.2778C13.3213 16.2778 14.2657 15.9413 15.0168 15.3766C14.0433 16.6689 12.5246 17.5 10.8182 17.5C7.88103 17.5 5.5 15.0376 5.5 12C5.5 8.96243 7.88103 6.5 10.8182 6.5Z" fill="#F65260"/>
<path fill-rule="evenodd" clip-rule="evenodd" d="M17 10L17.4821 11.5135L19 11.5279L17.78 12.4776L18.2361 14L17 13.0735L15.7639 14L16.22 12.4776L15 11.5279L16.5179 11.5135L17 10Z" fill="#F65260"/>
<path d="M0.25 12C0.25 5.51065 5.51065 0.25 12 0.25C18.4893 0.25 23.75 5.51065 23.75 12C23.75 18.4893 18.4893 23.75 12 23.75C5.51065 23.75 0.25 18.4893 0.25 12Z" stroke="black" stroke-opacity="0.095389" stroke-width="0.5"/>
</svg>
