<svg width="24" height="24" viewBox="0 0 24 24" fill="none" xmlns="http://www.w3.org/2000/svg">
<path fill-rule="evenodd" clip-rule="evenodd" d="M12 23.5C18.3513 23.5 23.5 18.3513 23.5 12C23.5 5.64873 18.3513 0.5 12 0.5C5.64873 0.5 0.5 5.64873 0.5 12C0.5 18.3513 5.64873 23.5 12 23.5Z" fill="#073579"/>
<path fill-rule="evenodd" clip-rule="evenodd" d="M1.08843 6.99927L22.9116 6.99927C23.6104 8.52158 24 10.2153 24 12C24 13.7846 23.6105 15.4781 22.9118 17.0003H1.0882C0.389531 15.4781 0 13.7846 0 12C0 10.2153 0.389616 8.52158 1.08843 6.99927L22.9116 6.99927L1.08843 6.99927Z" fill="#073579"/>
<path fill-rule="evenodd" clip-rule="evenodd" d="M1.0882 17.0002L22.9118 17.0002C21.0157 21.1312 16.8429 24 12 24C7.15711 24 2.98427 21.1312 1.0882 17.0002L22.9118 17.0002L1.0882 17.0002Z" fill="#F65260"/>
<path fill-rule="evenodd" clip-rule="evenodd" d="M12 15C13.6569 15 15 13.6569 15 12C15 10.3431 13.6569 9 12 9C10.3431 9 9 10.3431 9 12C9 13.6569 10.3431 15 12 15Z" fill="white"/>
<path fill-rule="evenodd" clip-rule="evenodd" d="M12 0C16.8431 0 21.0161 2.86905 22.912 7.00024H1.08797C2.98394 2.86905 7.15692 0 12 0Z" fill="#F65260"/>
<path d="M0.25 12C0.25 5.51065 5.51065 0.25 12 0.25C18.4893 0.25 23.75 5.51065 23.75 12C23.75 18.4893 18.4893 23.75 12 23.75C5.51065 23.75 0.25 18.4893 0.25 12Z" stroke="black" stroke-opacity="0.095389" stroke-width="0.5"/>
</svg>
