<svg width="24" height="24" viewBox="0 0 24 24" fill="none" xmlns="http://www.w3.org/2000/svg">
<path fill-rule="evenodd" clip-rule="evenodd" d="M12 23.5C18.3513 23.5 23.5 18.3513 23.5 12C23.5 5.64873 18.3513 0.5 12 0.5C5.64873 0.5 0.5 5.64873 0.5 12C0.5 18.3513 5.64873 23.5 12 23.5Z" fill="#2FA6F8"/>
<path fill-rule="evenodd" clip-rule="evenodd" d="M8.71006 7.99976L23.3173 8.00032C23.7594 9.25137 24 10.5976 24 12.0001C24 13.4029 23.7593 14.7495 23.3169 16.0008L8.7 15.9998L14 11.9938L8.71006 7.99976Z" fill="#FFCA68"/>
<path fill-rule="evenodd" clip-rule="evenodd" d="M23.3115 15.9999L23.2481 16.1827L23.1837 16.3523C22.9636 16.9144 22.4429 18.0789 21.4992 19.3334C19.3045 22.172 15.8657 23.9999 12 23.9999C8.20851 23.9999 4.82772 22.2415 2.62862 19.4958C2.74928 19.6464 2.87342 19.794 3.00096 19.9385L3.1948 20.1528L8.69902 15.9995L23.3115 15.9999Z" fill="#2FA6F8"/>
<path fill-rule="evenodd" clip-rule="evenodd" d="M12 0C17.225 0 21.67 3.33938 23.3173 8.0003L8.71222 8L3.20671 3.83426C5.39798 1.47567 8.52666 0 12 0Z" fill="#2FA6F8"/>
<path fill-rule="evenodd" clip-rule="evenodd" d="M3.2064 3.83447L14 12L3.1948 20.1528C1.212 18.0124 0 15.1477 0 11.9999C0 8.84596 1.21673 5.97623 3.2064 3.83447Z" fill="black"/>
<path d="M0.25 12C0.25 5.51065 5.51065 0.25 12 0.25C18.4893 0.25 23.75 5.51065 23.75 12C23.75 18.4893 18.4893 23.75 12 23.75C5.51065 23.75 0.25 18.4893 0.25 12Z" stroke="black" stroke-opacity="0.095389" stroke-width="0.5"/>
</svg>
