<svg width="24" height="24" viewBox="0 0 24 24" fill="none" xmlns="http://www.w3.org/2000/svg">
<path fill-rule="evenodd" clip-rule="evenodd" d="M12 23.5C18.3513 23.5 23.5 18.3513 23.5 12C23.5 5.64873 18.3513 0.5 12 0.5C5.64873 0.5 0.5 5.64873 0.5 12C0.5 18.3513 5.64873 23.5 12 23.5Z" fill="#F65260"/>
<path fill-rule="evenodd" clip-rule="evenodd" d="M1.08863 6.99902H22.9114C23.6103 8.52144 24 10.2153 24 12.0002C24 13.7851 23.6103 15.479 22.9114 17.0014H1.08863C0.389689 15.479 0 13.7851 0 12.0002C0 10.2153 0.389689 8.52144 1.08863 6.99902H22.9114H1.08863Z" fill="#F65260"/>
<path fill-rule="evenodd" clip-rule="evenodd" d="M1.0884 17.0005H22.9116C21.0154 21.1312 16.8427 23.9998 12 23.9998C7.15728 23.9998 2.98456 21.1312 1.0884 17.0005H22.9116H1.0884Z" fill="#0C69DA"/>
<path fill-rule="evenodd" clip-rule="evenodd" d="M9.16667 12.3333V15H6.5L7.83333 12.3333H9.16667ZM13.8333 12.3333V15H9.83333V12.3333H13.8333ZM15.8333 12.3333L17.1667 15H14.5V12.3333H15.8333ZM15.1667 9.66667C15.5349 9.66667 15.8333 9.96177 15.8333 10.3326V11.6667H14.5V10.3326C14.5 9.99827 14.7446 9.72145 15.0676 9.67389L15.1667 9.66667ZM11.8333 9C12.2015 9 12.5 9.29561 12.5 9.66428V10.3939H13.8333V11.6667H9.83333V10.3939H11.1667V9.66428C11.1667 9.33076 11.4112 9.05465 11.7342 9.0072L11.8333 9ZM8.5 9.66667C8.86819 9.66667 9.16667 9.96177 9.16667 10.3326V11.6667H7.83333V10.3326C7.83333 9.99827 8.07789 9.72145 8.40091 9.67389L8.5 9.66667Z" fill="white"/>
<path fill-rule="evenodd" clip-rule="evenodd" d="M12 0C16.8429 0 21.0158 2.86885 22.9118 6.99982H1.08817C2.98422 2.86885 7.15708 0 12 0Z" fill="#0C69DA"/>
<path d="M0.25 12C0.25 5.51065 5.51065 0.25 12 0.25C18.4893 0.25 23.75 5.51065 23.75 12C23.75 18.4893 18.4893 23.75 12 23.75C5.51065 23.75 0.25 18.4893 0.25 12Z" stroke="black" stroke-opacity="0.095389" stroke-width="0.5"/>
</svg>
