<svg width="24" height="24" viewBox="0 0 24 24" fill="none" xmlns="http://www.w3.org/2000/svg">
<path fill-rule="evenodd" clip-rule="evenodd" d="M12 23.5C18.3513 23.5 23.5 18.3513 23.5 12C23.5 5.64873 18.3513 0.5 12 0.5C5.64873 0.5 0.5 5.64873 0.5 12C0.5 18.3513 5.64873 23.5 12 23.5Z" fill="#FFCA68"/>
<path fill-rule="evenodd" clip-rule="evenodd" d="M12 1.5C17.799 1.5 22.5 6.20101 22.5 12C22.5 17.799 17.799 22.5 12 22.5C11.2994 22.5 10.6148 22.4314 9.95258 22.3005L9.95258 1.69951C10.6148 1.56862 11.2994 1.5 12 1.5Z" fill="#830A2A"/>
<path fill-rule="evenodd" clip-rule="evenodd" d="M9.95348 0.681641V23.3185C4.57856 22.3531 0.5 17.6529 0.5 12.0001C0.5 6.41079 4.48742 1.75281 9.7728 0.715594L9.95348 0.681641Z" fill="#FFCA68"/>
<path fill-rule="evenodd" clip-rule="evenodd" d="M19.25 16.5C19.6642 16.5 20 16.8358 20 17.25C20 17.6642 19.6642 18 19.25 18C18.8358 18 18.5 17.6642 18.5 17.25C18.5 16.8358 18.8358 16.5 19.25 16.5ZM11.75 16.5C12.1642 16.5 12.5 16.8358 12.5 17.25C12.5 17.6642 12.1642 18 11.75 18C11.3358 18 11 17.6642 11 17.25C11 16.8358 11.3358 16.5 11.75 16.5ZM12.5725 8.84028V10.8502C12.5725 11.1469 12.7862 11.4915 13.0511 11.6204L13.15 11.6685C13.3533 11.7675 13.6294 11.7525 13.8419 11.6468L13.8699 11.6311C13.855 11.661 13.8357 11.6904 13.812 11.719L13.7729 11.761L14.0124 11.5279C13.98 11.5595 13.9434 11.5877 13.9037 11.6124L13.8703 11.6305L13.8889 11.586C13.9467 11.4201 13.8723 11.249 13.6781 11.1545L13.1005 10.8734V10.3593H13.6224C13.9175 10.3593 13.943 10.2553 13.6781 10.1263L13.1005 9.84522V9.33115H13.6224C13.9175 9.33115 14.3296 9.16283 14.5405 8.95755L14.301 9.19068C14.4937 9.00311 14.847 8.84782 15.1349 8.82113L15.2128 8.8175L15.2756 8.82071C15.5538 8.84946 15.8585 9.0459 15.9865 9.29503L16.0236 9.36727C16.1592 9.63124 16.1911 10.0728 16.0962 10.3502L15.9139 10.8825C15.8184 11.1613 15.9847 11.3874 16.2753 11.3874H17.8471C18.0617 11.3874 18.3382 11.2984 18.5542 11.1709L18.6138 11.133L18.6227 11.117C18.712 10.9378 18.6428 10.7435 18.4309 10.6404L18.332 10.5923C18.097 10.4779 17.7164 10.3828 17.4241 10.363L17.2732 10.3562C17.0246 10.3293 16.8272 10.1322 16.8003 9.8802L16.7988 9.8455L16.8013 9.78571C16.8289 9.49937 16.9892 9.14417 17.1809 8.95755L17.3252 8.81708V9.30706C17.3252 9.60428 17.5646 9.84522 17.8533 9.84522H18.3752C18.6703 9.84522 19.0164 10.0533 19.155 10.3232L19.1921 10.3954C19.3126 10.63 19.43 11.0123 19.4676 11.3003L19.49 11.5148C19.5041 11.6851 19.5166 12.0311 19.4376 12.4156L19.4001 12.5794C19.3003 12.9708 19.2045 13.0108 19.2045 13.0108C19.0416 13.2499 18.9095 13.6796 18.9095 13.9733V14.9705C18.9095 15.2434 18.7053 15.4681 18.4343 15.4969L18.3808 15.499L18.3342 15.4976C18.077 15.4738 17.9689 15.2751 18.0988 15.022L18.1359 14.9498C18.2715 14.6858 18.2746 14.2638 18.1359 13.9939L18.0988 13.9217C17.9802 13.6907 17.8812 13.6806 17.8583 13.8824L17.853 13.973L17.8533 13.9337C17.8533 14.2309 17.7465 14.6799 17.6078 14.9498L17.5707 15.022C17.4456 15.2657 17.1426 15.4668 16.8608 15.4963L16.7968 15.499L16.75 15.4976C16.4928 15.4738 16.3846 15.2751 16.5146 15.022L16.5517 14.9498C16.6722 14.7152 16.7724 14.3316 16.7932 14.0388L16.7963 13.961L16.794 13.9232C16.7646 13.6536 16.5355 13.4437 16.2641 13.4437H15.2178C14.9235 13.4437 14.6848 13.6822 14.6848 13.9819V13.9337C14.6848 14.2309 14.5779 14.6799 14.4393 14.9498L14.4022 15.022C14.2771 15.2657 13.9741 15.4668 13.6923 15.4963L13.6278 15.499L13.5814 15.4976C13.3243 15.4738 13.2161 15.2751 13.346 15.022L13.3831 14.9498C13.5037 14.7152 13.6039 14.3316 13.6247 14.0388L13.6278 13.961L13.6255 13.9232C13.5965 13.6536 13.3701 13.4437 13.1005 13.4437L13.6228 13.4435L13.5119 13.44C13.2601 13.4252 12.934 13.367 12.6956 13.2887L12.4964 13.2196L12.3299 13.1556C12.0091 13.0228 11.5163 12.7624 11.5163 12.4156C11.5163 11.9015 11.719 11.8036 11.719 11.8036C11.8987 11.5737 11.9524 11.1662 11.8461 10.8904L11.7983 10.7792L11.7511 10.6602C11.6296 10.3418 11.4432 9.75824 11.5163 9.33115C11.6218 8.71461 12.1074 8.56923 12.1074 8.56923C12.3643 8.4222 12.5725 8.54504 12.5725 8.84028ZM19.25 6C19.6642 6 20 6.33579 20 6.75C20 7.16421 19.6642 7.5 19.25 7.5C18.8358 7.5 18.5 7.16421 18.5 6.75C18.5 6.33579 18.8358 6 19.25 6ZM11.75 6C12.1642 6 12.5 6.33579 12.5 6.75C12.5 7.16421 12.1642 7.5 11.75 7.5C11.3358 7.5 11 7.16421 11 6.75C11 6.33579 11.3358 6 11.75 6Z" fill="#FFCA68"/>
<path fill-rule="evenodd" clip-rule="evenodd" d="M5.00009 4.17383V19.8267C2.85191 17.9041 1.5 15.1101 1.5 12.0003C1.5 8.96281 2.78976 6.22658 4.85151 4.30937L5.00009 4.17383V4.17383Z" fill="#227415"/>
<path fill-rule="evenodd" clip-rule="evenodd" d="M8.99988 1.93457V22.0649C7.49793 21.6178 6.13682 20.8438 4.99913 19.8253L4.99913 4.17412C6.07362 3.21221 7.34739 2.46835 8.75088 2.01209L8.99988 1.93457Z" fill="#FF8E4B"/>
<path fill-rule="evenodd" clip-rule="evenodd" d="M12 0C18.6274 0 24 5.37258 24 12C24 18.6274 18.6274 24 12 24C5.37258 24 0 18.6274 0 12C0 5.37258 5.37258 0 12 0ZM12 1.5C6.20101 1.5 1.5 6.20101 1.5 12C1.5 17.799 6.20101 22.5 12 22.5C17.799 22.5 22.5 17.799 22.5 12C22.5 6.20101 17.799 1.5 12 1.5Z" fill="#FFCA68"/>
<path d="M0.25 12C0.25 5.51065 5.51065 0.25 12 0.25C18.4893 0.25 23.75 5.51065 23.75 12C23.75 18.4893 18.4893 23.75 12 23.75C5.51065 23.75 0.25 18.4893 0.25 12Z" stroke="black" stroke-opacity="0.095389" stroke-width="0.5"/>
</svg>
