<svg width="24" height="24" viewBox="0 0 24 24" fill="none" xmlns="http://www.w3.org/2000/svg">
<path fill-rule="evenodd" clip-rule="evenodd" d="M12 23.5C18.3513 23.5 23.5 18.3513 23.5 12C23.5 5.64873 18.3513 0.5 12 0.5C5.64873 0.5 0.5 5.64873 0.5 12C0.5 18.3513 5.64873 23.5 12 23.5Z" fill="white"/>
<path fill-rule="evenodd" clip-rule="evenodd" d="M12 0C13.4024 0 14.7486 0.240575 15.9997 0.682708V23.3173C14.7486 23.7594 13.4024 24 12 24C10.5968 24 9.24991 23.7592 7.99832 23.3166L7.99832 0.683415C9.24991 0.240832 10.5968 0 12 0Z" fill="white"/>
<path fill-rule="evenodd" clip-rule="evenodd" d="M16.0007 23.317L16.0007 0.683105C20.6611 2.33064 24 6.77542 24 12C24 17.2247 20.6611 21.6694 16.0007 23.317L16.0007 0.683105L16.0007 23.317Z" fill="#2FA6F8"/>
<path fill-rule="evenodd" clip-rule="evenodd" d="M7.99908 0.683105V23.3168C3.33879 21.6692 0 17.2245 0 12C0 6.88205 3.20391 2.51245 7.71543 0.787457L7.99908 0.683105V0.683105Z" fill="#2FA6F8"/>
<path fill-rule="evenodd" clip-rule="evenodd" d="M8.58334 11.3332C8.58334 12.5351 9.22536 13.6259 10.2457 14.2179C10.5642 14.4027 10.9721 14.2944 11.1569 13.9759C11.3417 13.6574 11.2333 13.2495 10.9149 13.0647C10.3016 12.7088 9.91667 12.0549 9.91667 11.3332C9.91667 10.965 9.61819 10.6665 9.25 10.6665C8.88181 10.6665 8.58334 10.965 8.58334 11.3332Z" fill="#13CE66"/>
<path fill-rule="evenodd" clip-rule="evenodd" d="M13.7107 14.1429C14.6618 13.5347 15.25 12.4838 15.25 11.3332C15.25 10.965 14.9515 10.6665 14.5833 10.6665C14.2151 10.6665 13.9167 10.965 13.9167 11.3332C13.9167 12.0242 13.5642 12.6539 12.9923 13.0197C12.6821 13.2181 12.5915 13.6303 12.7899 13.9405C12.9883 14.2507 13.4005 14.3413 13.7107 14.1429Z" fill="#13CE66"/>
<path fill-rule="evenodd" clip-rule="evenodd" d="M11.9167 12.6667C12.653 12.6667 13.25 12.0697 13.25 11.3333C13.25 10.597 12.653 10 11.9167 10C11.1803 10 10.5833 10.597 10.5833 11.3333C10.5833 12.0697 11.1803 12.6667 11.9167 12.6667Z" fill="#FFCA68"/>
<path d="M12 23.75C5.51065 23.75 0.25 18.4893 0.25 12C0.25 5.51065 5.51065 0.25 12 0.25C18.4893 0.25 23.75 5.51065 23.75 12C23.75 18.4893 18.4893 23.75 12 23.75Z" stroke="black" stroke-opacity="0.095389" stroke-width="0.5"/>
</svg>
