<svg width="66" height="66" viewBox="0 0 66 66" fill="none" xmlns="http://www.w3.org/2000/svg">
<path fill-rule="evenodd" clip-rule="evenodd" d="M51.4909 11.5078C53.1477 11.5078 54.4909 12.851 54.4909 14.5078V35.0339C54.4909 35.8296 54.1748 36.5926 53.6122 37.1552L26.8899 63.8777C25.7183 65.0493 23.8188 65.0493 22.6473 63.8777L2.1213 43.3516C0.949736 42.18 0.949736 40.2806 2.1213 39.109L28.8436 12.3865C29.4062 11.8239 30.1693 11.5078 30.9649 11.5078H51.4909ZM44.5834 21.4153C45.9514 22.7832 48.1692 22.7832 49.5372 21.4153C50.9051 20.0474 50.9051 17.8295 49.5372 16.4616C48.1692 15.0936 45.9514 15.0936 44.5834 16.4616C43.2155 17.8295 43.2155 20.0474 44.5834 21.4153Z" fill="#4083FF"/>
<path d="M46.0988 17.8332C49.5915 22.4683 56.1803 23.3943 60.8153 19.9015C65.4503 16.4088 66.3763 9.81994 62.8836 5.18492C59.3909 0.549899 52.8021 -0.376104 48.1671 3.11664C45.8443 4.86695 44.453 7.39481 44.0825 10.0647" stroke="#2A2A4B" stroke-width="1.5" stroke-linecap="round"/>
<path d="M28.9162 38.0023C27.0668 34.8539 26.9347 33.3788 27.9805 32.333C29.1804 31.1331 31.1289 31.4083 32.9893 33.2687C34.9488 35.2282 34.7396 36.8905 33.4296 38.3325L35.8624 40.7654C37.6788 38.7949 38.2622 35.8997 36.5229 33.0375L38.9337 30.6267L35.6313 27.3242L33.2535 29.702C30.6555 28.0288 27.5512 27.6985 25.4266 29.8231C22.8837 32.366 23.7203 35.7346 26.0541 39.5435C28.1457 42.956 27.7273 44.4752 26.7036 45.499C25.944 46.2585 24.1937 46.9301 21.7609 44.4972C19.4932 42.2295 19.6143 40.3251 20.7921 38.905L18.3703 36.4831C16.0916 39.0261 16.543 42.1855 18.2052 44.7504L15.8164 47.1392L19.1189 50.4417L21.4857 48.0749C24.0396 49.8142 26.9898 50.2766 29.2465 48.0199C32.3728 44.8935 30.7656 41.1507 28.9162 38.0023Z" fill="#97E4D6"/>
</svg>
