<svg width="24" height="24" viewBox="0 0 24 24" fill="none" xmlns="http://www.w3.org/2000/svg">
<path fill-rule="evenodd" clip-rule="evenodd" d="M12 23.5C18.3513 23.5 23.5 18.3513 23.5 12C23.5 5.64873 18.3513 0.5 12 0.5C5.64873 0.5 0.5 5.64873 0.5 12C0.5 18.3513 5.64873 23.5 12 23.5Z" fill="#0C69DA"/>
<path fill-rule="evenodd" clip-rule="evenodd" d="M1.60551 18H22.3945C20.3196 21.5867 16.4416 23.9998 12 23.9998C7.5584 23.9998 3.6804 21.5867 1.60551 18H22.3945H1.60551Z" fill="#F65260"/>
<path fill-rule="evenodd" clip-rule="evenodd" d="M12 0C18.5611 0 23.8924 5.26567 23.9984 11.8016L24 12H0C0 5.37258 5.37258 0 12 0Z" fill="#FFCA68"/>
<path fill-rule="evenodd" clip-rule="evenodd" d="M0 12H24C24 14.1297 23.4452 16.1299 22.4722 17.8638L22.3945 18.0002H1.60551L1.71075 18.1786L1.86548 18.4287L2.02612 18.6747C0.790678 16.8324 0.0521204 14.6284 0.00265434 12.2549L0 12H24H0Z" fill="#0C69DA"/>
<path d="M0.25 12C0.25 5.51065 5.51065 0.25 12 0.25C18.4893 0.25 23.75 5.51065 23.75 12C23.75 18.4893 18.4893 23.75 12 23.75C5.51065 23.75 0.25 18.4893 0.25 12Z" stroke="black" stroke-opacity="0.095389" stroke-width="0.5"/>
</svg>
