<svg width="24" height="24" viewBox="0 0 24 24" fill="none" xmlns="http://www.w3.org/2000/svg">
<path fill-rule="evenodd" clip-rule="evenodd" d="M12 24C18.6274 24 24 18.6274 24 12C24 5.37258 18.6274 0 12 0C5.37258 0 0 5.37258 0 12C0 18.6274 5.37258 24 12 24Z" fill="#F65260"/>
<path fill-rule="evenodd" clip-rule="evenodd" d="M12 12.446L21.6703 19.1062L21.4922 19.3419C19.7918 21.5369 17.3472 23.126 14.5369 23.7308L14.3301 23.7735L12 13.7852L9.66944 23.7734L9.46812 23.7319C6.22638 23.0357 3.47079 21.0299 1.78226 18.2954L1.5635 17.9265C1.74957 18.2535 1.95066 18.571 2.16576 18.8779L2.32971 19.1062L12 12.446ZM23.9099 10.5218L23.9413 10.8055L12.0005 11.9995L23.9413 13.194L23.9224 13.3714C23.7715 14.6978 23.4043 15.9585 22.857 17.1175L22.7354 17.3674L12.0005 11.9995L22.7356 6.63213C23.3349 7.82837 23.7401 9.13868 23.9099 10.5218ZM0.0904073 13.4799L0.058707 13.194L11.9985 11.9995L0.058707 10.805C0.0498195 10.8949 0.0419249 10.9852 0.0350342 11.0757C0.147585 9.59717 0.52811 8.19348 1.12815 6.91315L1.2646 6.63163L11.9995 11.999L1.26435 17.3669C0.665494 16.1714 0.260445 14.862 0.0904073 13.4799ZM22.0587 5.45303L22.1463 5.58937C22.0458 5.43073 21.9418 5.2746 21.8342 5.12111L21.6703 4.89287L12.0001 11.553L2.33008 4.89237L2.4336 4.75384C4.13618 2.50936 6.6107 0.882434 9.46176 0.268478L9.66944 0.225685L12 10.2138L14.3301 0.225586L14.5221 0.265021C17.6682 0.937932 20.3572 2.84408 22.0587 5.45303Z" fill="#F65260"/>
<path fill-rule="evenodd" clip-rule="evenodd" d="M12 13.7857L14.3301 23.7739C13.5763 23.9223 12.7972 24 12 24C11.2026 24 10.4233 23.9222 9.66944 23.7738L12 13.7857ZM11.9995 11.9995L1.2646 6.63211C1.57091 6.02072 1.9279 5.43912 2.33008 4.89284L12.0001 11.5534L21.6703 4.89335C22.0724 5.43963 22.4294 6.02122 22.7356 6.63261L12.0005 12L22.7354 17.3679C22.4292 17.9791 22.0723 18.5605 21.6703 19.1067L12 12.4465L2.32971 19.1067C1.92757 18.5604 1.57062 17.9788 1.26435 17.3674L11.9995 11.9995ZM0.0587075 10.8055L11.9985 12L0.0587075 13.1945C0.0198781 12.8016 0 12.4031 0 12C0 11.5969 0.0198781 11.1984 0.0587075 10.8055ZM24 12C24 12.4031 23.9801 12.8016 23.9413 13.1945L12.0005 12L23.9413 10.806C23.9801 11.1987 24 11.597 24 12ZM12 0C12.7972 0 13.5763 0.0777439 14.3301 0.226064L12 10.2143L9.66944 0.226163C10.4233 0.0777784 11.2026 0 12 0Z" fill="#FFCA68"/>
<path fill-rule="evenodd" clip-rule="evenodd" d="M16.3343 12.0003C16.3343 9.60668 14.3938 7.66602 12 7.66602C9.60615 7.66602 7.66565 9.60668 7.66565 12.0003C7.66565 14.394 9.60615 16.3347 12 16.3347C14.3938 16.3347 16.3343 14.394 16.3343 12.0003Z" fill="#F65260"/>
<path fill-rule="evenodd" clip-rule="evenodd" d="M15.6189 11.9997C15.6189 10.001 13.9986 8.38086 12.0001 8.38086C10.0014 8.38086 8.38107 10.001 8.38107 11.9997C8.38107 13.9984 10.0014 15.6185 12.0001 15.6185C13.9986 15.6185 15.6189 13.9984 15.6189 11.9997Z" fill="#FFCA68"/>
<path d="M0.25 12C0.25 5.51065 5.51065 0.25 12 0.25C18.4893 0.25 23.75 5.51065 23.75 12C23.75 18.4893 18.4893 23.75 12 23.75C5.51065 23.75 0.25 18.4893 0.25 12Z" stroke="black" stroke-opacity="0.095389" stroke-width="0.5"/>
</svg>
