<svg width="24" height="24" viewBox="0 0 24 24" fill="none" xmlns="http://www.w3.org/2000/svg">
<path fill-rule="evenodd" clip-rule="evenodd" d="M12 23.5C18.3513 23.5 23.5 18.3513 23.5 12C23.5 5.64873 18.3513 0.5 12 0.5C5.64873 0.5 0.5 5.64873 0.5 12C0.5 18.3513 5.64873 23.5 12 23.5Z" fill="#FFCA68"/>
<path fill-rule="evenodd" clip-rule="evenodd" d="M22.9114 6.99902C23.6103 8.52144 24 10.2153 24 12.0002C24 13.7851 23.6103 15.479 22.9114 17.0014H1.08863C0.389689 15.479 0 13.7851 0 12.0002C0 10.2153 0.389689 8.52144 1.08863 6.99902L22.9114 6.99902Z" fill="#FFCA68"/>
<path fill-rule="evenodd" clip-rule="evenodd" d="M1.0884 17.0005H22.9116C21.0154 21.1312 16.8427 23.9998 12 23.9998C7.15728 23.9998 2.98456 21.1312 1.0884 17.0005H22.9116H1.0884Z" fill="#F65260"/>
<path fill-rule="evenodd" clip-rule="evenodd" d="M3.30026 9H8.32936C8.64748 9 8.91084 9.23444 8.95609 9.53997L8.96296 9.6336V14.3664C8.96296 14.6845 8.72852 14.9479 8.42299 14.9931L8.32936 15H3.30026C2.98215 15 2.71879 14.7656 2.67353 14.46L2.66666 14.3664V9.6336C2.66666 9.31548 2.9011 9.05212 3.20664 9.00687L3.30026 9H8.32936H3.30026ZM3.92592 10.2V13.8H5.18518V10.2H3.92592ZM6.44444 13.8H7.7037V10.2H6.44444V13.8Z" fill="#F65260"/>
<path fill-rule="evenodd" clip-rule="evenodd" d="M8.44444 11.3999V12.5999H5.44444V11.3999H8.44444Z" fill="#F65260"/>
<path fill-rule="evenodd" clip-rule="evenodd" d="M5.18519 9.3999V11.3999H3.92593V9.3999H5.18519Z" fill="#F65260"/>
<path fill-rule="evenodd" clip-rule="evenodd" d="M12 0C16.8429 0 21.0158 2.86885 22.9118 6.99982H1.08817C2.98422 2.86885 7.15708 0 12 0Z" fill="#F65260"/>
<path d="M0.25 12C0.25 5.51065 5.51065 0.25 12 0.25C18.4893 0.25 23.75 5.51065 23.75 12C23.75 18.4893 18.4893 23.75 12 23.75C5.51065 23.75 0.25 18.4893 0.25 12Z" stroke="black" stroke-opacity="0.095389" stroke-width="0.5"/>
</svg>
