<svg width="24" height="24" viewBox="0 0 24 24" fill="none" xmlns="http://www.w3.org/2000/svg">
<path fill-rule="evenodd" clip-rule="evenodd" d="M12 23.5C18.3513 23.5 23.5 18.3513 23.5 12C23.5 5.64873 18.3513 0.5 12 0.5C5.64873 0.5 0.5 5.64873 0.5 12C0.5 18.3513 5.64873 23.5 12 23.5Z" fill="#FFCA68"/>
<path fill-rule="evenodd" clip-rule="evenodd" d="M12 0C13.4952 0 14.9265 0.273447 16.2466 0.77306L16.0007 0.683061V23.3169L16.2466 23.2269C14.9265 23.7266 13.4952 24 12 24C10.5048 24 9.07354 23.7266 7.75339 23.2269L7.99909 23.3169V0.683147L7.75339 0.77306C9.07354 0.273447 10.5048 0 12 0Z" fill="#FFCA68"/>
<path fill-rule="evenodd" clip-rule="evenodd" d="M16.0007 23.317L16.0007 0.683105C20.6611 2.33064 24 6.77542 24 12C24 17.2247 20.6611 21.6694 16.0007 23.317L16.0007 0.683105L16.0007 23.317Z" fill="#F65260"/>
<path fill-rule="evenodd" clip-rule="evenodd" d="M7.99908 0.683105V23.3168C3.33879 21.6692 0 17.2245 0 12C0 6.88205 3.20391 2.51245 7.71543 0.787457L7.99908 0.683105V0.683105Z" fill="#0C69DA"/>
<path fill-rule="evenodd" clip-rule="evenodd" d="M10.6139 10.6665H11.9472V11.3332H10.6139V10.6665Z" fill="#FFEBC7"/>
<path fill-rule="evenodd" clip-rule="evenodd" d="M13.2867 10C13.6515 10 13.9233 10.2877 13.8922 10.6605L13.7249 12.6681C13.6636 13.4037 13.018 14 12.2773 14H11.6172C10.879 14 10.2314 13.4098 10.1696 12.6681L10.0023 10.6605C9.97189 10.2957 10.2479 10 10.6078 10H13.2867ZM10.6718 10.6667L10.8339 12.6127C10.8668 13.0064 11.2232 13.3333 11.6172 13.3333H12.2773C12.6702 13.3333 13.028 13.0038 13.0605 12.6127L13.2227 10.6667H10.6718Z" fill="#830A2A"/>
<path fill-rule="evenodd" clip-rule="evenodd" d="M10.6139 11.3335H13.2806V12.0002H12.6139H11.2806H10.6139V11.3335Z" fill="#830A2A"/>
<path d="M12 23.75C5.51065 23.75 0.25 18.4893 0.25 12C0.25 5.51065 5.51065 0.25 12 0.25C18.4893 0.25 23.75 5.51065 23.75 12C23.75 18.4893 18.4893 23.75 12 23.75Z" stroke="black" stroke-opacity="0.095389" stroke-width="0.5"/>
</svg>
