<svg width="24" height="24" viewBox="0 0 24 24" fill="none" xmlns="http://www.w3.org/2000/svg">
<path fill-rule="evenodd" clip-rule="evenodd" d="M12 23.5C18.3513 23.5 23.5 18.3513 23.5 12C23.5 5.64873 18.3513 0.5 12 0.5C5.64873 0.5 0.5 5.64873 0.5 12C0.5 18.3513 5.64873 23.5 12 23.5Z" fill="white"/>
<path fill-rule="evenodd" clip-rule="evenodd" d="M7.00024 1.08789V22.9119C2.86905 21.016 0 16.843 0 11.9999C0 7.22912 2.78405 3.10857 6.81611 1.1743L7.00024 1.08789Z" fill="white"/>
<path fill-rule="evenodd" clip-rule="evenodd" d="M12 0C18.6274 0 24 5.37258 24 12C24 18.6274 18.6274 24 12 24C10.2155 24 8.52192 23.6105 6.99974 22.9118L7 1.09135L7.00412 1.08692C8.52525 0.388766 10.2172 0 12 0Z" fill="#227415"/>
<path fill-rule="evenodd" clip-rule="evenodd" d="M20.1771 12.6127C20.0685 13.6709 19.6174 14.6877 18.8202 15.485C16.9198 17.3853 13.772 17.3186 11.7894 15.3359C9.8067 13.3533 9.73997 10.2055 11.6403 8.30513C12.4376 7.50787 13.4544 7.05683 14.5127 6.94824C14.1793 7.14468 13.8638 7.38708 13.5758 7.67513C11.8482 9.40272 11.7627 12.1182 13.3849 13.7404C15.0071 15.3626 17.7226 15.2771 19.4502 13.5496C19.6902 13.3095 19.8986 13.0504 20.075 12.7778L20.1771 12.6127ZM17.9959 10.3739L17.7267 11.9802L16.9742 10.5357L15.3632 10.776L16.5045 9.61395L15.7782 8.15609L17.236 8.88245L18.3981 7.74114L18.1578 9.3521L19.6023 10.1046L17.9959 10.3739Z" fill="white"/>
<path d="M0.25 12C0.25 5.51065 5.51065 0.25 12 0.25C18.4893 0.25 23.75 5.51065 23.75 12C23.75 18.4893 18.4893 23.75 12 23.75C5.51065 23.75 0.25 18.4893 0.25 12Z" stroke="black" stroke-opacity="0.095389" stroke-width="0.5"/>
</svg>
