<svg width="24" height="24" viewBox="0 0 24 24" fill="none" xmlns="http://www.w3.org/2000/svg">
<path fill-rule="evenodd" clip-rule="evenodd" d="M12 23.5C18.3513 23.5 23.5 18.3513 23.5 12C23.5 5.64873 18.3513 0.5 12 0.5C5.64873 0.5 0.5 5.64873 0.5 12C0.5 18.3513 5.64873 23.5 12 23.5Z" fill="#0C69DA"/>
<path fill-rule="evenodd" clip-rule="evenodd" d="M20.4692 3.49869C22.6502 5.67151 24 8.67813 24 12C24 15.3221 22.6501 18.3289 20.4688 20.5017H3.53119C1.34994 18.3289 0 15.3221 0 12C0 8.67813 1.34977 5.67151 3.53077 3.49869L20.4692 3.49869Z" fill="#0C69DA"/>
<path fill-rule="evenodd" clip-rule="evenodd" d="M12 0C15.3058 0 18.2995 1.33678 20.4698 3.49927L3.52976 3.4997C5.70014 1.33695 8.69393 0 12 0Z" fill="#F65260"/>
<path fill-rule="evenodd" clip-rule="evenodd" d="M12 24C8.69445 24 5.70106 22.6635 3.53077 20.5013L20.4692 20.5013C18.2989 22.6635 15.3056 24 12 24Z" fill="#F65260"/>
<path fill-rule="evenodd" clip-rule="evenodd" d="M12 18.5C15.5899 18.5 18.5 15.5899 18.5 12C18.5 8.41015 15.5899 5.5 12 5.5C8.41015 5.5 5.5 8.41015 5.5 12C5.5 15.5899 8.41015 18.5 12 18.5Z" fill="white"/>
<path fill-rule="evenodd" clip-rule="evenodd" d="M12 6.5C15.0376 6.5 17.5 8.96243 17.5 12C17.5 15.0376 15.0376 17.5 12 17.5C8.96243 17.5 6.5 15.0376 6.5 12C6.5 8.96243 8.96243 6.5 12 6.5ZM12 7.5C9.51472 7.5 7.5 9.51472 7.5 12C7.5 14.4853 9.51472 16.5 12 16.5C14.4853 16.5 16.5 14.4853 16.5 12C16.5 9.51472 14.4853 7.5 12 7.5Z" fill="#13CE66"/>
<path fill-rule="evenodd" clip-rule="evenodd" d="M9.62275 9.90328C9.62748 9.79764 9.71473 9.71555 9.82048 9.71555H14.1272C14.2338 9.71555 14.3215 9.79863 14.3251 9.90521C14.3422 10.4061 14.3712 11.7837 14.2116 12.6317C13.9099 14.2351 12.1395 15.1844 12 15.1844C11.8606 15.1844 10.0846 14.225 9.73373 12.6317C9.55667 11.8275 9.59998 10.4111 9.62275 9.90328Z" fill="#C2E5FD"/>
<path fill-rule="evenodd" clip-rule="evenodd" d="M9.76416 9.71555L14.167 9.71555C14.167 9.71555 14.3006 9.7543 14.3228 9.88005C14.3467 10.4553 14.3467 10.8776 14.3467 11.1838C14.3228 11.9055 14.2699 12.25 14.2699 12.25H9.6688C9.6688 12.25 9.59147 11.802 9.59147 11.1532C9.58254 10.8602 9.59147 10.4424 9.62223 9.88005C9.62223 9.7903 9.76416 9.71555 9.76416 9.71555Z" fill="#FFCA68"/>
<path d="M12 23.75C5.51065 23.75 0.25 18.4893 0.25 12C0.25 5.51065 5.51065 0.25 12 0.25C18.4893 0.25 23.75 5.51065 23.75 12C23.75 18.4893 18.4893 23.75 12 23.75Z" stroke="black" stroke-opacity="0.095389" stroke-width="0.5"/>
</svg>
