<svg width="66" height="65" viewBox="0 0 66 65" fill="none" xmlns="http://www.w3.org/2000/svg">
<g clip-path="url(#clip0)">
<path d="M0.5 6.0625C0.5 4.95793 1.39543 4.0625 2.5 4.0625H59.4375C60.5421 4.0625 61.4375 4.95793 61.4375 6.0625V50.8125C61.4375 51.9171 60.5421 52.8125 59.4375 52.8125H2.5C1.39543 52.8125 0.5 51.9171 0.5 50.8125V6.0625Z" fill="#FF8383"/>
<path d="M0.5 6.0625C0.5 4.95793 1.39543 4.0625 2.5 4.0625H59.4375C60.5421 4.0625 61.4375 4.95793 61.4375 6.0625V14.2188H0.5V6.0625Z" fill="#F34343"/>
<path d="M19.7969 11.1719C20.9187 11.1719 21.8281 10.2625 21.8281 9.14062C21.8281 8.0188 20.9187 7.10938 19.7969 7.10938C18.675 7.10938 17.7656 8.0188 17.7656 9.14062C17.7656 10.2625 18.675 11.1719 19.7969 11.1719Z" fill="#FFBABA"/>
<path d="M12.6875 11.1719C13.8093 11.1719 14.7188 10.2625 14.7188 9.14062C14.7188 8.0188 13.8093 7.10938 12.6875 7.10938C11.5657 7.10938 10.6562 8.0188 10.6562 9.14062C10.6562 10.2625 11.5657 11.1719 12.6875 11.1719Z" fill="#FFBABA"/>
<path d="M5.57812 11.1719C6.69995 11.1719 7.60938 10.2625 7.60938 9.14062C7.60938 8.0188 6.69995 7.10938 5.57812 7.10938C4.4563 7.10938 3.54688 8.0188 3.54688 9.14062C3.54688 10.2625 4.4563 11.1719 5.57812 11.1719Z" fill="#FFBABA"/>
<path d="M42.804 30.7136C43.5873 29.4603 45.4127 29.4603 46.196 30.7136L62.5875 56.94C63.4201 58.2721 62.4624 60 60.8915 60H28.1085C26.5376 60 25.5799 58.2721 26.4125 56.94L42.804 30.7136Z" fill="#F34343"/>
<circle cx="44.5" cy="55" r="2" fill="white"/>
<rect x="42.5" y="39" width="4" height="12" rx="2" fill="white"/>
</g>
<defs>
<clipPath id="clip0">
<rect width="65" height="65" fill="white" transform="translate(0.5)"/>
</clipPath>
</defs>
</svg>
