<svg width="24" height="24" viewBox="0 0 24 24" fill="none" xmlns="http://www.w3.org/2000/svg">
<path fill-rule="evenodd" clip-rule="evenodd" d="M12 23.5C18.3513 23.5 23.5 18.3513 23.5 12C23.5 5.64873 18.3513 0.5 12 0.5C5.64873 0.5 0.5 5.64873 0.5 12C0.5 18.3513 5.64873 23.5 12 23.5Z" fill="#0C69DA"/>
<path fill-rule="evenodd" clip-rule="evenodd" d="M0.683061 7.99902H23.3169C23.7593 9.25033 24 10.5969 24 11.9997C24 13.4026 23.7593 14.7492 23.3169 16.0006H0.683147C0.240734 14.7492 0 13.4026 0 11.9997C0 10.5969 0.240703 9.25033 0.683061 7.99902Z" fill="#0C69DA"/>
<path fill-rule="evenodd" clip-rule="evenodd" d="M0.68306 16.001L23.3169 16.001C21.6694 20.6614 17.2246 24.0003 12 24.0003C6.77537 24.0003 2.3306 20.6614 0.68306 16.001L23.3169 16.001L0.68306 16.001Z" fill="#F65260"/>
<path fill-rule="evenodd" clip-rule="evenodd" d="M12 0C17.2249 0 21.6699 3.33927 23.3172 8.00008H0.682793C2.33012 3.33927 6.77509 0 12 0Z" fill="#FFCA68"/>
<path fill-rule="evenodd" clip-rule="evenodd" d="M12.6429 10.6667C12.6429 10.2985 12.355 10 12 10C11.645 10 11.3571 10.2985 11.3571 10.6667C11.3571 11.0349 11.645 11.3333 12 11.3333C12.355 11.3333 12.6429 11.0349 12.6429 10.6667ZM10.0714 11.3333C10.0714 10.9651 9.78361 10.6667 9.42857 10.6667C9.07353 10.6667 8.78571 10.9651 8.78571 11.3333C8.78571 11.7015 9.07353 12 9.42857 12C9.78361 12 10.0714 11.7015 10.0714 11.3333ZM8.14286 12.6667C8.4979 12.6667 8.78571 12.9651 8.78571 13.3333C8.78571 13.7015 8.4979 14 8.14286 14C7.78782 14 7.5 13.7015 7.5 13.3333C7.5 12.9651 7.78782 12.6667 8.14286 12.6667ZM15.8571 12.6667C16.2122 12.6667 16.5 12.9651 16.5 13.3333C16.5 13.7015 16.2122 14 15.8571 14C15.5021 14 15.2143 13.7015 15.2143 13.3333C15.2143 12.9651 15.5021 12.6667 15.8571 12.6667ZM14.5714 10.6667C14.9265 10.6667 15.2143 10.9651 15.2143 11.3333C15.2143 11.7015 14.9265 12 14.5714 12C14.2164 12 13.9286 11.7015 13.9286 11.3333C13.9286 10.9651 14.2164 10.6667 14.5714 10.6667Z" fill="white"/>
<path d="M0.25 12C0.25 5.51065 5.51065 0.25 12 0.25C18.4893 0.25 23.75 5.51065 23.75 12C23.75 18.4893 18.4893 23.75 12 23.75C5.51065 23.75 0.25 18.4893 0.25 12Z" stroke="black" stroke-opacity="0.095389" stroke-width="0.5"/>
</svg>
