<svg width="24" height="24" viewBox="0 0 24 24" fill="none" xmlns="http://www.w3.org/2000/svg">
<path fill-rule="evenodd" clip-rule="evenodd" d="M12 23.5C18.3513 23.5 23.5 18.3513 23.5 12C23.5 5.64873 18.3513 0.5 12 0.5C5.64873 0.5 0.5 5.64873 0.5 12C0.5 18.3513 5.64873 23.5 12 23.5Z" fill="white"/>
<path fill-rule="evenodd" clip-rule="evenodd" d="M0.0005 12.0945L21.1365 19.7801C18.9355 22.3624 15.659 24 12 24C5.37258 24 0 18.6274 0 12L0.0005 12.0945Z" fill="#FFCA68"/>
<path fill-rule="evenodd" clip-rule="evenodd" d="M12 0C18.6274 0 24 5.37258 24 12C24 13.458 23.74 14.8553 23.2637 16.148L23.2111 16.2883L0.662538 8.07881L0.655327 8.07866C2.28026 3.37685 6.74577 0 12 0Z" fill="#FFCA68"/>
<path fill-rule="evenodd" clip-rule="evenodd" d="M2.49391 4.67578L23.9959 12.291L23.9936 12.3964C23.9491 13.7683 23.6743 15.0819 23.2067 16.3L22.9252 16.1842L0.650192 8.09493C1.06568 6.88608 1.6692 5.76457 2.42559 4.76518L2.49391 4.67578Z" fill="white"/>
<path fill-rule="evenodd" clip-rule="evenodd" d="M0.66254 8.0791L23.2096 16.2855C22.7205 17.5713 22.0143 18.7504 21.1373 19.7795L0.0005 12.0946L0 12.0003C0 10.6287 0.230116 9.31085 0.653847 8.08325L0.66254 8.0791Z" fill="black"/>
<path d="M0.25 12C0.25 5.51065 5.51065 0.25 12 0.25C18.4893 0.25 23.75 5.51065 23.75 12C23.75 18.4893 18.4893 23.75 12 23.75C5.51065 23.75 0.25 18.4893 0.25 12Z" stroke="black" stroke-opacity="0.095389" stroke-width="0.5"/>
</svg>
