<svg width="24" height="24" viewBox="0 0 24 24" fill="none" xmlns="http://www.w3.org/2000/svg">
<path fill-rule="evenodd" clip-rule="evenodd" d="M12 23.5C18.3513 23.5 23.5 18.3513 23.5 12C23.5 5.64873 18.3513 0.5 12 0.5C5.64873 0.5 0.5 5.64873 0.5 12C0.5 18.3513 5.64873 23.5 12 23.5Z" fill="white"/>
<path fill-rule="evenodd" clip-rule="evenodd" d="M24 12C24 13.0359 23.8687 14.0413 23.6219 15.0002H0.378115C0.131281 14.0413 0 13.0359 0 12C0 10.9641 0.131255 9.95885 0.378042 9L23.622 9C23.8687 9.95885 24 10.9641 24 12Z" fill="#0C69DA"/>
<path fill-rule="evenodd" clip-rule="evenodd" d="M12 24C7.15722 24 2.98445 21.1313 1.08833 17.0005H22.9117C21.0155 21.1313 16.8428 24 12 24Z" fill="#F65260"/>
<path fill-rule="evenodd" clip-rule="evenodd" d="M12 0C16.8426 0 21.0152 2.86847 22.9115 6.99899H1.08855C2.98478 2.86847 7.1574 0 12 0Z" fill="#F65260"/>
<path fill-rule="evenodd" clip-rule="evenodd" d="M0.378181 15.0005H23.6218C23.4435 15.6933 23.2048 16.3618 22.9118 17.0003H1.08821C0.795175 16.3618 0.556522 15.6933 0.378181 15.0005H23.6218H0.378181Z" fill="white"/>
<path fill-rule="evenodd" clip-rule="evenodd" d="M1.08821 6.99976L22.9118 6.99976C23.2049 7.63833 23.4436 8.30707 23.622 9.00003H0.378052C0.556407 8.30707 0.795103 7.63833 1.08821 6.99976L22.9118 6.99976L1.08821 6.99976Z" fill="white"/>
<path d="M0.25 12C0.25 5.51065 5.51065 0.25 12 0.25C18.4893 0.25 23.75 5.51065 23.75 12C23.75 18.4893 18.4893 23.75 12 23.75C5.51065 23.75 0.25 18.4893 0.25 12Z" stroke="black" stroke-opacity="0.095389" stroke-width="0.5"/>
</svg>
