<svg width="24" height="24" viewBox="0 0 24 24" fill="none" xmlns="http://www.w3.org/2000/svg">
<path fill-rule="evenodd" clip-rule="evenodd" d="M12 23.5C18.3513 23.5 23.5 18.3513 23.5 12C23.5 5.64873 18.3513 0.5 12 0.5C5.64873 0.5 0.5 5.64873 0.5 12C0.5 18.3513 5.64873 23.5 12 23.5Z" fill="white"/>
<path fill-rule="evenodd" clip-rule="evenodd" d="M24 12.0003C24 13.0364 23.8687 14.042 23.6217 15.001H0.378254C0.13133 14.042 0 13.0364 0 12.0003C0 10.9639 0.131373 9.95826 0.378373 8.99902L23.6216 8.99902C23.8686 9.95826 24 10.9639 24 12.0003Z" fill="#F65260"/>
<path fill-rule="evenodd" clip-rule="evenodd" d="M0.68306 16.001L23.3169 16.001C21.6694 20.6614 17.2246 24.0003 12 24.0003C6.77537 24.0003 2.3306 20.6614 0.68306 16.001L23.3169 16.001L0.68306 16.001Z" fill="#13CE66"/>
<path fill-rule="evenodd" clip-rule="evenodd" d="M12 0C17.2249 0 21.6699 3.33927 23.3172 8.00008H0.682793C2.33012 3.33927 6.77509 0 12 0Z" fill="black"/>
<path fill-rule="evenodd" clip-rule="evenodd" d="M0.680267 8H23.3178C23.3178 8 23.4254 8.27901 23.48 8.46033C23.5345 8.64164 23.6248 9 23.6248 9H0.380402C0.380402 9 0.431887 8.75063 0.489624 8.55809C0.547361 8.36555 0.680267 8 0.680267 8Z" fill="white"/>
<path fill-rule="evenodd" clip-rule="evenodd" d="M0.375748 15H23.6212C23.6212 15 23.5547 15.281 23.4994 15.4633C23.444 15.6456 23.3175 16 23.3175 16H0.68046C0.68046 16 0.552996 15.6412 0.494368 15.4419C0.435741 15.2425 0.375748 15 0.375748 15Z" fill="white"/>
<path fill-rule="evenodd" clip-rule="evenodd" d="M11.8333 18.5003C13.1667 18.5003 15.1667 15.8837 15.1667 11.8337C15.1667 7.78357 13.1667 5.16699 11.8333 5.16699C10.5 5.16699 8.5 7.78357 8.5 11.8337C8.5 15.8837 10.5 18.5003 11.8333 18.5003Z" fill="#F65260"/>
<path fill-rule="evenodd" clip-rule="evenodd" d="M9.27523 15.8965C8.8136 14.8158 8.5 13.4368 8.5 11.833C8.5 10.2293 8.8136 8.85028 9.27523 7.76953C9.62782 8.93269 9.83333 10.3301 9.83333 11.833C9.83333 13.336 9.62782 14.7334 9.27523 15.8965Z" fill="black"/>
<path fill-rule="evenodd" clip-rule="evenodd" d="M14.3914 7.76953C14.8531 8.85028 15.1667 10.2293 15.1667 11.833C15.1667 13.4368 14.8531 14.8158 14.3914 15.8965C14.0389 14.7334 13.8333 13.336 13.8333 11.833C13.8333 10.3301 14.0389 8.93269 14.3914 7.76953V7.76953Z" fill="black"/>
<path fill-rule="evenodd" clip-rule="evenodd" d="M11.8333 13.833C12.2015 13.833 12.5 12.9376 12.5 11.833C12.5 10.7284 12.2015 9.83301 11.8333 9.83301C11.4651 9.83301 11.1667 10.7284 11.1667 11.833C11.1667 12.9376 11.4651 13.833 11.8333 13.833Z" fill="white"/>
<path fill-rule="evenodd" clip-rule="evenodd" d="M11.8333 9.83333C12.2015 9.83333 12.5 8.63943 12.5 7.16667C12.5 5.69391 12.2015 4.5 11.8333 4.5C11.4651 4.5 11.1667 5.69391 11.1667 7.16667C11.1667 8.63943 11.4651 9.83333 11.8333 9.83333Z" fill="white"/>
<path fill-rule="evenodd" clip-rule="evenodd" d="M11.8333 19.1663C12.2015 19.1663 12.5 17.9724 12.5 16.4997C12.5 15.0269 12.2015 13.833 11.8333 13.833C11.4651 13.833 11.1667 15.0269 11.1667 16.4997C11.1667 17.9724 11.4651 19.1663 11.8333 19.1663Z" fill="white"/>
<path d="M0.25 12C0.25 5.51065 5.51065 0.25 12 0.25C18.4893 0.25 23.75 5.51065 23.75 12C23.75 18.4893 18.4893 23.75 12 23.75C5.51065 23.75 0.25 18.4893 0.25 12Z" stroke="black" stroke-opacity="0.095389" stroke-width="0.5"/>
</svg>
