<svg width="24" height="24" viewBox="0 0 24 24" fill="none" xmlns="http://www.w3.org/2000/svg">
<path fill-rule="evenodd" clip-rule="evenodd" d="M12 23.5C18.3513 23.5 23.5 18.3513 23.5 12C23.5 5.64873 18.3513 0.5 12 0.5C5.64873 0.5 0.5 5.64873 0.5 12C0.5 18.3513 5.64873 23.5 12 23.5Z" fill="#0C69DA"/>
<path fill-rule="evenodd" clip-rule="evenodd" d="M1.21 13.1667H9.90765C10.5759 13.1667 11.1176 12.6249 11.1176 11.9567V6.21C11.1176 5.54174 10.5759 5 9.90765 5L2.25197 5.00017C4.43032 1.97194 7.98488 0 12 0C18.6274 0 24 5.37258 24 12C24 18.6274 18.6274 24 12 24C5.47454 24 0.165607 18.7915 0.00379986 12.305L0 11.9567C0 12.6249 0.541735 13.1667 1.21 13.1667Z" fill="#0C69DA"/>
<path fill-rule="evenodd" clip-rule="evenodd" d="M17.7353 15V16.1667H16.5V15H17.7353ZM20.7353 11V12.1667H19.5V11H20.7353ZM14.7353 11V12.1667H13.5V11H14.7353ZM17.7353 7V8.16667H16.5V7H17.7353Z" fill="#F65260"/>
<path fill-rule="evenodd" clip-rule="evenodd" d="M2.25287 4.99902L9.90765 5.0001C10.5341 5.0001 11.0494 5.47624 11.1114 6.08639L11.1176 6.2101V11.9568C11.1176 12.5833 10.6415 13.0986 10.0314 13.1605L9.90765 13.1668H1.21C0.583502 13.1668 0.0682112 12.6906 0.00624709 12.0805L0 11.9568L0.00379986 11.6951C0.0660605 9.19924 0.890393 6.89257 2.25287 4.99902L9.90765 5.0001L2.25287 4.99902Z" fill="white"/>
<path fill-rule="evenodd" clip-rule="evenodd" d="M6.04118 6.16661V8.49994H9.74706V9.66661H6.04118V11.9999H4.80588V9.66661H1.1V8.49994H4.80588V6.16661H6.04118ZM9.74706 10.8333V11.9999H7.89412V10.8333H9.74706ZM2.95294 10.8333V11.9999H1.1V10.8333H2.95294ZM9.74706 6.16661V7.33327H7.89412V6.16661H9.74706ZM2.95294 6.16661V7.33327H1.1L1.09875 6.97678C1.22617 6.7007 1.36378 6.43029 1.51108 6.16602L2.95294 6.16661Z" fill="#F65260"/>
<path d="M0.25 12C0.25 5.51065 5.51065 0.25 12 0.25C18.4893 0.25 23.75 5.51065 23.75 12C23.75 18.4893 18.4893 23.75 12 23.75C5.51065 23.75 0.25 18.4893 0.25 12Z" stroke="black" stroke-opacity="0.095389" stroke-width="0.5"/>
</svg>
