<svg width="24" height="24" viewBox="0 0 24 24" fill="none" xmlns="http://www.w3.org/2000/svg">
<path fill-rule="evenodd" clip-rule="evenodd" d="M12 23.5C18.3513 23.5 23.5 18.3513 23.5 12C23.5 5.64873 18.3513 0.5 12 0.5C5.64873 0.5 0.5 5.64873 0.5 12C0.5 18.3513 5.64873 23.5 12 23.5Z" fill="white"/>
<path fill-rule="evenodd" clip-rule="evenodd" d="M12 0C18.6274 0 24 5.37258 24 12C24 15.8936 22.1456 19.3541 19.2719 21.5465L18.1465 20.6093L9.6275 13.4534L19.0104 13.4536C19.0964 13.4536 19.1886 13.4047 19.2222 13.2701C19.2418 13.1894 19.1902 13.1029 19.0674 13.0105L19.0104 12.9706L17.862 12.2329L4.31461 3.09539L4.1148 2.95413L4.19053 2.88861C6.28943 1.08795 9.01766 0 12 0Z" fill="white"/>
<path fill-rule="evenodd" clip-rule="evenodd" d="M4.1148 2.9541L4.31461 3.09536L17.862 12.2329L19.0104 12.9705C19.174 13.0781 19.2446 13.1779 19.2222 13.2701C19.1886 13.4047 19.0964 13.4536 19.0104 13.4536L9.6275 13.4534L18.1465 20.6093L18.15 20.6067L19.2724 21.5461L19.2351 21.5744C17.2235 23.0968 14.7172 24 12 24C5.37258 24 0 18.6274 0 12C0 8.39089 1.59326 5.15394 4.1148 2.9541Z" fill="#073579"/>
<path fill-rule="evenodd" clip-rule="evenodd" d="M4.51111 4.7356C2.64879 6.63038 1.5 9.22873 1.5 12.0954C1.5 17.8944 6.20101 22.5954 12 22.5954C13.7463 22.5954 15.393 22.1691 16.8418 21.4149L7.65998 13.4332L7.49099 13.2729C7.23904 13.0279 7.05515 12.7959 7.17933 12.4898C7.22937 12.4395 7.28167 12.2036 7.70521 12.2036L15.583 12.2034L4.51111 4.7356Z" fill="#F65260"/>
<path fill-rule="evenodd" clip-rule="evenodd" d="M6.89422 13.8815L6.82086 15.3264L8.25723 15.2526L7.18969 16.222L8.25723 17.1915L6.82086 17.1177L6.89422 18.5625L5.93043 17.4887L4.96663 18.5625L5.04 17.1177L3.60362 17.1915L4.67117 16.222L3.60362 15.2526L5.04 15.3264L4.96663 13.8815L5.93043 14.9554L6.89422 13.8815ZM6.65327 7.5L6.59825 8.58362L7.67553 8.52827L6.87487 9.25537L7.36439 9.69929C7.72703 9.59928 8.06135 9.46253 8.35705 9.29594C8.0636 10.3679 7.08746 11.1554 5.92846 11.1554C4.76947 11.1554 3.79332 10.3679 3.5 9.29583C3.79663 9.46308 4.13188 9.60007 4.49555 9.70012L4.98598 9.25537L4.18532 8.52827L5.2626 8.58362L5.20758 7.5L5.93043 8.30537L6.65327 7.5Z" fill="white"/>
<path d="M0.25 12C0.25 5.51065 5.51065 0.25 12 0.25C18.4893 0.25 23.75 5.51065 23.75 12C23.75 18.4893 18.4893 23.75 12 23.75C5.51065 23.75 0.25 18.4893 0.25 12Z" stroke="black" stroke-opacity="0.095389" stroke-width="0.5"/>
</svg>
