<svg width="24" height="24" viewBox="0 0 24 24" fill="none" xmlns="http://www.w3.org/2000/svg">
<path fill-rule="evenodd" clip-rule="evenodd" d="M12 23.5C18.3513 23.5 23.5 18.3513 23.5 12C23.5 5.64873 18.3513 0.5 12 0.5C5.64873 0.5 0.5 5.64873 0.5 12C0.5 18.3513 5.64873 23.5 12 23.5Z" fill="#0C69DA"/>
<path fill-rule="evenodd" clip-rule="evenodd" d="M0 12H24C24 14.1866 23.4152 16.2366 22.3934 18.0021H1.60658C0.64868 16.3469 0.0748093 14.4417 0.00681726 12.4083L0 12H24H0Z" fill="#0C69DA"/>
<path fill-rule="evenodd" clip-rule="evenodd" d="M1.60593 18.001H22.3941C20.3191 21.5873 16.4413 24 12 24C7.5587 24 3.68092 21.5873 1.60593 18.001H22.3941H1.60593Z" fill="#F65260"/>
<path fill-rule="evenodd" clip-rule="evenodd" d="M12 0C18.5255 0 23.8344 5.20854 23.9962 11.695L24 12H0C0 5.37258 5.37258 0 12 0Z" fill="#FFCA68"/>
<path fill-rule="evenodd" clip-rule="evenodd" d="M10.2333 10.667L11.1667 13.4671H12.5L13.4334 10.667C14.0811 11.1535 14.5 11.9281 14.5 12.8005C14.5 14.2732 13.3061 15.4671 11.8333 15.4671C10.3606 15.4671 9.16666 14.2732 9.16666 12.8005C9.16666 11.9281 9.5856 11.1535 10.2333 10.667Z" fill="#FFCA68"/>
<path fill-rule="evenodd" clip-rule="evenodd" d="M11.8333 10L12.5 13.3333H11.1667L11.8333 10Z" fill="#2FA6F8"/>
<path fill-rule="evenodd" clip-rule="evenodd" d="M10.7357 7.76463C10.6464 7.67535 10.5144 7.64418 10.3946 7.68411L8.39459 8.35077C8.21995 8.40899 8.12556 8.59776 8.18378 8.77241C8.24199 8.94706 8.43077 9.04145 8.60541 8.98323L10.41 8.38171L11.5976 9.56937C11.7278 9.69954 11.9389 9.69954 12.069 9.56937L13.2567 8.38171L15.0613 8.98323C15.2359 9.04145 15.4247 8.94706 15.4829 8.77241C15.5411 8.59776 15.4467 8.40899 15.2721 8.35077L13.2721 7.68411C13.1523 7.64418 13.0202 7.67535 12.931 7.76463L11.8333 8.86226L10.7357 7.76463Z" fill="#4F555F"/>
<path d="M0.25 12C0.25 5.51065 5.51065 0.25 12 0.25C18.4893 0.25 23.75 5.51065 23.75 12C23.75 18.4893 18.4893 23.75 12 23.75C5.51065 23.75 0.25 18.4893 0.25 12Z" stroke="black" stroke-opacity="0.095389" stroke-width="0.5"/>
</svg>
