<svg width="102" height="102" viewBox="0 0 102 102" fill="none" xmlns="http://www.w3.org/2000/svg">
<path fill-rule="evenodd" clip-rule="evenodd" d="M102 51C102 79.1666 79.1666 102 51 102C22.8334 102 0 79.1666 0 51C0 22.8334 22.8334 0 51 0C79.1666 0 102 22.8334 102 51Z" fill="#005AFF"/>
<path fill-rule="evenodd" clip-rule="evenodd" d="M25.8639 26.7031C22.6426 27.3679 20.2882 30.209 20.1977 33.5873C19.8636 46.0319 21.9622 75.8213 46.4414 84.4809C48.0302 85.043 49.6991 85.3311 51.3788 85.3311C53.0587 85.3311 54.7273 85.043 56.3162 84.4809C80.7956 75.8213 82.8942 46.0319 82.5601 33.5873C82.4693 30.209 80.1153 27.3679 76.8936 26.7031C66.5125 24.5611 58.507 19.8235 55.203 17.6271C54.0632 16.8693 52.736 16.0857 51.3788 16.0857C50.0218 16.0857 48.6947 16.8693 47.5548 17.6271C44.2506 19.8235 36.2453 24.5611 25.8639 26.7031Z" fill="white"/>
<path fill-rule="evenodd" clip-rule="evenodd" d="M66.9204 47.4827C66.9204 49.3228 65.4496 50.8142 63.6349 50.8142C61.8207 50.8142 60.3496 49.3228 60.3496 47.4827C60.3496 45.6429 61.8207 44.1512 63.6349 44.1512C65.4496 44.1512 66.9204 45.6429 66.9204 47.4827Z" fill="#2A2A4B"/>
<path fill-rule="evenodd" clip-rule="evenodd" d="M65.8199 46.694C65.8199 47.1504 65.4507 47.5203 64.9949 47.5203C64.5394 47.5203 64.1699 47.1504 64.1699 46.694C64.1699 46.2373 64.5394 45.8674 64.9949 45.8674C65.4507 45.8674 65.8199 46.2373 65.8199 46.694Z" fill="white"/>
<path fill-rule="evenodd" clip-rule="evenodd" d="M51.3782 65.2526C48.0212 65.2526 45.2673 62.7011 44.9939 59.4534C44.9698 59.1673 45.1989 58.9213 45.4895 58.9213H57.2667C57.5576 58.9213 57.7864 59.1673 57.7623 59.4534C57.489 62.7011 54.735 65.2526 51.3782 65.2526Z" fill="#2A2A4B"/>
<path fill-rule="evenodd" clip-rule="evenodd" d="M56.0614 60.9733H46.6952C46.2249 60.9733 45.8438 60.5868 45.8438 60.1099V59.8221H56.9128V60.1099C56.9128 60.5868 56.5314 60.9733 56.0614 60.9733Z" fill="white"/>
<path d="M42.0954 47.665C40.6737 45.9808 38.3729 45.9808 36.9512 47.665" stroke="#2A2A4B" stroke-width="1.55" stroke-linecap="round"/>
</svg>
