<svg width="103" height="103" viewBox="0 0 103 103" fill="none" xmlns="http://www.w3.org/2000/svg">
<path fill-rule="evenodd" clip-rule="evenodd" d="M51.0645 102.201C79.231 102.201 102.064 79.3673 102.064 51.2008C102.064 23.0343 79.231 0.200806 51.0645 0.200806C22.8979 0.200806 0.0644531 23.0343 0.0644531 51.2008C0.0644531 79.3673 22.8979 102.201 51.0645 102.201Z" fill="#005AFF"/>
<path fill-rule="evenodd" clip-rule="evenodd" d="M20.2037 33.4816C19.8682 45.8323 21.976 75.3971 46.5625 83.9914C48.1583 84.5492 49.8345 84.8351 51.5215 84.8351C53.2088 84.8351 54.8848 84.5492 56.4806 83.9914C81.0674 75.3971 83.1752 45.8323 82.8397 33.4816C82.7484 30.1287 80.3841 27.3091 77.1483 26.6493C66.7216 24.5234 58.681 19.8216 55.3625 17.6417C54.2177 16.8897 52.8847 16.1119 51.5215 16.1119C50.1586 16.1119 48.8256 16.8897 47.6808 17.6417C44.3621 19.8216 36.3217 24.5234 25.8948 26.6493C22.6593 27.3091 20.2946 30.1287 20.2037 33.4816Z" fill="white"/>
<path fill-rule="evenodd" clip-rule="evenodd" d="M67.4707 48.0716C67.4707 49.8978 65.9935 51.3779 64.1708 51.3779C62.3486 51.3779 60.8711 49.8978 60.8711 48.0716C60.8711 46.2456 62.3486 44.7653 64.1708 44.7653C65.9935 44.7653 67.4707 46.2456 67.4707 48.0716Z" fill="#2A2A4B"/>
<path fill-rule="evenodd" clip-rule="evenodd" d="M42.1719 48.0716C42.1719 49.8978 40.6944 51.3779 38.8722 51.3779C37.0498 51.3779 35.5723 49.8978 35.5723 48.0716C35.5723 46.2456 37.0498 44.7653 38.8722 44.7653C40.6944 44.7653 42.1719 46.2456 42.1719 48.0716Z" fill="#2A2A4B"/>
<path fill-rule="evenodd" clip-rule="evenodd" d="M40.5227 46.694C40.5227 47.1504 40.1536 47.5203 39.6977 47.5203C39.2422 47.5203 38.873 47.1504 38.873 46.694C38.873 46.2373 39.2422 45.8674 39.6977 45.8674C40.1536 45.8674 40.5227 46.2373 40.5227 46.694Z" fill="white"/>
<path fill-rule="evenodd" clip-rule="evenodd" d="M65.8199 46.694C65.8199 47.1504 65.4507 47.5203 64.9949 47.5203C64.5394 47.5203 64.1699 47.1504 64.1699 46.694C64.1699 46.2373 64.5394 45.8674 64.9949 45.8674C65.4507 45.8674 65.8199 46.2373 65.8199 46.694Z" fill="white"/>
<path fill-rule="evenodd" clip-rule="evenodd" d="M57.9296 60.0602C57.6551 63.2834 54.8891 65.8157 51.5176 65.8157C48.1458 65.8157 45.3798 63.2834 45.1053 60.0602C45.081 59.7763 45.3111 59.5321 45.603 59.5321H57.4319C57.7241 59.5321 57.9538 59.7763 57.9296 60.0602Z" fill="#2A2A4B"/>
<path fill-rule="evenodd" clip-rule="evenodd" d="M56.2214 61.5646H46.8142C46.3418 61.5646 45.959 61.181 45.959 60.7077V60.4221H57.0766V60.7077C57.0766 61.181 56.6935 61.5646 56.2214 61.5646Z" fill="white"/>
</svg>
