<svg width="24" height="24" viewBox="0 0 24 24" fill="none" xmlns="http://www.w3.org/2000/svg">
<rect width="24" height="24" rx="12" fill="#F65260"/>
<path fill-rule="evenodd" clip-rule="evenodd" d="M11.8444 16.0722L10.3214 18.3457L9.93563 15.6365L7.577 17.024L8.40488 14.4158L5.67781 14.6425L7.55537 12.6518L5 11.6728L7.55537 10.6939L5.67781 8.70315L8.40488 8.92988L7.577 6.32164L9.93563 7.70914L10.3214 5L11.8444 7.27347L13.3675 5L13.7533 7.70914L16.1119 6.32164L15.284 8.92988L18.0111 8.70315L16.1335 10.6939L18.6889 11.6728L16.1335 12.6518L18.0111 14.6425L15.284 14.4158L16.1119 17.024L13.7533 15.6365L13.3675 18.3457L11.8444 16.0722Z" fill="#FFCA68"/>
<path fill-rule="evenodd" clip-rule="evenodd" d="M11.8444 16.0285C14.25 16.0285 16.2 14.0784 16.2 11.6729C16.2 9.26743 14.25 7.31738 11.8444 7.31738C9.43894 7.31738 7.48889 9.26743 7.48889 11.6729C7.48889 14.0784 9.43894 16.0285 11.8444 16.0285Z" fill="#F65260"/>
<path fill-rule="evenodd" clip-rule="evenodd" d="M11.8444 15.4061C13.9063 15.4061 15.5778 13.7346 15.5778 11.6728C15.5778 9.61092 13.9063 7.93945 11.8444 7.93945C9.78258 7.93945 8.11111 9.61092 8.11111 11.6728C8.11111 13.7346 9.78258 15.4061 11.8444 15.4061Z" fill="#FFCA68"/>
<path d="M0.25 12C0.25 5.51065 5.51065 0.25 12 0.25C18.4893 0.25 23.75 5.51065 23.75 12C23.75 18.4893 18.4893 23.75 12 23.75C5.51065 23.75 0.25 18.4893 0.25 12Z" stroke="black" stroke-opacity="0.095389" stroke-width="0.5"/>
</svg>
