<svg width="24" height="24" viewBox="0 0 24 24" fill="none" xmlns="http://www.w3.org/2000/svg">
<rect width="24" height="24" rx="12" fill="white"/>
<path fill-rule="evenodd" clip-rule="evenodd" d="M12 8.39551C9.93813 8.39551 8.26666 10.105 8.26666 12.2137C8.26666 14.3224 9.93813 16.0319 12 16.0319C14.0619 16.0319 15.7333 14.3224 15.7333 12.2137C15.7333 10.105 14.0619 8.39551 12 8.39551Z" fill="#073579"/>
<path fill-rule="evenodd" clip-rule="evenodd" d="M12 8.39551C13.981 8.39551 15.6016 9.97352 15.7257 11.9675L15.7324 12.1307C14.926 10.9727 13.0928 11.1206 12.0687 12.574L12 12.6754C10.9661 14.2615 9.46452 13.8746 8.34145 12.9751C8.2922 12.7289 8.26666 12.4743 8.26666 12.2137C8.26666 10.105 9.93813 8.39551 12 8.39551Z" fill="#F65260"/>
<path fill-rule="evenodd" clip-rule="evenodd" d="M5.29985 14.324L5.3309 14.3682L6.66539 16.7321C6.73768 16.8602 6.69418 17.0225 6.56754 17.0973L6.10886 17.3682C5.99473 17.4356 5.85124 17.4094 5.76751 17.3125L5.73646 17.2684L4.40197 14.9045C4.32967 14.7764 4.37317 14.614 4.49981 14.5392L4.95849 14.2684C5.07263 14.201 5.21612 14.2272 5.29985 14.324ZM18.9926 14.2457L19.0415 14.2684L19.5002 14.5392C19.6268 14.614 19.6703 14.7764 19.598 14.9045L18.2635 17.2684C18.1984 17.3838 18.061 17.4329 17.9401 17.3909L17.8911 17.3682L17.4325 17.0973C17.3058 17.0225 17.2623 16.8602 17.3346 16.7321L18.6691 14.3682C18.7343 14.2527 18.8716 14.2037 18.9926 14.2457ZM6.68549 13.5059L6.71654 13.55L8.05103 15.9139C8.12332 16.042 8.07983 16.2044 7.95319 16.2791L7.4945 16.55C7.38037 16.6174 7.23688 16.5912 7.15315 16.4943L7.1221 16.4502L5.78761 14.0863C5.71531 13.9582 5.75881 13.7958 5.88545 13.7211L6.34413 13.4502C6.45827 13.3828 6.60176 13.409 6.68549 13.5059ZM17.6513 13.4476L18.1146 13.7211C18.2412 13.7958 18.2847 13.9582 18.2124 14.0863L16.8779 16.4502C16.8127 16.5656 16.6754 16.6147 16.5545 16.5727L16.5055 16.55L16.0468 16.2791C15.9202 16.2044 15.8767 16.042 15.949 15.9139L17.2835 13.55C17.3568 13.4201 17.5215 13.3743 17.6513 13.4476ZM16.8469 7.50585L16.8779 7.54998L18.2124 9.91391C18.2847 10.042 18.2412 10.2044 18.1146 10.2791L17.6559 10.55C17.5417 10.6174 17.3982 10.5912 17.3145 10.4943L17.2835 10.4502L15.949 8.08628C15.8767 7.95821 15.9202 7.79583 16.0468 7.72106L16.5055 7.45022C16.6196 7.38282 16.7631 7.40902 16.8469 7.50585ZM7.44555 7.42752L7.4945 7.45022L7.95319 7.72106C8.07983 7.79583 8.12332 7.95821 8.05103 8.08628L6.71654 10.4502C6.65138 10.5656 6.51401 10.6147 6.39309 10.5727L6.34413 10.55L5.88545 10.2791C5.75881 10.2044 5.71531 10.042 5.78761 9.91391L7.1221 7.54998C7.18726 7.43455 7.32463 7.38551 7.44555 7.42752ZM18.2325 6.68767L18.2635 6.7318L19.598 9.09573C19.6703 9.2238 19.6268 9.38618 19.5002 9.46096L19.0415 9.7318C18.9274 9.79919 18.7839 9.773 18.7002 9.67616L18.6691 9.63203L17.3346 7.2681C17.2623 7.14003 17.3058 6.97765 17.4325 6.90287L17.8911 6.63204C18.0053 6.56464 18.1488 6.59083 18.2325 6.68767ZM6.05991 6.60934L6.10886 6.63204L6.56754 6.90287C6.69418 6.97765 6.73768 7.14003 6.66539 7.2681L5.3309 9.63203C5.26574 9.74746 5.12837 9.7965 5.00745 9.75449L4.95849 9.7318L4.49981 9.46096C4.37317 9.38618 4.32967 9.2238 4.40197 9.09573L5.73646 6.7318C5.80162 6.61637 5.93899 6.56733 6.05991 6.60934Z" fill="black"/>
<path d="M0.25 12C0.25 5.51065 5.51065 0.25 12 0.25C18.4893 0.25 23.75 5.51065 23.75 12C23.75 18.4893 18.4893 23.75 12 23.75C5.51065 23.75 0.25 18.4893 0.25 12Z" stroke="black" stroke-opacity="0.095389" stroke-width="0.5"/>
</svg>
