<svg width="27" height="28" viewBox="0 0 27 28" fill="none" xmlns="http://www.w3.org/2000/svg">
<rect width="27" height="27" rx="13.5" fill="#EEEEEE"/>
<path d="M13.5 21C17.6421 21 21 17.6421 21 13.5C21 9.35786 17.6421 6 13.5 6C9.35786 6 6 9.35786 6 13.5C6 17.6421 9.35786 21 13.5 21Z" fill="#A2A2A2"/>
<path opacity="0.6" fill-rule="evenodd" clip-rule="evenodd" d="M17.6722 10.3095C18.2673 10.0966 18.8199 9.83819 19.3178 9.53947C19.4506 9.45982 19.5806 9.37644 19.7074 9.28943C19.5192 9.01247 19.3129 8.74876 19.0903 8.5C18.6063 8.82443 18.0451 9.10648 17.4239 9.33573C17.0752 8.16587 16.5841 7.16766 15.995 6.42498C15.2144 6.14974 14.3747 6 13.5 6C12.6253 6 11.7856 6.14974 11.005 6.42498C10.4159 7.16766 9.92484 8.16587 9.57612 9.33573C8.95494 9.10648 8.39369 8.82443 7.90973 8.5C7.68709 8.74876 7.4808 9.01247 7.29257 9.28943C7.41938 9.37644 7.54944 9.45982 7.6822 9.53947C8.18006 9.83819 8.73265 10.0966 9.32775 10.3095C9.14784 11.1481 9.03673 12.0533 9.00766 13H6.0164C6.00552 13.1653 6 13.332 6 13.5C6 13.668 6.00552 13.8347 6.0164 14H9.00766C9.03673 14.9467 9.14784 15.8519 9.32775 16.6905C8.73265 16.9034 8.18006 17.1618 7.6822 17.4605C7.54944 17.5402 7.41938 17.6236 7.29257 17.7106C7.4808 17.9875 7.68709 18.2512 7.90973 18.5C8.39369 18.1756 8.95494 17.8935 9.57612 17.6643C9.92484 18.8341 10.4159 19.8323 11.005 20.575C11.7856 20.8503 12.6253 21 13.5 21C14.3747 21 15.2144 20.8503 15.995 20.575C16.5841 19.8323 17.0752 18.8341 17.4239 17.6643C18.0451 17.8935 18.6063 18.1756 19.0903 18.5C19.3129 18.2512 19.5192 17.9875 19.7074 17.7106C19.5806 17.6236 19.4506 17.5402 19.3178 17.4605C18.8199 17.1618 18.2673 16.9034 17.6722 16.6905C17.8522 15.8519 17.9633 14.9467 17.9923 14H20.9836C20.9945 13.8347 21 13.668 21 13.5C21 13.332 20.9945 13.1653 20.9836 13H17.9923C17.9633 12.0533 17.8522 11.1481 17.6722 10.3095ZM16.9918 14C16.9641 14.8486 16.8663 15.654 16.7123 16.3964C15.863 16.1771 14.9492 16.0439 14 16.0091V14H16.9918ZM16.4692 17.3664C15.7037 17.1682 14.8722 17.0443 14 17.0098V20.9094C14.58 20.703 15.2227 20.1295 15.7982 19.0425C16.0567 18.5541 16.2839 17.9904 16.4692 17.3664ZM13 20.9094V17.0098C12.1278 17.0443 11.2963 17.1682 10.5308 17.3664C10.7161 17.9904 10.9433 18.5541 11.2018 19.0425C11.7773 20.1295 12.42 20.703 13 20.9094ZM10.2877 16.3964C11.137 16.1771 12.0508 16.0439 13 16.0091V14H10.0081C10.0359 14.8486 10.1337 15.654 10.2877 16.3964ZM10.2877 10.6036C10.1337 11.346 10.0359 12.1514 10.0081 13H13V10.9909C12.0508 10.9561 11.137 10.8229 10.2877 10.6036ZM13 9.99016C12.1278 9.95571 11.2963 9.83181 10.5308 9.6336C10.7161 9.00959 10.9433 8.44585 11.2018 7.95748C11.7773 6.8705 12.42 6.29702 13 6.09061V9.99016ZM14 9.99016V6.09061C14.58 6.29702 15.2227 6.8705 15.7982 7.95748C16.0567 8.44585 16.2839 9.00959 16.4692 9.6336C15.7037 9.83181 14.8722 9.95571 14 9.99016ZM14 10.9909C14.9492 10.9561 15.863 10.8229 16.7123 10.6036C16.8663 11.346 16.9641 12.1514 16.9918 13H14V10.9909Z" fill="white"/>
<path d="M13.5 21C17.6421 21 21 17.6421 21 13.5C21 9.35786 17.6421 6 13.5 6C9.35786 6 6 9.35786 6 13.5C6 17.6421 9.35786 21 13.5 21Z" fill="#1C304E"/>
<path fill-rule="evenodd" clip-rule="evenodd" d="M13.5 10.6959C15.0589 10.6959 16.2759 10.5884 17.4544 10C17.822 11.1578 18.0059 12.3618 17.9999 13.5717C17.9999 17.8063 16.1094 21 13.5 21C10.8906 21 9.00014 17.8063 9.00014 13.5717C8.99411 12.3618 9.17798 11.1578 9.54563 10C10.7241 10.5884 11.941 10.6959 13.5 10.6959Z" fill="#3B9946"/>
<path fill-rule="evenodd" clip-rule="evenodd" d="M17.6722 10.3095C18.2673 10.0966 18.8199 9.83819 19.3178 9.53947C19.4506 9.45982 19.5806 9.37644 19.7074 9.28943C19.5192 9.01247 19.3129 8.74876 19.0903 8.5C18.6063 8.82443 18.0451 9.10648 17.4239 9.33573C17.0752 8.16587 16.5841 7.16766 15.995 6.42498C15.2144 6.14974 14.3747 6 13.5 6C12.6253 6 11.7856 6.14974 11.005 6.42498C10.4159 7.16766 9.92484 8.16587 9.57612 9.33573C8.95494 9.10648 8.39369 8.82443 7.90973 8.5C7.68709 8.74876 7.4808 9.01247 7.29257 9.28943C7.41938 9.37644 7.54944 9.45982 7.6822 9.53947C8.18006 9.83819 8.73265 10.0966 9.32775 10.3095C9.14784 11.1481 9.03673 12.0533 9.00766 13H6.0164C6.00552 13.1653 6 13.332 6 13.5C6 13.668 6.00552 13.8347 6.0164 14H9.00766C9.03673 14.9467 9.14784 15.8519 9.32775 16.6905C8.73265 16.9034 8.18006 17.1618 7.6822 17.4605C7.54944 17.5402 7.41938 17.6236 7.29257 17.7106C7.4808 17.9875 7.68709 18.2512 7.90973 18.5C8.39369 18.1756 8.95494 17.8935 9.57612 17.6643C9.92484 18.8341 10.4159 19.8323 11.005 20.575C11.7856 20.8503 12.6253 21 13.5 21C14.3747 21 15.2144 20.8503 15.995 20.575C16.5841 19.8323 17.0752 18.8341 17.4239 17.6643C18.0451 17.8935 18.6063 18.1756 19.0903 18.5C19.3129 18.2512 19.5192 17.9875 19.7074 17.7106C19.5806 17.6236 19.4506 17.5402 19.3178 17.4605C18.8199 17.1618 18.2673 16.9034 17.6722 16.6905C17.8522 15.8519 17.9633 14.9467 17.9923 14H20.9836C20.9945 13.8347 21 13.668 21 13.5C21 13.332 20.9945 13.1653 20.9836 13H17.9923C17.9633 12.0533 17.8522 11.1481 17.6722 10.3095ZM16.9918 14C16.9641 14.8486 16.8663 15.654 16.7123 16.3964C15.863 16.1771 14.9492 16.0439 14 16.0091V14H16.9918ZM16.4692 17.3664C15.7037 17.1682 14.8722 17.0443 14 17.0098V20.9094C14.58 20.703 15.2227 20.1295 15.7982 19.0425C16.0567 18.5541 16.2839 17.9904 16.4692 17.3664ZM13 20.9094V17.0098C12.1278 17.0443 11.2963 17.1682 10.5308 17.3664C10.7161 17.9904 10.9433 18.5541 11.2018 19.0425C11.7773 20.1295 12.42 20.703 13 20.9094ZM10.2877 16.3964C11.137 16.1771 12.0508 16.0439 13 16.0091V14H10.0082C10.0359 14.8486 10.1337 15.654 10.2877 16.3964ZM10.2877 10.6036C10.1337 11.346 10.0359 12.1514 10.0082 13H13V10.9909C12.0508 10.9561 11.137 10.8229 10.2877 10.6036ZM13 9.99016C12.1278 9.95571 11.2963 9.83181 10.5308 9.6336C10.7161 9.00959 10.9433 8.44586 11.2018 7.95748C11.7773 6.8705 12.42 6.29702 13 6.09061V9.99016ZM14 9.99016V6.09061C14.58 6.29702 15.2227 6.8705 15.7982 7.95748C16.0567 8.44586 16.2839 9.00959 16.4692 9.6336C15.7037 9.83181 14.8722 9.95571 14 9.99016ZM14 10.9909C14.9492 10.9561 15.863 10.8229 16.7123 10.6036C16.8663 11.346 16.9641 12.1514 16.9918 13H14V10.9909Z" fill="#A4ACB8"/>
<rect x="9.5" y="15.5" width="17" height="12" rx="2.5" fill="#1C304E"/>
<path d="M17.8579 22.271C17.8579 24.1636 16.9761 25.1099 15.2124 25.1099C13.5015 25.1099 12.646 24.1855 12.646 22.3369V18.6982H14.0698V22.3545C14.0698 23.374 14.4683 23.8838 15.2651 23.8838C16.0474 23.8838 16.4385 23.3916 16.4385 22.4072V18.6982H17.8579V22.271ZM18.8534 24.7583V23.3521C19.1082 23.5659 19.3851 23.7271 19.6839 23.8354C19.9828 23.9409 20.2845 23.9937 20.5892 23.9937C20.7679 23.9937 20.9232 23.9775 21.055 23.9453C21.1898 23.9131 21.3011 23.8691 21.389 23.8135C21.4798 23.7549 21.5472 23.6875 21.5912 23.6113C21.6351 23.5322 21.6571 23.4473 21.6571 23.3564C21.6571 23.2334 21.6219 23.1235 21.5516 23.0269C21.4813 22.9302 21.3846 22.8408 21.2616 22.7588C21.1414 22.6768 20.9979 22.5977 20.8309 22.5215C20.6639 22.4453 20.4837 22.3677 20.2904 22.2886C19.7982 22.0835 19.4305 21.833 19.1873 21.5371C18.9471 21.2412 18.827 20.8838 18.827 20.4648C18.827 20.1367 18.8929 19.8555 19.0247 19.6211C19.1566 19.3838 19.3353 19.189 19.5609 19.0366C19.7894 18.8843 20.0531 18.7729 20.3519 18.7026C20.6507 18.6294 20.9671 18.5928 21.3011 18.5928C21.6292 18.5928 21.9193 18.6133 22.1712 18.6543C22.4261 18.6924 22.6605 18.7524 22.8744 18.8345V20.1484C22.7689 20.0752 22.6532 20.0107 22.5272 19.9551C22.4041 19.8994 22.2767 19.854 22.1449 19.8188C22.013 19.7808 21.8812 19.7529 21.7494 19.7354C21.6204 19.7178 21.4974 19.709 21.3802 19.709C21.2191 19.709 21.0726 19.7251 20.9408 19.7573C20.8089 19.7866 20.6976 19.8291 20.6068 19.8848C20.516 19.9404 20.4456 20.0078 20.3958 20.0869C20.346 20.1631 20.3211 20.2495 20.3211 20.3462C20.3211 20.4517 20.349 20.5469 20.4046 20.6318C20.4603 20.7139 20.5394 20.793 20.6419 20.8691C20.7445 20.9424 20.869 21.0156 21.0155 21.0889C21.162 21.1592 21.3275 21.2324 21.5121 21.3086C21.764 21.4141 21.9896 21.5269 22.1888 21.647C22.391 21.7642 22.5638 21.8975 22.7074 22.0469C22.8509 22.1963 22.9608 22.3677 23.037 22.561C23.1131 22.7515 23.1512 22.9741 23.1512 23.229C23.1512 23.5806 23.0838 23.8765 22.9491 24.1167C22.8172 24.354 22.6371 24.5474 22.4085 24.6968C22.18 24.8433 21.9134 24.9487 21.6087 25.0132C21.307 25.0776 20.9876 25.1099 20.6507 25.1099C20.305 25.1099 19.9754 25.0806 19.662 25.022C19.3514 24.9634 19.0819 24.8755 18.8534 24.7583Z" fill="white"/>
<rect x="9.5" y="15.5" width="17" height="12" rx="2.5" stroke="#EEEEEE"/>
</svg>
