<svg width="328" height="199" viewBox="0 0 328 199" fill="none" xmlns="http://www.w3.org/2000/svg">
<g filter="url(#filter0_d)">
<rect x="4" y="2" width="320" height="191" rx="4" fill="white"/>
<path d="M312.667 13.2733L311.727 12.3333L308 16.0599L304.273 12.3333L303.333 13.2733L307.06 16.9999L303.333 20.7266L304.273 21.6666L308 17.9399L311.727 21.6666L312.667 20.7266L308.94 16.9999L312.667 13.2733Z" fill="#5C6467"/>
<path d="M28.7599 173.624C28.7839 173.424 28.7999 173.216 28.7999 173C28.7999 172.784 28.7839 172.576 28.7519 172.376L30.1039 171.32C30.2239 171.224 30.2559 171.048 30.1839 170.912L28.9039 168.696C28.8239 168.552 28.6559 168.504 28.5119 168.552L26.9199 169.192C26.5839 168.936 26.2319 168.728 25.8399 168.568L25.5999 166.872C25.5759 166.712 25.4399 166.6 25.2799 166.6H22.7199C22.5599 166.6 22.4319 166.712 22.4079 166.872L22.1679 168.568C21.7759 168.728 21.4159 168.944 21.0879 169.192L19.4959 168.552C19.3519 168.496 19.1839 168.552 19.1039 168.696L17.8239 170.912C17.7439 171.056 17.7759 171.224 17.9039 171.32L19.2559 172.376C19.2239 172.576 19.1999 172.792 19.1999 173C19.1999 173.208 19.2159 173.424 19.2479 173.624L17.8959 174.68C17.7759 174.776 17.7439 174.952 17.8159 175.088L19.0959 177.304C19.1759 177.448 19.3439 177.496 19.4879 177.448L21.0799 176.808C21.4159 177.064 21.7679 177.272 22.1599 177.432L22.3999 179.128C22.4319 179.288 22.5599 179.4 22.7199 179.4H25.2799C25.4399 179.4 25.5759 179.288 25.5919 179.128L25.8319 177.432C26.2239 177.272 26.5839 177.056 26.9119 176.808L28.5039 177.448C28.6479 177.504 28.8159 177.448 28.8959 177.304L30.1759 175.088C30.2559 174.944 30.2239 174.776 30.0959 174.68L28.7599 173.624ZM23.9999 175.4C22.6799 175.4 21.5999 174.32 21.5999 173C21.5999 171.68 22.6799 170.6 23.9999 170.6C25.3199 170.6 26.3999 171.68 26.3999 173C26.3999 174.32 25.3199 175.4 23.9999 175.4Z" fill="#5F6267"/>
<path d="M29.5 139C33.6421 139 37 135.642 37 131.5C37 127.358 33.6421 124 29.5 124C25.3579 124 22 127.358 22 131.5C22 135.642 25.3579 139 29.5 139Z" fill="#A2A2A2"/>
<path opacity="0.6" fill-rule="evenodd" clip-rule="evenodd" d="M33.6722 128.309C34.2673 128.097 34.8199 127.838 35.3178 127.539C35.4506 127.46 35.5806 127.376 35.7074 127.289C35.5192 127.012 35.3129 126.749 35.0903 126.5C34.6063 126.824 34.0451 127.106 33.4239 127.336C33.0752 126.166 32.5841 125.168 31.995 124.425C31.2144 124.15 30.3747 124 29.5 124C28.6253 124 27.7856 124.15 27.005 124.425C26.4159 125.168 25.9248 126.166 25.5761 127.336C24.9549 127.106 24.3937 126.824 23.9097 126.5C23.6871 126.749 23.4808 127.012 23.2926 127.289C23.4194 127.376 23.5494 127.46 23.6822 127.539C24.1801 127.838 24.7327 128.097 25.3278 128.309C25.1478 129.148 25.0367 130.053 25.0077 131H22.0164C22.0055 131.165 22 131.332 22 131.5C22 131.668 22.0055 131.835 22.0164 132H25.0077C25.0367 132.947 25.1478 133.852 25.3277 134.691C24.7327 134.903 24.1801 135.162 23.6822 135.461C23.5494 135.54 23.4194 135.624 23.2926 135.711C23.4808 135.988 23.6871 136.251 23.9097 136.5C24.3937 136.176 24.9549 135.894 25.5761 135.664C25.9248 136.834 26.4159 137.832 27.005 138.575C27.7856 138.85 28.6253 139 29.5 139C30.3747 139 31.2144 138.85 31.995 138.575C32.5841 137.832 33.0752 136.834 33.4239 135.664C34.0451 135.894 34.6063 136.176 35.0903 136.5C35.3129 136.251 35.5192 135.988 35.7074 135.711C35.5806 135.624 35.4506 135.54 35.3178 135.461C34.8199 135.162 34.2673 134.903 33.6722 134.691C33.8522 133.852 33.9633 132.947 33.9923 132H36.9836C36.9945 131.835 37 131.668 37 131.5C37 131.332 36.9945 131.165 36.9836 131H33.9923C33.9633 130.053 33.8522 129.148 33.6722 128.309ZM32.9918 132C32.9641 132.849 32.8663 133.654 32.7123 134.396C31.863 134.177 30.9492 134.044 30 134.009V132H32.9918ZM32.4692 135.366C31.7037 135.168 30.8722 135.044 30 135.01V138.909C30.58 138.703 31.2227 138.13 31.7982 137.043C32.0567 136.554 32.2839 135.99 32.4692 135.366ZM29 138.909V135.01C28.1278 135.044 27.2963 135.168 26.5308 135.366C26.7161 135.99 26.9433 136.554 27.2018 137.043C27.7773 138.13 28.42 138.703 29 138.909ZM26.2877 134.396C27.137 134.177 28.0508 134.044 29 134.009V132H26.0081C26.0359 132.849 26.1337 133.654 26.2877 134.396ZM26.2877 128.604C26.1337 129.346 26.0359 130.151 26.0081 131H29V128.991C28.0508 128.956 27.137 128.823 26.2877 128.604ZM29 127.99C28.1278 127.956 27.2963 127.832 26.5308 127.634C26.7161 127.01 26.9433 126.446 27.2018 125.957C27.7773 124.87 28.42 124.297 29 124.091V127.99ZM30 127.99V124.091C30.58 124.297 31.2227 124.87 31.7982 125.957C32.0567 126.446 32.2839 127.01 32.4692 127.634C31.7037 127.832 30.8722 127.956 30 127.99ZM30 128.991C30.9492 128.956 31.863 128.823 32.7123 128.604C32.8663 129.346 32.9641 130.151 32.9918 131H30V128.991Z" fill="white"/>
<path d="M306 126.5C306 127.328 305.328 128 304.5 128C303.672 128 303 127.328 303 126.5C303 125.672 303.672 125 304.5 125C305.328 125 306 125.672 306 126.5Z" fill="#8E9295"/>
<path d="M306 131.5C306 132.328 305.328 133 304.5 133C303.672 133 303 132.328 303 131.5C303 130.672 303.672 130 304.5 130C305.328 130 306 130.672 306 131.5Z" fill="#8E9295"/>
<path d="M306 136.5C306 137.328 305.328 138 304.5 138C303.672 138 303 137.328 303 136.5C303 135.672 303.672 135 304.5 135C305.328 135 306 135.672 306 136.5Z" fill="#8E9295"/>
<path d="M266.167 132V132.2L266.305 132.345L267.5 133.6V134.3H264.533H264.033V134.8V138.5H263.967V134.8V134.3H263.467H260.5V133.6L261.695 132.345L261.833 132.2V132V126.4V125.9H261.333H261.167V125.5H266.833V125.9H266.667H266.167V126.4V132Z" stroke="#8F9095"/>
<path d="M26.9434 35H21.377V24.4971H26.709V25.6104H22.6074V29.104H26.4014V30.21H22.6074V33.8867H26.9434V35ZM34.2822 27.5L31.7627 31.2939L34.2383 35H32.8394L31.3672 32.5684C31.2744 32.417 31.1646 32.2266 31.0376 31.9971H31.0083C30.9839 32.041 30.8691 32.2314 30.6641 32.5684L29.1626 35H27.7783L30.3345 31.3232L27.8882 27.5H29.2871L30.7373 30.0635C30.8447 30.2539 30.9497 30.4492 31.0522 30.6494H31.0815L32.9565 27.5H34.2822ZM39.1675 34.9268C38.8843 35.083 38.5107 35.1611 38.0469 35.1611C36.7334 35.1611 36.0767 34.4287 36.0767 32.9639V28.5254H34.7876V27.5H36.0767V25.6689L37.2778 25.2808V27.5H39.1675V28.5254H37.2778V32.7515C37.2778 33.2544 37.3633 33.6133 37.5342 33.8281C37.7051 34.043 37.9883 34.1504 38.3838 34.1504C38.6865 34.1504 38.9478 34.0674 39.1675 33.9014V34.9268ZM46.6821 31.5503H41.3867C41.4062 32.3853 41.6309 33.0298 42.0605 33.4839C42.4902 33.938 43.0811 34.165 43.833 34.165C44.6777 34.165 45.4541 33.8867 46.1621 33.3301V34.458C45.5029 34.9365 44.6313 35.1758 43.5474 35.1758C42.4878 35.1758 41.6553 34.8364 41.0498 34.1577C40.4443 33.4741 40.1416 32.5146 40.1416 31.2793C40.1416 30.1123 40.4712 29.1626 41.1304 28.4302C41.7944 27.6929 42.6172 27.3242 43.5986 27.3242C44.5801 27.3242 45.3394 27.6416 45.8765 28.2764C46.4136 28.9111 46.6821 29.7925 46.6821 30.9204V31.5503ZM45.4517 30.5322C45.4468 29.8389 45.2783 29.2993 44.9463 28.9136C44.6191 28.5278 44.1626 28.335 43.5767 28.335C43.0103 28.335 42.5293 28.5376 42.1338 28.9429C41.7383 29.3481 41.4941 29.8779 41.4014 30.5322H45.4517ZM54.7314 35H53.5303V30.7227C53.5303 29.1309 52.9492 28.335 51.7871 28.335C51.1865 28.335 50.6885 28.562 50.293 29.0161C49.9023 29.4653 49.707 30.0342 49.707 30.7227V35H48.5059V27.5H49.707V28.7451H49.7363C50.3027 27.7979 51.123 27.3242 52.1973 27.3242C53.0176 27.3242 53.645 27.5903 54.0796 28.1226C54.5142 28.6499 54.7314 29.4141 54.7314 30.415V35ZM56.5479 34.729V33.4399C57.2021 33.9233 57.9224 34.165 58.7085 34.165C59.7632 34.165 60.2905 33.8135 60.2905 33.1104C60.2905 32.9102 60.2441 32.7417 60.1514 32.605C60.0635 32.4634 59.9414 32.3389 59.7852 32.2314C59.6338 32.124 59.4531 32.0288 59.2432 31.9458C59.0381 31.8579 58.8159 31.7676 58.5767 31.6748C58.2446 31.543 57.9517 31.4111 57.6978 31.2793C57.4487 31.1426 57.2388 30.9912 57.0679 30.8252C56.9019 30.6543 56.7749 30.4614 56.687 30.2466C56.604 30.0317 56.5625 29.7803 56.5625 29.4922C56.5625 29.1406 56.6431 28.8306 56.8042 28.562C56.9653 28.2886 57.1802 28.0615 57.4487 27.8809C57.7173 27.6953 58.0225 27.5562 58.3643 27.4634C58.7109 27.3706 59.0674 27.3242 59.4336 27.3242C60.083 27.3242 60.6641 27.4365 61.1768 27.6611V28.877C60.625 28.5156 59.9902 28.335 59.2725 28.335C59.0479 28.335 58.8452 28.3618 58.6646 28.4155C58.4839 28.4644 58.3276 28.5352 58.1958 28.6279C58.0688 28.7207 57.9688 28.833 57.8955 28.9648C57.8271 29.0918 57.793 29.2334 57.793 29.3896C57.793 29.585 57.8271 29.7485 57.8955 29.8804C57.9688 30.0122 58.0737 30.1294 58.2104 30.2319C58.3472 30.3345 58.5132 30.4272 58.7085 30.5103C58.9038 30.5933 59.126 30.6836 59.375 30.7812C59.707 30.9082 60.0049 31.04 60.2686 31.1768C60.5322 31.3086 60.7568 31.46 60.9424 31.6309C61.1279 31.7969 61.2695 31.9897 61.3672 32.2095C61.4697 32.4292 61.521 32.6904 61.521 32.9932C61.521 33.3643 61.438 33.6865 61.272 33.96C61.1108 34.2334 60.8936 34.4604 60.6201 34.6411C60.3467 34.8218 60.0317 34.9561 59.6753 35.0439C59.3188 35.1318 58.9453 35.1758 58.5547 35.1758C57.7832 35.1758 57.1143 35.0269 56.5479 34.729ZM63.9893 25.5957C63.7744 25.5957 63.5913 25.5225 63.4399 25.376C63.2886 25.2295 63.2129 25.0439 63.2129 24.8193C63.2129 24.5947 63.2886 24.4092 63.4399 24.2627C63.5913 24.1113 63.7744 24.0356 63.9893 24.0356C64.209 24.0356 64.3945 24.1113 64.5459 24.2627C64.7021 24.4092 64.7803 24.5947 64.7803 24.8193C64.7803 25.0342 64.7021 25.2173 64.5459 25.3687C64.3945 25.52 64.209 25.5957 63.9893 25.5957ZM64.5752 35H63.374V27.5H64.5752V35ZM70.1416 35.1758C69.0332 35.1758 68.147 34.8267 67.4829 34.1284C66.8237 33.4253 66.4941 32.4951 66.4941 31.3379C66.4941 30.0781 66.8384 29.0942 67.5269 28.3862C68.2153 27.6782 69.1455 27.3242 70.3174 27.3242C71.4355 27.3242 72.3071 27.6685 72.9321 28.3569C73.562 29.0454 73.877 30 73.877 31.2207C73.877 32.417 73.5376 33.3765 72.8589 34.0991C72.1851 34.8169 71.2793 35.1758 70.1416 35.1758ZM70.2295 28.335C69.458 28.335 68.8477 28.5986 68.3984 29.126C67.9492 29.6484 67.7246 30.3711 67.7246 31.2939C67.7246 32.1826 67.9517 32.8833 68.4058 33.396C68.8599 33.9087 69.4678 34.165 70.2295 34.165C71.0059 34.165 71.6016 33.9136 72.0166 33.4106C72.4365 32.9077 72.6465 32.1924 72.6465 31.2646C72.6465 30.3271 72.4365 29.6045 72.0166 29.0967C71.6016 28.5889 71.0059 28.335 70.2295 28.335ZM82.0215 35H80.8203V30.7227C80.8203 29.1309 80.2393 28.335 79.0771 28.335C78.4766 28.335 77.9785 28.562 77.583 29.0161C77.1924 29.4653 76.9971 30.0342 76.9971 30.7227V35H75.7959V27.5H76.9971V28.7451H77.0264C77.5928 27.7979 78.4131 27.3242 79.4873 27.3242C80.3076 27.3242 80.9351 27.5903 81.3696 28.1226C81.8042 28.6499 82.0215 29.4141 82.0215 30.415V35ZM83.8379 34.729V33.4399C84.4922 33.9233 85.2124 34.165 85.9985 34.165C87.0532 34.165 87.5806 33.8135 87.5806 33.1104C87.5806 32.9102 87.5342 32.7417 87.4414 32.605C87.3535 32.4634 87.2314 32.3389 87.0752 32.2314C86.9238 32.124 86.7432 32.0288 86.5332 31.9458C86.3281 31.8579 86.106 31.7676 85.8667 31.6748C85.5347 31.543 85.2417 31.4111 84.9878 31.2793C84.7388 31.1426 84.5288 30.9912 84.3579 30.8252C84.1919 30.6543 84.0649 30.4614 83.9771 30.2466C83.894 30.0317 83.8525 29.7803 83.8525 29.4922C83.8525 29.1406 83.9331 28.8306 84.0942 28.562C84.2554 28.2886 84.4702 28.0615 84.7388 27.8809C85.0073 27.6953 85.3125 27.5562 85.6543 27.4634C86.001 27.3706 86.3574 27.3242 86.7236 27.3242C87.373 27.3242 87.9541 27.4365 88.4668 27.6611V28.877C87.915 28.5156 87.2803 28.335 86.5625 28.335C86.3379 28.335 86.1353 28.3618 85.9546 28.4155C85.7739 28.4644 85.6177 28.5352 85.4858 28.6279C85.3589 28.7207 85.2588 28.833 85.1855 28.9648C85.1172 29.0918 85.083 29.2334 85.083 29.3896C85.083 29.585 85.1172 29.7485 85.1855 29.8804C85.2588 30.0122 85.3638 30.1294 85.5005 30.2319C85.6372 30.3345 85.8032 30.4272 85.9985 30.5103C86.1938 30.5933 86.416 30.6836 86.665 30.7812C86.9971 30.9082 87.2949 31.04 87.5586 31.1768C87.8223 31.3086 88.0469 31.46 88.2324 31.6309C88.418 31.7969 88.5596 31.9897 88.6572 32.2095C88.7598 32.4292 88.811 32.6904 88.811 32.9932C88.811 33.3643 88.728 33.6865 88.562 33.96C88.4009 34.2334 88.1836 34.4604 87.9102 34.6411C87.6367 34.8218 87.3218 34.9561 86.9653 35.0439C86.6089 35.1318 86.2354 35.1758 85.8447 35.1758C85.0732 35.1758 84.4043 35.0269 83.8379 34.729Z" fill="black"/>
<path d="M25.5723 58.7812H22.4316V61.3066H25.3262V62.4844H22.4316V66H21.0371V57.5977H25.5723V58.7812ZM32.1523 66H30.793V65.0508H30.7695C30.375 65.7773 29.7617 66.1406 28.9297 66.1406C27.5117 66.1406 26.8027 65.2891 26.8027 63.5859V60H28.1621V63.4453C28.1621 64.5234 28.5781 65.0625 29.4102 65.0625C29.8125 65.0625 30.1426 64.9141 30.4004 64.6172C30.6621 64.3203 30.793 63.9316 30.793 63.4512V60H32.1523V66ZM35.293 66H33.9277V57.1172H35.293V66ZM38.4336 66H37.0684V57.1172H38.4336V66ZM48.1191 66H46.8008V65.0625H46.7773C46.3633 65.7812 45.7559 66.1406 44.9551 66.1406C44.3652 66.1406 43.9023 65.9805 43.5664 65.6602C43.2344 65.3398 43.0684 64.916 43.0684 64.3887C43.0684 63.2559 43.7207 62.5957 45.0254 62.4082L46.8066 62.1562C46.8066 61.3008 46.4004 60.873 45.5879 60.873C44.873 60.873 44.2285 61.1191 43.6543 61.6113V60.4219C44.2871 60.0469 45.0176 59.8594 45.8457 59.8594C47.3613 59.8594 48.1191 60.6055 48.1191 62.0977V66ZM46.8066 63.0527L45.5469 63.2285C45.1562 63.2793 44.8613 63.375 44.6621 63.5156C44.4668 63.6523 44.3691 63.8945 44.3691 64.2422C44.3691 64.4961 44.459 64.7051 44.6387 64.8691C44.8223 65.0293 45.0664 65.1094 45.3711 65.1094C45.7852 65.1094 46.127 64.9648 46.3965 64.6758C46.6699 64.3828 46.8066 64.0156 46.8066 63.5742V63.0527ZM54.0781 65.7246C53.5977 66.002 53.0293 66.1406 52.373 66.1406C51.4824 66.1406 50.7637 65.8633 50.2168 65.3086C49.6699 64.75 49.3965 64.0273 49.3965 63.1406C49.3965 62.1523 49.6895 61.3594 50.2754 60.7617C50.8652 60.1602 51.6523 59.8594 52.6367 59.8594C53.1836 59.8594 53.666 59.9551 54.084 60.1465V61.4121C53.666 61.0996 53.2207 60.9434 52.748 60.9434C52.1738 60.9434 51.7031 61.1387 51.3359 61.5293C50.9688 61.916 50.7852 62.4238 50.7852 63.0527C50.7852 63.6738 50.957 64.1641 51.3008 64.5234C51.6484 64.8828 52.1133 65.0625 52.6953 65.0625C53.1836 65.0625 53.6445 64.8887 54.0781 64.541V65.7246ZM59.7266 65.7246C59.2461 66.002 58.6777 66.1406 58.0215 66.1406C57.1309 66.1406 56.4121 65.8633 55.8652 65.3086C55.3184 64.75 55.0449 64.0273 55.0449 63.1406C55.0449 62.1523 55.3379 61.3594 55.9238 60.7617C56.5137 60.1602 57.3008 59.8594 58.2852 59.8594C58.832 59.8594 59.3145 59.9551 59.7324 60.1465V61.4121C59.3145 61.0996 58.8691 60.9434 58.3965 60.9434C57.8223 60.9434 57.3516 61.1387 56.9844 61.5293C56.6172 61.916 56.4336 62.4238 56.4336 63.0527C56.4336 63.6738 56.6055 64.1641 56.9492 64.5234C57.2969 64.8828 57.7617 65.0625 58.3438 65.0625C58.832 65.0625 59.293 64.8887 59.7266 64.541V65.7246ZM66.1602 63.3691H62.0703C62.0859 63.9238 62.2559 64.3516 62.5801 64.6523C62.9082 64.9531 63.3574 65.1035 63.9277 65.1035C64.5684 65.1035 65.1562 64.9121 65.6914 64.5293V65.625C65.1445 65.9688 64.4219 66.1406 63.5234 66.1406C62.6406 66.1406 61.9473 65.8691 61.4434 65.3262C60.9434 64.7793 60.6934 64.0117 60.6934 63.0234C60.6934 62.0898 60.9688 61.3301 61.5195 60.7441C62.0742 60.1543 62.7617 59.8594 63.582 59.8594C64.4023 59.8594 65.0371 60.123 65.4863 60.6504C65.9355 61.1777 66.1602 61.9102 66.1602 62.8477V63.3691ZM64.8477 62.4082C64.8438 61.9199 64.7285 61.541 64.502 61.2715C64.2754 60.998 63.9629 60.8613 63.5645 60.8613C63.1738 60.8613 62.8418 61.0039 62.5684 61.2891C62.2988 61.5742 62.1328 61.9473 62.0703 62.4082H64.8477ZM67.3027 65.8125V64.5527C67.8105 64.9395 68.3711 65.1328 68.9844 65.1328C69.8047 65.1328 70.2148 64.8906 70.2148 64.4062C70.2148 64.2695 70.1797 64.1543 70.1094 64.0605C70.0391 63.9629 69.9434 63.877 69.8223 63.8027C69.7051 63.7285 69.5664 63.6621 69.4062 63.6035C69.2422 63.5449 69.0605 63.4785 68.8613 63.4043C68.6152 63.3066 68.3926 63.2031 68.1934 63.0938C67.998 62.9844 67.834 62.8613 67.7012 62.7246C67.5723 62.584 67.4746 62.4258 67.4082 62.25C67.3418 62.0742 67.3086 61.8691 67.3086 61.6348C67.3086 61.3457 67.377 61.0918 67.5137 60.873C67.6504 60.6504 67.834 60.4648 68.0645 60.3164C68.2949 60.1641 68.5566 60.0508 68.8496 59.9766C69.1426 59.8984 69.4453 59.8594 69.7578 59.8594C70.3125 59.8594 70.8086 59.9434 71.2461 60.1113V61.3008C70.8242 61.0117 70.3398 60.8672 69.793 60.8672C69.6211 60.8672 69.4648 60.8848 69.3242 60.9199C69.1875 60.9551 69.0703 61.0039 68.9727 61.0664C68.875 61.1289 68.7988 61.2051 68.7441 61.2949C68.6895 61.3809 68.6621 61.4766 68.6621 61.582C68.6621 61.7109 68.6895 61.8203 68.7441 61.9102C68.7988 62 68.8789 62.0801 68.9844 62.1504C69.0938 62.2168 69.2227 62.2793 69.3711 62.3379C69.5234 62.3926 69.6973 62.4531 69.8926 62.5195C70.1504 62.625 70.3809 62.7324 70.584 62.8418C70.791 62.9512 70.9668 63.0762 71.1113 63.2168C71.2559 63.3535 71.3672 63.5137 71.4453 63.6973C71.5234 63.877 71.5625 64.0918 71.5625 64.3418C71.5625 64.6465 71.4922 64.9121 71.3516 65.1387C71.2109 65.3652 71.0234 65.5527 70.7891 65.7012C70.5547 65.8496 70.2832 65.959 69.9746 66.0293C69.6699 66.1035 69.3477 66.1406 69.0078 66.1406C68.3516 66.1406 67.7832 66.0312 67.3027 65.8125ZM72.4824 65.8125V64.5527C72.9902 64.9395 73.5508 65.1328 74.1641 65.1328C74.9844 65.1328 75.3945 64.8906 75.3945 64.4062C75.3945 64.2695 75.3594 64.1543 75.2891 64.0605C75.2188 63.9629 75.123 63.877 75.002 63.8027C74.8848 63.7285 74.7461 63.6621 74.5859 63.6035C74.4219 63.5449 74.2402 63.4785 74.041 63.4043C73.7949 63.3066 73.5723 63.2031 73.373 63.0938C73.1777 62.9844 73.0137 62.8613 72.8809 62.7246C72.752 62.584 72.6543 62.4258 72.5879 62.25C72.5215 62.0742 72.4883 61.8691 72.4883 61.6348C72.4883 61.3457 72.5566 61.0918 72.6934 60.873C72.8301 60.6504 73.0137 60.4648 73.2441 60.3164C73.4746 60.1641 73.7363 60.0508 74.0293 59.9766C74.3223 59.8984 74.625 59.8594 74.9375 59.8594C75.4922 59.8594 75.9883 59.9434 76.4258 60.1113V61.3008C76.0039 61.0117 75.5195 60.8672 74.9727 60.8672C74.8008 60.8672 74.6445 60.8848 74.5039 60.9199C74.3672 60.9551 74.25 61.0039 74.1523 61.0664C74.0547 61.1289 73.9785 61.2051 73.9238 61.2949C73.8691 61.3809 73.8418 61.4766 73.8418 61.582C73.8418 61.7109 73.8691 61.8203 73.9238 61.9102C73.9785 62 74.0586 62.0801 74.1641 62.1504C74.2734 62.2168 74.4023 62.2793 74.5508 62.3379C74.7031 62.3926 74.877 62.4531 75.0723 62.5195C75.3301 62.625 75.5605 62.7324 75.7637 62.8418C75.9707 62.9512 76.1465 63.0762 76.291 63.2168C76.4355 63.3535 76.5469 63.5137 76.625 63.6973C76.7031 63.877 76.7422 64.0918 76.7422 64.3418C76.7422 64.6465 76.6719 64.9121 76.5312 65.1387C76.3906 65.3652 76.2031 65.5527 75.9688 65.7012C75.7344 65.8496 75.4629 65.959 75.1543 66.0293C74.8496 66.1035 74.5273 66.1406 74.1875 66.1406C73.5312 66.1406 72.9629 66.0312 72.4824 65.8125Z" fill="black"/>
<path opacity="0.7" d="M26.0703 78.4883H23.6445V86H22.6602V78.4883H20.2402V77.5977H26.0703V78.4883ZM32.2461 86H31.2852V82.543C31.2852 81.293 30.8203 80.668 29.8906 80.668C29.4219 80.668 29.0273 80.8496 28.707 81.2129C28.3867 81.5723 28.2266 82.0352 28.2266 82.6016V86H27.2656V77.1172H28.2266V80.9961H28.25C28.7109 80.2383 29.3672 79.8594 30.2188 79.8594C31.5703 79.8594 32.2461 80.6738 32.2461 82.3027V86ZM38.8848 83.2402H34.6484C34.6641 83.9082 34.8438 84.4238 35.1875 84.7871C35.5312 85.1504 36.0039 85.332 36.6055 85.332C37.2812 85.332 37.9023 85.1094 38.4688 84.6641V85.5664C37.9414 85.9492 37.2441 86.1406 36.377 86.1406C35.5293 86.1406 34.8633 85.8691 34.3789 85.3262C33.8945 84.7793 33.6523 84.0117 33.6523 83.0234C33.6523 82.0898 33.916 81.3301 34.4434 80.7441C34.9746 80.1543 35.6328 79.8594 36.418 79.8594C37.2031 79.8594 37.8105 80.1133 38.2402 80.6211C38.6699 81.1289 38.8848 81.834 38.8848 82.7363V83.2402ZM37.9004 82.4258C37.8965 81.8711 37.7617 81.4395 37.4961 81.1309C37.2344 80.8223 36.8691 80.668 36.4004 80.668C35.9473 80.668 35.5625 80.8301 35.2461 81.1543C34.9297 81.4785 34.7344 81.9023 34.6602 82.4258H37.9004ZM39.9805 85.7832V84.752C40.5039 85.1387 41.0801 85.332 41.709 85.332C42.5527 85.332 42.9746 85.0508 42.9746 84.4883C42.9746 84.3281 42.9375 84.1934 42.8633 84.084C42.793 83.9707 42.6953 83.8711 42.5703 83.7852C42.4492 83.6992 42.3047 83.623 42.1367 83.5566C41.9727 83.4863 41.7949 83.4141 41.6035 83.3398C41.3379 83.2344 41.1035 83.1289 40.9004 83.0234C40.7012 82.9141 40.5332 82.793 40.3965 82.6602C40.2637 82.5234 40.1621 82.3691 40.0918 82.1973C40.0254 82.0254 39.9922 81.8242 39.9922 81.5938C39.9922 81.3125 40.0566 81.0645 40.1855 80.8496C40.3145 80.6309 40.4863 80.4492 40.7012 80.3047C40.916 80.1562 41.1602 80.0449 41.4336 79.9707C41.7109 79.8965 41.9961 79.8594 42.2891 79.8594C42.8086 79.8594 43.2734 79.9492 43.6836 80.1289V81.1016C43.2422 80.8125 42.7344 80.668 42.1602 80.668C41.9805 80.668 41.8184 80.6895 41.6738 80.7324C41.5293 80.7715 41.4043 80.8281 41.2988 80.9023C41.1973 80.9766 41.1172 81.0664 41.0586 81.1719C41.0039 81.2734 40.9766 81.3867 40.9766 81.5117C40.9766 81.668 41.0039 81.7988 41.0586 81.9043C41.1172 82.0098 41.2012 82.1035 41.3105 82.1855C41.4199 82.2676 41.5527 82.3418 41.709 82.4082C41.8652 82.4746 42.043 82.5469 42.2422 82.625C42.5078 82.7266 42.7461 82.832 42.957 82.9414C43.168 83.0469 43.3477 83.168 43.4961 83.3047C43.6445 83.4375 43.7578 83.5918 43.8359 83.7676C43.918 83.9434 43.959 84.1523 43.959 84.3945C43.959 84.6914 43.8926 84.9492 43.7598 85.168C43.6309 85.3867 43.457 85.5684 43.2383 85.7129C43.0195 85.8574 42.7676 85.9648 42.4824 86.0352C42.1973 86.1055 41.8984 86.1406 41.5859 86.1406C40.9688 86.1406 40.4336 86.0215 39.9805 85.7832ZM50.2637 83.2402H46.0273C46.043 83.9082 46.2227 84.4238 46.5664 84.7871C46.9102 85.1504 47.3828 85.332 47.9844 85.332C48.6602 85.332 49.2812 85.1094 49.8477 84.6641V85.5664C49.3203 85.9492 48.623 86.1406 47.7559 86.1406C46.9082 86.1406 46.2422 85.8691 45.7578 85.3262C45.2734 84.7793 45.0312 84.0117 45.0312 83.0234C45.0312 82.0898 45.2949 81.3301 45.8223 80.7441C46.3535 80.1543 47.0117 79.8594 47.7969 79.8594C48.582 79.8594 49.1895 80.1133 49.6191 80.6211C50.0488 81.1289 50.2637 81.834 50.2637 82.7363V83.2402ZM49.2793 82.4258C49.2754 81.8711 49.1406 81.4395 48.875 81.1309C48.6133 80.8223 48.248 80.668 47.7793 80.668C47.3262 80.668 46.9414 80.8301 46.625 81.1543C46.3086 81.4785 46.1133 81.9023 46.0391 82.4258H49.2793ZM59.8379 83.2402H55.6016C55.6172 83.9082 55.7969 84.4238 56.1406 84.7871C56.4844 85.1504 56.957 85.332 57.5586 85.332C58.2344 85.332 58.8555 85.1094 59.4219 84.6641V85.5664C58.8945 85.9492 58.1973 86.1406 57.3301 86.1406C56.4824 86.1406 55.8164 85.8691 55.332 85.3262C54.8477 84.7793 54.6055 84.0117 54.6055 83.0234C54.6055 82.0898 54.8691 81.3301 55.3965 80.7441C55.9277 80.1543 56.5859 79.8594 57.3711 79.8594C58.1562 79.8594 58.7637 80.1133 59.1934 80.6211C59.623 81.1289 59.8379 81.834 59.8379 82.7363V83.2402ZM58.8535 82.4258C58.8496 81.8711 58.7148 81.4395 58.4492 81.1309C58.1875 80.8223 57.8223 80.668 57.3535 80.668C56.9004 80.668 56.5156 80.8301 56.1992 81.1543C55.8828 81.4785 55.6875 81.9023 55.6133 82.4258H58.8535ZM65.6797 80L63.6641 83.0352L65.6445 86H64.5254L63.3477 84.0547C63.2734 83.9336 63.1855 83.7812 63.084 83.5977H63.0605C63.041 83.6328 62.9492 83.7852 62.7852 84.0547L61.584 86H60.4766L62.5215 83.0586L60.5645 80H61.6836L62.8438 82.0508C62.9297 82.2031 63.0137 82.3594 63.0957 82.5195H63.1191L64.6191 80H65.6797ZM69.5879 85.9414C69.3613 86.0664 69.0625 86.1289 68.6914 86.1289C67.6406 86.1289 67.1152 85.543 67.1152 84.3711V80.8203H66.084V80H67.1152V78.5352L68.0762 78.2246V80H69.5879V80.8203H68.0762V84.2012C68.0762 84.6035 68.1445 84.8906 68.2812 85.0625C68.418 85.2344 68.6445 85.3203 68.9609 85.3203C69.2031 85.3203 69.4121 85.2539 69.5879 85.1211V85.9414ZM75.5996 83.2402H71.3633C71.3789 83.9082 71.5586 84.4238 71.9023 84.7871C72.2461 85.1504 72.7188 85.332 73.3203 85.332C73.9961 85.332 74.6172 85.1094 75.1836 84.6641V85.5664C74.6562 85.9492 73.959 86.1406 73.0918 86.1406C72.2441 86.1406 71.5781 85.8691 71.0938 85.3262C70.6094 84.7793 70.3672 84.0117 70.3672 83.0234C70.3672 82.0898 70.6309 81.3301 71.1582 80.7441C71.6895 80.1543 72.3477 79.8594 73.1328 79.8594C73.918 79.8594 74.5254 80.1133 74.9551 80.6211C75.3848 81.1289 75.5996 81.834 75.5996 82.7363V83.2402ZM74.6152 82.4258C74.6113 81.8711 74.4766 81.4395 74.2109 81.1309C73.9492 80.8223 73.584 80.668 73.1152 80.668C72.6621 80.668 72.2773 80.8301 71.9609 81.1543C71.6445 81.4785 71.4492 81.9023 71.375 82.4258H74.6152ZM82.0391 86H81.0781V82.5781C81.0781 81.3047 80.6133 80.668 79.6836 80.668C79.2031 80.668 78.8047 80.8496 78.4883 81.2129C78.1758 81.5723 78.0195 82.0273 78.0195 82.5781V86H77.0586V80H78.0195V80.9961H78.043C78.4961 80.2383 79.1523 79.8594 80.0117 79.8594C80.668 79.8594 81.1699 80.0723 81.5176 80.498C81.8652 80.9199 82.0391 81.5312 82.0391 82.332V86ZM83.4922 85.7832V84.752C84.0156 85.1387 84.5918 85.332 85.2207 85.332C86.0645 85.332 86.4863 85.0508 86.4863 84.4883C86.4863 84.3281 86.4492 84.1934 86.375 84.084C86.3047 83.9707 86.207 83.8711 86.082 83.7852C85.9609 83.6992 85.8164 83.623 85.6484 83.5566C85.4844 83.4863 85.3066 83.4141 85.1152 83.3398C84.8496 83.2344 84.6152 83.1289 84.4121 83.0234C84.2129 82.9141 84.0449 82.793 83.9082 82.6602C83.7754 82.5234 83.6738 82.3691 83.6035 82.1973C83.5371 82.0254 83.5039 81.8242 83.5039 81.5938C83.5039 81.3125 83.5684 81.0645 83.6973 80.8496C83.8262 80.6309 83.998 80.4492 84.2129 80.3047C84.4277 80.1562 84.6719 80.0449 84.9453 79.9707C85.2227 79.8965 85.5078 79.8594 85.8008 79.8594C86.3203 79.8594 86.7852 79.9492 87.1953 80.1289V81.1016C86.7539 80.8125 86.2461 80.668 85.6719 80.668C85.4922 80.668 85.3301 80.6895 85.1855 80.7324C85.041 80.7715 84.916 80.8281 84.8105 80.9023C84.709 80.9766 84.6289 81.0664 84.5703 81.1719C84.5156 81.2734 84.4883 81.3867 84.4883 81.5117C84.4883 81.668 84.5156 81.7988 84.5703 81.9043C84.6289 82.0098 84.7129 82.1035 84.8223 82.1855C84.9316 82.2676 85.0645 82.3418 85.2207 82.4082C85.377 82.4746 85.5547 82.5469 85.7539 82.625C86.0195 82.7266 86.2578 82.832 86.4688 82.9414C86.6797 83.0469 86.8594 83.168 87.0078 83.3047C87.1562 83.4375 87.2695 83.5918 87.3477 83.7676C87.4297 83.9434 87.4707 84.1523 87.4707 84.3945C87.4707 84.6914 87.4043 84.9492 87.2715 85.168C87.1426 85.3867 86.9688 85.5684 86.75 85.7129C86.5312 85.8574 86.2793 85.9648 85.9941 86.0352C85.709 86.1055 85.4102 86.1406 85.0977 86.1406C84.4805 86.1406 83.9453 86.0215 83.4922 85.7832ZM89.4453 78.4766C89.2734 78.4766 89.127 78.418 89.0059 78.3008C88.8848 78.1836 88.8242 78.0352 88.8242 77.8555C88.8242 77.6758 88.8848 77.5273 89.0059 77.4102C89.127 77.2891 89.2734 77.2285 89.4453 77.2285C89.6211 77.2285 89.7695 77.2891 89.8906 77.4102C90.0156 77.5273 90.0781 77.6758 90.0781 77.8555C90.0781 78.0273 90.0156 78.1738 89.8906 78.2949C89.7695 78.416 89.6211 78.4766 89.4453 78.4766ZM89.9141 86H88.9531V80H89.9141V86ZM94.3672 86.1406C93.4805 86.1406 92.7715 85.8613 92.2402 85.3027C91.7129 84.7402 91.4492 83.9961 91.4492 83.0703C91.4492 82.0625 91.7246 81.2754 92.2754 80.709C92.8262 80.1426 93.5703 79.8594 94.5078 79.8594C95.4023 79.8594 96.0996 80.1348 96.5996 80.6855C97.1035 81.2363 97.3555 82 97.3555 82.9766C97.3555 83.9336 97.084 84.7012 96.541 85.2793C96.002 85.8535 95.2773 86.1406 94.3672 86.1406ZM94.4375 80.668C93.8203 80.668 93.332 80.8789 92.9727 81.3008C92.6133 81.7188 92.4336 82.2969 92.4336 83.0352C92.4336 83.7461 92.6152 84.3066 92.9785 84.7168C93.3418 85.127 93.8281 85.332 94.4375 85.332C95.0586 85.332 95.5352 85.1309 95.8672 84.7285C96.2031 84.3262 96.3711 83.7539 96.3711 83.0117C96.3711 82.2617 96.2031 81.6836 95.8672 81.2773C95.5352 80.8711 95.0586 80.668 94.4375 80.668ZM103.871 86H102.91V82.5781C102.91 81.3047 102.445 80.668 101.516 80.668C101.035 80.668 100.637 80.8496 100.32 81.2129C100.008 81.5723 99.8516 82.0273 99.8516 82.5781V86H98.8906V80H99.8516V80.9961H99.875C100.328 80.2383 100.984 79.8594 101.844 79.8594C102.5 79.8594 103.002 80.0723 103.35 80.498C103.697 80.9199 103.871 81.5312 103.871 82.332V86ZM105.324 85.7832V84.752C105.848 85.1387 106.424 85.332 107.053 85.332C107.896 85.332 108.318 85.0508 108.318 84.4883C108.318 84.3281 108.281 84.1934 108.207 84.084C108.137 83.9707 108.039 83.8711 107.914 83.7852C107.793 83.6992 107.648 83.623 107.48 83.5566C107.316 83.4863 107.139 83.4141 106.947 83.3398C106.682 83.2344 106.447 83.1289 106.244 83.0234C106.045 82.9141 105.877 82.793 105.74 82.6602C105.607 82.5234 105.506 82.3691 105.436 82.1973C105.369 82.0254 105.336 81.8242 105.336 81.5938C105.336 81.3125 105.4 81.0645 105.529 80.8496C105.658 80.6309 105.83 80.4492 106.045 80.3047C106.26 80.1562 106.504 80.0449 106.777 79.9707C107.055 79.8965 107.34 79.8594 107.633 79.8594C108.152 79.8594 108.617 79.9492 109.027 80.1289V81.1016C108.586 80.8125 108.078 80.668 107.504 80.668C107.324 80.668 107.162 80.6895 107.018 80.7324C106.873 80.7715 106.748 80.8281 106.643 80.9023C106.541 80.9766 106.461 81.0664 106.402 81.1719C106.348 81.2734 106.32 81.3867 106.32 81.5117C106.32 81.668 106.348 81.7988 106.402 81.9043C106.461 82.0098 106.545 82.1035 106.654 82.1855C106.764 82.2676 106.896 82.3418 107.053 82.4082C107.209 82.4746 107.387 82.5469 107.586 82.625C107.852 82.7266 108.09 82.832 108.301 82.9414C108.512 83.0469 108.691 83.168 108.84 83.3047C108.988 83.4375 109.102 83.5918 109.18 83.7676C109.262 83.9434 109.303 84.1523 109.303 84.3945C109.303 84.6914 109.236 84.9492 109.104 85.168C108.975 85.3867 108.801 85.5684 108.582 85.7129C108.363 85.8574 108.111 85.9648 107.826 86.0352C107.541 86.1055 107.242 86.1406 106.93 86.1406C106.312 86.1406 105.777 86.0215 105.324 85.7832ZM118.168 85.7246C117.707 86.002 117.16 86.1406 116.527 86.1406C115.672 86.1406 114.98 85.8633 114.453 85.3086C113.93 84.75 113.668 84.0273 113.668 83.1406C113.668 82.1523 113.951 81.3594 114.518 80.7617C115.084 80.1602 115.84 79.8594 116.785 79.8594C117.312 79.8594 117.777 79.957 118.18 80.1523V81.1367C117.734 80.8242 117.258 80.668 116.75 80.668C116.137 80.668 115.633 80.8887 115.238 81.3301C114.848 81.7676 114.652 82.3438 114.652 83.0586C114.652 83.7617 114.836 84.3164 115.203 84.7227C115.574 85.1289 116.07 85.332 116.691 85.332C117.215 85.332 117.707 85.1582 118.168 84.8105V85.7246ZM123.916 86H122.955V85.0625H122.932C122.514 85.7812 121.898 86.1406 121.086 86.1406C120.488 86.1406 120.02 85.9824 119.68 85.666C119.344 85.3496 119.176 84.9297 119.176 84.4062C119.176 83.2852 119.836 82.6328 121.156 82.4492L122.955 82.1973C122.955 81.1777 122.543 80.668 121.719 80.668C120.996 80.668 120.344 80.9141 119.762 81.4062V80.4219C120.352 80.0469 121.031 79.8594 121.801 79.8594C123.211 79.8594 123.916 80.6055 123.916 82.0977V86ZM122.955 82.9648L121.508 83.1641C121.062 83.2266 120.727 83.3379 120.5 83.498C120.273 83.6543 120.16 83.9336 120.16 84.3359C120.16 84.6289 120.264 84.8691 120.471 85.0566C120.682 85.2402 120.961 85.332 121.309 85.332C121.785 85.332 122.178 85.166 122.486 84.834C122.799 84.498 122.955 84.0742 122.955 83.5625V82.9648ZM130.707 86H129.746V82.5781C129.746 81.3047 129.281 80.668 128.352 80.668C127.871 80.668 127.473 80.8496 127.156 81.2129C126.844 81.5723 126.688 82.0273 126.688 82.5781V86H125.727V80H126.688V80.9961H126.711C127.164 80.2383 127.82 79.8594 128.68 79.8594C129.336 79.8594 129.838 80.0723 130.186 80.498C130.533 80.9199 130.707 81.5312 130.707 82.332V86ZM135.453 85.7832V84.752C135.977 85.1387 136.553 85.332 137.182 85.332C138.025 85.332 138.447 85.0508 138.447 84.4883C138.447 84.3281 138.41 84.1934 138.336 84.084C138.266 83.9707 138.168 83.8711 138.043 83.7852C137.922 83.6992 137.777 83.623 137.609 83.5566C137.445 83.4863 137.268 83.4141 137.076 83.3398C136.811 83.2344 136.576 83.1289 136.373 83.0234C136.174 82.9141 136.006 82.793 135.869 82.6602C135.736 82.5234 135.635 82.3691 135.564 82.1973C135.498 82.0254 135.465 81.8242 135.465 81.5938C135.465 81.3125 135.529 81.0645 135.658 80.8496C135.787 80.6309 135.959 80.4492 136.174 80.3047C136.389 80.1562 136.633 80.0449 136.906 79.9707C137.184 79.8965 137.469 79.8594 137.762 79.8594C138.281 79.8594 138.746 79.9492 139.156 80.1289V81.1016C138.715 80.8125 138.207 80.668 137.633 80.668C137.453 80.668 137.291 80.6895 137.146 80.7324C137.002 80.7715 136.877 80.8281 136.771 80.9023C136.67 80.9766 136.59 81.0664 136.531 81.1719C136.477 81.2734 136.449 81.3867 136.449 81.5117C136.449 81.668 136.477 81.7988 136.531 81.9043C136.59 82.0098 136.674 82.1035 136.783 82.1855C136.893 82.2676 137.025 82.3418 137.182 82.4082C137.338 82.4746 137.516 82.5469 137.715 82.625C137.98 82.7266 138.219 82.832 138.43 82.9414C138.641 83.0469 138.82 83.168 138.969 83.3047C139.117 83.4375 139.23 83.5918 139.309 83.7676C139.391 83.9434 139.432 84.1523 139.432 84.3945C139.432 84.6914 139.365 84.9492 139.232 85.168C139.104 85.3867 138.93 85.5684 138.711 85.7129C138.492 85.8574 138.24 85.9648 137.955 86.0352C137.67 86.1055 137.371 86.1406 137.059 86.1406C136.441 86.1406 135.906 86.0215 135.453 85.7832ZM145.736 83.2402H141.5C141.516 83.9082 141.695 84.4238 142.039 84.7871C142.383 85.1504 142.855 85.332 143.457 85.332C144.133 85.332 144.754 85.1094 145.32 84.6641V85.5664C144.793 85.9492 144.096 86.1406 143.229 86.1406C142.381 86.1406 141.715 85.8691 141.23 85.3262C140.746 84.7793 140.504 84.0117 140.504 83.0234C140.504 82.0898 140.768 81.3301 141.295 80.7441C141.826 80.1543 142.484 79.8594 143.27 79.8594C144.055 79.8594 144.662 80.1133 145.092 80.6211C145.521 81.1289 145.736 81.834 145.736 82.7363V83.2402ZM144.752 82.4258C144.748 81.8711 144.613 81.4395 144.348 81.1309C144.086 80.8223 143.721 80.668 143.252 80.668C142.799 80.668 142.414 80.8301 142.098 81.1543C141.781 81.4785 141.586 81.9023 141.512 82.4258H144.752ZM152.018 83.2402H147.781C147.797 83.9082 147.977 84.4238 148.32 84.7871C148.664 85.1504 149.137 85.332 149.738 85.332C150.414 85.332 151.035 85.1094 151.602 84.6641V85.5664C151.074 85.9492 150.377 86.1406 149.51 86.1406C148.662 86.1406 147.996 85.8691 147.512 85.3262C147.027 84.7793 146.785 84.0117 146.785 83.0234C146.785 82.0898 147.049 81.3301 147.576 80.7441C148.107 80.1543 148.766 79.8594 149.551 79.8594C150.336 79.8594 150.943 80.1133 151.373 80.6211C151.803 81.1289 152.018 81.834 152.018 82.7363V83.2402ZM151.033 82.4258C151.029 81.8711 150.895 81.4395 150.629 81.1309C150.367 80.8223 150.002 80.668 149.533 80.668C149.08 80.668 148.695 80.8301 148.379 81.1543C148.062 81.4785 147.867 81.9023 147.793 82.4258H151.033ZM161.064 86H160.104V85.0625H160.08C159.662 85.7812 159.047 86.1406 158.234 86.1406C157.637 86.1406 157.168 85.9824 156.828 85.666C156.492 85.3496 156.324 84.9297 156.324 84.4062C156.324 83.2852 156.984 82.6328 158.305 82.4492L160.104 82.1973C160.104 81.1777 159.691 80.668 158.867 80.668C158.145 80.668 157.492 80.9141 156.91 81.4062V80.4219C157.5 80.0469 158.18 79.8594 158.949 79.8594C160.359 79.8594 161.064 80.6055 161.064 82.0977V86ZM160.104 82.9648L158.656 83.1641C158.211 83.2266 157.875 83.3379 157.648 83.498C157.422 83.6543 157.309 83.9336 157.309 84.3359C157.309 84.6289 157.412 84.8691 157.619 85.0566C157.83 85.2402 158.109 85.332 158.457 85.332C158.934 85.332 159.326 85.166 159.635 84.834C159.947 84.498 160.104 84.0742 160.104 83.5625V82.9648ZM167.855 86H166.895V82.5781C166.895 81.3047 166.43 80.668 165.5 80.668C165.02 80.668 164.621 80.8496 164.305 81.2129C163.992 81.5723 163.836 82.0273 163.836 82.5781V86H162.875V80H163.836V80.9961H163.859C164.312 80.2383 164.969 79.8594 165.828 79.8594C166.484 79.8594 166.986 80.0723 167.334 80.498C167.682 80.9199 167.855 81.5312 167.855 82.332V86ZM174.793 86H173.832V84.9805H173.809C173.363 85.7539 172.676 86.1406 171.746 86.1406C170.992 86.1406 170.389 85.873 169.936 85.3379C169.486 84.7988 169.262 84.0664 169.262 83.1406C169.262 82.1484 169.512 81.3535 170.012 80.7559C170.512 80.1582 171.178 79.8594 172.01 79.8594C172.834 79.8594 173.434 80.1836 173.809 80.832H173.832V77.1172H174.793V86ZM173.832 83.2871V82.4023C173.832 81.918 173.672 81.5078 173.352 81.1719C173.031 80.8359 172.625 80.668 172.133 80.668C171.547 80.668 171.086 80.8828 170.75 81.3125C170.414 81.7422 170.246 82.3359 170.246 83.0938C170.246 83.7852 170.406 84.332 170.727 84.7344C171.051 85.1328 171.484 85.332 172.027 85.332C172.562 85.332 172.996 85.1387 173.328 84.752C173.664 84.3652 173.832 83.877 173.832 83.2871ZM184.121 85.7246C183.66 86.002 183.113 86.1406 182.48 86.1406C181.625 86.1406 180.934 85.8633 180.406 85.3086C179.883 84.75 179.621 84.0273 179.621 83.1406C179.621 82.1523 179.904 81.3594 180.471 80.7617C181.037 80.1602 181.793 79.8594 182.738 79.8594C183.266 79.8594 183.73 79.957 184.133 80.1523V81.1367C183.688 80.8242 183.211 80.668 182.703 80.668C182.09 80.668 181.586 80.8887 181.191 81.3301C180.801 81.7676 180.605 82.3438 180.605 83.0586C180.605 83.7617 180.789 84.3164 181.156 84.7227C181.527 85.1289 182.023 85.332 182.645 85.332C183.168 85.332 183.66 85.1582 184.121 84.8105V85.7246ZM190.555 86H189.594V82.543C189.594 81.293 189.129 80.668 188.199 80.668C187.73 80.668 187.336 80.8496 187.016 81.2129C186.695 81.5723 186.535 82.0352 186.535 82.6016V86H185.574V77.1172H186.535V80.9961H186.559C187.02 80.2383 187.676 79.8594 188.527 79.8594C189.879 79.8594 190.555 80.6738 190.555 82.3027V86ZM196.666 86H195.705V85.0625H195.682C195.264 85.7812 194.648 86.1406 193.836 86.1406C193.238 86.1406 192.77 85.9824 192.43 85.666C192.094 85.3496 191.926 84.9297 191.926 84.4062C191.926 83.2852 192.586 82.6328 193.906 82.4492L195.705 82.1973C195.705 81.1777 195.293 80.668 194.469 80.668C193.746 80.668 193.094 80.9141 192.512 81.4062V80.4219C193.102 80.0469 193.781 79.8594 194.551 79.8594C195.961 79.8594 196.666 80.6055 196.666 82.0977V86ZM195.705 82.9648L194.258 83.1641C193.812 83.2266 193.477 83.3379 193.25 83.498C193.023 83.6543 192.91 83.9336 192.91 84.3359C192.91 84.6289 193.014 84.8691 193.221 85.0566C193.432 85.2402 193.711 85.332 194.059 85.332C194.535 85.332 194.928 85.166 195.236 84.834C195.549 84.498 195.705 84.0742 195.705 83.5625V82.9648ZM203.457 86H202.496V82.5781C202.496 81.3047 202.031 80.668 201.102 80.668C200.621 80.668 200.223 80.8496 199.906 81.2129C199.594 81.5723 199.438 82.0273 199.438 82.5781V86H198.477V80H199.438V80.9961H199.461C199.914 80.2383 200.57 79.8594 201.43 79.8594C202.086 79.8594 202.588 80.0723 202.936 80.498C203.283 80.9199 203.457 81.5312 203.457 82.332V86ZM210.395 85.5195C210.395 87.7227 209.34 88.8242 207.23 88.8242C206.488 88.8242 205.84 88.6836 205.285 88.4023V87.4414C205.961 87.8164 206.605 88.0039 207.219 88.0039C208.695 88.0039 209.434 87.2188 209.434 85.6484V84.9922H209.41C208.953 85.7578 208.266 86.1406 207.348 86.1406C206.602 86.1406 206 85.875 205.543 85.3438C205.09 84.8086 204.863 84.0918 204.863 83.1934C204.863 82.1738 205.107 81.3633 205.596 80.7617C206.088 80.1602 206.76 79.8594 207.611 79.8594C208.42 79.8594 209.02 80.1836 209.41 80.832H209.434V80H210.395V85.5195ZM209.434 83.2871V82.4023C209.434 81.9258 209.271 81.5176 208.947 81.1777C208.627 80.8379 208.227 80.668 207.746 80.668C207.152 80.668 206.688 80.8848 206.352 81.3184C206.016 81.748 205.848 82.3516 205.848 83.1289C205.848 83.7969 206.008 84.332 206.328 84.7344C206.652 85.1328 207.08 85.332 207.611 85.332C208.15 85.332 208.588 85.1406 208.924 84.7578C209.264 84.375 209.434 83.8848 209.434 83.2871ZM217.162 83.2402H212.926C212.941 83.9082 213.121 84.4238 213.465 84.7871C213.809 85.1504 214.281 85.332 214.883 85.332C215.559 85.332 216.18 85.1094 216.746 84.6641V85.5664C216.219 85.9492 215.521 86.1406 214.654 86.1406C213.807 86.1406 213.141 85.8691 212.656 85.3262C212.172 84.7793 211.93 84.0117 211.93 83.0234C211.93 82.0898 212.193 81.3301 212.721 80.7441C213.252 80.1543 213.91 79.8594 214.695 79.8594C215.48 79.8594 216.088 80.1133 216.518 80.6211C216.947 81.1289 217.162 81.834 217.162 82.7363V83.2402ZM216.178 82.4258C216.174 81.8711 216.039 81.4395 215.773 81.1309C215.512 80.8223 215.146 80.668 214.678 80.668C214.225 80.668 213.84 80.8301 213.523 81.1543C213.207 81.4785 213.012 81.9023 212.938 82.4258H216.178ZM222.406 78.4766C222.234 78.4766 222.088 78.418 221.967 78.3008C221.846 78.1836 221.785 78.0352 221.785 77.8555C221.785 77.6758 221.846 77.5273 221.967 77.4102C222.088 77.2891 222.234 77.2285 222.406 77.2285C222.582 77.2285 222.73 77.2891 222.852 77.4102C222.977 77.5273 223.039 77.6758 223.039 77.8555C223.039 78.0273 222.977 78.1738 222.852 78.2949C222.73 78.416 222.582 78.4766 222.406 78.4766ZM222.875 86H221.914V80H222.875V86ZM229.801 86H228.84V82.5781C228.84 81.3047 228.375 80.668 227.445 80.668C226.965 80.668 226.566 80.8496 226.25 81.2129C225.938 81.5723 225.781 82.0273 225.781 82.5781V86H224.82V80H225.781V80.9961H225.805C226.258 80.2383 226.914 79.8594 227.773 79.8594C228.43 79.8594 228.932 80.0723 229.279 80.498C229.627 80.9199 229.801 81.5312 229.801 82.332V86ZM234.582 77.9609C234.395 77.8555 234.182 77.8027 233.943 77.8027C233.271 77.8027 232.936 78.2266 232.936 79.0742V80H234.342V80.8203H232.936V86H231.98V80.8203H230.955V80H231.98V79.0273C231.98 78.3984 232.162 77.9023 232.525 77.5391C232.889 77.1719 233.342 76.9883 233.885 76.9883C234.178 76.9883 234.41 77.0234 234.582 77.0938V77.9609ZM237.887 86.1406C237 86.1406 236.291 85.8613 235.76 85.3027C235.232 84.7402 234.969 83.9961 234.969 83.0703C234.969 82.0625 235.244 81.2754 235.795 80.709C236.346 80.1426 237.09 79.8594 238.027 79.8594C238.922 79.8594 239.619 80.1348 240.119 80.6855C240.623 81.2363 240.875 82 240.875 82.9766C240.875 83.9336 240.604 84.7012 240.061 85.2793C239.521 85.8535 238.797 86.1406 237.887 86.1406ZM237.957 80.668C237.34 80.668 236.852 80.8789 236.492 81.3008C236.133 81.7188 235.953 82.2969 235.953 83.0352C235.953 83.7461 236.135 84.3066 236.498 84.7168C236.861 85.127 237.348 85.332 237.957 85.332C238.578 85.332 239.055 85.1309 239.387 84.7285C239.723 84.3262 239.891 83.7539 239.891 83.0117C239.891 82.2617 239.723 81.6836 239.387 81.2773C239.055 80.8711 238.578 80.668 237.957 80.668ZM245.539 80.9727C245.371 80.8438 245.129 80.7793 244.812 80.7793C244.402 80.7793 244.059 80.9727 243.781 81.3594C243.508 81.7461 243.371 82.2734 243.371 82.9414V86H242.41V80H243.371V81.2363H243.395C243.531 80.8145 243.74 80.4863 244.021 80.252C244.303 80.0137 244.617 79.8945 244.965 79.8945C245.215 79.8945 245.406 79.9219 245.539 79.9766V80.9727ZM255.078 86H254.117V82.5547C254.117 81.8906 254.014 81.4102 253.807 81.1133C253.604 80.8164 253.26 80.668 252.775 80.668C252.365 80.668 252.016 80.8555 251.727 81.2305C251.441 81.6055 251.299 82.0547 251.299 82.5781V86H250.338V82.4375C250.338 81.2578 249.883 80.668 248.973 80.668C248.551 80.668 248.203 80.8457 247.93 81.2012C247.656 81.5527 247.52 82.0117 247.52 82.5781V86H246.559V80H247.52V80.9492H247.543C247.969 80.2227 248.59 79.8594 249.406 79.8594C249.816 79.8594 250.174 79.9746 250.479 80.2051C250.783 80.4316 250.992 80.7305 251.105 81.1016C251.551 80.2734 252.215 79.8594 253.098 79.8594C254.418 79.8594 255.078 80.6738 255.078 82.3027V86ZM261.189 86H260.229V85.0625H260.205C259.787 85.7812 259.172 86.1406 258.359 86.1406C257.762 86.1406 257.293 85.9824 256.953 85.666C256.617 85.3496 256.449 84.9297 256.449 84.4062C256.449 83.2852 257.109 82.6328 258.43 82.4492L260.229 82.1973C260.229 81.1777 259.816 80.668 258.992 80.668C258.27 80.668 257.617 80.9141 257.035 81.4062V80.4219C257.625 80.0469 258.305 79.8594 259.074 79.8594C260.484 79.8594 261.189 80.6055 261.189 82.0977V86ZM260.229 82.9648L258.781 83.1641C258.336 83.2266 258 83.3379 257.773 83.498C257.547 83.6543 257.434 83.9336 257.434 84.3359C257.434 84.6289 257.537 84.8691 257.744 85.0566C257.955 85.2402 258.234 85.332 258.582 85.332C259.059 85.332 259.451 85.166 259.76 84.834C260.072 84.498 260.229 84.0742 260.229 83.5625V82.9648ZM265.783 85.9414C265.557 86.0664 265.258 86.1289 264.887 86.1289C263.836 86.1289 263.311 85.543 263.311 84.3711V80.8203H262.279V80H263.311V78.5352L264.271 78.2246V80H265.783V80.8203H264.271V84.2012C264.271 84.6035 264.34 84.8906 264.477 85.0625C264.613 85.2344 264.84 85.3203 265.156 85.3203C265.398 85.3203 265.607 85.2539 265.783 85.1211V85.9414ZM267.559 78.4766C267.387 78.4766 267.24 78.418 267.119 78.3008C266.998 78.1836 266.938 78.0352 266.938 77.8555C266.938 77.6758 266.998 77.5273 267.119 77.4102C267.24 77.2891 267.387 77.2285 267.559 77.2285C267.734 77.2285 267.883 77.2891 268.004 77.4102C268.129 77.5273 268.191 77.6758 268.191 77.8555C268.191 78.0273 268.129 78.1738 268.004 78.2949C267.883 78.416 267.734 78.4766 267.559 78.4766ZM268.027 86H267.066V80H268.027V86ZM272.48 86.1406C271.594 86.1406 270.885 85.8613 270.354 85.3027C269.826 84.7402 269.562 83.9961 269.562 83.0703C269.562 82.0625 269.838 81.2754 270.389 80.709C270.939 80.1426 271.684 79.8594 272.621 79.8594C273.516 79.8594 274.213 80.1348 274.713 80.6855C275.217 81.2363 275.469 82 275.469 82.9766C275.469 83.9336 275.197 84.7012 274.654 85.2793C274.115 85.8535 273.391 86.1406 272.48 86.1406ZM272.551 80.668C271.934 80.668 271.445 80.8789 271.086 81.3008C270.727 81.7188 270.547 82.2969 270.547 83.0352C270.547 83.7461 270.729 84.3066 271.092 84.7168C271.455 85.127 271.941 85.332 272.551 85.332C273.172 85.332 273.648 85.1309 273.98 84.7285C274.316 84.3262 274.484 83.7539 274.484 83.0117C274.484 82.2617 274.316 81.6836 273.98 81.2773C273.648 80.8711 273.172 80.668 272.551 80.668ZM281.984 86H281.023V82.5781C281.023 81.3047 280.559 80.668 279.629 80.668C279.148 80.668 278.75 80.8496 278.434 81.2129C278.121 81.5723 277.965 82.0273 277.965 82.5781V86H277.004V80H277.965V80.9961H277.988C278.441 80.2383 279.098 79.8594 279.957 79.8594C280.613 79.8594 281.115 80.0723 281.463 80.498C281.811 80.9199 281.984 81.5312 281.984 82.332V86ZM289.602 86.1406C288.715 86.1406 288.006 85.8613 287.475 85.3027C286.947 84.7402 286.684 83.9961 286.684 83.0703C286.684 82.0625 286.959 81.2754 287.51 80.709C288.061 80.1426 288.805 79.8594 289.742 79.8594C290.637 79.8594 291.334 80.1348 291.834 80.6855C292.338 81.2363 292.59 82 292.59 82.9766C292.59 83.9336 292.318 84.7012 291.775 85.2793C291.236 85.8535 290.512 86.1406 289.602 86.1406ZM289.672 80.668C289.055 80.668 288.566 80.8789 288.207 81.3008C287.848 81.7188 287.668 82.2969 287.668 83.0352C287.668 83.7461 287.85 84.3066 288.213 84.7168C288.576 85.127 289.062 85.332 289.672 85.332C290.293 85.332 290.77 85.1309 291.102 84.7285C291.438 84.3262 291.605 83.7539 291.605 83.0117C291.605 82.2617 291.438 81.6836 291.102 81.2773C290.77 80.8711 290.293 80.668 289.672 80.668ZM299.105 86H298.145V82.5781C298.145 81.3047 297.68 80.668 296.75 80.668C296.27 80.668 295.871 80.8496 295.555 81.2129C295.242 81.5723 295.086 82.0273 295.086 82.5781V86H294.125V80H295.086V80.9961H295.109C295.562 80.2383 296.219 79.8594 297.078 79.8594C297.734 79.8594 298.236 80.0723 298.584 80.498C298.932 80.9199 299.105 81.5312 299.105 82.332V86ZM23.7559 105.941C23.5293 106.066 23.2305 106.129 22.8594 106.129C21.8086 106.129 21.2832 105.543 21.2832 104.371V100.82H20.252V100H21.2832V98.5352L22.2441 98.2246V100H23.7559V100.82H22.2441V104.201C22.2441 104.604 22.3125 104.891 22.4492 105.062C22.5859 105.234 22.8125 105.32 23.1289 105.32C23.3711 105.32 23.5801 105.254 23.7559 105.121V105.941ZM30.0195 106H29.0586V102.543C29.0586 101.293 28.5938 100.668 27.6641 100.668C27.1953 100.668 26.8008 100.85 26.4805 101.213C26.1602 101.572 26 102.035 26 102.602V106H25.0391V97.1172H26V100.996H26.0234C26.4844 100.238 27.1406 99.8594 27.9922 99.8594C29.3438 99.8594 30.0195 100.674 30.0195 102.303V106ZM32.3281 98.4766C32.1562 98.4766 32.0098 98.418 31.8887 98.3008C31.7676 98.1836 31.707 98.0352 31.707 97.8555C31.707 97.6758 31.7676 97.5273 31.8887 97.4102C32.0098 97.2891 32.1562 97.2285 32.3281 97.2285C32.5039 97.2285 32.6523 97.2891 32.7734 97.4102C32.8984 97.5273 32.9609 97.6758 32.9609 97.8555C32.9609 98.0273 32.8984 98.1738 32.7734 98.2949C32.6523 98.416 32.5039 98.4766 32.3281 98.4766ZM32.7969 106H31.8359V100H32.7969V106ZM34.3789 105.783V104.752C34.9023 105.139 35.4785 105.332 36.1074 105.332C36.9512 105.332 37.373 105.051 37.373 104.488C37.373 104.328 37.3359 104.193 37.2617 104.084C37.1914 103.971 37.0938 103.871 36.9688 103.785C36.8477 103.699 36.7031 103.623 36.5352 103.557C36.3711 103.486 36.1934 103.414 36.002 103.34C35.7363 103.234 35.502 103.129 35.2988 103.023C35.0996 102.914 34.9316 102.793 34.7949 102.66C34.6621 102.523 34.5605 102.369 34.4902 102.197C34.4238 102.025 34.3906 101.824 34.3906 101.594C34.3906 101.312 34.4551 101.064 34.584 100.85C34.7129 100.631 34.8848 100.449 35.0996 100.305C35.3145 100.156 35.5586 100.045 35.832 99.9707C36.1094 99.8965 36.3945 99.8594 36.6875 99.8594C37.207 99.8594 37.6719 99.9492 38.082 100.129V101.102C37.6406 100.812 37.1328 100.668 36.5586 100.668C36.3789 100.668 36.2168 100.689 36.0723 100.732C35.9277 100.771 35.8027 100.828 35.6973 100.902C35.5957 100.977 35.5156 101.066 35.457 101.172C35.4023 101.273 35.375 101.387 35.375 101.512C35.375 101.668 35.4023 101.799 35.457 101.904C35.5156 102.01 35.5996 102.104 35.709 102.186C35.8184 102.268 35.9512 102.342 36.1074 102.408C36.2637 102.475 36.4414 102.547 36.6406 102.625C36.9062 102.727 37.1445 102.832 37.3555 102.941C37.5664 103.047 37.7461 103.168 37.8945 103.305C38.043 103.438 38.1562 103.592 38.2344 103.768C38.3164 103.943 38.3574 104.152 38.3574 104.395C38.3574 104.691 38.291 104.949 38.1582 105.168C38.0293 105.387 37.8555 105.568 37.6367 105.713C37.418 105.857 37.166 105.965 36.8809 106.035C36.5957 106.105 36.2969 106.141 35.9844 106.141C35.3672 106.141 34.832 106.021 34.3789 105.783ZM42.7695 105.783V104.752C43.293 105.139 43.8691 105.332 44.498 105.332C45.3418 105.332 45.7637 105.051 45.7637 104.488C45.7637 104.328 45.7266 104.193 45.6523 104.084C45.582 103.971 45.4844 103.871 45.3594 103.785C45.2383 103.699 45.0938 103.623 44.9258 103.557C44.7617 103.486 44.584 103.414 44.3926 103.34C44.127 103.234 43.8926 103.129 43.6895 103.023C43.4902 102.914 43.3223 102.793 43.1855 102.66C43.0527 102.523 42.9512 102.369 42.8809 102.197C42.8145 102.025 42.7812 101.824 42.7812 101.594C42.7812 101.312 42.8457 101.064 42.9746 100.85C43.1035 100.631 43.2754 100.449 43.4902 100.305C43.7051 100.156 43.9492 100.045 44.2227 99.9707C44.5 99.8965 44.7852 99.8594 45.0781 99.8594C45.5977 99.8594 46.0625 99.9492 46.4727 100.129V101.102C46.0312 100.812 45.5234 100.668 44.9492 100.668C44.7695 100.668 44.6074 100.689 44.4629 100.732C44.3184 100.771 44.1934 100.828 44.0879 100.902C43.9863 100.977 43.9062 101.066 43.8477 101.172C43.793 101.273 43.7656 101.387 43.7656 101.512C43.7656 101.668 43.793 101.799 43.8477 101.904C43.9062 102.01 43.9902 102.104 44.0996 102.186C44.209 102.268 44.3418 102.342 44.498 102.408C44.6543 102.475 44.832 102.547 45.0312 102.625C45.2969 102.727 45.5352 102.832 45.7461 102.941C45.957 103.047 46.1367 103.168 46.2852 103.305C46.4336 103.438 46.5469 103.592 46.625 103.768C46.707 103.943 46.748 104.152 46.748 104.395C46.748 104.691 46.6816 104.949 46.5488 105.168C46.4199 105.387 46.2461 105.568 46.0273 105.713C45.8086 105.857 45.5566 105.965 45.2715 106.035C44.9863 106.105 44.6875 106.141 44.375 106.141C43.7578 106.141 43.2227 106.021 42.7695 105.783ZM48.7227 98.4766C48.5508 98.4766 48.4043 98.418 48.2832 98.3008C48.1621 98.1836 48.1016 98.0352 48.1016 97.8555C48.1016 97.6758 48.1621 97.5273 48.2832 97.4102C48.4043 97.2891 48.5508 97.2285 48.7227 97.2285C48.8984 97.2285 49.0469 97.2891 49.168 97.4102C49.293 97.5273 49.3555 97.6758 49.3555 97.8555C49.3555 98.0273 49.293 98.1738 49.168 98.2949C49.0469 98.416 48.8984 98.4766 48.7227 98.4766ZM49.1914 106H48.2305V100H49.1914V106ZM53.9199 105.941C53.6934 106.066 53.3945 106.129 53.0234 106.129C51.9727 106.129 51.4473 105.543 51.4473 104.371V100.82H50.416V100H51.4473V98.5352L52.4082 98.2246V100H53.9199V100.82H52.4082V104.201C52.4082 104.604 52.4766 104.891 52.6133 105.062C52.75 105.234 52.9766 105.32 53.293 105.32C53.5352 105.32 53.7441 105.254 53.9199 105.121V105.941ZM59.9316 103.24H55.6953C55.7109 103.908 55.8906 104.424 56.2344 104.787C56.5781 105.15 57.0508 105.332 57.6523 105.332C58.3281 105.332 58.9492 105.109 59.5156 104.664V105.566C58.9883 105.949 58.291 106.141 57.4238 106.141C56.5762 106.141 55.9102 105.869 55.4258 105.326C54.9414 104.779 54.6992 104.012 54.6992 103.023C54.6992 102.09 54.9629 101.33 55.4902 100.744C56.0215 100.154 56.6797 99.8594 57.4648 99.8594C58.25 99.8594 58.8574 100.113 59.2871 100.621C59.7168 101.129 59.9316 101.834 59.9316 102.736V103.24ZM58.9473 102.426C58.9434 101.871 58.8086 101.439 58.543 101.131C58.2812 100.822 57.916 100.668 57.4473 100.668C56.9941 100.668 56.6094 100.83 56.293 101.154C55.9766 101.479 55.7812 101.902 55.707 102.426H58.9473Z" fill="black"/>
<path opacity="0.7" d="M57.1016 136V127.598H59.4922C60.2188 127.598 60.7949 127.775 61.2207 128.131C61.6465 128.486 61.8594 128.949 61.8594 129.52C61.8594 129.996 61.7305 130.41 61.4727 130.762C61.2148 131.113 60.8594 131.363 60.4062 131.512V131.535C60.9727 131.602 61.4258 131.816 61.7656 132.18C62.1055 132.539 62.2754 133.008 62.2754 133.586C62.2754 134.305 62.0176 134.887 61.502 135.332C60.9863 135.777 60.3359 136 59.5508 136H57.1016ZM58.0859 128.488V131.201H59.0938C59.6328 131.201 60.0566 131.072 60.3652 130.814C60.6738 130.553 60.8281 130.186 60.8281 129.713C60.8281 128.896 60.291 128.488 59.2168 128.488H58.0859ZM58.0859 132.086V135.109H59.4219C60 135.109 60.4473 134.973 60.7637 134.699C61.084 134.426 61.2441 134.051 61.2441 133.574C61.2441 132.582 60.5684 132.086 59.2168 132.086H58.0859ZM66.9805 130.973C66.8125 130.844 66.5703 130.779 66.2539 130.779C65.8438 130.779 65.5 130.973 65.2227 131.359C64.9492 131.746 64.8125 132.273 64.8125 132.941V136H63.8516V130H64.8125V131.236H64.8359C64.9727 130.814 65.1816 130.486 65.4629 130.252C65.7441 130.014 66.0586 129.895 66.4062 129.895C66.6562 129.895 66.8477 129.922 66.9805 129.977V130.973ZM70.3672 136.141C69.4805 136.141 68.7715 135.861 68.2402 135.303C67.7129 134.74 67.4492 133.996 67.4492 133.07C67.4492 132.062 67.7246 131.275 68.2754 130.709C68.8262 130.143 69.5703 129.859 70.5078 129.859C71.4023 129.859 72.0996 130.135 72.5996 130.686C73.1035 131.236 73.3555 132 73.3555 132.977C73.3555 133.934 73.084 134.701 72.541 135.279C72.002 135.854 71.2773 136.141 70.3672 136.141ZM70.4375 130.668C69.8203 130.668 69.332 130.879 68.9727 131.301C68.6133 131.719 68.4336 132.297 68.4336 133.035C68.4336 133.746 68.6152 134.307 68.9785 134.717C69.3418 135.127 69.8281 135.332 70.4375 135.332C71.0586 135.332 71.5352 135.131 71.8672 134.729C72.2031 134.326 72.3711 133.754 72.3711 133.012C72.3711 132.262 72.2031 131.684 71.8672 131.277C71.5352 130.871 71.0586 130.668 70.4375 130.668ZM82.4492 130L80.6504 136H79.6543L78.418 131.705C78.3711 131.541 78.3398 131.355 78.3242 131.148H78.3008C78.2891 131.289 78.248 131.471 78.1777 131.693L76.8359 136H75.875L74.0586 130H75.0664L76.3086 134.512C76.3477 134.648 76.375 134.828 76.3906 135.051H76.4375C76.4492 134.879 76.4844 134.695 76.543 134.5L77.9258 130H78.8047L80.0469 134.523C80.0859 134.668 80.1152 134.848 80.1348 135.062H80.1816C80.1895 134.91 80.2227 134.73 80.2812 134.523L81.5 130H82.4492ZM83.1992 135.783V134.752C83.7227 135.139 84.2988 135.332 84.9277 135.332C85.7715 135.332 86.1934 135.051 86.1934 134.488C86.1934 134.328 86.1562 134.193 86.082 134.084C86.0117 133.971 85.9141 133.871 85.7891 133.785C85.668 133.699 85.5234 133.623 85.3555 133.557C85.1914 133.486 85.0137 133.414 84.8223 133.34C84.5566 133.234 84.3223 133.129 84.1191 133.023C83.9199 132.914 83.752 132.793 83.6152 132.66C83.4824 132.523 83.3809 132.369 83.3105 132.197C83.2441 132.025 83.2109 131.824 83.2109 131.594C83.2109 131.312 83.2754 131.064 83.4043 130.85C83.5332 130.631 83.7051 130.449 83.9199 130.305C84.1348 130.156 84.3789 130.045 84.6523 129.971C84.9297 129.896 85.2148 129.859 85.5078 129.859C86.0273 129.859 86.4922 129.949 86.9023 130.129V131.102C86.4609 130.812 85.9531 130.668 85.3789 130.668C85.1992 130.668 85.0371 130.689 84.8926 130.732C84.748 130.771 84.623 130.828 84.5176 130.902C84.416 130.977 84.3359 131.066 84.2773 131.172C84.2227 131.273 84.1953 131.387 84.1953 131.512C84.1953 131.668 84.2227 131.799 84.2773 131.904C84.3359 132.01 84.4199 132.104 84.5293 132.186C84.6387 132.268 84.7715 132.342 84.9277 132.408C85.084 132.475 85.2617 132.547 85.4609 132.625C85.7266 132.727 85.9648 132.832 86.1758 132.941C86.3867 133.047 86.5664 133.168 86.7148 133.305C86.8633 133.438 86.9766 133.592 87.0547 133.768C87.1367 133.943 87.1777 134.152 87.1777 134.395C87.1777 134.691 87.1113 134.949 86.9785 135.168C86.8496 135.387 86.6758 135.568 86.457 135.713C86.2383 135.857 85.9863 135.965 85.7012 136.035C85.416 136.105 85.1172 136.141 84.8047 136.141C84.1875 136.141 83.6523 136.021 83.1992 135.783ZM93.4824 133.24H89.2461C89.2617 133.908 89.4414 134.424 89.7852 134.787C90.1289 135.15 90.6016 135.332 91.2031 135.332C91.8789 135.332 92.5 135.109 93.0664 134.664V135.566C92.5391 135.949 91.8418 136.141 90.9746 136.141C90.127 136.141 89.4609 135.869 88.9766 135.326C88.4922 134.779 88.25 134.012 88.25 133.023C88.25 132.09 88.5137 131.33 89.041 130.744C89.5723 130.154 90.2305 129.859 91.0156 129.859C91.8008 129.859 92.4082 130.113 92.8379 130.621C93.2676 131.129 93.4824 131.834 93.4824 132.736V133.24ZM92.498 132.426C92.4941 131.871 92.3594 131.439 92.0938 131.131C91.832 130.822 91.4668 130.668 90.998 130.668C90.5449 130.668 90.1602 130.83 89.8438 131.154C89.5273 131.479 89.332 131.902 89.2578 132.426H92.498ZM99.0312 135.725C98.5703 136.002 98.0234 136.141 97.3906 136.141C96.5352 136.141 95.8438 135.863 95.3164 135.309C94.793 134.75 94.5312 134.027 94.5312 133.141C94.5312 132.152 94.8145 131.359 95.3809 130.762C95.9473 130.16 96.7031 129.859 97.6484 129.859C98.1758 129.859 98.6406 129.957 99.043 130.152V131.137C98.5977 130.824 98.1211 130.668 97.6133 130.668C97 130.668 96.4961 130.889 96.1016 131.33C95.7109 131.768 95.5156 132.344 95.5156 133.059C95.5156 133.762 95.6992 134.316 96.0664 134.723C96.4375 135.129 96.9336 135.332 97.5547 135.332C98.0781 135.332 98.5703 135.158 99.0312 134.811V135.725ZM110.152 127.598L107.041 136H105.957L102.91 127.598H104.006L106.332 134.26C106.406 134.475 106.463 134.723 106.502 135.004H106.525C106.557 134.77 106.621 134.518 106.719 134.248L109.092 127.598H110.152ZM112.344 132.824V136H111.359V127.598H113.668C114.566 127.598 115.262 127.816 115.754 128.254C116.25 128.691 116.498 129.309 116.498 130.105C116.498 130.902 116.223 131.555 115.672 132.062C115.125 132.57 114.385 132.824 113.451 132.824H112.344ZM112.344 128.488V131.934H113.375C114.055 131.934 114.572 131.779 114.928 131.471C115.287 131.158 115.467 130.719 115.467 130.152C115.467 129.043 114.811 128.488 113.498 128.488H112.344ZM124.859 136H123.652L119.328 129.303C119.219 129.135 119.129 128.959 119.059 128.775H119.023C119.055 128.955 119.07 129.34 119.07 129.93V136H118.086V127.598H119.363L123.57 134.189C123.746 134.463 123.859 134.65 123.91 134.752H123.934C123.895 134.51 123.875 134.098 123.875 133.516V127.598H124.859V136ZM133.297 133.035H130.098V132.279H133.297V133.035ZM142.719 128.488H139.438V131.395H142.473V132.279H139.438V136H138.453V127.598H142.719V128.488ZM147.312 130.973C147.145 130.844 146.902 130.779 146.586 130.779C146.176 130.779 145.832 130.973 145.555 131.359C145.281 131.746 145.145 132.273 145.145 132.941V136H144.184V130H145.145V131.236H145.168C145.305 130.814 145.514 130.486 145.795 130.252C146.076 130.014 146.391 129.895 146.738 129.895C146.988 129.895 147.18 129.922 147.312 129.977V130.973ZM153.014 133.24H148.777C148.793 133.908 148.973 134.424 149.316 134.787C149.66 135.15 150.133 135.332 150.734 135.332C151.41 135.332 152.031 135.109 152.598 134.664V135.566C152.07 135.949 151.373 136.141 150.506 136.141C149.658 136.141 148.992 135.869 148.508 135.326C148.023 134.779 147.781 134.012 147.781 133.023C147.781 132.09 148.045 131.33 148.572 130.744C149.104 130.154 149.762 129.859 150.547 129.859C151.332 129.859 151.939 130.113 152.369 130.621C152.799 131.129 153.014 131.834 153.014 132.736V133.24ZM152.029 132.426C152.025 131.871 151.891 131.439 151.625 131.131C151.363 130.822 150.998 130.668 150.529 130.668C150.076 130.668 149.691 130.83 149.375 131.154C149.059 131.479 148.863 131.902 148.789 132.426H152.029ZM159.295 133.24H155.059C155.074 133.908 155.254 134.424 155.598 134.787C155.941 135.15 156.414 135.332 157.016 135.332C157.691 135.332 158.312 135.109 158.879 134.664V135.566C158.352 135.949 157.654 136.141 156.787 136.141C155.939 136.141 155.273 135.869 154.789 135.326C154.305 134.779 154.062 134.012 154.062 133.023C154.062 132.09 154.326 131.33 154.854 130.744C155.385 130.154 156.043 129.859 156.828 129.859C157.613 129.859 158.221 130.113 158.65 130.621C159.08 131.129 159.295 131.834 159.295 132.736V133.24ZM158.311 132.426C158.307 131.871 158.172 131.439 157.906 131.131C157.645 130.822 157.279 130.668 156.811 130.668C156.357 130.668 155.973 130.83 155.656 131.154C155.34 131.479 155.145 131.902 155.07 132.426H158.311ZM168.342 136H167.381V135.062H167.357C166.939 135.781 166.324 136.141 165.512 136.141C164.914 136.141 164.445 135.982 164.105 135.666C163.77 135.35 163.602 134.93 163.602 134.406C163.602 133.285 164.262 132.633 165.582 132.449L167.381 132.197C167.381 131.178 166.969 130.668 166.145 130.668C165.422 130.668 164.77 130.914 164.188 131.406V130.422C164.777 130.047 165.457 129.859 166.227 129.859C167.637 129.859 168.342 130.605 168.342 132.098V136ZM167.381 132.965L165.934 133.164C165.488 133.227 165.152 133.338 164.926 133.498C164.699 133.654 164.586 133.934 164.586 134.336C164.586 134.629 164.689 134.869 164.896 135.057C165.107 135.24 165.387 135.332 165.734 135.332C166.211 135.332 166.604 135.166 166.912 134.834C167.225 134.498 167.381 134.074 167.381 133.562V132.965ZM175.133 136H174.172V132.578C174.172 131.305 173.707 130.668 172.777 130.668C172.297 130.668 171.898 130.85 171.582 131.213C171.27 131.572 171.113 132.027 171.113 132.578V136H170.152V130H171.113V130.996H171.137C171.59 130.238 172.246 129.859 173.105 129.859C173.762 129.859 174.264 130.072 174.611 130.498C174.959 130.92 175.133 131.531 175.133 132.332V136ZM182.07 136H181.109V134.98H181.086C180.641 135.754 179.953 136.141 179.023 136.141C178.27 136.141 177.666 135.873 177.213 135.338C176.764 134.799 176.539 134.066 176.539 133.141C176.539 132.148 176.789 131.354 177.289 130.756C177.789 130.158 178.455 129.859 179.287 129.859C180.111 129.859 180.711 130.184 181.086 130.832H181.109V127.117H182.07V136ZM181.109 133.287V132.402C181.109 131.918 180.949 131.508 180.629 131.172C180.309 130.836 179.902 130.668 179.41 130.668C178.824 130.668 178.363 130.883 178.027 131.312C177.691 131.742 177.523 132.336 177.523 133.094C177.523 133.785 177.684 134.332 178.004 134.734C178.328 135.133 178.762 135.332 179.305 135.332C179.84 135.332 180.273 135.139 180.605 134.752C180.941 134.365 181.109 133.877 181.109 133.287ZM193.584 132.602C193.584 134.961 192.52 136.141 190.391 136.141C188.352 136.141 187.332 135.006 187.332 132.736V127.598H188.316V132.672C188.316 134.395 189.043 135.256 190.496 135.256C191.898 135.256 192.6 134.424 192.6 132.76V127.598H193.584V132.602ZM200.539 136H199.578V132.578C199.578 131.305 199.113 130.668 198.184 130.668C197.703 130.668 197.305 130.85 196.988 131.213C196.676 131.572 196.52 132.027 196.52 132.578V136H195.559V130H196.52V130.996H196.543C196.996 130.238 197.652 129.859 198.512 129.859C199.168 129.859 199.67 130.072 200.018 130.498C200.365 130.92 200.539 131.531 200.539 132.332V136ZM203.316 136H202.355V127.117H203.316V136ZM205.754 128.477C205.582 128.477 205.436 128.418 205.314 128.301C205.193 128.184 205.133 128.035 205.133 127.855C205.133 127.676 205.193 127.527 205.314 127.41C205.436 127.289 205.582 127.229 205.754 127.229C205.93 127.229 206.078 127.289 206.199 127.41C206.324 127.527 206.387 127.676 206.387 127.855C206.387 128.027 206.324 128.174 206.199 128.295C206.078 128.416 205.93 128.477 205.754 128.477ZM206.223 136H205.262V130H206.223V136ZM216.688 136H215.727V132.555C215.727 131.891 215.623 131.41 215.416 131.113C215.213 130.816 214.869 130.668 214.385 130.668C213.975 130.668 213.625 130.855 213.336 131.23C213.051 131.605 212.908 132.055 212.908 132.578V136H211.947V132.438C211.947 131.258 211.492 130.668 210.582 130.668C210.16 130.668 209.812 130.846 209.539 131.201C209.266 131.553 209.129 132.012 209.129 132.578V136H208.168V130H209.129V130.949H209.152C209.578 130.223 210.199 129.859 211.016 129.859C211.426 129.859 211.783 129.975 212.088 130.205C212.393 130.432 212.602 130.73 212.715 131.102C213.16 130.273 213.824 129.859 214.707 129.859C216.027 129.859 216.688 130.674 216.688 132.303V136ZM218.996 128.477C218.824 128.477 218.678 128.418 218.557 128.301C218.436 128.184 218.375 128.035 218.375 127.855C218.375 127.676 218.436 127.527 218.557 127.41C218.678 127.289 218.824 127.229 218.996 127.229C219.172 127.229 219.32 127.289 219.441 127.41C219.566 127.527 219.629 127.676 219.629 127.855C219.629 128.027 219.566 128.174 219.441 128.295C219.32 128.416 219.172 128.477 218.996 128.477ZM219.465 136H218.504V130H219.465V136ZM221.744 136.129C221.564 136.129 221.41 136.064 221.281 135.936C221.156 135.807 221.094 135.652 221.094 135.473C221.094 135.293 221.156 135.139 221.281 135.01C221.41 134.877 221.564 134.811 221.744 134.811C221.928 134.811 222.084 134.877 222.213 135.01C222.342 135.139 222.406 135.293 222.406 135.473C222.406 135.652 222.342 135.807 222.213 135.936C222.084 136.064 221.928 136.129 221.744 136.129ZM224.346 136.129C224.166 136.129 224.012 136.064 223.883 135.936C223.758 135.807 223.695 135.652 223.695 135.473C223.695 135.293 223.758 135.139 223.883 135.01C224.012 134.877 224.166 134.811 224.346 134.811C224.529 134.811 224.686 134.877 224.814 135.01C224.943 135.139 225.008 135.293 225.008 135.473C225.008 135.652 224.943 135.807 224.814 135.936C224.686 136.064 224.529 136.129 224.346 136.129ZM226.947 136.129C226.768 136.129 226.613 136.064 226.484 135.936C226.359 135.807 226.297 135.652 226.297 135.473C226.297 135.293 226.359 135.139 226.484 135.01C226.613 134.877 226.768 134.811 226.947 134.811C227.131 134.811 227.287 134.877 227.416 135.01C227.545 135.139 227.609 135.293 227.609 135.473C227.609 135.652 227.545 135.807 227.416 135.936C227.287 136.064 227.131 136.129 226.947 136.129Z" fill="black"/>
<path opacity="0.7" d="M57.668 177H56.6895V171.363C56.6895 170.918 56.7168 170.373 56.7715 169.729H56.748C56.6543 170.107 56.5703 170.379 56.4961 170.543L53.625 177H53.1445L50.2793 170.59C50.1973 170.402 50.1133 170.115 50.0273 169.729H50.0039C50.0352 170.064 50.0508 170.613 50.0508 171.375V177H49.1016V168.598H50.4023L52.9805 174.457C53.1797 174.906 53.3086 175.242 53.3672 175.465H53.4023C53.5703 175.004 53.7051 174.66 53.8066 174.434L56.4375 168.598H57.668V177ZM64.0488 177H63.0879V176.062H63.0645C62.6465 176.781 62.0312 177.141 61.2188 177.141C60.6211 177.141 60.1523 176.982 59.8125 176.666C59.4766 176.35 59.3086 175.93 59.3086 175.406C59.3086 174.285 59.9688 173.633 61.2891 173.449L63.0879 173.197C63.0879 172.178 62.6758 171.668 61.8516 171.668C61.1289 171.668 60.4766 171.914 59.8945 172.406V171.422C60.4844 171.047 61.1641 170.859 61.9336 170.859C63.3438 170.859 64.0488 171.605 64.0488 173.098V177ZM63.0879 173.965L61.6406 174.164C61.1953 174.227 60.8594 174.338 60.6328 174.498C60.4062 174.654 60.293 174.934 60.293 175.336C60.293 175.629 60.3965 175.869 60.6035 176.057C60.8145 176.24 61.0938 176.332 61.4414 176.332C61.918 176.332 62.3105 176.166 62.6191 175.834C62.9316 175.498 63.0879 175.074 63.0879 174.562V173.965ZM70.8398 177H69.8789V173.578C69.8789 172.305 69.4141 171.668 68.4844 171.668C68.0039 171.668 67.6055 171.85 67.2891 172.213C66.9766 172.572 66.8203 173.027 66.8203 173.578V177H65.8594V171H66.8203V171.996H66.8438C67.2969 171.238 67.9531 170.859 68.8125 170.859C69.4688 170.859 69.9707 171.072 70.3184 171.498C70.666 171.92 70.8398 172.531 70.8398 173.332V177ZM76.9512 177H75.9902V176.062H75.9668C75.5488 176.781 74.9336 177.141 74.1211 177.141C73.5234 177.141 73.0547 176.982 72.7148 176.666C72.3789 176.35 72.2109 175.93 72.2109 175.406C72.2109 174.285 72.8711 173.633 74.1914 173.449L75.9902 173.197C75.9902 172.178 75.5781 171.668 74.7539 171.668C74.0312 171.668 73.3789 171.914 72.7969 172.406V171.422C73.3867 171.047 74.0664 170.859 74.8359 170.859C76.2461 170.859 76.9512 171.605 76.9512 173.098V177ZM75.9902 173.965L74.543 174.164C74.0977 174.227 73.7617 174.338 73.5352 174.498C73.3086 174.654 73.1953 174.934 73.1953 175.336C73.1953 175.629 73.2988 175.869 73.5059 176.057C73.7168 176.24 73.9961 176.332 74.3438 176.332C74.8203 176.332 75.2129 176.166 75.5215 175.834C75.834 175.498 75.9902 175.074 75.9902 174.562V173.965ZM83.8828 176.52C83.8828 178.723 82.8281 179.824 80.7188 179.824C79.9766 179.824 79.3281 179.684 78.7734 179.402V178.441C79.4492 178.816 80.0938 179.004 80.707 179.004C82.1836 179.004 82.9219 178.219 82.9219 176.648V175.992H82.8984C82.4414 176.758 81.7539 177.141 80.8359 177.141C80.0898 177.141 79.4883 176.875 79.0312 176.344C78.5781 175.809 78.3516 175.092 78.3516 174.193C78.3516 173.174 78.5957 172.363 79.084 171.762C79.5762 171.16 80.248 170.859 81.0996 170.859C81.9082 170.859 82.5078 171.184 82.8984 171.832H82.9219V171H83.8828V176.52ZM82.9219 174.287V173.402C82.9219 172.926 82.7598 172.518 82.4355 172.178C82.1152 171.838 81.7148 171.668 81.2344 171.668C80.6406 171.668 80.1758 171.885 79.8398 172.318C79.5039 172.748 79.3359 173.352 79.3359 174.129C79.3359 174.797 79.4961 175.332 79.8164 175.734C80.1406 176.133 80.5684 176.332 81.0996 176.332C81.6387 176.332 82.0762 176.141 82.4121 175.758C82.752 175.375 82.9219 174.885 82.9219 174.287ZM90.6504 174.24H86.4141C86.4297 174.908 86.6094 175.424 86.9531 175.787C87.2969 176.15 87.7695 176.332 88.3711 176.332C89.0469 176.332 89.668 176.109 90.2344 175.664V176.566C89.707 176.949 89.0098 177.141 88.1426 177.141C87.2949 177.141 86.6289 176.869 86.1445 176.326C85.6602 175.779 85.418 175.012 85.418 174.023C85.418 173.09 85.6816 172.33 86.209 171.744C86.7402 171.154 87.3984 170.859 88.1836 170.859C88.9688 170.859 89.5762 171.113 90.0059 171.621C90.4355 172.129 90.6504 172.834 90.6504 173.736V174.24ZM89.666 173.426C89.6621 172.871 89.5273 172.439 89.2617 172.131C89 171.822 88.6348 171.668 88.166 171.668C87.7129 171.668 87.3281 171.83 87.0117 172.154C86.6953 172.479 86.5 172.902 86.4258 173.426H89.666ZM100.225 174.24H95.9883C96.0039 174.908 96.1836 175.424 96.5273 175.787C96.8711 176.15 97.3438 176.332 97.9453 176.332C98.6211 176.332 99.2422 176.109 99.8086 175.664V176.566C99.2812 176.949 98.584 177.141 97.7168 177.141C96.8691 177.141 96.2031 176.869 95.7188 176.326C95.2344 175.779 94.9922 175.012 94.9922 174.023C94.9922 173.09 95.2559 172.33 95.7832 171.744C96.3145 171.154 96.9727 170.859 97.7578 170.859C98.543 170.859 99.1504 171.113 99.5801 171.621C100.01 172.129 100.225 172.834 100.225 173.736V174.24ZM99.2402 173.426C99.2363 172.871 99.1016 172.439 98.8359 172.131C98.5742 171.822 98.209 171.668 97.7402 171.668C97.2871 171.668 96.9023 171.83 96.5859 172.154C96.2695 172.479 96.0742 172.902 96 173.426H99.2402ZM106.066 171L104.051 174.035L106.031 177H104.912L103.734 175.055C103.66 174.934 103.572 174.781 103.471 174.598H103.447C103.428 174.633 103.336 174.785 103.172 175.055L101.971 177H100.863L102.908 174.059L100.951 171H102.07L103.23 173.051C103.316 173.203 103.4 173.359 103.482 173.52H103.506L105.006 171H106.066ZM109.975 176.941C109.748 177.066 109.449 177.129 109.078 177.129C108.027 177.129 107.502 176.543 107.502 175.371V171.82H106.471V171H107.502V169.535L108.463 169.225V171H109.975V171.82H108.463V175.201C108.463 175.604 108.531 175.891 108.668 176.062C108.805 176.234 109.031 176.32 109.348 176.32C109.59 176.32 109.799 176.254 109.975 176.121V176.941ZM115.986 174.24H111.75C111.766 174.908 111.945 175.424 112.289 175.787C112.633 176.15 113.105 176.332 113.707 176.332C114.383 176.332 115.004 176.109 115.57 175.664V176.566C115.043 176.949 114.346 177.141 113.479 177.141C112.631 177.141 111.965 176.869 111.48 176.326C110.996 175.779 110.754 175.012 110.754 174.023C110.754 173.09 111.018 172.33 111.545 171.744C112.076 171.154 112.734 170.859 113.52 170.859C114.305 170.859 114.912 171.113 115.342 171.621C115.771 172.129 115.986 172.834 115.986 173.736V174.24ZM115.002 173.426C114.998 172.871 114.863 172.439 114.598 172.131C114.336 171.822 113.971 171.668 113.502 171.668C113.049 171.668 112.664 171.83 112.348 172.154C112.031 172.479 111.836 172.902 111.762 173.426H115.002ZM122.426 177H121.465V173.578C121.465 172.305 121 171.668 120.07 171.668C119.59 171.668 119.191 171.85 118.875 172.213C118.562 172.572 118.406 173.027 118.406 173.578V177H117.445V171H118.406V171.996H118.43C118.883 171.238 119.539 170.859 120.398 170.859C121.055 170.859 121.557 171.072 121.904 171.498C122.252 171.92 122.426 172.531 122.426 173.332V177ZM123.879 176.783V175.752C124.402 176.139 124.979 176.332 125.607 176.332C126.451 176.332 126.873 176.051 126.873 175.488C126.873 175.328 126.836 175.193 126.762 175.084C126.691 174.971 126.594 174.871 126.469 174.785C126.348 174.699 126.203 174.623 126.035 174.557C125.871 174.486 125.693 174.414 125.502 174.34C125.236 174.234 125.002 174.129 124.799 174.023C124.6 173.914 124.432 173.793 124.295 173.66C124.162 173.523 124.061 173.369 123.99 173.197C123.924 173.025 123.891 172.824 123.891 172.594C123.891 172.312 123.955 172.064 124.084 171.85C124.213 171.631 124.385 171.449 124.6 171.305C124.814 171.156 125.059 171.045 125.332 170.971C125.609 170.896 125.895 170.859 126.188 170.859C126.707 170.859 127.172 170.949 127.582 171.129V172.102C127.141 171.812 126.633 171.668 126.059 171.668C125.879 171.668 125.717 171.689 125.572 171.732C125.428 171.771 125.303 171.828 125.197 171.902C125.096 171.977 125.016 172.066 124.957 172.172C124.902 172.273 124.875 172.387 124.875 172.512C124.875 172.668 124.902 172.799 124.957 172.904C125.016 173.01 125.1 173.104 125.209 173.186C125.318 173.268 125.451 173.342 125.607 173.408C125.764 173.475 125.941 173.547 126.141 173.625C126.406 173.727 126.645 173.832 126.855 173.941C127.066 174.047 127.246 174.168 127.395 174.305C127.543 174.438 127.656 174.592 127.734 174.768C127.816 174.943 127.857 175.152 127.857 175.395C127.857 175.691 127.791 175.949 127.658 176.168C127.529 176.387 127.355 176.568 127.137 176.713C126.918 176.857 126.666 176.965 126.381 177.035C126.096 177.105 125.797 177.141 125.484 177.141C124.867 177.141 124.332 177.021 123.879 176.783ZM129.832 169.477C129.66 169.477 129.514 169.418 129.393 169.301C129.271 169.184 129.211 169.035 129.211 168.855C129.211 168.676 129.271 168.527 129.393 168.41C129.514 168.289 129.66 168.229 129.832 168.229C130.008 168.229 130.156 168.289 130.277 168.41C130.402 168.527 130.465 168.676 130.465 168.855C130.465 169.027 130.402 169.174 130.277 169.295C130.156 169.416 130.008 169.477 129.832 169.477ZM130.301 177H129.34V171H130.301V177ZM134.754 177.141C133.867 177.141 133.158 176.861 132.627 176.303C132.1 175.74 131.836 174.996 131.836 174.07C131.836 173.062 132.111 172.275 132.662 171.709C133.213 171.143 133.957 170.859 134.895 170.859C135.789 170.859 136.486 171.135 136.986 171.686C137.49 172.236 137.742 173 137.742 173.977C137.742 174.934 137.471 175.701 136.928 176.279C136.389 176.854 135.664 177.141 134.754 177.141ZM134.824 171.668C134.207 171.668 133.719 171.879 133.359 172.301C133 172.719 132.82 173.297 132.82 174.035C132.82 174.746 133.002 175.307 133.365 175.717C133.729 176.127 134.215 176.332 134.824 176.332C135.445 176.332 135.922 176.131 136.254 175.729C136.59 175.326 136.758 174.754 136.758 174.012C136.758 173.262 136.59 172.684 136.254 172.277C135.922 171.871 135.445 171.668 134.824 171.668ZM144.258 177H143.297V173.578C143.297 172.305 142.832 171.668 141.902 171.668C141.422 171.668 141.023 171.85 140.707 172.213C140.395 172.572 140.238 173.027 140.238 173.578V177H139.277V171H140.238V171.996H140.262C140.715 171.238 141.371 170.859 142.23 170.859C142.887 170.859 143.389 171.072 143.736 171.498C144.084 171.92 144.258 172.531 144.258 173.332V177ZM145.711 176.783V175.752C146.234 176.139 146.811 176.332 147.439 176.332C148.283 176.332 148.705 176.051 148.705 175.488C148.705 175.328 148.668 175.193 148.594 175.084C148.523 174.971 148.426 174.871 148.301 174.785C148.18 174.699 148.035 174.623 147.867 174.557C147.703 174.486 147.525 174.414 147.334 174.34C147.068 174.234 146.834 174.129 146.631 174.023C146.432 173.914 146.264 173.793 146.127 173.66C145.994 173.523 145.893 173.369 145.822 173.197C145.756 173.025 145.723 172.824 145.723 172.594C145.723 172.312 145.787 172.064 145.916 171.85C146.045 171.631 146.217 171.449 146.432 171.305C146.646 171.156 146.891 171.045 147.164 170.971C147.441 170.896 147.727 170.859 148.02 170.859C148.539 170.859 149.004 170.949 149.414 171.129V172.102C148.973 171.812 148.465 171.668 147.891 171.668C147.711 171.668 147.549 171.689 147.404 171.732C147.26 171.771 147.135 171.828 147.029 171.902C146.928 171.977 146.848 172.066 146.789 172.172C146.734 172.273 146.707 172.387 146.707 172.512C146.707 172.668 146.734 172.799 146.789 172.904C146.848 173.01 146.932 173.104 147.041 173.186C147.15 173.268 147.283 173.342 147.439 173.408C147.596 173.475 147.773 173.547 147.973 173.625C148.238 173.727 148.477 173.832 148.688 173.941C148.898 174.047 149.078 174.168 149.227 174.305C149.375 174.438 149.488 174.592 149.566 174.768C149.648 174.943 149.689 175.152 149.689 175.395C149.689 175.691 149.623 175.949 149.49 176.168C149.361 176.387 149.188 176.568 148.969 176.713C148.75 176.857 148.498 176.965 148.213 177.035C147.928 177.105 147.629 177.141 147.316 177.141C146.699 177.141 146.164 177.021 145.711 176.783Z" fill="black"/>
<rect x="4" y="152" width="320" height="1" fill="#DBDCE0"/>
</g>
<defs>
<filter id="filter0_d" x="0" y="0" width="328" height="199" filterUnits="userSpaceOnUse" color-interpolation-filters="sRGB">
<feFlood flood-opacity="0" result="BackgroundImageFix"/>
<feColorMatrix in="SourceAlpha" type="matrix" values="0 0 0 0 0 0 0 0 0 0 0 0 0 0 0 0 0 0 127 0"/>
<feOffset dy="2"/>
<feGaussianBlur stdDeviation="2"/>
<feColorMatrix type="matrix" values="0 0 0 0 0 0 0 0 0 0 0 0 0 0 0 0 0 0 0.25 0"/>
<feBlend mode="normal" in2="BackgroundImageFix" result="effect1_dropShadow"/>
<feBlend mode="normal" in="SourceGraphic" in2="effect1_dropShadow" result="shape"/>
</filter>
</defs>
</svg>
