<svg width="27" height="27" viewBox="0 0 27 27" fill="none" xmlns="http://www.w3.org/2000/svg">
<rect width="27" height="27" rx="13.5" fill="#EEEEEE"/>
<path d="M14.4667 8.8H16.3333C17.3643 8.8 18.2 9.63573 18.2 10.6667V12.5333H19.1333C20.1643 12.5333 21 13.3691 21 14.4C21 15.4309 20.1643 16.2667 19.1333 16.2667H18.2V18.1333C18.2 19.1643 17.3643 20 16.3333 20H14.4667V19.0667C14.4667 18.0357 13.6309 17.2 12.6 17.2C11.5691 17.2 10.7334 18.0357 10.7334 19.0667V20H8.86667C7.83573 20 7 19.1643 7 18.1333V16.2667H7.93335C8.96428 16.2667 9.80002 15.4309 9.80002 14.4C9.80002 13.3691 8.96428 12.5333 7.93335 12.5333H7V10.6667C7 9.63573 7.83574 8.8 8.86667 8.8H10.7333V7.86667C10.7333 6.83573 11.5691 6 12.6 6C13.6309 6 14.4667 6.83574 14.4667 7.86667V8.8Z" fill="#606368"/>
</svg>
