<svg width="610" height="35" viewBox="0 0 610 35" fill="none" xmlns="http://www.w3.org/2000/svg">
<g filter="url(#filter0_d)">
<rect width="690" height="34" transform="translate(-80)" fill="white"/>
<rect x="-80" y="3" width="551" height="28" rx="14" fill="#EFF1F4"/>
<path d="M453 10.629L454.311 14.6941L454.423 15.0414L454.788 15.0406L459.059 15.0313L455.598 17.5343L455.302 17.7481L455.416 18.095L456.745 22.1543L453.295 19.6361L453 19.421L452.705 19.6361L449.255 22.1543L450.584 18.095L450.698 17.7481L450.402 17.5343L446.941 15.0313L451.212 15.0406L451.577 15.0414L451.689 14.6941L453 10.629Z" stroke="#4B4D52"/>
<path d="M492.5 24C496.642 24 500 20.6421 500 16.5C500 12.3579 496.642 9 492.5 9C488.358 9 485 12.3579 485 16.5C485 20.6421 488.358 24 492.5 24Z" fill="#A2A2A2"/>
<path opacity="0.6" fill-rule="evenodd" clip-rule="evenodd" d="M496.672 13.3095C497.267 13.0966 497.82 12.8382 498.318 12.5395C498.451 12.4598 498.581 12.3764 498.707 12.2894C498.519 12.0125 498.313 11.7488 498.09 11.5C497.606 11.8244 497.045 12.1065 496.424 12.3357C496.075 11.1659 495.584 10.1677 494.995 9.42498C494.214 9.14974 493.375 9 492.5 9C491.625 9 490.786 9.14974 490.005 9.42498C489.416 10.1677 488.925 11.1659 488.576 12.3357C487.955 12.1065 487.394 11.8244 486.91 11.5C486.687 11.7488 486.481 12.0125 486.293 12.2894C486.419 12.3764 486.549 12.4598 486.682 12.5395C487.18 12.8382 487.733 13.0966 488.328 13.3095C488.148 14.1481 488.037 15.0533 488.008 16H485.016C485.006 16.1653 485 16.332 485 16.5C485 16.668 485.006 16.8347 485.016 17H488.008C488.037 17.9467 488.148 18.8519 488.328 19.6905C487.733 19.9034 487.18 20.1618 486.682 20.4605C486.549 20.5402 486.419 20.6236 486.293 20.7106C486.481 20.9875 486.687 21.2512 486.91 21.5C487.394 21.1756 487.955 20.8935 488.576 20.6643C488.925 21.8341 489.416 22.8323 490.005 23.575C490.786 23.8503 491.625 24 492.5 24C493.375 24 494.214 23.8503 494.995 23.575C495.584 22.8323 496.075 21.8341 496.424 20.6643C497.045 20.8935 497.606 21.1756 498.09 21.5C498.313 21.2512 498.519 20.9875 498.707 20.7106C498.581 20.6236 498.451 20.5402 498.318 20.4605C497.82 20.1618 497.267 19.9034 496.672 19.6905C496.852 18.8519 496.963 17.9467 496.992 17H499.984C499.994 16.8347 500 16.668 500 16.5C500 16.332 499.994 16.1653 499.984 16H496.992C496.963 15.0533 496.852 14.1481 496.672 13.3095ZM495.992 17C495.964 17.8486 495.866 18.654 495.712 19.3964C494.863 19.1771 493.949 19.0439 493 19.0091V17H495.992ZM495.469 20.3664C494.704 20.1682 493.872 20.0443 493 20.0098V23.9094C493.58 23.703 494.223 23.1295 494.798 22.0425C495.057 21.5541 495.284 20.9904 495.469 20.3664ZM492 23.9094V20.0098C491.128 20.0443 490.296 20.1682 489.531 20.3664C489.716 20.9904 489.943 21.5541 490.202 22.0425C490.777 23.1295 491.42 23.703 492 23.9094ZM489.288 19.3964C490.137 19.1771 491.051 19.0439 492 19.0091V17H489.008C489.036 17.8486 489.134 18.654 489.288 19.3964ZM489.288 13.6036C489.134 14.346 489.036 15.1514 489.008 16H492V13.9909C491.051 13.9561 490.137 13.8229 489.288 13.6036ZM492 12.9902C491.128 12.9557 490.296 12.8318 489.531 12.6336C489.716 12.0096 489.943 11.4459 490.202 10.9575C490.777 9.8705 491.42 9.29702 492 9.09061V12.9902ZM493 12.9902V9.09061C493.58 9.29702 494.223 9.8705 494.798 10.9575C495.057 11.4459 495.284 12.0096 495.469 12.6336C494.704 12.8318 493.872 12.9557 493 12.9902ZM493 13.9909C493.949 13.9561 494.863 13.8229 495.712 13.6036C495.866 14.346 495.964 15.1514 495.992 16H493V13.9909Z" fill="white"/>
<path d="M525.467 11.8H527.333C528.364 11.8 529.2 12.6357 529.2 13.6667V15.5333H530.133C531.164 15.5333 532 16.3691 532 17.4C532 18.4309 531.164 19.2667 530.133 19.2667H529.2V21.1333C529.2 22.1643 528.364 23 527.333 23H525.467V22.0667C525.467 21.0357 524.631 20.2 523.6 20.2C522.569 20.2 521.733 21.0357 521.733 22.0667V23H519.867C518.836 23 518 22.1643 518 21.1333V19.2667H518.933C519.964 19.2667 520.8 18.4309 520.8 17.4C520.8 16.3691 519.964 15.5333 518.933 15.5333H518V13.6667C518 12.6357 518.836 11.8 519.867 11.8H521.733V10.8667C521.733 9.83573 522.569 9 523.6 9C524.631 9 525.467 9.83574 525.467 10.8667V11.8Z" fill="#606368"/>
<rect width="28" height="28" transform="translate(543 3)" fill="white"/>
<path d="M557 5C550.376 5 545 10.376 545 17C545 23.624 550.376 29 557 29C563.624 29 569 23.624 569 17C569 10.376 563.624 5 557 5ZM564.632 22.796C562.916 20.708 558.752 20 557 20C555.248 20 551.084 20.708 549.368 22.796C548.144 21.188 547.4 19.184 547.4 17C547.4 11.708 551.708 7.4 557 7.4C562.292 7.4 566.6 11.708 566.6 17C566.6 19.184 565.856 21.188 564.632 22.796ZM557 9.8C554.672 9.8 552.8 11.672 552.8 14C552.8 16.328 554.672 18.2 557 18.2C559.328 18.2 561.2 16.328 561.2 14C561.2 11.672 559.328 9.8 557 9.8Z" fill="#B6B9BE"/>
<path d="M591 12.5C591 13.3284 590.328 14 589.5 14C588.672 14 588 13.3284 588 12.5C588 11.6716 588.672 11 589.5 11C590.328 11 591 11.6716 591 12.5Z" fill="#5F646A"/>
<path d="M591 17.5C591 18.3284 590.328 19 589.5 19C588.672 19 588 18.3284 588 17.5C588 16.6716 588.672 16 589.5 16C590.328 16 591 16.6716 591 17.5Z" fill="#5F646A"/>
<path d="M591 22.5C591 23.3284 590.328 24 589.5 24C588.672 24 588 23.3284 588 22.5C588 21.6716 588.672 21 589.5 21C590.328 21 591 21.6716 591 22.5Z" fill="#5F646A"/>
</g>
<defs>
<filter id="filter0_d" x="-80" y="0" width="690" height="35" filterUnits="userSpaceOnUse" color-interpolation-filters="sRGB">
<feFlood flood-opacity="0" result="BackgroundImageFix"/>
<feColorMatrix in="SourceAlpha" type="matrix" values="0 0 0 0 0 0 0 0 0 0 0 0 0 0 0 0 0 0 127 0"/>
<feOffset dy="1"/>
<feColorMatrix type="matrix" values="0 0 0 0 0 0 0 0 0 0 0 0 0 0 0 0 0 0 0.06 0"/>
<feBlend mode="normal" in2="BackgroundImageFix" result="effect1_dropShadow"/>
<feBlend mode="normal" in="SourceGraphic" in2="effect1_dropShadow" result="shape"/>
</filter>
</defs>
</svg>
