<svg width="336" height="269" viewBox="0 0 336 269" fill="none" xmlns="http://www.w3.org/2000/svg">
<circle cx="156" cy="68" r="56" fill="#EBEBEB"/>
<path d="M156 118C183.614 118 206 95.6142 206 68C206 40.3858 183.614 18 156 18C128.386 18 106 40.3858 106 68C106 95.6142 128.386 118 156 118Z" fill="#A2A2A2"/>
<path d="M156 114.97C181.941 114.97 202.97 93.9406 202.97 68C202.97 42.0593 181.941 21.0303 156 21.0303C130.059 21.0303 109.03 42.0593 109.03 68C109.03 93.9406 130.059 114.97 156 114.97Z" fill="#B5B6B6"/>
<path fill-rule="evenodd" clip-rule="evenodd" d="M181.956 46.3482C184.355 45.3302 186.601 44.1723 188.668 42.8897C190.337 41.8536 191.905 40.7241 193.345 39.5096C192.732 38.7068 192.093 37.9244 191.431 37.1635C188.56 39.5881 185.059 41.7073 181.077 43.4279C178.117 34.3319 173.563 27.007 168.073 22.5965C164.221 21.5748 160.174 21.0303 156 21.0303C151.826 21.0303 147.779 21.5748 143.926 22.5965C138.437 27.007 133.883 34.3319 130.922 43.4279C126.941 41.7073 123.44 39.5881 120.569 37.1635C119.907 37.9244 119.268 38.7068 118.655 39.5096C120.095 40.7241 121.663 41.8536 123.332 42.8897C125.399 44.1723 127.645 45.3302 130.044 46.3482C128.348 52.4714 127.348 59.2871 127.225 66.4848H109.054C109.038 66.9879 109.03 67.493 109.03 68C109.03 68.5069 109.038 69.012 109.054 69.5151H127.225C127.348 76.7129 128.348 83.5286 130.044 89.6517C127.645 90.6697 125.399 91.8276 123.332 93.1103C121.663 94.1464 120.095 95.2758 118.655 96.4903C119.268 97.2931 119.907 98.0756 120.569 98.8365C123.44 96.4119 126.941 94.2927 130.922 92.5721C133.883 101.668 138.437 108.993 143.926 113.403C147.779 114.425 151.826 114.97 156 114.97C160.174 114.97 164.221 114.425 168.074 113.403C173.563 108.993 178.117 101.668 181.077 92.5721C185.059 94.2927 188.56 96.4119 191.431 98.8365C192.093 98.0756 192.732 97.2931 193.345 96.4903C191.905 95.2758 190.337 94.1464 188.668 93.1103C186.601 91.8276 184.355 90.6697 181.956 89.6517C183.652 83.5285 184.652 76.7129 184.775 69.5151H202.946C202.962 69.012 202.97 68.5069 202.97 68C202.97 67.493 202.962 66.9879 202.946 66.4848H184.775C184.652 59.2871 183.652 52.4714 181.956 46.3482ZM181.744 69.5151C181.623 76.3443 180.686 82.778 179.119 88.5386C172.68 86.21 165.317 84.8395 157.515 84.6819V69.5151H181.744ZM178.256 91.4492C172.136 89.2135 165.067 87.8717 157.515 87.7128V114.885C163.402 114.229 169.173 109.757 173.73 101.843C175.487 98.7909 177.017 95.2949 178.256 91.4492ZM154.485 114.885V87.7128C146.933 87.8717 139.864 89.2135 133.744 91.4492C134.983 95.2949 136.513 98.7909 138.27 101.843C142.827 109.757 148.598 114.229 154.485 114.885ZM132.881 88.5386C139.32 86.21 146.683 84.8395 154.485 84.6819V69.5151H130.256C130.377 76.3443 131.314 82.778 132.881 88.5386ZM132.881 47.4613C131.314 53.2219 130.377 59.6556 130.256 66.4848H154.485V51.318C146.683 51.1605 139.32 49.79 132.881 47.4613ZM154.485 48.2871C146.933 48.1282 139.864 46.7864 133.744 44.5508C134.983 40.7051 136.513 37.2091 138.27 34.1566C142.827 26.2425 148.598 21.7712 154.485 21.1148V48.2871ZM157.515 48.2871V21.1148C163.402 21.7712 169.173 26.2425 173.73 34.1566C175.487 37.2091 177.017 40.7051 178.256 44.5508C172.136 46.7864 165.067 48.1282 157.515 48.2871ZM157.515 51.318C165.317 51.1605 172.68 49.79 179.119 47.4613C180.686 53.2219 181.623 59.6556 181.744 66.4848H157.515V51.318Z" fill="#A2A2A2"/>
<path opacity="0.1" fill-rule="evenodd" clip-rule="evenodd" d="M156 118V18C183.614 18 206 40.3858 206 68C206 95.6142 183.614 118 156 118Z" fill="white"/>
<path d="M156.297 51.0445C156.1 51.015 155.9 51.015 155.703 51.0445L137.703 53.7445C136.724 53.8914 136 54.7324 136 55.7224V58.1812C136 58.9813 136.477 59.7043 137.212 60.0195L138.581 60.6061C139.138 60.8451 139.5 61.3933 139.5 62C139.5 62.6067 139.138 63.1549 138.581 63.3939L137.212 63.9805C136.477 64.2957 136 65.0187 136 65.8188V75.8197C136 75.9396 136.009 76.0549 136.034 76.1724C136.801 79.8643 141.582 88.786 154.993 96.902C155.61 97.2752 156.39 97.2752 157.007 96.902C170.418 88.786 175.199 79.8643 175.966 76.1724C175.991 76.0549 176 75.9396 176 75.8197V65.8188C176 65.0187 175.523 64.2957 174.788 63.9805L173.419 63.3939C172.862 63.1549 172.5 62.6067 172.5 62C172.5 61.3933 172.862 60.8451 173.419 60.6061L174.788 60.0195C175.523 59.7043 176 58.9813 176 58.1812V55.7224C176 54.7324 175.276 53.8914 174.297 53.7445L156.297 51.0445Z" fill="#6B6B6B"/>
<path d="M156.298 52.0448C156.1 52.0151 155.9 52.0151 155.702 52.0448L139.702 54.4534C138.724 54.6007 138 55.4415 138 56.4311V58.3605C138 59.1596 138.476 59.882 139.21 60.1978L140.32 60.6754C140.824 60.8919 141.15 61.3874 141.15 61.9355C141.15 62.4836 140.824 62.979 140.32 63.1956L139.21 63.6732C138.476 63.989 138 64.7114 138 65.5105V74.4009C138 74.5205 138.009 74.6359 138.034 74.7529C138.733 78.0881 143.02 86.0962 154.993 93.3981C155.61 93.7746 156.39 93.7746 157.007 93.3981C168.98 86.0962 173.267 78.0881 173.966 74.7529C173.991 74.6359 174 74.5205 174 74.4009V65.5105C174 64.7114 173.524 63.989 172.79 63.6732L171.68 63.1956C171.176 62.979 170.85 62.4836 170.85 61.9355C170.85 61.3874 171.176 60.8919 171.68 60.6754L172.79 60.1978C173.524 59.882 174 59.1596 174 58.3605V56.4311C174 55.4415 173.276 54.6007 172.298 54.4534L156.298 52.0448Z" fill="#787878"/>
<path d="M163 63C163 59.134 159.866 56 156 56C152.134 56 149 59.134 149 63V69C147.896 69 147 69.8954 147 71V80C147 81.1046 147.896 82 149 82H163C164.104 82 165 81.1046 165 80V71C165 69.8954 164.104 69 163 69H153V63C153 61.3431 154.343 60 156 60C157.657 60 159 61.3431 159 63V65C159 65.5523 159.448 66 160 66H162C162.552 66 163 65.5523 163 65V63Z" fill="#D55B4E"/>
<path opacity="0.2" d="M156 97.1596C156.349 97.1596 156.698 97.0662 157.007 96.8796C170.418 88.7636 175.199 79.8419 175.966 76.15C175.991 76.0326 176 75.9173 176 75.7973V65.7964C176 64.9964 175.523 64.2733 174.788 63.9581L173.419 63.3715C172.862 63.1326 172.5 62.5843 172.5 61.9776C172.5 61.371 172.862 60.8227 173.419 60.5837L174.788 59.9971C175.523 59.682 176 58.9589 176 58.1588V55.7C176 54.71 175.276 53.869 174.297 53.7221L156.297 51.0221C156.198 51.0074 156.099 51 156 51V97.1596Z" fill="white"/>
<path opacity="0.1" fill-rule="evenodd" clip-rule="evenodd" d="M170.567 85.6806L150.666 51.8001L155.703 51.0446C155.9 51.0151 156.1 51.0151 156.296 51.0446L161.082 51.7624L175.803 76.8248C175.216 78.8672 173.642 82.043 170.567 85.6806Z" fill="white"/>
<g filter="url(#filter0_d)">
<path d="M134.634 29.2917C134.627 29.2917 134.623 29.2917 134.616 29.2917C134.334 25.2211 130.632 22 126.11 22C121.936 22 118.464 24.7428 117.729 28.3619C117.634 28.3585 117.535 28.3552 117.44 28.3552C114.33 28.3552 111.707 30.2383 110.851 32.8239C110.719 32.8139 110.584 32.8071 110.449 32.8071C107.994 32.8071 106 34.6267 106 36.8745C106 39.1222 107.99 40.9418 110.445 40.9418C110.482 40.9418 134.631 40.9418 134.631 40.9418C138.15 40.9418 141 38.3328 141 35.1184C141 31.904 138.154 29.2917 134.634 29.2917Z" fill="white"/>
<path d="M206.907 55.8334C206.902 55.8334 206.899 55.8334 206.893 55.8334C206.668 52.5769 203.706 50 200.088 50C196.749 50 193.971 52.1942 193.383 55.0895C193.307 55.0868 193.228 55.0841 193.152 55.0841C190.664 55.0841 188.566 56.5907 187.881 58.6591C187.775 58.6511 187.667 58.6457 187.559 58.6457C185.595 58.6457 184 60.1014 184 61.8996C184 63.6978 185.592 65.1535 187.556 65.1535C187.585 65.1535 206.905 65.1535 206.905 65.1535C209.72 65.1535 212 63.0663 212 60.4947C212 57.9232 209.723 55.8334 206.907 55.8334Z" fill="white"/>
<path d="M137.907 106.833C137.902 106.833 137.899 106.833 137.893 106.833C137.668 103.577 134.706 101 131.088 101C127.749 101 124.971 103.194 124.383 106.089C124.307 106.087 124.228 106.084 124.152 106.084C121.664 106.084 119.566 107.591 118.881 109.659C118.775 109.651 118.667 109.646 118.559 109.646C116.595 109.646 115 111.101 115 112.9C115 114.698 116.592 116.153 118.556 116.153C118.585 116.153 137.905 116.153 137.905 116.153C140.72 116.153 143 114.066 143 111.495C143 108.923 140.723 106.833 137.907 106.833Z" fill="white"/>
</g>
<path d="M326.567 19.9766C326.602 19.6559 326.625 19.3308 326.625 19.0001C326.625 18.6693 326.602 18.3442 326.566 18.023L324.104 17.1472C323.981 16.7444 323.82 16.3597 323.625 15.9941L324.746 13.6361C324.338 13.1247 323.874 12.6605 323.363 12.2523L321.005 13.3751C320.638 13.1778 320.251 13.0176 319.852 12.8969L318.977 10.4343C318.656 10.3983 318.331 10.3752 318 10.3752C317.669 10.3752 317.344 10.3977 317.023 10.4343L316.148 12.8969C315.745 13.019 315.36 13.1793 314.994 13.3751L312.636 12.2523C312.124 12.6601 311.66 13.1242 311.252 13.6361L312.375 15.9929C312.179 16.3586 312.019 16.7439 311.897 17.1461L309.434 18.0236C309.398 18.3442 309.375 18.6704 309.375 19.0006C309.375 19.3308 309.398 19.6559 309.434 19.9771L311.897 20.8535C312.019 21.2557 312.179 21.641 312.375 22.0066L311.253 24.3646C311.66 24.8765 312.125 25.3394 312.636 25.7472L314.993 24.6251C315.358 24.8208 315.744 24.9817 316.146 25.1043L317.022 27.5664C317.343 27.6018 317.668 27.6243 317.999 27.6243C318.33 27.6243 318.655 27.6018 318.976 27.5658L319.852 25.1032C320.254 24.9806 320.64 24.8197 321.005 24.6251L323.363 25.7456C323.875 25.3377 324.338 24.8737 324.746 24.3629L323.625 22.0055C323.821 21.6416 323.981 21.2551 324.104 20.8524L326.566 19.9766H326.567ZM318 21.7394C317.64 21.7395 317.284 21.6687 316.951 21.5311C316.619 21.3935 316.317 21.1917 316.062 20.9373C315.548 20.4236 315.259 19.7267 315.259 19.0001C315.259 18.2734 315.548 17.5764 316.061 17.0625C316.575 16.5485 317.272 16.2597 317.999 16.2596C318.725 16.2594 319.422 16.5479 319.936 17.0617C320.45 17.5754 320.739 18.2723 320.739 18.9989C320.739 19.7256 320.451 20.4226 319.937 20.9365C319.423 21.4505 318.726 21.7393 318 21.7394Z" fill="#7F7F7F"/>
<rect x="298.5" y="0.5" width="37" height="37" rx="2.5" stroke="#BCBCBC"/>
<circle cx="298" cy="38" r="10" fill="#3B9946" stroke="white" stroke-width="4"/>
<path d="M4.25586 176.003L6.92188 171.006H8.17969L4.84375 177.124V181H3.66797V177.179L0.338867 171.006H1.61035L4.25586 176.003ZM15.1592 177.247C15.1592 178.468 14.8516 179.423 14.2363 180.111C13.6211 180.795 12.7712 181.137 11.6865 181.137C11.0166 181.137 10.4219 180.979 9.90234 180.665C9.38281 180.351 8.98177 179.899 8.69922 179.312C8.41667 178.724 8.27539 178.035 8.27539 177.247C8.27539 176.026 8.58073 175.076 9.19141 174.396C9.80208 173.713 10.6497 173.371 11.7344 173.371C12.7826 173.371 13.6143 173.72 14.2295 174.417C14.8493 175.114 15.1592 176.058 15.1592 177.247ZM9.45117 177.247C9.45117 178.204 9.64258 178.933 10.0254 179.435C10.4082 179.936 10.971 180.187 11.7139 180.187C12.4567 180.187 13.0195 179.938 13.4023 179.441C13.7897 178.94 13.9834 178.209 13.9834 177.247C13.9834 176.295 13.7897 175.572 13.4023 175.08C13.0195 174.583 12.4521 174.335 11.7002 174.335C10.9574 174.335 10.3968 174.579 10.0186 175.066C9.6403 175.554 9.45117 176.281 9.45117 177.247ZM18.2217 173.508V178.368C18.2217 178.979 18.3607 179.435 18.6387 179.735C18.9167 180.036 19.3519 180.187 19.9443 180.187C20.7282 180.187 21.3001 179.972 21.6602 179.544C22.0247 179.116 22.207 178.416 22.207 177.445V173.508H23.3418V181H22.4053L22.2412 179.995H22.1797C21.9473 180.364 21.6237 180.647 21.209 180.843C20.7988 181.039 20.3294 181.137 19.8008 181.137C18.8893 181.137 18.2057 180.92 17.75 180.487C17.2988 180.054 17.0732 179.362 17.0732 178.409V173.508H18.2217ZM29.1729 173.371C29.5055 173.371 29.804 173.398 30.0684 173.453L29.9111 174.506C29.6012 174.438 29.3278 174.403 29.0908 174.403C28.4847 174.403 27.9652 174.649 27.5322 175.142C27.1038 175.634 26.8896 176.247 26.8896 176.98V181H25.7549V173.508H26.6914L26.8213 174.896H26.876C27.154 174.408 27.4889 174.032 27.8809 173.768C28.2728 173.503 28.7035 173.371 29.1729 173.371ZM38.5928 173.385C39.5771 173.385 40.3405 173.722 40.8828 174.396C41.4297 175.066 41.7031 176.017 41.7031 177.247C41.7031 178.478 41.4274 179.435 40.876 180.118C40.3291 180.797 39.568 181.137 38.5928 181.137C38.1051 181.137 37.6585 181.048 37.2529 180.87C36.8519 180.688 36.5146 180.41 36.2412 180.036H36.1592L35.9199 181H35.1064V170.363H36.2412V172.947C36.2412 173.526 36.223 174.046 36.1865 174.506H36.2412C36.7699 173.758 37.5537 173.385 38.5928 173.385ZM38.4287 174.335C37.654 174.335 37.0957 174.558 36.7539 175.005C36.4121 175.447 36.2412 176.194 36.2412 177.247C36.2412 178.3 36.4167 179.054 36.7676 179.51C37.1185 179.961 37.6813 180.187 38.4561 180.187C39.1533 180.187 39.6729 179.934 40.0146 179.428C40.3564 178.917 40.5273 178.186 40.5273 177.233C40.5273 176.258 40.3564 175.531 40.0146 175.053C39.6729 174.574 39.1442 174.335 38.4287 174.335ZM47.1104 173.371C47.443 173.371 47.7415 173.398 48.0059 173.453L47.8486 174.506C47.5387 174.438 47.2653 174.403 47.0283 174.403C46.4222 174.403 45.9027 174.649 45.4697 175.142C45.0413 175.634 44.8271 176.247 44.8271 176.98V181H43.6924V173.508H44.6289L44.7588 174.896H44.8135C45.0915 174.408 45.4264 174.032 45.8184 173.768C46.2103 173.503 46.641 173.371 47.1104 173.371ZM55.5869 177.247C55.5869 178.468 55.2793 179.423 54.6641 180.111C54.0488 180.795 53.1989 181.137 52.1143 181.137C51.4443 181.137 50.8496 180.979 50.3301 180.665C49.8105 180.351 49.4095 179.899 49.127 179.312C48.8444 178.724 48.7031 178.035 48.7031 177.247C48.7031 176.026 49.0085 175.076 49.6191 174.396C50.2298 173.713 51.0775 173.371 52.1621 173.371C53.2103 173.371 54.042 173.72 54.6572 174.417C55.277 175.114 55.5869 176.058 55.5869 177.247ZM49.8789 177.247C49.8789 178.204 50.0703 178.933 50.4531 179.435C50.8359 179.936 51.3988 180.187 52.1416 180.187C52.8844 180.187 53.4473 179.938 53.8301 179.441C54.2174 178.94 54.4111 178.209 54.4111 177.247C54.4111 176.295 54.2174 175.572 53.8301 175.08C53.4473 174.583 52.8799 174.335 52.1279 174.335C51.3851 174.335 50.8245 174.579 50.4463 175.066C50.068 175.554 49.8789 176.281 49.8789 177.247ZM63.4141 181L62.04 176.604C61.9535 176.336 61.7917 175.725 61.5547 174.772H61.5C61.3177 175.57 61.1582 176.185 61.0215 176.618L59.6064 181H58.2939L56.25 173.508H57.4395C57.9225 175.39 58.2894 176.823 58.54 177.808C58.7952 178.792 58.9411 179.455 58.9775 179.797H59.0322C59.0824 179.537 59.1621 179.202 59.2715 178.792C59.3854 178.377 59.4834 178.049 59.5654 177.808L60.9395 173.508H62.1699L63.5098 177.808C63.765 178.591 63.9382 179.25 64.0293 179.783H64.084C64.1022 179.619 64.1501 179.366 64.2275 179.024C64.3096 178.683 64.7858 176.844 65.6562 173.508H66.832L64.7607 181H63.4141ZM73.0254 178.956C73.0254 179.653 72.7656 180.191 72.2461 180.569C71.7266 180.948 70.9974 181.137 70.0586 181.137C69.0651 181.137 68.2904 180.979 67.7344 180.665V179.612C68.0944 179.795 68.4795 179.938 68.8896 180.043C69.3044 180.148 69.7031 180.2 70.0859 180.2C70.6784 180.2 71.1341 180.107 71.4531 179.92C71.7721 179.729 71.9316 179.439 71.9316 179.052C71.9316 178.76 71.804 178.512 71.5488 178.307C71.2982 178.097 70.806 177.851 70.0723 177.568C69.375 177.309 68.8783 177.083 68.582 176.892C68.2904 176.696 68.0716 176.475 67.9258 176.229C67.7845 175.982 67.7139 175.688 67.7139 175.347C67.7139 174.736 67.9622 174.255 68.459 173.904C68.9557 173.549 69.637 173.371 70.5029 173.371C71.3096 173.371 72.098 173.535 72.8682 173.863L72.4648 174.786C71.7129 174.476 71.0316 174.321 70.4209 174.321C69.8831 174.321 69.4775 174.406 69.2041 174.574C68.9307 174.743 68.7939 174.975 68.7939 175.271C68.7939 175.472 68.8441 175.643 68.9443 175.784C69.0492 175.925 69.2155 176.06 69.4434 176.188C69.6712 176.315 70.1087 176.5 70.7559 176.741C71.6445 177.065 72.2438 177.391 72.5537 177.719C72.8682 178.047 73.0254 178.459 73.0254 178.956ZM78.043 181.137C76.9355 181.137 76.0605 180.799 75.418 180.125C74.7799 179.451 74.4609 178.514 74.4609 177.315C74.4609 176.108 74.7572 175.148 75.3496 174.438C75.9466 173.727 76.7464 173.371 77.749 173.371C78.6878 173.371 79.4307 173.681 79.9775 174.301C80.5244 174.916 80.7979 175.729 80.7979 176.741V177.459H75.6367C75.6595 178.339 75.8805 179.006 76.2998 179.462C76.7236 179.918 77.3184 180.146 78.084 180.146C78.8906 180.146 79.6882 179.977 80.4766 179.64V180.651C80.0755 180.825 79.695 180.948 79.335 181.021C78.9795 181.098 78.5488 181.137 78.043 181.137ZM77.7354 174.321C77.1338 174.321 76.653 174.517 76.293 174.909C75.9375 175.301 75.7279 175.843 75.6641 176.536H79.5811C79.5811 175.821 79.4215 175.274 79.1025 174.896C78.7835 174.513 78.3278 174.321 77.7354 174.321ZM86.1572 173.371C86.4899 173.371 86.7884 173.398 87.0527 173.453L86.8955 174.506C86.5856 174.438 86.3122 174.403 86.0752 174.403C85.4691 174.403 84.9495 174.649 84.5166 175.142C84.0882 175.634 83.874 176.247 83.874 176.98V181H82.7393V173.508H83.6758L83.8057 174.896H83.8604C84.1383 174.408 84.4733 174.032 84.8652 173.768C85.2572 173.503 85.6878 173.371 86.1572 173.371ZM89.9238 171.006L90.0264 171.156C89.9079 171.612 89.737 172.143 89.5137 172.749C89.2904 173.351 89.0579 173.911 88.8164 174.431H87.9824C88.3014 173.132 88.5339 171.99 88.6797 171.006H89.9238ZM95.8027 178.956C95.8027 179.653 95.543 180.191 95.0234 180.569C94.5039 180.948 93.7747 181.137 92.8359 181.137C91.8424 181.137 91.0677 180.979 90.5117 180.665V179.612C90.8717 179.795 91.2568 179.938 91.667 180.043C92.0817 180.148 92.4805 180.2 92.8633 180.2C93.4557 180.2 93.9115 180.107 94.2305 179.92C94.5495 179.729 94.709 179.439 94.709 179.052C94.709 178.76 94.5814 178.512 94.3262 178.307C94.0755 178.097 93.5833 177.851 92.8496 177.568C92.1523 177.309 91.6556 177.083 91.3594 176.892C91.0677 176.696 90.849 176.475 90.7031 176.229C90.5618 175.982 90.4912 175.688 90.4912 175.347C90.4912 174.736 90.7396 174.255 91.2363 173.904C91.7331 173.549 92.4144 173.371 93.2803 173.371C94.0869 173.371 94.8753 173.535 95.6455 173.863L95.2422 174.786C94.4902 174.476 93.8089 174.321 93.1982 174.321C92.6605 174.321 92.2549 174.406 91.9814 174.574C91.708 174.743 91.5713 174.975 91.5713 175.271C91.5713 175.472 91.6214 175.643 91.7217 175.784C91.8265 175.925 91.9928 176.06 92.2207 176.188C92.4486 176.315 92.8861 176.5 93.5332 176.741C94.4219 177.065 95.0212 177.391 95.3311 177.719C95.6455 178.047 95.8027 178.459 95.8027 178.956ZM104.286 181.137C103.201 181.137 102.361 180.804 101.764 180.139C101.171 179.469 100.875 178.523 100.875 177.302C100.875 176.049 101.176 175.08 101.777 174.396C102.383 173.713 103.245 173.371 104.361 173.371C104.721 173.371 105.081 173.41 105.441 173.487C105.801 173.565 106.084 173.656 106.289 173.761L105.94 174.725C105.69 174.624 105.416 174.542 105.12 174.479C104.824 174.41 104.562 174.376 104.334 174.376C102.812 174.376 102.051 175.347 102.051 177.288C102.051 178.209 102.235 178.915 102.604 179.407C102.978 179.899 103.53 180.146 104.259 180.146C104.883 180.146 105.523 180.011 106.18 179.742V180.747C105.678 181.007 105.047 181.137 104.286 181.137ZM114.431 177.247C114.431 178.468 114.123 179.423 113.508 180.111C112.893 180.795 112.043 181.137 110.958 181.137C110.288 181.137 109.693 180.979 109.174 180.665C108.654 180.351 108.253 179.899 107.971 179.312C107.688 178.724 107.547 178.035 107.547 177.247C107.547 176.026 107.852 175.076 108.463 174.396C109.074 173.713 109.921 173.371 111.006 173.371C112.054 173.371 112.886 173.72 113.501 174.417C114.121 175.114 114.431 176.058 114.431 177.247ZM108.723 177.247C108.723 178.204 108.914 178.933 109.297 179.435C109.68 179.936 110.243 180.187 110.985 180.187C111.728 180.187 112.291 179.938 112.674 179.441C113.061 178.94 113.255 178.209 113.255 177.247C113.255 176.295 113.061 175.572 112.674 175.08C112.291 174.583 111.724 174.335 110.972 174.335C110.229 174.335 109.668 174.579 109.29 175.066C108.912 175.554 108.723 176.281 108.723 177.247ZM121.554 181V176.153C121.554 175.543 121.415 175.087 121.137 174.786C120.859 174.485 120.424 174.335 119.831 174.335C119.047 174.335 118.473 174.547 118.108 174.971C117.744 175.395 117.562 176.094 117.562 177.069V181H116.427V173.508H117.35L117.534 174.533H117.589C117.821 174.164 118.147 173.879 118.566 173.679C118.986 173.474 119.453 173.371 119.968 173.371C120.87 173.371 121.549 173.59 122.005 174.027C122.461 174.46 122.688 175.155 122.688 176.112V181H121.554ZM130.153 181V176.153C130.153 175.543 130.014 175.087 129.736 174.786C129.458 174.485 129.023 174.335 128.431 174.335C127.647 174.335 127.073 174.547 126.708 174.971C126.343 175.395 126.161 176.094 126.161 177.069V181H125.026V173.508H125.949L126.134 174.533H126.188C126.421 174.164 126.747 173.879 127.166 173.679C127.585 173.474 128.052 173.371 128.567 173.371C129.47 173.371 130.149 173.59 130.604 174.027C131.06 174.46 131.288 175.155 131.288 176.112V181H130.153ZM136.791 181.137C135.684 181.137 134.809 180.799 134.166 180.125C133.528 179.451 133.209 178.514 133.209 177.315C133.209 176.108 133.505 175.148 134.098 174.438C134.695 173.727 135.494 173.371 136.497 173.371C137.436 173.371 138.179 173.681 138.726 174.301C139.272 174.916 139.546 175.729 139.546 176.741V177.459H134.385C134.408 178.339 134.629 179.006 135.048 179.462C135.472 179.918 136.066 180.146 136.832 180.146C137.639 180.146 138.436 179.977 139.225 179.64V180.651C138.824 180.825 138.443 180.948 138.083 181.021C137.728 181.098 137.297 181.137 136.791 181.137ZM136.483 174.321C135.882 174.321 135.401 174.517 135.041 174.909C134.686 175.301 134.476 175.843 134.412 176.536H138.329C138.329 175.821 138.17 175.274 137.851 174.896C137.532 174.513 137.076 174.321 136.483 174.321ZM144.481 181.137C143.397 181.137 142.556 180.804 141.959 180.139C141.367 179.469 141.07 178.523 141.07 177.302C141.07 176.049 141.371 175.08 141.973 174.396C142.579 173.713 143.44 173.371 144.557 173.371C144.917 173.371 145.277 173.41 145.637 173.487C145.997 173.565 146.279 173.656 146.484 173.761L146.136 174.725C145.885 174.624 145.612 174.542 145.315 174.479C145.019 174.41 144.757 174.376 144.529 174.376C143.007 174.376 142.246 175.347 142.246 177.288C142.246 178.209 142.431 178.915 142.8 179.407C143.174 179.899 143.725 180.146 144.454 180.146C145.078 180.146 145.719 180.011 146.375 179.742V180.747C145.874 181.007 145.243 181.137 144.481 181.137ZM150.579 180.2C150.78 180.2 150.973 180.187 151.16 180.159C151.347 180.127 151.495 180.095 151.604 180.063V180.932C151.481 180.991 151.299 181.039 151.058 181.075C150.821 181.116 150.606 181.137 150.415 181.137C148.966 181.137 148.241 180.373 148.241 178.847V174.39H147.168V173.843L148.241 173.371L148.72 171.771H149.376V173.508H151.55V174.39H149.376V178.799C149.376 179.25 149.483 179.596 149.697 179.838C149.911 180.079 150.205 180.2 150.579 180.2ZM154.243 181H153.108V173.508H154.243V181ZM153.013 171.478C153.013 171.218 153.076 171.029 153.204 170.91C153.332 170.787 153.491 170.726 153.683 170.726C153.865 170.726 154.022 170.787 154.154 170.91C154.286 171.033 154.353 171.222 154.353 171.478C154.353 171.733 154.286 171.924 154.154 172.052C154.022 172.175 153.865 172.236 153.683 172.236C153.491 172.236 153.332 172.175 153.204 172.052C153.076 171.924 153.013 171.733 153.013 171.478ZM163.116 177.247C163.116 178.468 162.809 179.423 162.193 180.111C161.578 180.795 160.728 181.137 159.644 181.137C158.974 181.137 158.379 180.979 157.859 180.665C157.34 180.351 156.939 179.899 156.656 179.312C156.374 178.724 156.232 178.035 156.232 177.247C156.232 176.026 156.538 175.076 157.148 174.396C157.759 173.713 158.607 173.371 159.691 173.371C160.74 173.371 161.571 173.72 162.187 174.417C162.806 175.114 163.116 176.058 163.116 177.247ZM157.408 177.247C157.408 178.204 157.6 178.933 157.982 179.435C158.365 179.936 158.928 180.187 159.671 180.187C160.414 180.187 160.977 179.938 161.359 179.441C161.747 178.94 161.94 178.209 161.94 177.247C161.94 176.295 161.747 175.572 161.359 175.08C160.977 174.583 160.409 174.335 159.657 174.335C158.914 174.335 158.354 174.579 157.976 175.066C157.597 175.554 157.408 176.281 157.408 177.247ZM170.239 181V176.153C170.239 175.543 170.1 175.087 169.822 174.786C169.544 174.485 169.109 174.335 168.517 174.335C167.733 174.335 167.159 174.547 166.794 174.971C166.429 175.395 166.247 176.094 166.247 177.069V181H165.112V173.508H166.035L166.22 174.533H166.274C166.507 174.164 166.833 173.879 167.252 173.679C167.671 173.474 168.138 173.371 168.653 173.371C169.556 173.371 170.235 173.59 170.69 174.027C171.146 174.46 171.374 175.155 171.374 176.112V181H170.239ZM178.545 178.956C178.545 179.653 178.285 180.191 177.766 180.569C177.246 180.948 176.517 181.137 175.578 181.137C174.585 181.137 173.81 180.979 173.254 180.665V179.612C173.614 179.795 173.999 179.938 174.409 180.043C174.824 180.148 175.223 180.2 175.605 180.2C176.198 180.2 176.654 180.107 176.973 179.92C177.292 179.729 177.451 179.439 177.451 179.052C177.451 178.76 177.324 178.512 177.068 178.307C176.818 178.097 176.326 177.851 175.592 177.568C174.895 177.309 174.398 177.083 174.102 176.892C173.81 176.696 173.591 176.475 173.445 176.229C173.304 175.982 173.233 175.688 173.233 175.347C173.233 174.736 173.482 174.255 173.979 173.904C174.475 173.549 175.157 173.371 176.022 173.371C176.829 173.371 177.618 173.535 178.388 173.863L177.984 174.786C177.232 174.476 176.551 174.321 175.94 174.321C175.403 174.321 174.997 174.406 174.724 174.574C174.45 174.743 174.313 174.975 174.313 175.271C174.313 175.472 174.364 175.643 174.464 175.784C174.569 175.925 174.735 176.06 174.963 176.188C175.191 176.315 175.628 176.5 176.275 176.741C177.164 177.065 177.763 177.391 178.073 177.719C178.388 178.047 178.545 178.459 178.545 178.956ZM189.161 181V176.153C189.161 175.543 189.022 175.087 188.744 174.786C188.466 174.485 188.031 174.335 187.438 174.335C186.655 174.335 186.08 174.547 185.716 174.971C185.351 175.395 185.169 176.094 185.169 177.069V181H184.034V173.508H184.957L185.142 174.533H185.196C185.429 174.164 185.755 173.879 186.174 173.679C186.593 173.474 187.06 173.371 187.575 173.371C188.478 173.371 189.157 173.59 189.612 174.027C190.068 174.46 190.296 175.155 190.296 176.112V181H189.161ZM199.101 177.247C199.101 178.468 198.793 179.423 198.178 180.111C197.562 180.795 196.713 181.137 195.628 181.137C194.958 181.137 194.363 180.979 193.844 180.665C193.324 180.351 192.923 179.899 192.641 179.312C192.358 178.724 192.217 178.035 192.217 177.247C192.217 176.026 192.522 175.076 193.133 174.396C193.743 173.713 194.591 173.371 195.676 173.371C196.724 173.371 197.556 173.72 198.171 174.417C198.791 175.114 199.101 176.058 199.101 177.247ZM193.393 177.247C193.393 178.204 193.584 178.933 193.967 179.435C194.35 179.936 194.912 180.187 195.655 180.187C196.398 180.187 196.961 179.938 197.344 179.441C197.731 178.94 197.925 178.209 197.925 177.247C197.925 176.295 197.731 175.572 197.344 175.08C196.961 174.583 196.394 174.335 195.642 174.335C194.899 174.335 194.338 174.579 193.96 175.066C193.582 175.554 193.393 176.281 193.393 177.247ZM203.517 180.2C203.717 180.2 203.911 180.187 204.098 180.159C204.285 180.127 204.433 180.095 204.542 180.063V180.932C204.419 180.991 204.237 181.039 203.995 181.075C203.758 181.116 203.544 181.137 203.353 181.137C201.903 181.137 201.179 180.373 201.179 178.847V174.39H200.105V173.843L201.179 173.371L201.657 171.771H202.313V173.508H204.487V174.39H202.313V178.799C202.313 179.25 202.421 179.596 202.635 179.838C202.849 180.079 203.143 180.2 203.517 180.2ZM212.848 181.137C211.74 181.137 210.865 180.799 210.223 180.125C209.585 179.451 209.266 178.514 209.266 177.315C209.266 176.108 209.562 175.148 210.154 174.438C210.751 173.727 211.551 173.371 212.554 173.371C213.493 173.371 214.235 173.681 214.782 174.301C215.329 174.916 215.603 175.729 215.603 176.741V177.459H210.441C210.464 178.339 210.685 179.006 211.104 179.462C211.528 179.918 212.123 180.146 212.889 180.146C213.695 180.146 214.493 179.977 215.281 179.64V180.651C214.88 180.825 214.5 180.948 214.14 181.021C213.784 181.098 213.354 181.137 212.848 181.137ZM212.54 174.321C211.938 174.321 211.458 174.517 211.098 174.909C210.742 175.301 210.533 175.843 210.469 176.536H214.386C214.386 175.821 214.226 175.274 213.907 174.896C213.588 174.513 213.132 174.321 212.54 174.321ZM222.671 181V176.153C222.671 175.543 222.532 175.087 222.254 174.786C221.976 174.485 221.541 174.335 220.948 174.335C220.164 174.335 219.59 174.547 219.226 174.971C218.861 175.395 218.679 176.094 218.679 177.069V181H217.544V173.508H218.467L218.651 174.533H218.706C218.938 174.164 219.264 173.879 219.684 173.679C220.103 173.474 220.57 173.371 221.085 173.371C221.987 173.371 222.666 173.59 223.122 174.027C223.578 174.46 223.806 175.155 223.806 176.112V181H222.671ZM229.138 181.137C228.053 181.137 227.212 180.804 226.615 180.139C226.023 179.469 225.727 178.523 225.727 177.302C225.727 176.049 226.027 175.08 226.629 174.396C227.235 173.713 228.096 173.371 229.213 173.371C229.573 173.371 229.933 173.41 230.293 173.487C230.653 173.565 230.936 173.656 231.141 173.761L230.792 174.725C230.541 174.624 230.268 174.542 229.972 174.479C229.675 174.41 229.413 174.376 229.186 174.376C227.663 174.376 226.902 175.347 226.902 177.288C226.902 178.209 227.087 178.915 227.456 179.407C227.83 179.899 228.381 180.146 229.11 180.146C229.735 180.146 230.375 180.011 231.031 179.742V180.747C230.53 181.007 229.899 181.137 229.138 181.137ZM236.233 173.371C236.566 173.371 236.865 173.398 237.129 173.453L236.972 174.506C236.662 174.438 236.388 174.403 236.151 174.403C235.545 174.403 235.026 174.649 234.593 175.142C234.164 175.634 233.95 176.247 233.95 176.98V181H232.815V173.508H233.752L233.882 174.896H233.937C234.215 174.408 234.549 174.032 234.941 173.768C235.333 173.503 235.764 173.371 236.233 173.371ZM237.341 173.508H238.558L240.198 177.78C240.558 178.756 240.782 179.46 240.868 179.893H240.923C240.982 179.66 241.105 179.264 241.292 178.703C241.483 178.138 242.103 176.406 243.151 173.508H244.368L241.148 182.039C240.829 182.882 240.456 183.479 240.027 183.83C239.604 184.186 239.082 184.363 238.462 184.363C238.116 184.363 237.774 184.325 237.437 184.247V183.338C237.687 183.393 237.967 183.42 238.277 183.42C239.057 183.42 239.613 182.982 239.945 182.107L240.362 181.041L237.341 173.508ZM249.071 181.137C248.584 181.137 248.137 181.048 247.731 180.87C247.33 180.688 246.993 180.41 246.72 180.036H246.638C246.692 180.474 246.72 180.888 246.72 181.28V184.363H245.585V173.508H246.508L246.665 174.533H246.72C247.011 174.123 247.351 173.827 247.738 173.645C248.126 173.462 248.57 173.371 249.071 173.371C250.065 173.371 250.83 173.711 251.368 174.39C251.91 175.069 252.182 176.021 252.182 177.247C252.182 178.478 251.906 179.435 251.354 180.118C250.808 180.797 250.047 181.137 249.071 181.137ZM248.907 174.335C248.142 174.335 247.588 174.547 247.246 174.971C246.904 175.395 246.729 176.069 246.72 176.994V177.247C246.72 178.3 246.895 179.054 247.246 179.51C247.597 179.961 248.16 180.187 248.935 180.187C249.582 180.187 250.088 179.924 250.452 179.4C250.821 178.876 251.006 178.154 251.006 177.233C251.006 176.299 250.821 175.584 250.452 175.087C250.088 174.586 249.573 174.335 248.907 174.335ZM256.591 180.2C256.791 180.2 256.985 180.187 257.172 180.159C257.359 180.127 257.507 180.095 257.616 180.063V180.932C257.493 180.991 257.311 181.039 257.069 181.075C256.832 181.116 256.618 181.137 256.427 181.137C254.978 181.137 254.253 180.373 254.253 178.847V174.39H253.18V173.843L254.253 173.371L254.731 171.771H255.388V173.508H257.562V174.39H255.388V178.799C255.388 179.25 255.495 179.596 255.709 179.838C255.923 180.079 256.217 180.2 256.591 180.2ZM262.285 181.137C261.178 181.137 260.303 180.799 259.66 180.125C259.022 179.451 258.703 178.514 258.703 177.315C258.703 176.108 258.999 175.148 259.592 174.438C260.189 173.727 260.989 173.371 261.991 173.371C262.93 173.371 263.673 173.681 264.22 174.301C264.767 174.916 265.04 175.729 265.04 176.741V177.459H259.879C259.902 178.339 260.123 179.006 260.542 179.462C260.966 179.918 261.561 180.146 262.326 180.146C263.133 180.146 263.93 179.977 264.719 179.64V180.651C264.318 180.825 263.937 180.948 263.577 181.021C263.222 181.098 262.791 181.137 262.285 181.137ZM261.978 174.321C261.376 174.321 260.895 174.517 260.535 174.909C260.18 175.301 259.97 175.843 259.906 176.536H263.823C263.823 175.821 263.664 175.274 263.345 174.896C263.026 174.513 262.57 174.321 261.978 174.321ZM272.081 179.995H272.02C271.495 180.756 270.712 181.137 269.668 181.137C268.688 181.137 267.925 180.802 267.378 180.132C266.836 179.462 266.564 178.509 266.564 177.274C266.564 176.039 266.838 175.08 267.385 174.396C267.932 173.713 268.693 173.371 269.668 173.371C270.684 173.371 271.464 173.74 272.006 174.479H272.095L272.047 173.938L272.02 173.412V170.363H273.154V181H272.231L272.081 179.995ZM269.812 180.187C270.586 180.187 271.147 179.977 271.493 179.558C271.844 179.134 272.02 178.452 272.02 177.514V177.274C272.02 176.213 271.842 175.456 271.486 175.005C271.135 174.549 270.573 174.321 269.798 174.321C269.132 174.321 268.622 174.581 268.267 175.101C267.916 175.616 267.74 176.345 267.74 177.288C267.74 178.245 267.916 178.967 268.267 179.455C268.618 179.943 269.132 180.187 269.812 180.187ZM275.403 180.275C275.403 179.97 275.472 179.74 275.608 179.585C275.75 179.425 275.95 179.346 276.21 179.346C276.474 179.346 276.679 179.425 276.825 179.585C276.976 179.74 277.051 179.97 277.051 180.275C277.051 180.572 276.976 180.799 276.825 180.959C276.675 181.118 276.47 181.198 276.21 181.198C275.978 181.198 275.784 181.128 275.629 180.986C275.479 180.84 275.403 180.604 275.403 180.275ZM285.65 176.003L288.316 171.006H289.574L286.238 177.124V181H285.062V177.179L281.733 171.006H283.005L285.65 176.003ZM296.554 177.247C296.554 178.468 296.246 179.423 295.631 180.111C295.016 180.795 294.166 181.137 293.081 181.137C292.411 181.137 291.816 180.979 291.297 180.665C290.777 180.351 290.376 179.899 290.094 179.312C289.811 178.724 289.67 178.035 289.67 177.247C289.67 176.026 289.975 175.076 290.586 174.396C291.197 173.713 292.044 173.371 293.129 173.371C294.177 173.371 295.009 173.72 295.624 174.417C296.244 175.114 296.554 176.058 296.554 177.247ZM290.846 177.247C290.846 178.204 291.037 178.933 291.42 179.435C291.803 179.936 292.366 180.187 293.108 180.187C293.851 180.187 294.414 179.938 294.797 179.441C295.184 178.94 295.378 178.209 295.378 177.247C295.378 176.295 295.184 175.572 294.797 175.08C294.414 174.583 293.847 174.335 293.095 174.335C292.352 174.335 291.791 174.579 291.413 175.066C291.035 175.554 290.846 176.281 290.846 177.247ZM299.616 173.508V178.368C299.616 178.979 299.755 179.435 300.033 179.735C300.311 180.036 300.746 180.187 301.339 180.187C302.123 180.187 302.695 179.972 303.055 179.544C303.419 179.116 303.602 178.416 303.602 177.445V173.508H304.736V181H303.8L303.636 179.995H303.574C303.342 180.364 303.018 180.647 302.604 180.843C302.193 181.039 301.724 181.137 301.195 181.137C300.284 181.137 299.6 180.92 299.145 180.487C298.693 180.054 298.468 179.362 298.468 178.409V173.508H299.616ZM310.567 173.371C310.9 173.371 311.199 173.398 311.463 173.453L311.306 174.506C310.996 174.438 310.722 174.403 310.485 174.403C309.879 174.403 309.36 174.649 308.927 175.142C308.498 175.634 308.284 176.247 308.284 176.98V181H307.149V173.508H308.086L308.216 174.896H308.271C308.549 174.408 308.883 174.032 309.275 173.768C309.667 173.503 310.098 173.371 310.567 173.371ZM17.0527 199V189.006H18.2148V199H17.0527ZM27.2998 191.918C27.2998 192.93 26.9535 193.709 26.2607 194.256C25.5726 194.798 24.5859 195.069 23.3008 195.069H22.125V199H20.9629V189.006H23.5537C26.0511 189.006 27.2998 189.977 27.2998 191.918ZM22.125 194.071H23.1709C24.2008 194.071 24.946 193.905 25.4062 193.572C25.8665 193.24 26.0967 192.706 26.0967 191.973C26.0967 191.312 25.8802 190.82 25.4473 190.496C25.0143 190.173 24.3398 190.011 23.4238 190.011H22.125V194.071ZM37.4717 199L37.2461 197.934H37.1914C36.8177 198.403 36.444 198.722 36.0703 198.891C35.7012 199.055 35.2386 199.137 34.6826 199.137C33.9398 199.137 33.3564 198.945 32.9326 198.562C32.5133 198.18 32.3037 197.635 32.3037 196.929C32.3037 195.416 33.5137 194.623 35.9336 194.55L37.2051 194.509V194.044C37.2051 193.456 37.0775 193.023 36.8223 192.745C36.5716 192.463 36.1683 192.321 35.6123 192.321C34.988 192.321 34.2816 192.513 33.4932 192.896L33.1445 192.027C33.5137 191.827 33.917 191.67 34.3545 191.556C34.7965 191.442 35.2386 191.385 35.6807 191.385C36.5739 191.385 37.2347 191.583 37.6631 191.979C38.096 192.376 38.3125 193.012 38.3125 193.887V199H37.4717ZM34.9082 198.2C35.6146 198.2 36.1683 198.007 36.5693 197.619C36.9749 197.232 37.1777 196.689 37.1777 195.992V195.315L36.043 195.363C35.1406 195.395 34.4889 195.536 34.0879 195.787C33.6914 196.033 33.4932 196.418 33.4932 196.942C33.4932 197.353 33.6162 197.665 33.8623 197.879C34.113 198.093 34.4616 198.2 34.9082 198.2ZM45.7842 199V194.153C45.7842 193.543 45.6452 193.087 45.3672 192.786C45.0892 192.485 44.654 192.335 44.0615 192.335C43.2777 192.335 42.7035 192.547 42.3389 192.971C41.9743 193.395 41.792 194.094 41.792 195.069V199H40.6572V191.508H41.5801L41.7646 192.533H41.8193C42.0518 192.164 42.3776 191.879 42.7969 191.679C43.2161 191.474 43.6833 191.371 44.1982 191.371C45.1006 191.371 45.7796 191.59 46.2354 192.027C46.6911 192.46 46.9189 193.155 46.9189 194.112V199H45.7842ZM54.3564 197.995H54.2949C53.7708 198.756 52.987 199.137 51.9434 199.137C50.9635 199.137 50.2002 198.802 49.6533 198.132C49.111 197.462 48.8398 196.509 48.8398 195.274C48.8398 194.039 49.1133 193.08 49.6602 192.396C50.207 191.713 50.9681 191.371 51.9434 191.371C52.9596 191.371 53.7389 191.74 54.2812 192.479H54.3701L54.3223 191.938L54.2949 191.412V188.363H55.4297V199H54.5068L54.3564 197.995ZM52.0869 198.187C52.8617 198.187 53.4222 197.977 53.7686 197.558C54.1195 197.134 54.2949 196.452 54.2949 195.514V195.274C54.2949 194.213 54.1172 193.456 53.7617 193.005C53.4108 192.549 52.848 192.321 52.0732 192.321C51.4079 192.321 50.8975 192.581 50.542 193.101C50.1911 193.616 50.0156 194.345 50.0156 195.288C50.0156 196.245 50.1911 196.967 50.542 197.455C50.8929 197.943 51.4079 198.187 52.0869 198.187ZM62.6143 199H61.4795V188.363H62.6143V199ZM71.4873 195.247C71.4873 196.468 71.1797 197.423 70.5645 198.111C69.9492 198.795 69.0993 199.137 68.0146 199.137C67.3447 199.137 66.75 198.979 66.2305 198.665C65.7109 198.351 65.3099 197.899 65.0273 197.312C64.7448 196.724 64.6035 196.035 64.6035 195.247C64.6035 194.026 64.9089 193.076 65.5195 192.396C66.1302 191.713 66.9779 191.371 68.0625 191.371C69.1107 191.371 69.9424 191.72 70.5576 192.417C71.1774 193.114 71.4873 194.058 71.4873 195.247ZM65.7793 195.247C65.7793 196.204 65.9707 196.933 66.3535 197.435C66.7363 197.936 67.2992 198.187 68.042 198.187C68.7848 198.187 69.3477 197.938 69.7305 197.441C70.1178 196.94 70.3115 196.209 70.3115 195.247C70.3115 194.295 70.1178 193.572 69.7305 193.08C69.3477 192.583 68.7803 192.335 68.0283 192.335C67.2855 192.335 66.7249 192.579 66.3467 193.066C65.9684 193.554 65.7793 194.281 65.7793 195.247ZM76.4775 199.137C75.3929 199.137 74.5521 198.804 73.9551 198.139C73.3626 197.469 73.0664 196.523 73.0664 195.302C73.0664 194.049 73.3672 193.08 73.9688 192.396C74.5749 191.713 75.4362 191.371 76.5527 191.371C76.9128 191.371 77.2728 191.41 77.6328 191.487C77.9928 191.565 78.2754 191.656 78.4805 191.761L78.1318 192.725C77.8812 192.624 77.6077 192.542 77.3115 192.479C77.0153 192.41 76.7533 192.376 76.5254 192.376C75.0033 192.376 74.2422 193.347 74.2422 195.288C74.2422 196.209 74.4268 196.915 74.7959 197.407C75.1696 197.899 75.721 198.146 76.4502 198.146C77.0745 198.146 77.7148 198.011 78.3711 197.742V198.747C77.8698 199.007 77.2386 199.137 76.4775 199.137ZM84.7627 199L84.5371 197.934H84.4824C84.1087 198.403 83.735 198.722 83.3613 198.891C82.9922 199.055 82.5296 199.137 81.9736 199.137C81.2308 199.137 80.6475 198.945 80.2236 198.562C79.8044 198.18 79.5947 197.635 79.5947 196.929C79.5947 195.416 80.8047 194.623 83.2246 194.55L84.4961 194.509V194.044C84.4961 193.456 84.3685 193.023 84.1133 192.745C83.8626 192.463 83.4593 192.321 82.9033 192.321C82.279 192.321 81.5726 192.513 80.7842 192.896L80.4355 192.027C80.8047 191.827 81.208 191.67 81.6455 191.556C82.0876 191.442 82.5296 191.385 82.9717 191.385C83.8649 191.385 84.5257 191.583 84.9541 191.979C85.387 192.376 85.6035 193.012 85.6035 193.887V199H84.7627ZM82.1992 198.2C82.9056 198.2 83.4593 198.007 83.8604 197.619C84.266 197.232 84.4688 196.689 84.4688 195.992V195.315L83.334 195.363C82.4316 195.395 81.7799 195.536 81.3789 195.787C80.9824 196.033 80.7842 196.418 80.7842 196.942C80.7842 197.353 80.9072 197.665 81.1533 197.879C81.404 198.093 81.7526 198.2 82.1992 198.2ZM90.3682 198.2C90.5687 198.2 90.7624 198.187 90.9492 198.159C91.1361 198.127 91.2842 198.095 91.3936 198.063V198.932C91.2705 198.991 91.0882 199.039 90.8467 199.075C90.6097 199.116 90.3955 199.137 90.2041 199.137C88.7549 199.137 88.0303 198.373 88.0303 196.847V192.39H86.957V191.843L88.0303 191.371L88.5088 189.771H89.165V191.508H91.3389V192.39H89.165V196.799C89.165 197.25 89.2721 197.596 89.4863 197.838C89.7005 198.079 89.9945 198.2 90.3682 198.2ZM94.0322 199H92.8975V191.508H94.0322V199ZM92.8018 189.478C92.8018 189.218 92.8656 189.029 92.9932 188.91C93.1208 188.787 93.2803 188.726 93.4717 188.726C93.654 188.726 93.8112 188.787 93.9434 188.91C94.0755 189.033 94.1416 189.222 94.1416 189.478C94.1416 189.733 94.0755 189.924 93.9434 190.052C93.8112 190.175 93.654 190.236 93.4717 190.236C93.2803 190.236 93.1208 190.175 92.9932 190.052C92.8656 189.924 92.8018 189.733 92.8018 189.478ZM102.905 195.247C102.905 196.468 102.598 197.423 101.982 198.111C101.367 198.795 100.517 199.137 99.4326 199.137C98.7627 199.137 98.168 198.979 97.6484 198.665C97.1289 198.351 96.7279 197.899 96.4453 197.312C96.1628 196.724 96.0215 196.035 96.0215 195.247C96.0215 194.026 96.3268 193.076 96.9375 192.396C97.5482 191.713 98.3958 191.371 99.4805 191.371C100.529 191.371 101.36 191.72 101.976 192.417C102.595 193.114 102.905 194.058 102.905 195.247ZM97.1973 195.247C97.1973 196.204 97.3887 196.933 97.7715 197.435C98.1543 197.936 98.7171 198.187 99.46 198.187C100.203 198.187 100.766 197.938 101.148 197.441C101.536 196.94 101.729 196.209 101.729 195.247C101.729 194.295 101.536 193.572 101.148 193.08C100.766 192.583 100.198 192.335 99.4463 192.335C98.7035 192.335 98.1429 192.579 97.7646 193.066C97.3864 193.554 97.1973 194.281 97.1973 195.247ZM110.028 199V194.153C110.028 193.543 109.889 193.087 109.611 192.786C109.333 192.485 108.898 192.335 108.306 192.335C107.522 192.335 106.948 192.547 106.583 192.971C106.218 193.395 106.036 194.094 106.036 195.069V199H104.901V191.508H105.824L106.009 192.533H106.063C106.296 192.164 106.622 191.879 107.041 191.679C107.46 191.474 107.927 191.371 108.442 191.371C109.345 191.371 110.024 191.59 110.479 192.027C110.935 192.46 111.163 193.155 111.163 194.112V199H110.028ZM121.745 199L121.52 197.934H121.465C121.091 198.403 120.717 198.722 120.344 198.891C119.975 199.055 119.512 199.137 118.956 199.137C118.213 199.137 117.63 198.945 117.206 198.562C116.787 198.18 116.577 197.635 116.577 196.929C116.577 195.416 117.787 194.623 120.207 194.55L121.479 194.509V194.044C121.479 193.456 121.351 193.023 121.096 192.745C120.845 192.463 120.442 192.321 119.886 192.321C119.261 192.321 118.555 192.513 117.767 192.896L117.418 192.027C117.787 191.827 118.19 191.67 118.628 191.556C119.07 191.442 119.512 191.385 119.954 191.385C120.847 191.385 121.508 191.583 121.937 191.979C122.369 192.376 122.586 193.012 122.586 193.887V199H121.745ZM119.182 198.2C119.888 198.2 120.442 198.007 120.843 197.619C121.248 197.232 121.451 196.689 121.451 195.992V195.315L120.316 195.363C119.414 195.395 118.762 195.536 118.361 195.787C117.965 196.033 117.767 196.418 117.767 196.942C117.767 197.353 117.89 197.665 118.136 197.879C118.386 198.093 118.735 198.2 119.182 198.2ZM128.349 191.371C128.681 191.371 128.98 191.398 129.244 191.453L129.087 192.506C128.777 192.438 128.504 192.403 128.267 192.403C127.66 192.403 127.141 192.649 126.708 193.142C126.28 193.634 126.065 194.247 126.065 194.98V199H124.931V191.508H125.867L125.997 192.896H126.052C126.33 192.408 126.665 192.032 127.057 191.768C127.449 191.503 127.879 191.371 128.349 191.371ZM133.523 199.137C132.416 199.137 131.541 198.799 130.898 198.125C130.26 197.451 129.941 196.514 129.941 195.315C129.941 194.108 130.238 193.148 130.83 192.438C131.427 191.727 132.227 191.371 133.229 191.371C134.168 191.371 134.911 191.681 135.458 192.301C136.005 192.916 136.278 193.729 136.278 194.741V195.459H131.117C131.14 196.339 131.361 197.006 131.78 197.462C132.204 197.918 132.799 198.146 133.564 198.146C134.371 198.146 135.169 197.977 135.957 197.64V198.651C135.556 198.825 135.175 198.948 134.815 199.021C134.46 199.098 134.029 199.137 133.523 199.137ZM133.216 192.321C132.614 192.321 132.133 192.517 131.773 192.909C131.418 193.301 131.208 193.843 131.145 194.536H135.062C135.062 193.821 134.902 193.274 134.583 192.896C134.264 192.513 133.808 192.321 133.216 192.321ZM146.464 199L146.238 197.934H146.184C145.81 198.403 145.436 198.722 145.062 198.891C144.693 199.055 144.231 199.137 143.675 199.137C142.932 199.137 142.349 198.945 141.925 198.562C141.506 198.18 141.296 197.635 141.296 196.929C141.296 195.416 142.506 194.623 144.926 194.55L146.197 194.509V194.044C146.197 193.456 146.07 193.023 145.814 192.745C145.564 192.463 145.16 192.321 144.604 192.321C143.98 192.321 143.274 192.513 142.485 192.896L142.137 192.027C142.506 191.827 142.909 191.67 143.347 191.556C143.789 191.442 144.231 191.385 144.673 191.385C145.566 191.385 146.227 191.583 146.655 191.979C147.088 192.376 147.305 193.012 147.305 193.887V199H146.464ZM143.9 198.2C144.607 198.2 145.16 198.007 145.562 197.619C145.967 197.232 146.17 196.689 146.17 195.992V195.315L145.035 195.363C144.133 195.395 143.481 195.536 143.08 195.787C142.684 196.033 142.485 196.418 142.485 196.942C142.485 197.353 142.608 197.665 142.854 197.879C143.105 198.093 143.454 198.2 143.9 198.2ZM151.29 199L148.446 191.508H149.663L151.276 195.951C151.641 196.99 151.855 197.665 151.919 197.975H151.974C152.024 197.733 152.181 197.234 152.445 196.478C152.714 195.716 153.313 194.06 154.243 191.508H155.46L152.616 199H151.29ZM161.271 199L161.045 197.934H160.99C160.617 198.403 160.243 198.722 159.869 198.891C159.5 199.055 159.037 199.137 158.481 199.137C157.739 199.137 157.155 198.945 156.731 198.562C156.312 198.18 156.103 197.635 156.103 196.929C156.103 195.416 157.312 194.623 159.732 194.55L161.004 194.509V194.044C161.004 193.456 160.876 193.023 160.621 192.745C160.37 192.463 159.967 192.321 159.411 192.321C158.787 192.321 158.08 192.513 157.292 192.896L156.943 192.027C157.312 191.827 157.716 191.67 158.153 191.556C158.595 191.442 159.037 191.385 159.479 191.385C160.373 191.385 161.034 191.583 161.462 191.979C161.895 192.376 162.111 193.012 162.111 193.887V199H161.271ZM158.707 198.2C159.413 198.2 159.967 198.007 160.368 197.619C160.774 197.232 160.977 196.689 160.977 195.992V195.315L159.842 195.363C158.939 195.395 158.288 195.536 157.887 195.787C157.49 196.033 157.292 196.418 157.292 196.942C157.292 197.353 157.415 197.665 157.661 197.879C157.912 198.093 158.26 198.2 158.707 198.2ZM165.591 199H164.456V191.508H165.591V199ZM164.36 189.478C164.36 189.218 164.424 189.029 164.552 188.91C164.679 188.787 164.839 188.726 165.03 188.726C165.213 188.726 165.37 188.787 165.502 188.91C165.634 189.033 165.7 189.222 165.7 189.478C165.7 189.733 165.634 189.924 165.502 190.052C165.37 190.175 165.213 190.236 165.03 190.236C164.839 190.236 164.679 190.175 164.552 190.052C164.424 189.924 164.36 189.733 164.36 189.478ZM169.132 199H167.997V188.363H169.132V199ZM176.146 199L175.92 197.934H175.865C175.492 198.403 175.118 198.722 174.744 198.891C174.375 199.055 173.912 199.137 173.356 199.137C172.614 199.137 172.03 198.945 171.606 198.562C171.187 198.18 170.978 197.635 170.978 196.929C170.978 195.416 172.188 194.623 174.607 194.55L175.879 194.509V194.044C175.879 193.456 175.751 193.023 175.496 192.745C175.245 192.463 174.842 192.321 174.286 192.321C173.662 192.321 172.955 192.513 172.167 192.896L171.818 192.027C172.188 191.827 172.591 191.67 173.028 191.556C173.47 191.442 173.912 191.385 174.354 191.385C175.248 191.385 175.909 191.583 176.337 191.979C176.77 192.376 176.986 193.012 176.986 193.887V199H176.146ZM173.582 198.2C174.288 198.2 174.842 198.007 175.243 197.619C175.649 197.232 175.852 196.689 175.852 195.992V195.315L174.717 195.363C173.814 195.395 173.163 195.536 172.762 195.787C172.365 196.033 172.167 196.418 172.167 196.942C172.167 197.353 172.29 197.665 172.536 197.879C172.787 198.093 173.135 198.2 173.582 198.2ZM182.817 191.385C183.802 191.385 184.565 191.722 185.107 192.396C185.654 193.066 185.928 194.017 185.928 195.247C185.928 196.478 185.652 197.435 185.101 198.118C184.554 198.797 183.793 199.137 182.817 199.137C182.33 199.137 181.883 199.048 181.478 198.87C181.076 198.688 180.739 198.41 180.466 198.036H180.384L180.145 199H179.331V188.363H180.466V190.947C180.466 191.526 180.448 192.046 180.411 192.506H180.466C180.994 191.758 181.778 191.385 182.817 191.385ZM182.653 192.335C181.879 192.335 181.32 192.558 180.979 193.005C180.637 193.447 180.466 194.194 180.466 195.247C180.466 196.3 180.641 197.054 180.992 197.51C181.343 197.961 181.906 198.187 182.681 198.187C183.378 198.187 183.897 197.934 184.239 197.428C184.581 196.917 184.752 196.186 184.752 195.233C184.752 194.258 184.581 193.531 184.239 193.053C183.897 192.574 183.369 192.335 182.653 192.335ZM189.052 199H187.917V188.363H189.052V199ZM194.623 199.137C193.516 199.137 192.641 198.799 191.998 198.125C191.36 197.451 191.041 196.514 191.041 195.315C191.041 194.108 191.337 193.148 191.93 192.438C192.527 191.727 193.326 191.371 194.329 191.371C195.268 191.371 196.011 191.681 196.558 192.301C197.104 192.916 197.378 193.729 197.378 194.741V195.459H192.217C192.24 196.339 192.461 197.006 192.88 197.462C193.304 197.918 193.898 198.146 194.664 198.146C195.471 198.146 196.268 197.977 197.057 197.64V198.651C196.656 198.825 196.275 198.948 195.915 199.021C195.56 199.098 195.129 199.137 194.623 199.137ZM194.315 192.321C193.714 192.321 193.233 192.517 192.873 192.909C192.518 193.301 192.308 193.843 192.244 194.536H196.161C196.161 193.821 196.002 193.274 195.683 192.896C195.364 192.513 194.908 192.321 194.315 192.321ZM206.333 192.39H204.426V199H203.291V192.39H201.951V191.877L203.291 191.467V191.05C203.291 189.209 204.095 188.288 205.704 188.288C206.101 188.288 206.565 188.368 207.099 188.527L206.805 189.437C206.367 189.295 205.993 189.225 205.684 189.225C205.255 189.225 204.938 189.368 204.733 189.655C204.528 189.938 204.426 190.394 204.426 191.022V191.508H206.333V192.39ZM214.167 195.247C214.167 196.468 213.859 197.423 213.244 198.111C212.629 198.795 211.779 199.137 210.694 199.137C210.024 199.137 209.43 198.979 208.91 198.665C208.391 198.351 207.99 197.899 207.707 197.312C207.424 196.724 207.283 196.035 207.283 195.247C207.283 194.026 207.589 193.076 208.199 192.396C208.81 191.713 209.658 191.371 210.742 191.371C211.79 191.371 212.622 191.72 213.237 192.417C213.857 193.114 214.167 194.058 214.167 195.247ZM208.459 195.247C208.459 196.204 208.65 196.933 209.033 197.435C209.416 197.936 209.979 198.187 210.722 198.187C211.465 198.187 212.027 197.938 212.41 197.441C212.798 196.94 212.991 196.209 212.991 195.247C212.991 194.295 212.798 193.572 212.41 193.08C212.027 192.583 211.46 192.335 210.708 192.335C209.965 192.335 209.405 192.579 209.026 193.066C208.648 193.554 208.459 194.281 208.459 195.247ZM219.581 191.371C219.914 191.371 220.212 191.398 220.477 191.453L220.319 192.506C220.009 192.438 219.736 192.403 219.499 192.403C218.893 192.403 218.373 192.649 217.94 193.142C217.512 193.634 217.298 194.247 217.298 194.98V199H216.163V191.508H217.1L217.229 192.896H217.284C217.562 192.408 217.897 192.032 218.289 191.768C218.681 191.503 219.112 191.371 219.581 191.371ZM227.935 198.2C228.135 198.2 228.329 198.187 228.516 198.159C228.702 198.127 228.851 198.095 228.96 198.063V198.932C228.837 198.991 228.655 199.039 228.413 199.075C228.176 199.116 227.962 199.137 227.771 199.137C226.321 199.137 225.597 198.373 225.597 196.847V192.39H224.523V191.843L225.597 191.371L226.075 189.771H226.731V191.508H228.905V192.39H226.731V196.799C226.731 197.25 226.839 197.596 227.053 197.838C227.267 198.079 227.561 198.2 227.935 198.2ZM235.591 199V194.153C235.591 193.543 235.452 193.087 235.174 192.786C234.896 192.485 234.461 192.335 233.868 192.335C233.08 192.335 232.503 192.549 232.139 192.978C231.779 193.406 231.599 194.108 231.599 195.083V199H230.464V188.363H231.599V191.583C231.599 191.97 231.58 192.292 231.544 192.547H231.612C231.836 192.187 232.152 191.904 232.562 191.699C232.977 191.49 233.449 191.385 233.978 191.385C234.894 191.385 235.579 191.604 236.035 192.041C236.495 192.474 236.726 193.164 236.726 194.112V199H235.591ZM240.198 199H239.063V191.508H240.198V199ZM238.968 189.478C238.968 189.218 239.032 189.029 239.159 188.91C239.287 188.787 239.446 188.726 239.638 188.726C239.82 188.726 239.977 188.787 240.109 188.91C240.242 189.033 240.308 189.222 240.308 189.478C240.308 189.733 240.242 189.924 240.109 190.052C239.977 190.175 239.82 190.236 239.638 190.236C239.446 190.236 239.287 190.175 239.159 190.052C239.032 189.924 238.968 189.733 238.968 189.478ZM246.022 191.371C246.355 191.371 246.654 191.398 246.918 191.453L246.761 192.506C246.451 192.438 246.177 192.403 245.94 192.403C245.334 192.403 244.815 192.649 244.382 193.142C243.953 193.634 243.739 194.247 243.739 194.98V199H242.604V191.508H243.541L243.671 192.896H243.726C244.004 192.408 244.339 192.032 244.73 191.768C245.122 191.503 245.553 191.371 246.022 191.371ZM253.132 197.995H253.07C252.546 198.756 251.762 199.137 250.719 199.137C249.739 199.137 248.976 198.802 248.429 198.132C247.886 197.462 247.615 196.509 247.615 195.274C247.615 194.039 247.889 193.08 248.436 192.396C248.982 191.713 249.743 191.371 250.719 191.371C251.735 191.371 252.514 191.74 253.057 192.479H253.146L253.098 191.938L253.07 191.412V188.363H254.205V199H253.282L253.132 197.995ZM250.862 198.187C251.637 198.187 252.198 197.977 252.544 197.558C252.895 197.134 253.07 196.452 253.07 195.514V195.274C253.07 194.213 252.893 193.456 252.537 193.005C252.186 192.549 251.623 192.321 250.849 192.321C250.183 192.321 249.673 192.581 249.317 193.101C248.966 193.616 248.791 194.345 248.791 195.288C248.791 196.245 248.966 196.967 249.317 197.455C249.668 197.943 250.183 198.187 250.862 198.187ZM263.741 199.137C263.254 199.137 262.807 199.048 262.401 198.87C262 198.688 261.663 198.41 261.39 198.036H261.308C261.362 198.474 261.39 198.888 261.39 199.28V202.363H260.255V191.508H261.178L261.335 192.533H261.39C261.681 192.123 262.021 191.827 262.408 191.645C262.796 191.462 263.24 191.371 263.741 191.371C264.735 191.371 265.5 191.711 266.038 192.39C266.58 193.069 266.852 194.021 266.852 195.247C266.852 196.478 266.576 197.435 266.024 198.118C265.478 198.797 264.716 199.137 263.741 199.137ZM263.577 192.335C262.812 192.335 262.258 192.547 261.916 192.971C261.574 193.395 261.399 194.069 261.39 194.994V195.247C261.39 196.3 261.565 197.054 261.916 197.51C262.267 197.961 262.83 198.187 263.604 198.187C264.252 198.187 264.757 197.924 265.122 197.4C265.491 196.876 265.676 196.154 265.676 195.233C265.676 194.299 265.491 193.584 265.122 193.087C264.757 192.586 264.243 192.335 263.577 192.335ZM273.448 199L273.223 197.934H273.168C272.794 198.403 272.421 198.722 272.047 198.891C271.678 199.055 271.215 199.137 270.659 199.137C269.916 199.137 269.333 198.945 268.909 198.562C268.49 198.18 268.28 197.635 268.28 196.929C268.28 195.416 269.49 194.623 271.91 194.55L273.182 194.509V194.044C273.182 193.456 273.054 193.023 272.799 192.745C272.548 192.463 272.145 192.321 271.589 192.321C270.965 192.321 270.258 192.513 269.47 192.896L269.121 192.027C269.49 191.827 269.894 191.67 270.331 191.556C270.773 191.442 271.215 191.385 271.657 191.385C272.55 191.385 273.211 191.583 273.64 191.979C274.073 192.376 274.289 193.012 274.289 193.887V199H273.448ZM270.885 198.2C271.591 198.2 272.145 198.007 272.546 197.619C272.951 197.232 273.154 196.689 273.154 195.992V195.315L272.02 195.363C271.117 195.395 270.465 195.536 270.064 195.787C269.668 196.033 269.47 196.418 269.47 196.942C269.47 197.353 269.593 197.665 269.839 197.879C270.09 198.093 270.438 198.2 270.885 198.2ZM280.052 191.371C280.384 191.371 280.683 191.398 280.947 191.453L280.79 192.506C280.48 192.438 280.207 192.403 279.97 192.403C279.364 192.403 278.844 192.649 278.411 193.142C277.983 193.634 277.769 194.247 277.769 194.98V199H276.634V191.508H277.57L277.7 192.896H277.755C278.033 192.408 278.368 192.032 278.76 191.768C279.152 191.503 279.582 191.371 280.052 191.371ZM284.769 198.2C284.969 198.2 285.163 198.187 285.35 198.159C285.536 198.127 285.685 198.095 285.794 198.063V198.932C285.671 198.991 285.489 199.039 285.247 199.075C285.01 199.116 284.796 199.137 284.604 199.137C283.155 199.137 282.431 198.373 282.431 196.847V192.39H281.357V191.843L282.431 191.371L282.909 189.771H283.565V191.508H285.739V192.39H283.565V196.799C283.565 197.25 283.673 197.596 283.887 197.838C284.101 198.079 284.395 198.2 284.769 198.2ZM286.108 191.508H287.325L288.966 195.78C289.326 196.756 289.549 197.46 289.636 197.893H289.69C289.75 197.66 289.873 197.264 290.06 196.703C290.251 196.138 290.871 194.406 291.919 191.508H293.136L289.916 200.039C289.597 200.882 289.223 201.479 288.795 201.83C288.371 202.186 287.849 202.363 287.229 202.363C286.883 202.363 286.541 202.325 286.204 202.247V201.338C286.455 201.393 286.735 201.42 287.045 201.42C287.824 201.42 288.38 200.982 288.713 200.107L289.13 199.041L286.108 191.508ZM293.628 198.275C293.628 197.97 293.696 197.74 293.833 197.585C293.974 197.425 294.175 197.346 294.435 197.346C294.699 197.346 294.904 197.425 295.05 197.585C295.2 197.74 295.275 197.97 295.275 198.275C295.275 198.572 295.2 198.799 295.05 198.959C294.899 199.118 294.694 199.198 294.435 199.198C294.202 199.198 294.008 199.128 293.854 198.986C293.703 198.84 293.628 198.604 293.628 198.275Z" fill="#13233C"/>
<path d="M42 228C42 226.343 43.3431 225 45 225H267C268.657 225 270 226.343 270 228V266C270 267.657 268.657 269 267 269H45C43.3431 269 42 267.657 42 266V228Z" fill="#3B9946"/>
<path d="M120.688 244.533C120.688 245.8 120.273 246.772 119.443 247.447C118.613 248.122 117.432 248.459 115.899 248.459H114.637V253H112.653V240.864H116.148C117.664 240.864 118.799 241.174 119.551 241.794C120.309 242.414 120.688 243.327 120.688 244.533ZM114.637 246.791H115.691C116.71 246.791 117.457 246.614 117.933 246.26C118.409 245.906 118.646 245.352 118.646 244.6C118.646 243.902 118.433 243.382 118.007 243.039C117.581 242.696 116.917 242.524 116.015 242.524H114.637V246.791ZM127.562 243.653C127.954 243.653 128.278 243.681 128.533 243.736L128.342 245.554C128.065 245.488 127.777 245.455 127.479 245.455C126.698 245.455 126.065 245.709 125.578 246.218C125.096 246.727 124.855 247.389 124.855 248.202V253H122.905V243.819H124.432L124.689 245.438H124.789C125.093 244.89 125.489 244.456 125.976 244.135C126.469 243.814 126.997 243.653 127.562 243.653ZM138.037 248.393C138.037 249.893 137.653 251.063 136.883 251.904C136.114 252.745 135.043 253.166 133.671 253.166C132.813 253.166 132.055 252.972 131.396 252.585C130.738 252.198 130.232 251.641 129.877 250.917C129.523 250.192 129.346 249.35 129.346 248.393C129.346 246.904 129.728 245.742 130.492 244.907C131.255 244.071 132.332 243.653 133.721 243.653C135.049 243.653 136.1 244.082 136.875 244.94C137.65 245.792 138.037 246.943 138.037 248.393ZM131.355 248.393C131.355 250.513 132.138 251.572 133.704 251.572C135.254 251.572 136.028 250.513 136.028 248.393C136.028 246.296 135.248 245.247 133.688 245.247C132.868 245.247 132.274 245.518 131.903 246.061C131.538 246.603 131.355 247.38 131.355 248.393ZM143.707 251.589C144.182 251.589 144.658 251.514 145.134 251.365V252.834C144.918 252.928 144.639 253.006 144.296 253.066C143.958 253.133 143.607 253.166 143.242 253.166C141.393 253.166 140.469 252.192 140.469 250.244V245.297H139.216V244.434L140.561 243.72L141.225 241.777H142.428V243.819H145.043V245.297H142.428V250.211C142.428 250.681 142.544 251.03 142.777 251.257C143.015 251.478 143.325 251.589 143.707 251.589ZM150.986 253.166C149.559 253.166 148.441 252.751 147.633 251.921C146.83 251.085 146.429 249.937 146.429 248.476C146.429 246.976 146.803 245.798 147.55 244.94C148.297 244.082 149.323 243.653 150.629 243.653C151.841 243.653 152.799 244.021 153.501 244.757C154.204 245.493 154.556 246.506 154.556 247.795V248.85H148.438C148.466 249.741 148.706 250.427 149.16 250.908C149.614 251.384 150.253 251.622 151.078 251.622C151.62 251.622 152.124 251.572 152.588 251.473C153.059 251.368 153.562 251.196 154.099 250.958V252.543C153.623 252.77 153.142 252.931 152.655 253.025C152.168 253.119 151.612 253.166 150.986 253.166ZM150.629 245.131C150.01 245.131 149.512 245.327 149.135 245.72C148.764 246.113 148.543 246.686 148.471 247.438H152.638C152.627 246.68 152.444 246.108 152.09 245.72C151.736 245.327 151.249 245.131 150.629 245.131ZM160.474 253.166C159.085 253.166 158.028 252.762 157.303 251.954C156.584 251.141 156.224 249.976 156.224 248.459C156.224 246.916 156.6 245.729 157.353 244.898C158.111 244.068 159.204 243.653 160.632 243.653C161.6 243.653 162.472 243.833 163.247 244.193L162.657 245.762C161.833 245.441 161.152 245.28 160.615 245.28C159.027 245.28 158.233 246.334 158.233 248.443C158.233 249.472 158.429 250.247 158.822 250.767C159.221 251.282 159.802 251.539 160.565 251.539C161.434 251.539 162.256 251.323 163.031 250.892V252.593C162.682 252.798 162.309 252.945 161.91 253.033C161.517 253.122 161.039 253.166 160.474 253.166ZM168.609 251.589C169.085 251.589 169.561 251.514 170.037 251.365V252.834C169.821 252.928 169.541 253.006 169.198 253.066C168.861 253.133 168.509 253.166 168.144 253.166C166.296 253.166 165.372 252.192 165.372 250.244V245.297H164.118V244.434L165.463 243.72L166.127 241.777H167.331V243.819H169.945V245.297H167.331V250.211C167.331 250.681 167.447 251.03 167.679 251.257C167.917 251.478 168.227 251.589 168.609 251.589ZM184.032 253H182.073V247.339C182.073 246.636 181.94 246.113 181.674 245.77C181.409 245.421 180.994 245.247 180.429 245.247C179.677 245.247 179.123 245.493 178.769 245.986C178.42 246.473 178.246 247.286 178.246 248.426V253H176.295V243.819H177.823L178.097 245.023H178.196C178.451 244.586 178.819 244.248 179.3 244.01C179.787 243.772 180.321 243.653 180.902 243.653C182.313 243.653 183.249 244.135 183.708 245.098H183.841C184.112 244.644 184.494 244.29 184.986 244.035C185.479 243.781 186.043 243.653 186.68 243.653C187.775 243.653 188.572 243.93 189.07 244.483C189.574 245.037 189.826 245.881 189.826 247.015V253H187.875V247.339C187.875 246.636 187.739 246.113 187.468 245.77C187.203 245.421 186.788 245.247 186.223 245.247C185.465 245.247 184.909 245.485 184.555 245.961C184.206 246.431 184.032 247.156 184.032 248.136V253ZM196.558 253.166C195.13 253.166 194.012 252.751 193.204 251.921C192.402 251.085 192 249.937 192 248.476C192 246.976 192.374 245.798 193.121 244.94C193.868 244.082 194.895 243.653 196.201 243.653C197.413 243.653 198.37 244.021 199.073 244.757C199.776 245.493 200.127 246.506 200.127 247.795V248.85H194.009C194.037 249.741 194.278 250.427 194.731 250.908C195.185 251.384 195.824 251.622 196.649 251.622C197.191 251.622 197.695 251.572 198.16 251.473C198.63 251.368 199.134 251.196 199.67 250.958V252.543C199.194 252.77 198.713 252.931 198.226 253.025C197.739 253.119 197.183 253.166 196.558 253.166ZM196.201 245.131C195.581 245.131 195.083 245.327 194.707 245.72C194.336 246.113 194.114 246.686 194.042 247.438H198.209C198.198 246.68 198.016 246.108 197.662 245.72C197.307 245.327 196.82 245.131 196.201 245.131Z" fill="white"/>
<path d="M42.9639 146.537C42.9639 147.953 42.5 149.039 41.5723 149.793C40.6445 150.548 39.3241 150.925 37.6108 150.925H36.2007V156H33.9834V142.437H37.8892C39.5838 142.437 40.8517 142.783 41.6929 143.476C42.5402 144.168 42.9639 145.189 42.9639 146.537ZM36.2007 149.061H37.3789C38.5169 149.061 39.3519 148.863 39.8838 148.467C40.4157 148.071 40.6816 147.452 40.6816 146.611C40.6816 145.832 40.4435 145.251 39.9673 144.867C39.491 144.484 38.7489 144.292 37.7407 144.292H36.2007V149.061ZM50.6455 145.554C51.0846 145.554 51.4465 145.585 51.731 145.646L51.5176 147.678C51.2083 147.604 50.8867 147.567 50.5527 147.567C49.6807 147.567 48.9725 147.851 48.4282 148.42C47.8901 148.989 47.6211 149.729 47.6211 150.638V156H45.4409V145.739H47.1479L47.4355 147.548H47.5469C47.887 146.936 48.3293 146.451 48.8735 146.092C49.424 145.733 50.0146 145.554 50.6455 145.554ZM55.8223 156H53.6421V145.739H55.8223V156ZM53.5122 143.021C53.5122 142.631 53.6174 142.331 53.8276 142.121C54.0441 141.911 54.3503 141.806 54.7461 141.806C55.1296 141.806 55.4264 141.911 55.6367 142.121C55.8532 142.331 55.9614 142.631 55.9614 143.021C55.9614 143.392 55.8532 143.686 55.6367 143.902C55.4264 144.113 55.1296 144.218 54.7461 144.218C54.3503 144.218 54.0441 144.113 53.8276 143.902C53.6174 143.686 53.5122 143.392 53.5122 143.021ZM61.2866 156L57.3901 145.739H59.6909L61.7783 151.705C62.137 152.707 62.3535 153.517 62.4277 154.135H62.502C62.5576 153.69 62.7741 152.88 63.1514 151.705L65.2388 145.739H67.5581L63.6431 156H61.2866ZM75.5366 156L75.1006 154.571H75.0264C74.5316 155.196 74.0337 155.623 73.5327 155.852C73.0317 156.074 72.3885 156.186 71.603 156.186C70.5949 156.186 69.8063 155.913 69.2373 155.369C68.6745 154.825 68.3931 154.055 68.3931 153.059C68.3931 152.001 68.7858 151.204 69.5713 150.666C70.3568 150.127 71.5535 149.834 73.1616 149.784L74.9336 149.729V149.181C74.9336 148.526 74.779 148.037 74.4697 147.715C74.1667 147.388 73.6935 147.224 73.0503 147.224C72.5246 147.224 72.0205 147.301 71.5381 147.456C71.0557 147.61 70.5918 147.793 70.1465 148.003L69.4414 146.444C69.998 146.154 70.6073 145.934 71.269 145.786C71.9308 145.631 72.5555 145.554 73.1431 145.554C74.4481 145.554 75.4315 145.838 76.0933 146.407C76.7612 146.976 77.0952 147.87 77.0952 149.088V156H75.5366ZM72.2896 154.516C73.0812 154.516 73.7152 154.296 74.1914 153.857C74.6738 153.412 74.915 152.79 74.915 151.992V151.102L73.5977 151.157C72.571 151.194 71.8226 151.368 71.3525 151.677C70.8887 151.98 70.6567 152.447 70.6567 153.078C70.6567 153.535 70.7928 153.891 71.0649 154.145C71.3371 154.392 71.7453 154.516 72.2896 154.516ZM84.2759 156.186C82.7235 156.186 81.5422 155.734 80.7319 154.831C79.9279 153.922 79.5259 152.62 79.5259 150.925C79.5259 149.2 79.9465 147.873 80.7876 146.945C81.6349 146.018 82.8564 145.554 84.4521 145.554C85.5345 145.554 86.5086 145.755 87.3745 146.157L86.7158 147.91C85.7943 147.551 85.0335 147.372 84.4336 147.372C82.6585 147.372 81.771 148.55 81.771 150.907C81.771 152.057 81.9906 152.923 82.4297 153.504C82.875 154.08 83.5244 154.367 84.3779 154.367C85.349 154.367 86.2674 154.126 87.1333 153.644V155.545C86.7437 155.774 86.3262 155.938 85.8809 156.037C85.4417 156.136 84.9067 156.186 84.2759 156.186ZM87.9868 145.739H90.3618L92.4492 151.556C92.7646 152.385 92.9749 153.164 93.0801 153.894H93.1543C93.21 153.554 93.312 153.143 93.4604 152.66C93.6089 152.172 94.3944 149.865 95.8169 145.739H98.1733L93.7852 157.364C92.9873 159.498 91.6576 160.564 89.7959 160.564C89.3135 160.564 88.8434 160.512 88.3857 160.407V158.681C88.7135 158.755 89.0877 158.792 89.5083 158.792C90.5597 158.792 91.2988 158.183 91.7256 156.965L92.106 156L87.9868 145.739ZM113.88 146.537C113.88 147.953 113.416 149.039 112.488 149.793C111.561 150.548 110.24 150.925 108.527 150.925H107.117V156H104.899V142.437H108.805C110.5 142.437 111.768 142.783 112.609 143.476C113.456 144.168 113.88 145.189 113.88 146.537ZM107.117 149.061H108.295C109.433 149.061 110.268 148.863 110.8 148.467C111.332 148.071 111.598 147.452 111.598 146.611C111.598 145.832 111.36 145.251 110.883 144.867C110.407 144.484 109.665 144.292 108.657 144.292H107.117V149.061ZM121.562 145.554C122.001 145.554 122.362 145.585 122.647 145.646L122.434 147.678C122.124 147.604 121.803 147.567 121.469 147.567C120.597 147.567 119.889 147.851 119.344 148.42C118.806 148.989 118.537 149.729 118.537 150.638V156H116.357V145.739H118.064L118.352 147.548H118.463C118.803 146.936 119.245 146.451 119.79 146.092C120.34 145.733 120.931 145.554 121.562 145.554ZM133.27 150.851C133.27 152.527 132.84 153.835 131.98 154.775C131.12 155.715 129.924 156.186 128.39 156.186C127.431 156.186 126.584 155.969 125.848 155.536C125.112 155.103 124.546 154.482 124.15 153.671C123.754 152.861 123.556 151.921 123.556 150.851C123.556 149.187 123.983 147.889 124.836 146.955C125.69 146.021 126.893 145.554 128.445 145.554C129.93 145.554 131.105 146.033 131.971 146.992C132.837 147.944 133.27 149.231 133.27 150.851ZM125.801 150.851C125.801 153.22 126.676 154.404 128.427 154.404C130.159 154.404 131.024 153.22 131.024 150.851C131.024 148.507 130.152 147.335 128.408 147.335C127.493 147.335 126.828 147.638 126.414 148.244C126.005 148.85 125.801 149.719 125.801 150.851ZM139.606 154.423C140.138 154.423 140.67 154.339 141.202 154.172V155.814C140.96 155.92 140.648 156.006 140.265 156.074C139.887 156.148 139.495 156.186 139.086 156.186C137.021 156.186 135.988 155.097 135.988 152.92V147.391H134.587V146.426L136.09 145.628L136.832 143.457H138.177V145.739H141.1V147.391H138.177V152.883C138.177 153.409 138.307 153.798 138.567 154.052C138.833 154.299 139.179 154.423 139.606 154.423ZM147.742 156.186C146.146 156.186 144.897 155.722 143.994 154.794C143.097 153.86 142.649 152.577 142.649 150.944C142.649 149.268 143.066 147.95 143.901 146.992C144.736 146.033 145.884 145.554 147.343 145.554C148.698 145.554 149.768 145.965 150.553 146.788C151.339 147.61 151.731 148.742 151.731 150.183V151.361H144.894C144.925 152.357 145.194 153.124 145.701 153.662C146.208 154.194 146.923 154.46 147.844 154.46C148.45 154.46 149.013 154.404 149.533 154.293C150.058 154.175 150.621 153.984 151.221 153.718V155.49C150.689 155.743 150.151 155.923 149.607 156.028C149.063 156.133 148.441 156.186 147.742 156.186ZM147.343 147.205C146.651 147.205 146.094 147.425 145.673 147.864C145.259 148.303 145.012 148.943 144.931 149.784H149.588C149.576 148.937 149.372 148.297 148.976 147.864C148.58 147.425 148.036 147.205 147.343 147.205ZM158.346 156.186C156.794 156.186 155.612 155.734 154.802 154.831C153.998 153.922 153.596 152.62 153.596 150.925C153.596 149.2 154.017 147.873 154.858 146.945C155.705 146.018 156.927 145.554 158.522 145.554C159.605 145.554 160.579 145.755 161.445 146.157L160.786 147.91C159.865 147.551 159.104 147.372 158.504 147.372C156.729 147.372 155.841 148.55 155.841 150.907C155.841 152.057 156.061 152.923 156.5 153.504C156.945 154.08 157.595 154.367 158.448 154.367C159.419 154.367 160.338 154.126 161.204 153.644V155.545C160.814 155.774 160.396 155.938 159.951 156.037C159.512 156.136 158.977 156.186 158.346 156.186ZM167.438 154.423C167.97 154.423 168.502 154.339 169.034 154.172V155.814C168.792 155.92 168.48 156.006 168.097 156.074C167.719 156.148 167.327 156.186 166.918 156.186C164.853 156.186 163.82 155.097 163.82 152.92V147.391H162.419V146.426L163.922 145.628L164.664 143.457H166.009V145.739H168.932V147.391H166.009V152.883C166.009 153.409 166.139 153.798 166.399 154.052C166.665 154.299 167.011 154.423 167.438 154.423ZM173.273 156H171.093V145.739H173.273V156ZM170.963 143.021C170.963 142.631 171.069 142.331 171.279 142.121C171.495 141.911 171.801 141.806 172.197 141.806C172.581 141.806 172.878 141.911 173.088 142.121C173.304 142.331 173.413 142.631 173.413 143.021C173.413 143.392 173.304 143.686 173.088 143.902C172.878 144.113 172.581 144.218 172.197 144.218C171.801 144.218 171.495 144.113 171.279 143.902C171.069 143.686 170.963 143.392 170.963 143.021ZM185.501 150.851C185.501 152.527 185.071 153.835 184.211 154.775C183.352 155.715 182.155 156.186 180.621 156.186C179.662 156.186 178.815 155.969 178.079 155.536C177.343 155.103 176.777 154.482 176.381 153.671C175.986 152.861 175.788 151.921 175.788 150.851C175.788 149.187 176.214 147.889 177.068 146.955C177.921 146.021 179.124 145.554 180.677 145.554C182.161 145.554 183.336 146.033 184.202 146.992C185.068 147.944 185.501 149.231 185.501 150.851ZM178.033 150.851C178.033 153.22 178.908 154.404 180.658 154.404C182.39 154.404 183.256 153.22 183.256 150.851C183.256 148.507 182.384 147.335 180.64 147.335C179.724 147.335 179.059 147.638 178.645 148.244C178.237 148.85 178.033 149.719 178.033 150.851ZM197.042 156H194.853V149.691C194.853 148.9 194.692 148.309 194.37 147.919C194.055 147.53 193.551 147.335 192.858 147.335C191.936 147.335 191.262 147.607 190.835 148.151C190.409 148.696 190.195 149.608 190.195 150.888V156H188.015V145.739H189.722L190.028 147.084H190.14C190.449 146.596 190.888 146.219 191.457 145.953C192.026 145.687 192.657 145.554 193.35 145.554C195.811 145.554 197.042 146.806 197.042 149.311V156ZM208.472 156.186C207.191 156.186 206.193 155.722 205.475 154.794C204.758 153.866 204.399 152.564 204.399 150.888C204.399 149.206 204.761 147.898 205.484 146.964C206.214 146.024 207.222 145.554 208.509 145.554C209.857 145.554 210.884 146.052 211.589 147.047H211.7C211.595 146.311 211.542 145.73 211.542 145.303V141.564H213.732V156H212.025L211.645 154.655H211.542C210.844 155.675 209.82 156.186 208.472 156.186ZM209.056 154.423C209.953 154.423 210.605 154.172 211.014 153.671C211.422 153.164 211.632 152.345 211.645 151.213V150.907C211.645 149.614 211.434 148.696 211.014 148.151C210.593 147.607 209.934 147.335 209.038 147.335C208.271 147.335 207.68 147.647 207.266 148.272C206.851 148.89 206.644 149.775 206.644 150.925C206.644 152.063 206.845 152.932 207.247 153.532C207.649 154.126 208.252 154.423 209.056 154.423ZM219.029 156H216.849V145.739H219.029V156ZM216.719 143.021C216.719 142.631 216.824 142.331 217.035 142.121C217.251 141.911 217.557 141.806 217.953 141.806C218.337 141.806 218.633 141.911 218.844 142.121C219.06 142.331 219.168 142.631 219.168 143.021C219.168 143.392 219.06 143.686 218.844 143.902C218.633 144.113 218.337 144.218 217.953 144.218C217.557 144.218 217.251 144.113 217.035 143.902C216.824 143.686 216.719 143.392 216.719 143.021ZM229.049 153.078C229.049 154.08 228.684 154.85 227.954 155.388C227.224 155.92 226.179 156.186 224.818 156.186C223.451 156.186 222.354 155.978 221.525 155.564V153.681C222.731 154.237 223.854 154.516 224.893 154.516C226.235 154.516 226.906 154.111 226.906 153.3C226.906 153.041 226.832 152.824 226.683 152.651C226.535 152.478 226.29 152.298 225.95 152.113C225.61 151.927 225.137 151.717 224.531 151.482C223.349 151.024 222.549 150.567 222.128 150.109C221.714 149.651 221.506 149.057 221.506 148.328C221.506 147.449 221.859 146.769 222.564 146.287C223.275 145.798 224.24 145.554 225.458 145.554C226.665 145.554 227.806 145.798 228.882 146.287L228.177 147.929C227.07 147.471 226.139 147.242 225.384 147.242C224.234 147.242 223.659 147.57 223.659 148.226C223.659 148.547 223.807 148.819 224.104 149.042C224.407 149.265 225.063 149.571 226.071 149.96C226.918 150.288 227.534 150.588 227.917 150.86C228.3 151.132 228.585 151.448 228.771 151.807C228.956 152.159 229.049 152.583 229.049 153.078ZM237.834 156L237.398 154.571H237.324C236.829 155.196 236.332 155.623 235.831 155.852C235.33 156.074 234.686 156.186 233.901 156.186C232.893 156.186 232.104 155.913 231.535 155.369C230.972 154.825 230.691 154.055 230.691 153.059C230.691 152.001 231.084 151.204 231.869 150.666C232.655 150.127 233.851 149.834 235.459 149.784L237.231 149.729V149.181C237.231 148.526 237.077 148.037 236.768 147.715C236.465 147.388 235.991 147.224 235.348 147.224C234.822 147.224 234.318 147.301 233.836 147.456C233.354 147.61 232.89 147.793 232.444 148.003L231.739 146.444C232.296 146.154 232.905 145.934 233.567 145.786C234.229 145.631 234.853 145.554 235.441 145.554C236.746 145.554 237.729 145.838 238.391 146.407C239.059 146.976 239.393 147.87 239.393 149.088V156H237.834ZM234.587 154.516C235.379 154.516 236.013 154.296 236.489 153.857C236.972 153.412 237.213 152.79 237.213 151.992V151.102L235.896 151.157C234.869 151.194 234.12 151.368 233.65 151.677C233.187 151.98 232.955 152.447 232.955 153.078C232.955 153.535 233.091 153.891 233.363 154.145C233.635 154.392 234.043 154.516 234.587 154.516ZM247.678 145.554C248.958 145.554 249.954 146.018 250.665 146.945C251.382 147.873 251.741 149.175 251.741 150.851C251.741 152.533 251.379 153.845 250.656 154.785C249.932 155.719 248.927 156.186 247.641 156.186C246.342 156.186 245.334 155.719 244.616 154.785H244.468L244.069 156H242.436V141.564H244.616V144.997C244.616 145.251 244.604 145.628 244.579 146.129C244.554 146.63 244.536 146.948 244.523 147.084H244.616C245.309 146.064 246.329 145.554 247.678 145.554ZM247.112 147.335C246.234 147.335 245.6 147.595 245.21 148.114C244.826 148.628 244.629 149.49 244.616 150.703V150.851C244.616 152.1 244.814 153.007 245.21 153.569C245.606 154.126 246.252 154.404 247.149 154.404C247.922 154.404 248.507 154.098 248.902 153.486C249.304 152.874 249.505 151.989 249.505 150.833C249.505 148.501 248.708 147.335 247.112 147.335ZM256.454 156H254.274V141.564H256.454V156ZM264.062 156.186C262.466 156.186 261.216 155.722 260.313 154.794C259.417 153.86 258.968 152.577 258.968 150.944C258.968 149.268 259.386 147.95 260.221 146.992C261.056 146.033 262.203 145.554 263.663 145.554C265.017 145.554 266.087 145.965 266.873 146.788C267.658 147.61 268.051 148.742 268.051 150.183V151.361H261.213C261.244 152.357 261.513 153.124 262.021 153.662C262.528 154.194 263.242 154.46 264.164 154.46C264.77 154.46 265.333 154.404 265.852 154.293C266.378 154.175 266.941 153.984 267.541 153.718V155.49C267.009 155.743 266.471 155.923 265.926 156.028C265.382 156.133 264.76 156.186 264.062 156.186ZM263.663 147.205C262.97 147.205 262.413 147.425 261.993 147.864C261.578 148.303 261.331 148.943 261.25 149.784H265.908C265.895 148.937 265.691 148.297 265.295 147.864C264.9 147.425 264.355 147.205 263.663 147.205ZM273.988 156.186C272.708 156.186 271.709 155.722 270.992 154.794C270.274 153.866 269.916 152.564 269.916 150.888C269.916 149.206 270.277 147.898 271.001 146.964C271.731 146.024 272.739 145.554 274.025 145.554C275.374 145.554 276.4 146.052 277.105 147.047H277.217C277.112 146.311 277.059 145.73 277.059 145.303V141.564H279.249V156H277.542L277.161 154.655H277.059C276.36 155.675 275.337 156.186 273.988 156.186ZM274.573 154.423C275.47 154.423 276.122 154.172 276.53 153.671C276.938 153.164 277.149 152.345 277.161 151.213V150.907C277.161 149.614 276.951 148.696 276.53 148.151C276.11 147.607 275.451 147.335 274.554 147.335C273.787 147.335 273.197 147.647 272.782 148.272C272.368 148.89 272.161 149.775 272.161 150.925C272.161 152.063 272.362 152.932 272.764 153.532C273.166 154.126 273.769 154.423 274.573 154.423Z" fill="#994137"/>
<defs>
<filter id="filter0_d" x="94" y="12" width="130" height="118.153" filterUnits="userSpaceOnUse" color-interpolation-filters="sRGB">
<feFlood flood-opacity="0" result="BackgroundImageFix"/>
<feColorMatrix in="SourceAlpha" type="matrix" values="0 0 0 0 0 0 0 0 0 0 0 0 0 0 0 0 0 0 127 0"/>
<feOffset dy="2"/>
<feGaussianBlur stdDeviation="6"/>
<feColorMatrix type="matrix" values="0 0 0 0 0 0 0 0 0 0 0 0 0 0 0 0 0 0 0.4 0"/>
<feBlend mode="normal" in2="BackgroundImageFix" result="effect1_dropShadow"/>
<feBlend mode="normal" in="SourceGraphic" in2="effect1_dropShadow" result="shape"/>
</filter>
</defs>
</svg>
