<svg width="408" height="424" viewBox="0 0 408 424" fill="none" xmlns="http://www.w3.org/2000/svg">
<g filter="url(#filter0_d)">
<rect width="400" height="416" transform="translate(4 2)" fill="white"/>
<rect width="400" height="56" transform="translate(4 2)" fill="#1C304E"/>
<path d="M37 52C49.1503 52 59 42.1503 59 30C59 17.8497 49.1503 8 37 8C24.8497 8 15 17.8497 15 30C15 42.1503 24.8497 52 37 52Z" fill="#1C304E"/>
<path fill-rule="evenodd" clip-rule="evenodd" d="M37 22.0244C41.1572 22.0244 44.4024 21.7116 47.545 20C48.5254 23.3681 49.0157 26.8706 48.9996 30.3904C48.9996 42.7094 43.9584 52 37 52C30.0416 52 25.0004 42.7094 25.0004 30.3904C24.9843 26.8706 25.4746 23.3681 26.455 20C29.5976 21.7116 32.8428 22.0244 37 22.0244Z" fill="#3B9946"/>
<path fill-rule="evenodd" clip-rule="evenodd" d="M18.7913 15.9468C15.7873 19.8333 14 24.7079 14 30C14 35.2921 15.7873 40.1667 18.7913 44.0532C19.077 44.4228 19.3737 44.7835 19.6809 45.1348C23.8968 49.9553 30.0929 53 37 53C43.9071 53 50.1032 49.9553 54.3191 45.1348C54.6263 44.7835 54.923 44.4228 55.2087 44.0532C58.2127 40.1667 60 35.2921 60 30C60 24.7079 58.2127 19.8333 55.2087 15.9468C54.923 15.5772 54.6263 15.2165 54.3191 14.8652C50.1032 10.0447 43.9071 7 37 7C30.0929 7 23.8968 10.0447 19.6809 14.8652C19.3737 15.2165 19.077 15.5772 18.7913 15.9468ZM48.9398 20.0402C50.0431 19.5719 51.0766 19.0393 52.0272 18.4493C52.7951 17.9727 53.5161 17.4531 54.1789 16.8944C56.8248 20.3575 58.4474 24.6442 58.595 29.303H50.2365C50.1797 25.9921 49.7201 22.8569 48.9398 20.0402ZM48.5356 18.6968C47.1736 14.5127 45.0788 11.1432 42.5538 9.11442C46.7848 10.2366 50.5064 12.6103 53.2981 15.8152C51.9776 16.9305 50.3671 17.9053 48.5356 18.6968ZM58.595 30.697C58.4474 35.3558 56.8248 39.6425 54.1789 43.1056C53.5161 42.5469 52.7951 42.0273 52.0272 41.5507C51.0766 40.9607 50.0431 40.4281 48.9398 39.9598C49.7201 37.1431 50.1797 34.0079 50.2365 30.697H58.595ZM53.2981 44.1848C51.9776 43.0695 50.3671 42.0947 48.5356 41.3032C47.1736 45.4873 45.0788 48.8568 42.5538 50.8856C46.7848 49.7634 50.5064 47.3897 53.2981 44.1848ZM48.8423 30.697C48.7866 33.8384 48.3558 36.7979 47.6348 39.4478C44.6729 38.3766 41.2858 37.7462 37.697 37.6737V30.697H48.8423ZM47.2377 40.7866C44.4226 39.7582 41.171 39.141 37.697 39.0679V51.5672C40.405 51.2652 43.0597 49.2084 45.1558 45.5679C45.9642 44.1638 46.6678 42.5557 47.2377 40.7866ZM36.303 30.697V37.6737C32.7142 37.7462 29.3271 38.3766 26.3652 39.4478C25.6442 36.7979 25.2134 33.8384 25.1577 30.697H36.303ZM36.303 39.0679C32.829 39.141 29.5774 39.7582 26.7623 40.7866C27.3322 42.5557 28.0358 44.1638 28.8442 45.5679C30.9403 49.2084 33.595 51.2652 36.303 51.5672V39.0679ZM31.4462 50.8856C28.9212 48.8568 26.8264 45.4873 25.4644 41.3032C23.6329 42.0947 22.0224 43.0695 20.7019 44.1848C23.4936 47.3897 27.2152 49.7634 31.4462 50.8856ZM21.9728 41.5507C22.9233 40.9607 23.9569 40.4281 25.0602 39.9598C24.2799 37.1431 23.8203 34.0079 23.7635 30.697H15.405C15.5526 35.3558 17.1752 39.6425 19.8211 43.1056C20.4839 42.5469 21.2049 42.0273 21.9728 41.5507ZM19.8211 16.8944C17.1752 20.3575 15.5526 24.6442 15.405 29.303H23.7635C23.8203 25.9921 24.2799 22.8569 25.0602 20.0402C23.9569 19.5719 22.9233 19.0393 21.9728 18.4493C21.2049 17.9727 20.4839 17.4531 19.8211 16.8944ZM26.3652 20.5522C25.6442 23.2021 25.2134 26.1616 25.1577 29.303H36.303V22.3263C32.7142 22.2538 29.3271 21.6234 26.3652 20.5522ZM36.303 20.9321C32.829 20.859 29.5774 20.2418 26.7623 19.2134C27.3322 17.4443 28.0358 15.8362 28.8442 14.4321C30.9403 10.7916 33.595 8.73478 36.303 8.4328V20.9321ZM37.697 20.9321V8.4328C40.405 8.73478 43.0597 10.7916 45.1558 14.4321C45.9642 15.8362 46.6678 17.4443 47.2377 19.2134C44.4226 20.2418 41.171 20.859 37.697 20.9321ZM37.697 22.3263C41.2858 22.2538 44.6729 21.6234 47.6348 20.5522C48.3558 23.2021 48.7866 26.1616 48.8423 29.303H37.697V22.3263ZM25.4644 18.6968C23.6329 17.9053 22.0224 16.9305 20.7019 15.8152C23.4936 12.6103 27.2152 10.2366 31.4462 9.11442C28.9212 11.1432 26.8264 14.5127 25.4644 18.6968Z" fill="white"/>
<path d="M70.0791 36.86C70.0791 37.322 70.4571 37.7 70.8981 37.7H76.6101C79.8231 37.7 81.9441 36.209 81.9441 33.689V33.647C81.9441 31.631 80.5371 30.623 78.7941 30.098C79.9491 29.594 81.1251 28.607 81.1251 26.696V26.654C81.1251 25.709 80.7891 24.932 80.1801 24.302C79.3401 23.483 78.0171 23 76.3371 23H70.8981C70.4571 23 70.0791 23.378 70.0791 23.84V36.86ZM71.7171 29.552V24.491H76.1901C78.2901 24.491 79.4451 25.436 79.4451 26.885V26.927C79.4451 28.649 78.0591 29.552 76.0641 29.552H71.7171ZM71.7171 36.209V31.022H76.3581C78.9201 31.022 80.2641 31.946 80.2641 33.542V33.584C80.2641 35.222 78.8781 36.209 76.6521 36.209H71.7171Z" fill="white"/>
<path d="M84.7514 36.986C84.7514 37.448 85.1084 37.805 85.5704 37.805C86.0324 37.805 86.3684 37.427 86.3684 36.986V33.29C86.3684 30.161 88.0904 28.586 90.1904 28.334C90.6104 28.271 90.9044 27.956 90.9044 27.515C90.9044 27.053 90.5894 26.696 90.1064 26.696C88.7414 26.696 87.1664 27.788 86.3684 29.594V27.557C86.3684 27.095 86.0114 26.738 85.5494 26.738C85.1084 26.738 84.7514 27.116 84.7514 27.557V36.986Z" fill="white"/>
<path d="M97.5364 37.952C100.812 37.952 103.227 35.348 103.227 32.282V32.24C103.227 29.174 100.833 26.612 97.5784 26.612C94.3024 26.612 91.9084 29.216 91.9084 32.282V32.324C91.9084 35.39 94.2814 37.952 97.5364 37.952ZM97.5784 36.503C95.2894 36.503 93.5674 34.613 93.5674 32.282V32.24C93.5674 29.951 95.1844 28.04 97.5364 28.04C99.8254 28.04 101.568 29.951 101.568 32.282V32.324C101.568 34.613 99.9304 36.503 97.5784 36.503Z" fill="white"/>
<path d="M109.024 37.868H109.066C109.486 37.868 109.801 37.616 109.948 37.133L112.678 29.216L115.387 37.133C115.534 37.616 115.849 37.868 116.269 37.868H116.332C116.71 37.868 117.046 37.616 117.214 37.133L120.532 27.935C120.574 27.809 120.637 27.641 120.637 27.494C120.637 27.095 120.301 26.738 119.839 26.738C119.398 26.738 119.167 27.032 119.062 27.368L116.29 35.558L113.56 27.389C113.434 27.011 113.161 26.738 112.72 26.738H112.636C112.216 26.738 111.964 27.011 111.838 27.389L109.087 35.558L106.357 27.41C106.231 27.011 105.958 26.738 105.538 26.738C105.055 26.738 104.719 27.116 104.719 27.515C104.719 27.662 104.782 27.83 104.824 27.956L108.121 37.133C108.289 37.616 108.625 37.868 109.024 37.868Z" fill="white"/>
<path d="M126.636 37.91C128.799 37.91 130.5 36.713 130.5 34.655V34.613C130.5 32.66 128.694 32.009 127.014 31.505C125.565 31.064 124.221 30.665 124.221 29.636V29.594C124.221 28.691 125.04 28.019 126.321 28.019C127.245 28.019 128.232 28.334 129.156 28.859C129.24 28.901 129.366 28.943 129.513 28.943C129.912 28.943 130.227 28.628 130.227 28.25C130.227 27.935 130.038 27.704 129.828 27.578C128.778 27.011 127.518 26.654 126.363 26.654C124.221 26.654 122.667 27.893 122.667 29.762V29.804C122.667 31.799 124.557 32.387 126.258 32.87C127.686 33.269 128.967 33.689 128.967 34.781V34.823C128.967 35.873 128.022 36.545 126.72 36.545C125.544 36.545 124.389 36.146 123.276 35.39C123.171 35.306 123.024 35.264 122.877 35.264C122.478 35.264 122.163 35.579 122.163 35.957C122.163 36.23 122.31 36.44 122.457 36.545C123.633 37.385 125.208 37.91 126.636 37.91Z" fill="white"/>
<path d="M134.26 31.673C134.47 29.552 135.898 27.977 137.788 27.977C139.951 27.977 141.085 29.699 141.253 31.673H134.26ZM142.135 36.314C142.303 36.167 142.387 35.978 142.387 35.789C142.387 35.411 142.072 35.096 141.673 35.096C141.484 35.096 141.337 35.18 141.211 35.285C140.413 36.02 139.426 36.545 138.082 36.545C136.15 36.545 134.491 35.222 134.26 32.87H142.114C142.513 32.87 142.87 32.555 142.87 32.114C142.87 29.237 141.043 26.612 137.83 26.612C134.827 26.612 132.622 29.132 132.622 32.261V32.303C132.622 35.663 135.058 37.952 138.04 37.952C139.888 37.952 141.106 37.301 142.135 36.314Z" fill="white"/>
<path d="M150.405 37.952C152.232 37.952 153.471 37.238 154.5 36.209C154.626 36.083 154.71 35.894 154.71 35.705C154.71 35.327 154.374 34.97 153.975 34.97C153.765 34.97 153.618 35.075 153.513 35.18C152.715 35.936 151.728 36.503 150.489 36.503C148.221 36.503 146.499 34.634 146.499 32.282V32.24C146.499 29.909 148.179 28.04 150.384 28.04C151.686 28.04 152.568 28.628 153.345 29.342C153.471 29.447 153.66 29.531 153.87 29.531C154.29 29.531 154.647 29.195 154.647 28.754C154.647 28.502 154.521 28.292 154.395 28.187C153.429 27.305 152.211 26.612 150.405 26.612C147.234 26.612 144.84 29.216 144.84 32.282V32.324C144.84 35.369 147.234 37.952 150.405 37.952Z" fill="white"/>
<path d="M357.742 33.3408C357.742 34.2204 357.423 34.9062 356.785 35.3984C356.147 35.8906 355.281 36.1367 354.188 36.1367C353.003 36.1367 352.091 35.984 351.453 35.6787V34.5576C351.863 34.7308 352.31 34.8675 352.793 34.9678C353.276 35.068 353.755 35.1182 354.229 35.1182C355.003 35.1182 355.587 34.9723 355.979 34.6807C356.37 34.3844 356.566 33.9743 356.566 33.4502C356.566 33.1038 356.496 32.8213 356.354 32.6025C356.218 32.3792 355.985 32.1742 355.657 31.9873C355.334 31.8005 354.839 31.5885 354.174 31.3516C353.244 31.0189 352.579 30.6247 352.178 30.1689C351.781 29.7132 351.583 29.1185 351.583 28.3848C351.583 27.6146 351.872 27.0016 352.451 26.5459C353.03 26.0902 353.796 25.8623 354.748 25.8623C355.742 25.8623 356.655 26.0446 357.489 26.4092L357.127 27.4209C356.302 27.0745 355.5 26.9014 354.721 26.9014C354.105 26.9014 353.625 27.0335 353.278 27.2979C352.932 27.5622 352.759 27.929 352.759 28.3984C352.759 28.7448 352.823 29.0296 352.95 29.2529C353.078 29.4717 353.292 29.6745 353.593 29.8613C353.898 30.0436 354.363 30.2464 354.987 30.4697C356.035 30.8434 356.756 31.2445 357.147 31.6729C357.544 32.1012 357.742 32.6572 357.742 33.3408ZM360.75 36H359.615V28.5078H360.75V36ZM359.52 26.4775C359.52 26.2178 359.583 26.0286 359.711 25.9102C359.839 25.7871 359.998 25.7256 360.189 25.7256C360.372 25.7256 360.529 25.7871 360.661 25.9102C360.793 26.0332 360.859 26.2223 360.859 26.4775C360.859 26.7327 360.793 26.9242 360.661 27.0518C360.529 27.1748 360.372 27.2363 360.189 27.2363C359.998 27.2363 359.839 27.1748 359.711 27.0518C359.583 26.9242 359.52 26.7327 359.52 26.4775ZM369.288 28.5078V29.2256L367.9 29.3896C368.028 29.5492 368.142 29.7588 368.242 30.0186C368.342 30.2738 368.393 30.5632 368.393 30.8867C368.393 31.6204 368.142 32.2061 367.641 32.6436C367.139 33.0811 366.451 33.2998 365.576 33.2998C365.353 33.2998 365.143 33.2816 364.947 33.2451C364.464 33.5003 364.223 33.8216 364.223 34.209C364.223 34.4141 364.307 34.5667 364.476 34.667C364.644 34.7627 364.934 34.8105 365.344 34.8105H366.67C367.481 34.8105 368.103 34.9814 368.536 35.3232C368.974 35.665 369.192 36.1618 369.192 36.8135C369.192 37.6429 368.86 38.2741 368.194 38.707C367.529 39.1445 366.558 39.3633 365.282 39.3633C364.302 39.3633 363.546 39.181 363.013 38.8164C362.484 38.4518 362.22 37.9368 362.22 37.2715C362.22 36.8158 362.366 36.4215 362.657 36.0889C362.949 35.7562 363.359 35.5306 363.888 35.4121C363.696 35.3255 363.535 35.1911 363.402 35.0088C363.275 34.8265 363.211 34.6146 363.211 34.373C363.211 34.0996 363.284 33.8604 363.43 33.6553C363.576 33.4502 363.806 33.252 364.12 33.0605C363.733 32.901 363.416 32.6299 363.17 32.2471C362.928 31.8643 362.808 31.4268 362.808 30.9346C362.808 30.1143 363.054 29.4831 363.546 29.041C364.038 28.5944 364.735 28.3711 365.638 28.3711C366.03 28.3711 366.383 28.4167 366.697 28.5078H369.288ZM363.313 37.2578C363.313 37.6634 363.484 37.971 363.826 38.1807C364.168 38.3903 364.658 38.4951 365.296 38.4951C366.248 38.4951 366.952 38.3516 367.408 38.0645C367.868 37.7819 368.099 37.3968 368.099 36.9092C368.099 36.5036 367.973 36.221 367.723 36.0615C367.472 35.9066 367 35.8291 366.308 35.8291H364.947C364.432 35.8291 364.031 35.9521 363.744 36.1982C363.457 36.4443 363.313 36.7975 363.313 37.2578ZM363.929 30.9072C363.929 31.4313 364.077 31.8278 364.373 32.0967C364.669 32.3656 365.082 32.5 365.61 32.5C366.718 32.5 367.271 31.9622 367.271 30.8867C367.271 29.7611 366.711 29.1982 365.59 29.1982C365.057 29.1982 364.646 29.3418 364.359 29.6289C364.072 29.916 363.929 30.3421 363.929 30.9072ZM375.953 36V31.1533C375.953 30.5426 375.814 30.0869 375.536 29.7861C375.258 29.4854 374.823 29.335 374.23 29.335C373.447 29.335 372.872 29.5469 372.508 29.9707C372.143 30.3945 371.961 31.0941 371.961 32.0693V36H370.826V28.5078H371.749L371.934 29.5332H371.988C372.221 29.1641 372.547 28.8792 372.966 28.6787C373.385 28.4736 373.852 28.3711 374.367 28.3711C375.27 28.3711 375.949 28.5898 376.404 29.0273C376.86 29.4603 377.088 30.1553 377.088 31.1123V36H375.953ZM384.197 36H383.062V28.5078H384.197V36ZM382.967 26.4775C382.967 26.2178 383.031 26.0286 383.158 25.9102C383.286 25.7871 383.445 25.7256 383.637 25.7256C383.819 25.7256 383.976 25.7871 384.108 25.9102C384.241 26.0332 384.307 26.2223 384.307 26.4775C384.307 26.7327 384.241 26.9242 384.108 27.0518C383.976 27.1748 383.819 27.2363 383.637 27.2363C383.445 27.2363 383.286 27.1748 383.158 27.0518C383.031 26.9242 382.967 26.7327 382.967 26.4775ZM391.73 36V31.1533C391.73 30.5426 391.591 30.0869 391.313 29.7861C391.035 29.4854 390.6 29.335 390.008 29.335C389.224 29.335 388.65 29.5469 388.285 29.9707C387.921 30.3945 387.738 31.0941 387.738 32.0693V36H386.604V28.5078H387.526L387.711 29.5332H387.766C387.998 29.1641 388.324 28.8792 388.743 28.6787C389.162 28.4736 389.63 28.3711 390.145 28.3711C391.047 28.3711 391.726 28.5898 392.182 29.0273C392.637 29.4603 392.865 30.1553 392.865 31.1123V36H391.73Z" fill="white"/>
<path d="M350.729 37.4014H393.993V38.0986H350.729V37.4014Z" fill="white"/>
<g filter="url(#filter1_i)">
<rect width="400" height="39" transform="translate(4 379)" fill="#F5F5F5"/>

<path d="M181 393C181 388.029 185.029 384 190 384C194.971 384 199 388.029 199 393C199 397.971 194.971 402 190 402C185.029 402 181 397.971 181 393Z" fill="#3B9946"/>
<path d="M188.335 396.858V400H187V390.682C187 389.858 187.244 389.21 187.727 388.727C188.205 388.244 188.869 388 189.687 388C190.477 388 191.085 388.193 191.54 388.568C191.989 388.955 192.21 389.489 192.21 390.165C192.21 390.631 192.062 391.068 191.767 391.472C191.472 391.875 191.091 392.153 190.619 392.307V392.33C191.33 392.443 191.881 392.699 192.256 393.114C192.631 393.517 192.818 394.034 192.818 394.67C192.818 395.42 192.557 396.034 192.04 396.506C191.517 396.977 190.835 397.21 189.983 397.21C189.381 397.21 188.83 397.091 188.335 396.858ZM189.182 392.972V391.881C189.676 391.818 190.08 391.636 190.403 391.33C190.722 391.017 190.881 390.67 190.881 390.273C190.881 389.489 190.477 389.091 189.682 389.091C189.25 389.091 188.915 389.227 188.682 389.506C188.449 389.784 188.335 390.17 188.335 390.676V395.67C188.852 395.972 189.358 396.119 189.847 396.119C190.324 396.119 190.699 395.994 190.966 395.75C191.233 395.5 191.364 395.148 191.364 394.699C191.364 393.682 190.636 393.114 189.182 392.972Z" fill="white"/>
<path d="M222.001 400.245L215.008 396.707V395.874C215.008 395.628 215.094 395.421 215.267 395.253C215.44 395.084 215.645 395 215.882 395H228.12C228.357 395 228.562 395.084 228.735 395.253C228.908 395.421 228.994 395.628 228.994 395.874V396.707L222.001 400.245ZM221.564 401.119H222.438L228.994 397.718V404.616C228.994 404.852 228.908 405.057 228.735 405.23C228.562 405.403 228.357 405.49 228.12 405.49H215.882C215.645 405.49 215.44 405.403 215.267 405.23C215.094 405.057 215.008 404.852 215.008 404.616V397.718L221.564 401.119Z" fill="#7F7F7F"/>
<path d="M251.737 407V400.431H250V398.066H251.737V396.045C251.737 394.458 252.763 393 255.127 393C256.085 393 256.793 393.092 256.793 393.092L256.737 395.3C256.737 395.3 256.015 395.293 255.227 395.293C254.374 395.293 254.238 395.686 254.238 396.339V398.066H256.805L256.693 400.431H254.238V407H251.737Z" fill="#7F7F7F"/>
<path d="M26.0703 400.7H24.8999V404.9C24.8999 405.212 24.7641 405.6 24.1999 405.6H21.3999V401.4H18.5999V405.6H15.7999C15.2357 405.6 15.0999 405.212 15.0999 404.9V400.7H13.9295C13.5109 400.7 13.6005 400.473 13.8875 400.176L19.5043 394.554C19.6408 394.413 19.82 394.343 19.9999 394.336C20.1798 394.343 20.359 394.412 20.4955 394.554L26.1116 400.176C26.3993 400.473 26.4889 400.7 26.0703 400.7Z" fill="#3B9946"/>
<path d="M36.6816 405H35.6855V400.969H31.1738V405H30.1777V396.434H31.1738V400.078H35.6855V396.434H36.6816V405ZM44.3136 401.783C44.3136 402.83 44.0499 403.648 43.5226 404.238C42.9952 404.824 42.2667 405.117 41.337 405.117C40.7628 405.117 40.253 404.982 39.8077 404.713C39.3624 404.443 39.0187 404.057 38.7765 403.553C38.5343 403.049 38.4132 402.459 38.4132 401.783C38.4132 400.736 38.6749 399.922 39.1984 399.34C39.7218 398.754 40.4484 398.461 41.378 398.461C42.2765 398.461 42.9894 398.76 43.5167 399.357C44.048 399.955 44.3136 400.764 44.3136 401.783ZM39.421 401.783C39.421 402.604 39.5851 403.229 39.9132 403.658C40.2413 404.088 40.7238 404.303 41.3605 404.303C41.9972 404.303 42.4796 404.09 42.8077 403.664C43.1398 403.234 43.3058 402.607 43.3058 401.783C43.3058 400.967 43.1398 400.348 42.8077 399.926C42.4796 399.5 41.9933 399.287 41.3488 399.287C40.712 399.287 40.2316 399.496 39.9073 399.914C39.5831 400.332 39.421 400.955 39.421 401.783ZM54.0901 405V400.822C54.0901 400.311 53.9807 399.928 53.762 399.674C53.5432 399.416 53.2034 399.287 52.7424 399.287C52.137 399.287 51.6897 399.461 51.4006 399.809C51.1116 400.156 50.967 400.691 50.967 401.414V405H49.9944V400.822C49.9944 400.311 49.885 399.928 49.6663 399.674C49.4475 399.416 49.1057 399.287 48.6409 399.287C48.0315 399.287 47.5842 399.471 47.2991 399.838C47.0178 400.201 46.8772 400.799 46.8772 401.631V405H45.9045V398.578H46.6955L46.8538 399.457H46.9006C47.0842 399.145 47.342 398.9 47.6741 398.725C48.01 398.549 48.385 398.461 48.7991 398.461C49.803 398.461 50.4592 398.824 50.7678 399.551H50.8147C51.0061 399.215 51.2834 398.949 51.6467 398.754C52.01 398.559 52.4241 398.461 52.8889 398.461C53.6155 398.461 54.1584 398.648 54.5178 399.023C54.8811 399.395 55.0627 399.99 55.0627 400.811V405H54.0901ZM59.6654 405.117C58.7162 405.117 57.9662 404.828 57.4154 404.25C56.8685 403.672 56.5951 402.869 56.5951 401.842C56.5951 400.807 56.849 399.984 57.3568 399.375C57.8685 398.766 58.5541 398.461 59.4134 398.461C60.2181 398.461 60.8548 398.727 61.3236 399.258C61.7923 399.785 62.0267 400.482 62.0267 401.35V401.965H57.6029C57.6224 402.719 57.8119 403.291 58.1712 403.682C58.5345 404.072 59.0443 404.268 59.7005 404.268C60.392 404.268 61.0755 404.123 61.7513 403.834V404.701C61.4076 404.85 61.0814 404.955 60.7728 405.018C60.4681 405.084 60.099 405.117 59.6654 405.117ZM59.4017 399.275C58.8861 399.275 58.474 399.443 58.1654 399.779C57.8607 400.115 57.681 400.58 57.6263 401.174H60.9837C60.9837 400.561 60.847 400.092 60.5736 399.768C60.3002 399.439 59.9095 399.275 59.4017 399.275Z" fill="#3B9946"/>
<rect x="81" y="404" width="14" height="1" rx="0.5" fill="#7F7F7F"/>
<rect x="81" y="400" width="14" height="1" rx="0.5" fill="#7F7F7F"/>
<rect x="81" y="396" width="14" height="1" rx="0.5" fill="#7F7F7F"/>
<circle cx="91.5" cy="404.5" r="1.5" fill="#7F7F7F"/>
<circle cx="84.5" cy="400.5" r="1.5" fill="#7F7F7F"/>
<circle cx="88.5" cy="396.5" r="1.5" fill="#7F7F7F"/>
<path d="M103.012 402.721C103.012 403.475 102.738 404.062 102.191 404.484C101.645 404.906 100.902 405.117 99.9648 405.117C98.9492 405.117 98.168 404.986 97.6211 404.725V403.764C97.9727 403.912 98.3555 404.029 98.7695 404.115C99.1836 404.201 99.5938 404.244 100 404.244C100.664 404.244 101.164 404.119 101.5 403.869C101.836 403.615 102.004 403.264 102.004 402.814C102.004 402.518 101.943 402.275 101.822 402.088C101.705 401.896 101.506 401.721 101.225 401.561C100.947 401.4 100.523 401.219 99.9531 401.016C99.1562 400.73 98.5859 400.393 98.2422 400.002C97.9023 399.611 97.7324 399.102 97.7324 398.473C97.7324 397.812 97.9805 397.287 98.4766 396.896C98.9727 396.506 99.6289 396.311 100.445 396.311C101.297 396.311 102.08 396.467 102.795 396.779L102.484 397.646C101.777 397.35 101.09 397.201 100.422 397.201C99.8945 397.201 99.4824 397.314 99.1855 397.541C98.8887 397.768 98.7402 398.082 98.7402 398.484C98.7402 398.781 98.7949 399.025 98.9043 399.217C99.0137 399.404 99.1973 399.578 99.4551 399.738C99.7168 399.895 100.115 400.068 100.65 400.26C101.549 400.58 102.166 400.924 102.502 401.291C102.842 401.658 103.012 402.135 103.012 402.721ZM112.683 405V400.822C112.683 400.311 112.573 399.928 112.355 399.674C112.136 399.416 111.796 399.287 111.335 399.287C110.73 399.287 110.282 399.461 109.993 399.809C109.704 400.156 109.56 400.691 109.56 401.414V405H108.587V400.822C108.587 400.311 108.478 399.928 108.259 399.674C108.04 399.416 107.698 399.287 107.234 399.287C106.624 399.287 106.177 399.471 105.892 399.838C105.61 400.201 105.47 400.799 105.47 401.631V405H104.497V398.578H105.288L105.446 399.457H105.493C105.677 399.145 105.935 398.9 106.267 398.725C106.603 398.549 106.978 398.461 107.392 398.461C108.396 398.461 109.052 398.824 109.36 399.551H109.407C109.599 399.215 109.876 398.949 110.239 398.754C110.603 398.559 111.017 398.461 111.482 398.461C112.208 398.461 112.751 398.648 113.11 399.023C113.474 399.395 113.655 399.99 113.655 400.811V405H112.683ZM119.494 405L119.301 404.086H119.254C118.934 404.488 118.614 404.762 118.293 404.906C117.977 405.047 117.58 405.117 117.104 405.117C116.467 405.117 115.967 404.953 115.604 404.625C115.244 404.297 115.065 403.83 115.065 403.225C115.065 401.928 116.102 401.248 118.176 401.186L119.266 401.15V400.752C119.266 400.248 119.156 399.877 118.938 399.639C118.723 399.396 118.377 399.275 117.901 399.275C117.365 399.275 116.76 399.439 116.084 399.768L115.785 399.023C116.102 398.852 116.448 398.717 116.823 398.619C117.201 398.521 117.58 398.473 117.959 398.473C118.725 398.473 119.291 398.643 119.658 398.982C120.03 399.322 120.215 399.867 120.215 400.617V405H119.494ZM117.297 404.314C117.903 404.314 118.377 404.148 118.721 403.816C119.069 403.484 119.242 403.02 119.242 402.422V401.842L118.27 401.883C117.496 401.91 116.938 402.031 116.594 402.246C116.254 402.457 116.084 402.787 116.084 403.236C116.084 403.588 116.19 403.855 116.401 404.039C116.615 404.223 116.914 404.314 117.297 404.314ZM125.035 398.461C125.32 398.461 125.576 398.484 125.802 398.531L125.667 399.434C125.402 399.375 125.167 399.346 124.964 399.346C124.445 399.346 123.999 399.557 123.628 399.979C123.261 400.4 123.077 400.926 123.077 401.555V405H122.105V398.578H122.908L123.019 399.768H123.066C123.304 399.35 123.591 399.027 123.927 398.801C124.263 398.574 124.632 398.461 125.035 398.461ZM128.958 404.314C129.129 404.314 129.295 404.303 129.456 404.279C129.616 404.252 129.743 404.225 129.836 404.197V404.941C129.731 404.992 129.575 405.033 129.368 405.064C129.165 405.1 128.981 405.117 128.817 405.117C127.575 405.117 126.954 404.463 126.954 403.154V399.334H126.034V398.865L126.954 398.461L127.364 397.09H127.926V398.578H129.79V399.334H127.926V403.113C127.926 403.5 128.018 403.797 128.202 404.004C128.385 404.211 128.637 404.314 128.958 404.314ZM138.983 402.721C138.983 403.475 138.71 404.062 138.163 404.484C137.616 404.906 136.874 405.117 135.936 405.117C134.921 405.117 134.139 404.986 133.592 404.725V403.764C133.944 403.912 134.327 404.029 134.741 404.115C135.155 404.201 135.565 404.244 135.971 404.244C136.635 404.244 137.135 404.119 137.471 403.869C137.807 403.615 137.975 403.264 137.975 402.814C137.975 402.518 137.915 402.275 137.794 402.088C137.676 401.896 137.477 401.721 137.196 401.561C136.919 401.4 136.495 401.219 135.925 401.016C135.128 400.73 134.557 400.393 134.214 400.002C133.874 399.611 133.704 399.102 133.704 398.473C133.704 397.812 133.952 397.287 134.448 396.896C134.944 396.506 135.6 396.311 136.417 396.311C137.268 396.311 138.051 396.467 138.766 396.779L138.456 397.646C137.749 397.35 137.061 397.201 136.393 397.201C135.866 397.201 135.454 397.314 135.157 397.541C134.86 397.768 134.712 398.082 134.712 398.484C134.712 398.781 134.766 399.025 134.876 399.217C134.985 399.404 135.169 399.578 135.426 399.738C135.688 399.895 136.087 400.068 136.622 400.26C137.52 400.58 138.137 400.924 138.473 401.291C138.813 401.658 138.983 402.135 138.983 402.721ZM143.181 405.117C142.232 405.117 141.482 404.828 140.931 404.25C140.385 403.672 140.111 402.869 140.111 401.842C140.111 400.807 140.365 399.984 140.873 399.375C141.385 398.766 142.07 398.461 142.93 398.461C143.734 398.461 144.371 398.727 144.84 399.258C145.308 399.785 145.543 400.482 145.543 401.35V401.965H141.119C141.139 402.719 141.328 403.291 141.687 403.682C142.051 404.072 142.56 404.268 143.217 404.268C143.908 404.268 144.592 404.123 145.267 403.834V404.701C144.924 404.85 144.597 404.955 144.289 405.018C143.984 405.084 143.615 405.117 143.181 405.117ZM142.918 399.275C142.402 399.275 141.99 399.443 141.681 399.779C141.377 400.115 141.197 400.58 141.142 401.174H144.5C144.5 400.561 144.363 400.092 144.09 399.768C143.816 399.439 143.426 399.275 142.918 399.275ZM149.161 404.314C149.333 404.314 149.499 404.303 149.659 404.279C149.819 404.252 149.946 404.225 150.04 404.197V404.941C149.935 404.992 149.778 405.033 149.571 405.064C149.368 405.1 149.185 405.117 149.02 405.117C147.778 405.117 147.157 404.463 147.157 403.154V399.334H146.237V398.865L147.157 398.461L147.567 397.09H148.13V398.578H149.993V399.334H148.13V403.113C148.13 403.5 148.222 403.797 148.405 404.004C148.589 404.211 148.841 404.314 149.161 404.314ZM153.283 404.314C153.455 404.314 153.621 404.303 153.781 404.279C153.941 404.252 154.068 404.225 154.162 404.197V404.941C154.057 404.992 153.9 405.033 153.693 405.064C153.49 405.1 153.307 405.117 153.143 405.117C151.9 405.117 151.279 404.463 151.279 403.154V399.334H150.359V398.865L151.279 398.461L151.69 397.09H152.252V398.578H154.115V399.334H152.252V403.113C152.252 403.5 152.344 403.797 152.527 404.004C152.711 404.211 152.963 404.314 153.283 404.314ZM156.304 405H155.331V398.578H156.304V405ZM155.249 396.838C155.249 396.615 155.304 396.453 155.413 396.352C155.523 396.246 155.659 396.193 155.823 396.193C155.98 396.193 156.114 396.246 156.228 396.352C156.341 396.457 156.398 396.619 156.398 396.838C156.398 397.057 156.341 397.221 156.228 397.33C156.114 397.436 155.98 397.488 155.823 397.488C155.659 397.488 155.523 397.436 155.413 397.33C155.304 397.221 155.249 397.057 155.249 396.838ZM162.641 405V400.846C162.641 400.322 162.522 399.932 162.284 399.674C162.045 399.416 161.672 399.287 161.164 399.287C160.493 399.287 160 399.469 159.688 399.832C159.375 400.195 159.219 400.795 159.219 401.631V405H158.246V398.578H159.037L159.196 399.457H159.243C159.442 399.141 159.721 398.896 160.08 398.725C160.44 398.549 160.84 398.461 161.282 398.461C162.055 398.461 162.637 398.648 163.028 399.023C163.418 399.395 163.614 399.99 163.614 400.811V405H162.641ZM170.753 398.578V399.193L169.564 399.334C169.673 399.471 169.771 399.65 169.857 399.873C169.943 400.092 169.986 400.34 169.986 400.617C169.986 401.246 169.771 401.748 169.341 402.123C168.912 402.498 168.322 402.686 167.572 402.686C167.38 402.686 167.201 402.67 167.033 402.639C166.619 402.857 166.412 403.133 166.412 403.465C166.412 403.641 166.484 403.771 166.628 403.857C166.773 403.939 167.021 403.98 167.372 403.98H168.509C169.205 403.98 169.738 404.127 170.109 404.42C170.484 404.713 170.671 405.139 170.671 405.697C170.671 406.408 170.386 406.949 169.816 407.32C169.246 407.695 168.414 407.883 167.32 407.883C166.48 407.883 165.831 407.727 165.374 407.414C164.921 407.102 164.695 406.66 164.695 406.09C164.695 405.699 164.82 405.361 165.07 405.076C165.32 404.791 165.671 404.598 166.124 404.496C165.96 404.422 165.822 404.307 165.708 404.15C165.599 403.994 165.544 403.812 165.544 403.605C165.544 403.371 165.607 403.166 165.732 402.99C165.857 402.814 166.054 402.645 166.324 402.48C165.992 402.344 165.72 402.111 165.509 401.783C165.302 401.455 165.199 401.08 165.199 400.658C165.199 399.955 165.41 399.414 165.831 399.035C166.253 398.652 166.851 398.461 167.624 398.461C167.96 398.461 168.263 398.5 168.533 398.578H170.753ZM165.632 406.078C165.632 406.426 165.779 406.689 166.072 406.869C166.365 407.049 166.785 407.139 167.331 407.139C168.148 407.139 168.751 407.016 169.142 406.77C169.537 406.527 169.734 406.197 169.734 405.779C169.734 405.432 169.626 405.189 169.412 405.053C169.197 404.92 168.792 404.854 168.199 404.854H167.033C166.591 404.854 166.247 404.959 166.001 405.17C165.755 405.381 165.632 405.684 165.632 406.078ZM166.16 400.635C166.16 401.084 166.287 401.424 166.54 401.654C166.794 401.885 167.148 402 167.601 402C168.55 402 169.025 401.539 169.025 400.617C169.025 399.652 168.544 399.17 167.583 399.17C167.126 399.17 166.775 399.293 166.529 399.539C166.283 399.785 166.16 400.15 166.16 400.635ZM176.094 403.248C176.094 403.846 175.872 404.307 175.426 404.631C174.981 404.955 174.356 405.117 173.551 405.117C172.7 405.117 172.036 404.982 171.559 404.713V403.811C171.868 403.967 172.198 404.09 172.549 404.18C172.905 404.27 173.247 404.314 173.575 404.314C174.083 404.314 174.473 404.234 174.747 404.074C175.02 403.91 175.157 403.662 175.157 403.33C175.157 403.08 175.047 402.867 174.829 402.691C174.614 402.512 174.192 402.301 173.563 402.059C172.965 401.836 172.54 401.643 172.286 401.479C172.036 401.311 171.848 401.121 171.723 400.91C171.602 400.699 171.542 400.447 171.542 400.154C171.542 399.631 171.754 399.219 172.18 398.918C172.606 398.613 173.19 398.461 173.932 398.461C174.624 398.461 175.299 398.602 175.96 398.883L175.614 399.674C174.969 399.408 174.385 399.275 173.862 399.275C173.401 399.275 173.053 399.348 172.819 399.492C172.585 399.637 172.467 399.836 172.467 400.09C172.467 400.262 172.51 400.408 172.596 400.529C172.686 400.65 172.829 400.766 173.024 400.875C173.219 400.984 173.594 401.143 174.149 401.35C174.911 401.627 175.424 401.906 175.69 402.188C175.96 402.469 176.094 402.822 176.094 403.248Z" fill="#7F7F7F"/>
</g>
</g>

<defs>
<filter id="filter0_d" x="0" y="0" width="408" height="424" filterUnits="userSpaceOnUse" color-interpolation-filters="sRGB">
<feFlood flood-opacity="0" result="BackgroundImageFix"/>
<feColorMatrix in="SourceAlpha" type="matrix" values="0 0 0 0 0 0 0 0 0 0 0 0 0 0 0 0 0 0 127 0"/>
<feOffset dy="2"/>
<feGaussianBlur stdDeviation="2"/>
<feColorMatrix type="matrix" values="0 0 0 0 0 0 0 0 0 0 0 0 0 0 0 0 0 0 0.16 0"/>
<feBlend mode="normal" in2="BackgroundImageFix" result="effect1_dropShadow"/>
<feBlend mode="normal" in="SourceGraphic" in2="effect1_dropShadow" result="shape"/>
</filter>

<filter id="filter1_i" x="4" y="379" width="400" height="39" filterUnits="userSpaceOnUse" color-interpolation-filters="sRGB">
<feFlood flood-opacity="0" result="BackgroundImageFix"/>
<feBlend mode="normal" in="SourceGraphic" in2="BackgroundImageFix" result="shape"/>
<feColorMatrix in="SourceAlpha" type="matrix" values="0 0 0 0 0 0 0 0 0 0 0 0 0 0 0 0 0 0 127 0" result="hardAlpha"/>
<feOffset dy="1"/>
<feComposite in2="hardAlpha" operator="arithmetic" k2="-1" k3="1"/>
<feColorMatrix type="matrix" values="0 0 0 0 0.741176 0 0 0 0 0.741176 0 0 0 0 0.741176 0 0 0 1 0"/>
<feBlend mode="normal" in2="shape" result="effect1_innerShadow"/>
</filter>

</defs>
</svg>
