<svg xmlns="http://www.w3.org/2000/svg" xmlns:xlink="http://www.w3.org/1999/xlink">
	<defs>
		<style>
		use#use_transparent{ fill: transparent }
		use#use_grey{ fill: #FBFBFD }
		</style>
	
		<clipPath id="clip0">
			<path d="M14 160C14 158.343 15.3431 157 17 157H43C44.6569 157 46 158.343 46 160V176C46 177.657 44.6569 179 43 179H17C15.3431 179 14 177.657 14 176V160Z" fill="white"/>
		</clipPath>
	</defs>

	<symbol viewBox="0 0 392 321" id="symbol_popup">
		<path d="M124.924 16.4365H127.225L122.475 30H120.137L115.405 16.4365H117.688L120.517 24.8696C120.666 25.2716 120.823 25.7912 120.99 26.4282C121.157 27.0591 121.265 27.5291 121.315 27.8384C121.395 27.3683 121.519 26.8241 121.686 26.2056C121.853 25.5871 121.989 25.1294 122.094 24.8325L124.924 16.4365ZM130.963 30H128.783V19.7393H130.963V30ZM128.653 17.021C128.653 16.6313 128.758 16.3314 128.969 16.1211C129.185 15.9108 129.491 15.8057 129.887 15.8057C130.271 15.8057 130.568 15.9108 130.778 16.1211C130.994 16.3314 131.103 16.6313 131.103 17.021C131.103 17.3921 130.994 17.6859 130.778 17.9023C130.568 18.1126 130.271 18.2178 129.887 18.2178C129.491 18.2178 129.185 18.1126 128.969 17.9023C128.758 17.6859 128.653 17.3921 128.653 17.021ZM139.294 19.5537C139.734 19.5537 140.095 19.5846 140.38 19.6465L140.167 21.6782C139.857 21.604 139.536 21.5669 139.202 21.5669C138.33 21.5669 137.621 21.8514 137.077 22.4204C136.539 22.9894 136.27 23.7285 136.27 24.6377V30H134.09V19.7393H135.797L136.084 21.5483H136.196C136.536 20.936 136.978 20.4505 137.522 20.0918C138.073 19.7331 138.664 19.5537 139.294 19.5537ZM146.113 28.4229C146.645 28.4229 147.177 28.3394 147.709 28.1724V29.8145C147.468 29.9196 147.155 30.0062 146.772 30.0742C146.395 30.1484 146.002 30.1855 145.594 30.1855C143.528 30.1855 142.495 29.097 142.495 26.9199V21.3906H141.094V20.4258L142.597 19.6279L143.339 17.457H144.685V19.7393H147.607V21.3906H144.685V26.8828C144.685 27.4085 144.814 27.7982 145.074 28.0518C145.34 28.2992 145.687 28.4229 146.113 28.4229ZM157.005 30L156.699 28.6548H156.587C156.284 29.131 155.851 29.5052 155.289 29.7773C154.732 30.0495 154.095 30.1855 153.377 30.1855C152.134 30.1855 151.207 29.8763 150.594 29.2578C149.982 28.6393 149.676 27.7023 149.676 26.4468V19.7393H151.875V26.0664C151.875 26.8519 152.035 27.4425 152.357 27.8384C152.679 28.228 153.183 28.4229 153.869 28.4229C154.785 28.4229 155.456 28.1507 155.882 27.6064C156.315 27.056 156.532 26.1375 156.532 24.8511V19.7393H158.721V30H157.005ZM168.249 30L167.813 28.5713H167.739C167.244 29.196 166.746 29.6227 166.245 29.8516C165.744 30.0742 165.101 30.1855 164.315 30.1855C163.307 30.1855 162.519 29.9134 161.95 29.3691C161.387 28.8249 161.105 28.0549 161.105 27.0591C161.105 26.0015 161.498 25.2036 162.284 24.6655C163.069 24.1274 164.266 23.8337 165.874 23.7842L167.646 23.7285V23.1812C167.646 22.5256 167.491 22.0369 167.182 21.7153C166.879 21.3875 166.406 21.2236 165.763 21.2236C165.237 21.2236 164.733 21.3009 164.25 21.4556C163.768 21.6102 163.304 21.7926 162.859 22.0029L162.154 20.4443C162.71 20.1536 163.32 19.9341 163.981 19.7856C164.643 19.631 165.268 19.5537 165.855 19.5537C167.16 19.5537 168.144 19.8382 168.806 20.4072C169.474 20.9762 169.808 21.87 169.808 23.0884V30H168.249ZM165.002 28.5156C165.794 28.5156 166.428 28.2961 166.904 27.8569C167.386 27.4116 167.627 26.79 167.627 25.9922V25.1016L166.31 25.1572C165.283 25.1943 164.535 25.3675 164.065 25.6768C163.601 25.9798 163.369 26.4468 163.369 27.0776C163.369 27.5353 163.505 27.891 163.777 28.1445C164.049 28.3919 164.458 28.5156 165.002 28.5156ZM175.031 30H172.851V15.5645H175.031V30ZM183.325 30V16.4365H185.542V28.0981H191.285V30H183.325ZM202.492 24.8511C202.492 26.5272 202.062 27.8353 201.202 28.7754C200.342 29.7155 199.146 30.1855 197.612 30.1855C196.653 30.1855 195.806 29.9691 195.07 29.5361C194.334 29.1032 193.768 28.4816 193.372 27.6714C192.976 26.8612 192.778 25.9211 192.778 24.8511C192.778 23.1873 193.205 21.8885 194.059 20.9546C194.912 20.0207 196.115 19.5537 197.667 19.5537C199.152 19.5537 200.327 20.033 201.193 20.9917C202.059 21.9442 202.492 23.2306 202.492 24.8511ZM195.023 24.8511C195.023 27.2199 195.899 28.4043 197.649 28.4043C199.381 28.4043 200.247 27.2199 200.247 24.8511C200.247 22.507 199.375 21.335 197.63 21.335C196.715 21.335 196.05 21.638 195.636 22.2441C195.228 22.8503 195.023 23.7192 195.023 24.8511ZM209.144 30.1855C207.591 30.1855 206.41 29.734 205.6 28.8311C204.796 27.9219 204.394 26.62 204.394 24.9253C204.394 23.1997 204.814 21.873 205.655 20.9453C206.503 20.0176 207.724 19.5537 209.32 19.5537C210.402 19.5537 211.376 19.7547 212.242 20.1567L211.583 21.9102C210.662 21.5514 209.901 21.3721 209.301 21.3721C207.526 21.3721 206.639 22.5503 206.639 24.9067C206.639 26.0571 206.858 26.923 207.297 27.5044C207.743 28.0796 208.392 28.3672 209.246 28.3672C210.217 28.3672 211.135 28.126 212.001 27.6436V29.5454C211.611 29.7743 211.194 29.9382 210.749 30.0371C210.309 30.1361 209.774 30.1855 209.144 30.1855ZM220.833 30L220.397 28.5713H220.323C219.828 29.196 219.33 29.6227 218.829 29.8516C218.328 30.0742 217.685 30.1855 216.899 30.1855C215.891 30.1855 215.103 29.9134 214.534 29.3691C213.971 28.8249 213.689 28.0549 213.689 27.0591C213.689 26.0015 214.082 25.2036 214.868 24.6655C215.653 24.1274 216.85 23.8337 218.458 23.7842L220.23 23.7285V23.1812C220.23 22.5256 220.075 22.0369 219.766 21.7153C219.463 21.3875 218.99 21.2236 218.347 21.2236C217.821 21.2236 217.317 21.3009 216.834 21.4556C216.352 21.6102 215.888 21.7926 215.443 22.0029L214.738 20.4443C215.294 20.1536 215.904 19.9341 216.565 19.7856C217.227 19.631 217.852 19.5537 218.439 19.5537C219.744 19.5537 220.728 19.8382 221.39 20.4072C222.058 20.9762 222.392 21.87 222.392 23.0884V30H220.833ZM217.586 28.5156C218.378 28.5156 219.012 28.2961 219.488 27.8569C219.97 27.4116 220.211 26.79 220.211 25.9922V25.1016L218.894 25.1572C217.867 25.1943 217.119 25.3675 216.649 25.6768C216.185 25.9798 215.953 26.4468 215.953 27.0776C215.953 27.5353 216.089 27.891 216.361 28.1445C216.633 28.3919 217.042 28.5156 217.586 28.5156ZM229.257 28.4229C229.789 28.4229 230.321 28.3394 230.853 28.1724V29.8145C230.611 29.9196 230.299 30.0062 229.916 30.0742C229.538 30.1484 229.146 30.1855 228.737 30.1855C226.672 30.1855 225.639 29.097 225.639 26.9199V21.3906H224.238V20.4258L225.741 19.6279L226.483 17.457H227.828V19.7393H230.75V21.3906H227.828V26.8828C227.828 27.4085 227.958 27.7982 228.218 28.0518C228.484 28.2992 228.83 28.4229 229.257 28.4229ZM235.092 30H232.912V19.7393H235.092V30ZM232.782 17.021C232.782 16.6313 232.887 16.3314 233.098 16.1211C233.314 15.9108 233.62 15.8057 234.016 15.8057C234.4 15.8057 234.696 15.9108 234.907 16.1211C235.123 16.3314 235.231 16.6313 235.231 17.021C235.231 17.3921 235.123 17.6859 234.907 17.9023C234.696 18.1126 234.4 18.2178 234.016 18.2178C233.62 18.2178 233.314 18.1126 233.098 17.9023C232.887 17.6859 232.782 17.3921 232.782 17.021ZM247.32 24.8511C247.32 26.5272 246.89 27.8353 246.03 28.7754C245.171 29.7155 243.974 30.1855 242.44 30.1855C241.481 30.1855 240.634 29.9691 239.898 29.5361C239.162 29.1032 238.596 28.4816 238.2 27.6714C237.804 26.8612 237.606 25.9211 237.606 24.8511C237.606 23.1873 238.033 21.8885 238.887 20.9546C239.74 20.0207 240.943 19.5537 242.496 19.5537C243.98 19.5537 245.155 20.033 246.021 20.9917C246.887 21.9442 247.32 23.2306 247.32 24.8511ZM239.852 24.8511C239.852 27.2199 240.727 28.4043 242.477 28.4043C244.209 28.4043 245.075 27.2199 245.075 24.8511C245.075 22.507 244.203 21.335 242.458 21.335C241.543 21.335 240.878 21.638 240.464 22.2441C240.056 22.8503 239.852 23.7192 239.852 24.8511ZM258.861 30H256.671V23.6914C256.671 22.8997 256.511 22.3091 256.189 21.9194C255.874 21.5298 255.369 21.335 254.677 21.335C253.755 21.335 253.081 21.6071 252.654 22.1514C252.228 22.6956 252.014 23.6079 252.014 24.8882V30H249.834V19.7393H251.541L251.847 21.0845H251.958C252.268 20.5959 252.707 20.2186 253.276 19.9526C253.845 19.6867 254.476 19.5537 255.168 19.5537C257.63 19.5537 258.861 20.8062 258.861 23.311V30ZM268.788 27.0776C268.788 28.0796 268.423 28.8496 267.693 29.3877C266.963 29.9196 265.918 30.1855 264.557 30.1855C263.19 30.1855 262.092 29.9784 261.264 29.564V27.6807C262.47 28.2373 263.592 28.5156 264.631 28.5156C265.973 28.5156 266.645 28.1105 266.645 27.3003C266.645 27.0405 266.57 26.8241 266.422 26.6509C266.273 26.4777 266.029 26.2983 265.689 26.1128C265.349 25.9272 264.876 25.717 264.27 25.4819C263.088 25.0243 262.287 24.5666 261.867 24.1089C261.452 23.6512 261.245 23.0575 261.245 22.3276C261.245 21.4494 261.598 20.769 262.303 20.2866C263.014 19.798 263.979 19.5537 265.197 19.5537C266.403 19.5537 267.544 19.798 268.621 20.2866L267.916 21.9287C266.808 21.471 265.878 21.2422 265.123 21.2422C263.973 21.2422 263.397 21.57 263.397 22.2256C263.397 22.5472 263.546 22.8193 263.843 23.042C264.146 23.2646 264.801 23.5708 265.81 23.9604C266.657 24.2882 267.272 24.5882 267.656 24.8604C268.039 25.1325 268.324 25.4479 268.509 25.8066C268.695 26.1592 268.788 26.5828 268.788 27.0776Z" fill="#13233C"/>
		<circle cx="283" cy="23" r="7.5" fill="white" stroke="#989898"/>
		<path d="M284.665 27.3983C284.254 27.5608 283.926 27.6841 283.68 27.7694C283.435 27.8548 283.15 27.8974 282.825 27.8974C282.327 27.8974 281.939 27.7755 281.662 27.5324C281.386 27.2893 281.249 26.9811 281.249 26.6066C281.249 26.461 281.259 26.312 281.279 26.1603C281.3 26.0086 281.333 25.8379 281.379 25.6463L281.894 23.8258C281.939 23.6511 281.979 23.4852 282.01 23.3308C282.041 23.175 282.056 23.0321 282.056 22.9021C282.056 22.6704 282.008 22.5079 281.912 22.4165C281.816 22.325 281.633 22.2803 281.362 22.2803C281.229 22.2803 281.092 22.3 280.952 22.3413C280.813 22.384 280.693 22.4226 280.594 22.4605L280.73 21.8997C281.067 21.7622 281.39 21.6444 281.698 21.5469C282.006 21.448 282.298 21.3992 282.572 21.3992C283.067 21.3992 283.449 21.5198 283.718 21.7582C283.985 21.9973 284.12 22.3081 284.12 22.6901C284.12 22.7693 284.111 22.9088 284.092 23.1079C284.074 23.3077 284.04 23.4899 283.989 23.6572L283.477 25.4722C283.435 25.6178 283.398 25.7844 283.364 25.9707C283.331 26.1569 283.314 26.2991 283.314 26.3946C283.314 26.6357 283.368 26.8003 283.476 26.8877C283.583 26.975 283.771 27.0191 284.036 27.0191C284.161 27.0191 284.302 26.9967 284.46 26.9534C284.617 26.91 284.731 26.8714 284.803 26.8382L284.665 27.3983ZM284.575 20.0312C284.336 20.2533 284.048 20.3644 283.711 20.3644C283.375 20.3644 283.085 20.2533 282.844 20.0312C282.605 19.8091 282.483 19.5388 282.483 19.2232C282.483 18.9083 282.605 18.6374 282.844 18.4133C283.085 18.1884 283.375 18.0767 283.711 18.0767C284.048 18.0767 284.336 18.1884 284.575 18.4133C284.814 18.6374 284.934 18.9083 284.934 19.2232C284.934 19.5395 284.814 19.8091 284.575 20.0312Z" fill="#989898"/>
		<path d="M22.374 20.0059H25.1973C26.5234 20.0059 27.4827 20.2041 28.0752 20.6006C28.6676 20.9971 28.9639 21.6237 28.9639 22.4805C28.9639 23.0729 28.7975 23.5628 28.4648 23.9502C28.1367 24.333 27.6559 24.5814 27.0225 24.6953V24.7637C28.54 25.0234 29.2988 25.821 29.2988 27.1562C29.2988 28.0495 28.9958 28.7467 28.3896 29.248C27.7881 29.7493 26.945 30 25.8604 30H22.374V20.0059ZM23.5361 24.2852H25.4502C26.2705 24.2852 26.8607 24.1576 27.2207 23.9023C27.5807 23.6426 27.7607 23.2074 27.7607 22.5967C27.7607 22.0361 27.5602 21.6328 27.1592 21.3867C26.7581 21.1361 26.1201 21.0107 25.2451 21.0107H23.5361V24.2852ZM23.5361 25.2695V29.0088H25.6211C26.4277 29.0088 27.0339 28.8538 27.4395 28.5439C27.8496 28.2295 28.0547 27.7396 28.0547 27.0742C28.0547 26.4544 27.8451 25.9987 27.4258 25.707C27.0111 25.4154 26.3776 25.2695 25.5254 25.2695H23.5361ZM35.8887 30L35.6631 28.9336H35.6084C35.2347 29.403 34.861 29.722 34.4873 29.8906C34.1182 30.0547 33.6556 30.1367 33.0996 30.1367C32.3568 30.1367 31.7734 29.9453 31.3496 29.5625C30.9303 29.1797 30.7207 28.6351 30.7207 27.9287C30.7207 26.4157 31.9307 25.6227 34.3506 25.5498L35.6221 25.5088V25.0439C35.6221 24.4561 35.4945 24.0231 35.2393 23.7451C34.9886 23.4626 34.5853 23.3213 34.0293 23.3213C33.4049 23.3213 32.6986 23.5127 31.9102 23.8955L31.5615 23.0273C31.9307 22.8268 32.334 22.6696 32.7715 22.5557C33.2135 22.4417 33.6556 22.3848 34.0977 22.3848C34.9909 22.3848 35.6517 22.583 36.0801 22.9795C36.513 23.376 36.7295 24.0117 36.7295 24.8867V30H35.8887ZM33.3252 29.2002C34.0316 29.2002 34.5853 29.0065 34.9863 28.6191C35.3919 28.2318 35.5947 27.6895 35.5947 26.9922V26.3154L34.46 26.3633C33.5576 26.3952 32.9059 26.5365 32.5049 26.7871C32.1084 27.0332 31.9102 27.4183 31.9102 27.9424C31.9102 28.3525 32.0332 28.6647 32.2793 28.8789C32.5299 29.0931 32.8786 29.2002 33.3252 29.2002ZM42.0684 30.1367C40.9837 30.1367 40.1429 29.804 39.5459 29.1387C38.9535 28.4688 38.6572 27.5231 38.6572 26.3018C38.6572 25.0485 38.958 24.0801 39.5596 23.3965C40.1657 22.7129 41.027 22.3711 42.1436 22.3711C42.5036 22.3711 42.8636 22.4098 43.2236 22.4873C43.5837 22.5648 43.8662 22.6559 44.0713 22.7607L43.7227 23.7246C43.472 23.6243 43.1986 23.5423 42.9023 23.4785C42.6061 23.4102 42.3441 23.376 42.1162 23.376C40.5941 23.376 39.833 24.3467 39.833 26.2881C39.833 27.2087 40.0176 27.915 40.3867 28.4072C40.7604 28.8994 41.3118 29.1455 42.041 29.1455C42.6654 29.1455 43.3057 29.0111 43.9619 28.7422V29.7471C43.4606 30.0068 42.8294 30.1367 42.0684 30.1367ZM46.8672 26.165C47.0632 25.887 47.3617 25.5225 47.7627 25.0713L50.1826 22.5078H51.5293L48.4941 25.7002L51.7412 30H50.3672L47.7217 26.459L46.8672 27.1973V30H45.7461V19.3633H46.8672V25.0029C46.8672 25.2536 46.849 25.641 46.8125 26.165H46.8672Z" fill="#2C4365"/>
		<path d="M3.35018 23.2318C2.88327 23.6561 2.88327 24.3439 3.35018 24.7682L10.959 31.6818C11.4259 32.1061 12.1829 32.1061 12.6498 31.6818C13.1167 31.2576 13.1167 30.5697 12.6498 30.1454L5.88645 24L12.6498 17.8546C13.1167 17.4303 13.1167 16.7424 12.6498 16.3182C12.1829 15.8939 11.4259 15.8939 10.959 16.3182L3.35018 23.2318Z" fill="#1C304E"/>
		<path d="M3 67C3 64.7909 4.79086 63 7 63H360C362.209 63 364 64.7909 364 67V101C364 103.209 362.209 105 360 105H7C4.79086 105 3 103.209 3 101V67Z" fill="white"/>
		<path d="M46 73H14V95H46V73Z" fill="white"/>
		<path d="M46 73H14V80.3333H46V73Z" fill="#A2001D"/>
		<path d="M46 87.6667H14V95.0001H46V87.6667Z" fill="#0052B4"/>
		<path d="M17 74H43V72H17V74ZM45 76V92H47V76H45ZM43 94H17V96H43V94ZM15 92V76H13V92H15ZM17 94C15.8954 94 15 93.1046 15 92H13C13 94.2091 14.7909 96 17 96V94ZM45 92C45 93.1046 44.1046 94 43 94V96C45.2091 96 47 94.2091 47 92H45ZM43 74C44.1046 74 45 74.8954 45 76H47C47 73.7909 45.2091 72 43 72V74ZM17 72C14.7909 72 13 73.7909 13 76H15C15 74.8954 15.8954 74 17 74V72Z" fill="#D9D8DD"/>
		<path d="M64.5249 89H63.2935L58.2217 81.2114H58.1709C58.2386 82.1255 58.2725 82.9634 58.2725 83.7251V89H57.2759V79.7197H58.4946L63.5537 87.4766H63.6045C63.596 87.3623 63.577 86.9963 63.5474 86.3784C63.5177 85.7563 63.5072 85.312 63.5156 85.0454V79.7197H64.5249V89ZM69.8569 89.127C68.8286 89.127 68.0161 88.8138 67.4194 88.1875C66.827 87.5612 66.5308 86.6916 66.5308 85.5786C66.5308 84.4572 66.8058 83.5664 67.356 82.9062C67.9103 82.2461 68.653 81.916 69.584 81.916C70.4557 81.916 71.1455 82.2038 71.6533 82.7793C72.1611 83.3506 72.415 84.106 72.415 85.0454V85.7119H67.6226C67.6437 86.5286 67.849 87.1486 68.2383 87.5718C68.6318 87.995 69.1841 88.2065 69.895 88.2065C70.644 88.2065 71.3846 88.05 72.1167 87.7368V88.6763C71.7443 88.8371 71.391 88.9513 71.0566 89.019C70.7266 89.091 70.3267 89.127 69.8569 89.127ZM69.5713 82.7983C69.0127 82.7983 68.5662 82.9803 68.2319 83.3442C67.9019 83.7082 67.7072 84.2118 67.6479 84.855H71.2852C71.2852 84.1906 71.137 83.6828 70.8408 83.3315C70.5446 82.9761 70.1214 82.7983 69.5713 82.7983ZM76.4648 88.2573C76.651 88.2573 76.8309 88.2446 77.0044 88.2192C77.1779 88.1896 77.3154 88.16 77.417 88.1304V88.9365C77.3027 88.9915 77.1335 89.036 76.9092 89.0698C76.6891 89.1079 76.4902 89.127 76.3125 89.127C74.9668 89.127 74.2939 88.4181 74.2939 87.0005V82.8618H73.2974V82.354L74.2939 81.916L74.7383 80.4307H75.3477V82.043H77.3662V82.8618H75.3477V86.9561C75.3477 87.375 75.4471 87.6966 75.646 87.9209C75.8449 88.1452 76.1178 88.2573 76.4648 88.2573ZM83.5742 89V84.4995C83.5742 83.9325 83.4451 83.5093 83.187 83.23C82.9289 82.9507 82.5247 82.811 81.9746 82.811C81.2425 82.811 80.7072 83.0099 80.3687 83.4077C80.0343 83.8055 79.8672 84.4572 79.8672 85.3628V89H78.8135V79.123H79.8672V82.1128C79.8672 82.4725 79.8503 82.7708 79.8164 83.0078H79.8799C80.0872 82.6735 80.3813 82.4111 80.7622 82.2207C81.1473 82.026 81.5853 81.9287 82.0762 81.9287C82.9268 81.9287 83.5636 82.1318 83.9868 82.5381C84.4142 82.9401 84.6279 83.5812 84.6279 84.4614V89H83.5742ZM89.7378 89.127C88.7095 89.127 87.897 88.8138 87.3003 88.1875C86.7078 87.5612 86.4116 86.6916 86.4116 85.5786C86.4116 84.4572 86.6867 83.5664 87.2368 82.9062C87.7912 82.2461 88.5339 81.916 89.4648 81.916C90.3366 81.916 91.0264 82.2038 91.5342 82.7793C92.042 83.3506 92.2959 84.106 92.2959 85.0454V85.7119H87.5034C87.5246 86.5286 87.7298 87.1486 88.1191 87.5718C88.5127 87.995 89.0649 88.2065 89.7759 88.2065C90.5249 88.2065 91.2655 88.05 91.9976 87.7368V88.6763C91.6252 88.8371 91.2718 88.9513 90.9375 89.019C90.6074 89.091 90.2075 89.127 89.7378 89.127ZM89.4521 82.7983C88.8936 82.7983 88.4471 82.9803 88.1128 83.3442C87.7827 83.7082 87.5881 84.2118 87.5288 84.855H91.166C91.166 84.1906 91.0179 83.6828 90.7217 83.3315C90.4255 82.9761 90.0023 82.7983 89.4521 82.7983ZM97.2725 81.916C97.5814 81.916 97.8586 81.9414 98.104 81.9922L97.958 82.9697C97.6702 82.9062 97.4163 82.8745 97.1963 82.8745C96.6335 82.8745 96.151 83.103 95.749 83.5601C95.3512 84.0171 95.1523 84.5863 95.1523 85.2676V89H94.0986V82.043H94.9683L95.0889 83.3315H95.1396C95.3978 82.8787 95.7088 82.5296 96.0728 82.2842C96.4367 82.0387 96.8366 81.916 97.2725 81.916ZM100.459 89H99.4053V79.123H100.459V89ZM106.972 89L106.762 88.0098H106.711C106.364 88.4456 106.017 88.7419 105.67 88.8984C105.328 89.0508 104.898 89.127 104.382 89.127C103.692 89.127 103.15 88.9492 102.757 88.5938C102.368 88.2383 102.173 87.7326 102.173 87.0767C102.173 85.6717 103.296 84.9354 105.543 84.8677L106.724 84.8296V84.3979C106.724 83.8521 106.606 83.45 106.369 83.1919C106.136 82.9295 105.761 82.7983 105.245 82.7983C104.665 82.7983 104.009 82.9761 103.277 83.3315L102.954 82.5254C103.296 82.3392 103.671 82.1932 104.077 82.0874C104.488 81.9816 104.898 81.9287 105.309 81.9287C106.138 81.9287 106.752 82.1128 107.149 82.481C107.551 82.8491 107.752 83.4395 107.752 84.252V89H106.972ZM104.591 88.2573C105.247 88.2573 105.761 88.0775 106.134 87.7178C106.51 87.3581 106.699 86.8545 106.699 86.207V85.5786L105.645 85.623C104.807 85.6527 104.202 85.7839 103.83 86.0166C103.461 86.2451 103.277 86.6027 103.277 87.0894C103.277 87.4702 103.392 87.7601 103.62 87.959C103.853 88.1579 104.177 88.2573 104.591 88.2573ZM114.69 89V84.4995C114.69 83.9325 114.561 83.5093 114.303 83.23C114.045 82.9507 113.641 82.811 113.091 82.811C112.363 82.811 111.83 83.0078 111.491 83.4014C111.153 83.7949 110.983 84.4445 110.983 85.3501V89H109.93V82.043H110.787L110.958 82.9951H111.009C111.225 82.6523 111.527 82.3879 111.917 82.2017C112.306 82.0112 112.74 81.916 113.218 81.916C114.056 81.916 114.686 82.1191 115.109 82.5254C115.533 82.9274 115.744 83.5728 115.744 84.4614V89H114.69ZM122.65 88.0669H122.593C122.107 88.7736 121.379 89.127 120.41 89.127C119.5 89.127 118.791 88.8159 118.283 88.1938C117.78 87.5718 117.528 86.6873 117.528 85.5405C117.528 84.3937 117.782 83.5029 118.29 82.8682C118.797 82.2334 119.504 81.916 120.41 81.916C121.353 81.916 122.077 82.2588 122.581 82.9443H122.663L122.619 82.4429L122.593 81.9541V79.123H123.647V89H122.79L122.65 88.0669ZM120.543 88.2446C121.262 88.2446 121.783 88.05 122.104 87.6606C122.43 87.2671 122.593 86.6344 122.593 85.7627V85.5405C122.593 84.5545 122.428 83.8521 122.098 83.4331C121.772 83.0099 121.25 82.7983 120.53 82.7983C119.912 82.7983 119.438 83.0396 119.108 83.522C118.783 84.0002 118.62 84.6772 118.62 85.5532C118.62 86.4419 118.783 87.1126 119.108 87.5654C119.434 88.0182 119.912 88.2446 120.543 88.2446ZM130.375 87.1021C130.375 87.7495 130.134 88.2489 129.652 88.6001C129.169 88.9513 128.492 89.127 127.621 89.127C126.698 89.127 125.979 88.981 125.462 88.689V87.7114C125.797 87.8807 126.154 88.014 126.535 88.1113C126.92 88.2087 127.291 88.2573 127.646 88.2573C128.196 88.2573 128.619 88.1706 128.916 87.9971C129.212 87.8193 129.36 87.5506 129.36 87.1909C129.36 86.9201 129.241 86.6895 129.004 86.499C128.772 86.3044 128.315 86.0758 127.633 85.8135C126.986 85.5723 126.525 85.3628 126.25 85.1851C125.979 85.0031 125.776 84.7979 125.64 84.5693C125.509 84.3408 125.443 84.0679 125.443 83.7505C125.443 83.1834 125.674 82.737 126.135 82.4111C126.597 82.0811 127.229 81.916 128.033 81.916C128.782 81.916 129.514 82.0684 130.229 82.373L129.855 83.23C129.157 82.9422 128.524 82.7983 127.957 82.7983C127.458 82.7983 127.081 82.8766 126.827 83.0332C126.573 83.1898 126.446 83.4056 126.446 83.6807C126.446 83.8669 126.493 84.0256 126.586 84.1567C126.683 84.2879 126.838 84.4128 127.049 84.5312C127.261 84.6497 127.667 84.8211 128.268 85.0454C129.093 85.3459 129.65 85.6484 129.938 85.9531C130.229 86.2578 130.375 86.6408 130.375 87.1021Z" fill="#494B4D"/>
		<rect x="333" y="86" width="3" height="4" rx="1" fill="#E0B300"/>
		<rect x="338" y="84" width="3" height="6" rx="1" fill="#E0B300"/>
		<rect x="343" y="82" width="3" height="8" rx="1" fill="#E0B300"/>
		<rect x="348" y="80" width="3" height="10" rx="1" fill="#CED9DF"/>
		<rect x="353" y="78" width="3" height="12" rx="1" fill="#CED9DF"/>
		<path d="M3 109C3 106.791 4.79086 105 7 105H360C362.209 105 364 106.791 364 109V143C364 145.209 362.209 147 360 147H7C4.79086 147 3 145.209 3 143V109Z" fill="white"/>
		<path d="M46 115H14V137H46V115Z" fill="white"/>
		<path d="M46 115H14V126H46V115Z" fill="#D80027"/>
		<path d="M19.2174 120.5C19.2174 118.897 20.3097 117.558 21.7682 117.23C21.544 117.179 21.3114 117.152 21.0725 117.152C19.2795 117.152 17.8262 118.651 17.8262 120.5C17.8262 122.349 19.2796 123.848 21.0725 123.848C21.3114 123.848 21.544 123.82 21.7682 123.77C20.3097 123.441 19.2174 122.102 19.2174 120.5Z" fill="white"/>
		<path d="M23.3913 117.391L23.6216 118.122H24.3666L23.7638 118.573L23.9941 119.304L23.3913 118.853L22.7885 119.304L23.0188 118.573L22.416 118.122H23.1611L23.3913 117.391Z" fill="white"/>
		<path d="M21.5847 118.826L21.8149 119.557H22.5599L21.9571 120.008L22.1874 120.739L21.5847 120.287L20.9819 120.739L21.2122 120.008L20.6094 119.557H21.3544L21.5847 118.826Z" fill="white"/>
		<path d="M25.1979 118.826L25.4282 119.557H26.1732L25.5704 120.008L25.8007 120.739L25.1979 120.287L24.5952 120.739L24.8255 120.008L24.2227 119.557H24.9677L25.1979 118.826Z" fill="white"/>
		<path d="M24.5025 120.978L24.7328 121.709H25.4778L24.8751 122.161L25.1053 122.891L24.5025 122.44L23.8998 122.891L24.1301 122.161L23.5273 121.709H24.2723L24.5025 120.978Z" fill="white"/>
		<path d="M22.2799 120.978L22.5101 121.709H23.2552L22.6524 122.161L22.8827 122.891L22.2799 122.44L21.6772 122.891L21.9074 122.161L21.3047 121.709H22.0497L22.2799 120.978Z" fill="white"/>
		<path d="M17 116H43V114H17V116ZM45 118V134H47V118H45ZM43 136H17V138H43V136ZM15 134V118H13V134H15ZM17 136C15.8954 136 15 135.105 15 134H13C13 136.209 14.7909 138 17 138V136ZM45 134C45 135.105 44.1046 136 43 136V138C45.2091 138 47 136.209 47 134H45ZM43 116C44.1046 116 45 116.895 45 118H47C47 115.791 45.2091 114 43 114V116ZM17 114C14.7909 114 13 115.791 13 118H15C15 116.895 15.8954 116 17 116V114Z" fill="#D9D8DD"/>
		<path d="M62.5127 128.531C62.5127 129.347 62.2165 129.984 61.624 130.441C61.0316 130.898 60.2275 131.127 59.2119 131.127C58.1117 131.127 57.2653 130.985 56.6729 130.702V129.661C57.0537 129.821 57.4684 129.948 57.917 130.042C58.3656 130.135 58.8099 130.181 59.25 130.181C59.9694 130.181 60.5111 130.046 60.875 129.775C61.2389 129.5 61.4209 129.119 61.4209 128.632C61.4209 128.311 61.3553 128.048 61.2241 127.845C61.0972 127.638 60.8813 127.447 60.5767 127.274C60.2762 127.1 59.8171 126.904 59.1992 126.684C58.3359 126.375 57.7181 126.009 57.3457 125.585C56.9775 125.162 56.7935 124.61 56.7935 123.929C56.7935 123.214 57.0622 122.644 57.5996 122.221C58.137 121.798 58.848 121.586 59.7324 121.586C60.6549 121.586 61.5034 121.756 62.2778 122.094L61.9414 123.034C61.1755 122.712 60.4307 122.551 59.707 122.551C59.1357 122.551 58.6893 122.674 58.3677 122.919C58.0461 123.165 57.8853 123.506 57.8853 123.941C57.8853 124.263 57.9445 124.528 58.063 124.735C58.1815 124.938 58.3804 125.126 58.6597 125.3C58.9432 125.469 59.3748 125.657 59.9546 125.865C60.9279 126.212 61.5965 126.584 61.9604 126.982C62.3286 127.38 62.5127 127.896 62.5127 128.531ZM65.3057 131H64.252V124.043H65.3057V131ZM64.1631 122.158C64.1631 121.917 64.2223 121.741 64.3408 121.631C64.4593 121.517 64.6074 121.459 64.7852 121.459C64.9544 121.459 65.1004 121.517 65.2231 121.631C65.3459 121.745 65.4072 121.921 65.4072 122.158C65.4072 122.395 65.3459 122.572 65.2231 122.691C65.1004 122.805 64.9544 122.862 64.7852 122.862C64.6074 122.862 64.4593 122.805 64.3408 122.691C64.2223 122.572 64.1631 122.395 64.1631 122.158ZM72.3008 131V126.5C72.3008 125.932 72.1717 125.509 71.9136 125.23C71.6554 124.951 71.2513 124.811 70.7012 124.811C69.9733 124.811 69.4401 125.008 69.1016 125.401C68.763 125.795 68.5938 126.444 68.5938 127.35V131H67.54V124.043H68.397L68.5684 124.995H68.6191C68.835 124.652 69.1375 124.388 69.5269 124.202C69.9162 124.011 70.3499 123.916 70.8281 123.916C71.666 123.916 72.2965 124.119 72.7197 124.525C73.1429 124.927 73.3545 125.573 73.3545 126.461V131H72.3008ZM81.2192 124.043V124.709L79.9307 124.862C80.0492 125.01 80.1549 125.205 80.248 125.446C80.3411 125.683 80.3877 125.951 80.3877 126.252C80.3877 126.933 80.1549 127.477 79.6895 127.883C79.224 128.29 78.585 128.493 77.7725 128.493C77.5651 128.493 77.3704 128.476 77.1885 128.442C76.7399 128.679 76.5156 128.977 76.5156 129.337C76.5156 129.527 76.5939 129.669 76.7505 129.762C76.9071 129.851 77.1758 129.896 77.5566 129.896H78.7881C79.5413 129.896 80.119 130.054 80.521 130.372C80.9272 130.689 81.1304 131.15 81.1304 131.755C81.1304 132.526 80.8215 133.112 80.2036 133.514C79.5858 133.92 78.6844 134.123 77.4995 134.123C76.5897 134.123 75.8872 133.954 75.3921 133.615C74.9012 133.277 74.6558 132.799 74.6558 132.181C74.6558 131.757 74.7912 131.391 75.062 131.083C75.3328 130.774 75.7137 130.564 76.2046 130.454C76.0269 130.374 75.8766 130.249 75.7539 130.08C75.6354 129.91 75.5762 129.714 75.5762 129.489C75.5762 129.235 75.6439 129.013 75.7793 128.823C75.9147 128.632 76.1284 128.448 76.4204 128.271C76.0607 128.122 75.7666 127.871 75.5381 127.515C75.3138 127.16 75.2017 126.753 75.2017 126.296C75.2017 125.535 75.4302 124.949 75.8872 124.538C76.3442 124.123 76.9917 123.916 77.8296 123.916C78.1935 123.916 78.5215 123.958 78.8135 124.043H81.2192ZM75.6714 132.168C75.6714 132.545 75.8301 132.83 76.1475 133.025C76.4648 133.22 76.9198 133.317 77.5122 133.317C78.3966 133.317 79.0505 133.184 79.4736 132.917C79.901 132.655 80.1147 132.297 80.1147 131.844C80.1147 131.468 79.9984 131.205 79.7656 131.057C79.5329 130.913 79.0949 130.841 78.4517 130.841H77.1885C76.7103 130.841 76.3379 130.956 76.0713 131.184C75.8047 131.413 75.6714 131.741 75.6714 132.168ZM76.2427 126.271C76.2427 126.758 76.3802 127.126 76.6553 127.375C76.9303 127.625 77.3133 127.75 77.8042 127.75C78.8325 127.75 79.3467 127.251 79.3467 126.252C79.3467 125.207 78.8262 124.684 77.7852 124.684C77.29 124.684 76.9092 124.817 76.6426 125.084C76.376 125.351 76.2427 125.746 76.2427 126.271ZM86.9258 131L86.7163 130.01H86.6655C86.3185 130.446 85.9715 130.742 85.6245 130.898C85.2817 131.051 84.8522 131.127 84.3359 131.127C83.6462 131.127 83.1045 130.949 82.7109 130.594C82.3216 130.238 82.127 129.733 82.127 129.077C82.127 127.672 83.2505 126.935 85.4976 126.868L86.6782 126.83V126.398C86.6782 125.852 86.5597 125.45 86.3228 125.192C86.09 124.93 85.7155 124.798 85.1992 124.798C84.6195 124.798 83.9635 124.976 83.2314 125.332L82.9077 124.525C83.2505 124.339 83.625 124.193 84.0312 124.087C84.4417 123.982 84.8522 123.929 85.2627 123.929C86.0921 123.929 86.7057 124.113 87.1035 124.481C87.5055 124.849 87.7065 125.439 87.7065 126.252V131H86.9258ZM84.5454 130.257C85.2013 130.257 85.7155 130.077 86.0879 129.718C86.4645 129.358 86.6528 128.854 86.6528 128.207V127.579L85.5991 127.623C84.7612 127.653 84.1561 127.784 83.7837 128.017C83.4155 128.245 83.2314 128.603 83.2314 129.089C83.2314 129.47 83.3457 129.76 83.5742 129.959C83.807 130.158 84.1307 130.257 84.5454 130.257ZM93.1211 131.127C92.6683 131.127 92.2536 131.044 91.877 130.879C91.5046 130.71 91.1914 130.452 90.9375 130.105H90.8613C90.9121 130.511 90.9375 130.896 90.9375 131.26V134.123H89.8838V124.043H90.7407L90.8867 124.995H90.9375C91.2083 124.614 91.5236 124.339 91.8833 124.17C92.243 124.001 92.6556 123.916 93.1211 123.916C94.0436 123.916 94.7546 124.231 95.2539 124.862C95.7575 125.492 96.0093 126.377 96.0093 127.515C96.0093 128.658 95.7533 129.546 95.2412 130.181C94.7334 130.812 94.0267 131.127 93.1211 131.127ZM92.9688 124.811C92.2578 124.811 91.7437 125.008 91.4263 125.401C91.1089 125.795 90.946 126.421 90.9375 127.28V127.515C90.9375 128.493 91.1004 129.193 91.4263 129.616C91.7521 130.035 92.2747 130.245 92.9941 130.245C93.5951 130.245 94.0648 130.001 94.4033 129.515C94.7461 129.028 94.9175 128.357 94.9175 127.502C94.9175 126.635 94.7461 125.971 94.4033 125.509C94.0648 125.044 93.5866 124.811 92.9688 124.811ZM103.861 127.515C103.861 128.649 103.576 129.536 103.004 130.175C102.433 130.81 101.644 131.127 100.637 131.127C100.015 131.127 99.4624 130.981 98.98 130.689C98.4976 130.397 98.1252 129.978 97.8628 129.432C97.6004 128.886 97.4692 128.247 97.4692 127.515C97.4692 126.381 97.7528 125.499 98.3198 124.868C98.8869 124.233 99.674 123.916 100.681 123.916C101.654 123.916 102.427 124.24 102.998 124.887C103.574 125.535 103.861 126.411 103.861 127.515ZM98.561 127.515C98.561 128.404 98.7388 129.081 99.0942 129.546C99.4497 130.012 99.9723 130.245 100.662 130.245C101.352 130.245 101.875 130.014 102.23 129.553C102.59 129.087 102.77 128.408 102.77 127.515C102.77 126.631 102.59 125.96 102.23 125.503C101.875 125.042 101.348 124.811 100.649 124.811C99.9596 124.811 99.4391 125.037 99.0879 125.49C98.7367 125.943 98.561 126.618 98.561 127.515ZM108.889 123.916C109.198 123.916 109.475 123.941 109.72 123.992L109.574 124.97C109.286 124.906 109.033 124.875 108.812 124.875C108.25 124.875 107.767 125.103 107.365 125.56C106.967 126.017 106.769 126.586 106.769 127.268V131H105.715V124.043H106.584L106.705 125.332H106.756C107.014 124.879 107.325 124.53 107.689 124.284C108.053 124.039 108.453 123.916 108.889 123.916ZM113.694 131.127C112.666 131.127 111.853 130.814 111.256 130.188C110.664 129.561 110.368 128.692 110.368 127.579C110.368 126.457 110.643 125.566 111.193 124.906C111.747 124.246 112.49 123.916 113.421 123.916C114.293 123.916 114.982 124.204 115.49 124.779C115.998 125.351 116.252 126.106 116.252 127.045V127.712H111.459C111.481 128.529 111.686 129.149 112.075 129.572C112.469 129.995 113.021 130.207 113.732 130.207C114.481 130.207 115.222 130.05 115.954 129.737V130.676C115.581 130.837 115.228 130.951 114.894 131.019C114.563 131.091 114.164 131.127 113.694 131.127ZM113.408 124.798C112.85 124.798 112.403 124.98 112.069 125.344C111.739 125.708 111.544 126.212 111.485 126.855H115.122C115.122 126.191 114.974 125.683 114.678 125.332C114.382 124.976 113.958 124.798 113.408 124.798Z" fill="#494B4D"/>
		<rect x="333" y="128" width="3" height="4" rx="1" fill="#E0B300"/>
		<rect x="338" y="126" width="3" height="6" rx="1" fill="#E0B300"/>
		<rect x="343" y="124" width="3" height="8" rx="1" fill="#E0B300"/>
		<rect x="348" y="122" width="3" height="10" rx="1" fill="#CED9DF"/>
		<rect x="353" y="120" width="3" height="12" rx="1" fill="#CED9DF"/>
		<path d="M3 151C3 148.791 4.79086 147 7 147H360C362.209 147 364 148.791 364 151V185C364 187.209 362.209 189 360 189H7C4.79086 189 3 187.209 3 185V151Z" fill="#F0F5EF"/>
		<g clip-path="url(#clip0)">
		<path d="M46 157.021H14V178.978H46V157.021Z" fill="white"/>
		<path d="M32 157.021H28V165.941H14V170.058H28V178.978H32V170.058H46V165.941H32V157.021Z" fill="#D80027"/>
		<path d="M38.6113 171.818L45.9998 176.043V171.818H38.6113Z" fill="#0052B4"/>
		<path d="M33.4785 171.818L46.0003 178.978V176.954L37.0195 171.818H33.4785Z" fill="#0052B4"/>
		<path d="M42.6649 178.978L33.4785 173.725V178.978H42.6649Z" fill="#0052B4"/>
		<path d="M33.4785 171.818L46.0003 178.978V176.954L37.0195 171.818H33.4785Z" fill="white"/>
		<path d="M33.4785 171.818L46.0003 178.978V176.954L37.0195 171.818H33.4785Z" fill="#D80027"/>
		<path d="M19.6463 171.818L14 175.047V171.818H19.6463Z" fill="#0052B4"/>
		<path d="M26.5223 172.729V178.978H15.5938L26.5223 172.729Z" fill="#0052B4"/>
		<path d="M22.9808 171.818L14 176.954V178.978L26.5218 171.818H22.9808Z" fill="#D80027"/>
		<path d="M21.3884 164.181L14 159.957V164.181H21.3884Z" fill="#0052B4"/>
		<path d="M26.5218 164.181L14 157.021V159.045L22.9808 164.181H26.5218Z" fill="#0052B4"/>
		<path d="M17.3359 157.021L26.5223 162.274V157.021H17.3359Z" fill="#0052B4"/>
		<path d="M26.5218 164.181L14 157.021V159.045L22.9808 164.181H26.5218Z" fill="white"/>
		<path d="M26.5218 164.181L14 157.021V159.045L22.9808 164.181H26.5218Z" fill="#D80027"/>
		<path d="M40.3535 164.181L45.9998 160.953V164.181H40.3535Z" fill="#0052B4"/>
		<path d="M33.4785 163.27V157.021H44.4071L33.4785 163.27Z" fill="#0052B4"/>
		<path d="M37.0195 164.181L46.0003 159.045V157.021L33.4785 164.181H37.0195Z" fill="#D80027"/>
		</g>
		<path d="M17 158H43V156H17V158ZM45 160V176H47V160H45ZM43 178H17V180H43V178ZM15 176V160H13V176H15ZM17 178C15.8954 178 15 177.105 15 176H13C13 178.209 14.7909 180 17 180V178ZM45 176C45 177.105 44.1046 178 43 178V180C45.2091 180 47 178.209 47 176H45ZM43 158C44.1046 158 45 158.895 45 160H47C47 157.791 45.2091 156 43 156V158ZM17 156C14.7909 156 13 157.791 13 160H15C15 158.895 15.8954 158 17 158V156Z" fill="#D9D8DD"/>
		<path d="M64.2837 163.72V169.725C64.2837 170.783 63.9642 171.614 63.3252 172.219C62.6862 172.824 61.8081 173.127 60.6909 173.127C59.5737 173.127 58.7083 172.822 58.0947 172.213C57.4854 171.604 57.1807 170.766 57.1807 169.699V163.72H58.2598V169.775C58.2598 170.55 58.4714 171.144 58.8945 171.559C59.3177 171.974 59.9398 172.181 60.7607 172.181C61.5436 172.181 62.1466 171.974 62.5698 171.559C62.993 171.14 63.2046 170.541 63.2046 169.763V163.72H64.2837ZM71.3486 173V168.5C71.3486 167.932 71.2196 167.509 70.9614 167.23C70.7033 166.951 70.2992 166.811 69.749 166.811C69.0212 166.811 68.488 167.008 68.1494 167.401C67.8109 167.795 67.6416 168.444 67.6416 169.35V173H66.5879V166.043H67.4448L67.6162 166.995H67.667C67.8828 166.652 68.1854 166.388 68.5747 166.202C68.964 166.011 69.3978 165.916 69.876 165.916C70.7139 165.916 71.3444 166.119 71.7676 166.525C72.1908 166.927 72.4023 167.573 72.4023 168.461V173H71.3486ZM75.627 173H74.5732V166.043H75.627V173ZM74.4844 164.158C74.4844 163.917 74.5436 163.741 74.6621 163.631C74.7806 163.517 74.9287 163.459 75.1064 163.459C75.2757 163.459 75.4217 163.517 75.5444 163.631C75.6672 163.745 75.7285 163.921 75.7285 164.158C75.7285 164.395 75.6672 164.572 75.5444 164.691C75.4217 164.805 75.2757 164.862 75.1064 164.862C74.9287 164.862 74.7806 164.805 74.6621 164.691C74.5436 164.572 74.4844 164.395 74.4844 164.158ZM80.1084 172.257C80.2946 172.257 80.4744 172.245 80.6479 172.219C80.8215 172.19 80.959 172.16 81.0605 172.13V172.937C80.9463 172.992 80.777 173.036 80.5527 173.07C80.3327 173.108 80.1338 173.127 79.9561 173.127C78.6104 173.127 77.9375 172.418 77.9375 171V166.862H76.9409V166.354L77.9375 165.916L78.3818 164.431H78.9912V166.043H81.0098V166.862H78.9912V170.956C78.9912 171.375 79.0907 171.697 79.2896 171.921C79.4884 172.145 79.7614 172.257 80.1084 172.257ZM85.396 173.127C84.3677 173.127 83.5552 172.814 82.9585 172.188C82.366 171.561 82.0698 170.692 82.0698 169.579C82.0698 168.457 82.3449 167.566 82.895 166.906C83.4494 166.246 84.1921 165.916 85.123 165.916C85.9948 165.916 86.6846 166.204 87.1924 166.779C87.7002 167.351 87.9541 168.106 87.9541 169.045V169.712H83.1616C83.1828 170.529 83.388 171.149 83.7773 171.572C84.1709 171.995 84.7231 172.207 85.4341 172.207C86.1831 172.207 86.9237 172.05 87.6558 171.737V172.676C87.2834 172.837 86.93 172.951 86.5957 173.019C86.2656 173.091 85.8657 173.127 85.396 173.127ZM85.1104 166.798C84.5518 166.798 84.1053 166.98 83.771 167.344C83.4409 167.708 83.2463 168.212 83.187 168.855H86.8242C86.8242 168.191 86.6761 167.683 86.3799 167.332C86.0837 166.976 85.6605 166.798 85.1104 166.798ZM94.4922 172.067H94.4351C93.9484 172.774 93.2205 173.127 92.2515 173.127C91.3416 173.127 90.6328 172.816 90.125 172.194C89.6214 171.572 89.3696 170.687 89.3696 169.541C89.3696 168.394 89.6235 167.503 90.1313 166.868C90.6392 166.233 91.3459 165.916 92.2515 165.916C93.1951 165.916 93.9188 166.259 94.4224 166.944H94.5049L94.4604 166.443L94.4351 165.954V163.123H95.4888V173H94.6318L94.4922 172.067ZM92.3848 172.245C93.1042 172.245 93.6247 172.05 93.9463 171.661C94.2721 171.267 94.4351 170.634 94.4351 169.763V169.541C94.4351 168.555 94.27 167.852 93.9399 167.433C93.6141 167.01 93.0915 166.798 92.3721 166.798C91.7542 166.798 91.2803 167.04 90.9502 167.522C90.6243 168 90.4614 168.677 90.4614 169.553C90.4614 170.442 90.6243 171.113 90.9502 171.565C91.276 172.018 91.7542 172.245 92.3848 172.245ZM107.968 173H106.699L103.315 168.5L102.344 169.363V173H101.265V163.72H102.344V168.322L106.553 163.72H107.829L104.096 167.75L107.968 173ZM110.146 173H109.092V166.043H110.146V173ZM109.003 164.158C109.003 163.917 109.062 163.741 109.181 163.631C109.299 163.517 109.447 163.459 109.625 163.459C109.794 163.459 109.94 163.517 110.063 163.631C110.186 163.745 110.247 163.921 110.247 164.158C110.247 164.395 110.186 164.572 110.063 164.691C109.94 164.805 109.794 164.862 109.625 164.862C109.447 164.862 109.299 164.805 109.181 164.691C109.062 164.572 109.003 164.395 109.003 164.158ZM117.141 173V168.5C117.141 167.932 117.012 167.509 116.753 167.23C116.495 166.951 116.091 166.811 115.541 166.811C114.813 166.811 114.28 167.008 113.941 167.401C113.603 167.795 113.434 168.444 113.434 169.35V173H112.38V166.043H113.237L113.408 166.995H113.459C113.675 166.652 113.977 166.388 114.367 166.202C114.756 166.011 115.19 165.916 115.668 165.916C116.506 165.916 117.136 166.119 117.56 166.525C117.983 166.927 118.194 167.573 118.194 168.461V173H117.141ZM126.059 166.043V166.709L124.771 166.862C124.889 167.01 124.995 167.205 125.088 167.446C125.181 167.683 125.228 167.951 125.228 168.252C125.228 168.933 124.995 169.477 124.529 169.883C124.064 170.29 123.425 170.493 122.612 170.493C122.405 170.493 122.21 170.476 122.028 170.442C121.58 170.679 121.355 170.977 121.355 171.337C121.355 171.527 121.434 171.669 121.59 171.762C121.747 171.851 122.016 171.896 122.396 171.896H123.628C124.381 171.896 124.959 172.054 125.361 172.372C125.767 172.689 125.97 173.15 125.97 173.755C125.97 174.526 125.661 175.112 125.043 175.514C124.426 175.92 123.524 176.123 122.339 176.123C121.43 176.123 120.727 175.954 120.232 175.615C119.741 175.277 119.496 174.799 119.496 174.181C119.496 173.757 119.631 173.391 119.902 173.083C120.173 172.774 120.554 172.564 121.044 172.454C120.867 172.374 120.716 172.249 120.594 172.08C120.475 171.91 120.416 171.714 120.416 171.489C120.416 171.235 120.484 171.013 120.619 170.823C120.755 170.632 120.968 170.448 121.26 170.271C120.901 170.122 120.606 169.871 120.378 169.515C120.154 169.16 120.042 168.753 120.042 168.296C120.042 167.535 120.27 166.949 120.727 166.538C121.184 166.123 121.832 165.916 122.669 165.916C123.033 165.916 123.361 165.958 123.653 166.043H126.059ZM120.511 174.168C120.511 174.545 120.67 174.83 120.987 175.025C121.305 175.22 121.76 175.317 122.352 175.317C123.236 175.317 123.89 175.184 124.313 174.917C124.741 174.655 124.955 174.297 124.955 173.844C124.955 173.468 124.838 173.205 124.605 173.057C124.373 172.913 123.935 172.841 123.292 172.841H122.028C121.55 172.841 121.178 172.956 120.911 173.184C120.645 173.413 120.511 173.741 120.511 174.168ZM121.083 168.271C121.083 168.758 121.22 169.126 121.495 169.375C121.77 169.625 122.153 169.75 122.644 169.75C123.672 169.75 124.187 169.251 124.187 168.252C124.187 167.207 123.666 166.684 122.625 166.684C122.13 166.684 121.749 166.817 121.482 167.084C121.216 167.351 121.083 167.746 121.083 168.271ZM132.223 172.067H132.166C131.679 172.774 130.951 173.127 129.982 173.127C129.072 173.127 128.363 172.816 127.855 172.194C127.352 171.572 127.1 170.687 127.1 169.541C127.1 168.394 127.354 167.503 127.862 166.868C128.37 166.233 129.076 165.916 129.982 165.916C130.926 165.916 131.649 166.259 132.153 166.944H132.235L132.191 166.443L132.166 165.954V163.123H133.219V173H132.362L132.223 172.067ZM130.115 172.245C130.835 172.245 131.355 172.05 131.677 171.661C132.003 171.267 132.166 170.634 132.166 169.763V169.541C132.166 168.555 132 167.852 131.67 167.433C131.345 167.01 130.822 166.798 130.103 166.798C129.485 166.798 129.011 167.04 128.681 167.522C128.355 168 128.192 168.677 128.192 169.553C128.192 170.442 128.355 171.113 128.681 171.565C129.007 172.018 129.485 172.245 130.115 172.245ZM141.465 169.515C141.465 170.649 141.179 171.536 140.608 172.175C140.037 172.81 139.247 173.127 138.24 173.127C137.618 173.127 137.066 172.981 136.583 172.689C136.101 172.397 135.729 171.978 135.466 171.432C135.204 170.886 135.073 170.247 135.073 169.515C135.073 168.381 135.356 167.499 135.923 166.868C136.49 166.233 137.278 165.916 138.285 165.916C139.258 165.916 140.03 166.24 140.602 166.887C141.177 167.535 141.465 168.411 141.465 169.515ZM136.165 169.515C136.165 170.404 136.342 171.081 136.698 171.546C137.053 172.012 137.576 172.245 138.266 172.245C138.955 172.245 139.478 172.014 139.833 171.553C140.193 171.087 140.373 170.408 140.373 169.515C140.373 168.631 140.193 167.96 139.833 167.503C139.478 167.042 138.951 166.811 138.253 166.811C137.563 166.811 137.043 167.037 136.691 167.49C136.34 167.943 136.165 168.618 136.165 169.515ZM152.186 173V168.474C152.186 167.92 152.068 167.505 151.831 167.23C151.594 166.951 151.225 166.811 150.726 166.811C150.07 166.811 149.586 166.999 149.272 167.376C148.959 167.753 148.803 168.332 148.803 169.115V173H147.749V168.474C147.749 167.92 147.631 167.505 147.394 167.23C147.157 166.951 146.786 166.811 146.283 166.811C145.623 166.811 145.138 167.01 144.829 167.408C144.524 167.801 144.372 168.449 144.372 169.35V173H143.318V166.043H144.175L144.347 166.995H144.397C144.596 166.657 144.876 166.392 145.235 166.202C145.599 166.011 146.006 165.916 146.454 165.916C147.542 165.916 148.253 166.31 148.587 167.097H148.638C148.845 166.733 149.146 166.445 149.539 166.233C149.933 166.022 150.381 165.916 150.885 165.916C151.672 165.916 152.26 166.119 152.649 166.525C153.043 166.927 153.24 167.573 153.24 168.461V173H152.186Z" fill="#494B4D"/>
		<rect x="333" y="170" width="3" height="4" rx="1" fill="#E0B300"/>
		<rect x="338" y="168" width="3" height="6" rx="1" fill="#E0B300"/>
		<rect x="343" y="166" width="3" height="8" rx="1" fill="#E0B300"/>
		<rect x="348" y="164" width="3" height="10" rx="1" fill="#CED9DF"/>
		<rect x="353" y="162" width="3" height="12" rx="1" fill="#CED9DF"/>

		<path d="M3 193C3 190.791 4.79086 189 7 189H360C362.209 189 364 190.791 364 193V227C364 229.209 362.209 231 360 231H7C4.79086 231 3 229.209 3 227V193Z" fill="inherit"/>

		<path d="M46 199H14V221H46V199Z" fill="white"/>
		<path d="M46 201.75H14V204.499H46V201.75Z" fill="#D80027"/>
		<path d="M46 207.25H14V210H46V207.25Z" fill="#D80027"/>
		<path d="M46 212.749H14V215.499H46V212.749Z" fill="#D80027"/>
		<path d="M46 218.25H14V220.999H46V218.25Z" fill="#D80027"/>
		<path d="M30 199H14V210.846H30V199Z" fill="#2E52B2"/>
		<path d="M20.2396 203.853L19.9819 204.67H19.1484L19.8229 205.175L19.5652 205.993L20.2396 205.488L20.9136 205.993L20.656 205.175L21.3304 204.67H20.4969L20.2396 203.853Z" fill="#F0F0F0"/>
		<path d="M20.4969 207.62L20.2396 206.803L19.9819 207.62H19.1484L19.8229 208.125L19.5652 208.943L20.2396 208.438L20.9136 208.943L20.656 208.125L21.3304 207.62H20.4969Z" fill="#F0F0F0"/>
		<path d="M16.9735 207.62L16.7162 206.803L16.4585 207.62H15.625L16.2994 208.125L16.0417 208.943L16.7162 208.438L17.3902 208.943L17.1326 208.125L17.8069 207.62H16.9735Z" fill="#F0F0F0"/>
		<path d="M16.7162 203.853L16.4585 204.67H15.625L16.2994 205.175L16.0417 205.993L16.7162 205.488L17.3902 205.993L17.1326 205.175L17.8069 204.67H16.9735L16.7162 203.853Z" fill="#F0F0F0"/>
		<path d="M20.2396 200.903L19.9819 201.72H19.1484L19.8229 202.225L19.5652 203.043L20.2396 202.538L20.9136 203.043L20.656 202.225L21.3304 201.72H20.4969L20.2396 200.903Z" fill="#F0F0F0"/>
		<path d="M16.7162 200.903L16.4585 201.72H15.625L16.2994 202.225L16.0417 203.043L16.7162 202.538L17.3902 203.043L17.1326 202.225L17.8069 201.72H16.9735L16.7162 200.903Z" fill="#F0F0F0"/>
		<path d="M23.761 203.853L23.5034 204.67H22.6699L23.3443 205.175L23.0867 205.993L23.761 205.488L24.4352 205.993L24.1775 205.175L24.8519 204.67H24.0184L23.761 203.853Z" fill="#F0F0F0"/>
		<path d="M24.0184 207.62L23.761 206.803L23.5034 207.62H22.6699L23.3443 208.125L23.0867 208.943L23.761 208.438L24.4352 208.943L24.1775 208.125L24.8519 207.62H24.0184Z" fill="#F0F0F0"/>
		<path d="M27.5418 207.62L27.2845 206.803L27.0268 207.62H26.1934L26.8677 208.125L26.61 208.943L27.2845 208.438L27.9585 208.943L27.7009 208.125L28.3753 207.62H27.5418Z" fill="#F0F0F0"/>
		<path d="M27.2845 203.853L27.0268 204.67H26.1934L26.8677 205.175L26.61 205.993L27.2845 205.488L27.9585 205.993L27.7009 205.175L28.3753 204.67H27.5418L27.2845 203.853Z" fill="#F0F0F0"/>
		<path d="M23.761 200.903L23.5034 201.72H22.6699L23.3443 202.225L23.0867 203.043L23.761 202.538L24.4352 203.043L24.1775 202.225L24.8519 201.72H24.0184L23.761 200.903Z" fill="#F0F0F0"/>
		<path d="M27.2845 200.903L27.0268 201.72H26.1934L26.8677 202.225L26.61 203.043L27.2845 202.538L27.9585 203.043L27.7009 202.225L28.3753 201.72H27.5418L27.2845 200.903Z" fill="#F0F0F0"/>
		<path d="M17 200H43V198H17V200ZM45 202V218H47V202H45ZM43 220H17V222H43V220ZM15 218V202H13V218H15ZM17 220C15.8954 220 15 219.105 15 218H13C13 220.209 14.7909 222 17 222V220ZM45 218C45 219.105 44.1046 220 43 220V222C45.2091 222 47 220.209 47 218H45ZM43 200C44.1046 200 45 200.895 45 202H47C47 199.791 45.2091 198 43 198V200ZM17 198C14.7909 198 13 199.791 13 202H15C15 200.895 15.8954 200 17 200V198Z" fill="#D9D8DD"/>
		<path d="M64.2837 205.72V211.725C64.2837 212.783 63.9642 213.614 63.3252 214.219C62.6862 214.824 61.8081 215.127 60.6909 215.127C59.5737 215.127 58.7083 214.822 58.0947 214.213C57.4854 213.604 57.1807 212.766 57.1807 211.699V205.72H58.2598V211.775C58.2598 212.55 58.4714 213.144 58.8945 213.559C59.3177 213.974 59.9398 214.181 60.7607 214.181C61.5436 214.181 62.1466 213.974 62.5698 213.559C62.993 213.14 63.2046 212.541 63.2046 211.763V205.72H64.2837ZM71.3486 215V210.5C71.3486 209.932 71.2196 209.509 70.9614 209.23C70.7033 208.951 70.2992 208.811 69.749 208.811C69.0212 208.811 68.488 209.008 68.1494 209.401C67.8109 209.795 67.6416 210.444 67.6416 211.35V215H66.5879V208.043H67.4448L67.6162 208.995H67.667C67.8828 208.652 68.1854 208.388 68.5747 208.202C68.964 208.011 69.3978 207.916 69.876 207.916C70.7139 207.916 71.3444 208.119 71.7676 208.525C72.1908 208.927 72.4023 209.573 72.4023 210.461V215H71.3486ZM75.627 215H74.5732V208.043H75.627V215ZM74.4844 206.158C74.4844 205.917 74.5436 205.741 74.6621 205.631C74.7806 205.517 74.9287 205.459 75.1064 205.459C75.2757 205.459 75.4217 205.517 75.5444 205.631C75.6672 205.745 75.7285 205.921 75.7285 206.158C75.7285 206.395 75.6672 206.572 75.5444 206.691C75.4217 206.805 75.2757 206.862 75.1064 206.862C74.9287 206.862 74.7806 206.805 74.6621 206.691C74.5436 206.572 74.4844 206.395 74.4844 206.158ZM80.1084 214.257C80.2946 214.257 80.4744 214.245 80.6479 214.219C80.8215 214.19 80.959 214.16 81.0605 214.13V214.937C80.9463 214.992 80.777 215.036 80.5527 215.07C80.3327 215.108 80.1338 215.127 79.9561 215.127C78.6104 215.127 77.9375 214.418 77.9375 213V208.862H76.9409V208.354L77.9375 207.916L78.3818 206.431H78.9912V208.043H81.0098V208.862H78.9912V212.956C78.9912 213.375 79.0907 213.697 79.2896 213.921C79.4884 214.145 79.7614 214.257 80.1084 214.257ZM85.396 215.127C84.3677 215.127 83.5552 214.814 82.9585 214.188C82.366 213.561 82.0698 212.692 82.0698 211.579C82.0698 210.457 82.3449 209.566 82.895 208.906C83.4494 208.246 84.1921 207.916 85.123 207.916C85.9948 207.916 86.6846 208.204 87.1924 208.779C87.7002 209.351 87.9541 210.106 87.9541 211.045V211.712H83.1616C83.1828 212.529 83.388 213.149 83.7773 213.572C84.1709 213.995 84.7231 214.207 85.4341 214.207C86.1831 214.207 86.9237 214.05 87.6558 213.737V214.676C87.2834 214.837 86.93 214.951 86.5957 215.019C86.2656 215.091 85.8657 215.127 85.396 215.127ZM85.1104 208.798C84.5518 208.798 84.1053 208.98 83.771 209.344C83.4409 209.708 83.2463 210.212 83.187 210.855H86.8242C86.8242 210.191 86.6761 209.683 86.3799 209.332C86.0837 208.976 85.6605 208.798 85.1104 208.798ZM94.4922 214.067H94.4351C93.9484 214.774 93.2205 215.127 92.2515 215.127C91.3416 215.127 90.6328 214.816 90.125 214.194C89.6214 213.572 89.3696 212.687 89.3696 211.541C89.3696 210.394 89.6235 209.503 90.1313 208.868C90.6392 208.233 91.3459 207.916 92.2515 207.916C93.1951 207.916 93.9188 208.259 94.4224 208.944H94.5049L94.4604 208.443L94.4351 207.954V205.123H95.4888V215H94.6318L94.4922 214.067ZM92.3848 214.245C93.1042 214.245 93.6247 214.05 93.9463 213.661C94.2721 213.267 94.4351 212.634 94.4351 211.763V211.541C94.4351 210.555 94.27 209.852 93.9399 209.433C93.6141 209.01 93.0915 208.798 92.3721 208.798C91.7542 208.798 91.2803 209.04 90.9502 209.522C90.6243 210 90.4614 210.677 90.4614 211.553C90.4614 212.442 90.6243 213.113 90.9502 213.565C91.276 214.018 91.7542 214.245 92.3848 214.245ZM106.502 212.531C106.502 213.347 106.206 213.984 105.613 214.441C105.021 214.898 104.217 215.127 103.201 215.127C102.101 215.127 101.255 214.985 100.662 214.702V213.661C101.043 213.821 101.458 213.948 101.906 214.042C102.355 214.135 102.799 214.181 103.239 214.181C103.959 214.181 104.5 214.046 104.864 213.775C105.228 213.5 105.41 213.119 105.41 212.632C105.41 212.311 105.345 212.048 105.213 211.845C105.086 211.638 104.871 211.447 104.566 211.274C104.265 211.1 103.806 210.904 103.188 210.684C102.325 210.375 101.707 210.009 101.335 209.585C100.967 209.162 100.783 208.61 100.783 207.929C100.783 207.214 101.051 206.644 101.589 206.221C102.126 205.798 102.837 205.586 103.722 205.586C104.644 205.586 105.493 205.756 106.267 206.094L105.931 207.034C105.165 206.712 104.42 206.551 103.696 206.551C103.125 206.551 102.679 206.674 102.357 206.919C102.035 207.165 101.875 207.506 101.875 207.941C101.875 208.263 101.934 208.528 102.052 208.735C102.171 208.938 102.37 209.126 102.649 209.3C102.932 209.469 103.364 209.657 103.944 209.865C104.917 210.212 105.586 210.584 105.95 210.982C106.318 211.38 106.502 211.896 106.502 212.531ZM110.488 214.257C110.674 214.257 110.854 214.245 111.028 214.219C111.201 214.19 111.339 214.16 111.44 214.13V214.937C111.326 214.992 111.157 215.036 110.933 215.07C110.713 215.108 110.514 215.127 110.336 215.127C108.99 215.127 108.317 214.418 108.317 213V208.862H107.321V208.354L108.317 207.916L108.762 206.431H109.371V208.043H111.39V208.862H109.371V212.956C109.371 213.375 109.471 213.697 109.669 213.921C109.868 214.145 110.141 214.257 110.488 214.257ZM117.115 215L116.906 214.01H116.855C116.508 214.446 116.161 214.742 115.814 214.898C115.471 215.051 115.042 215.127 114.525 215.127C113.836 215.127 113.294 214.949 112.9 214.594C112.511 214.238 112.316 213.733 112.316 213.077C112.316 211.672 113.44 210.935 115.687 210.868L116.868 210.83V210.398C116.868 209.852 116.749 209.45 116.512 209.192C116.279 208.93 115.905 208.798 115.389 208.798C114.809 208.798 114.153 208.976 113.421 209.332L113.097 208.525C113.44 208.339 113.814 208.193 114.221 208.087C114.631 207.982 115.042 207.929 115.452 207.929C116.282 207.929 116.895 208.113 117.293 208.481C117.695 208.849 117.896 209.439 117.896 210.252V215H117.115ZM114.735 214.257C115.391 214.257 115.905 214.077 116.277 213.718C116.654 213.358 116.842 212.854 116.842 212.207V211.579L115.789 211.623C114.951 211.653 114.346 211.784 113.973 212.017C113.605 212.245 113.421 212.603 113.421 213.089C113.421 213.47 113.535 213.76 113.764 213.959C113.996 214.158 114.32 214.257 114.735 214.257ZM122.32 214.257C122.507 214.257 122.686 214.245 122.86 214.219C123.033 214.19 123.171 214.16 123.272 214.13V214.937C123.158 214.992 122.989 215.036 122.765 215.07C122.545 215.108 122.346 215.127 122.168 215.127C120.822 215.127 120.149 214.418 120.149 213V208.862H119.153V208.354L120.149 207.916L120.594 206.431H121.203V208.043H123.222V208.862H121.203V212.956C121.203 213.375 121.303 213.697 121.501 213.921C121.7 214.145 121.973 214.257 122.32 214.257ZM127.608 215.127C126.58 215.127 125.767 214.814 125.17 214.188C124.578 213.561 124.282 212.692 124.282 211.579C124.282 210.457 124.557 209.566 125.107 208.906C125.661 208.246 126.404 207.916 127.335 207.916C128.207 207.916 128.896 208.204 129.404 208.779C129.912 209.351 130.166 210.106 130.166 211.045V211.712H125.374C125.395 212.529 125.6 213.149 125.989 213.572C126.383 213.995 126.935 214.207 127.646 214.207C128.395 214.207 129.136 214.05 129.868 213.737V214.676C129.495 214.837 129.142 214.951 128.808 215.019C128.478 215.091 128.078 215.127 127.608 215.127ZM127.322 208.798C126.764 208.798 126.317 208.98 125.983 209.344C125.653 209.708 125.458 210.212 125.399 210.855H129.036C129.036 210.191 128.888 209.683 128.592 209.332C128.296 208.976 127.872 208.798 127.322 208.798ZM136.457 213.102C136.457 213.75 136.215 214.249 135.733 214.6C135.25 214.951 134.573 215.127 133.702 215.127C132.779 215.127 132.06 214.981 131.543 214.689V213.711C131.878 213.881 132.235 214.014 132.616 214.111C133.001 214.209 133.372 214.257 133.727 214.257C134.277 214.257 134.7 214.171 134.997 213.997C135.293 213.819 135.441 213.551 135.441 213.191C135.441 212.92 135.322 212.689 135.085 212.499C134.853 212.304 134.396 212.076 133.714 211.813C133.067 211.572 132.606 211.363 132.331 211.185C132.06 211.003 131.857 210.798 131.721 210.569C131.59 210.341 131.524 210.068 131.524 209.75C131.524 209.183 131.755 208.737 132.216 208.411C132.678 208.081 133.31 207.916 134.114 207.916C134.863 207.916 135.595 208.068 136.311 208.373L135.936 209.23C135.238 208.942 134.605 208.798 134.038 208.798C133.539 208.798 133.162 208.877 132.908 209.033C132.654 209.19 132.527 209.406 132.527 209.681C132.527 209.867 132.574 210.026 132.667 210.157C132.764 210.288 132.919 210.413 133.13 210.531C133.342 210.65 133.748 210.821 134.349 211.045C135.174 211.346 135.731 211.648 136.019 211.953C136.311 212.258 136.457 212.641 136.457 213.102Z" fill="#494B4D"/>
		<rect x="333" y="212" width="3" height="4" rx="1" fill="#E0B300"/>
		<rect x="338" y="210" width="3" height="6" rx="1" fill="#E0B300"/>
		<rect x="343" y="208" width="3" height="8" rx="1" fill="#E0B300"/>
		<rect x="348" y="206" width="3" height="10" rx="1" fill="#CED9DF"/>
		<rect x="353" y="204" width="3" height="12" rx="1" fill="#CED9DF"/>
		<path d="M3 235C3 232.791 4.79086 231 7 231H360C362.209 231 364 232.791 364 235V269C364 271.209 362.209 273 360 273H7C4.79086 273 3 271.209 3 269V235Z" fill="white"/>
		<path d="M46 241.333H14V263H46V241.333Z" fill="#0052B4"/>
		<path d="M27.9614 252.165C27.9784 252.146 27.9953 252.127 28.0122 252.108C27.9953 252.127 27.9781 252.146 27.9609 252.165H27.9614Z" fill="white"/>
		<path d="M25.8255 254.828L26.5104 256.282L28.0571 255.919L27.3644 257.37L28.6082 258.371L27.0597 258.726L27.064 260.338L25.8255 259.329L24.5872 260.338L24.5915 258.726L23.043 258.371L24.2867 257.37L23.594 255.919L25.1407 256.282L25.8255 254.828Z" fill="white"/>
		<path d="M38.1924 256.635L38.5191 257.328L39.2568 257.155L38.9264 257.847L39.5197 258.325L38.781 258.494L38.783 259.263L38.1924 258.782L37.6018 259.263L37.6038 258.494L36.8652 258.325L37.4584 257.847L37.1281 257.155L37.8658 257.328L38.1924 256.635Z" fill="white"/>
		<path d="M35.1534 249.275L35.4801 249.969L36.2178 249.796L35.8874 250.488L36.4806 250.966L35.742 251.135L35.744 251.904L35.1534 251.422L34.5627 251.904L34.5648 251.135L33.8262 250.966L34.4194 250.488L34.0891 249.796L34.8267 249.969L35.1534 249.275Z" fill="white"/>
		<path d="M38.1924 245.07L38.5191 245.764L39.2568 245.59L38.9264 246.282L39.5196 246.76L38.781 246.929L38.783 247.698L38.1924 247.217L37.6018 247.698L37.6038 246.929L36.8652 246.76L37.4584 246.282L37.1281 245.59L37.8658 245.764L38.1924 245.07Z" fill="white"/>
		<path d="M40.8467 248.224L41.1734 248.918L41.911 248.744L41.5808 249.436L42.174 249.914L41.4353 250.083L41.4374 250.852L40.8467 250.371L40.2561 250.852L40.2581 250.083L39.5195 249.914L40.1127 249.436L39.7823 248.744L40.52 248.918L40.8467 248.224Z" fill="white"/>
		<path d="M38.9479 251.904L39.2048 252.707H40.0362L39.3636 253.203L39.6206 254.006L38.9479 253.51L38.2751 254.006L38.5321 253.203L37.8594 252.707H38.6909L38.9479 251.904Z" fill="white"/>
		<path d="M30 241.333V243.273L27.1771 244.866H30V248.634H26.3061L30 250.718V252.166H28.3325L23.7391 249.575V252.166H20.2609V249.083L14.7965 252.166H14V250.227L16.8229 248.634H14V244.866H17.6939L14 242.781V241.333H15.6675L20.2609 243.925V241.333H23.7391V244.416L29.2035 241.333H30Z" fill="white"/>
		<path d="M23 241.333H21V245.734H14V247.765H21V252.166H23V247.765H30V245.734H23V241.333Z" fill="#D80027"/>
		<path d="M23.7383 248.634L29.9992 252.166V251.167L25.5087 248.634H23.7383Z" fill="#0052B4"/>
		<path d="M23.7383 248.634L29.9992 252.166V251.167L25.5087 248.634H23.7383Z" fill="white"/>
		<path d="M23.7383 248.634L29.9992 252.166V251.167L25.5087 248.634H23.7383Z" fill="#D80027"/>
		<path d="M18.4904 248.634L14 251.167V252.166L20.2609 248.634H18.4904Z" fill="#D80027"/>
		<path d="M20.2609 244.866L14 241.333V242.332L18.4904 244.866H20.2609Z" fill="#0052B4"/>
		<path d="M20.2609 244.866L14 241.333V242.332L18.4904 244.866H20.2609Z" fill="white"/>
		<path d="M20.2609 244.866L14 241.333V242.332L18.4904 244.866H20.2609Z" fill="#D80027"/>
		<path d="M25.5088 244.866L29.9992 242.332V241.333L23.7383 244.866H25.5088Z" fill="#D80027"/>
		<path d="M17 242H43V240H17V242ZM45 244V260H47V244H45ZM43 262H17V264H43V262ZM15 260V244H13V260H15ZM17 262C15.8954 262 15 261.105 15 260H13C13 262.209 14.7909 264 17 264V262ZM45 260C45 261.105 44.1046 262 43 262V264C45.2091 264 47 262.209 47 260H45ZM43 242C44.1046 242 45 242.895 45 244H47C47 241.791 45.2091 240 43 240V242ZM17 240C14.7909 240 13 241.791 13 244H15C15 242.895 15.8954 242 17 242V240Z" fill="#D9D8DD"/>
		<path d="M63.1094 257L61.9541 254.048H58.2344L57.0918 257H56L59.6689 247.682H60.5767L64.2266 257H63.1094ZM61.6177 253.077L60.5386 250.202C60.3989 249.838 60.255 249.391 60.1069 248.862C60.0138 249.269 59.8805 249.715 59.707 250.202L58.6152 253.077H61.6177ZM66.334 250.043V254.556C66.334 255.123 66.4631 255.546 66.7212 255.826C66.9793 256.105 67.3835 256.245 67.9336 256.245C68.6615 256.245 69.1925 256.046 69.5269 255.648C69.8654 255.25 70.0347 254.601 70.0347 253.699V250.043H71.0884V257H70.2188L70.0664 256.067H70.0093C69.7935 256.41 69.493 256.672 69.1079 256.854C68.7271 257.036 68.2912 257.127 67.8003 257.127C66.9539 257.127 66.3192 256.926 65.896 256.524C65.4771 256.122 65.2676 255.479 65.2676 254.594V250.043H66.334ZM77.8169 255.102C77.8169 255.75 77.5757 256.249 77.0933 256.6C76.6108 256.951 75.9338 257.127 75.062 257.127C74.1395 257.127 73.4201 256.981 72.9038 256.689V255.711C73.2381 255.881 73.5957 256.014 73.9766 256.111C74.3617 256.209 74.7319 256.257 75.0874 256.257C75.6375 256.257 76.0607 256.171 76.3569 255.997C76.6532 255.819 76.8013 255.551 76.8013 255.191C76.8013 254.92 76.6828 254.689 76.4458 254.499C76.2131 254.304 75.756 254.076 75.0747 253.813C74.4272 253.572 73.966 253.363 73.6909 253.185C73.4201 253.003 73.217 252.798 73.0815 252.569C72.9504 252.341 72.8848 252.068 72.8848 251.75C72.8848 251.183 73.1154 250.737 73.5767 250.411C74.0379 250.081 74.6706 249.916 75.4746 249.916C76.2236 249.916 76.9557 250.068 77.6709 250.373L77.2964 251.23C76.5981 250.942 75.9655 250.798 75.3984 250.798C74.8991 250.798 74.5225 250.877 74.2686 251.033C74.0146 251.19 73.8877 251.406 73.8877 251.681C73.8877 251.867 73.9342 252.026 74.0273 252.157C74.1247 252.288 74.2791 252.413 74.4907 252.531C74.7023 252.65 75.1086 252.821 75.7095 253.045C76.5347 253.346 77.0911 253.648 77.3789 253.953C77.6709 254.258 77.8169 254.641 77.8169 255.102ZM81.7842 256.257C81.9704 256.257 82.1502 256.245 82.3237 256.219C82.4972 256.19 82.6348 256.16 82.7363 256.13V256.937C82.6221 256.992 82.4528 257.036 82.2285 257.07C82.0085 257.108 81.8096 257.127 81.6318 257.127C80.2861 257.127 79.6133 256.418 79.6133 255V250.862H78.6167V250.354L79.6133 249.916L80.0576 248.431H80.667V250.043H82.6855V250.862H80.667V254.956C80.667 255.375 80.7664 255.697 80.9653 255.921C81.1642 256.145 81.4372 256.257 81.7842 256.257ZM87.3066 249.916C87.6156 249.916 87.8927 249.941 88.1382 249.992L87.9922 250.97C87.7044 250.906 87.4505 250.875 87.2305 250.875C86.6676 250.875 86.1852 251.103 85.7832 251.56C85.3854 252.017 85.1865 252.586 85.1865 253.268V257H84.1328V250.043H85.0024L85.123 251.332H85.1738C85.432 250.879 85.743 250.53 86.1069 250.284C86.4709 250.039 86.8708 249.916 87.3066 249.916ZM93.4512 257L93.2417 256.01H93.1909C92.8439 256.446 92.4969 256.742 92.1499 256.898C91.8071 257.051 91.3776 257.127 90.8613 257.127C90.1715 257.127 89.6299 256.949 89.2363 256.594C88.847 256.238 88.6523 255.733 88.6523 255.077C88.6523 253.672 89.7759 252.935 92.0229 252.868L93.2036 252.83V252.398C93.2036 251.852 93.0851 251.45 92.8481 251.192C92.6154 250.93 92.2409 250.798 91.7246 250.798C91.1449 250.798 90.4889 250.976 89.7568 251.332L89.4331 250.525C89.7759 250.339 90.1504 250.193 90.5566 250.087C90.9671 249.982 91.3776 249.929 91.7881 249.929C92.6175 249.929 93.2311 250.113 93.6289 250.481C94.0309 250.849 94.2319 251.439 94.2319 252.252V257H93.4512ZM91.0708 256.257C91.7267 256.257 92.2409 256.077 92.6133 255.718C92.9899 255.358 93.1782 254.854 93.1782 254.207V253.579L92.1245 253.623C91.2866 253.653 90.6815 253.784 90.3091 254.017C89.9409 254.245 89.7568 254.603 89.7568 255.089C89.7568 255.47 89.8711 255.76 90.0996 255.959C90.3324 256.158 90.6561 256.257 91.0708 256.257ZM97.4629 257H96.4092V247.123H97.4629V257ZM100.751 257H99.6973V250.043H100.751V257ZM99.6084 248.158C99.6084 247.917 99.6676 247.741 99.7861 247.631C99.9046 247.517 100.053 247.459 100.23 247.459C100.4 247.459 100.546 247.517 100.668 247.631C100.791 247.745 100.853 247.921 100.853 248.158C100.853 248.395 100.791 248.572 100.668 248.691C100.546 248.805 100.4 248.862 100.23 248.862C100.053 248.862 99.9046 248.805 99.7861 248.691C99.6676 248.572 99.6084 248.395 99.6084 248.158ZM107.264 257L107.054 256.01H107.003C106.656 256.446 106.309 256.742 105.962 256.898C105.62 257.051 105.19 257.127 104.674 257.127C103.984 257.127 103.442 256.949 103.049 256.594C102.66 256.238 102.465 255.733 102.465 255.077C102.465 253.672 103.588 252.935 105.835 252.868L107.016 252.83V252.398C107.016 251.852 106.898 251.45 106.661 251.192C106.428 250.93 106.053 250.798 105.537 250.798C104.957 250.798 104.301 250.976 103.569 251.332L103.246 250.525C103.588 250.339 103.963 250.193 104.369 250.087C104.78 249.982 105.19 249.929 105.601 249.929C106.43 249.929 107.044 250.113 107.441 250.481C107.843 250.849 108.044 251.439 108.044 252.252V257H107.264ZM104.883 256.257C105.539 256.257 106.053 256.077 106.426 255.718C106.802 255.358 106.991 254.854 106.991 254.207V253.579L105.937 253.623C105.099 253.653 104.494 253.784 104.122 254.017C103.753 254.245 103.569 254.603 103.569 255.089C103.569 255.47 103.684 255.76 103.912 255.959C104.145 256.158 104.469 256.257 104.883 256.257ZM113.002 253.439C113.002 252.318 113.165 251.268 113.491 250.291C113.821 249.313 114.295 248.456 114.913 247.72H115.941C115.332 248.536 114.872 249.434 114.563 250.411C114.259 251.389 114.106 252.394 114.106 253.426C114.106 254.442 114.263 255.434 114.576 256.403C114.889 257.372 115.34 258.257 115.928 259.057H114.913C114.291 258.337 113.817 257.497 113.491 256.537C113.165 255.576 113.002 254.543 113.002 253.439ZM123.488 250.424C123.488 251.363 123.167 252.087 122.523 252.595C121.884 253.098 120.968 253.35 119.775 253.35H118.683V257H117.604V247.72H120.01C122.329 247.72 123.488 248.621 123.488 250.424ZM118.683 252.423H119.654C120.611 252.423 121.303 252.269 121.73 251.96C122.157 251.651 122.371 251.156 122.371 250.475C122.371 249.861 122.17 249.404 121.768 249.104C121.366 248.803 120.74 248.653 119.889 248.653H118.683V252.423ZM128.452 249.916C128.761 249.916 129.038 249.941 129.284 249.992L129.138 250.97C128.85 250.906 128.596 250.875 128.376 250.875C127.813 250.875 127.331 251.103 126.929 251.56C126.531 252.017 126.332 252.586 126.332 253.268V257H125.278V250.043H126.148L126.269 251.332H126.319C126.577 250.879 126.889 250.53 127.252 250.284C127.616 250.039 128.016 249.916 128.452 249.916ZM133.257 257.127C132.229 257.127 131.417 256.814 130.82 256.188C130.227 255.561 129.931 254.692 129.931 253.579C129.931 252.457 130.206 251.566 130.756 250.906C131.311 250.246 132.053 249.916 132.984 249.916C133.856 249.916 134.546 250.204 135.054 250.779C135.562 251.351 135.815 252.106 135.815 253.045V253.712H131.023C131.044 254.529 131.249 255.149 131.639 255.572C132.032 255.995 132.584 256.207 133.295 256.207C134.044 256.207 134.785 256.05 135.517 255.737V256.676C135.145 256.837 134.791 256.951 134.457 257.019C134.127 257.091 133.727 257.127 133.257 257.127ZM132.972 250.798C132.413 250.798 131.967 250.98 131.632 251.344C131.302 251.708 131.108 252.212 131.048 252.855H134.686C134.686 252.191 134.537 251.683 134.241 251.332C133.945 250.976 133.522 250.798 132.972 250.798ZM146.486 257V252.474C146.486 251.92 146.367 251.505 146.13 251.23C145.893 250.951 145.525 250.811 145.026 250.811C144.37 250.811 143.885 250.999 143.572 251.376C143.259 251.753 143.103 252.332 143.103 253.115V257H142.049V252.474C142.049 251.92 141.93 251.505 141.693 251.23C141.456 250.951 141.086 250.811 140.583 250.811C139.922 250.811 139.438 251.01 139.129 251.408C138.824 251.801 138.672 252.449 138.672 253.35V257H137.618V250.043H138.475L138.646 250.995H138.697C138.896 250.657 139.175 250.392 139.535 250.202C139.899 250.011 140.305 249.916 140.754 249.916C141.841 249.916 142.552 250.31 142.887 251.097H142.938C143.145 250.733 143.445 250.445 143.839 250.233C144.232 250.022 144.681 249.916 145.185 249.916C145.972 249.916 146.56 250.119 146.949 250.525C147.343 250.927 147.54 251.573 147.54 252.461V257H146.486ZM150.771 257H149.717V250.043H150.771V257ZM149.628 248.158C149.628 247.917 149.687 247.741 149.806 247.631C149.924 247.517 150.072 247.459 150.25 247.459C150.419 247.459 150.565 247.517 150.688 247.631C150.811 247.745 150.872 247.921 150.872 248.158C150.872 248.395 150.811 248.572 150.688 248.691C150.565 248.805 150.419 248.862 150.25 248.862C150.072 248.862 149.924 248.805 149.806 248.691C149.687 248.572 149.628 248.395 149.628 248.158ZM153.995 250.043V254.556C153.995 255.123 154.124 255.546 154.382 255.826C154.64 256.105 155.045 256.245 155.595 256.245C156.323 256.245 156.854 256.046 157.188 255.648C157.527 255.25 157.696 254.601 157.696 253.699V250.043H158.75V257H157.88L157.728 256.067H157.67C157.455 256.41 157.154 256.672 156.769 256.854C156.388 257.036 155.952 257.127 155.461 257.127C154.615 257.127 153.98 256.926 153.557 256.524C153.138 256.122 152.929 255.479 152.929 254.594V250.043H153.995ZM169.858 257V252.474C169.858 251.92 169.739 251.505 169.502 251.23C169.265 250.951 168.897 250.811 168.398 250.811C167.742 250.811 167.257 250.999 166.944 251.376C166.631 251.753 166.475 252.332 166.475 253.115V257H165.421V252.474C165.421 251.92 165.302 251.505 165.065 251.23C164.828 250.951 164.458 250.811 163.955 250.811C163.294 250.811 162.81 251.01 162.501 251.408C162.196 251.801 162.044 252.449 162.044 253.35V257H160.99V250.043H161.847L162.019 250.995H162.069C162.268 250.657 162.548 250.392 162.907 250.202C163.271 250.011 163.677 249.916 164.126 249.916C165.214 249.916 165.924 250.31 166.259 251.097H166.31C166.517 250.733 166.817 250.445 167.211 250.233C167.604 250.022 168.053 249.916 168.557 249.916C169.344 249.916 169.932 250.119 170.321 250.525C170.715 250.927 170.912 251.573 170.912 252.461V257H169.858ZM175.298 253.439C175.298 254.552 175.133 255.589 174.803 256.549C174.477 257.51 174.005 258.346 173.387 259.057H172.372C172.96 258.261 173.41 257.379 173.724 256.41C174.037 255.436 174.193 254.442 174.193 253.426C174.193 252.394 174.039 251.389 173.73 250.411C173.425 249.434 172.968 248.536 172.359 247.72H173.387C174.009 248.46 174.483 249.321 174.809 250.303C175.135 251.281 175.298 252.326 175.298 253.439Z" fill="#494B4D"/>
		<rect x="333" y="254" width="3" height="4" rx="1" fill="#3B9946"/>
		<rect x="338" y="252" width="3" height="6" rx="1" fill="#3B9946"/>
		<rect x="343" y="250" width="3" height="8" rx="1" fill="#3B9946"/>
		<rect x="348" y="248" width="3" height="10" rx="1" fill="#3B9946"/>
		<rect x="353" y="246" width="3" height="12" rx="1" fill="#3B9946"/>
		<path d="M3 277C3 274.791 4.79086 273 7 273H360C362.209 273 364 274.791 364 277V311C364 313.209 362.209 315 360 315H7C4.79086 315 3 313.209 3 311V277Z" fill="white"/>
		<path d="M46 283H14V305H46V283Z" fill="white"/>
		<path d="M46 283H14V290.333H46V283Z" fill="#D80027"/>
		<path d="M46 297.667H14V305H46V297.667Z" fill="#D80027"/>
		<path d="M17 284H43V282H17V284ZM45 286V302H47V286H45ZM43 304H17V306H43V304ZM15 302V286H13V302H15ZM17 304C15.8954 304 15 303.105 15 302H13C13 304.209 14.7909 306 17 306V304ZM45 302C45 303.105 44.1046 304 43 304V306C45.2091 306 47 304.209 47 302H45ZM43 284C44.1046 284 45 284.895 45 286H47C47 283.791 45.2091 282 43 282V284ZM17 282C14.7909 282 13 283.791 13 286H15C15 284.895 15.8954 284 17 284V282Z" fill="#D9D8DD"/>
		<path d="M63.1094 299L61.9541 296.048H58.2344L57.0918 299H56L59.6689 289.682H60.5767L64.2266 299H63.1094ZM61.6177 295.077L60.5386 292.202C60.3989 291.838 60.255 291.391 60.1069 290.862C60.0138 291.269 59.8805 291.715 59.707 292.202L58.6152 295.077H61.6177ZM66.334 292.043V296.556C66.334 297.123 66.4631 297.546 66.7212 297.826C66.9793 298.105 67.3835 298.245 67.9336 298.245C68.6615 298.245 69.1925 298.046 69.5269 297.648C69.8654 297.25 70.0347 296.601 70.0347 295.699V292.043H71.0884V299H70.2188L70.0664 298.067H70.0093C69.7935 298.41 69.493 298.672 69.1079 298.854C68.7271 299.036 68.2912 299.127 67.8003 299.127C66.9539 299.127 66.3192 298.926 65.896 298.524C65.4771 298.122 65.2676 297.479 65.2676 296.594V292.043H66.334ZM77.8169 297.102C77.8169 297.75 77.5757 298.249 77.0933 298.6C76.6108 298.951 75.9338 299.127 75.062 299.127C74.1395 299.127 73.4201 298.981 72.9038 298.689V297.711C73.2381 297.881 73.5957 298.014 73.9766 298.111C74.3617 298.209 74.7319 298.257 75.0874 298.257C75.6375 298.257 76.0607 298.171 76.3569 297.997C76.6532 297.819 76.8013 297.551 76.8013 297.191C76.8013 296.92 76.6828 296.689 76.4458 296.499C76.2131 296.304 75.756 296.076 75.0747 295.813C74.4272 295.572 73.966 295.363 73.6909 295.185C73.4201 295.003 73.217 294.798 73.0815 294.569C72.9504 294.341 72.8848 294.068 72.8848 293.75C72.8848 293.183 73.1154 292.737 73.5767 292.411C74.0379 292.081 74.6706 291.916 75.4746 291.916C76.2236 291.916 76.9557 292.068 77.6709 292.373L77.2964 293.23C76.5981 292.942 75.9655 292.798 75.3984 292.798C74.8991 292.798 74.5225 292.877 74.2686 293.033C74.0146 293.19 73.8877 293.406 73.8877 293.681C73.8877 293.867 73.9342 294.026 74.0273 294.157C74.1247 294.288 74.2791 294.413 74.4907 294.531C74.7023 294.65 75.1086 294.821 75.7095 295.045C76.5347 295.346 77.0911 295.648 77.3789 295.953C77.6709 296.258 77.8169 296.641 77.8169 297.102ZM81.7842 298.257C81.9704 298.257 82.1502 298.245 82.3237 298.219C82.4972 298.19 82.6348 298.16 82.7363 298.13V298.937C82.6221 298.992 82.4528 299.036 82.2285 299.07C82.0085 299.108 81.8096 299.127 81.6318 299.127C80.2861 299.127 79.6133 298.418 79.6133 297V292.862H78.6167V292.354L79.6133 291.916L80.0576 290.431H80.667V292.043H82.6855V292.862H80.667V296.956C80.667 297.375 80.7664 297.697 80.9653 297.921C81.1642 298.145 81.4372 298.257 81.7842 298.257ZM87.3066 291.916C87.6156 291.916 87.8927 291.941 88.1382 291.992L87.9922 292.97C87.7044 292.906 87.4505 292.875 87.2305 292.875C86.6676 292.875 86.1852 293.103 85.7832 293.56C85.3854 294.017 85.1865 294.586 85.1865 295.268V299H84.1328V292.043H85.0024L85.123 293.332H85.1738C85.432 292.879 85.743 292.53 86.1069 292.284C86.4709 292.039 86.8708 291.916 87.3066 291.916ZM90.4932 299H89.4395V292.043H90.4932V299ZM89.3506 290.158C89.3506 289.917 89.4098 289.741 89.5283 289.631C89.6468 289.517 89.7949 289.459 89.9727 289.459C90.1419 289.459 90.2879 289.517 90.4106 289.631C90.5334 289.745 90.5947 289.921 90.5947 290.158C90.5947 290.395 90.5334 290.572 90.4106 290.691C90.2879 290.805 90.1419 290.862 89.9727 290.862C89.7949 290.862 89.6468 290.805 89.5283 290.691C89.4098 290.572 89.3506 290.395 89.3506 290.158ZM97.0059 299L96.7964 298.01H96.7456C96.3986 298.446 96.0516 298.742 95.7046 298.898C95.3618 299.051 94.9323 299.127 94.416 299.127C93.7262 299.127 93.1846 298.949 92.791 298.594C92.4017 298.238 92.207 297.733 92.207 297.077C92.207 295.672 93.3306 294.935 95.5776 294.868L96.7583 294.83V294.398C96.7583 293.852 96.6398 293.45 96.4028 293.192C96.1701 292.93 95.7956 292.798 95.2793 292.798C94.6995 292.798 94.0436 292.976 93.3115 293.332L92.9878 292.525C93.3306 292.339 93.7051 292.193 94.1113 292.087C94.5218 291.982 94.9323 291.929 95.3428 291.929C96.1722 291.929 96.7858 292.113 97.1836 292.481C97.5856 292.849 97.7866 293.439 97.7866 294.252V299H97.0059ZM94.6255 298.257C95.2814 298.257 95.7956 298.077 96.168 297.718C96.5446 297.358 96.7329 296.854 96.7329 296.207V295.579L95.6792 295.623C94.8413 295.653 94.2362 295.784 93.8638 296.017C93.4956 296.245 93.3115 296.603 93.3115 297.089C93.3115 297.47 93.4258 297.76 93.6543 297.959C93.887 298.158 94.2108 298.257 94.6255 298.257ZM102.744 295.439C102.744 294.318 102.907 293.268 103.233 292.291C103.563 291.313 104.037 290.456 104.655 289.72H105.683C105.074 290.536 104.615 291.434 104.306 292.411C104.001 293.389 103.849 294.394 103.849 295.426C103.849 296.442 104.005 297.434 104.318 298.403C104.632 299.372 105.082 300.257 105.67 301.057H104.655C104.033 300.337 103.559 299.497 103.233 298.537C102.907 297.576 102.744 296.543 102.744 295.439ZM113.23 292.424C113.23 293.363 112.909 294.087 112.266 294.595C111.627 295.098 110.71 295.35 109.517 295.35H108.425V299H107.346V289.72H109.752C112.071 289.72 113.23 290.621 113.23 292.424ZM108.425 294.423H109.396C110.353 294.423 111.045 294.269 111.472 293.96C111.9 293.651 112.113 293.156 112.113 292.475C112.113 291.861 111.912 291.404 111.51 291.104C111.108 290.803 110.482 290.653 109.631 290.653H108.425V294.423ZM118.194 291.916C118.503 291.916 118.78 291.941 119.026 291.992L118.88 292.97C118.592 292.906 118.338 292.875 118.118 292.875C117.555 292.875 117.073 293.103 116.671 293.56C116.273 294.017 116.074 294.586 116.074 295.268V299H115.021V292.043H115.89L116.011 293.332H116.062C116.32 292.879 116.631 292.53 116.995 292.284C117.359 292.039 117.758 291.916 118.194 291.916ZM123 299.127C121.971 299.127 121.159 298.814 120.562 298.188C119.97 297.561 119.673 296.692 119.673 295.579C119.673 294.457 119.948 293.566 120.499 292.906C121.053 292.246 121.796 291.916 122.727 291.916C123.598 291.916 124.288 292.204 124.796 292.779C125.304 293.351 125.558 294.106 125.558 295.045V295.712H120.765C120.786 296.529 120.992 297.149 121.381 297.572C121.774 297.995 122.327 298.207 123.038 298.207C123.787 298.207 124.527 298.05 125.259 297.737V298.676C124.887 298.837 124.534 298.951 124.199 299.019C123.869 299.091 123.469 299.127 123 299.127ZM122.714 292.798C122.155 292.798 121.709 292.98 121.375 293.344C121.044 293.708 120.85 294.212 120.791 294.855H124.428C124.428 294.191 124.28 293.683 123.983 293.332C123.687 292.976 123.264 292.798 122.714 292.798ZM136.228 299V294.474C136.228 293.92 136.11 293.505 135.873 293.23C135.636 292.951 135.267 292.811 134.768 292.811C134.112 292.811 133.628 292.999 133.314 293.376C133.001 293.753 132.845 294.332 132.845 295.115V299H131.791V294.474C131.791 293.92 131.673 293.505 131.436 293.23C131.199 292.951 130.828 292.811 130.325 292.811C129.665 292.811 129.18 293.01 128.871 293.408C128.566 293.801 128.414 294.449 128.414 295.35V299H127.36V292.043H128.217L128.389 292.995H128.439C128.638 292.657 128.918 292.392 129.277 292.202C129.641 292.011 130.048 291.916 130.496 291.916C131.584 291.916 132.295 292.31 132.629 293.097H132.68C132.887 292.733 133.188 292.445 133.581 292.233C133.975 292.022 134.423 291.916 134.927 291.916C135.714 291.916 136.302 292.119 136.691 292.525C137.085 292.927 137.282 293.573 137.282 294.461V299H136.228ZM140.513 299H139.459V292.043H140.513V299ZM139.37 290.158C139.37 289.917 139.429 289.741 139.548 289.631C139.666 289.517 139.814 289.459 139.992 289.459C140.161 289.459 140.307 289.517 140.43 289.631C140.553 289.745 140.614 289.921 140.614 290.158C140.614 290.395 140.553 290.572 140.43 290.691C140.307 290.805 140.161 290.862 139.992 290.862C139.814 290.862 139.666 290.805 139.548 290.691C139.429 290.572 139.37 290.395 139.37 290.158ZM143.737 292.043V296.556C143.737 297.123 143.866 297.546 144.125 297.826C144.383 298.105 144.787 298.245 145.337 298.245C146.065 298.245 146.596 298.046 146.93 297.648C147.269 297.25 147.438 296.601 147.438 295.699V292.043H148.492V299H147.622L147.47 298.067H147.413C147.197 298.41 146.896 298.672 146.511 298.854C146.13 299.036 145.694 299.127 145.204 299.127C144.357 299.127 143.722 298.926 143.299 298.524C142.88 298.122 142.671 297.479 142.671 296.594V292.043H143.737ZM159.6 299V294.474C159.6 293.92 159.482 293.505 159.245 293.23C159.008 292.951 158.639 292.811 158.14 292.811C157.484 292.811 157 292.999 156.687 293.376C156.373 293.753 156.217 294.332 156.217 295.115V299H155.163V294.474C155.163 293.92 155.045 293.505 154.808 293.23C154.571 292.951 154.2 292.811 153.697 292.811C153.037 292.811 152.552 293.01 152.243 293.408C151.938 293.801 151.786 294.449 151.786 295.35V299H150.732V292.043H151.589L151.761 292.995H151.812C152.01 292.657 152.29 292.392 152.649 292.202C153.013 292.011 153.42 291.916 153.868 291.916C154.956 291.916 155.667 292.31 156.001 293.097H156.052C156.259 292.733 156.56 292.445 156.953 292.233C157.347 292.022 157.795 291.916 158.299 291.916C159.086 291.916 159.674 292.119 160.063 292.525C160.457 292.927 160.654 293.573 160.654 294.461V299H159.6ZM165.04 295.439C165.04 296.552 164.875 297.589 164.545 298.549C164.219 299.51 163.747 300.346 163.129 301.057H162.114C162.702 300.261 163.153 299.379 163.466 298.41C163.779 297.436 163.936 296.442 163.936 295.426C163.936 294.394 163.781 293.389 163.472 292.411C163.167 291.434 162.71 290.536 162.101 289.72H163.129C163.751 290.46 164.225 291.321 164.551 292.303C164.877 293.281 165.04 294.326 165.04 295.439Z" fill="#494B4D"/>
		<rect x="333" y="296" width="3" height="4" rx="1" fill="#3B9946"/>
		<rect x="338" y="294" width="3" height="6" rx="1" fill="#3B9946"/>
		<rect x="343" y="292" width="3" height="8" rx="1" fill="#3B9946"/>
		<rect x="348" y="290" width="3" height="10" rx="1" fill="#3B9946"/>
		<rect x="353" y="288" width="3" height="12" rx="1" fill="#3B9946"/>
		<path d="M93.75 45.3379C93.75 43.6543 94.0762 42.3965 94.7285 41.5645C95.3848 40.7285 96.3535 40.3105 97.6348 40.3105C98.0762 40.3105 98.4238 40.3477 98.6777 40.4219V41.2598C98.377 41.1621 98.0332 41.1133 97.6465 41.1133C96.7285 41.1133 96.0273 41.4004 95.543 41.9746C95.0586 42.5449 94.793 43.4434 94.7461 44.6699H94.8164C95.2461 43.998 95.9258 43.6621 96.8555 43.6621C97.625 43.6621 98.2305 43.8945 98.6719 44.3594C99.1172 44.8242 99.3398 45.4551 99.3398 46.252C99.3398 47.1426 99.0957 47.8438 98.6074 48.3555C98.123 48.8633 97.4668 49.1172 96.6387 49.1172C95.752 49.1172 95.0488 48.7852 94.5293 48.1211C94.0098 47.4531 93.75 46.5254 93.75 45.3379ZM96.627 48.291C97.1816 48.291 97.6113 48.1172 97.916 47.7695C98.2246 47.418 98.3789 46.9121 98.3789 46.252C98.3789 45.6855 98.2363 45.2402 97.9512 44.916C97.666 44.5918 97.2402 44.4297 96.6738 44.4297C96.3223 44.4297 96 44.502 95.707 44.6465C95.4141 44.791 95.1797 44.9902 95.0039 45.2441C94.832 45.498 94.7461 45.7617 94.7461 46.0352C94.7461 46.4375 94.8242 46.8125 94.9805 47.1602C95.1367 47.5078 95.3574 47.7832 95.6426 47.9863C95.9316 48.1895 96.2598 48.291 96.627 48.291ZM106.195 44.7051C106.195 46.1855 105.961 47.291 105.492 48.0215C105.027 48.752 104.314 49.1172 103.354 49.1172C102.432 49.1172 101.73 48.7441 101.25 47.998C100.77 47.248 100.529 46.1504 100.529 44.7051C100.529 43.2129 100.762 42.1055 101.227 41.3828C101.691 40.6602 102.4 40.2988 103.354 40.2988C104.283 40.2988 104.988 40.6758 105.469 41.4297C105.953 42.1836 106.195 43.2754 106.195 44.7051ZM101.514 44.7051C101.514 45.9512 101.66 46.8594 101.953 47.4297C102.246 47.9961 102.713 48.2793 103.354 48.2793C104.002 48.2793 104.471 47.9922 104.76 47.418C105.053 46.8398 105.199 45.9355 105.199 44.7051C105.199 43.4746 105.053 42.5742 104.76 42.0039C104.471 41.4297 104.002 41.1426 103.354 41.1426C102.713 41.1426 102.246 41.4258 101.953 41.9922C101.66 42.5547 101.514 43.459 101.514 44.7051ZM113.062 44.7051C113.062 46.1855 112.828 47.291 112.359 48.0215C111.895 48.752 111.182 49.1172 110.221 49.1172C109.299 49.1172 108.598 48.7441 108.117 47.998C107.637 47.248 107.396 46.1504 107.396 44.7051C107.396 43.2129 107.629 42.1055 108.094 41.3828C108.559 40.6602 109.268 40.2988 110.221 40.2988C111.15 40.2988 111.855 40.6758 112.336 41.4297C112.82 42.1836 113.062 43.2754 113.062 44.7051ZM108.381 44.7051C108.381 45.9512 108.527 46.8594 108.82 47.4297C109.113 47.9961 109.58 48.2793 110.221 48.2793C110.869 48.2793 111.338 47.9922 111.627 47.418C111.92 46.8398 112.066 45.9355 112.066 44.7051C112.066 43.4746 111.92 42.5742 111.627 42.0039C111.338 41.4297 110.869 41.1426 110.221 41.1426C109.58 41.1426 109.113 41.4258 108.82 41.9922C108.527 42.5547 108.381 43.459 108.381 44.7051ZM117.492 44.3652H119.906V45.1738H117.492V47.6699H116.678V45.1738H114.275V44.3652H116.678V41.8574H117.492V44.3652ZM128.824 47.248C128.824 47.8457 128.602 48.3066 128.156 48.6309C127.711 48.9551 127.086 49.1172 126.281 49.1172C125.43 49.1172 124.766 48.9824 124.289 48.7129V47.8105C124.598 47.9668 124.928 48.0898 125.279 48.1797C125.635 48.2695 125.977 48.3145 126.305 48.3145C126.812 48.3145 127.203 48.2344 127.477 48.0742C127.75 47.9102 127.887 47.6621 127.887 47.3301C127.887 47.0801 127.777 46.8672 127.559 46.6914C127.344 46.5117 126.922 46.3008 126.293 46.0586C125.695 45.8359 125.27 45.6426 125.016 45.4785C124.766 45.3105 124.578 45.1211 124.453 44.9102C124.332 44.6992 124.271 44.4473 124.271 44.1543C124.271 43.6309 124.484 43.2188 124.91 42.918C125.336 42.6133 125.92 42.4609 126.662 42.4609C127.354 42.4609 128.029 42.6016 128.689 42.8828L128.344 43.6738C127.699 43.4082 127.115 43.2754 126.592 43.2754C126.131 43.2754 125.783 43.3477 125.549 43.4922C125.314 43.6367 125.197 43.8359 125.197 44.0898C125.197 44.2617 125.24 44.4082 125.326 44.5293C125.416 44.6504 125.559 44.7656 125.754 44.875C125.949 44.9844 126.324 45.1426 126.879 45.3496C127.641 45.627 128.154 45.9062 128.42 46.1875C128.689 46.4688 128.824 46.8223 128.824 47.248ZM133.125 49.1172C132.176 49.1172 131.426 48.8281 130.875 48.25C130.328 47.6719 130.055 46.8691 130.055 45.8418C130.055 44.8066 130.309 43.9844 130.816 43.375C131.328 42.7656 132.014 42.4609 132.873 42.4609C133.678 42.4609 134.314 42.7266 134.783 43.2578C135.252 43.7852 135.486 44.4824 135.486 45.3496V45.9648H131.062C131.082 46.7188 131.271 47.291 131.631 47.6816C131.994 48.0723 132.504 48.2676 133.16 48.2676C133.852 48.2676 134.535 48.123 135.211 47.834V48.7012C134.867 48.8496 134.541 48.9551 134.232 49.0176C133.928 49.084 133.559 49.1172 133.125 49.1172ZM132.861 43.2754C132.346 43.2754 131.934 43.4434 131.625 43.7793C131.32 44.1152 131.141 44.5801 131.086 45.1738H134.443C134.443 44.5605 134.307 44.0918 134.033 43.7676C133.76 43.4395 133.369 43.2754 132.861 43.2754ZM140.08 42.4609C140.365 42.4609 140.621 42.4844 140.848 42.5312L140.713 43.4336C140.447 43.375 140.213 43.3457 140.01 43.3457C139.49 43.3457 139.045 43.5566 138.674 43.9785C138.307 44.4004 138.123 44.9258 138.123 45.5547V49H137.15V42.5781H137.953L138.064 43.7676H138.111C138.35 43.3496 138.637 43.0273 138.973 42.8008C139.309 42.5742 139.678 42.4609 140.08 42.4609ZM143.455 49L141.018 42.5781H142.061L143.443 46.3867C143.756 47.2773 143.939 47.8555 143.994 48.1211H144.041C144.084 47.9141 144.219 47.4863 144.445 46.8379C144.676 46.1855 145.189 44.7656 145.986 42.5781H147.029L144.592 49H143.455ZM150.773 49.1172C149.824 49.1172 149.074 48.8281 148.523 48.25C147.977 47.6719 147.703 46.8691 147.703 45.8418C147.703 44.8066 147.957 43.9844 148.465 43.375C148.977 42.7656 149.662 42.4609 150.521 42.4609C151.326 42.4609 151.963 42.7266 152.432 43.2578C152.9 43.7852 153.135 44.4824 153.135 45.3496V45.9648H148.711C148.73 46.7188 148.92 47.291 149.279 47.6816C149.643 48.0723 150.152 48.2676 150.809 48.2676C151.5 48.2676 152.184 48.123 152.859 47.834V48.7012C152.516 48.8496 152.189 48.9551 151.881 49.0176C151.576 49.084 151.207 49.1172 150.773 49.1172ZM150.51 43.2754C149.994 43.2754 149.582 43.4434 149.273 43.7793C148.969 44.1152 148.789 44.5801 148.734 45.1738H152.092C152.092 44.5605 151.955 44.0918 151.682 43.7676C151.408 43.4395 151.018 43.2754 150.51 43.2754ZM157.729 42.4609C158.014 42.4609 158.27 42.4844 158.496 42.5312L158.361 43.4336C158.096 43.375 157.861 43.3457 157.658 43.3457C157.139 43.3457 156.693 43.5566 156.322 43.9785C155.955 44.4004 155.771 44.9258 155.771 45.5547V49H154.799V42.5781H155.602L155.713 43.7676H155.76C155.998 43.3496 156.285 43.0273 156.621 42.8008C156.957 42.5742 157.326 42.4609 157.729 42.4609ZM163.84 47.248C163.84 47.8457 163.617 48.3066 163.172 48.6309C162.727 48.9551 162.102 49.1172 161.297 49.1172C160.445 49.1172 159.781 48.9824 159.305 48.7129V47.8105C159.613 47.9668 159.943 48.0898 160.295 48.1797C160.65 48.2695 160.992 48.3145 161.32 48.3145C161.828 48.3145 162.219 48.2344 162.492 48.0742C162.766 47.9102 162.902 47.6621 162.902 47.3301C162.902 47.0801 162.793 46.8672 162.574 46.6914C162.359 46.5117 161.938 46.3008 161.309 46.0586C160.711 45.8359 160.285 45.6426 160.031 45.4785C159.781 45.3105 159.594 45.1211 159.469 44.9102C159.348 44.6992 159.287 44.4473 159.287 44.1543C159.287 43.6309 159.5 43.2188 159.926 42.918C160.352 42.6133 160.936 42.4609 161.678 42.4609C162.369 42.4609 163.045 42.6016 163.705 42.8828L163.359 43.6738C162.715 43.4082 162.131 43.2754 161.607 43.2754C161.146 43.2754 160.799 43.3477 160.564 43.4922C160.33 43.6367 160.213 43.8359 160.213 44.0898C160.213 44.2617 160.256 44.4082 160.342 44.5293C160.432 44.6504 160.574 44.7656 160.77 44.875C160.965 44.9844 161.34 45.1426 161.895 45.3496C162.656 45.627 163.17 45.9062 163.436 46.1875C163.705 46.4688 163.84 46.8223 163.84 47.248ZM169.518 49H168.545V42.5781H169.518V49ZM168.463 40.8379C168.463 40.6152 168.518 40.4531 168.627 40.3516C168.736 40.2461 168.873 40.1934 169.037 40.1934C169.193 40.1934 169.328 40.2461 169.441 40.3516C169.555 40.457 169.611 40.6191 169.611 40.8379C169.611 41.0566 169.555 41.2207 169.441 41.3301C169.328 41.4355 169.193 41.4883 169.037 41.4883C168.873 41.4883 168.736 41.4355 168.627 41.3301C168.518 41.2207 168.463 41.0566 168.463 40.8379ZM175.975 49V44.8457C175.975 44.3223 175.855 43.9316 175.617 43.6738C175.379 43.416 175.006 43.2871 174.498 43.2871C173.826 43.2871 173.334 43.4688 173.021 43.832C172.709 44.1953 172.553 44.7949 172.553 45.6309V49H171.58V42.5781H172.371L172.529 43.457H172.576C172.775 43.1406 173.055 42.8965 173.414 42.7246C173.773 42.5488 174.174 42.4609 174.615 42.4609C175.389 42.4609 175.971 42.6484 176.361 43.0234C176.752 43.3945 176.947 43.9902 176.947 44.8105V49H175.975ZM187.658 47.0312H186.387V49H185.455V47.0312H181.289V46.1816L185.355 40.3867H186.387V46.1465H187.658V47.0312ZM185.455 46.1465V43.2988C185.455 42.7402 185.475 42.1094 185.514 41.4062H185.467C185.279 41.7812 185.104 42.0918 184.939 42.3379L182.262 46.1465H185.455ZM194.121 49H188.49V48.1621L190.746 45.8945C191.434 45.1992 191.887 44.7031 192.105 44.4062C192.324 44.1094 192.488 43.8203 192.598 43.5391C192.707 43.2578 192.762 42.9551 192.762 42.6309C192.762 42.1738 192.623 41.8125 192.346 41.5469C192.068 41.2773 191.684 41.1426 191.191 41.1426C190.836 41.1426 190.498 41.2012 190.178 41.3184C189.861 41.4355 189.508 41.6484 189.117 41.957L188.602 41.2949C189.391 40.6387 190.25 40.3105 191.18 40.3105C191.984 40.3105 192.615 40.5176 193.072 40.9316C193.529 41.3418 193.758 41.8945 193.758 42.5898C193.758 43.1328 193.605 43.6699 193.301 44.2012C192.996 44.7324 192.426 45.4043 191.59 46.2168L189.715 48.0508V48.0977H194.121V49ZM203.959 40.4336H205.031L201.943 49H200.959L197.889 40.4336H198.943L200.912 45.9766C201.139 46.6133 201.318 47.2324 201.451 47.834C201.592 47.2012 201.775 46.5703 202.002 45.9414L203.959 40.4336ZM207.041 49H206.068V42.5781H207.041V49ZM205.986 40.8379C205.986 40.6152 206.041 40.4531 206.15 40.3516C206.26 40.2461 206.396 40.1934 206.561 40.1934C206.717 40.1934 206.852 40.2461 206.965 40.3516C207.078 40.457 207.135 40.6191 207.135 40.8379C207.135 41.0566 207.078 41.2207 206.965 41.3301C206.852 41.4355 206.717 41.4883 206.561 41.4883C206.396 41.4883 206.26 41.4355 206.15 41.3301C206.041 41.2207 205.986 41.0566 205.986 40.8379ZM212.033 42.4609C212.318 42.4609 212.574 42.4844 212.801 42.5312L212.666 43.4336C212.4 43.375 212.166 43.3457 211.963 43.3457C211.443 43.3457 210.998 43.5566 210.627 43.9785C210.26 44.4004 210.076 44.9258 210.076 45.5547V49H209.104V42.5781H209.906L210.018 43.7676H210.064C210.303 43.3496 210.59 43.0273 210.926 42.8008C211.262 42.5742 211.631 42.4609 212.033 42.4609ZM216.076 48.3145C216.248 48.3145 216.414 48.3027 216.574 48.2793C216.734 48.252 216.861 48.2246 216.955 48.1973V48.9414C216.85 48.9922 216.693 49.0332 216.486 49.0645C216.283 49.0996 216.1 49.1172 215.936 49.1172C214.693 49.1172 214.072 48.4629 214.072 47.1543V43.334H213.152V42.8652L214.072 42.4609L214.482 41.0898H215.045V42.5781H216.908V43.334H215.045V47.1133C215.045 47.5 215.137 47.7969 215.32 48.0039C215.504 48.2109 215.756 48.3145 216.076 48.3145ZM219.158 42.5781V46.7441C219.158 47.2676 219.277 47.6582 219.516 47.916C219.754 48.1738 220.127 48.3027 220.635 48.3027C221.307 48.3027 221.797 48.1191 222.105 47.752C222.418 47.3848 222.574 46.7852 222.574 45.9531V42.5781H223.547V49H222.744L222.604 48.1387H222.551C222.352 48.4551 222.074 48.6973 221.719 48.8652C221.367 49.0332 220.965 49.1172 220.512 49.1172C219.73 49.1172 219.145 48.9316 218.754 48.5605C218.367 48.1895 218.174 47.5957 218.174 46.7793V42.5781H219.158ZM229.564 49L229.371 48.0859H229.324C229.004 48.4883 228.684 48.7617 228.363 48.9062C228.047 49.0469 227.65 49.1172 227.174 49.1172C226.537 49.1172 226.037 48.9531 225.674 48.625C225.314 48.2969 225.135 47.8301 225.135 47.2246C225.135 45.9277 226.172 45.248 228.246 45.1855L229.336 45.1504V44.752C229.336 44.248 229.227 43.877 229.008 43.6387C228.793 43.3965 228.447 43.2754 227.971 43.2754C227.436 43.2754 226.83 43.4395 226.154 43.7676L225.855 43.0234C226.172 42.8516 226.518 42.7168 226.893 42.6191C227.271 42.5215 227.65 42.4727 228.029 42.4727C228.795 42.4727 229.361 42.6426 229.729 42.9824C230.1 43.3223 230.285 43.8672 230.285 44.6172V49H229.564ZM227.367 48.3145C227.973 48.3145 228.447 48.1484 228.791 47.8164C229.139 47.4844 229.312 47.0195 229.312 46.4219V45.8418L228.34 45.8828C227.566 45.9102 227.008 46.0312 226.664 46.2461C226.324 46.457 226.154 46.7871 226.154 47.2363C226.154 47.5879 226.26 47.8555 226.471 48.0391C226.686 48.2227 226.984 48.3145 227.367 48.3145ZM233.268 49H232.295V39.8828H233.268V49ZM238.594 49V40.4336H239.59V48.0977H243.369V49H238.594ZM250.225 45.7832C250.225 46.8301 249.961 47.6484 249.434 48.2383C248.906 48.8242 248.178 49.1172 247.248 49.1172C246.674 49.1172 246.164 48.9824 245.719 48.7129C245.273 48.4434 244.93 48.0566 244.688 47.5527C244.445 47.0488 244.324 46.459 244.324 45.7832C244.324 44.7363 244.586 43.9219 245.109 43.3398C245.633 42.7539 246.359 42.4609 247.289 42.4609C248.188 42.4609 248.9 42.7598 249.428 43.3574C249.959 43.9551 250.225 44.7637 250.225 45.7832ZM245.332 45.7832C245.332 46.6035 245.496 47.2285 245.824 47.6582C246.152 48.0879 246.635 48.3027 247.271 48.3027C247.908 48.3027 248.391 48.0898 248.719 47.6641C249.051 47.2344 249.217 46.6074 249.217 45.7832C249.217 44.9668 249.051 44.3477 248.719 43.9258C248.391 43.5 247.904 43.2871 247.26 43.2871C246.623 43.2871 246.143 43.4961 245.818 43.9141C245.494 44.332 245.332 44.9551 245.332 45.7832ZM254.502 49.1172C253.572 49.1172 252.852 48.832 252.34 48.2617C251.832 47.6875 251.578 46.877 251.578 45.8301C251.578 44.7559 251.836 43.9258 252.352 43.3398C252.871 42.7539 253.609 42.4609 254.566 42.4609C254.875 42.4609 255.184 42.4941 255.492 42.5605C255.801 42.627 256.043 42.7051 256.219 42.7949L255.92 43.6211C255.705 43.5352 255.471 43.4648 255.217 43.4102C254.963 43.3516 254.738 43.3223 254.543 43.3223C253.238 43.3223 252.586 44.1543 252.586 45.8184C252.586 46.6074 252.744 47.2129 253.061 47.6348C253.381 48.0566 253.854 48.2676 254.479 48.2676C255.014 48.2676 255.562 48.1523 256.125 47.9219V48.7832C255.695 49.0059 255.154 49.1172 254.502 49.1172ZM261.604 49L261.41 48.0859H261.363C261.043 48.4883 260.723 48.7617 260.402 48.9062C260.086 49.0469 259.689 49.1172 259.213 49.1172C258.576 49.1172 258.076 48.9531 257.713 48.625C257.354 48.2969 257.174 47.8301 257.174 47.2246C257.174 45.9277 258.211 45.248 260.285 45.1855L261.375 45.1504V44.752C261.375 44.248 261.266 43.877 261.047 43.6387C260.832 43.3965 260.486 43.2754 260.01 43.2754C259.475 43.2754 258.869 43.4395 258.193 43.7676L257.895 43.0234C258.211 42.8516 258.557 42.7168 258.932 42.6191C259.311 42.5215 259.689 42.4727 260.068 42.4727C260.834 42.4727 261.4 42.6426 261.768 42.9824C262.139 43.3223 262.324 43.8672 262.324 44.6172V49H261.604ZM259.406 48.3145C260.012 48.3145 260.486 48.1484 260.83 47.8164C261.178 47.4844 261.352 47.0195 261.352 46.4219V45.8418L260.379 45.8828C259.605 45.9102 259.047 46.0312 258.703 46.2461C258.363 46.457 258.193 46.7871 258.193 47.2363C258.193 47.5879 258.299 47.8555 258.51 48.0391C258.725 48.2227 259.023 48.3145 259.406 48.3145ZM266.408 48.3145C266.58 48.3145 266.746 48.3027 266.906 48.2793C267.066 48.252 267.193 48.2246 267.287 48.1973V48.9414C267.182 48.9922 267.025 49.0332 266.818 49.0645C266.615 49.0996 266.432 49.1172 266.268 49.1172C265.025 49.1172 264.404 48.4629 264.404 47.1543V43.334H263.484V42.8652L264.404 42.4609L264.814 41.0898H265.377V42.5781H267.24V43.334H265.377V47.1133C265.377 47.5 265.469 47.7969 265.652 48.0039C265.836 48.2109 266.088 48.3145 266.408 48.3145ZM269.549 49H268.576V42.5781H269.549V49ZM268.494 40.8379C268.494 40.6152 268.549 40.4531 268.658 40.3516C268.768 40.2461 268.904 40.1934 269.068 40.1934C269.225 40.1934 269.359 40.2461 269.473 40.3516C269.586 40.457 269.643 40.6191 269.643 40.8379C269.643 41.0566 269.586 41.2207 269.473 41.3301C269.359 41.4355 269.225 41.4883 269.068 41.4883C268.904 41.4883 268.768 41.4355 268.658 41.3301C268.549 41.2207 268.494 41.0566 268.494 40.8379ZM277.154 45.7832C277.154 46.8301 276.891 47.6484 276.363 48.2383C275.836 48.8242 275.107 49.1172 274.178 49.1172C273.604 49.1172 273.094 48.9824 272.648 48.7129C272.203 48.4434 271.859 48.0566 271.617 47.5527C271.375 47.0488 271.254 46.459 271.254 45.7832C271.254 44.7363 271.516 43.9219 272.039 43.3398C272.562 42.7539 273.289 42.4609 274.219 42.4609C275.117 42.4609 275.83 42.7598 276.357 43.3574C276.889 43.9551 277.154 44.7637 277.154 45.7832ZM272.262 45.7832C272.262 46.6035 272.426 47.2285 272.754 47.6582C273.082 48.0879 273.564 48.3027 274.201 48.3027C274.838 48.3027 275.32 48.0898 275.648 47.6641C275.98 47.2344 276.146 46.6074 276.146 45.7832C276.146 44.9668 275.98 44.3477 275.648 43.9258C275.32 43.5 274.834 43.2871 274.189 43.2871C273.553 43.2871 273.072 43.4961 272.748 43.9141C272.424 44.332 272.262 44.9551 272.262 45.7832ZM283.26 49V44.8457C283.26 44.3223 283.141 43.9316 282.902 43.6738C282.664 43.416 282.291 43.2871 281.783 43.2871C281.111 43.2871 280.619 43.4688 280.307 43.832C279.994 44.1953 279.838 44.7949 279.838 45.6309V49H278.865V42.5781H279.656L279.814 43.457H279.861C280.061 43.1406 280.34 42.8965 280.699 42.7246C281.059 42.5488 281.459 42.4609 281.9 42.4609C282.674 42.4609 283.256 42.6484 283.646 43.0234C284.037 43.3945 284.232 43.9902 284.232 44.8105V49H283.26ZM290.379 47.248C290.379 47.8457 290.156 48.3066 289.711 48.6309C289.266 48.9551 288.641 49.1172 287.836 49.1172C286.984 49.1172 286.32 48.9824 285.844 48.7129V47.8105C286.152 47.9668 286.482 48.0898 286.834 48.1797C287.189 48.2695 287.531 48.3145 287.859 48.3145C288.367 48.3145 288.758 48.2344 289.031 48.0742C289.305 47.9102 289.441 47.6621 289.441 47.3301C289.441 47.0801 289.332 46.8672 289.113 46.6914C288.898 46.5117 288.477 46.3008 287.848 46.0586C287.25 45.8359 286.824 45.6426 286.57 45.4785C286.32 45.3105 286.133 45.1211 286.008 44.9102C285.887 44.6992 285.826 44.4473 285.826 44.1543C285.826 43.6309 286.039 43.2188 286.465 42.918C286.891 42.6133 287.475 42.4609 288.217 42.4609C288.908 42.4609 289.584 42.6016 290.244 42.8828L289.898 43.6738C289.254 43.4082 288.67 43.2754 288.146 43.2754C287.686 43.2754 287.338 43.3477 287.104 43.4922C286.869 43.6367 286.752 43.8359 286.752 44.0898C286.752 44.2617 286.795 44.4082 286.881 44.5293C286.971 44.6504 287.113 44.7656 287.309 44.875C287.504 44.9844 287.879 45.1426 288.434 45.3496C289.195 45.627 289.709 45.9062 289.975 46.1875C290.244 46.4688 290.379 46.8223 290.379 47.248Z" fill="#494B4D"/>
		<rect width="16" height="321" transform="translate(376)" fill="#F1F1F1"/>
		<path d="M388 11H380L384 7L388 11Z" fill="#A4A4A4"/>
		<path d="M388 311H380L384 315L388 311Z" fill="#505050"/>
		<rect x="376" y="17" width="16" height="46" fill="#C1C1C1"/>
	</symbol>

	<use id="use_transparent" xlink:href="#symbol_popup" width="392" height="321" x="0" y="0"></use>
	<use id="use_grey" xlink:href="#symbol_popup" width="392" height="321" x="500" y="0"></use>

	<view id="base" width="392" height="321" viewBox="0 0 392 321" />
  <view id="hover" width="392" height="321" viewBox="500 0 392 321" />
</svg>
