<svg xmlns="http://www.w3.org/2000/svg" xmlns:xlink="http://www.w3.org/1999/xlink">
	<defs>
		<clipPath id="clip0">
			<path d="M20 225C20 223.343 21.3431 222 23 222H49C50.6569 222 52 223.343 52 225V241C52 242.657 50.6569 244 49 244H23C21.3431 244 20 242.657 20 241V225Z" fill="white"/>
		</clipPath>
		
		<style>
		use#use_white{ fill: #fff }
		use#use_grey{ fill: #efefef }
		</style>
	</defs>
	
	<symbol viewBox="0 0 361 263" id="symbol_popup">
		<rect x="0.5" y="203.5" width="360" height="59" rx="3.5" fill="inherit"/>
	
		<circle cx="180" cy="68" r="56" fill="#E5EBEF"/>
		<path d="M180 118C207.614 118 230 95.6142 230 68C230 40.3858 207.614 18 180 18C152.386 18 130 40.3858 130 68C130 95.6142 152.386 118 180 118Z" fill="#6D94D0"/>
		<path d="M180 114.97C205.941 114.97 226.97 93.9406 226.97 68C226.97 42.0593 205.941 21.0303 180 21.0303C154.059 21.0303 133.03 42.0593 133.03 68C133.03 93.9406 154.059 114.97 180 114.97Z" fill="#1C304E"/>
		<path fill-rule="evenodd" clip-rule="evenodd" d="M205.956 46.3482C208.355 45.3302 210.601 44.1723 212.668 42.8897C214.337 41.8536 215.905 40.7241 217.345 39.5096C216.732 38.7068 216.093 37.9244 215.431 37.1635C212.56 39.5881 209.059 41.7073 205.077 43.4279C202.117 34.3319 197.563 27.007 192.073 22.5965C188.221 21.5748 184.174 21.0303 180 21.0303C175.826 21.0303 171.779 21.5748 167.926 22.5965C162.437 27.007 157.883 34.3319 154.922 43.4279C150.941 41.7073 147.44 39.5881 144.569 37.1635C143.907 37.9244 143.268 38.7068 142.655 39.5096C144.095 40.7241 145.663 41.8536 147.332 42.8897C149.399 44.1723 151.645 45.3302 154.044 46.3482C152.348 52.4714 151.348 59.2871 151.225 66.4848H133.054C133.038 66.9879 133.03 67.493 133.03 68C133.03 68.5069 133.038 69.012 133.054 69.5151H151.225C151.348 76.7129 152.348 83.5286 154.044 89.6517C151.645 90.6697 149.399 91.8276 147.332 93.1103C145.663 94.1464 144.095 95.2758 142.655 96.4903C143.268 97.2931 143.907 98.0756 144.569 98.8365C147.44 96.4119 150.941 94.2927 154.922 92.5721C157.883 101.668 162.437 108.993 167.926 113.403C171.779 114.425 175.826 114.97 180 114.97C184.174 114.97 188.221 114.425 192.074 113.403C197.563 108.993 202.117 101.668 205.077 92.5721C209.059 94.2927 212.56 96.4119 215.431 98.8365C216.093 98.0756 216.732 97.2931 217.345 96.4903C215.905 95.2758 214.337 94.1464 212.668 93.1103C210.601 91.8276 208.355 90.6697 205.956 89.6517C207.652 83.5285 208.652 76.7129 208.775 69.5151H226.946C226.962 69.012 226.97 68.5069 226.97 68C226.97 67.493 226.962 66.9879 226.946 66.4848H208.775C208.652 59.2871 207.652 52.4714 205.956 46.3482ZM205.744 69.5151C205.623 76.3443 204.686 82.778 203.119 88.5386C196.68 86.21 189.317 84.8395 181.515 84.6819V69.5151H205.744ZM202.256 91.4492C196.136 89.2135 189.067 87.8717 181.515 87.7128V114.885C187.402 114.229 193.173 109.757 197.73 101.843C199.487 98.7909 201.017 95.2949 202.256 91.4492ZM178.485 114.885V87.7128C170.933 87.8717 163.864 89.2135 157.744 91.4492C158.983 95.2949 160.513 98.7909 162.27 101.843C166.827 109.757 172.598 114.229 178.485 114.885ZM156.881 88.5386C163.32 86.21 170.683 84.8395 178.485 84.6819V69.5151H154.256C154.377 76.3443 155.314 82.778 156.881 88.5386ZM156.881 47.4613C155.314 53.2219 154.377 59.6556 154.256 66.4848H178.485V51.318C170.683 51.1605 163.32 49.79 156.881 47.4613ZM178.485 48.2871C170.933 48.1282 163.864 46.7864 157.744 44.5508C158.983 40.7051 160.513 37.2091 162.27 34.1566C166.827 26.2425 172.598 21.7712 178.485 21.1148V48.2871ZM181.515 48.2871V21.1148C187.402 21.7712 193.173 26.2425 197.73 34.1566C199.487 37.2091 201.017 40.7051 202.256 44.5508C196.136 46.7864 189.067 48.1282 181.515 48.2871ZM181.515 51.318C189.317 51.1605 196.68 49.79 203.119 47.4613C204.686 53.2219 205.623 59.6556 205.744 66.4848H181.515V51.318Z" fill="#6D94D0"/>
		<path d="M180.297 51.0445C180.1 51.015 179.9 51.015 179.703 51.0445L161.703 53.7445C160.724 53.8914 160 54.7324 160 55.7224V58.1812C160 58.9813 160.477 59.7043 161.212 60.0195L162.581 60.6061C163.138 60.8451 163.5 61.3933 163.5 62C163.5 62.6067 163.138 63.1549 162.581 63.3939L161.212 63.9805C160.477 64.2957 160 65.0187 160 65.8188V75.8197C160 75.9396 160.009 76.0549 160.034 76.1724C160.801 79.8643 165.582 88.786 178.993 96.902C179.61 97.2752 180.39 97.2752 181.007 96.902C194.418 88.786 199.199 79.8643 199.966 76.1724C199.991 76.0549 200 75.9396 200 75.8197V65.8188C200 65.0187 199.523 64.2957 198.788 63.9805L197.419 63.3939C196.862 63.1549 196.5 62.6067 196.5 62C196.5 61.3933 196.862 60.8451 197.419 60.6061L198.788 60.0195C199.523 59.7043 200 58.9813 200 58.1812V55.7224C200 54.7324 199.276 53.8914 198.297 53.7445L180.297 51.0445Z" fill="#EA9F37"/>
		<path d="M180.298 52.0448C180.1 52.0151 179.9 52.0151 179.702 52.0448L163.702 54.4534C162.724 54.6007 162 55.4415 162 56.4311V58.3605C162 59.1596 162.476 59.882 163.21 60.1978L164.32 60.6754C164.824 60.8919 165.15 61.3874 165.15 61.9355C165.15 62.4836 164.824 62.979 164.32 63.1956L163.21 63.6732C162.476 63.989 162 64.7114 162 65.5105V74.4009C162 74.5205 162.009 74.6359 162.034 74.7529C162.733 78.0881 167.02 86.0962 178.993 93.3981C179.61 93.7746 180.39 93.7746 181.007 93.3981C192.98 86.0962 197.267 78.0881 197.966 74.7529C197.991 74.6359 198 74.5205 198 74.4009V65.5105C198 64.7114 197.524 63.989 196.79 63.6732L195.68 63.1956C195.176 62.979 194.85 62.4836 194.85 61.9355C194.85 61.3874 195.176 60.8919 195.68 60.6754L196.79 60.1978C197.524 59.882 198 59.1596 198 58.3605V56.4311C198 55.4415 197.276 54.6007 196.298 54.4534L180.298 52.0448Z" fill="#F4C344"/>
		<path fill-rule="evenodd" clip-rule="evenodd" d="M173 69C171.895 69 171 69.8954 171 71V80C171 81.1046 171.895 82 173 82H187C188.105 82 189 81.1046 189 80V71C189 69.8954 188.105 69 187 69C187 65.134 183.866 62 180 62C176.134 62 173 65.134 173 69ZM183 69C183 67.3431 181.657 66 180 66C178.343 66 177 67.3431 177 69H183Z" fill="#328B28"/>
		<path opacity="0.3" d="M180 97.1596C180.349 97.1596 180.698 97.0662 181.007 96.8796C194.418 88.7636 199.199 79.8419 199.966 76.15C199.991 76.0326 200 75.9173 200 75.7973V65.7964C200 64.9964 199.523 64.2733 198.788 63.9581L197.419 63.3715C196.862 63.1326 196.5 62.5843 196.5 61.9776C196.5 61.371 196.862 60.8227 197.419 60.5837L198.788 59.9971C199.523 59.682 200 58.9589 200 58.1588V55.7C200 54.71 199.276 53.869 198.297 53.7221L180.297 51.0221C180.198 51.0074 180.099 51 180 51V97.1596Z" fill="white"/>
		<path opacity="0.4" fill-rule="evenodd" clip-rule="evenodd" d="M194.567 85.6806L174.666 51.8001L179.703 51.0446C179.9 51.0151 180.1 51.0151 180.296 51.0446L185.082 51.7624L199.803 76.8248C199.216 78.8672 197.642 82.043 194.567 85.6806Z" fill="white"/>
		
		<rect x="322.5" y="0.5" width="37" height="37" rx="2.5" stroke="#BCBCBC" fill="#ffffff"/>
		<circle cx="322" cy="38" r="10" fill="#3B9946" stroke="white" stroke-width="4"/>
		<path d="M72.6787 148.625L75.8887 142.437H78.3008L73.7827 150.74V156H71.5562V150.814L67.0566 142.437H69.4688L72.6787 148.625ZM88.0142 150.851C88.0142 152.527 87.5843 153.835 86.7246 154.775C85.8649 155.715 84.6681 156.186 83.1343 156.186C82.1756 156.186 81.3283 155.969 80.5923 155.536C79.8563 155.103 79.2904 154.482 78.8945 153.671C78.4987 152.861 78.3008 151.921 78.3008 150.851C78.3008 149.187 78.7275 147.889 79.5811 146.955C80.4346 146.021 81.6375 145.554 83.1899 145.554C84.6743 145.554 85.8494 146.033 86.7153 146.992C87.5812 147.944 88.0142 149.231 88.0142 150.851ZM80.5459 150.851C80.5459 153.22 81.4211 154.404 83.1714 154.404C84.9032 154.404 85.769 153.22 85.769 150.851C85.769 148.507 84.897 147.335 83.1528 147.335C82.2375 147.335 81.5726 147.638 81.1582 148.244C80.75 148.85 80.5459 149.719 80.5459 150.851ZM97.7646 156L97.4585 154.655H97.3472C97.0441 155.131 96.6112 155.505 96.0483 155.777C95.4917 156.049 94.8547 156.186 94.1372 156.186C92.894 156.186 91.9663 155.876 91.354 155.258C90.7417 154.639 90.4355 153.702 90.4355 152.447V145.739H92.6343V152.066C92.6343 152.852 92.7951 153.443 93.1167 153.838C93.4383 154.228 93.9424 154.423 94.6289 154.423C95.5443 154.423 96.2153 154.151 96.6421 153.606C97.075 153.056 97.2915 152.138 97.2915 150.851V145.739H99.481V156H97.7646ZM107.793 145.554C108.233 145.554 108.594 145.585 108.879 145.646L108.666 147.678C108.356 147.604 108.035 147.567 107.701 147.567C106.829 147.567 106.12 147.851 105.576 148.42C105.038 148.989 104.769 149.729 104.769 150.638V156H102.589V145.739H104.296L104.583 147.548H104.695C105.035 146.936 105.477 146.451 106.021 146.092C106.572 145.733 107.163 145.554 107.793 145.554ZM124.938 146.537C124.938 147.953 124.474 149.039 123.546 149.793C122.619 150.548 121.298 150.925 119.585 150.925H118.175V156H115.958V142.437H119.863C121.558 142.437 122.826 142.783 123.667 143.476C124.514 144.168 124.938 145.189 124.938 146.537ZM118.175 149.061H119.353C120.491 149.061 121.326 148.863 121.858 148.467C122.39 148.071 122.656 147.452 122.656 146.611C122.656 145.832 122.418 145.251 121.941 144.867C121.465 144.484 120.723 144.292 119.715 144.292H118.175V149.061ZM132.62 145.554C133.059 145.554 133.421 145.585 133.705 145.646L133.492 147.678C133.182 147.604 132.861 147.567 132.527 147.567C131.655 147.567 130.947 147.851 130.402 148.42C129.864 148.989 129.595 149.729 129.595 150.638V156H127.415V145.739H129.122L129.41 147.548H129.521C129.861 146.936 130.303 146.451 130.848 146.092C131.398 145.733 131.989 145.554 132.62 145.554ZM137.796 156H135.616V145.739H137.796V156ZM135.486 143.021C135.486 142.631 135.591 142.331 135.802 142.121C136.018 141.911 136.324 141.806 136.72 141.806C137.104 141.806 137.401 141.911 137.611 142.121C137.827 142.331 137.936 142.631 137.936 143.021C137.936 143.392 137.827 143.686 137.611 143.902C137.401 144.113 137.104 144.218 136.72 144.218C136.324 144.218 136.018 144.113 135.802 143.902C135.591 143.686 135.486 143.392 135.486 143.021ZM143.261 156L139.364 145.739H141.665L143.752 151.705C144.111 152.707 144.328 153.517 144.402 154.135H144.476C144.532 153.69 144.748 152.88 145.125 151.705L147.213 145.739H149.532L145.617 156H143.261ZM157.511 156L157.075 154.571H157C156.506 155.196 156.008 155.623 155.507 155.852C155.006 156.074 154.363 156.186 153.577 156.186C152.569 156.186 151.78 155.913 151.211 155.369C150.649 154.825 150.367 154.055 150.367 153.059C150.367 152.001 150.76 151.204 151.545 150.666C152.331 150.127 153.528 149.834 155.136 149.784L156.908 149.729V149.181C156.908 148.526 156.753 148.037 156.444 147.715C156.141 147.388 155.668 147.224 155.024 147.224C154.499 147.224 153.995 147.301 153.512 147.456C153.03 147.61 152.566 147.793 152.121 148.003L151.416 146.444C151.972 146.154 152.581 145.934 153.243 145.786C153.905 145.631 154.53 145.554 155.117 145.554C156.422 145.554 157.406 145.838 158.067 146.407C158.735 146.976 159.069 147.87 159.069 149.088V156H157.511ZM154.264 154.516C155.055 154.516 155.689 154.296 156.166 153.857C156.648 153.412 156.889 152.79 156.889 151.992V151.102L155.572 151.157C154.545 151.194 153.797 151.368 153.327 151.677C152.863 151.98 152.631 152.447 152.631 153.078C152.631 153.535 152.767 153.891 153.039 154.145C153.311 154.392 153.719 154.516 154.264 154.516ZM166.25 156.186C164.698 156.186 163.516 155.734 162.706 154.831C161.902 153.922 161.5 152.62 161.5 150.925C161.5 149.2 161.921 147.873 162.762 146.945C163.609 146.018 164.831 145.554 166.426 145.554C167.509 145.554 168.483 145.755 169.349 146.157L168.69 147.91C167.768 147.551 167.008 147.372 166.408 147.372C164.633 147.372 163.745 148.55 163.745 150.907C163.745 152.057 163.965 152.923 164.404 153.504C164.849 154.08 165.499 154.367 166.352 154.367C167.323 154.367 168.242 154.126 169.107 153.644V155.545C168.718 155.774 168.3 155.938 167.855 156.037C167.416 156.136 166.881 156.186 166.25 156.186ZM169.961 145.739H172.336L174.423 151.556C174.739 152.385 174.949 153.164 175.054 153.894H175.128C175.184 153.554 175.286 153.143 175.435 152.66C175.583 152.172 176.368 149.865 177.791 145.739H180.147L175.759 157.364C174.961 159.498 173.632 160.564 171.77 160.564C171.288 160.564 170.818 160.512 170.36 160.407V158.681C170.688 158.755 171.062 158.792 171.482 158.792C172.534 158.792 173.273 158.183 173.7 156.965L174.08 156L169.961 145.739ZM188.822 156H186.642V145.739H188.822V156ZM186.512 143.021C186.512 142.631 186.617 142.331 186.827 142.121C187.044 141.911 187.35 141.806 187.746 141.806C188.129 141.806 188.426 141.911 188.636 142.121C188.853 142.331 188.961 142.631 188.961 143.021C188.961 143.392 188.853 143.686 188.636 143.902C188.426 144.113 188.129 144.218 187.746 144.218C187.35 144.218 187.044 144.113 186.827 143.902C186.617 143.686 186.512 143.392 186.512 143.021ZM198.841 153.078C198.841 154.08 198.476 154.85 197.747 155.388C197.017 155.92 195.972 156.186 194.611 156.186C193.244 156.186 192.146 155.978 191.317 155.564V153.681C192.523 154.237 193.646 154.516 194.685 154.516C196.027 154.516 196.698 154.111 196.698 153.3C196.698 153.041 196.624 152.824 196.476 152.651C196.327 152.478 196.083 152.298 195.743 152.113C195.403 151.927 194.929 151.717 194.323 151.482C193.142 151.024 192.341 150.567 191.92 150.109C191.506 149.651 191.299 149.057 191.299 148.328C191.299 147.449 191.651 146.769 192.356 146.287C193.068 145.798 194.033 145.554 195.251 145.554C196.457 145.554 197.598 145.798 198.674 146.287L197.969 147.929C196.862 147.471 195.931 147.242 195.177 147.242C194.026 147.242 193.451 147.57 193.451 148.226C193.451 148.547 193.6 148.819 193.896 149.042C194.2 149.265 194.855 149.571 195.863 149.96C196.711 150.288 197.326 150.588 197.709 150.86C198.093 151.132 198.377 151.448 198.563 151.807C198.749 152.159 198.841 152.583 198.841 153.078ZM211.347 156.186C210.048 156.186 209.04 155.719 208.323 154.785H208.193C208.279 155.651 208.323 156.176 208.323 156.362V160.564H206.143V145.739H207.905C207.955 145.931 208.057 146.389 208.211 147.112H208.323C209.003 146.073 210.024 145.554 211.384 145.554C212.665 145.554 213.66 146.018 214.372 146.945C215.089 147.873 215.448 149.175 215.448 150.851C215.448 152.527 215.083 153.835 214.353 154.775C213.629 155.715 212.627 156.186 211.347 156.186ZM210.818 147.335C209.952 147.335 209.319 147.589 208.917 148.096C208.521 148.603 208.323 149.413 208.323 150.526V150.851C208.323 152.1 208.521 153.007 208.917 153.569C209.312 154.126 209.959 154.404 210.855 154.404C211.61 154.404 212.191 154.095 212.6 153.477C213.008 152.858 213.212 151.977 213.212 150.833C213.212 149.682 213.008 148.813 212.6 148.226C212.198 147.632 211.604 147.335 210.818 147.335ZM223.185 145.554C223.624 145.554 223.986 145.585 224.271 145.646L224.057 147.678C223.748 147.604 223.426 147.567 223.092 147.567C222.22 147.567 221.512 147.851 220.968 148.42C220.43 148.989 220.161 149.729 220.161 150.638V156H217.98V145.739H219.688L219.975 147.548H220.086C220.427 146.936 220.869 146.451 221.413 146.092C221.964 145.733 222.554 145.554 223.185 145.554ZM234.893 150.851C234.893 152.527 234.463 153.835 233.604 154.775C232.744 155.715 231.547 156.186 230.013 156.186C229.055 156.186 228.207 155.969 227.471 155.536C226.735 155.103 226.169 154.482 225.773 153.671C225.378 152.861 225.18 151.921 225.18 150.851C225.18 149.187 225.606 147.889 226.46 146.955C227.313 146.021 228.516 145.554 230.069 145.554C231.553 145.554 232.728 146.033 233.594 146.992C234.46 147.944 234.893 149.231 234.893 150.851ZM227.425 150.851C227.425 153.22 228.3 154.404 230.05 154.404C231.782 154.404 232.648 153.22 232.648 150.851C232.648 148.507 231.776 147.335 230.032 147.335C229.116 147.335 228.451 147.638 228.037 148.244C227.629 148.85 227.425 149.719 227.425 150.851ZM241.229 154.423C241.761 154.423 242.293 154.339 242.825 154.172V155.814C242.584 155.92 242.272 156.006 241.888 156.074C241.511 156.148 241.118 156.186 240.71 156.186C238.644 156.186 237.611 155.097 237.611 152.92V147.391H236.21V146.426L237.713 145.628L238.456 143.457H239.801V145.739H242.723V147.391H239.801V152.883C239.801 153.409 239.931 153.798 240.19 154.052C240.456 154.299 240.803 154.423 241.229 154.423ZM249.366 156.186C247.77 156.186 246.521 155.722 245.618 154.794C244.721 153.86 244.272 152.577 244.272 150.944C244.272 149.268 244.69 147.95 245.525 146.992C246.36 146.033 247.507 145.554 248.967 145.554C250.321 145.554 251.391 145.965 252.177 146.788C252.962 147.61 253.355 148.742 253.355 150.183V151.361H246.518C246.549 152.357 246.818 153.124 247.325 153.662C247.832 154.194 248.546 154.46 249.468 154.46C250.074 154.46 250.637 154.404 251.156 154.293C251.682 154.175 252.245 153.984 252.845 153.718V155.49C252.313 155.743 251.775 155.923 251.23 156.028C250.686 156.133 250.065 156.186 249.366 156.186ZM248.967 147.205C248.274 147.205 247.717 147.425 247.297 147.864C246.882 148.303 246.635 148.943 246.555 149.784H251.212C251.2 148.937 250.995 148.297 250.6 147.864C250.204 147.425 249.66 147.205 248.967 147.205ZM259.97 156.186C258.417 156.186 257.236 155.734 256.426 154.831C255.622 153.922 255.22 152.62 255.22 150.925C255.22 149.2 255.64 147.873 256.481 146.945C257.329 146.018 258.55 145.554 260.146 145.554C261.228 145.554 262.202 145.755 263.068 146.157L262.41 147.91C261.488 147.551 260.727 147.372 260.127 147.372C258.352 147.372 257.465 148.55 257.465 150.907C257.465 152.057 257.684 152.923 258.124 153.504C258.569 154.08 259.218 154.367 260.072 154.367C261.043 154.367 261.961 154.126 262.827 153.644V155.545C262.438 155.774 262.02 155.938 261.575 156.037C261.136 156.136 260.601 156.186 259.97 156.186ZM269.062 154.423C269.593 154.423 270.125 154.339 270.657 154.172V155.814C270.416 155.92 270.104 156.006 269.72 156.074C269.343 156.148 268.95 156.186 268.542 156.186C266.476 156.186 265.443 155.097 265.443 152.92V147.391H264.042V146.426L265.545 145.628L266.288 143.457H267.633V145.739H270.555V147.391H267.633V152.883C267.633 153.409 267.763 153.798 268.022 154.052C268.288 154.299 268.635 154.423 269.062 154.423ZM277.198 156.186C275.602 156.186 274.353 155.722 273.45 154.794C272.553 153.86 272.104 152.577 272.104 150.944C272.104 149.268 272.522 147.95 273.357 146.992C274.192 146.033 275.339 145.554 276.799 145.554C278.153 145.554 279.223 145.965 280.009 146.788C280.794 147.61 281.187 148.742 281.187 150.183V151.361H274.35C274.381 152.357 274.65 153.124 275.157 153.662C275.664 154.194 276.378 154.46 277.3 154.46C277.906 154.46 278.469 154.404 278.988 154.293C279.514 154.175 280.077 153.984 280.677 153.718V155.49C280.145 155.743 279.607 155.923 279.062 156.028C278.518 156.133 277.897 156.186 277.198 156.186ZM276.799 147.205C276.106 147.205 275.549 147.425 275.129 147.864C274.715 148.303 274.467 148.943 274.387 149.784H279.044C279.032 148.937 278.827 148.297 278.432 147.864C278.036 147.425 277.492 147.205 276.799 147.205ZM287.125 156.186C285.844 156.186 284.845 155.722 284.128 154.794C283.41 153.866 283.052 152.564 283.052 150.888C283.052 149.206 283.414 147.898 284.137 146.964C284.867 146.024 285.875 145.554 287.162 145.554C288.51 145.554 289.537 146.052 290.242 147.047H290.353C290.248 146.311 290.195 145.73 290.195 145.303V141.564H292.385V156H290.678L290.297 154.655H290.195C289.496 155.675 288.473 156.186 287.125 156.186ZM287.709 154.423C288.606 154.423 289.258 154.172 289.667 153.671C290.075 153.164 290.285 152.345 290.297 151.213V150.907C290.297 149.614 290.087 148.696 289.667 148.151C289.246 147.607 288.587 147.335 287.69 147.335C286.924 147.335 286.333 147.647 285.918 148.272C285.504 148.89 285.297 149.775 285.297 150.925C285.297 152.063 285.498 152.932 285.9 153.532C286.302 154.126 286.905 154.423 287.709 154.423Z" fill="#3B9946"/>
		
		<rect x="0.5" y="203.5" width="360" height="59" rx="3.5" stroke="#BCBCBC"/>
		
		<path d="M283 224H337V222H283V224ZM339 226V241H341V226H339ZM337 243H283V245H337V243ZM281 241V226H279V241H281ZM283 243C281.895 243 281 242.105 281 241H279C279 243.209 280.791 245 283 245V243ZM339 241C339 242.105 338.105 243 337 243V245C339.209 245 341 243.209 341 241H339ZM337 224C338.105 224 339 224.895 339 226H341C341 223.791 339.209 222 337 222V224ZM283 222C280.791 222 279 223.791 279 226H281C281 224.895 281.895 224 283 224V222Z" fill="#2B8235"/>
		<path d="M280 226C280 224.343 281.343 223 283 223H337C338.657 223 340 224.343 340 226V241C340 242.657 338.657 244 337 244H283C281.343 244 280 242.657 280 241V226Z" fill="white"/>
		<path d="M293.993 230.201C293.052 230.201 292.308 230.516 291.761 231.145C291.218 231.77 290.946 232.627 290.946 233.717C290.946 234.838 291.208 235.705 291.732 236.318C292.259 236.928 293.009 237.232 293.982 237.232C294.579 237.232 295.261 237.125 296.027 236.91V237.783C295.433 238.006 294.7 238.117 293.829 238.117C292.568 238.117 291.593 237.734 290.905 236.969C290.222 236.203 289.88 235.115 289.88 233.705C289.88 232.822 290.044 232.049 290.372 231.385C290.704 230.721 291.181 230.209 291.802 229.85C292.427 229.49 293.161 229.311 294.005 229.311C294.904 229.311 295.689 229.475 296.361 229.803L295.939 230.658C295.29 230.354 294.642 230.201 293.993 230.201ZM302.024 238V233.846C302.024 233.322 301.905 232.932 301.666 232.674C301.428 232.416 301.055 232.287 300.547 232.287C299.871 232.287 299.377 232.471 299.065 232.838C298.756 233.205 298.602 233.807 298.602 234.643V238H297.629V228.883H298.602V231.643C298.602 231.975 298.586 232.25 298.555 232.469H298.614C298.805 232.16 299.076 231.918 299.428 231.742C299.784 231.562 300.188 231.473 300.641 231.473C301.426 231.473 302.014 231.66 302.405 232.035C302.799 232.406 302.996 232.998 302.996 233.811V238H302.024ZM308.83 238L308.636 237.086H308.589C308.269 237.488 307.949 237.762 307.628 237.906C307.312 238.047 306.915 238.117 306.439 238.117C305.802 238.117 305.302 237.953 304.939 237.625C304.58 237.297 304.4 236.83 304.4 236.225C304.4 234.928 305.437 234.248 307.511 234.186L308.601 234.15V233.752C308.601 233.248 308.492 232.877 308.273 232.639C308.058 232.396 307.712 232.275 307.236 232.275C306.701 232.275 306.095 232.439 305.419 232.768L305.121 232.023C305.437 231.852 305.783 231.717 306.158 231.619C306.537 231.521 306.915 231.473 307.294 231.473C308.06 231.473 308.626 231.643 308.994 231.982C309.365 232.322 309.55 232.867 309.55 233.617V238H308.83ZM306.632 237.314C307.238 237.314 307.712 237.148 308.056 236.816C308.404 236.484 308.578 236.02 308.578 235.422V234.842L307.605 234.883C306.831 234.91 306.273 235.031 305.929 235.246C305.589 235.457 305.419 235.787 305.419 236.236C305.419 236.588 305.525 236.855 305.736 237.039C305.951 237.223 306.249 237.314 306.632 237.314ZM315.835 238V233.846C315.835 233.322 315.715 232.932 315.477 232.674C315.239 232.416 314.866 232.287 314.358 232.287C313.686 232.287 313.194 232.469 312.881 232.832C312.569 233.195 312.413 233.795 312.413 234.631V238H311.44V231.578H312.231L312.389 232.457H312.436C312.635 232.141 312.915 231.896 313.274 231.725C313.633 231.549 314.034 231.461 314.475 231.461C315.249 231.461 315.831 231.648 316.221 232.023C316.612 232.395 316.807 232.99 316.807 233.811V238H315.835ZM323.947 231.578V232.193L322.757 232.334C322.867 232.471 322.965 232.65 323.05 232.873C323.136 233.092 323.179 233.34 323.179 233.617C323.179 234.246 322.965 234.748 322.535 235.123C322.105 235.498 321.515 235.686 320.765 235.686C320.574 235.686 320.394 235.67 320.226 235.639C319.812 235.857 319.605 236.133 319.605 236.465C319.605 236.641 319.677 236.771 319.822 236.857C319.966 236.939 320.215 236.98 320.566 236.98H321.703C322.398 236.98 322.931 237.127 323.302 237.42C323.677 237.713 323.865 238.139 323.865 238.697C323.865 239.408 323.58 239.949 323.009 240.32C322.439 240.695 321.607 240.883 320.513 240.883C319.674 240.883 319.025 240.727 318.568 240.414C318.115 240.102 317.888 239.66 317.888 239.09C317.888 238.699 318.013 238.361 318.263 238.076C318.513 237.791 318.865 237.598 319.318 237.496C319.154 237.422 319.015 237.307 318.902 237.15C318.793 236.994 318.738 236.812 318.738 236.605C318.738 236.371 318.8 236.166 318.925 235.99C319.05 235.814 319.248 235.645 319.517 235.48C319.185 235.344 318.914 235.111 318.703 234.783C318.496 234.455 318.392 234.08 318.392 233.658C318.392 232.955 318.603 232.414 319.025 232.035C319.447 231.652 320.045 231.461 320.818 231.461C321.154 231.461 321.457 231.5 321.726 231.578H323.947ZM318.826 239.078C318.826 239.426 318.972 239.689 319.265 239.869C319.558 240.049 319.978 240.139 320.525 240.139C321.341 240.139 321.945 240.016 322.336 239.77C322.73 239.527 322.927 239.197 322.927 238.779C322.927 238.432 322.82 238.189 322.605 238.053C322.39 237.92 321.986 237.854 321.392 237.854H320.226C319.785 237.854 319.441 237.959 319.195 238.17C318.949 238.381 318.826 238.684 318.826 239.078ZM319.353 233.635C319.353 234.084 319.48 234.424 319.734 234.654C319.988 234.885 320.341 235 320.795 235C321.744 235 322.218 234.539 322.218 233.617C322.218 232.652 321.738 232.17 320.777 232.17C320.32 232.17 319.968 232.293 319.722 232.539C319.476 232.785 319.353 233.15 319.353 233.635ZM327.858 238.117C326.909 238.117 326.159 237.828 325.608 237.25C325.061 236.672 324.788 235.869 324.788 234.842C324.788 233.807 325.042 232.984 325.55 232.375C326.061 231.766 326.747 231.461 327.606 231.461C328.411 231.461 329.048 231.727 329.516 232.258C329.985 232.785 330.22 233.482 330.22 234.35V234.965H325.796C325.815 235.719 326.005 236.291 326.364 236.682C326.727 237.072 327.237 237.268 327.893 237.268C328.585 237.268 329.268 237.123 329.944 236.834V237.701C329.6 237.85 329.274 237.955 328.966 238.018C328.661 238.084 328.292 238.117 327.858 238.117ZM327.595 232.275C327.079 232.275 326.667 232.443 326.358 232.779C326.054 233.115 325.874 233.58 325.819 234.174H329.177C329.177 233.561 329.04 233.092 328.766 232.768C328.493 232.439 328.102 232.275 327.595 232.275Z" fill="#2B8235"/>
		
		<path d="M350.567 19.9766C350.602 19.6559 350.625 19.3308 350.625 19.0001C350.625 18.6693 350.602 18.3442 350.566 18.023L348.104 17.1472C347.981 16.7444 347.82 16.3597 347.625 15.9941L348.746 13.6361C348.338 13.1247 347.874 12.6605 347.363 12.2523L345.005 13.3751C344.638 13.1778 344.251 13.0176 343.852 12.8969L342.977 10.4343C342.656 10.3983 342.331 10.3752 342 10.3752C341.669 10.3752 341.344 10.3977 341.023 10.4343L340.148 12.8969C339.745 13.019 339.36 13.1793 338.994 13.3751L336.636 12.2523C336.124 12.6601 335.66 13.1242 335.252 13.6361L336.375 15.9929C336.179 16.3586 336.019 16.7439 335.897 17.1461L333.434 18.0236C333.398 18.3442 333.375 18.6704 333.375 19.0006C333.375 19.3308 333.398 19.6559 333.434 19.9771L335.897 20.8535C336.019 21.2557 336.179 21.641 336.375 22.0066L335.253 24.3646C335.66 24.8765 336.125 25.3394 336.636 25.7472L338.993 24.6251C339.358 24.8208 339.744 24.9817 340.146 25.1043L341.022 27.5664C341.343 27.6018 341.668 27.6243 341.999 27.6243C342.33 27.6243 342.655 27.6018 342.976 27.5658L343.852 25.1032C344.254 24.9806 344.64 24.8197 345.005 24.6251L347.363 25.7456C347.875 25.3377 348.338 24.8737 348.746 24.3629L347.625 22.0055C347.821 21.6416 347.981 21.2551 348.104 20.8524L350.566 19.9766H350.567ZM342 21.7394C341.64 21.7395 341.284 21.6687 340.951 21.5311C340.619 21.3935 340.317 21.1917 340.062 20.9373C339.548 20.4236 339.259 19.7267 339.259 19.0001C339.259 18.2734 339.548 17.5764 340.061 17.0625C340.575 16.5485 341.272 16.2597 341.999 16.2596C342.725 16.2594 343.422 16.5479 343.936 17.0617C344.45 17.5754 344.739 18.2723 344.739 18.9989C344.739 19.7256 344.451 20.4226 343.937 20.9365C343.423 21.4505 342.726 21.7393 342 21.7394Z" fill="#7F7F7F"/>
	</symbol>
	
	<symbol viewBox="0 0 361 263" id="symbol_uk">
		<g clip-path="url(#clip0)">
			<path d="M52 222.021H20V243.978H52V222.021Z" fill="white"/>
			<path d="M38 222.021H34V230.941H20V235.058H34V243.978H38V235.058H52V230.941H38V222.021Z" fill="#D80027"/>
			<path d="M44.6123 236.818L52.0007 241.043V236.818H44.6123Z" fill="#0052B4"/>
			<path d="M39.4785 236.818L52.0003 243.978V241.954L43.0195 236.818H39.4785Z" fill="#0052B4"/>
			<path d="M48.6649 243.978L39.4785 238.725V243.978H48.6649Z" fill="#0052B4"/>
			<path d="M39.4785 236.818L52.0003 243.978V241.954L43.0195 236.818H39.4785Z" fill="white"/>
			<path d="M39.4785 236.818L52.0003 243.978V241.954L43.0195 236.818H39.4785Z" fill="#D80027"/>
			<path d="M25.6463 236.818L20 240.047V236.818H25.6463Z" fill="#0052B4"/>
			<path d="M32.5213 237.729V243.978H21.5928L32.5213 237.729Z" fill="#0052B4"/>
			<path d="M28.9808 236.818L20 241.954V243.978L32.5218 236.818H28.9808Z" fill="#D80027"/>
			<path d="M27.3884 229.181L20 224.957V229.181H27.3884Z" fill="#0052B4"/>
			<path d="M32.5218 229.181L20 222.021V224.045L28.9808 229.181H32.5218Z" fill="#0052B4"/>
			<path d="M23.335 222.021L32.5213 227.274V222.021H23.335Z" fill="#0052B4"/>
			<path d="M32.5218 229.181L20 222.021V224.045L28.9808 229.181H32.5218Z" fill="white"/>
			<path d="M32.5218 229.181L20 222.021V224.045L28.9808 229.181H32.5218Z" fill="#D80027"/>
			<path d="M46.3535 229.181L51.9998 225.953V229.181H46.3535Z" fill="#0052B4"/>
			<path d="M39.4785 228.27V222.021H50.4071L39.4785 228.27Z" fill="#0052B4"/>
			<path d="M43.0195 229.181L52.0003 224.045V222.021L39.4785 229.181H43.0195Z" fill="#D80027"/>
		</g>
		<path d="M23 223H49V221H23V223ZM51 225V241H53V225H51ZM49 243H23V245H49V243ZM21 241V225H19V241H21ZM23 243C21.8954 243 21 242.105 21 241H19C19 243.209 20.7909 245 23 245V243ZM51 241C51 242.105 50.1046 243 49 243V245C51.2091 245 53 243.209 53 241H51ZM49 223C50.1046 223 51 223.895 51 225H53C53 222.791 51.2091 221 49 221V223ZM23 221C20.7909 221 19 222.791 19 225H21C21 223.895 21.8954 223 23 223V221Z" fill="#D9D8DD"/>
		<path d="M76.4697 227.15V235.465C76.4697 236.93 76.0273 238.081 75.1426 238.919C74.2578 239.757 73.042 240.176 71.4951 240.176C69.9482 240.176 68.75 239.754 67.9004 238.91C67.0566 238.066 66.6348 236.906 66.6348 235.43V227.15H68.1289V235.535C68.1289 236.607 68.4219 237.431 69.0078 238.005C69.5938 238.579 70.4551 238.866 71.5918 238.866C72.6758 238.866 73.5107 238.579 74.0967 238.005C74.6826 237.425 74.9756 236.596 74.9756 235.518V227.15H76.4697ZM86.072 240V233.769C86.072 232.983 85.8932 232.397 85.5358 232.011C85.1784 231.624 84.6188 231.431 83.8571 231.431C82.8493 231.431 82.111 231.703 81.6423 232.248C81.1735 232.793 80.9391 233.692 80.9391 234.946V240H79.4802V230.367H80.6667L80.904 231.686H80.9743C81.2731 231.211 81.6921 230.845 82.2311 230.587C82.7702 230.323 83.3708 230.191 84.0329 230.191C85.193 230.191 86.0661 230.473 86.652 231.035C87.238 231.592 87.5309 232.485 87.5309 233.716V240H86.072ZM91.8158 240H90.3568V230.367H91.8158V240ZM90.2337 227.757C90.2337 227.423 90.3158 227.18 90.4798 227.027C90.6439 226.869 90.849 226.79 91.0951 226.79C91.3295 226.79 91.5316 226.869 91.7015 227.027C91.8714 227.186 91.9564 227.429 91.9564 227.757C91.9564 228.085 91.8714 228.331 91.7015 228.495C91.5316 228.653 91.3295 228.732 91.0951 228.732C90.849 228.732 90.6439 228.653 90.4798 228.495C90.3158 228.331 90.2337 228.085 90.2337 227.757ZM97.8409 238.972C98.0987 238.972 98.3477 238.954 98.5879 238.919C98.8282 238.878 99.0186 238.837 99.1592 238.796V239.912C99.001 239.988 98.7666 240.05 98.4561 240.097C98.1514 240.149 97.876 240.176 97.6299 240.176C95.7666 240.176 94.835 239.194 94.835 237.231V231.501H93.4551V230.798L94.835 230.191L95.4502 228.135H96.294V230.367H99.0889V231.501H96.294V237.17C96.294 237.75 96.4317 238.195 96.7071 238.506C96.9825 238.816 97.3604 238.972 97.8409 238.972ZM104.982 240.176C103.558 240.176 102.433 239.742 101.607 238.875C100.787 238.008 100.377 236.804 100.377 235.263C100.377 233.71 100.758 232.477 101.519 231.562C102.287 230.648 103.315 230.191 104.604 230.191C105.811 230.191 106.766 230.59 107.469 231.387C108.173 232.178 108.524 233.224 108.524 234.524V235.447H101.888C101.918 236.578 102.202 237.437 102.741 238.022C103.286 238.608 104.051 238.901 105.035 238.901C106.072 238.901 107.097 238.685 108.111 238.251V239.552C107.595 239.774 107.106 239.933 106.643 240.026C106.186 240.126 105.633 240.176 104.982 240.176ZM104.587 231.413C103.813 231.413 103.195 231.665 102.732 232.169C102.275 232.673 102.006 233.37 101.924 234.261H106.96C106.96 233.341 106.755 232.638 106.344 232.151C105.934 231.659 105.348 231.413 104.587 231.413ZM117.397 238.708H117.318C116.644 239.687 115.636 240.176 114.294 240.176C113.035 240.176 112.053 239.745 111.35 238.884C110.653 238.022 110.304 236.798 110.304 235.21C110.304 233.622 110.656 232.389 111.359 231.51C112.062 230.631 113.04 230.191 114.294 230.191C115.601 230.191 116.603 230.666 117.3 231.615H117.414L117.353 230.921L117.318 230.244V226.324H118.777V240H117.59L117.397 238.708ZM114.479 238.954C115.475 238.954 116.196 238.685 116.641 238.146C117.092 237.601 117.318 236.725 117.318 235.518V235.21C117.318 233.845 117.089 232.872 116.632 232.292C116.181 231.706 115.457 231.413 114.461 231.413C113.606 231.413 112.95 231.747 112.493 232.415C112.041 233.077 111.816 234.015 111.816 235.228C111.816 236.458 112.041 237.387 112.493 238.014C112.944 238.641 113.606 238.954 114.479 238.954ZM135.696 240H133.938L129.254 233.769L127.909 234.964V240H126.415V227.15H127.909V233.522L133.736 227.15H135.503L130.335 232.731L135.696 240ZM138.531 240H137.072V230.367H138.531V240ZM136.949 227.757C136.949 227.423 137.031 227.18 137.195 227.027C137.359 226.869 137.564 226.79 137.81 226.79C138.044 226.79 138.247 226.869 138.416 227.027C138.586 227.186 138.671 227.429 138.671 227.757C138.671 228.085 138.586 228.331 138.416 228.495C138.247 228.653 138.044 228.732 137.81 228.732C137.564 228.732 137.359 228.653 137.195 228.495C137.031 228.331 136.949 228.085 136.949 227.757ZM148.036 240V233.769C148.036 232.983 147.858 232.397 147.5 232.011C147.143 231.624 146.583 231.431 145.821 231.431C144.814 231.431 144.075 231.703 143.607 232.248C143.138 232.793 142.903 233.692 142.903 234.946V240H141.444V230.367H142.631L142.868 231.686H142.939C143.237 231.211 143.656 230.845 144.195 230.587C144.734 230.323 145.335 230.191 145.997 230.191C147.157 230.191 148.03 230.473 148.616 231.035C149.202 231.592 149.495 232.485 149.495 233.716V240H148.036ZM160.205 230.367V231.29L158.421 231.501C158.585 231.706 158.731 231.976 158.86 232.31C158.989 232.638 159.054 233.01 159.054 233.426C159.054 234.369 158.731 235.122 158.087 235.685C157.442 236.247 156.557 236.528 155.432 236.528C155.145 236.528 154.876 236.505 154.624 236.458C154.003 236.786 153.692 237.199 153.692 237.697C153.692 237.961 153.801 238.157 154.017 238.286C154.234 238.409 154.606 238.471 155.134 238.471H156.839C157.882 238.471 158.681 238.69 159.238 239.13C159.801 239.569 160.082 240.208 160.082 241.046C160.082 242.112 159.654 242.924 158.799 243.48C157.943 244.043 156.695 244.324 155.054 244.324C153.795 244.324 152.822 244.09 152.137 243.621C151.457 243.152 151.117 242.49 151.117 241.635C151.117 241.049 151.304 240.542 151.679 240.114C152.054 239.687 152.582 239.396 153.262 239.244C153.015 239.133 152.807 238.96 152.637 238.726C152.473 238.491 152.391 238.219 152.391 237.908C152.391 237.557 152.485 237.249 152.673 236.985C152.86 236.722 153.156 236.467 153.56 236.221C153.062 236.016 152.655 235.667 152.339 235.175C152.028 234.683 151.873 234.12 151.873 233.487C151.873 232.433 152.189 231.621 152.822 231.053C153.455 230.479 154.351 230.191 155.512 230.191C156.015 230.191 156.47 230.25 156.874 230.367H160.205ZM152.523 241.617C152.523 242.139 152.743 242.534 153.182 242.804C153.622 243.073 154.252 243.208 155.072 243.208C156.297 243.208 157.202 243.023 157.788 242.654C158.38 242.291 158.676 241.796 158.676 241.169C158.676 240.647 158.514 240.284 158.192 240.079C157.87 239.88 157.263 239.78 156.373 239.78H154.624C153.962 239.78 153.446 239.938 153.077 240.255C152.708 240.571 152.523 241.025 152.523 241.617ZM153.314 233.452C153.314 234.126 153.505 234.636 153.886 234.981C154.266 235.327 154.797 235.5 155.476 235.5C156.9 235.5 157.612 234.809 157.612 233.426C157.612 231.979 156.891 231.255 155.45 231.255C154.764 231.255 154.237 231.439 153.868 231.809C153.499 232.178 153.314 232.726 153.314 233.452ZM168.559 238.708H168.48C167.806 239.687 166.798 240.176 165.457 240.176C164.197 240.176 163.215 239.745 162.512 238.884C161.815 238.022 161.466 236.798 161.466 235.21C161.466 233.622 161.818 232.389 162.521 231.51C163.224 230.631 164.203 230.191 165.457 230.191C166.763 230.191 167.765 230.666 168.462 231.615H168.577L168.515 230.921L168.48 230.244V226.324H169.939V240H168.752L168.559 238.708ZM165.641 238.954C166.637 238.954 167.358 238.685 167.803 238.146C168.254 237.601 168.48 236.725 168.48 235.518V235.21C168.48 233.845 168.251 232.872 167.794 232.292C167.343 231.706 166.62 231.413 165.624 231.413C164.768 231.413 164.112 231.747 163.655 232.415C163.204 233.077 162.978 234.015 162.978 235.228C162.978 236.458 163.204 237.387 163.655 238.014C164.106 238.641 164.768 238.954 165.641 238.954ZM181.176 235.175C181.176 236.745 180.78 237.973 179.989 238.857C179.198 239.736 178.106 240.176 176.711 240.176C175.85 240.176 175.085 239.974 174.417 239.569C173.749 239.165 173.234 238.585 172.87 237.829C172.507 237.073 172.325 236.188 172.325 235.175C172.325 233.604 172.718 232.383 173.503 231.51C174.288 230.631 175.378 230.191 176.773 230.191C178.12 230.191 179.19 230.64 179.981 231.536C180.777 232.433 181.176 233.646 181.176 235.175ZM173.837 235.175C173.837 236.405 174.083 237.343 174.575 237.987C175.068 238.632 175.791 238.954 176.746 238.954C177.701 238.954 178.425 238.635 178.917 237.996C179.415 237.352 179.664 236.411 179.664 235.175C179.664 233.95 179.415 233.021 178.917 232.389C178.425 231.75 177.695 231.431 176.729 231.431C175.774 231.431 175.053 231.744 174.567 232.371C174.08 232.998 173.837 233.933 173.837 235.175ZM195.841 240V233.733C195.841 232.966 195.677 232.392 195.348 232.011C195.02 231.624 194.511 231.431 193.819 231.431C192.911 231.431 192.24 231.691 191.806 232.213C191.373 232.734 191.156 233.537 191.156 234.621V240H189.697V233.733C189.697 232.966 189.533 232.392 189.205 232.011C188.877 231.624 188.364 231.431 187.667 231.431C186.753 231.431 186.082 231.706 185.654 232.257C185.232 232.802 185.021 233.698 185.021 234.946V240H183.562V230.367H184.749L184.986 231.686H185.056C185.332 231.217 185.719 230.851 186.217 230.587C186.721 230.323 187.283 230.191 187.904 230.191C189.41 230.191 190.394 230.736 190.857 231.826H190.928C191.215 231.322 191.631 230.924 192.176 230.631C192.721 230.338 193.342 230.191 194.039 230.191C195.129 230.191 195.943 230.473 196.482 231.035C197.027 231.592 197.3 232.485 197.3 233.716V240H195.841Z" fill="black"/>
		
		<rect x="242" y="235" width="3" height="4" rx="1" fill="#E0B300"/>
		<rect x="247" y="233" width="3" height="6" rx="1" fill="#E0B300"/>
		<rect x="252" y="231" width="3" height="8" rx="1" fill="#E0B300"/>
		<rect x="257" y="229" width="3" height="10" rx="1" fill="#CED9DF"/>
		<rect x="262" y="227" width="3" height="12" rx="1" fill="#CED9DF"/>
	</symbol>
	
	<symbol viewBox="0 0 361 263" id="symbol_us">
		<path d="M52 222H20V244H52V222Z" fill="white"/>
		<path d="M52 224.75H20V227.499H52V224.75Z" fill="#D80027"/>
		<path d="M52 230.25H20V233H52V230.25Z" fill="#D80027"/>
		<path d="M52 235.749H20V238.499H52V235.749Z" fill="#D80027"/>
		<path d="M52 241.25H20V243.999H52V241.25Z" fill="#D80027"/>
		<path d="M36 222H20V233.846H36V222Z" fill="#2E52B2"/>
		<path d="M26.2396 226.853L25.9819 227.67H25.1484L25.8229 228.175L25.5652 228.993L26.2396 228.488L26.9136 228.993L26.656 228.175L27.3304 227.67H26.4969L26.2396 226.853Z" fill="#F0F0F0"/>
		<path d="M26.4969 230.62L26.2396 229.803L25.9819 230.62H25.1484L25.8229 231.125L25.5652 231.943L26.2396 231.438L26.9136 231.943L26.656 231.125L27.3304 230.62H26.4969Z" fill="#F0F0F0"/>
		<path d="M22.9735 230.62L22.7162 229.803L22.4585 230.62H21.625L22.2994 231.125L22.0417 231.943L22.7162 231.438L23.3902 231.943L23.1326 231.125L23.8069 230.62H22.9735Z" fill="#F0F0F0"/>
		<path d="M22.7162 226.853L22.4585 227.67H21.625L22.2994 228.175L22.0417 228.993L22.7162 228.488L23.3902 228.993L23.1326 228.175L23.8069 227.67H22.9735L22.7162 226.853Z" fill="#F0F0F0"/>
		<path d="M26.2396 223.903L25.9819 224.72H25.1484L25.8229 225.225L25.5652 226.043L26.2396 225.538L26.9136 226.043L26.656 225.225L27.3304 224.72H26.4969L26.2396 223.903Z" fill="#F0F0F0"/>
		<path d="M22.7162 223.903L22.4585 224.72H21.625L22.2994 225.225L22.0417 226.043L22.7162 225.538L23.3902 226.043L23.1326 225.225L23.8069 224.72H22.9735L22.7162 223.903Z" fill="#F0F0F0"/>
		<path d="M29.761 226.853L29.5034 227.67H28.6699L29.3443 228.175L29.0867 228.993L29.761 228.488L30.4352 228.993L30.1775 228.175L30.8519 227.67H30.0184L29.761 226.853Z" fill="#F0F0F0"/>
		<path d="M30.0184 230.62L29.761 229.803L29.5034 230.62H28.6699L29.3443 231.125L29.0867 231.943L29.761 231.438L30.4352 231.943L30.1775 231.125L30.8519 230.62H30.0184Z" fill="#F0F0F0"/>
		<path d="M33.5418 230.62L33.2845 229.803L33.0268 230.62H32.1934L32.8677 231.125L32.61 231.943L33.2845 231.438L33.9585 231.943L33.7009 231.125L34.3753 230.62H33.5418Z" fill="#F0F0F0"/>
		<path d="M33.2845 226.853L33.0268 227.67H32.1934L32.8677 228.175L32.61 228.993L33.2845 228.488L33.9585 228.993L33.7009 228.175L34.3753 227.67H33.5418L33.2845 226.853Z" fill="#F0F0F0"/>
		<path d="M29.761 223.903L29.5034 224.72H28.6699L29.3443 225.225L29.0867 226.043L29.761 225.538L30.4352 226.043L30.1775 225.225L30.8519 224.72H30.0184L29.761 223.903Z" fill="#F0F0F0"/>
		<path d="M33.2845 223.903L33.0268 224.72H32.1934L32.8677 225.225L32.61 226.043L33.2845 225.538L33.9585 226.043L33.7009 225.225L34.3753 224.72H33.5418L33.2845 223.903Z" fill="#F0F0F0"/>
		<path d="M23 223H49V221H23V223ZM51 225V241H53V225H51ZM49 243H23V245H49V243ZM21 241V225H19V241H21ZM23 243C21.8954 243 21 242.105 21 241H19C19 243.209 20.7909 245 23 245V243ZM51 241C51 242.105 50.1046 243 49 243V245C51.2091 245 53 243.209 53 241H51ZM49 223C50.1046 223 51 223.895 51 225H53C53 222.791 51.2091 221 49 221V223ZM23 221C20.7909 221 19 222.791 19 225H21C21 223.895 21.8954 223 23 223V221Z" fill="#D9D8DD"/>
		<path d="M76.4697 227.15V235.465C76.4697 236.93 76.0273 238.081 75.1426 238.919C74.2578 239.757 73.042 240.176 71.4951 240.176C69.9482 240.176 68.75 239.754 67.9004 238.91C67.0566 238.066 66.6348 236.906 66.6348 235.43V227.15H68.1289V235.535C68.1289 236.607 68.4219 237.431 69.0078 238.005C69.5938 238.579 70.4551 238.866 71.5918 238.866C72.6758 238.866 73.5107 238.579 74.0967 238.005C74.6826 237.425 74.9756 236.596 74.9756 235.518V227.15H76.4697ZM86.072 240V233.769C86.072 232.983 85.8932 232.397 85.5358 232.011C85.1784 231.624 84.6188 231.431 83.8571 231.431C82.8493 231.431 82.111 231.703 81.6423 232.248C81.1735 232.793 80.9391 233.692 80.9391 234.946V240H79.4802V230.367H80.6667L80.904 231.686H80.9743C81.2731 231.211 81.6921 230.845 82.2311 230.587C82.7702 230.323 83.3708 230.191 84.0329 230.191C85.193 230.191 86.0661 230.473 86.652 231.035C87.238 231.592 87.5309 232.485 87.5309 233.716V240H86.072ZM91.8158 240H90.3568V230.367H91.8158V240ZM90.2337 227.757C90.2337 227.423 90.3158 227.18 90.4798 227.027C90.6439 226.869 90.849 226.79 91.0951 226.79C91.3295 226.79 91.5316 226.869 91.7015 227.027C91.8714 227.186 91.9564 227.429 91.9564 227.757C91.9564 228.085 91.8714 228.331 91.7015 228.495C91.5316 228.653 91.3295 228.732 91.0951 228.732C90.849 228.732 90.6439 228.653 90.4798 228.495C90.3158 228.331 90.2337 228.085 90.2337 227.757ZM97.8409 238.972C98.0987 238.972 98.3477 238.954 98.5879 238.919C98.8282 238.878 99.0186 238.837 99.1592 238.796V239.912C99.001 239.988 98.7666 240.05 98.4561 240.097C98.1514 240.149 97.876 240.176 97.6299 240.176C95.7666 240.176 94.835 239.194 94.835 237.231V231.501H93.4551V230.798L94.835 230.191L95.4502 228.135H96.294V230.367H99.0889V231.501H96.294V237.17C96.294 237.75 96.4317 238.195 96.7071 238.506C96.9825 238.816 97.3604 238.972 97.8409 238.972ZM104.982 240.176C103.558 240.176 102.433 239.742 101.607 238.875C100.787 238.008 100.377 236.804 100.377 235.263C100.377 233.71 100.758 232.477 101.519 231.562C102.287 230.648 103.315 230.191 104.604 230.191C105.811 230.191 106.766 230.59 107.469 231.387C108.173 232.178 108.524 233.224 108.524 234.524V235.447H101.888C101.918 236.578 102.202 237.437 102.741 238.022C103.286 238.608 104.051 238.901 105.035 238.901C106.072 238.901 107.097 238.685 108.111 238.251V239.552C107.595 239.774 107.106 239.933 106.643 240.026C106.186 240.126 105.633 240.176 104.982 240.176ZM104.587 231.413C103.813 231.413 103.195 231.665 102.732 232.169C102.275 232.673 102.006 233.37 101.924 234.261H106.96C106.96 233.341 106.755 232.638 106.344 232.151C105.934 231.659 105.348 231.413 104.587 231.413ZM117.397 238.708H117.318C116.644 239.687 115.636 240.176 114.294 240.176C113.035 240.176 112.053 239.745 111.35 238.884C110.653 238.022 110.304 236.798 110.304 235.21C110.304 233.622 110.656 232.389 111.359 231.51C112.062 230.631 113.04 230.191 114.294 230.191C115.601 230.191 116.603 230.666 117.3 231.615H117.414L117.353 230.921L117.318 230.244V226.324H118.777V240H117.59L117.397 238.708ZM114.479 238.954C115.475 238.954 116.196 238.685 116.641 238.146C117.092 237.601 117.318 236.725 117.318 235.518V235.21C117.318 233.845 117.089 232.872 116.632 232.292C116.181 231.706 115.457 231.413 114.461 231.413C113.606 231.413 112.95 231.747 112.493 232.415C112.041 233.077 111.816 234.015 111.816 235.228C111.816 236.458 112.041 237.387 112.493 238.014C112.944 238.641 113.606 238.954 114.479 238.954ZM133.666 236.581C133.666 237.712 133.256 238.594 132.435 239.227C131.615 239.859 130.502 240.176 129.095 240.176C127.572 240.176 126.4 239.979 125.58 239.587V238.146C126.107 238.368 126.681 238.544 127.303 238.673C127.924 238.802 128.539 238.866 129.148 238.866C130.144 238.866 130.894 238.679 131.398 238.304C131.902 237.923 132.154 237.396 132.154 236.722C132.154 236.276 132.063 235.913 131.882 235.632C131.706 235.345 131.407 235.081 130.985 234.841C130.569 234.601 129.933 234.328 129.078 234.023C127.883 233.596 127.027 233.089 126.511 232.503C126.002 231.917 125.747 231.152 125.747 230.209C125.747 229.219 126.119 228.431 126.863 227.845C127.607 227.259 128.592 226.966 129.816 226.966C131.094 226.966 132.268 227.2 133.341 227.669L132.875 228.97C131.814 228.524 130.783 228.302 129.781 228.302C128.99 228.302 128.372 228.472 127.927 228.812C127.481 229.151 127.259 229.623 127.259 230.227C127.259 230.672 127.341 231.038 127.505 231.325C127.669 231.606 127.944 231.867 128.331 232.107C128.723 232.342 129.321 232.603 130.124 232.89C131.471 233.37 132.397 233.886 132.901 234.437C133.411 234.987 133.666 235.702 133.666 236.581ZM139.005 238.972C139.263 238.972 139.512 238.954 139.752 238.919C139.993 238.878 140.183 238.837 140.324 238.796V239.912C140.165 239.988 139.931 240.05 139.621 240.097C139.316 240.149 139.04 240.176 138.794 240.176C136.931 240.176 135.999 239.194 135.999 237.231V231.501H134.62V230.798L135.999 230.191L136.615 228.135H137.458V230.367H140.253V231.501H137.458V237.17C137.458 237.75 137.596 238.195 137.872 238.506C138.147 238.816 138.525 238.972 139.005 238.972ZM148.001 240L147.711 238.629H147.641C147.16 239.232 146.68 239.643 146.199 239.859C145.725 240.07 145.13 240.176 144.415 240.176C143.46 240.176 142.71 239.93 142.165 239.438C141.626 238.945 141.357 238.245 141.357 237.337C141.357 235.392 142.912 234.372 146.024 234.278L147.658 234.226V233.628C147.658 232.872 147.494 232.315 147.166 231.958C146.844 231.595 146.325 231.413 145.61 231.413C144.808 231.413 143.9 231.659 142.886 232.151L142.438 231.035C142.912 230.777 143.431 230.575 143.993 230.429C144.562 230.282 145.13 230.209 145.698 230.209C146.847 230.209 147.696 230.464 148.247 230.974C148.804 231.483 149.082 232.301 149.082 233.426V240H148.001ZM144.705 238.972C145.613 238.972 146.325 238.723 146.841 238.225C147.362 237.727 147.623 237.029 147.623 236.133V235.263L146.164 235.324C145.004 235.365 144.166 235.547 143.651 235.869C143.141 236.186 142.886 236.681 142.886 237.354C142.886 237.882 143.044 238.283 143.36 238.559C143.683 238.834 144.131 238.972 144.705 238.972ZM155.028 238.972C155.286 238.972 155.535 238.954 155.775 238.919C156.015 238.878 156.206 238.837 156.346 238.796V239.912C156.188 239.988 155.954 240.05 155.643 240.097C155.339 240.149 155.063 240.176 154.817 240.176C152.954 240.176 152.022 239.194 152.022 237.231V231.501H150.642V230.798L152.022 230.191L152.637 228.135H153.481V230.367H156.276V231.501H153.481V237.17C153.481 237.75 153.619 238.195 153.894 238.506C154.17 238.816 154.548 238.972 155.028 238.972ZM162.169 240.176C160.746 240.176 159.621 239.742 158.794 238.875C157.974 238.008 157.564 236.804 157.564 235.263C157.564 233.71 157.945 232.477 158.707 231.562C159.474 230.648 160.502 230.191 161.791 230.191C162.999 230.191 163.954 230.59 164.657 231.387C165.36 232.178 165.711 233.224 165.711 234.524V235.447H159.076C159.105 236.578 159.389 237.437 159.928 238.022C160.473 238.608 161.238 238.901 162.222 238.901C163.259 238.901 164.285 238.685 165.298 238.251V239.552C164.783 239.774 164.293 239.933 163.831 240.026C163.374 240.126 162.82 240.176 162.169 240.176ZM161.774 231.413C161 231.413 160.382 231.665 159.919 232.169C159.462 232.673 159.193 233.37 159.111 234.261H164.147C164.147 233.341 163.942 232.638 163.532 232.151C163.122 231.659 162.536 231.413 161.774 231.413ZM174.241 237.372C174.241 238.269 173.907 238.96 173.239 239.446C172.571 239.933 171.634 240.176 170.427 240.176C169.15 240.176 168.153 239.974 167.439 239.569V238.216C167.902 238.45 168.397 238.635 168.924 238.77C169.457 238.904 169.97 238.972 170.462 238.972C171.224 238.972 171.81 238.852 172.22 238.611C172.63 238.365 172.835 237.993 172.835 237.495C172.835 237.12 172.671 236.801 172.343 236.537C172.021 236.268 171.388 235.951 170.444 235.588C169.548 235.254 168.909 234.964 168.528 234.718C168.153 234.466 167.872 234.182 167.685 233.865C167.503 233.549 167.412 233.171 167.412 232.731C167.412 231.946 167.732 231.328 168.37 230.877C169.009 230.42 169.885 230.191 170.998 230.191C172.035 230.191 173.049 230.402 174.039 230.824L173.521 232.011C172.554 231.612 171.678 231.413 170.893 231.413C170.201 231.413 169.68 231.521 169.328 231.738C168.977 231.955 168.801 232.254 168.801 232.635C168.801 232.893 168.865 233.112 168.994 233.294C169.129 233.476 169.343 233.648 169.636 233.812C169.929 233.977 170.491 234.214 171.323 234.524C172.466 234.94 173.236 235.359 173.635 235.781C174.039 236.203 174.241 236.733 174.241 237.372Z" fill="black"/>
		<rect x="242" y="235" width="3" height="4" rx="1" fill="#E0B300"/>
		<rect x="247" y="233" width="3" height="6" rx="1" fill="#E0B300"/>
		<rect x="252" y="231" width="3" height="8" rx="1" fill="#E0B300"/>
		<rect x="257" y="229" width="3" height="10" rx="1" fill="#CED9DF"/>
		<rect x="262" y="227" width="3" height="12" rx="1" fill="#CED9DF"/>
	</symbol>
	
	<use id="use_white" xlink:href="#symbol_popup" width="361" height="263" x="0" y="0"></use>
	<use id="use_grey" xlink:href="#symbol_popup" width="361" height="263" x="500" y="0"></use>
	<use id="use_white" xlink:href="#symbol_popup" width="361" height="263" x="1000" y="0"></use>
	<use id="use_grey" xlink:href="#symbol_popup" width="361" height="263" x="1500" y="0"></use>
	
	<use xlink:href="#symbol_uk" width="361" height="263" x="0" y="0"></use>
	<use xlink:href="#symbol_uk" width="361" height="263" x="500" y="0"></use>
	<use xlink:href="#symbol_us" width="361" height="263" x="1000" y="0"></use>
	<use xlink:href="#symbol_us" width="361" height="263" x="1500" y="0"></use>
	
	
	<view id="uk" width="361" height="263" viewBox="0 0 361 263" />
  <view id="uk_hover" width="361" height="263" viewBox="500 0 361 263" />
	<view id="us" width="361" height="263" viewBox="1000 0 361 263" />
  <view id="us_hover" width="361" height="263" viewBox="1500 0 361 263" />
</svg>
