<svg width="24" height="24" viewBox="0 0 24 24" fill="none" xmlns="http://www.w3.org/2000/svg">
<path fill-rule="evenodd" clip-rule="evenodd" d="M12 23.5C18.3513 23.5 23.5 18.3513 23.5 12C23.5 5.64873 18.3513 0.5 12 0.5C5.64873 0.5 0.5 5.64873 0.5 12C0.5 18.3513 5.64873 23.5 12 23.5Z" fill="white"/>
<path fill-rule="evenodd" clip-rule="evenodd" d="M3.82855 20.788H20.1715C19.5116 21.4019 18.7824 21.9423 17.9971 22.3963H6.00294C5.21758 21.9423 4.48844 21.4019 3.82855 20.788H20.1715H3.82855ZM23.3283 15.9683L23.3137 16.0099C22.9635 16.998 22.4874 17.9266 21.9049 18.7764L21.6147 19.1816H2.38531L2.09509 18.7764C1.51255 17.9266 1.03655 16.998 0.686318 16.0099L0.824705 16.3806C0.931602 16.6531 1.04818 16.9208 1.17401 17.1831L1.36964 17.5726H22.6304C22.8328 17.1872 23.0149 16.7894 23.1753 16.3806L23.3137 16.0099L23.3283 15.9683ZM0.231883 14.3594H23.7681C23.6582 14.9105 23.5106 15.448 23.3281 15.969H0.671924C0.489375 15.448 0.341758 14.9105 0.231883 14.3594H23.7681H0.231883ZM12 0C12.47 0 12.9338 0.0270253 13.3897 0.0796069L13.4863 0.0911353L12.6094 1.50058L17.814 1.49997C18.6249 1.94995 19.3782 2.49116 20.0601 3.10972L13.1093 3.11297V4.71967L21.54 4.71963C21.4583 4.61271 21.3748 4.50721 21.2896 4.40316C21.669 4.86647 22.0145 5.3589 22.3222 5.87652L22.5767 6.32648L13.1491 6.32636V7.93305L23.2931 7.93245C23.2476 7.80635 23.2002 7.68124 23.1507 7.55714C23.4042 8.193 23.605 8.85546 23.7475 9.53927L12.9467 9.53975V11.1464L23.9701 11.1467C23.9899 11.4285 24 11.7131 24 12C24 12.253 23.9922 12.5042 23.9767 12.7534H0.0232664C0.00783186 12.5042 0 12.253 0 12C0 5.37258 5.37258 0 12 0Z" fill="white"/>
<path fill-rule="evenodd" clip-rule="evenodd" d="M17.9985 22.3955C16.2338 23.416 14.1851 24 12 24C9.95169 24 8.02324 23.4868 6.33623 22.582L6.00208 22.3958L17.9985 22.3955ZM21.6147 19.1816C21.1826 19.7592 20.6996 20.2966 20.1724 20.7871H3.82755C3.40583 20.3947 3.01239 19.9723 2.65063 19.5233L2.38531 19.1816H21.6147ZM23.3283 15.9683C23.1341 16.5228 22.9003 17.0587 22.6304 17.5726H1.36963C1.16717 17.1872 0.985046 16.7894 0.824702 16.3806L0.671669 15.9683H23.3283ZM23.9767 12.7539C23.9429 13.2998 23.8725 13.8357 23.7681 14.3594H0.231879C0.153567 13.9667 0.0944268 13.567 0.055476 13.1614L0.0232925 12.7539H23.9767ZM23.7475 9.53927C23.8266 9.91892 23.8878 10.3052 23.9301 10.697L23.9701 11.1467L12.9467 11.1464V9.53975L23.7475 9.53927ZM22.5767 6.32648C22.853 6.84049 23.093 7.37696 23.2931 7.93245L13.1491 7.93305V6.32636L22.5767 6.32648ZM20.0611 3.11063C20.6012 3.60072 21.0965 4.13935 21.54 4.71963L13.1092 4.71967V3.11297L20.0611 3.11063ZM13.4863 0.0911353C15.0405 0.283132 16.5027 0.772341 17.8143 1.50014L12.6094 1.50058L13.4863 0.0911353Z" fill="#F65260"/>
<path fill-rule="evenodd" clip-rule="evenodd" d="M12 0C12.5226 0 13.0374 0.0334053 13.5425 0.0981972V11.205L0.0258789 11.2056C0.132479 9.57451 0.564968 8.03234 1.25887 6.64358L1.43737 6.30031L2.57143 6.3V4.7L2.47614 4.69859L2.57084 4.57686L2.57143 4.7H4.14286V3.1L3.95052 3.10011L4.14058 2.93171L4.14286 3.1H5.71429L5.71407 1.77613L5.91446 1.65534C7.6987 0.603448 9.77888 0 12 0Z" fill="#0C69DA"/>
<path fill-rule="evenodd" clip-rule="evenodd" d="M2.57143 7.9V9.5H1V7.9H2.57143ZM5.71429 7.9V9.5H4.14286V7.9H5.71429ZM8.85714 7.9V9.5H7.28571V7.9H8.85714ZM12 7.9V9.5H10.4286V7.9H12ZM10.4286 6.3V7.9H8.85714V6.3H10.4286ZM7.28571 6.3V7.9H5.71429V6.3H7.28571ZM4.14286 6.3V7.9H2.57143V6.3H4.14286ZM5.71429 4.7V6.3H4.14286V4.7H5.71429ZM8.85714 4.7V6.3H7.28571V4.7H8.85714ZM12 4.7V6.3H10.4286V4.7H12ZM10.4286 3.1V4.7H8.85714V3.1H10.4286ZM7.28571 3.1V4.7H5.71429V3.1H7.28571ZM8.85714 1.5V3.1H7.28571V1.5H8.85714ZM12 1.5V3.1H10.4286V1.5H12Z" fill="white" fill-opacity="0.5"/>
<path fill-rule="evenodd" clip-rule="evenodd" d="M4.14286 3.1V4.7H2.57143V6.3L1.43737 6.30031C1.74128 5.73829 2.08874 5.20327 2.47522 4.69977L2.57143 4.7L2.57077 4.57694C2.98885 4.0466 3.45072 3.55239 3.95091 3.09975L4.14286 3.1Z" fill="#85B4EC"/>
<path fill-rule="evenodd" clip-rule="evenodd" d="M5.71407 1.77613L5.71429 3.1H4.14286L4.14185 2.9306C4.53449 2.5901 4.94946 2.27468 5.38427 1.98682L5.71407 1.77613V1.77613Z" fill="#85B4EC"/>
<rect x="0.25" y="0.25" width="23.5" height="23.5" rx="11.75" stroke="black" stroke-opacity="0.095389" stroke-width="0.5"/>
</svg>
