<svg width="24" height="24" viewBox="0 0 24 24" fill="none" xmlns="http://www.w3.org/2000/svg">
<path fill-rule="evenodd" clip-rule="evenodd" d="M12 23.5C18.3513 23.5 23.5 18.3513 23.5 12C23.5 5.64873 18.3513 0.5 12 0.5C5.64873 0.5 0.5 5.64873 0.5 12C0.5 18.3513 5.64873 23.5 12 23.5Z" fill="white"/>
<path fill-rule="evenodd" clip-rule="evenodd" d="M0.682922 7.99969L23.3171 7.99969C23.7593 9.25089 24 10.5973 24 12C24 13.4026 23.7594 14.749 23.3171 16.0002H0.682893C0.240642 14.749 0 13.4026 0 12C0 10.5973 0.240653 9.25089 0.682922 7.99969L23.3171 7.99969L0.682922 7.99969Z" fill="white"/>
<path fill-rule="evenodd" clip-rule="evenodd" d="M0.682922 16.0003L23.3171 16.0003C21.6697 20.6609 17.2248 24 12 24C6.77523 24 2.33035 20.6609 0.682922 16.0003L23.3171 16.0003L0.682922 16.0003Z" fill="#2FA6F8"/>
<path fill-rule="evenodd" clip-rule="evenodd" d="M12 0C17.225 0 21.67 3.33938 23.3173 8.0003H0.682716C2.32998 3.33938 6.77501 0 12 0Z" fill="#F65260"/>
<path d="M0.25 12C0.25 5.51065 5.51065 0.25 12 0.25C18.4893 0.25 23.75 5.51065 23.75 12C23.75 18.4893 18.4893 23.75 12 23.75C5.51065 23.75 0.25 18.4893 0.25 12Z" stroke="black" stroke-opacity="0.095389" stroke-width="0.5"/>
</svg>
