<svg xmlns="http://www.w3.org/2000/svg" width="13" height="12.031" viewBox="0 0 13 12.031">
  <path style="fill: #3b9946; fill-rule: evenodd;" d="M1107.43,274.073l-3.58-.329a0.616,0.616,0,0,1-.51-0.368l-1.28-3.02a0.622,0.622,0,0,0-1.14,0l-1.27,3.02a0.6,0.6,0,0,1-.51.368l-3.58.329a0.6,0.6,0,0,0-.35,1.047l2.7,2.3a0.594,0.594,0,0,1,.19.588l-0.81,3.228a0.614,0.614,0,0,0,.91.658l2.99-1.7a0.624,0.624,0,0,1,.62,0l2.99,1.7a0.612,0.612,0,0,0,.91-0.658l-0.8-3.228a0.594,0.594,0,0,1,.19-0.588l2.7-2.3A0.606,0.606,0,0,0,1107.43,274.073Z" transform="translate(-1095 -269.969)"/>
</svg>
