<svg xmlns="http://www.w3.org/2000/svg" width="14" height="13.25" viewBox="0 0 14 13.25">
  <path style="fill: none; stroke: #adb8c0; stroke-width: 1px; fill-rule: evenodd;" d="M1107.43,356.582l-3.58-.335a0.62,0.62,0,0,1-.51-0.377l-1.28-3.082a0.616,0.616,0,0,0-1.14,0l-1.27,3.082a0.607,0.607,0,0,1-.51.377l-3.58.335a0.614,0.614,0,0,0-.35,1.068l2.7,2.35a0.616,0.616,0,0,1,.19.6l-0.81,3.3a0.617,0.617,0,0,0,.91.672l2.99-1.74a0.619,0.619,0,0,1,.62,0l2.99,1.74a0.615,0.615,0,0,0,.91-0.672l-0.8-3.3a0.616,0.616,0,0,1,.19-0.6l2.7-2.35A0.621,0.621,0,0,0,1107.43,356.582Z" transform="translate(-1094.5 -351.906)"/>
</svg>
