<svg width="24" height="24" viewBox="0 0 24 24" fill="none" xmlns="http://www.w3.org/2000/svg">
<path fill-rule="evenodd" clip-rule="evenodd" d="M12 23.5C18.3513 23.5 23.5 18.3513 23.5 12C23.5 5.64873 18.3513 0.5 12 0.5C5.64873 0.5 0.5 5.64873 0.5 12C0.5 18.3513 5.64873 23.5 12 23.5Z" fill="#0C69DA"/>
<path fill-rule="evenodd" clip-rule="evenodd" d="M0.683061 7.99902H23.3169C23.7593 9.25033 24 10.5969 24 11.9997C24 13.4026 23.7593 14.7492 23.3169 16.0006H0.683147C0.240734 14.7492 0 13.4026 0 11.9997C0 10.5969 0.240703 9.25033 0.683061 7.99902Z" fill="#0C69DA"/>
<path fill-rule="evenodd" clip-rule="evenodd" d="M0.68306 16.001L23.3169 16.001C21.6694 20.6614 17.2246 24.0003 12 24.0003C6.77537 24.0003 2.3306 20.6614 0.68306 16.001L23.3169 16.001L0.68306 16.001Z" fill="white"/>
<path fill-rule="evenodd" clip-rule="evenodd" d="M12 0C17.2249 0 21.6699 3.33927 23.3172 8.00008H0.682793C2.33012 3.33927 6.77509 0 12 0Z" fill="#F65260"/>
<path fill-rule="evenodd" clip-rule="evenodd" d="M5 11.8333C5 11.1911 5.31941 9.76358 5.50155 9.00178C5.57232 8.70577 5.8378 8.5 6.14216 8.5H8.85898C9.16281 8.5 9.42795 8.705 9.49902 9.0004C9.68125 9.75778 10 11.1764 10 11.8333C10 12.5804 9.52831 14.5451 9.40448 15.0481C9.38502 15.1271 9.35155 15.2003 9.30176 15.2647C9.06369 15.5727 8.28184 16.5 7.5 16.5C6.71769 16.5 5.93538 15.5716 5.69782 15.2642C5.64832 15.2001 5.61496 15.1274 5.59547 15.0488C5.47156 14.5495 5 12.5989 5 11.8333Z" fill="white"/>
<path fill-rule="evenodd" clip-rule="evenodd" d="M9.53271 9.14112L9.66258 9.67206C9.70854 9.87041 9.76123 10.1093 9.81109 10.3619L8.32727 12.2693L9.64857 14.0312L9.5295 14.5256C9.46557 14.7907 9.30921 15.1485 9.12997 15.4288L7.5 13.3329L5.87336 15.425C5.73105 15.1998 5.5977 14.9258 5.51713 14.6873L5.44796 14.4403C5.42745 14.3585 5.39223 14.2154 5.35025 14.0343L6.67273 12.2693L5.19067 10.3638L5.31029 9.79953C5.39665 9.41618 5.46729 9.14577 5.46729 9.14577C5.50274 9.00051 5.58422 8.86643 5.69376 8.75852L7.5 11.1663L9.30693 8.75781C9.4163 8.86454 9.49791 8.99705 9.53271 9.14112Z" fill="#F65260"/>
<path d="M0.25 12C0.25 5.51065 5.51065 0.25 12 0.25C18.4893 0.25 23.75 5.51065 23.75 12C23.75 18.4893 18.4893 23.75 12 23.75C5.51065 23.75 0.25 18.4893 0.25 12Z" stroke="black" stroke-opacity="0.095389" stroke-width="0.5"/>
</svg>
